<svg width="32" height="22" viewBox="0 0 32 22" fill="none" xmlns="http://www.w3.org/2000/svg">
<path d="M0 0H16C24.8366 0 32 7.16344 32 16V22H16C7.16344 22 0 14.8366 0 6V0Z" fill="#02ADEC"/>
<path fill-rule="evenodd" clip-rule="evenodd" d="M19.9214 8H19.2361C19.1401 8 19.0489 8.04194 18.9901 8.11369L14.9481 12.981L13.0099 10.6466C12.9501 10.5748 12.8599 10.5329 12.7639 10.5329H12.0786C12.0129 10.5329 11.9766 10.6046 12.0168 10.6531L14.702 13.8868C14.8275 14.0377 15.0687 14.0377 15.1951 13.8868L19.9832 8.11928C20.0234 8.07176 19.9871 8 19.9214 8Z" fill="white" stroke="white" stroke-width="0.669782"/>
</svg>
