<?xml version="1.0" encoding="UTF-8"?>
<svg width="800px" height="195px" viewBox="0 0 800 195" version="1.1" xmlns="http://www.w3.org/2000/svg" xmlns:xlink="http://www.w3.org/1999/xlink">
    <g id="页面-1" stroke="none" stroke-width="1" fill="none" fill-rule="evenodd">
        <g id="北京大数据定稿LOGO-01" fill-rule="nonzero">
            <path d="M498.822459,0.0166986457 C516.473672,0.0278310762 533.994741,2.18752259 550.827907,7.68694326 C551.231973,7.81805855 551.222057,7.8836162 550.79816,7.8836162 L385.504424,7.8836162 C385.380477,7.8836162 385.318504,7.82176936 385.318504,7.69807569 L385.325941,0.254190496 C385.325941,0.0958625959 385.405266,0.0166986457 385.563918,0.0166986457 C423.320483,-0.00556621525 461.07333,-0.00556621525 498.822459,0.0166986457 Z" id="路径" fill="#079DC8"></path>
            <path d="M569.338069,15.1234068 C573.030434,16.9825227 576.867815,18.8676143 580.307329,21.1720274 C580.46846,21.2808778 580.452346,21.335303 580.25899,21.335303 L385.504424,21.335303 C385.380477,21.335303 385.318504,21.2734562 385.318504,21.1497625 L385.318504,14.9415771 C385.318504,14.8129357 385.382956,14.748615 385.51186,14.748615 C446.265449,14.7461411 507.019037,14.7473781 567.772625,14.7523258 C568.325427,14.7523258 568.847241,14.8760195 569.338069,15.1234068 Z" id="路径" fill="#079DC8"></path>
            <path d="M510.316012,35.6961384 C504.817748,34.0955423 499.219087,33.1319686 493.52003,32.8054173 C492.06242,32.7237794 489.58473,32.6854344 486.086962,32.6903822 C452.561928,32.7571767 419.034415,32.77202 385.504424,32.7349119 C385.380477,32.7349119 385.318504,32.673065 385.318504,32.5493714 L385.318504,28.2930721 C385.318504,28.1693784 385.380477,28.1075315 385.504424,28.1075315 L590.570095,28.1075315 C590.693321,28.1075315 590.813156,28.1464592 590.912187,28.2188559 C594.174457,30.5863528 597.312781,33.1072298 600.327159,35.781487 C600.349627,35.7995624 600.357956,35.8299752 600.347823,35.8569425 C600.337689,35.8839099 600.311376,35.9013583 600.282538,35.9002843 C570.577533,35.9002843 540.909713,35.9002843 511.279076,35.9002843 C511.103072,35.9002843 510.782051,35.8322014 510.316012,35.6961384 Z" id="路径" fill="#079DC8"></path>
            <path d="M130.218133,87.191051 C134.519074,88.794121 138.402316,91.1096666 141.867859,94.1376877 C147.460322,99.0248247 149.970238,106.431602 148.073857,113.634284 C145.720114,122.581048 137.019074,127.932036 128.983626,131.056538 C123.244906,133.290446 117.338858,134.991234 111.265482,136.158902 C98.5746059,138.596904 85.8502641,139.750966 72.9288474,139.776942 C48.6799654,139.821472 24.4298439,139.825182 0.178482878,139.788074 C0.0594942925,139.788074 0,139.728701 0,139.609955 L0,34.5161008 C0,34.394881 0.0607337569,34.3342711 0.182201271,34.3342711 C23.6502207,34.3045846 47.107085,34.315717 70.5527941,34.3676683 C86.8356383,34.4047764 103.196569,35.7592222 118.99974,39.8262701 C128.745649,42.3347778 141.879014,47.4111661 146.675741,56.9665023 C149.654174,62.8963769 149.282335,69.950627 145.701522,75.5539504 C142.273164,80.9197819 136.052292,84.7048082 130.218133,86.9758241 C130.173278,86.9927331 130.143596,87.0355868 130.143596,87.0834376 C130.143596,87.1312883 130.173278,87.174142 130.218133,87.191051 Z M55.6122899,53.003357 L55.5676692,77.7321959 C55.5676692,77.7715627 55.5833395,77.809317 55.6112329,77.8371535 C55.6391263,77.86499 55.6769578,77.8806283 55.7164049,77.8806283 L69.0468449,77.9066787 C75.411207,77.9178547 81.5172091,76.6570251 86.0213821,74.4015282 C90.5255551,72.1460314 93.058874,69.0806593 93.0639549,65.8798683 L93.0639549,64.9892738 C93.0745543,58.3251582 82.3422045,52.9043051 69.0914656,52.8809003 L55.7610257,52.8549246 C55.7215785,52.8549246 55.683747,52.870563 55.6558536,52.8983994 C55.6279603,52.9262359 55.6122899,52.9639903 55.6122899,53.003357 Z M93.082539,108.264742 C92.2682109,99.3662192 77.9375232,96.534871 71.1105531,96.4012819 C68.676245,96.3542783 63.5597358,96.3567522 55.7610257,96.4087035 C55.6469949,96.4087035 55.5899796,96.4656026 55.5899796,96.5794008 L55.5899796,121.148675 C55.5899796,121.264947 55.6482344,121.32432 55.764744,121.326794 C60.3879464,121.366376 65.0074303,121.357717 69.6231958,121.300818 C75.7535869,121.226602 81.3324163,120.010693 86.359684,117.653092 C90.0780773,115.9053 93.4729703,112.509909 93.082539,108.264742 Z" id="形状" fill="#A01D22"></path>
            <path d="M209.869835,35.5068871 L160.645745,55.6974052 C160.514362,55.7518304 160.44867,55.7085376 160.44867,55.5675268 L160.44867,34.4159089 C160.44867,34.3646733 160.49029,34.3231386 160.54163,34.3231386 L209.631858,34.3231386 C209.925397,34.3238376 210.177837,34.5307433 210.235579,34.8179608 C210.29332,35.1051784 210.140388,35.393247 209.869835,35.5068871 L209.869835,35.5068871 Z" id="路径" fill="#A01D22"></path>
            <path d="M353.864615,87.1836294 C362.260747,90.6272613 370.366844,96.2491387 371.92857,105.682018 C374.367836,120.43991 360.561441,128.614825 348.844784,132.44067 C331.598876,138.069969 313.118461,139.788074 295.054507,139.795496 C271.251832,139.805391 247.455355,139.806628 223.665074,139.799207 C223.61168,139.799207 223.568396,139.756011 223.568396,139.702726 L223.568396,34.4270413 C223.568396,34.3717069 223.613345,34.3268494 223.668793,34.3268494 C246.740184,34.3194278 269.82273,34.3206647 292.916431,34.3305602 C306.812066,34.3342711 320.718857,35.3213466 334.376516,37.9411785 C340.876267,39.1880107 347.196296,41.040942 353.336603,43.4999722 C359.330653,45.9008663 365.707698,49.7823738 369.17324,55.1593377 C372.255788,59.942572 373.021777,65.7611223 371.300161,71.1566403 C368.75678,79.1311714 361.163821,83.9329597 353.860897,86.9424268 C353.665061,87.0215907 353.666301,87.1019916 353.864615,87.1836294 Z M279.12491,53.2742461 L279.080289,77.4167771 C279.080289,77.6463125 279.266745,77.8323878 279.496749,77.8323878 L292.890402,77.8584356 C299.178627,77.8694637 305.211626,76.5991844 309.662071,74.3270019 C314.112516,72.0548194 316.615806,68.9668807 316.621197,65.7425683 L316.621197,65.0820441 C316.632439,58.3685219 306.028089,52.9077034 292.935023,52.8846111 L279.54137,52.8586354 C279.311366,52.8586354 279.12491,53.0447107 279.12491,53.2742461 L279.12491,53.2742461 Z M315.788268,105.385153 C312.61276,98.7799112 300.888666,96.5126062 294.49303,96.4458116 C289.458325,96.3913864 284.409986,96.3715954 279.348014,96.3864386 C279.221588,96.3864386 279.158376,96.4495224 279.158376,96.57569 L279.158376,121.085591 C279.158376,121.204337 279.21663,121.264947 279.33314,121.267421 C288.212663,121.462857 294.072851,121.430696 296.913704,121.17094 C301.137798,120.782542 305.182171,119.732382 309.046821,118.020462 C314.204232,115.738314 318.565908,111.170306 315.788268,105.385153 Z" id="形状" fill="#A01D22"></path>
            <path d="M692.271869,104.082659 L692.271869,139.617377 C692.271869,139.741071 692.209896,139.80296 692.08595,139.80296 L636.867809,139.80296 C636.746342,139.80296 636.685608,139.741071 636.685608,139.617377 L636.678171,77.9362905 C636.678171,77.8175446 636.738905,77.7569347 636.860373,77.7544608 C660.266419,77.7025095 683.662549,77.7284851 707.048764,77.8323878 C713.712125,77.8620743 728.637756,75.0158829 729.667751,66.2583709 C730.749803,57.0926698 716.727742,53.6379055 710.302358,53.0998381 C707.719314,52.8821372 704.931759,52.8116318 701.939692,52.8883219 C701.823182,52.8932696 701.670728,52.8326597 701.482329,52.7064922 C701.375451,52.6362476 701.251336,52.5988312 701.125364,52.5988787 L636.867809,52.5988787 C636.743863,52.5988787 636.68189,52.5370319 636.68189,52.4133382 L636.689326,34.5161008 C636.689326,34.394881 636.75006,34.3342711 636.871528,34.3342711 C672.979605,34.3095323 696.032404,34.3082954 706.029924,34.3305602 C719.747077,34.3602467 733.445638,35.2953709 746.935969,37.8038786 C754.313261,39.1744044 761.440182,41.3477023 768.31673,44.323772 C774.68262,47.0771932 781.453814,51.8975356 783.993476,58.4025858 C788.061399,68.8336732 782.506119,78.1923364 773.559665,83.5433247 C764.051733,89.2319966 752.840777,92.1672475 741.945885,93.6775472 C741.898206,93.6849546 741.859304,93.719561 741.846472,93.7659817 C741.83364,93.8124024 741.849261,93.8620191 741.886391,93.8927742 L799.967694,139.661907 C799.9955,139.681993 800.006901,139.717845 799.995791,139.750256 C799.98468,139.782668 799.953662,139.804038 799.919355,139.80296 L738.004388,139.80296 C737.778106,139.80296 737.557849,139.725752 737.379698,139.58398 L692.487536,103.975045 C692.343758,103.861247 692.271869,103.897118 692.271869,104.082659 Z" id="路径" fill="#A01D22"></path>
            <path d="M529.644221,49.7452657 C527.95607,47.4037445 526.375753,45.3294016 523.672481,42.8468696 C523.546056,42.7305975 523.568366,42.6724615 523.739412,42.6724615 L607.317738,42.6724615 C607.461516,42.6724615 607.579265,42.7268867 607.670985,42.8357371 L613.415903,49.6228089 C613.579512,49.8132972 613.534892,49.9085413 613.282041,49.9085413 L529.967721,49.9085413 C529.83138,49.9085413 529.723546,49.8541161 529.644221,49.7452657 Z" id="路径" fill="#079DC8"></path>
            <path d="M210.08922,43.4480208 L210.08922,139.680461 C210.08922,139.748092 210.034283,139.802918 209.966513,139.802918 L160.571377,139.802918 C160.503608,139.802918 160.44867,139.748092 160.44867,139.680461 L160.44867,63.7090443 C160.44867,63.6605068 160.478331,63.6168394 160.523038,63.59772 L209.918174,43.3366965 C209.955886,43.3205638 209.999183,43.3243092 210.03355,43.3466773 C210.067918,43.3690454 210.08922,43.4070758 210.08922,43.4480208 Z" id="路径" fill="#A01D22"></path>
            <rect id="矩形" fill="#079DC8" x="385.318504" y="56.6770591" width="91.1006354" height="7.51810139" rx="0.159890911"></rect>
            <path d="M533.459292,56.6807699 L618.220067,56.6807699 C618.263744,56.6811338 618.30371,56.7053493 618.324182,56.7438536 L622.261961,64.0207524 C622.281451,64.0574027 622.280359,64.1015476 622.25908,64.1371934 C622.237801,64.1728392 622.199421,64.1948155 622.157846,64.1951654 L535.545311,64.1951654 C535.492083,64.195644 535.445009,64.1607894 535.430041,64.1098118 L533.34774,56.8329131 C533.337319,56.7974592 533.344027,56.7591843 533.36589,56.7293662 C533.387753,56.6995482 533.422278,56.6815851 533.459292,56.6807699 Z" id="路径" fill="#079DC8"></path>
            <rect id="矩形" fill="#079DC8" x="385.318504" y="71.0601593" width="91.1006354" height="6.58297723" rx="0.126425372"></rect>
            <path d="M536.75007,71.0601562 L625.047037,71.0601562 C625.101854,71.0609594 625.149907,71.096926 625.166026,71.1492187 L627.058688,77.4835717 C627.070591,77.5221568 627.063272,77.5640964 627.038999,77.5963942 C627.014726,77.628692 626.976431,77.6474469 626.935981,77.6468613 L537.46772,77.6468613 C537.404737,77.6454329 537.352409,77.5979586 537.345013,77.535523 L536.622766,71.20117 C536.619376,71.165221 536.630787,71.129174 536.654975,71.1021959 C536.679162,71.0752177 536.713797,71.0599078 536.75007,71.0601562 L536.75007,71.0601562 Z" id="路径" fill="#079DC8"></path>
            <rect id="矩形" fill="#079DC8" x="385.318504" y="84.4190759" width="91.1006354" height="7.79270135" rx="0.122706978"></rect>
            <path d="M629.025718,92.2117785 L538.222554,92.2117785 C538.131574,92.2117785 538.057248,92.1392733 538.055226,92.0485016 L537.813489,84.5897731 C537.81253,84.5448462 537.829716,84.5014129 537.861206,84.4692897 C537.892695,84.4371664 537.935829,84.4190745 537.980858,84.4190745 L628.300631,84.4190745 C628.387534,84.4187326 628.460235,84.4848363 628.467959,84.5712191 L629.193709,92.0299475 C629.197231,92.0767453 629.181467,92.1231375 629.149622,92.1577425 C629.117777,92.1923475 629.072797,92.2119632 629.025718,92.2117785 L629.025718,92.2117785 Z" id="路径" fill="#079DC8"></path>
            <rect id="矩形" fill="#079DC8" x="385.325941" y="98.9840058" width="91.0931986" height="8.16378236" rx="0.159890911"></rect>
            <path d="M629.051747,100.902495 C628.9749,102.921175 628.767909,104.943567 628.430775,106.969669 C628.410944,107.088415 628.340294,107.147788 628.218827,107.147788 L537.988295,107.147788 C537.88418,107.147788 537.833362,107.095837 537.835755,106.991934 L538.066381,99.1584138 C538.06886,99.0421418 538.129594,98.9840058 538.248583,98.9840058 L628.958787,98.9840058 C629.062902,98.9840058 629.121157,99.037194 629.133551,99.1435706 C629.207919,99.7595651 629.070339,100.434933 629.051747,100.902495 Z" id="路径" fill="#079DC8"></path>
            <rect id="矩形" fill="#079DC8" x="385.325941" y="113.923727" width="91.0931986" height="6.58297723" rx="0.100396619"></rect>
            <path d="M625.151152,120.506708 L536.817001,120.506708 C536.779746,120.506948 536.744173,120.491247 536.71929,120.463576 C536.694406,120.435905 536.682599,120.398919 536.686004,120.361983 L537.378479,114.035052 C537.385896,113.970567 537.439879,113.921448 537.504904,113.920005 L627.002912,113.920005 C627.044312,113.919474 627.0835,113.938622 627.108459,113.971589 C627.133419,114.004556 627.14117,114.047408 627.129337,114.087003 L625.273859,120.413934 C625.257633,120.468273 625.207961,120.505826 625.151152,120.506708 L625.151152,120.506708 Z" id="路径" fill="#079DC8"></path>
            <rect id="矩形" fill="#079DC8" x="385.325941" y="127.375414" width="91.0931986" height="7.69622028" rx="0.159890911"></rect>
            <path d="M533.451855,134.930624 L535.523,127.453341 C535.536406,127.404989 535.580563,127.371559 535.630834,127.371703 L622.336328,127.371703 C622.37507,127.372387 622.410681,127.393085 622.430394,127.426376 C622.450106,127.459668 622.451095,127.500782 622.433007,127.534979 L618.435734,135.012262 C618.416762,135.04816 618.379717,135.07091 618.339056,135.071635 L533.55597,135.071635 C533.521731,135.070598 533.489868,135.05392 533.469548,135.026399 C533.449228,134.998878 533.442705,134.963566 533.451855,134.930624 L533.451855,134.930624 Z" id="路径" fill="#079DC8"></path>
            <rect id="矩形" fill="#079DC8" x="385.318504" y="141.843863" width="91.1006354" height="7.23607982" rx="0.137580551"></rect>
            <path d="M529.339312,142.908866 C529.540106,142.594684 529.754533,142.28545 529.982594,141.981163 C530.052004,141.88963 530.142485,141.843863 530.254037,141.843863 L613.475397,141.843863 C613.708417,141.843863 613.750558,141.932923 613.601823,142.111041 L607.908962,148.920378 C607.819721,149.026755 607.704451,149.079943 607.563152,149.079943 L524.676447,149.079943 C524.547543,149.079943 524.526472,149.032939 524.613235,148.938932 C526.393105,147.056315 527.968465,145.046292 529.339312,142.908866 Z" id="路径" fill="#079DC8"></path>
            <path d="M65.5738655,156.520117 C66.1043563,154.939312 67.1269145,154.022742 68.64154,153.770407 C70.9890856,153.377061 72.6065867,154.299816 73.4940432,156.538671 C73.5302395,156.627972 73.616903,156.686607 73.7134284,156.687104 L88.2449094,156.687104 C88.2976062,156.686895 88.3466745,156.71386 88.374672,156.758414 C88.4026695,156.802967 88.4056257,156.858791 88.3824899,156.906042 L86.2853161,161.370146 C86.2447883,161.456478 86.1577431,161.511494 86.0622125,161.511159 L50.4771888,161.511159 C50.3532424,161.511159 50.2912691,161.44931 50.2912691,161.325617 L50.2912691,156.872644 C50.2912691,156.748951 50.3532424,156.687104 50.4771888,156.687104 L65.3396068,156.687104 C65.4585953,156.687104 65.5366816,156.631442 65.5738655,156.520117 Z" id="路径" fill="#079DC8"></path>
            <path d="M116.545601,174.547233 L105.516846,194.103203 C105.495787,194.141149 105.456183,194.165145 105.412731,194.166315 L96.637323,194.166315 C96.5932875,194.165909 96.5528314,194.142011 96.5313147,194.103667 C96.5097981,194.065323 96.5105206,194.018412 96.533208,193.980746 L112.180207,166.984602 C112.202894,166.946936 112.203617,166.900025 112.1821,166.861681 C112.160583,166.823337 112.120127,166.799439 112.076092,166.799062 L97.6375708,166.799062 C97.5698016,166.799062 97.5148638,166.744236 97.5148638,166.676605 L97.5148638,161.540844 C97.5148638,161.473213 97.5698016,161.418387 97.6375708,161.418387 L112.730529,161.418387 C112.798298,161.418387 112.853236,161.363561 112.853236,161.29593 L112.853236,154.861385 C112.853236,154.793754 112.908174,154.738928 112.975943,154.738928 L120.260276,154.738928 C120.328045,154.738928 120.382983,154.793754 120.382983,154.861385 L120.382983,161.29593 C120.382983,161.363561 120.43792,161.418387 120.505689,161.418387 L136.505936,161.418387 C136.547984,161.418238 136.58718,161.439586 136.609803,161.474957 C136.632427,161.510328 136.635326,161.554796 136.617488,161.592795 L134.189377,166.728556 C134.169113,166.771722 134.12559,166.79923 134.077825,166.799062 L121.160127,166.799062 C121.116091,166.799439 121.075635,166.823337 121.054118,166.861681 C121.032602,166.900025 121.033324,166.946936 121.056012,166.984602 L137.119471,193.980746 C137.142158,194.018412 137.142881,194.065323 137.121364,194.103667 C137.099847,194.142011 137.059391,194.165909 137.015356,194.166315 L128.347781,194.166315 C128.303766,194.167233 128.262617,194.144576 128.239948,194.106914 L116.757549,174.547233 C116.735554,174.509629 116.695205,174.486509 116.651575,174.486509 C116.607944,174.486509 116.567595,174.509629 116.545601,174.547233 L116.545601,174.547233 Z" id="路径" fill="#079DC8"></path>
            <path d="M357.058715,162.067779 L357.054997,163.162468 C357.054997,163.293583 356.993023,163.377695 356.869077,163.414803 L350.756038,165.296183 C350.619697,165.338239 350.551527,165.288762 350.551527,165.147751 L350.551527,157.429266 C350.551527,157.305572 350.6135,157.243725 350.737446,157.243725 L357.90279,157.243725 C358.027106,157.24378 358.139188,157.1726 358.189106,157.061896 C358.672498,156.000604 359.263722,155.169382 360.468482,154.887361 C362.349989,154.453196 364.856186,154.950445 365.51806,157.047052 C365.555289,157.16398 365.665023,157.243488 365.789502,157.243725 L373.047806,157.243725 C373.171752,157.243725 373.233726,157.305572 373.233726,157.429266 L373.233726,162.787676 C373.233726,162.906422 373.175471,162.983112 373.058961,163.017746 L367.009135,164.791513 C366.88271,164.826147 366.819497,164.779144 366.819497,164.650502 L366.819497,162.067779 C366.819497,161.944085 366.757524,161.882238 366.633578,161.882238 L357.244635,161.882238 C357.120688,161.882238 357.058715,161.944085 357.058715,162.067779 Z" id="路径" fill="#079DC8"></path>
            <path d="M12.5495773,161.492603 L12.5495773,154.943023 C12.5495773,154.88154 12.5995208,154.831699 12.6611291,154.831699 L19.4992544,154.831699 C19.5608627,154.831699 19.6108062,154.88154 19.6108062,154.943023 L19.6256797,188.525855 C19.6256797,188.560895 19.6091484,188.59389 19.581059,188.614914 L12.5495773,194.051251 C12.5302681,194.065704 12.5067827,194.073516 12.4826462,194.073516 L2.80738693,194.073516 C2.74577857,194.073516 2.69583513,194.023675 2.69583513,193.962192 L2.69583513,188.896936 C2.69583513,188.835453 2.74577857,188.785612 2.80738693,188.785612 L12.4380255,188.785612 C12.4996339,188.785612 12.5495773,188.73577 12.5495773,188.674287 L12.5495773,167.003156 C12.5495773,166.941673 12.4996339,166.891832 12.4380255,166.891832 L2.52850743,166.891832 C2.49892206,166.891832 2.47054842,166.880103 2.4496284,166.859226 C2.42870838,166.838348 2.41695563,166.810033 2.41695563,166.780507 L2.41695563,161.715252 C2.41695563,161.653769 2.46689907,161.603927 2.52850743,161.603927 L12.4380255,161.603927 C12.4676109,161.603927 12.4959845,161.592199 12.5169046,161.571321 C12.5378246,161.550444 12.5495773,161.522128 12.5495773,161.492603 Z" id="路径" fill="#079DC8"></path>
            <path d="M30.6990549,188.785612 L41.3522517,188.785612 C41.3914742,188.785791 41.4279136,188.805863 41.4489714,188.838886 C41.4700293,188.87191 41.4728154,188.913353 41.4563667,188.948887 L39.1769916,194.006722 C39.1582233,194.04727 39.1176324,194.073516 39.0728766,194.073516 L23.6341077,194.073516 C23.5704457,194.073516 23.5188375,194.022013 23.5188375,193.958481 L23.5188375,154.946734 C23.5188375,154.883202 23.5704457,154.831699 23.6341077,154.831699 L30.4685146,154.831699 C30.5321765,154.831699 30.5837847,154.883202 30.5837847,154.946734 L30.5837847,161.770914 C30.5844246,161.804278 30.5995511,161.835722 30.6252397,161.857085 C30.6509282,161.878448 30.6846467,161.887627 30.7176469,161.882238 L41.86539,160.067652 C41.902735,160.061988 41.9404912,160.074943 41.9664494,160.102329 C41.9924076,160.129715 42.0032736,160.168055 41.9955337,160.204952 L40.7387168,166.275837 C40.7288037,166.321651 40.6920302,166.356881 40.645757,166.364897 L30.680463,167.852932 C30.6241484,167.862111 30.5830384,167.911027 30.5837847,167.967967 L30.5837847,188.670577 C30.5837847,188.701086 30.5959292,188.730345 30.6175466,188.751919 C30.639164,188.773492 30.6684834,188.785612 30.6990549,188.785612 L30.6990549,188.785612 Z" id="路径" fill="#079DC8"></path>
            <path d="M175.009898,156.872644 L184.369094,156.872644 C184.410726,156.872414 184.449803,156.892654 184.473577,156.92676 C184.497352,156.960867 184.502777,157.004468 184.488083,157.043342 L182.710691,161.70783 C182.692523,161.755939 182.646922,161.788234 182.595421,161.789468 L173.265972,161.789468 C173.21447,161.790701 173.168869,161.822997 173.150702,161.871106 L172.399586,163.841546 C172.381419,163.889654 172.335818,163.92195 172.284316,163.923186 L165.829185,163.923186 C165.787553,163.923414 165.748477,163.903174 165.724702,163.869068 C165.700927,163.834961 165.695502,163.79136 165.710197,163.752486 L168.930325,155.006107 C168.948983,154.956743 168.996448,154.924177 169.049314,154.924467 L175.303651,154.924467 C175.344349,154.924674 175.38246,154.944418 175.406045,154.977518 C175.429631,155.010618 175.435808,155.053025 175.42264,155.091455 L174.89091,156.705658 C174.877742,156.744089 174.883918,156.786496 174.907504,156.819595 C174.93109,156.852695 174.9692,156.87244 175.009898,156.872644 L175.009898,156.872644 Z" id="路径" fill="#079DC8"></path>
            <path d="M163.880747,160.583454 L165.743662,160.583454 C165.875045,160.583454 165.914708,160.644064 165.862651,160.765284 L163.999736,164.984475 C163.957594,165.080956 163.884466,165.129197 163.78035,165.129197 L158.124674,165.129197 C158.000728,165.129197 157.938755,165.191044 157.938755,165.314737 L157.938755,172.354144 C157.938755,172.470993 157.868352,172.576381 157.760272,172.621323 L152.878021,174.558366 C152.71937,174.622686 152.640044,174.569498 152.640044,174.398801 L152.640044,165.314737 C152.640044,165.191044 152.578071,165.129197 152.454125,165.129197 L145.110298,165.129197 C144.986351,165.129197 144.924378,165.06735 144.924378,164.943656 L144.924378,160.765284 C144.924378,160.641591 144.987591,160.579744 145.114016,160.579744 L146.579063,160.587165 C146.757546,160.587165 146.829435,160.499343 146.79473,160.323698 L146.002712,156.11935 C145.982881,156.003078 146.03122,155.944942 146.14773,155.944942 L150.702761,155.944942 C150.820082,155.9448 150.921354,156.028762 150.944457,156.145326 L151.76994,160.397914 C151.794729,160.519134 151.869097,160.580981 151.993044,160.583454 L152.450406,160.590876 C152.576832,160.59335 152.640044,160.530266 152.640044,160.401625 L152.640044,155.38832 C152.640044,155.264627 152.702017,155.20278 152.825964,155.20278 L157.752835,155.20278 C157.876781,155.20278 157.938755,155.264627 157.938755,155.38832 L157.938755,160.212373 C157.941113,160.432178 158.107904,160.616674 158.326557,160.641341 C158.545209,160.666008 158.746247,160.523008 158.793985,160.308855 L159.719865,156.104507 C159.744654,155.99813 159.811585,155.944942 159.920658,155.944942 L164.375293,155.944942 C164.428395,155.945106 164.478665,155.968858 164.512447,156.009744 C164.546229,156.05063 164.560015,156.104405 164.550058,156.156458 L163.724575,160.394203 C163.699785,160.520371 163.751843,160.583454 163.880747,160.583454 Z" id="路径" fill="#079DC8"></path>
            <path d="M294.403788,163.644873 L294.403788,166.568991 C294.403788,166.732267 294.326941,166.83988 294.173248,166.891832 L287.907755,169.062656 C287.776372,169.107185 287.71068,169.061419 287.71068,168.925356 L287.71068,158.356968 C287.71068,158.233275 287.772653,158.171428 287.8966,158.171428 L303.145731,158.171428 C303.267198,158.171428 303.351482,158.115766 303.398581,158.004441 C303.93403,156.705658 304.625651,155.677763 306.127882,155.443982 C308.480386,155.075375 310.271412,155.930099 311.50096,158.008152 C311.565413,158.117003 311.660851,158.171428 311.787277,158.171428 L326.103091,158.171428 C326.227037,158.171428 326.289011,158.233275 326.289011,158.356968 L326.289011,166.045767 C326.289011,166.161126 326.215978,166.263887 326.106809,166.301813 L319.714891,168.557986 C319.573592,168.607463 319.502943,168.556749 319.502943,168.405842 L319.502943,163.644873 C319.502943,163.521179 319.44097,163.459332 319.317023,163.459332 L294.589708,163.459332 C294.465761,163.459332 294.403788,163.521179 294.403788,163.644873 Z" id="路径" fill="#079DC8"></path>
            <path d="M203.860912,164.665346 L203.860912,167.912305 C203.860912,168.035998 203.922885,168.097845 204.046831,168.097845 L206.73523,168.097845 C206.908755,168.097845 206.957094,168.175772 206.880247,168.331626 C206.000227,170.142501 205.120208,171.941007 204.240188,173.727144 C203.987337,174.239236 203.860912,174.779777 203.860912,175.348768 C203.86587,179.972438 203.86463,184.592396 203.857193,189.208644 C203.857193,189.344707 203.805136,189.458505 203.701021,189.550039 L198.175488,194.4112 C198.081917,194.492422 197.963087,194.537368 197.840833,194.537368 L193.63533,194.537368 C193.511384,194.537368 193.44941,194.475521 193.44941,194.351827 L193.44941,189.806085 C193.44941,189.682391 193.511384,189.620544 193.63533,189.620544 L197.353723,189.620544 C197.47767,189.620544 197.539643,189.558697 197.539643,189.435004 L197.539643,183.590478 C197.539643,183.466784 197.47767,183.404937 197.353723,183.404937 L192.356203,183.404937 C192.209946,183.404937 192.167804,183.339379 192.229777,183.208264 C193.875786,179.779475 195.520556,176.366767 197.164085,172.970139 C197.416936,172.450625 197.543361,171.903899 197.543361,171.329961 C197.543361,169.103475 197.540883,166.881936 197.535925,164.665346 C197.535925,164.541652 197.473951,164.479805 197.350005,164.479805 L192.612772,164.479805 C192.488826,164.479805 192.426852,164.417958 192.426852,164.294265 L192.426852,159.841292 C192.426852,159.717599 192.488826,159.655752 192.612772,159.655752 L197.353723,159.655752 C197.47767,159.655752 197.539643,159.593905 197.539643,159.470211 L197.539643,155.666631 C197.539643,155.542937 197.601616,155.481091 197.725563,155.481091 L203.674992,155.481091 C203.798938,155.481091 203.860912,155.542937 203.860912,155.666631 L203.860912,159.470211 C203.860912,159.593905 203.922885,159.655752 204.046831,159.655752 L207.014109,159.655752 C207.165324,159.655752 207.212423,159.726257 207.155408,159.867268 L205.374298,164.283132 C205.32224,164.414248 205.224323,164.479805 205.080545,164.479805 L204.046831,164.476094 C203.922885,164.476094 203.860912,164.539178 203.860912,164.665346 Z" id="路径" fill="#079DC8"></path>
            <path d="M267.073597,177.493616 L267.073597,191.906403 C267.073919,191.952145 267.047884,191.994005 267.006666,192.014017 L261.016335,194.938135 C260.979916,194.955833 260.936976,194.953825 260.902375,194.932806 C260.867774,194.911787 260.846264,194.874645 260.845289,194.834232 L260.845289,177.493616 C260.845289,177.428035 260.792016,177.37487 260.7263,177.37487 L258.268442,177.37487 C258.202727,177.37487 258.149454,177.321706 258.149454,177.256125 L258.149454,172.298482 C258.149454,172.232901 258.202727,172.179736 258.268442,172.179736 L260.7263,172.179736 C260.792016,172.179736 260.845289,172.126572 260.845289,172.06099 L260.845289,160.79126 C260.845289,160.725678 260.792016,160.672514 260.7263,160.672514 L258.826201,160.676225 C258.760486,160.676225 258.707213,160.62306 258.707213,160.557479 L258.707213,155.599836 C258.707213,155.534255 258.760486,155.481091 258.826201,155.481091 L279.567399,155.484801 C279.606227,155.484862 279.642582,155.503824 279.664799,155.535603 C279.687015,155.567382 279.692298,155.607979 279.678951,155.644366 L277.78257,160.598298 C277.764219,160.643577 277.719958,160.673024 277.671018,160.672514 L276.767449,160.679936 C276.701733,160.679936 276.64846,160.7331 276.64846,160.798681 L276.64846,172.06099 C276.64846,172.126572 276.701733,172.179736 276.767449,172.179736 L279.649204,172.179736 C279.688031,172.179797 279.724387,172.198759 279.746604,172.230538 C279.76882,172.262317 279.774102,172.302914 279.760755,172.339301 L277.927587,177.300654 C277.909992,177.348694 277.863548,177.380092 277.812317,177.378581 L276.767449,177.367449 C276.701733,177.367449 276.64846,177.420613 276.64846,177.486195 L276.64846,191.898981 C276.648782,191.944724 276.622747,191.986583 276.581529,192.006595 L270.405278,194.875051 C270.368267,194.893023 270.324578,194.89063 270.289761,194.868724 C270.254943,194.846819 270.233942,194.808512 270.234232,194.767438 L270.234232,177.489906 C270.234232,177.424324 270.180959,177.37116 270.115243,177.37116 L267.192586,177.37487 C267.12687,177.37487 267.073597,177.428035 267.073597,177.493616 Z M270.327192,160.772706 C270.327192,160.719421 270.283907,160.676225 270.230513,160.676225 L267.166557,160.676225 C267.113163,160.676225 267.069879,160.719421 267.069879,160.772706 L267.069879,172.083255 C267.069879,172.13654 267.113163,172.179736 267.166557,172.179736 L270.230513,172.179736 C270.283907,172.179736 270.327192,172.13654 270.327192,172.083255 L270.327192,160.772706 Z" id="形状" fill="#079DC8"></path>
            <path d="M219.262497,177.653181 L215.696558,177.653181 C215.664014,177.653181 215.632803,177.64028 215.609791,177.617315 C215.586779,177.594349 215.573851,177.563202 215.573851,177.530725 L215.573851,173.415436 C215.573851,173.382958 215.586779,173.351811 215.609791,173.328846 C215.632803,173.305881 215.664014,173.292979 215.696558,173.292979 L219.262497,173.292979 C219.330266,173.292979 219.385204,173.238154 219.385204,173.170523 L219.385204,169.611856 C219.385204,169.544225 219.330266,169.489399 219.262497,169.489399 L213.930321,169.489399 C213.862551,169.489399 213.807614,169.544225 213.807614,169.611856 L213.807614,192.322014 C213.808622,192.371898 213.779203,192.417404 213.733246,192.437049 L207.657391,194.990086 C207.619071,195.006487 207.575028,195.002346 207.540451,194.979092 C207.505875,194.955838 207.485497,194.916653 207.48632,194.875051 L207.48632,155.696318 C207.48632,155.628687 207.541283,155.573861 207.609052,155.573861 L230.789516,155.573861 C230.857285,155.573861 230.912223,155.628687 230.912223,155.696318 L230.912223,165.025294 C230.912563,165.058808 230.899124,165.090996 230.875039,165.114354 L226.531956,169.44858 C226.509791,169.469467 226.480629,169.481372 226.450151,169.481977 L225.918421,169.49311 C225.852108,169.495116 225.799402,169.549358 225.799432,169.615566 L225.799432,173.170523 C225.799432,173.238154 225.85437,173.292979 225.922139,173.292979 L230.908504,173.29669 C230.949211,173.296371 230.987426,173.316218 231.01052,173.349673 C231.033613,173.383127 231.038579,173.425834 231.023775,173.463677 L229.436021,177.575254 C229.417512,177.622575 229.371651,177.65358 229.32075,177.653181 L225.922139,177.653181 C225.85437,177.653181 225.799432,177.708007 225.799432,177.775638 L225.795714,180.406602 C225.795714,180.474233 225.850651,180.529059 225.918421,180.529059 L230.603596,180.529059 C230.671365,180.529059 230.726303,180.583885 230.726303,180.651516 L230.726303,189.587147 C230.725802,189.623109 230.709486,189.657033 230.681682,189.679917 L225.412719,194.04383 C225.390972,194.062537 225.36334,194.073042 225.334633,194.073516 L215.324718,194.073516 C215.292174,194.073516 215.260963,194.060615 215.237951,194.037649 C215.214939,194.014684 215.202011,193.983537 215.202011,193.951059 L215.202011,180.651516 C215.202011,180.619038 215.214939,180.587891 215.237951,180.564926 C215.260963,180.541961 215.292174,180.529059 215.324718,180.529059 L219.262497,180.529059 C219.330266,180.529059 219.385204,180.474233 219.385204,180.406602 L219.385204,177.775638 C219.385204,177.708007 219.330266,177.653181 219.262497,177.653181 Z M224.405035,160.312565 C224.405035,160.257231 224.360085,160.212373 224.304638,160.212373 L213.90801,160.212373 C213.852563,160.212373 213.807614,160.257231 213.807614,160.312565 L213.807614,164.750694 C213.807614,164.806029 213.852563,164.850886 213.90801,164.850886 L224.304638,164.850886 C224.360085,164.850886 224.405035,164.806029 224.405035,164.750694 L224.405035,160.312565 Z M224.308096,185.076249 C224.307993,185.022978 224.264649,184.979871 224.211269,184.979953 L221.80175,184.984146 C221.77611,184.984186 221.751535,184.994389 221.733432,185.01251 C221.715329,185.030632 221.705181,185.055188 221.705221,185.080776 L221.713178,189.622808 C221.713281,189.676078 221.756626,189.719185 221.810005,189.719103 L224.219524,189.71491 C224.245165,189.714871 224.269739,189.704668 224.287842,189.686546 C224.305945,189.668425 224.316093,189.643869 224.316054,189.61828 L224.308096,185.076249 Z" id="形状" fill="#079DC8"></path>
            <path d="M243.428335,160.676225 L240.33835,160.676225 C240.266473,160.676225 240.208206,160.618076 240.208206,160.546346 L240.208206,155.796509 C240.208206,155.72478 240.266473,155.666585 240.33835,155.666585 L257.930068,155.666585 C257.974573,155.665454 258.016593,155.687062 258.041463,155.723914 C258.066332,155.760766 258.070599,155.807747 258.052775,155.848461 L256.048561,160.598298 C256.027904,160.645533 255.981216,160.67611 255.929573,160.676225 L250.530466,160.676225 C250.471234,160.675926 250.419271,160.715581 250.40404,160.772706 L249.392637,164.59484 C249.382369,164.633309 249.390346,164.674352 249.41428,164.7062 C249.438215,164.738048 249.475464,164.757183 249.515344,164.758116 L256.996752,164.758116 C257.031268,164.758116 257.064371,164.7718 257.088777,164.796156 C257.113184,164.820513 257.126895,164.853548 257.126895,164.887994 L257.126895,188.529566 C257.12556,188.567199 257.107923,188.602401 257.078556,188.626047 L251.017575,193.672749 C250.993547,193.692541 250.963202,193.703075 250.932052,193.702463 L242.104587,193.702463 C242.03271,193.702463 241.974443,193.644287 241.974443,193.572557 L241.974443,175.092722 C241.974443,175.020992 241.916175,174.962844 241.844299,174.962844 L239.810338,174.962844 C239.769802,174.963049 239.731485,174.944392 239.706699,174.912381 C239.681913,174.88037 239.673488,174.838662 239.683913,174.799568 L243.55476,160.8395 C243.565184,160.800407 243.55676,160.758698 243.531974,160.726688 C243.507188,160.694677 243.468871,160.67602 243.428335,160.676225 Z M250.898587,169.867902 C250.898587,169.812567 250.853638,169.76771 250.79819,169.76771 L248.29943,169.76771 C248.243982,169.76771 248.199033,169.812567 248.199033,169.867902 L248.199033,188.689131 C248.199033,188.744465 248.243982,188.789323 248.29943,188.789323 L250.79819,188.789323 C250.853638,188.789323 250.898587,188.744465 250.898587,188.689131 L250.898587,169.867902 Z" id="形状" fill="#079DC8"></path>
            <path d="M385.333377,155.852172 C457.068621,155.854645 528.802624,155.854645 600.535389,155.852172 C600.726266,155.852172 600.751055,155.915255 600.609756,156.041423 C597.761467,158.596934 594.807823,161.022567 591.748825,163.318322 C591.625744,163.409973 591.475739,163.459438 591.32121,163.459333 L385.508142,163.459333 C385.384195,163.459333 385.322222,163.398722 385.322222,163.277503 L385.325941,155.859593 C385.325941,155.855494 385.32927,155.852172 385.333377,155.852172 Z" id="路径" fill="#079DC8"></path>
            <path d="M341.627383,190.010179 L341.627383,191.832187 C341.62733,191.874924 341.602765,191.913859 341.56417,191.932379 L335.466005,194.800835 C335.431461,194.817411 335.390808,194.815127 335.358346,194.794785 C335.325885,194.774444 335.306114,194.738895 335.306114,194.700643 L335.306114,155.941231 C335.306114,155.879748 335.356058,155.829907 335.417666,155.829907 L349.324457,155.918966 C349.386065,155.918966 349.436009,155.968808 349.436009,156.03029 L349.436009,169.67865 C349.436696,169.711153 349.423113,169.742332 349.398825,169.763999 L346.621185,172.142628 C346.595876,172.16378 346.581254,172.195032 346.581254,172.227977 C346.581254,172.260921 346.595876,172.292174 346.621185,172.313325 L349.391388,174.606606 C349.41706,174.627571 349.43205,174.658851 349.43229,174.691955 L349.439747,185.015429 C349.440311,185.046079 349.428204,185.075613 349.406262,185.097066 L344.352965,189.869168 C344.331773,189.888786 344.303779,189.899429 344.274879,189.898855 L341.738935,189.898855 C341.677326,189.898855 341.627383,189.948696 341.627383,190.010179 Z M343.2077,160.958246 C343.2077,160.904961 343.164416,160.861765 343.111022,160.861765 L341.720343,160.861765 C341.666949,160.861765 341.623664,160.904961 341.623664,160.958246 L341.623664,169.582169 C341.623664,169.635454 341.666949,169.67865 341.720343,169.67865 L343.111022,169.67865 C343.164416,169.67865 343.2077,169.635454 343.2077,169.582169 L343.2077,160.958246 Z M343.2077,174.781014 C343.2077,174.72568 343.162751,174.680822 343.107303,174.680822 L341.724061,174.680822 C341.668613,174.680822 341.623664,174.72568 341.623664,174.781014 L341.623664,184.881839 C341.623664,184.937174 341.668613,184.982031 341.724061,184.982031 L343.107303,184.982031 C343.162751,184.982031 343.2077,184.937174 343.2077,184.881839 L343.2077,174.781014 Z" id="形状" fill="#079DC8"></path>
            <path d="M72.7875485,181.300908 L72.7875485,189.657652 C72.7879811,189.699525 72.7669433,189.738716 72.7317726,189.761555 L65.7895323,194.422332 C65.7698871,194.436133 65.7466146,194.443874 65.7226013,194.444597 L62.9635534,194.444597 C62.9310095,194.444597 62.8997985,194.431696 62.8767865,194.408731 C62.8537745,194.385765 62.8408465,194.354618 62.8408465,194.322141 L62.8408465,189.746712 C62.8408465,189.679081 62.8957843,189.624255 62.9635534,189.624255 L65.5069344,189.620544 C65.5747036,189.620544 65.6296414,189.565718 65.6296414,189.498087 L65.6296414,181.300908 C65.6296414,181.233277 65.5747036,181.178451 65.5069344,181.178451 L51.0646949,181.178451 C51.032151,181.178451 51.00094,181.165549 50.977928,181.142584 C50.954916,181.119619 50.941988,181.088472 50.941988,181.055994 L50.941988,164.231181 C50.941988,164.198703 50.954916,164.167556 50.977928,164.144591 C51.00094,164.121626 51.032151,164.108724 51.0646949,164.108724 L87.4454548,164.108724 C87.513224,164.108724 87.5681683,164.16355 87.5681683,164.231181 L87.5681683,176.606733 C87.5685944,176.648606 87.5475566,176.687797 87.5123859,176.710635 L80.5478353,181.159897 C80.5277814,181.172386 80.5045396,181.178829 80.4809042,181.178451 L72.9102555,181.178451 C72.8424863,181.178451 72.7875485,181.233277 72.7875485,181.300908 L72.7875485,181.300908 Z M80.4102547,168.750948 C80.4102547,168.695613 80.3653056,168.650756 80.3098581,168.650756 L58.2002916,168.650756 C58.1448441,168.650756 58.099895,168.695613 58.099895,168.750948 L58.099895,176.439746 C58.099895,176.495081 58.1448441,176.539938 58.2002916,176.539938 L80.3098581,176.539938 C80.3653056,176.539938 80.4102547,176.495081 80.4102547,176.439746 L80.4102547,168.750948 Z" id="形状" fill="#079DC8"></path>
            <path d="M298.267199,172.550817 L290.92709,172.550817 C290.883424,172.550126 290.843899,172.524867 290.825001,172.485576 C290.806102,172.446285 290.811077,172.39971 290.837849,172.365277 L296.87652,164.709875 C296.897955,164.682288 296.930784,164.665906 296.965761,164.665346 L303.95634,164.665346 C303.999344,164.665675 304.038588,164.689868 304.058133,164.728097 C304.077678,164.766327 304.074272,164.812235 304.0493,164.847175 L298.360159,172.502577 C298.338709,172.532594 298.304141,172.550532 298.267199,172.550817 L298.267199,172.550817 Z" id="路径" fill="#079DC8"></path>
            <path d="M309.217867,164.665328 L315.970469,164.665328 C316.010569,164.664671 316.048312,164.684201 316.070866,164.717297 L321.458818,172.458047 C321.483449,172.494169 321.486214,172.540872 321.466015,172.579637 C321.445816,172.618402 321.405917,172.642966 321.362139,172.643588 L314.427336,172.639877 C314.387236,172.640551 314.349493,172.621021 314.326939,172.587925 L309.11747,164.850886 C309.09246,164.814213 309.090018,164.766686 309.111139,164.727652 C309.13226,164.688619 309.173422,164.664589 309.217867,164.665328 Z" id="路径" fill="#079DC8"></path>
            <path d="M177.371078,164.850882 L183.736967,164.850882 C183.776728,164.850882 183.813959,164.870375 183.836859,164.902813 C183.85976,164.935251 183.865491,164.976751 183.852237,165.014162 L178.296958,180.009546 C178.286942,180.038644 178.28827,180.070439 178.300676,180.098605 L184.075341,193.902819 C184.091775,193.941061 184.087626,193.985014 184.064324,194.01952 C184.041023,194.054026 184.001758,194.074363 183.960071,194.073542 L177.356204,194.073542 C177.306665,194.072401 177.262659,194.04166 177.244653,193.995589 L175.210691,188.985995 C175.192252,188.937941 175.145676,188.906517 175.09412,188.907347 C175.042564,188.908176 174.997028,188.941083 174.980151,188.989706 L173.128391,193.991878 C173.111109,194.040661 173.064968,194.073542 173.013121,194.073542 L166.372071,194.073542 C166.332024,194.072623 166.294935,194.052278 166.272715,194.019017 C166.250495,193.985755 166.245943,193.943764 166.260519,193.90653 L171.611287,180.209929 C171.622487,180.181295 171.622487,180.149504 171.611287,180.12087 L166.070881,166.876989 C166.054447,166.838747 166.058596,166.794793 166.081898,166.760287 C166.105199,166.725781 166.144464,166.705445 166.186151,166.706291 L172.618971,166.706291 C172.667608,166.70678 172.711365,166.735892 172.730523,166.780507 L174.623185,171.289142 C174.64361,171.334393 174.689383,171.362866 174.739087,171.36124 C174.788791,171.359613 174.832597,171.328209 174.850007,171.28172 L177.255808,164.928813 C177.274316,164.881492 177.320178,164.850488 177.371078,164.850882 L177.371078,164.850882 Z" id="路径" fill="#079DC8"></path>
            <path d="M371.344782,170.602642 L351.034918,170.602642 C350.973309,170.602642 350.923366,170.5528 350.923366,170.491318 L350.923366,165.982683 C350.923366,165.921201 350.973309,165.871359 351.034918,165.871359 L373.38618,165.871359 C373.423481,165.871972 373.458006,165.891152 373.478179,165.922469 C373.498353,165.953786 373.501504,165.993093 373.486576,166.027213 L371.445179,170.535847 C371.427708,170.575812 371.388467,170.601919 371.344782,170.602642 L371.344782,170.602642 Z" id="路径" fill="#079DC8"></path>
            <path d="M147.203753,166.056886 L151.959578,166.056886 C152.000029,166.0563 152.038324,166.075055 152.062596,166.107353 C152.086869,166.13965 152.094188,166.18159 152.082285,166.220175 L149.947927,173.20392 C149.931809,173.256213 149.883756,173.292179 149.828939,173.292979 L145.009901,173.292979 C144.970106,173.292401 144.932906,173.273155 144.909497,173.241033 C144.886088,173.208911 144.879203,173.167664 144.890913,173.129704 L147.084765,166.145959 C147.100883,166.093666 147.148936,166.0577 147.203753,166.056886 L147.203753,166.056886 Z" id="路径" fill="#079DC8"></path>
            <path d="M158.823732,166.149665 L163.479161,166.149665 C163.542924,166.150351 163.598759,166.192518 163.616741,166.253572 L165.63211,173.107439 C165.644926,173.150934 165.636578,173.197909 165.609554,173.234353 C165.582531,173.270796 165.539956,173.292496 165.49453,173.292984 L160.671774,173.292984 C160.605584,173.293493 160.547445,173.249215 160.530475,173.185366 L158.682433,166.331499 C158.670837,166.28788 158.680294,166.241359 158.708006,166.205698 C158.735718,166.170037 158.778513,166.149318 158.823732,166.149665 Z" id="路径" fill="#079DC8"></path>
            <path d="M581.229491,170.383704 C577.830879,172.65472 574.082739,174.565787 570.438713,176.439746 C569.952843,176.689608 569.435987,176.814538 568.888143,176.814538 C507.762716,176.819486 446.637288,176.820723 385.51186,176.818249 C385.382956,176.818249 385.318504,176.753928 385.318504,176.625287 L385.318504,170.417101 C385.318504,170.293408 385.380477,170.231561 385.504424,170.231561 L581.18487,170.231561 C581.365832,170.231561 581.380705,170.282275 581.229491,170.383704 Z" id="路径" fill="#079DC8"></path>
            <path d="M369.608292,177.953757 L369.608292,189.501798 C369.608292,189.56738 369.661565,189.620544 369.727281,189.620544 L373.806358,189.620544 C373.846481,189.620844 373.883749,189.641304 373.905484,189.674962 C373.927219,189.70862 373.930493,189.750942 373.914192,189.78753 L371.887667,194.281322 C371.868699,194.323903 371.826527,194.351476 371.779834,194.351827 L363.313052,194.351827 C363.281495,194.351827 363.251229,194.339316 363.228915,194.317047 C363.2066,194.294778 363.194064,194.264574 363.194064,194.233081 L363.194064,177.957468 C363.194064,177.891886 363.140791,177.838722 363.075075,177.838722 L351.042355,177.838722 C350.976639,177.838722 350.923366,177.785557 350.923366,177.719976 L350.923366,173.226185 C350.923366,173.160603 350.976639,173.107405 351.042355,173.107405 L373.724554,173.107405 C373.765334,173.106467 373.80377,173.126411 373.826398,173.160283 C373.849025,173.194154 373.852689,173.237232 373.836105,173.274425 L371.794707,177.768216 C371.7752,177.812041 371.731194,177.839854 371.683156,177.838722 L369.727281,177.835011 C369.661565,177.835011 369.608292,177.888175 369.608292,177.953757 Z" id="路径" fill="#079DC8"></path>
            <path d="M293.608052,182.384464 L288.476669,182.384464 C288.413007,182.384464 288.361399,182.332961 288.361399,182.269429 L288.361399,177.026054 C288.361399,176.962522 288.413007,176.911019 288.476669,176.911019 L296.48237,176.911019 C296.527126,176.910814 296.567717,176.884773 296.586485,176.844225 L297.757779,174.380247 C297.776547,174.339699 297.817138,174.313658 297.861894,174.313452 L305.510629,174.313452 C305.549851,174.313452 305.586291,174.333703 305.607349,174.366726 C305.628406,174.39975 305.631193,174.441193 305.614744,174.476728 L304.540128,176.747744 C304.523679,176.783278 304.526466,176.824721 304.547523,176.857745 C304.568581,176.890768 304.605021,176.910839 304.644243,176.911019 L323.570865,176.911019 C323.634527,176.911019 323.686135,176.962522 323.686135,177.026054 L323.686135,188.392266 C323.686135,188.455798 323.737743,188.507301 323.801405,188.507301 L327.278103,188.507301 C327.315341,188.508473 327.349715,188.527533 327.370381,188.558469 C327.391047,188.589405 327.395457,188.628401 327.382218,188.663155 L325.221832,194.184841 C325.204833,194.229538 325.161904,194.259064 325.113998,194.259064 L316.643498,194.259064 C316.579836,194.259064 316.528228,194.207554 316.528228,194.144022 L316.528228,182.499499 C316.528228,182.435967 316.47662,182.384464 316.412958,182.384464 L301.795954,182.384464 C301.752041,182.383983 301.711669,182.408444 301.691839,182.447548 L295.87999,194.195973 C295.86016,194.235076 295.819788,194.259538 295.775875,194.259064 L287.985841,194.259064 C287.946227,194.258221 287.90982,194.237139 287.889434,194.203232 C287.869048,194.169325 287.867542,194.127346 287.885445,194.09207 L293.708449,182.551451 C293.726352,182.516175 293.724845,182.474196 293.704459,182.440289 C293.684073,182.406381 293.647666,182.3853 293.608052,182.384464 L293.608052,182.384464 Z" id="路径" fill="#079DC8"></path>
            <path d="M146.761264,181.642302 L145.132608,181.638591 C145.068946,181.638591 145.017338,181.587088 145.017338,181.523556 L145.017338,177.211595 C145.017338,177.148063 145.068946,177.09656 145.132608,177.09656 L146.761264,177.100271 C146.824926,177.100271 146.876535,177.048768 146.876535,176.985235 L146.876535,175.35619 C146.876535,175.292658 146.928143,175.241155 146.991805,175.241155 L152.342573,175.241155 C152.406235,175.241155 152.457843,175.292658 152.457843,175.35619 L152.442969,176.981525 C152.442969,177.045057 152.494578,177.09656 152.55824,177.09656 L158.009404,177.09656 C158.073066,177.09656 158.124674,177.045057 158.124674,176.981525 L158.124674,175.35619 C158.124674,175.292658 158.176283,175.241155 158.239945,175.241155 L163.679954,175.241155 C163.743616,175.241155 163.795224,175.292658 163.795224,175.35619 L163.791506,176.981525 C163.791506,177.045057 163.843114,177.09656 163.906776,177.09656 L165.903553,177.09656 C165.942105,177.095289 165.978739,177.113345 166.001159,177.144669 C166.023579,177.175993 166.028813,177.216432 166.015105,177.252414 L164.423633,181.545821 C164.408236,181.586942 164.37073,181.615734 164.326954,181.620037 L163.802661,181.668278 C163.743391,181.674028 163.698266,181.723886 163.698546,181.783313 L163.705983,184.796491 C163.705421,184.831396 163.689006,184.864158 163.661362,184.88555 L159.403802,188.165906 C159.376559,188.187193 159.360339,188.219565 159.359618,188.254086 C159.358897,188.288607 159.373753,188.321625 159.400083,188.344025 L165.847777,193.869422 C165.883267,193.901426 165.895264,193.951978 165.877927,193.996467 C165.86059,194.040957 165.817523,194.070138 165.769691,194.069805 L158.834887,194.073525 C158.809088,194.072994 158.78421,194.063847 158.764238,194.047541 L155.26523,191.301541 C155.222073,191.268463 155.161614,191.27001 155.120213,191.305252 L151.792251,194.047541 C151.771288,194.064648 151.74496,194.073844 151.717883,194.073525 L144.299688,194.073525 C144.25138,194.072561 144.208795,194.041641 144.193019,193.996065 C144.177242,193.950489 144.191622,193.89993 144.229039,193.869422 L150.955612,188.340315 C150.98239,188.318466 150.997922,188.285773 150.997922,188.251255 C150.997922,188.216737 150.98239,188.184044 150.955612,188.162196 L146.917437,184.848442 C146.891184,184.826323 146.876187,184.793669 146.876535,184.759383 L146.876535,181.757337 C146.876535,181.693805 146.824926,181.642302 146.761264,181.642302 Z M152.573113,183.059832 L155.120213,185.097066 C155.214088,185.173153 155.34811,185.17469 155.443713,185.100777 L158.001967,183.148891 C158.086342,183.083304 158.13462,182.982816 158.132111,182.878002 L158.124674,181.827843 C158.124674,181.704149 158.062701,181.642295 157.938755,181.642295 L153.071378,181.642295 C152.733123,181.640875 152.431645,181.85345 152.319517,182.172446 C152.207389,182.491442 152.309075,182.847262 152.573113,183.059832 Z" id="形状" fill="#079DC8"></path>
            <path d="M354.820242,178.673617 L361.201005,178.673617 C361.241455,178.673054 361.27975,178.691809 361.304023,178.724107 C361.328296,178.756405 361.335615,178.798345 361.323712,178.83693 L356.400559,194.077227 C356.384037,194.13083 356.334043,194.167116 356.277852,194.1663 L349.770664,194.1663 C349.729966,194.166082 349.691856,194.146337 349.66827,194.113238 C349.644684,194.080138 349.638508,194.037731 349.651675,193.9993 L354.697535,178.759003 C354.715379,178.706869 354.765055,178.672317 354.820242,178.673617 Z" id="路径" fill="#079DC8"></path>
            <path d="M56.4600836,182.848315 L63.6812033,182.848315 C63.7199452,182.848999 63.7555563,182.869697 63.7752686,182.902988 C63.7949808,182.93628 63.79597,182.977394 63.7778816,183.011591 L57.8544811,194.45944 C57.8342923,194.497747 57.7936856,194.520903 57.7503661,194.518813 L50.5775854,194.418622 C50.5381809,194.419236 50.5013753,194.399056 50.4807636,194.365535 C50.4601519,194.332014 50.4587929,194.290127 50.4771888,194.255346 L56.3634054,182.907688 C56.3823773,182.87179 56.419422,182.84904 56.4600836,182.848315 Z" id="路径" fill="#079DC8"></path>
            <path d="M74.9925557,182.848304 L82.1802099,182.848304 C82.2212144,182.847726 82.259445,182.868922 82.2806065,182.903978 L88.7543292,193.876843 C88.775944,193.91263 88.7764143,193.957299 88.7555578,193.99353 C88.7347014,194.029762 88.6957982,194.051858 88.6539326,194.051251 L81.2989507,194.129178 C81.2571771,194.129004 81.218767,194.106289 81.1985541,194.069805 L74.8921591,183.019013 C74.8724578,182.983454 74.873015,182.940161 74.8936252,182.905119 C74.9142353,182.870077 74.9518407,182.848485 74.9925557,182.848304 L74.9925557,182.848304 Z" id="路径" fill="#079DC8"></path>
            <path d="M551.363356,184.19534 C540.676694,187.63155 529.758251,189.913698 518.608029,191.041784 C516.421614,191.261959 513.947643,191.373283 511.186116,191.375757 C469.299656,191.388127 427.410716,191.389364 385.519297,191.379468 C385.390393,191.379468 385.325941,191.31391 385.325941,191.182795 L385.322222,183.913318 C385.322222,183.759938 385.399069,183.683171 385.552763,183.683171 L552.460282,183.683171 C552.48582,183.681869 552.507557,183.699202 552.512948,183.724566 C552.516634,183.749929 552.502696,183.776185 552.478874,183.78715 C552.11695,183.935583 551.745111,184.071646 551.363356,184.19534 Z" id="路径" fill="#079DC8"></path>
        </g>
    </g>
</svg>
