<svg id="图层_1" data-name="图层 1" xmlns="http://www.w3.org/2000/svg" xmlns:xlink="http://www.w3.org/1999/xlink" viewBox="0 0 668.88 136.59"><defs><style>.cls-1{fill:#9b0000;}.cls-2{fill:url(#未命名的渐变_47);}.cls-3{fill:url(#未命名的渐变_47-2);}.cls-4{fill:none;stroke:#d3d3d3;stroke-miterlimit:10;stroke-width:2px;}</style><linearGradient id="未命名的渐变_47" x1="312.36" y1="60.49" x2="202.68" y2="69.49" gradientUnits="userSpaceOnUse"><stop offset="0" stop-color="#fbdfb7"/><stop offset="1" stop-color="#ed6a00"/></linearGradient><linearGradient id="未命名的渐变_47-2" x1="430.72" y1="324.04" x2="321.04" y2="333.04" xlink:href="#未命名的渐变_47"/></defs><path class="cls-1" d="M464.46,345.8h1.25l3.48,6,1,2h.07c-.07-1-.16-2-.16-3v-5h1.15v9.55H470l-3.48-6-1-2h-.05c.05,1,.15,2,.15,3v5h-1.15Z" transform="translate(-117.65 -254.9)"/><path class="cls-1" d="M480.06,352.43h-3.49l-.93,2.92h-1.22l3.24-9.55H479l3.24,9.55H481Zm-.3-1L479.3,350c-.35-1.09-.65-2.13-1-3.23h0c-.3,1.12-.61,2.14-1,3.23l-.47,1.45Z" transform="translate(-117.65 -254.9)"/><path class="cls-1" d="M486.61,346.82h-2.89v-1h7v1h-2.89v8.53h-1.21Z" transform="translate(-117.65 -254.9)"/><path class="cls-1" d="M494.24,345.8h1.21v9.55h-1.21Z" transform="translate(-117.65 -254.9)"/><path class="cls-1" d="M499.33,350.54c0-3.06,1.68-4.92,4.08-4.92s4.08,1.86,4.08,4.92-1.69,5-4.08,5S499.33,353.6,499.33,350.54Zm6.92,0c0-2.4-1.14-3.87-2.84-3.87s-2.84,1.47-2.84,3.87,1.12,3.92,2.84,3.92S506.25,352.92,506.25,350.54Z" transform="translate(-117.65 -254.9)"/><path class="cls-1" d="M511.36,345.8h1.25l3.48,6,1,2h.06c-.06-1-.15-2-.15-3v-5h1.14v9.55h-1.23l-3.48-6-1-2h0c0,1,.14,2,.14,3v5h-1.15Z" transform="translate(-117.65 -254.9)"/><path class="cls-1" d="M527,352.43h-3.5l-.92,2.92h-1.22l3.24-9.55h1.34l3.24,9.55h-1.27Zm-.3-1-.46-1.45c-.35-1.09-.65-2.13-1-3.23h-.06c-.3,1.12-.61,2.14-1,3.23l-.47,1.45Z" transform="translate(-117.65 -254.9)"/><path class="cls-1" d="M532.32,345.8h1.21v8.52h4.17v1h-5.38Z" transform="translate(-117.65 -254.9)"/><path class="cls-1" d="M545.94,345.8h5.51v1h-4.3v3h3.62v1h-3.62v3.48h4.44v1h-5.65Z" transform="translate(-117.65 -254.9)"/><path class="cls-1" d="M555.42,345.8h1.25l3.47,6,1,2h.07c-.07-1-.16-2-.16-3v-5h1.15v9.55H561l-3.48-6-1-2h-.05c.05,1,.14,2,.14,3v5h-1.14Z" transform="translate(-117.65 -254.9)"/><path class="cls-1" d="M566.1,350.58c0-3.09,1.84-5,4.37-5a3.66,3.66,0,0,1,2.75,1.18l-.65.78a2.71,2.71,0,0,0-2.07-.91c-1.92,0-3.17,1.49-3.17,3.87s1.14,3.92,3.18,3.92a2.64,2.64,0,0,0,1.73-.56v-2.5h-2v-1h3.13v4a4.09,4.09,0,0,1-3,1.1C567.88,355.51,566.1,353.68,566.1,350.58Z" transform="translate(-117.65 -254.9)"/><path class="cls-1" d="M577.44,345.8h1.21v9.55h-1.21Z" transform="translate(-117.65 -254.9)"/><path class="cls-1" d="M583.08,345.8h1.25l3.47,6,1,2h.06c-.06-1-.15-2-.15-3v-5h1.14v9.55h-1.23l-3.48-6-1-2h0c0,1,.14,2,.14,3v5h-1.14Z" transform="translate(-117.65 -254.9)"/><path class="cls-1" d="M594.3,345.8h5.51v1h-4.3v3h3.62v1h-3.62v3.48H600v1H594.3Z" transform="translate(-117.65 -254.9)"/><path class="cls-1" d="M603.78,345.8h5.51v1H605v3h3.62v1H605v3.48h4.44v1h-5.65Z" transform="translate(-117.65 -254.9)"/><path class="cls-1" d="M618.51,355.35l-2.32-4.05h-1.72v4.05h-1.21V345.8h3c1.94,0,3.33.69,3.33,2.68a2.6,2.6,0,0,1-2.16,2.69l2.45,4.18Zm-4-5h1.6c1.5,0,2.32-.6,2.32-1.84s-.82-1.7-2.32-1.7h-1.6Z" transform="translate(-117.65 -254.9)"/><path class="cls-1" d="M623.35,345.8h1.21v9.55h-1.21Z" transform="translate(-117.65 -254.9)"/><path class="cls-1" d="M629,345.8h1.25l3.48,6,1,2h.06c-.06-1-.16-2-.16-3v-5h1.15v9.55h-1.24l-3.47-6-1-2H630c.06,1,.15,2,.15,3v5H629Z" transform="translate(-117.65 -254.9)"/><path class="cls-1" d="M639.67,350.58c0-3.09,1.85-5,4.38-5a3.64,3.64,0,0,1,2.74,1.18l-.65.78a2.69,2.69,0,0,0-2.07-.91c-1.91,0-3.16,1.49-3.16,3.87s1.13,3.92,3.17,3.92a2.67,2.67,0,0,0,1.74-.56v-2.5h-2v-1h3.12v4a4.07,4.07,0,0,1-2.95,1.1C641.45,355.51,639.67,353.68,639.67,350.58Z" transform="translate(-117.65 -254.9)"/><path class="cls-1" d="M655.75,345.8H657v8.52h4.17v1h-5.38Z" transform="translate(-117.65 -254.9)"/><path class="cls-1" d="M669.05,352.43h-3.49l-.93,2.92h-1.22l3.24-9.55H668l3.25,9.55H670Zm-.3-1-.46-1.45c-.35-1.09-.65-2.13-1-3.23h-.05c-.3,1.12-.62,2.14-.95,3.23l-.47,1.45Z" transform="translate(-117.65 -254.9)"/><path class="cls-1" d="M674.4,345.8h2.84c1.94,0,3.28.65,3.28,2.33a2.08,2.08,0,0,1-1.41,2.07v.07a2.2,2.2,0,0,1,2,2.28c0,1.87-1.49,2.8-3.62,2.8H674.4Zm2.63,4.06c1.64,0,2.31-.61,2.31-1.57,0-1.12-.77-1.54-2.26-1.54h-1.47v3.11Zm.25,4.52c1.64,0,2.6-.58,2.6-1.87s-.94-1.72-2.6-1.72h-1.67v3.59Z" transform="translate(-117.65 -254.9)"/><path class="cls-1" d="M684.23,350.54c0-3.06,1.68-4.92,4.08-4.92s4.07,1.86,4.07,4.92-1.68,5-4.07,5S684.23,353.6,684.23,350.54Zm6.92,0c0-2.4-1.14-3.87-2.84-3.87s-2.84,1.47-2.84,3.87,1.12,3.92,2.84,3.92S691.15,352.92,691.15,350.54Z" transform="translate(-117.65 -254.9)"/><path class="cls-1" d="M701.51,355.35l-2.32-4.05h-1.72v4.05h-1.21V345.8h3c1.94,0,3.33.69,3.33,2.68a2.6,2.6,0,0,1-2.16,2.69l2.45,4.18Zm-4-5h1.61c1.49,0,2.31-.6,2.31-1.84s-.82-1.7-2.31-1.7h-1.61Z" transform="translate(-117.65 -254.9)"/><path class="cls-1" d="M710.68,352.43h-3.49l-.93,2.92H705l3.24-9.55h1.34l3.25,9.55h-1.28Zm-.3-1-.46-1.45c-.35-1.09-.65-2.13-1-3.23h-.05c-.3,1.12-.61,2.14-.95,3.23l-.47,1.45Z" transform="translate(-117.65 -254.9)"/><path class="cls-1" d="M717.23,346.82h-2.89v-1h7v1h-2.89v8.53h-1.21Z" transform="translate(-117.65 -254.9)"/><path class="cls-1" d="M724,350.54c0-3.06,1.68-4.92,4.08-4.92s4.07,1.86,4.07,4.92-1.68,5-4.07,5S724,353.6,724,350.54Zm6.92,0c0-2.4-1.14-3.87-2.84-3.87s-2.84,1.47-2.84,3.87,1.12,3.92,2.84,3.92S730.88,352.92,730.88,350.54Z" transform="translate(-117.65 -254.9)"/><path class="cls-1" d="M741.24,355.35l-2.32-4.05H737.2v4.05H736V345.8h3c1.94,0,3.33.69,3.33,2.68a2.6,2.6,0,0,1-2.16,2.69l2.45,4.18Zm-4-5h1.61c1.49,0,2.31-.6,2.31-1.84s-.82-1.7-2.31-1.7H737.2Z" transform="translate(-117.65 -254.9)"/><path class="cls-1" d="M747.63,351.63l-2.86-5.83h1.29l1.22,2.7c.32.7.6,1.36.94,2.08h0c.34-.72.67-1.38,1-2.08l1.24-2.7h1.25l-2.86,5.83v3.72h-1.22Z" transform="translate(-117.65 -254.9)"/><path class="cls-1" d="M759.56,345.8h5.51v1h-4.3V350h3.65v1h-3.65v4.29h-1.21Z" transform="translate(-117.65 -254.9)"/><path class="cls-1" d="M767.88,350.54c0-3.06,1.68-4.92,4.08-4.92s4.08,1.86,4.08,4.92-1.68,5-4.08,5S767.88,353.6,767.88,350.54Zm6.92,0c0-2.4-1.13-3.87-2.84-3.87s-2.84,1.47-2.84,3.87,1.12,3.92,2.84,3.92S774.8,352.92,774.8,350.54Z" transform="translate(-117.65 -254.9)"/><path class="cls-1" d="M785.16,355.35l-2.31-4.05h-1.72v4.05h-1.21V345.8h3c1.94,0,3.34.69,3.34,2.68a2.6,2.6,0,0,1-2.17,2.69l2.45,4.18Zm-4-5h1.6c1.5,0,2.32-.6,2.32-1.84s-.82-1.7-2.32-1.7h-1.6Z" transform="translate(-117.65 -254.9)"/><path class="cls-1" d="M464.46,363.39h2.84c1.94,0,3.28.65,3.28,2.33a2.08,2.08,0,0,1-1.41,2.07v.07a2.2,2.2,0,0,1,2,2.28c0,1.87-1.49,2.8-3.62,2.8h-3.05Zm2.63,4.06c1.64,0,2.31-.61,2.31-1.57,0-1.12-.77-1.54-2.26-1.54h-1.47v3.11Zm.25,4.52c1.64,0,2.6-.58,2.6-1.87s-.94-1.72-2.6-1.72h-1.67V372Z" transform="translate(-117.65 -254.9)"/><path class="cls-1" d="M474.84,363.39h1.21v9.55h-1.21Z" transform="translate(-117.65 -254.9)"/><path class="cls-1" d="M479.93,368.17c0-3.09,1.85-5,4.38-5a3.64,3.64,0,0,1,2.74,1.18l-.65.78a2.69,2.69,0,0,0-2.07-.91c-1.91,0-3.16,1.49-3.16,3.87s1.13,3.92,3.17,3.92a2.67,2.67,0,0,0,1.74-.56V369h-2v-1h3.12v4a4.07,4.07,0,0,1-2.95,1.11C481.71,373.11,479.93,371.27,479.93,368.17Z" transform="translate(-117.65 -254.9)"/><path class="cls-1" d="M496,363.39h2.4c2.93,0,4.5,1.71,4.5,4.74s-1.57,4.81-4.45,4.81H496ZM498.3,372c2.26,0,3.36-1.41,3.36-3.82s-1.1-3.76-3.36-3.76h-1.08V372Z" transform="translate(-117.65 -254.9)"/><path class="cls-1" d="M511,370h-3.49l-.92,2.92h-1.23l3.25-9.55H510l3.24,9.55h-1.27Zm-.3-1-.45-1.46c-.35-1.08-.65-2.13-1-3.23h-.05c-.3,1.12-.61,2.15-.95,3.23l-.47,1.46Z" transform="translate(-117.65 -254.9)"/><path class="cls-1" d="M517.56,364.41h-2.89v-1h7v1h-2.9v8.53h-1.21Z" transform="translate(-117.65 -254.9)"/><path class="cls-1" d="M529,370h-3.49l-.92,2.92h-1.23l3.25-9.55h1.34l3.24,9.55H529.9Zm-.3-1-.45-1.46c-.35-1.08-.65-2.13-1-3.23h-.06c-.3,1.12-.61,2.15-1,3.23l-.47,1.46Z" transform="translate(-117.65 -254.9)"/><path class="cls-1" d="M543.45,370H540l-.92,2.92h-1.23l3.25-9.55h1.34l3.24,9.55h-1.28Zm-.3-1-.45-1.46c-.36-1.08-.65-2.13-1-3.23h-.05c-.3,1.12-.61,2.15-.95,3.23l-.47,1.46Z" transform="translate(-117.65 -254.9)"/><path class="cls-1" d="M548.8,363.39h1.25l3.48,6,1,2h.06c-.06-1-.15-2-.15-3v-5h1.14v9.55h-1.24l-3.47-6-1-2h-.05c.05,1,.14,2,.14,3v5H548.8Z" transform="translate(-117.65 -254.9)"/><path class="cls-1" d="M564.4,370h-3.49l-.92,2.92h-1.23l3.25-9.55h1.34l3.24,9.55h-1.27Zm-.3-1-.45-1.46c-.35-1.08-.65-2.13-1-3.23h0c-.3,1.12-.61,2.15-1,3.23l-.47,1.46Z" transform="translate(-117.65 -254.9)"/><path class="cls-1" d="M569.76,363.39H571v8.52h4.16v1h-5.37Z" transform="translate(-117.65 -254.9)"/><path class="cls-1" d="M579.08,369.22l-2.87-5.83h1.29l1.23,2.7c.31.7.6,1.36.94,2.08h.05c.34-.72.66-1.38.95-2.08l1.24-2.7h1.25l-2.87,5.83v3.72h-1.21Z" transform="translate(-117.65 -254.9)"/><path class="cls-1" d="M585.34,371.69l.72-.82a3.76,3.76,0,0,0,2.64,1.18c1.25,0,2-.62,2-1.56s-.69-1.29-1.59-1.7l-1.38-.59a2.7,2.7,0,0,1-1.94-2.45c0-1.47,1.27-2.54,3-2.54a3.93,3.93,0,0,1,2.81,1.18l-.64.77a3.07,3.07,0,0,0-2.17-.9c-1.08,0-1.79.55-1.79,1.41s.84,1.28,1.58,1.59l1.37.58a2.68,2.68,0,0,1,2,2.56c0,1.51-1.25,2.71-3.24,2.71A4.58,4.58,0,0,1,585.34,371.69Z" transform="translate(-117.65 -254.9)"/><path class="cls-1" d="M595.63,363.39h1.21v9.55h-1.21Z" transform="translate(-117.65 -254.9)"/><path class="cls-1" d="M600.58,371.69l.71-.82a3.78,3.78,0,0,0,2.65,1.18c1.25,0,2-.62,2-1.56s-.69-1.29-1.58-1.7L603,368.2a2.71,2.71,0,0,1-1.94-2.45c0-1.47,1.28-2.54,3-2.54a3.93,3.93,0,0,1,2.82,1.18l-.64.77a3.09,3.09,0,0,0-2.18-.9c-1.08,0-1.78.55-1.78,1.41s.83,1.28,1.57,1.59l1.37.58a2.67,2.67,0,0,1,2,2.56c0,1.51-1.25,2.71-3.24,2.71A4.56,4.56,0,0,1,600.58,371.69Z" transform="translate(-117.65 -254.9)"/><path class="cls-1" d="M620,370h-3.49l-.92,2.92h-1.23l3.24-9.55h1.35l3.24,9.55h-1.28Zm-.3-1-.45-1.46c-.36-1.08-.66-2.13-1-3.23h0c-.3,1.12-.61,2.15-1,3.23l-.47,1.46Z" transform="translate(-117.65 -254.9)"/><path class="cls-1" d="M625.33,363.39h1.25l3.48,6,1,2h.06c-.06-1-.16-2-.16-3v-5h1.15v9.55h-1.24l-3.47-6-1-2h0c0,1,.14,2,.14,3v5h-1.15Z" transform="translate(-117.65 -254.9)"/><path class="cls-1" d="M636.56,363.39H639c2.93,0,4.51,1.71,4.51,4.74s-1.58,4.81-4.45,4.81h-2.45Zm2.29,8.56c2.25,0,3.36-1.41,3.36-3.82s-1.11-3.76-3.36-3.76h-1.08V372Z" transform="translate(-117.65 -254.9)"/><path class="cls-1" d="M656.44,370H653l-.92,2.92H650.8l3.25-9.55h1.34l3.24,9.55h-1.28Zm-.3-1-.45-1.46c-.35-1.08-.65-2.13-1-3.23h-.05c-.3,1.12-.61,2.15-.95,3.23l-.47,1.46Z" transform="translate(-117.65 -254.9)"/><path class="cls-1" d="M661.79,363.39h2.73c2.15,0,3.58.72,3.58,2.8s-1.43,3-3.52,3H663v3.79h-1.22Zm2.63,4.78c1.68,0,2.48-.61,2.48-2s-.85-1.82-2.53-1.82H663v3.8Z" transform="translate(-117.65 -254.9)"/><path class="cls-1" d="M671.85,363.39h2.72c2.15,0,3.58.72,3.58,2.8s-1.43,3-3.52,3h-1.57v3.79h-1.21Zm2.63,4.78c1.68,0,2.47-.61,2.47-2s-.84-1.82-2.52-1.82h-1.37v3.8Z" transform="translate(-117.65 -254.9)"/><path class="cls-1" d="M681.9,363.39h1.21v8.52h4.17v1H681.9Z" transform="translate(-117.65 -254.9)"/><path class="cls-1" d="M690.78,363.39H692v9.55h-1.21Z" transform="translate(-117.65 -254.9)"/><path class="cls-1" d="M695.87,368.17c0-3.09,1.81-5,4.24-5a3.52,3.52,0,0,1,2.61,1.18l-.65.78a2.6,2.6,0,0,0-2-.91c-1.81,0-3,1.49-3,3.87s1.15,3.92,3,3.92a2.88,2.88,0,0,0,2.21-1.07l.67.76a3.72,3.72,0,0,1-2.93,1.37C697.66,373.11,695.87,371.27,695.87,368.17Z" transform="translate(-117.65 -254.9)"/><path class="cls-1" d="M710.93,370h-3.49l-.93,2.92h-1.22l3.24-9.55h1.34l3.24,9.55h-1.27Zm-.3-1-.46-1.46c-.35-1.08-.65-2.13-1-3.23h-.05c-.3,1.12-.62,2.15-1,3.23l-.46,1.46Z" transform="translate(-117.65 -254.9)"/><path class="cls-1" d="M717.48,364.41h-2.89v-1h7v1h-2.89v8.53h-1.21Z" transform="translate(-117.65 -254.9)"/><path class="cls-1" d="M725.11,363.39h1.21v9.55h-1.21Z" transform="translate(-117.65 -254.9)"/><path class="cls-1" d="M730.2,368.13c0-3.06,1.68-4.92,4.07-4.92s4.08,1.86,4.08,4.92-1.68,5-4.08,5S730.2,371.19,730.2,368.13Zm6.91,0c0-2.4-1.13-3.87-2.84-3.87s-2.83,1.47-2.83,3.87,1.12,3.92,2.83,3.92S737.11,370.51,737.11,368.13Z" transform="translate(-117.65 -254.9)"/><path class="cls-1" d="M742.23,363.39h1.25l3.48,6,1,2H748c-.07-1-.16-2-.16-3v-5H749v9.55h-1.24l-3.48-6-1-2h-.06c.06,1,.15,2,.15,3v5h-1.15Z" transform="translate(-117.65 -254.9)"/><path class="cls-1" d="M752.76,371.69l.72-.82a3.78,3.78,0,0,0,2.65,1.18c1.25,0,2-.62,2-1.56s-.69-1.29-1.59-1.7l-1.38-.59a2.71,2.71,0,0,1-1.94-2.45c0-1.47,1.28-2.54,3-2.54a3.91,3.91,0,0,1,2.81,1.18l-.64.77a3.05,3.05,0,0,0-2.17-.9c-1.08,0-1.78.55-1.78,1.41s.83,1.28,1.57,1.59l1.37.58a2.67,2.67,0,0,1,2,2.56c0,1.51-1.25,2.71-3.24,2.71A4.6,4.6,0,0,1,752.76,371.69Z" transform="translate(-117.65 -254.9)"/><path class="cls-1" d="M478.24,283.66c2,6,5.59,10.87,11,13.15a10.91,10.91,0,0,0-2,2.51c-5.39-2.51-8.88-7.18-11.13-13.3A20,20,0,0,1,465,299.32a9.6,9.6,0,0,0-2-2.25c6.86-3,9.66-8.19,10.82-13.41H463.56v-2.77h10.73a74.18,74.18,0,0,0,.34-8h2.91a69.76,69.76,0,0,1-.4,8h11.62v2.77Z" transform="translate(-117.65 -254.9)"/><path class="cls-1" d="M501.77,282.47a18.92,18.92,0,0,1-4.73,3.78,8.38,8.38,0,0,0-1.41-2,14.33,14.33,0,0,0,5.31-4h-4.88v-2.13h5.71V272.9h2.46v5.22h5.68v2.13H505c1.41.84,3.51,2.17,4.12,2.57l-1.44,1.9c-.69-.66-2.17-1.84-3.43-2.79v3.57h-2.46Zm4.5,14.94a19.74,19.74,0,0,0-2.36-1.55,19.19,19.19,0,0,1-7,3.31,7.74,7.74,0,0,0-1.21-2,18.23,18.23,0,0,0,6-2.51,44.3,44.3,0,0,0-4.24-2,32.14,32.14,0,0,0,1.75-2.85h-2.65v-2.19h3.75a14,14,0,0,0,.72-1.79l2.4.46c-.18.43-.38.87-.58,1.33h4.24l.43-.12,1.44.58a15.21,15.21,0,0,1-3.37,6.14c.84.49,1.64.95,2.25,1.39Zm-7.61-19.35a13.47,13.47,0,0,0-1.7-3.72l2-.81a13.32,13.32,0,0,1,1.79,3.64Zm3.2,11.77c-.37.69-.75,1.35-1.1,2,1,.4,1.91.87,2.86,1.36a12,12,0,0,0,2.36-3.32Zm7.5-15.52a40.29,40.29,0,0,1-2.57,3.58l-1.73-.78a28.51,28.51,0,0,0,2.05-3.75ZM520,280.83a33.86,33.86,0,0,1-3,10.56,14.68,14.68,0,0,0,5.51,5.65,9.25,9.25,0,0,0-1.76,2.08,16.08,16.08,0,0,1-5.19-5.31,17.89,17.89,0,0,1-6.61,5.68,12.29,12.29,0,0,0-1.41-2.19,14.93,14.93,0,0,0,6.72-5.94,36,36,0,0,1-2.31-6.92,18.54,18.54,0,0,1-1.76,3.2,12.78,12.78,0,0,0-2-1.68c2.25-3,3.55-7.81,4.22-12.86l2.45.35a48.81,48.81,0,0,1-.93,4.87h7.91v2.51Zm-6.49,0a38.23,38.23,0,0,0,2.17,7.73,36.41,36.41,0,0,0,1.84-7.73Z" transform="translate(-117.65 -254.9)"/><path class="cls-1" d="M534.54,288.65v7.5c0,1.32-.26,2-1,2.45a8.2,8.2,0,0,1-3.75.52,8.44,8.44,0,0,0-.72-2.48c1.16,0,2.22,0,2.54,0s.52-.11.52-.51v-6.72l-3.12.95-.6-2.6c1-.26,2.31-.63,3.72-1V281h-3.35v-2.48h3.35V273h2.45v5.56h3.09V281h-3.09v5.05l2.77-.81.37,2.43ZM548.82,287v3.2h5.33v9.06h-2.42v-.92h-8v1H541.4v-9.15h4.91V287h-5.14c-.31,4.21-1.15,9-3.43,12.35a10.43,10.43,0,0,0-2.22-1.53c2.94-4.33,3.2-10.56,3.2-15.09v-8.65H554v7.79h-5.22v2.88h6.11V287Zm-2.51-2.25V281.9h-5v.86c0,.64,0,1.3,0,2Zm-5-8.33v3.11H551.5v-3.11Zm10.41,16h-8v3.72h8Z" transform="translate(-117.65 -254.9)"/><path class="cls-1" d="M579.85,273.33A31.25,31.25,0,0,0,588,283.71a10.71,10.71,0,0,0-2.13,2.28,20.8,20.8,0,0,1-2.13-2.16,9.13,9.13,0,0,1,0,.95c-.38,8.65-.78,12-1.73,13.1a3.22,3.22,0,0,1-2.4,1.12,30.46,30.46,0,0,1-4.47,0,6.38,6.38,0,0,0-.86-2.68c1.73.14,3.4.14,4.06.14a1.58,1.58,0,0,0,1.22-.34c.66-.67,1-3.35,1.32-9.93h-7.06c-.75,5.57-2.63,10.62-9.93,13.24a8.16,8.16,0,0,0-1.67-2.33c6.58-2.17,8.16-6.35,8.77-10.91h-5.08v-1.9a22.77,22.77,0,0,1-2,1.93,16.1,16.1,0,0,0-2.27-2.07,24.42,24.42,0,0,0,7.93-10.79l2.85.84a33.21,33.21,0,0,1-5.77,9.34h16.94a45.24,45.24,0,0,1-6.18-9.23Z" transform="translate(-117.65 -254.9)"/><path class="cls-1" d="M603.88,290.09a45.44,45.44,0,0,0-2.28-3.95v13.24H599V286.83a28.29,28.29,0,0,1-3.55,7.41,14.06,14.06,0,0,0-1.36-2.48,28.59,28.59,0,0,0,4.59-10.3h-3.81v-2.53H599v-6h2.56v6h4.13v2.53H601.6v1.33c1,1.3,3.35,4.39,3.9,5.19Zm16.9-4.93h-3.95v14.22h-2.65V285.16h-4.59c0,4.35-.52,10.29-3.17,14.16A9.71,9.71,0,0,0,604.2,298c2.62-3.78,2.85-9.26,2.85-13.26V276a46.43,46.43,0,0,0,9.87-2.82l2.28,2.1a51.2,51.2,0,0,1-9.61,2.63v4.67h11.19Z" transform="translate(-117.65 -254.9)"/><path class="cls-1" d="M645.59,292.48h-17.8v-2.56h17.8Zm6.34-8.65a9,9,0,0,1-.11,1.24c-.75,8.11-1.53,11.48-2.86,12.78a4.11,4.11,0,0,1-3,1.15,44.8,44.8,0,0,1-5.22-.06,5.92,5.92,0,0,0-1-2.68c2.22.2,4.47.23,5.4.23a2.3,2.3,0,0,0,1.53-.34c1-.81,1.73-3.78,2.3-9.84H630.82c.9-3.26,2-8.77,2.71-12.83l2.74.25c-.17.93-.34,1.91-.55,2.92h15.64v2.56H635.23c-.31,1.62-.66,3.21-1,4.62Z" transform="translate(-117.65 -254.9)"/><path class="cls-1" d="M665.15,279v5.22c0,4.44-.38,11.07-2.74,15.43a9.73,9.73,0,0,0-2.34-1.53c2.16-4,2.36-9.84,2.36-13.9v-7.76h11.2c-.38-1-.84-2.17-1.3-3.12l2.65-.66a28.11,28.11,0,0,1,1.67,3.78h9.49V279Zm21.34,16.61v2.54H665.17v-2.54h11.05a50.39,50.39,0,0,0,6-15l2.83,1a62.57,62.57,0,0,1-6,14.05Zm-16.82-2.71a78.91,78.91,0,0,0-3.08-9.87l2.33-.89a74.65,74.65,0,0,1,3.26,9.69Zm5.22-1.7a79.35,79.35,0,0,0-2.33-9.84l2.45-.63a79.48,79.48,0,0,1,2.48,9.72Z" transform="translate(-117.65 -254.9)"/><path class="cls-1" d="M717.5,296c0,1.56-.38,2.37-1.42,2.77s-2.74.49-5.39.46a11.52,11.52,0,0,0-.89-2.59c1.84.08,3.74.05,4.29.05s.72-.17.72-.72v-5.16h-7v8.25h-2.68v-8.25h-6.63a16.53,16.53,0,0,1-3.61,8.74,8.93,8.93,0,0,0-2.1-1.76c3.14-3.49,3.43-8.6,3.43-12.66V274.86H717.5Zm-12.35-7.73V284h-6.26v1.16c0,1,0,2-.11,3.11Zm-6.26-10.84v4.06h6.26v-4.06Zm15.92,0h-7v4.06h7Zm0,10.84V284h-7v4.27Z" transform="translate(-117.65 -254.9)"/><path class="cls-1" d="M735.64,287.75l-3.29.95v7.59c0,1.38-.29,2.11-1.12,2.51a10,10,0,0,1-4.1.46,10,10,0,0,0-.81-2.42c1.27,0,2.48,0,2.83,0s.58-.15.58-.55v-6.84c-1.13.32-2.17.61-3.18.87l-.69-2.57,3.87-.92V281h-3.55v-2.48h3.55V272.9h2.62v5.62h3V281h-3v5.08l3-.78Zm15.55-3.52a21,21,0,0,1-5.63,9.55,20.21,20.21,0,0,0,7.1,3.35,9.29,9.29,0,0,0-1.73,2.27,19.86,19.86,0,0,1-7.47-3.89,24.49,24.49,0,0,1-7.88,3.84,11.45,11.45,0,0,0-1.44-2.43,23.07,23.07,0,0,0,7.41-3.26,23.38,23.38,0,0,1-4.47-7.46l.38-.12H736.3v-2.45h5.94v-3.95h-6.46v-2.45h6.46V272.9h2.66v4.33h6.66v2.45H744.9v3.95H749l.46-.09Zm-11.48,1.85a18.19,18.19,0,0,0,3.86,5.94,17.05,17.05,0,0,0,4.21-5.94Z" transform="translate(-117.65 -254.9)"/><path class="cls-1" d="M774.69,282.68a37.3,37.3,0,0,0,10.73,11,14.06,14.06,0,0,0-2.16,2.39,44.25,44.25,0,0,1-9.69-10.67v14h-2.94V286.43a31,31,0,0,1-10,9.8,17,17,0,0,0-2-2.3,28.64,28.64,0,0,0,11.28-11.25h-10.3v-2.63h11v-7.12h2.94v7.12h10.76v2.63Zm5.31-3.44a36.63,36.63,0,0,0-4.93-4.29l2-1.65a43.89,43.89,0,0,1,5,4.07Z" transform="translate(-117.65 -254.9)"/><path class="cls-1" d="M488,308.75V334h-2.85v-1.41H466.87V334h-2.71V308.75Zm-2.85,21.34V311.23H466.87v18.86Zm-1.36-4.44v2.22H468.43v-2.22h6.26v-4.27h-5.11v-2.27h5.11v-3.49h-5.86v-2.37h14.4v2.37h-6v3.49h5.39v2.27H477.2v4.27h4a18.61,18.61,0,0,0-2.57-3.14l1.7-.92a20.26,20.26,0,0,1,2.69,3l-1.76,1.06Z" transform="translate(-117.65 -254.9)"/><path class="cls-1" d="M519.25,319.54c-1.24,1-2.65,2-4.06,3a13.1,13.1,0,0,0,7.21,8.07,9.06,9.06,0,0,0-1.76,2.17c-3.55-1.65-6.06-4.88-7.56-8.89l-1.15.7c.92,3.57.23,7-1.33,8.22a3.92,3.92,0,0,1-3.12,1.15,22.41,22.41,0,0,1-2.39-.06,6.6,6.6,0,0,0-.72-2.51c1,.09,1.93.15,2.57.15a2,2,0,0,0,1.73-.64c.69-.57,1.12-2.13,1-4.09a42.27,42.27,0,0,1-12,5.88,10.13,10.13,0,0,0-1.41-2.22c4.55-1.07,10.09-3.63,13-6.14a13.35,13.35,0,0,0-.61-1.62,47.89,47.89,0,0,1-10.53,4.88,13.15,13.15,0,0,0-1.35-2.11A36.13,36.13,0,0,0,507.54,321a11.31,11.31,0,0,0-1.12-1.38,39.33,39.33,0,0,1-8.14,3.23,13.13,13.13,0,0,0-1.41-2.14,32.34,32.34,0,0,0,9.78-3.69h-5.86v-2.31h16.33V317h-6.84a17.93,17.93,0,0,1-1.87,1.41,12.57,12.57,0,0,1,2.77,4,46.65,46.65,0,0,0,5.88-4.61Zm-19.7-3.43H497V310h10.55a15.41,15.41,0,0,0-.89-1.87l2.8-.81a17.71,17.71,0,0,1,1.35,2.68h10.42v6.15h-2.74v-3.72h-18.9Z" transform="translate(-117.65 -254.9)"/><path class="cls-1" d="M554.82,329.2v2.68H529V329.2h11.28V313.4h-9.75v-2.77h22.79v2.77h-10v15.8Z" transform="translate(-117.65 -254.9)"/><path class="cls-1" d="M570.25,325.74c-.38-.89-1.18-2.45-1.93-3.81V334h-2.48V322.83a28.2,28.2,0,0,1-3.21,6.4,13.08,13.08,0,0,0-1.35-2.63,29.87,29.87,0,0,0,4.15-8.45H562v-2.48h3.84v-4.15c-1,.2-2,.38-2.92.52a14.11,14.11,0,0,0-.75-2.05,36.17,36.17,0,0,0,7.65-2.28l1.64,2.17a30.48,30.48,0,0,1-3.14,1v4.76h3.34v2.48h-3.34v.58c.8,1,3.08,4,3.57,4.76Zm17.62,5v2.48H571.26v-2.48h7.21v-3.41h-5.34V325h5.34v-3.26h-6v-2.39h14.8v2.39h-6.12V325h5.45v2.36h-5.45v3.41Zm-1.58-13.59H572.9v-8.74h13.39Zm-2.6-6.46h-8.31v4.18h8.31Z" transform="translate(-117.65 -254.9)"/><path class="cls-1" d="M620.09,324.07v2.28H608.38c-1.67,3.57-4.87,6.08-11.28,7.58a7.53,7.53,0,0,0-1.5-2.34c5.14-1.09,8-2.82,9.61-5.24h-9.87v-2.28h11c.9-2.57,1-5.77,1.13-9.72h2.82a44.15,44.15,0,0,1-1,9.72Zm-21.66-7.42h-2.65v-6.14h10.87c-.38-.81-.87-1.7-1.3-2.42l2.71-.84a23,23,0,0,1,1.73,3.26h9.78v6.14h-2.8V313H598.43Zm.37,1.79a18.7,18.7,0,0,1,4.45,3l-1.65,2a21.05,21.05,0,0,0-4.35-3.2Zm5.46.67a18.08,18.08,0,0,0-4.16-3.26l1.59-1.76a18.22,18.22,0,0,1,4.27,3.08Zm5.62,8A46.32,46.32,0,0,1,620,331.71l-1.64,2.13a40.85,40.85,0,0,0-9.78-4.81Z" transform="translate(-117.65 -254.9)"/><path class="cls-1" d="M634.71,327.41c-2.5.67-5.1,1.33-7.21,1.88l-.51-2.17c2-.4,4.73-1.06,7.52-1.76Zm2.2-18.69c-.26,3.87-.61,8.91-1,12.09h2.25s0,.69,0,1c-.44,7.21-.81,9.95-1.7,10.9a2.62,2.62,0,0,1-2,.95,27.12,27.12,0,0,1-3.46,0,5.19,5.19,0,0,0-.69-2.19c1.36.12,2.6.14,3.14.14s.75,0,1-.34c.55-.58.93-2.8,1.27-8.31H628.2c.34-2.54.66-6.78.83-9.92l2.28.12c-.14,2.42-.37,5.36-.6,7.7h3c.31-2.66.66-6.46.86-9.84h-6.69v-2.28Zm13,7.59a40.65,40.65,0,0,1-4.48-4.76,28.86,28.86,0,0,1-7.12,7.24,15.77,15.77,0,0,0-1.56-2.14,22.79,22.79,0,0,0,8.34-9.37l2.31.78c-.21.46-.44.92-.67,1.33a27.91,27.91,0,0,0,7.41,6.74,12,12,0,0,0-1.26,2.57,33.92,33.92,0,0,1-2.83-2.25v2.14h-8.65v-2.28Zm3.34,4.93a98.16,98.16,0,0,1-3.86,9.09h4v2.3H638.67v-2.3h8.48a64,64,0,0,0,3.69-9.67Zm-12.06,7a41.56,41.56,0,0,0-1.7-6.84l2-.52a38.67,38.67,0,0,1,1.85,6.75Zm4.42-.78a54.79,54.79,0,0,0-1.1-6.81l2.05-.28a45.32,45.32,0,0,1,1.24,6.74Z" transform="translate(-117.65 -254.9)"/><path class="cls-1" d="M686.11,330.82v2.36H660.79v-2.36H672v-3.26h-8.65v-2.31H672V322.6h2.74v2.65h9v2.31h-9v3.26Zm-22.46-15.64H661V310H672.3a18.2,18.2,0,0,0-.95-2l2.62-.72a18.15,18.15,0,0,1,1.36,2.77H685.8v5.22h-2.74v-2.79H663.65Zm18.2,8.28a22.44,22.44,0,0,0-1.62-1.85c-13.21,1.1-14.68,1.19-15.69,1.59a17.36,17.36,0,0,0-.75-2.39,4.64,4.64,0,0,0,2-1,29.3,29.3,0,0,0,3.43-2.89h-5.13v-2.3h18.86v2.3h-4.5a37.16,37.16,0,0,1,5.51,5.14Zm-9.23-6.58a44.06,44.06,0,0,1-4.19,3.58l9.87-.69-2-1.67,1.84-1.22Z" transform="translate(-117.65 -254.9)"/><path class="cls-1" d="M316.92,281.42v28.74h12.56V283.71a4.78,4.78,0,0,1,4.78-4.79H412.6a4.78,4.78,0,0,1,4.78,4.79V304h12.56V281.42a15.05,15.05,0,0,0-15.05-15.06H332A15.05,15.05,0,0,0,316.92,281.42Z" transform="translate(-117.65 -254.9)"/><rect class="cls-2" x="199.26" y="61.69" width="43.95" height="12.56"/><path class="cls-3" d="M433.55,310.16H420.21a2.83,2.83,0,0,0-2.83,2.82v11.87a4.29,4.29,0,0,1-4.3,4.3h-3.95a4.29,4.29,0,0,1-4.3-4.3v-5.77a2.5,2.5,0,0,0-2.49-2.49H386v12.56h15.27a4.31,4.31,0,0,1,4.3,4.3v3a3.8,3.8,0,0,0,3.8,3.79h3.49a3.8,3.8,0,0,0,3.8-3.79v-3a4.31,4.31,0,0,1,4.3-4.3h12.6a2.83,2.83,0,0,0,2.83-2.82V313A2.83,2.83,0,0,0,433.55,310.16Z" transform="translate(-117.65 -254.9)"/><path class="cls-1" d="M379.71,332.91V312.84a8.81,8.81,0,0,1,8.8-8.81h16.32V291.48H342V304h16.32a8.81,8.81,0,0,1,8.8,8.81v20.07a8.8,8.8,0,0,1-8.8,8.8H342v12.56h62.8V341.71H388.51A8.8,8.8,0,0,1,379.71,332.91Z" transform="translate(-117.65 -254.9)"/><path class="cls-1" d="M412.6,366.83H334.26a4.79,4.79,0,0,1-4.78-4.79V335.43H316.92v28.9A15.06,15.06,0,0,0,332,379.39h82.92a15.06,15.06,0,0,0,15.05-15.06V341.71H417.38V362A4.79,4.79,0,0,1,412.6,366.83Z" transform="translate(-117.65 -254.9)"/><path class="cls-1" d="M162.66,381.57l-.1.05c-.56-.3-1.25-.64-2.08-1s-1.66-.73-2.57-1.1l0-.1L158,379l.1,0,.64.21a2.85,2.85,0,0,0,.72.2.46.46,0,0,0,.28-.14A12.5,12.5,0,0,0,161,377l.69-1.53c.21-.46.46-1.05.76-1.76l.2-.46c.09-.21.1-.33,0-.37a1.81,1.81,0,0,0-.43,0c-.67,0-1.26,0-1.75,0l-.05-.08a8.36,8.36,0,0,0,.22-.84l0,0c1.28.19,2.73.33,4.37.43l.09.15c-.13.23-.31.58-.56,1l-.69,1.44-1.11,2.4a23.15,23.15,0,0,0-1.18,2.82.33.33,0,0,0,.11.26,9.08,9.08,0,0,0,1.11.63l.05.1Z" transform="translate(-117.65 -254.9)"/><path class="cls-1" d="M181.26,383a3.08,3.08,0,0,1-.5,1.36,3.22,3.22,0,0,1-2.16,1.32,4.85,4.85,0,0,1-1.37,0,3.17,3.17,0,0,1-2.45-1.49,2.36,2.36,0,0,1,.73-3,5.07,5.07,0,0,1,1.13-.47,2.39,2.39,0,0,1-1.22-2.35,2.45,2.45,0,0,1,1.9-2.09,3.87,3.87,0,0,1,1.61-.11,3.3,3.3,0,0,1,1.95.85,1.78,1.78,0,0,1,.51,1.54,2.28,2.28,0,0,1-1.69,1.78,3.28,3.28,0,0,1,1.35,1.18A2.26,2.26,0,0,1,181.26,383Zm-1.78.56a1.57,1.57,0,0,0-.77-1.59,10.44,10.44,0,0,0-1.27-.77l-.19-.1a2.2,2.2,0,0,0-1.31,1.7,1.92,1.92,0,0,0,.13,1.07A1.9,1.9,0,0,0,177.6,385a1.69,1.69,0,0,0,1.26-.3A1.6,1.6,0,0,0,179.48,383.56Zm.61-4.95a1.37,1.37,0,0,0-.3-1.12,1.68,1.68,0,0,0-1.13-.56,1.53,1.53,0,0,0-1.12.23,1.15,1.15,0,0,0-.48.83,1.21,1.21,0,0,0,.35,1,3.06,3.06,0,0,0,.69.54l.5.3.38.21A1.7,1.7,0,0,0,180.09,378.61Z" transform="translate(-117.65 -254.9)"/><path class="cls-1" d="M197.12,379.57a5.56,5.56,0,0,1-.3,3.05,5.74,5.74,0,0,1-1.71,2.24,5.44,5.44,0,0,1-2.69,1.13l-.65-.35.14-.29a1.81,1.81,0,0,0,.57,0,3,3,0,0,0,1.93-1.07,3.1,3.1,0,0,0,.54-.92,6.48,6.48,0,0,0,.32-2.51,7.89,7.89,0,0,1-1.11,1.11,3.81,3.81,0,0,1-1,.31,2.18,2.18,0,0,1-1.72-.44,2.71,2.71,0,0,1-.94-1.84,3.22,3.22,0,0,1,1.13-3.12,3.27,3.27,0,0,1,1.73-.69,3,3,0,0,1,3.08,1.28A4.76,4.76,0,0,1,197.12,379.57Zm-2.05-.42a3.29,3.29,0,0,0-.66-1.79,1.26,1.26,0,0,0-1.18-.45,1.17,1.17,0,0,0-1,1,3,3,0,0,0,0,1.09,2.59,2.59,0,0,0,.65,1.54,1.32,1.32,0,0,0,1.17.38,1.16,1.16,0,0,0,1.08-.87A2.41,2.41,0,0,0,195.07,379.15Z" transform="translate(-117.65 -254.9)"/><path class="cls-1" d="M213,376.76a3.06,3.06,0,0,1,.27,1.42,3.2,3.2,0,0,1-1.16,2.25,4.77,4.77,0,0,1-1.18.7,3.1,3.1,0,0,1-2.86,0,2.09,2.09,0,0,1-.92-1.08,2.17,2.17,0,0,1,0-1.83,5.92,5.92,0,0,1,.73-1,2.4,2.4,0,0,1-2.26-1.38,2.44,2.44,0,0,1,.54-2.77,3.67,3.67,0,0,1,1.32-.92,3.28,3.28,0,0,1,2.11-.29,1.76,1.76,0,0,1,1.23,1.05,2.27,2.27,0,0,1-.52,2.4,3.18,3.18,0,0,1,1.77.31A2.38,2.38,0,0,1,213,376.76Zm-3.28-3.15a1.34,1.34,0,0,0-.83-.8,1.66,1.66,0,0,0-1.26.11,1.48,1.48,0,0,0-.84.78,1.17,1.17,0,0,0,0,.95,1.22,1.22,0,0,0,.82.66,2.93,2.93,0,0,0,.87.11h.58l.44,0A1.72,1.72,0,0,0,209.7,373.61Zm2.05,4.55a1.6,1.6,0,0,0-1.49-1,12.23,12.23,0,0,0-1.48,0h-.22a2.23,2.23,0,0,0-.24,2.13,1.88,1.88,0,0,0,2.55,1,1.66,1.66,0,0,0,.93-.91A1.63,1.63,0,0,0,211.75,378.16Z" transform="translate(-117.65 -254.9)"/><path class="cls-1" d="M159.36,260.27A68.49,68.49,0,1,0,186,254.9,67.92,67.92,0,0,0,159.36,260.27ZM160.24,384A66.25,66.25,0,1,1,186,389.23,65.72,65.72,0,0,1,160.24,384Z" transform="translate(-117.65 -254.9)"/><path class="cls-1" d="M166.29,276.66a50.64,50.64,0,1,0,19.65-4A50.39,50.39,0,0,0,166.29,276.66Zm.59,91.66a49.13,49.13,0,1,1,19.06,3.85A48.71,48.71,0,0,1,166.88,368.32Z" transform="translate(-117.65 -254.9)"/><path class="cls-1" d="M128,340.68a2.57,2.57,0,0,1,1.34-.17,2.41,2.41,0,0,1,1.14.48,4.28,4.28,0,0,1,.95,1,8.16,8.16,0,0,1,.73,1.48l.26.68,2.36-.9a.91.91,0,0,0,.34-.22.63.63,0,0,0,.13-.41,3.32,3.32,0,0,0-.05-.43c0-.19-.07-.36-.1-.48l.46-.18,1.76,4.59-.47.18-.22-.44a2.38,2.38,0,0,0-.24-.37.66.66,0,0,0-.35-.22.91.91,0,0,0-.4.07l-5.94,2.27a.78.78,0,0,0-.33.21.56.56,0,0,0-.13.4,2.42,2.42,0,0,0,0,.5c0,.2.06.34.08.44l-.46.18-1.77-4.64a4.93,4.93,0,0,1-.41-2.63A1.91,1.91,0,0,1,128,340.68Zm1.17,2.19a2.33,2.33,0,0,0-1.26.92,1.79,1.79,0,0,0,.06,1.53l.19.49,3.69-1.41-.1-.25a2.27,2.27,0,0,0-1-1.3A1.87,1.87,0,0,0,129.19,342.87Z" transform="translate(-117.65 -254.9)"/><path class="cls-1" d="M125.63,326.55l.06.49a3.23,3.23,0,0,0-1,.75,1.65,1.65,0,0,0-.52.95,3.27,3.27,0,0,0,0,.53c0,.22,0,.4,0,.55l.15,1.28,3.45-.4-.1-.91a2.18,2.18,0,0,0-.16-.61,1.11,1.11,0,0,0-.37-.47,1.38,1.38,0,0,0-.54-.23,3.33,3.33,0,0,0-.66-.12l-.06-.49,3.73-.44.06.5a3,3,0,0,0-.65.26,2,2,0,0,0-.52.36,1.05,1.05,0,0,0-.25.52,2.05,2.05,0,0,0,0,.66l.1.91,2.59-.31a2.54,2.54,0,0,0,.63-.13.71.71,0,0,0,.34-.26,1,1,0,0,0,.11-.45c0-.19,0-.44-.05-.75,0-.15,0-.32-.07-.53a5.06,5.06,0,0,0-.1-.53,3.14,3.14,0,0,0-.15-.49.8.8,0,0,0-.23-.32,5.13,5.13,0,0,0-1-.56,6.62,6.62,0,0,0-1-.39l-.05-.45,2.8-.16,1,8.38-.49.06c0-.12-.06-.27-.1-.47a2.38,2.38,0,0,0-.14-.43.63.63,0,0,0-.3-.29,1,1,0,0,0-.4,0l-6.31.74a1.16,1.16,0,0,0-.37.11.62.62,0,0,0-.22.37,2.29,2.29,0,0,0-.09.48c0,.2,0,.36,0,.46l-.49.06-.92-7.92Z" transform="translate(-117.65 -254.9)"/><path class="cls-1" d="M133.71,309.9l-.51,3.52q-1.33.61-2.25,1.14c-.61.35-1.38.79-2.31,1.34l0,.32,2.8.4a.75.75,0,0,0,.4,0,.65.65,0,0,0,.31-.29,2.55,2.55,0,0,0,.15-.32c.05-.14.1-.28.14-.43l.49.07-.68,4.74-.49-.07c0-.12,0-.28,0-.49a1.87,1.87,0,0,0,0-.44.63.63,0,0,0-.2-.35.86.86,0,0,0-.39-.15l-6.31-.9a1,1,0,0,0-.39,0,.69.69,0,0,0-.31.29,1.89,1.89,0,0,0-.21.45,4.1,4.1,0,0,0-.14.43l-.49-.07.69-4.89.5.07c0,.13,0,.29,0,.47a3.23,3.23,0,0,0,0,.48.55.55,0,0,0,.22.36.79.79,0,0,0,.37.14l3,.43,0-.26c-.25-.37-.55-.8-.91-1.29s-.66-.88-.89-1.16-.59-.67-.78-.86a1,1,0,0,0-.54-.32c-.07,0-.13.06-.19.2a4.09,4.09,0,0,0-.18.69l-.5-.07.56-3.87.49.07a4.41,4.41,0,0,0,.09,1.21,3,3,0,0,0,.46,1c.34.51.64.92.89,1.25l1,1.27,2-1.18,2.32-1.38a4.3,4.3,0,0,0,.56-.42,2.49,2.49,0,0,0,.47-.55,1.34,1.34,0,0,0,.15-.34,2,2,0,0,0,.1-.33Z" transform="translate(-117.65 -254.9)"/><path class="cls-1" d="M137.11,301l-1.86,4.64-.46-.19q0-.17.15-.48a1.61,1.61,0,0,0,.1-.45.62.62,0,0,0-.11-.39.79.79,0,0,0-.34-.23l-5.92-2.37a.81.81,0,0,0-.39-.07.65.65,0,0,0-.37.2,3.13,3.13,0,0,0-.28.37c-.12.17-.21.32-.28.44l-.46-.18,1.86-4.64.46.18c0,.12-.08.28-.13.46a2.72,2.72,0,0,0-.09.49.52.52,0,0,0,.12.4.91.91,0,0,0,.34.22l5.92,2.37a.81.81,0,0,0,.39.07.62.62,0,0,0,.37-.21,2.65,2.65,0,0,0,.26-.36,4.88,4.88,0,0,0,.26-.46Z" transform="translate(-117.65 -254.9)"/><path class="cls-1" d="M138.56,282.69l-.24.45a1.26,1.26,0,0,0-.14.63.93.93,0,0,0,.28.61,5.79,5.79,0,0,0,.94.8l5.24,3.76-.66.92-8.92.48,3.43,2.46a5,5,0,0,0,1,.61,1.08,1.08,0,0,0,.69.08,1.72,1.72,0,0,0,.52-.3,6,6,0,0,0,.46-.4l.41.29-2.26,3.14-.4-.29a4.06,4.06,0,0,0,.25-.51,1.38,1.38,0,0,0,.13-.57.94.94,0,0,0-.26-.6,5.58,5.58,0,0,0-1-.8L134.63,291a2,2,0,0,0-.54-.27,1.11,1.11,0,0,0-.57,0,1.5,1.5,0,0,0-.58.21,3.3,3.3,0,0,0-.54.42L132,291l2-2.75,7.82-.42-2.78-2a4.54,4.54,0,0,0-1.05-.62,1.11,1.11,0,0,0-.68-.07,1.64,1.64,0,0,0-.52.29,4.19,4.19,0,0,0-.45.39l-.4-.28,2.25-3.13Z" transform="translate(-117.65 -254.9)"/><path class="cls-1" d="M154.16,275.28l-.24.25a3.78,3.78,0,0,0-.24.32.5.5,0,0,0-.09.43,1,1,0,0,0,.19.36l.65.82.33.39c.08.1.18.22.31.36a7.8,7.8,0,0,1-1,1.73,8.07,8.07,0,0,1-1.57,1.69,5.32,5.32,0,0,1-1.61.92,4.27,4.27,0,0,1-1.73.24,4,4,0,0,1-1.71-.5A5,5,0,0,1,145.9,281a5.32,5.32,0,0,1-1-1.74,4.29,4.29,0,0,1,.43-3.58,5.58,5.58,0,0,1,1.38-1.56,5.51,5.51,0,0,1,1.22-.75,7.22,7.22,0,0,1,1.09-.36l.09-.52.43-.35,2.11,2.53-.43.35a5.83,5.83,0,0,0-2.28-1,2.22,2.22,0,0,0-1.77.51,2.09,2.09,0,0,0-.8,2,5.52,5.52,0,0,0,1.32,2.7,6.18,6.18,0,0,0,2.45,2,2,2,0,0,0,2.13-.28,2.75,2.75,0,0,0,.67-.75,2.12,2.12,0,0,0,.28-.72L152.13,278a.88.88,0,0,0-.31-.25.74.74,0,0,0-.42,0,2.72,2.72,0,0,0-.47.19l-.42.23-.31-.38,3.65-2.94Z" transform="translate(-117.65 -254.9)"/><path class="cls-1" d="M175.13,261.81l-.49.22a1.46,1.46,0,0,0-.51.37.94.94,0,0,0-.19.64,5.4,5.4,0,0,0,.23,1.22l.86,3.23a3,3,0,0,1-.36,2.55,3.82,3.82,0,0,1-2.34,1.56,4.55,4.55,0,0,1-3.1-.07,3,3,0,0,1-1.64-2.07L166.4,265a.85.85,0,0,0-.18-.34.71.71,0,0,0-.39-.19,1.38,1.38,0,0,0-.42,0l-.4,0-.13-.48,4.56-1.22.13.48-.39.15a3.59,3.59,0,0,0-.38.21.47.47,0,0,0-.25.33,1,1,0,0,0,0,.41l1.17,4.38a2.71,2.71,0,0,0,1.08,1.73,2.67,2.67,0,0,0,3.32-.95,2.83,2.83,0,0,0,.1-2.08l-.79-2.94a4.17,4.17,0,0,0-.42-1.14,1.1,1.1,0,0,0-.48-.48,1.55,1.55,0,0,0-.62-.09,4.84,4.84,0,0,0-.59,0l-.13-.49,3.79-1Z" transform="translate(-117.65 -254.9)"/><path class="cls-1" d="M192.14,261.16l-.51.07a1.23,1.23,0,0,0-.59.24.94.94,0,0,0-.34.58,5.76,5.76,0,0,0-.12,1.22l-.09,6.45h-1.13l-5.5-7-.05,4.23a5.36,5.36,0,0,0,.08,1.19,1.09,1.09,0,0,0,.34.61,1.51,1.51,0,0,0,.54.25,5.54,5.54,0,0,0,.59.16v.49l-3.87,0V269a3.24,3.24,0,0,0,.57-.08,1.65,1.65,0,0,0,.54-.22.93.93,0,0,0,.34-.55,5.65,5.65,0,0,0,.11-1.25l.06-4.27a2,2,0,0,0-.09-.6,1.18,1.18,0,0,0-.3-.49,1.61,1.61,0,0,0-.5-.35,3.56,3.56,0,0,0-.65-.2v-.5l3.39.05,4.82,6.18.05-3.43a5.28,5.28,0,0,0-.09-1.21,1.15,1.15,0,0,0-.33-.6,1.81,1.81,0,0,0-.54-.26l-.58-.15v-.48l3.85.05Z" transform="translate(-117.65 -254.9)"/><path class="cls-1" d="M201.84,271.94,197,270.69l.12-.48.5.09a1.76,1.76,0,0,0,.46,0,.64.64,0,0,0,.38-.16.85.85,0,0,0,.18-.37l1.6-6.18a.87.87,0,0,0,0-.39.59.59,0,0,0-.25-.33,2.44,2.44,0,0,0-.4-.24,3.21,3.21,0,0,0-.48-.22l.13-.48,4.84,1.25-.13.48-.47-.06a2.17,2.17,0,0,0-.49,0,.53.53,0,0,0-.39.17.94.94,0,0,0-.18.36l-1.59,6.17a.79.79,0,0,0,0,.4.64.64,0,0,0,.25.34,2.52,2.52,0,0,0,.4.22c.19.08.35.15.48.19Z" transform="translate(-117.65 -254.9)"/><path class="cls-1" d="M219.57,270.73a2.91,2.91,0,0,0-.39-.12,2,2,0,0,0-.43,0,1.56,1.56,0,0,0-.53.1,2.31,2.31,0,0,0-.49.3l-1.09.87L215,273.17l-1.77,1.46-1.82,1.52-1.13-.59c.16-1.56.32-3.15.48-4.76s.26-2.73.32-3.36a2.2,2.2,0,0,0,0-.55,1.65,1.65,0,0,0-.23-.5,1.58,1.58,0,0,0-.26-.33,3,3,0,0,0-.34-.28l.23-.44,4.31,2.29-.22.43a4.81,4.81,0,0,0-.93-.3q-.25,0-.33.09a.58.58,0,0,0-.05.14c0,.06,0,.13,0,.22-.05.4-.12,1.05-.2,2s-.22,2.32-.42,4.19c.88-.74,1.62-1.36,2.21-1.88s1.13-1,1.58-1.37a6.45,6.45,0,0,0,.59-.55,1.81,1.81,0,0,0,.35-.42c.06-.11,0-.26-.11-.43a3.39,3.39,0,0,0-.88-.7l.24-.44,3.23,1.7Z" transform="translate(-117.65 -254.9)"/><path class="cls-1" d="M229.37,281.2l-.37-.34a3.44,3.44,0,0,0,.24-1.19,1.73,1.73,0,0,0-.23-1.06,3.62,3.62,0,0,0-.36-.39l-.4-.38-.95-.88L225,279.53l.68.61a2.17,2.17,0,0,0,.52.37,1.25,1.25,0,0,0,.59.11,1.75,1.75,0,0,0,.56-.18,3.42,3.42,0,0,0,.57-.34l.37.33-2.53,2.77-.37-.34a2.72,2.72,0,0,0,.31-.62,1.76,1.76,0,0,0,.16-.61,1.09,1.09,0,0,0-.15-.56,2.11,2.11,0,0,0-.42-.5l-.67-.62-1.76,1.92a2.79,2.79,0,0,0-.39.52.58.58,0,0,0-.08.42.89.89,0,0,0,.21.41,5.21,5.21,0,0,0,.53.53l.39.35a4.84,4.84,0,0,0,.43.34,2.54,2.54,0,0,0,.43.27.72.72,0,0,0,.38.09,4.84,4.84,0,0,0,1.14-.23,6.74,6.74,0,0,0,1-.37l.34.31-2,1.95-6.22-5.7.33-.36.39.29a2.9,2.9,0,0,0,.38.23.63.63,0,0,0,.42,0,.86.86,0,0,0,.33-.24l4.28-4.69a.92.92,0,0,0,.21-.32.65.65,0,0,0-.07-.43,2.28,2.28,0,0,0-.25-.42c-.12-.17-.21-.29-.28-.37l.33-.36,5.89,5.38Z" transform="translate(-117.65 -254.9)"/><path class="cls-1" d="M234,298.87l-1.88-2.9c.45-1,.79-1.8,1-2.42s.5-1.38.77-2.26l-.18-.28-2.29,1.48a.72.72,0,0,0-.27.28.61.61,0,0,0-.05.42,2.14,2.14,0,0,0,.12.37,3.31,3.31,0,0,0,.18.41l-.42.27-2.62-4.05.42-.27.31.38a1.91,1.91,0,0,0,.31.32.59.59,0,0,0,.39.13.94.94,0,0,0,.38-.14l5.34-3.45a1,1,0,0,0,.28-.26.64.64,0,0,0,0-.43,2.62,2.62,0,0,0-.15-.48c-.07-.18-.12-.32-.17-.42l.42-.26,2.74,4.24a5,5,0,0,1,.95,2.46,1.76,1.76,0,0,1-.87,1.61,2.18,2.18,0,0,1-1.58.37,3.61,3.61,0,0,1-1.65-.91c-.16.45-.34,1-.54,1.55s-.41,1.19-.61,1.81c-.07.2-.14.46-.22.78a1.49,1.49,0,0,0,0,.74,1.71,1.71,0,0,0,.13.35,2.31,2.31,0,0,0,.15.29Zm3.29-7.25a1.59,1.59,0,0,0,.84-1.13,2.27,2.27,0,0,0-.43-1.44l-.28-.42-3.16,2.05.26.4a1.76,1.76,0,0,0,2.77.54Z" transform="translate(-117.65 -254.9)"/><path class="cls-1" d="M236.56,306.27a5.38,5.38,0,0,1-.3-1.53,5.82,5.82,0,0,1,.07-1.3l-.56-.28-.17-.51,3.06-1.1.18.52a9.11,9.11,0,0,0-.77.76,4.29,4.29,0,0,0-.66.91,3.44,3.44,0,0,0-.38,1,2.21,2.21,0,0,0,.11,1.15,1.9,1.9,0,0,0,.81,1.12,1.36,1.36,0,0,0,1.15.1,1.12,1.12,0,0,0,.71-.65,3.29,3.29,0,0,0,.2-1.34c0-.37,0-.72,0-1s0-.61,0-.89a2.63,2.63,0,0,1,1.84-2.51,2.37,2.37,0,0,1,1-.1,2.79,2.79,0,0,1,1,.35,3.62,3.62,0,0,1,.9.83,4.3,4.3,0,0,1,.66,1.28,4.36,4.36,0,0,1,.25,1.4,5.79,5.79,0,0,1-.06,1.1l.48.25.18.53-2.9,1-.18-.53a10.87,10.87,0,0,0,.81-.74,4.27,4.27,0,0,0,.64-.79,2.49,2.49,0,0,0,.33-.87,2,2,0,0,0-.1-1,1.64,1.64,0,0,0-.72-.94,1.2,1.2,0,0,0-1-.12,1.13,1.13,0,0,0-.71.64,3.15,3.15,0,0,0-.19,1.31v1c0,.34,0,.65,0,.93a3.11,3.11,0,0,1-.49,1.64,2.43,2.43,0,0,1-1.32.94,2.34,2.34,0,0,1-1.15.1,2.62,2.62,0,0,1-1.1-.41,3.77,3.77,0,0,1-1-.92A5.15,5.15,0,0,1,236.56,306.27Z" transform="translate(-117.65 -254.9)"/><path class="cls-1" d="M239.51,320.11l-.51-5,.49-.05.09.5a1.92,1.92,0,0,0,.12.45.61.61,0,0,0,.28.29.77.77,0,0,0,.41,0l6.35-.65a1.07,1.07,0,0,0,.37-.12.62.62,0,0,0,.23-.35,2.82,2.82,0,0,0,.08-.46c0-.2,0-.38,0-.52l.49,0,.52,5-.5.05c0-.12-.06-.28-.1-.47a2.07,2.07,0,0,0-.15-.46.52.52,0,0,0-.29-.31,1,1,0,0,0-.4,0l-6.34.66a.74.74,0,0,0-.38.12.65.65,0,0,0-.23.35,2.67,2.67,0,0,0-.07.45c0,.21,0,.38,0,.52Z" transform="translate(-117.65 -254.9)"/><path class="cls-1" d="M245,334.66l.06-.49a5.23,5.23,0,0,0,1.3-.48c.47-.23.73-.47.79-.71s.07-.29.11-.49.06-.36.08-.51l0-.29-7-.83a.91.91,0,0,0-.41,0,.59.59,0,0,0-.32.29c0,.1-.1.24-.17.44s-.11.37-.14.51l-.49-.06.59-5,.49.06c0,.12,0,.3,0,.52a2.25,2.25,0,0,0,0,.46.55.55,0,0,0,.24.36.75.75,0,0,0,.39.13l7.07.84,0-.29c0-.14,0-.32,0-.51s0-.37,0-.5-.21-.54-.61-.88a5.13,5.13,0,0,0-1.15-.77l.06-.49,2.56.3-1,8.67Z" transform="translate(-117.65 -254.9)"/><path class="cls-1" d="M242.1,350.25a2.3,2.3,0,0,0,.07-.42,1.7,1.7,0,0,0,0-.39,1.77,1.77,0,0,0-.19-.59,5.26,5.26,0,0,0-.35-.58c-.27-.4-.58-.82-.91-1.27l-1.1-1.48a3.5,3.5,0,0,0-.62-.69,4.53,4.53,0,0,0-.91-.44l-1.19-.45a.73.73,0,0,0-.4-.06.62.62,0,0,0-.38.2,2.92,2.92,0,0,0-.28.39,4.53,4.53,0,0,0-.26.45l-.46-.18,1.8-4.7.46.17c0,.12-.08.28-.13.5a2,2,0,0,0-.09.47.62.62,0,0,0,.14.4.81.81,0,0,0,.35.22l1.48.57.35.13a1,1,0,0,0,.26.05l.34,0,.56-.09,1.85-.3,1.66-.29a3.45,3.45,0,0,0,.68-.2,2.8,2.8,0,0,0,.48-.3,1.35,1.35,0,0,0,.28-.33,2.67,2.67,0,0,0,.22-.39l.46.18-1.84,4.81-.47-.18a4.25,4.25,0,0,0,.26-.93c0-.17,0-.28-.12-.31a.77.77,0,0,0-.29,0c-.15,0-.39,0-.72.07s-.74.09-1.29.18l-1.94.33c.9,1.2,1.53,2,1.9,2.5a3.14,3.14,0,0,0,.71.75.36.36,0,0,0,.4-.13,2.62,2.62,0,0,0,.44-.74l.46.18-1.19,3.11Z" transform="translate(-117.65 -254.9)"/><path class="cls-1" d="M232.4,323.2A46.46,46.46,0,1,1,186,276.74,46.45,46.45,0,0,1,232.4,323.2Zm-53.27-38.94a3.67,3.67,0,0,0-3.67,3.67v4.75A51.52,51.52,0,0,0,163.85,297a63.91,63.91,0,0,0-12.57,8.39,3.55,3.55,0,0,0,4.62,5.39A52.21,52.21,0,0,1,175.46,300v8.15A41.44,41.44,0,0,0,162,315.78a68.07,68.07,0,0,0-13.47,15.5,3.55,3.55,0,1,0,5.95,3.87,60.83,60.83,0,0,1,12-13.9,33.19,33.19,0,0,1,13.52-7,3.55,3.55,0,0,0,2.77-3.37V287.93A3.67,3.67,0,0,0,179.13,284.26Zm10,3.67v22.94a3.56,3.56,0,0,0,2.76,3.37,33.13,33.13,0,0,1,13.52,7,61.1,61.1,0,0,1,12,13.9,3.55,3.55,0,0,0,6-3.87,68.07,68.07,0,0,0-13.47-15.5,41.54,41.54,0,0,0-13.46-7.63V300A52.28,52.28,0,0,1,216,310.73a3.55,3.55,0,1,0,4.61-5.39A63.33,63.33,0,0,0,208,297a51.45,51.45,0,0,0-11.6-4.27v-4.75a3.67,3.67,0,1,0-7.34,0Zm25.72,58.88a64.76,64.76,0,0,0-5.21-9.85,45.07,45.07,0,0,0-6.53-8,29.21,29.21,0,0,0-7.91-5.5,22.76,22.76,0,0,0-5.55-1.75v-2.15a3.67,3.67,0,0,0-7.34,0v2.15a22.83,22.83,0,0,0-5.56,1.75,29.52,29.52,0,0,0-7.91,5.5,45.07,45.07,0,0,0-6.53,8,65.64,65.64,0,0,0-5.2,9.85,3.55,3.55,0,0,0,6.52,2.8c2.78-6.5,6.28-11.86,10.11-15.52a20,20,0,0,1,8.57-5.12v5.77a3.55,3.55,0,0,1-2.13,3.17l-.91.55a18.64,18.64,0,0,0-4.39,4.12,32.91,32.91,0,0,0-5.78,13,3.55,3.55,0,0,0,6.93,1.51A25.68,25.68,0,0,1,180.45,347c1-1.31,3.09-3.51,5.5-3.51s4.48,2.2,5.5,3.51a25.53,25.53,0,0,1,4.44,10.14,3.55,3.55,0,0,0,6.93-1.51,32.77,32.77,0,0,0-5.78-13,18.45,18.45,0,0,0-4.39-4.12l-.9-.55a3.55,3.55,0,0,1-2.13-3.17V329a20,20,0,0,1,8.57,5.12c3.83,3.66,7.32,9,10.11,15.52a3.55,3.55,0,0,0,6.52-2.8Z" transform="translate(-117.65 -254.9)"/><line class="cls-4" x1="166.33" y1="11.46" x2="166.33" y2="124.28"/></svg>
