<?xml version="1.0" encoding="UTF-8"?>
<svg width="34px" height="37px" viewBox="0 0 34 37" version="1.1" xmlns="http://www.w3.org/2000/svg" xmlns:xlink="http://www.w3.org/1999/xlink">
    <title>编组 36</title>
    <defs>
        <linearGradient x1="50%" y1="0%" x2="50%" y2="97.3721591%" id="linearGradient-1">
            <stop stop-color="#FFFFFF" offset="0%"></stop>
            <stop stop-color="#FFFFFF" offset="100%"></stop>
        </linearGradient>
    </defs>
    <g id="AI中台第二期" stroke="none" stroke-width="1" fill="none" fill-rule="evenodd">
        <g id="画板" transform="translate(-343.000000, -218.000000)">
            <g id="编组-36" transform="translate(344.000000, 219.000000)">
                <polygon id="路径-2" fill="#FFFFFF" points="0.64 8.33978028 16.1455806 0 32 8.90909091 32 26.399601 16.583414 35 0.64 26.399601"></polygon>
                <path d="M0,10.7724989 L0,24.2275011 C0,25.6726028 0.78586068,27.0079403 2.06148579,27.7304912 L13.9385142,34.4580869 C15.2141393,35.1806377 16.7858607,35.1806377 18.0614858,34.4580869 L29.9385142,27.7304912 C31.2141393,27.0079403 32,25.6726028 32,24.2275011 L32,10.7724989 C32,9.32739724 31.2141393,7.99205967 29.9385142,7.26950882 L18.0614858,0.54191314 C16.7858607,-0.180637713 15.2141393,-0.180637713 13.9385142,0.54191314 L2.06148579,7.26950882 C0.78586068,7.99205967 0,9.32739724 0,10.7724989 Z" id="Stroke-1" stroke="url(#linearGradient-1)" stroke-width="1.536"></path>
                <path d="M19.6728088,23.1095154 L16.5856919,24.8587395 C16.4626239,24.9297077 16.3092711,24.9297077 16.1862031,24.8587395 L13.3938321,23.2764326 L11.4862778,23.9145786 L15.4279266,26.1482789 C15.7226726,26.3151961 16.0548405,26.399601 16.3850794,26.399601 C16.7170545,26.399601 17.0472934,26.3151961 17.3439684,26.1482789 L21.1895547,23.9690822 L19.6728088,23.1095154 Z" id="Fill-3" fill="#FFB901"></path>
                <path d="M12.163692,10.3228634 L9.06307236,12.0787112 C8.47319461,12.4125456 8.10572662,13.0359302 8.10572662,13.7056807 L8.10572662,17.5924668 L9.62247245,17.0849023 L9.62247245,13.7056807 C9.62247245,13.5667723 9.70001688,13.4360016 9.82134883,13.3665473 L12.163692,12.0406722 L12.163692,10.3228634 Z" id="Fill-5" fill="#04A4EF"></path>
                <path d="M23.7070672,12.0786733 L20.5894727,10.3112814 L20.5894727,12.0307934 L22.9487908,13.3666987 C23.0718588,13.4359637 23.1492103,13.5667344 23.1492103,13.7056429 L23.1492103,16.9327086 L24.6659562,17.7907614 L24.6659562,13.7056429 C24.6659562,13.0358923 24.2984882,12.412697 23.7070672,12.0786733" id="Fill-7" fill="#F44E24"></path>
                <path d="M20.8892532,8.66627645 L20.9010217,12.7568832 C20.9014057,12.8753528 20.8369783,12.9849277 20.7326212,13.0441625 L17.1007644,15.1012939 C16.8764256,15.2284689 16.595954,15.0700679 16.5951824,14.8159071 L16.583414,10.7253004 C16.5830299,10.6068308 16.6472645,10.4972559 16.7518144,10.4380211 L20.3836713,8.38088968 C20.60801,8.25390393 20.8884817,8.41211569 20.8892532,8.66627645" id="Fill-9" fill="#04A4EF"></path>
                <path d="M15.6392255,15.0971305 L12.0376534,13.0435947 C11.9340679,12.9847385 11.8702192,12.8762991 11.8698334,12.7587757 L11.8580658,8.67195391 C11.857488,8.41646841 12.1395028,8.25674265 12.3644202,8.38505315 L15.9661852,10.4385889 C16.0695778,10.4976344 16.1336195,10.6060738 16.1338124,10.7235971 L16.1455806,14.8102297 C16.1463506,15.0657152 15.8643358,15.2254409 15.6392255,15.0971305" id="Fill-11" fill="#04A4EF"></path>
                <path d="M16.189193,10.1068173 L12.5843416,8.05157833 C12.3603887,7.92383558 12.3607745,7.60627656 12.5851132,7.4792908 L16.2169701,5.42215938 C16.32152,5.36292459 16.4503749,5.36311384 16.5549249,5.42253788 L20.1597762,7.47796607 C20.3837292,7.60551957 20.3833434,7.92307859 20.1590047,8.05006434 L16.5271478,10.1071958 C16.4224049,10.1666198 16.2937429,10.1664306 16.189193,10.1068173" id="Fill-13" fill="#04A4EF"></path>
                <path d="M13.2371422,19.6927848 L13.2489107,23.7833915 C13.2492947,23.9018611 13.1848673,24.011436 13.0805102,24.0706708 L9.44865334,26.1278022 C9.22431461,26.2549772 8.94384298,26.0965762 8.9430714,25.8424155 L8.93130298,21.7518087 C8.93091891,21.6333391 8.99515347,21.5237642 9.09970342,21.4645294 L12.7315603,19.407398 C12.955899,19.280223 13.2363707,19.438624 13.2371422,19.6927848" id="Fill-15" fill="#FFB901"></path>
                <path d="M7.98721096,26.1236198 L4.38563885,24.0700841 C4.28205338,24.0110386 4.21820462,23.9025992 4.21781882,23.7852651 L4.20605055,19.698254 C4.20528054,19.4429578 4.48729535,19.283232 4.71240566,19.4115425 L8.31397777,21.464889 C8.41756323,21.5239345 8.481412,21.6325632 8.4816049,21.7498973 L8.49356607,25.8367191 C8.49433607,26.0920153 8.21232127,26.2519303 7.98721096,26.1236198" id="Fill-17" fill="#FFB901"></path>
                <path d="M8.53717841,21.1333067 L4.93232706,19.0778785 C4.70818123,18.950325 4.70875992,18.6327659 4.93290575,18.5057802 L8.56495551,16.4484595 C8.66950546,16.3892247 8.79836038,16.389414 8.90271743,16.4490273 L12.5075688,18.5042662 C12.7317146,18.632009 12.7311359,18.949568 12.5067972,19.0765537 L8.87494032,21.1336852 C8.77039037,21.1929199 8.64153546,21.1927307 8.53717841,21.1333067" id="Fill-19" fill="#FFB901"></path>
                <path d="M28.0630579,19.6927848 L28.0748263,23.7833915 C28.0752104,23.9018611 28.0109758,24.011436 27.9064259,24.0706708 L24.274569,26.1278022 C24.0502303,26.2549772 23.7697586,26.0965762 23.7689871,25.8424155 L23.7572186,21.7518087 C23.7568346,21.6333391 23.8210691,21.5237642 23.9256191,21.4645294 L27.5574759,19.407398 C27.7818147,19.280223 28.0622863,19.438624 28.0630579,19.6927848" id="Fill-21" fill="#F44E24"></path>
                <path d="M22.8131266,26.1236198 L19.2115545,24.0700841 C19.107969,24.0110386 19.0441203,23.9025992 19.0437345,23.7852651 L19.0319662,19.698254 C19.0311962,19.4429578 19.313211,19.283232 19.5383213,19.4115425 L23.1398934,21.464889 C23.2434789,21.5239345 23.3073277,21.6325632 23.3077135,21.7498973 L23.3194817,25.8367191 C23.3202517,26.0920153 23.0382369,26.2519303 22.8131266,26.1236198" id="Fill-23" fill="#F44E24"></path>
                <path d="M23.3630941,21.1333067 L19.7582427,19.0778785 C19.5340969,18.950325 19.5346756,18.6327659 19.7590143,18.5057802 L23.3908712,16.4484595 C23.4954211,16.3892247 23.624276,16.389414 23.7286331,16.4490273 L27.3334844,18.5042662 C27.5576303,18.632009 27.5570516,18.949568 27.3327128,19.0765537 L23.700856,21.1336852 C23.596306,21.1929199 23.4674511,21.1927307 23.3630941,21.1333067" id="Fill-25" fill="#F44E24"></path>
            </g>
        </g>
    </g>
</svg>