<?xml version="1.0" encoding="UTF-8"?>
<svg width="32px" height="36px" viewBox="0 0 32 36" version="1.1" xmlns="http://www.w3.org/2000/svg" xmlns:xlink="http://www.w3.org/1999/xlink">
    <title>编组</title>
    <g id="AI中台第一期" stroke="none" stroke-width="1" fill="none" fill-rule="evenodd">
        <g id="不用的" transform="translate(-20.000000, -11.000000)">
            <g id="编组-8" transform="translate(19.999923, 11.000000)">
                <g id="编组" transform="translate(0.000000, -0.000000)">
                    <g></g>
                    <path d="M32.0000772,24.9197423 L32.0000772,11.0802966 C32.0000772,9.59390468 31.2142146,8.22021847 29.9385864,7.47721716 L18.0615293,0.557396976 C16.7859012,-0.185798992 15.214176,-0.185798992 13.9385478,0.557396976 L2.06149076,7.47721716 C0.785862575,8.22021847 0,9.59390468 0,11.0802966 L0,24.9197423 C0,26.4061343 0.785862575,27.7796258 2.06149076,28.5228218 L13.9385478,35.442642 C15.214176,36.1858379 16.7859012,36.1858379 18.0615293,35.442642 L29.9385864,28.5228218 C31.2142146,27.7796258 32.0000772,26.4061343 32.0000772,24.9197423" id="Fill-1" fill="#465666"></path>
                    <path d="M19.6729334,23.7697741 L16.585809,25.5689779 C16.4627407,25.6419739 16.3093876,25.6419739 16.1863193,25.5689779 L13.3939416,23.9414605 L11.4863827,24.59784 L15.428041,26.8953628 C15.7227877,27.0670492 16.0549564,27.1538657 16.3851961,27.1538657 C16.7171719,27.1538657 17.0474117,27.0670492 17.3440873,26.8953628 L21.18949,24.6539008 L19.6729334,23.7697741 Z" id="Fill-3" fill="#F78D3E"></path>
                    <path d="M12.1637985,10.6177554 L9.06317137,12.4237722 C8.4732922,12.7671451 8.10582332,13.4083414 8.10582332,14.0970338 L8.10582332,18.0950699 L9.62257281,17.573003 L9.62257281,14.0970338 C9.62257281,13.954351 9.70011743,13.8198439 9.82144967,13.7484052 L12.1637985,12.3846464 L12.1637985,10.6177554 Z" id="Fill-5" fill="#7BB1FF"></path>
                    <path d="M23.7071823,12.4237528 L20.5895802,10.605862 L20.5895802,12.3745048 L22.948904,13.7485804 C23.0719723,13.8198244 23.149324,13.9543316 23.149324,14.0970143 L23.149324,17.4164802 L24.6660735,18.2992444 L24.6660735,14.0970143 C24.6660735,13.408322 24.2986046,12.7673203 23.7071823,12.4237528" id="Fill-7" fill="#1ED177"></path>
                    <path d="M20.8893615,8.91385506 L20.9011299,13.1213409 C20.901514,13.2431954 20.8370864,13.3559012 20.7327291,13.4168284 L17.1008635,15.5327373 C16.8765242,15.663546 16.5960519,15.5006191 16.5952803,15.2391963 L16.5835118,11.0317105 C16.5831278,10.909856 16.6473625,10.7971502 16.7519127,10.736223 L20.3837783,8.62031407 C20.6081176,8.48950535 20.8885899,8.65243228 20.8893615,8.91385506" id="Fill-9" fill="#80C0FF"></path>
                    <path d="M15.6393211,15.5284549 L12.0377403,13.4162445 C11.9341546,13.3557065 11.8703057,13.2441687 11.8699199,13.1232874 L11.8581523,8.91969474 C11.8575745,8.65690936 12.1395899,8.49261984 12.3645079,8.62459649 L15.9662816,10.7368069 C16.0696744,10.7975396 16.1337162,10.9090773 16.1339091,11.0299586 L16.1456774,15.2333567 C16.1464474,15.496142 15.864432,15.6604316 15.6393211,15.5284549" id="Fill-11" fill="#80C0FF"></path>
                    <path d="M16.1892899,10.3955363 L12.5844298,8.28157399 C12.3604764,8.1501813 12.3608622,7.82354881 12.5852014,7.69293475 L16.217067,5.57702585 C16.3216172,5.51609858 16.4504725,5.51629323 16.5550227,5.57741517 L20.1598827,7.69157216 C20.3838362,7.82277019 20.3834504,8.14940268 20.1591111,8.28001674 L16.5272455,10.3961203 C16.4225024,10.4570476 16.2938401,10.4568529 16.1892899,10.3955363" id="Fill-13" fill="#80C0FF"></path>
                    <path d="M13.2372513,20.2554187 L13.2490198,24.4629045 C13.2494038,24.5847591 13.1849762,24.6974648 13.0806189,24.7583921 L9.44875328,26.874301 C9.22441401,27.0051097 8.94394171,26.8421828 8.94317012,26.58076 L8.93140167,22.3732742 C8.9310176,22.2514196 8.99525232,22.1387139 9.09980252,22.0777866 L12.7316681,19.9618777 C12.9560074,19.831069 13.2364797,19.9939959 13.2372513,20.2554187" id="Fill-15" fill="#F78D3E"></path>
                    <path d="M7.98730737,26.8699991 L4.38572658,24.7577887 C4.28214087,24.697056 4.21829194,24.5855183 4.21790615,24.4648316 L4.20613785,20.2610443 C4.20536784,19.9984536 4.48738333,19.834164 4.71249418,19.9661407 L8.31407497,22.0781565 C8.41766069,22.1388891 8.48150961,22.2506215 8.48170251,22.3713082 L8.49366371,26.5749009 C8.49443371,26.8374916 8.21241823,27.0019758 7.98730737,26.8699991" id="Fill-17" fill="#F78D3E"></path>
                    <path d="M8.53727615,21.7371 L4.93241611,19.622943 C4.70826974,19.491745 4.70884843,19.1651125 4.9329948,19.0344984 L8.56505332,16.9183949 C8.66960352,16.8574676 8.79845875,16.8576622 8.90281606,16.9189788 L12.5076761,19.0329412 C12.7318225,19.1643339 12.7312438,19.4909663 12.5069045,19.6215804 L8.87503888,21.7374893 C8.77048868,21.7984166 8.64163345,21.7982219 8.53727615,21.7371" id="Fill-19" fill="#F78D3E"></path>
                    <path d="M28.0632027,20.2554187 L28.0749712,24.4629045 C28.0753552,24.5847591 28.0111205,24.6974648 27.9065703,24.7583921 L24.2747047,26.874301 C24.0503654,27.0051097 23.7698931,26.8421828 23.7691215,26.58076 L23.7573531,22.3732742 C23.756969,22.2514196 23.8212037,22.1387139 23.9257539,22.0777866 L27.5576196,19.9618777 C27.7819588,19.831069 28.0624311,19.9939959 28.0632027,20.2554187" id="Fill-21" fill="#1ED177"></path>
                    <path d="M22.8132588,26.8699991 L19.211678,24.7577887 C19.1080923,24.697056 19.0442433,24.5855183 19.0438576,24.4648316 L19.0320893,20.2610443 C19.0313192,19.9984536 19.3133347,19.834164 19.5384456,19.9661407 L23.1400264,22.0781565 C23.2436121,22.1388891 23.307461,22.2506215 23.3078468,22.3713082 L23.3196151,26.5749009 C23.3203851,26.8374916 23.0383696,27.0019758 22.8132588,26.8699991" id="Fill-23" fill="#1ED177"></path>
                    <path d="M23.3632083,21.7371 L19.7583482,19.622943 C19.5342019,19.491745 19.5347805,19.1651125 19.7591198,19.0344984 L23.3909854,16.9183949 C23.4955356,16.8574676 23.6243909,16.8576622 23.7287482,16.9189788 L27.3336082,19.0329412 C27.5577546,19.1643339 27.5571759,19.4909663 27.3328366,19.6215804 L23.700971,21.7374893 C23.5964208,21.7984166 23.4675656,21.7982219 23.3632083,21.7371" id="Fill-25" fill="#1ED177"></path>
                </g>
            </g>
        </g>
    </g>
</svg>
