<?xml version="1.0" encoding="UTF-8"?>
<svg width="16px" height="16px" viewBox="0 0 16 16" version="1.1" xmlns="http://www.w3.org/2000/svg" xmlns:xlink="http://www.w3.org/1999/xlink">
    <title>权限管理</title>
    <g id="AI中台三期-权限管理" stroke="none" stroke-width="1" fill="none" fill-rule="evenodd">
        <g id="权限管理-用户管理" transform="translate(-15.000000, -281.000000)">
            <g id="二级导航" transform="translate(0.000000, 59.000000)">
                <g id="编组-30" transform="translate(0.000000, 182.000000)">
                    <g id="编组-5备份" transform="translate(0.000000, 30.000000)">
                        <g id="权限管理" transform="translate(15.000000, 10.000000)">
                            <polygon id="路径" points="0 0 16 0 16 16 0 16"></polygon>
                            <path d="M8,9.33333333 L8,10.6666667 C5.790861,10.6666667 4,12.4575277 4,14.6666667 L2.66666667,14.6666667 C2.66666667,11.721148 5.05448133,9.33333333 8,9.33333333 L8,9.33333333 Z M8,8.66666667 C5.79,8.66666667 4,6.87666667 4,4.66666667 C4,2.45666667 5.79,0.666666667 8,0.666666667 C10.21,0.666666667 12,2.45666667 12,4.66666667 C12,6.87666667 10.21,8.66666667 8,8.66666667 Z M8,7.33333333 C9.47333333,7.33333333 10.6666667,6.14 10.6666667,4.66666667 C10.6666667,3.19333333 9.47333333,2 8,2 C6.52666667,2 5.33333333,3.19333333 5.33333333,4.66666667 C5.33333333,6.14 6.52666667,7.33333333 8,7.33333333 Z M9.73,12.5413333 C9.64547002,12.1856195 9.64547002,11.8150471 9.73,11.4593333 L9.06866667,11.0773333 L9.73533333,9.92266667 L10.3966667,10.3046667 C10.6621084,10.0532535 10.982974,9.86781378 11.3333333,9.76333333 L11.3333333,9 L12.6666667,9 L12.6666667,9.76333333 C13.0213333,9.86866667 13.3413333,10.0566667 13.6033333,10.3046667 L14.2646667,9.92266667 L14.9313333,11.0773333 L14.27,11.4593333 C14.3544244,11.8148342 14.3544244,12.1851658 14.27,12.5406667 L14.9313333,12.9226667 L14.2646667,14.0773333 L13.6033333,13.6953333 C13.3378916,13.9467465 13.017026,14.1321862 12.6666667,14.2366667 L12.6666667,15 L11.3333333,15 L11.3333333,14.2366667 C10.982974,14.1321862 10.6621084,13.9467465 10.3966667,13.6953333 L9.73533333,14.0773333 L9.06866667,12.9226667 L9.73,12.5413333 L9.73,12.5413333 Z M12,13 C12.5522847,13 13,12.5522847 13,12 C13,11.4477153 12.5522847,11 12,11 C11.4477153,11 11,11.4477153 11,12 C11,12.5522847 11.4477153,13 12,13 Z" id="形状" fill="#000000" fill-rule="nonzero"></path>
                        </g>
                    </g>
                </g>
            </g>
        </g>
    </g>
</svg>
