<?xml version="1.0" encoding="UTF-8"?>
<svg width="24px" height="24px" viewBox="0 0 24 24" version="1.1" xmlns="http://www.w3.org/2000/svg" xmlns:xlink="http://www.w3.org/1999/xlink">
    <g id="产业经济前台" stroke="none" stroke-width="1" fill="none" fill-rule="evenodd">
        <g id="v" transform="translate(-631.000000, -204.000000)">
            <g id="电话" transform="translate(631.000000, 204.000000)">
                <g id="phone-line-(1)" transform="translate(4.000000, 4.000000)" fill="#9194A2" fill-rule="nonzero">
                    <path d="M5.65827556,6.82853333 C6.49066667,8.29226667 7.70773333,9.50933333 9.17146667,10.3416889 L9.95768889,9.24097778 C10.2191111,8.87511111 10.7125333,8.76204444 11.1072,8.9776 C12.3576889,9.66071111 13.7396444,10.0758222 15.1812444,10.1899556 C15.6435556,10.2265778 16,10.6123556 16,11.0760889 L16,15.0430222 C16,15.4987556 15.6552889,15.8806222 15.2019556,15.9272 C14.7309333,15.9756444 14.2557333,16 13.7777778,16 C6.16852444,16 0,9.83146667 0,2.22222222 C0,1.74424 0.0243733333,1.26907556 0.0727911111,0.798008889 C0.119377778,0.344666667 0.50128,0 0.957022222,0 L4.92392889,0 C5.38764444,0 5.77344889,0.35648 5.81004444,0.818746667 C5.92415111,2.26033778 6.33928889,3.64234667 7.0224,4.89283556 C7.23795556,5.28746667 7.12488889,5.78092444 6.75902222,6.04228444 L5.65827556,6.82853333 Z M3.41711111,6.24462222 L5.10595556,5.03830222 C4.62708444,4.00456889 4.29891556,2.90829333 4.13090667,1.77777778 L1.78584,1.77777778 C1.78047111,1.92561778 1.77777778,2.07377778 1.77777778,2.22222222 C1.77777778,8.8496 7.1504,14.2222222 13.7777778,14.2222222 C13.9262222,14.2222222 14.0744,14.2195556 14.2222222,14.2141333 L14.2222222,11.8690667 C13.0917333,11.7010667 11.9954667,11.3728889 10.9616889,10.8940444 L9.75537778,12.5829333 C9.26737778,12.3933333 8.79608889,12.1702222 8.34435556,11.9165333 L8.29271111,11.8871111 C6.55084444,10.8966222 5.10341333,9.44915556 4.11288889,7.70728889 L4.08350222,7.65564444 C3.82976889,7.20391111 3.60670222,6.73262222 3.41711111,6.24462222 Z" id="形状"></path>
                </g>
                <rect id="矩形" fill="#D8D8D8" opacity="0" x="0" y="0" width="24" height="24"></rect>
            </g>
        </g>
    </g>
</svg>
