<?xml version="1.0" encoding="UTF-8"?>
<svg width="24px" height="24px" viewBox="0 0 24 24" version="1.1" xmlns="http://www.w3.org/2000/svg" xmlns:xlink="http://www.w3.org/1999/xlink">
    <g id="产业经济前台" stroke="none" stroke-width="1" fill="none" fill-rule="evenodd">
        <g id="v" transform="translate(-578.000000, -259.000000)" fill="#356EF5" fill-rule="nonzero">
            <g id="chat-smile-2-line" transform="translate(578.000000, 259.000000)">
                <path d="M6.349404,22.58904 L0,24 L1.410972,17.65056 C0.510528,15.96672 0,14.043 0,12 C0,5.37258 5.37258,0 12,0 C18.62736,0 24,5.37258 24,12 C24,18.62736 18.62736,24 12,24 C9.957,24 8.03328,23.48952 6.349404,22.58904 Z M6.6969,20.0532 L7.481136,20.4726 C8.858976,21.2094 10.3986,21.6 12,21.6 C17.30196,21.6 21.6,17.30196 21.6,12 C21.6,6.698064 17.30196,2.4 12,2.4 C6.698064,2.4 2.4,6.698064 2.4,12 C2.4,13.6014 2.790588,15.141 3.527388,16.51884 L3.946752,17.30304 L3.160992,20.83896 L6.6969,20.0532 Z M6,12 L8.4,12 C8.4,13.98828 10.01172,15.6 12,15.6 C13.98828,15.6 15.6,13.98828 15.6,12 L18,12 C18,15.31368 15.31368,18 12,18 C8.686296,18 6,15.31368 6,12 Z" id="形状"></path>
            </g>
        </g>
    </g>
</svg>
