<svg width="40" height="40" viewBox="0 0 40 40" fill="none" xmlns="http://www.w3.org/2000/svg">
<g clip-path="url(#clip0_5680_21127)">
<circle cx="20" cy="20" r="20" fill="#F3FBFF"/>
<mask id="mask0_5680_21127" style="mask-type:alpha" maskUnits="userSpaceOnUse" x="0" y="0" width="40" height="40">
<circle cx="20" cy="20" r="20" fill="#F3F7FF"/>
</mask>
<g mask="url(#mask0_5680_21127)">
<path d="M19.8386 26.0942C24.4866 26.0942 28.2702 22.3333 28.2702 17.7136C28.2702 13.0938 24.4866 9.33301 19.8386 9.33301C15.1907 9.33301 11.4071 13.0938 11.4071 17.7136C11.4071 22.3333 15.1907 26.0942 19.8386 26.0942ZM23.19 27.1404H16.4837C11.2547 27.1404 7 31.3714 7 36.5673C7 39.0132 9.00515 40.9997 11.4602 40.9997H28.2064C30.6686 40.9997 32.6667 39.0061 32.6667 36.5673C32.6737 31.3714 28.419 27.1404 23.19 27.1404Z" fill="#B0C4D2"/>
</g>
</g>
<defs>
<clipPath id="clip0_5680_21127">
<rect width="40" height="40" fill="white"/>
</clipPath>
</defs>
</svg>
