<?xml version="1.0" encoding="UTF-8"?>
<svg width="12px" height="14px" viewBox="0 0 12 14" version="1.1" xmlns="http://www.w3.org/2000/svg" xmlns:xlink="http://www.w3.org/1999/xlink">
    <g id="知识图谱" stroke="none" stroke-width="1" fill="none" fill-rule="evenodd">
        <g id="经济指数分析" transform="translate(-1868.000000, -1249.000000)" fill="#86909C" fill-rule="nonzero">
            <path d="M1874.66667,1256 L1876.66667,1256 L1874,1258.8 L1871.33333,1256 L1873.33333,1256 L1873.33333,1253.2 L1874.66667,1253.2 L1874.66667,1256 Z M1876,1250.4 L1869.33333,1250.4 L1869.33333,1261.6 L1878.66667,1261.6 L1878.66667,1253.2 L1876,1253.2 L1876,1250.4 Z M1868,1249.69426 C1868,1249.31083 1868.29833,1249 1868.66567,1249 L1876.66667,1249 L1879.9998,1252.5 L1880,1262.29475 C1880,1262.68423 1879.7034,1263 1879.33773,1263 L1868.66227,1263 C1868.29651,1263 1868,1262.68129 1868,1262.30574 L1868,1249.69426 Z" id="形状备份-8"></path>
        </g>
    </g>
</svg>
