<?xml version="1.0" encoding="UTF-8"?>
<svg width="31px" height="31px" viewBox="0 0 31 31" version="1.1" xmlns="http://www.w3.org/2000/svg" xmlns:xlink="http://www.w3.org/1999/xlink">
    <g id="知识图谱" stroke="none" stroke-width="1" fill="none" fill-rule="evenodd">
        <g id="画板" transform="translate(-1359.000000, -1200.000000)">
            <g id="编组-5" transform="translate(1359.000000, 1200.000000)">
                <rect id="矩形备份-4" fill="#D8D8D8" opacity="0" x="0" y="0" width="31" height="31"></rect>
                <path d="M24,24 L26,24 L26,26 L4,26 L4,24 L6,24 L6,7 C6,6.44772 6.44772,6 7,6 L23,6 C23.5523,6 24,6.44772 24,7 L24,24 Z M11,15 L11,17 L14,17 L14,15 L11,15 Z M11,11 L11,13 L14,13 L14,11 L11,11 Z M11,19 L11,21 L14,21 L14,19 L11,19 Z M16,19 L16,21 L19,21 L19,19 L16,19 Z M16,15 L16,17 L19,17 L19,15 L16,15 Z M16,11 L16,13 L19,13 L19,11 L16,11 Z" id="形状" fill="#356DF6" fill-rule="nonzero"></path>
            </g>
        </g>
    </g>
</svg>
