<?xml version="1.0" encoding="UTF-8"?>
<svg width="31px" height="31px" viewBox="0 0 31 31" version="1.1" xmlns="http://www.w3.org/2000/svg" xmlns:xlink="http://www.w3.org/1999/xlink">
    <g id="知识图谱" stroke="none" stroke-width="1" fill="none" fill-rule="evenodd">
        <g id="画板" transform="translate(-1110.000000, -1190.000000)">
            <g id="编组-2" transform="translate(1110.000000, 1190.000000)">
                <rect id="矩形" fill="#D8D8D8" opacity="0" x="0" y="0" width="31" height="31"></rect>
                <path d="M10.4336362,22.2857143 C10.0993987,20.8313143 8.592135,19.6408 7.97319375,18.8562286 C6.73850625,17.2910857 6,15.3045714 6,13.1428571 C6,8.09339429 10.029435,4 15,4 C19.9705875,4 24,8.09339429 24,13.1428571 C24,15.3057143 23.26065,17.2931429 22.0248375,18.8587429 C21.4062,19.6422857 19.900275,20.8315429 19.566375,22.2857143 L10.4336362,22.2857143 Z M19.5,24.5714286 L19.5,25.7142857 C19.5,26.9766857 18.492675,28 17.25,28 L12.75,28 C11.5073587,28 10.5,26.9766857 10.5,25.7142857 L10.5,24.5714286 L19.5,24.5714286 Z M16.125,13.1483429 L16.125,8.57142857 L11.0625,15.4340571 L13.875,15.4340571 L13.875,20.0054857 L18.9375,13.1483429 L16.125,13.1483429 Z" id="形状" fill="#356DF6" fill-rule="nonzero"></path>
            </g>
        </g>
    </g>
</svg>
