<?xml version="1.0" encoding="UTF-8"?>
<svg width="31px" height="31px" viewBox="0 0 31 31" version="1.1" xmlns="http://www.w3.org/2000/svg" xmlns:xlink="http://www.w3.org/1999/xlink">
    <g id="知识图谱" stroke="none" stroke-width="1" fill="none" fill-rule="evenodd">
        <g id="画板" transform="translate(-1472.000000, -1200.000000)">
            <g id="编组-6" transform="translate(1472.000000, 1200.000000)">
                <rect id="矩形备份-5" fill="#D8D8D8" opacity="0" x="0" y="0" width="31" height="31"></rect>
                <path d="M16.000011,27 C9.92487108,27 5,22.0751826 5,15.9999835 C5,9.92487239 9.92487108,5 16.000011,5 C22.0750849,5 27,9.92487239 27,15.9999835 C27,22.0751826 22.0750849,27 16.000011,27 Z M17.1000099,17.0999851 L17.1000099,15.9999835 L20.4000066,15.9999835 L20.4000066,13.7999802 L17.5556294,13.7999802 L19.8890571,11.4665577 L18.3334387,9.91092437 L16.000011,12.2443799 L13.6665393,9.91092437 L12.1109099,11.4665577 L14.4443926,13.7999802 L11.5999934,13.7999802 L11.5999934,15.9999835 L14.9000121,15.9999835 L14.9000121,17.0999851 L11.5999934,17.0999851 L11.5999934,19.2999884 L14.9000121,19.2999884 L14.9000121,21.4999917 L17.1000099,21.4999917 L17.1000099,19.2999884 L20.4000066,19.2999884 L20.4000066,17.0999851 L17.1000099,17.0999851 Z" id="形状" fill="#356DF6" fill-rule="nonzero"></path>
            </g>
        </g>
    </g>
</svg>
