<?xml version="1.0" encoding="UTF-8"?>
<svg width="31px" height="31px" viewBox="0 0 31 31" version="1.1" xmlns="http://www.w3.org/2000/svg" xmlns:xlink="http://www.w3.org/1999/xlink">
    <g id="知识图谱" stroke="none" stroke-width="1" fill="none" fill-rule="evenodd">
        <g id="画板" transform="translate(-1391.000000, -1051.000000)">
            <g id="编组-8" transform="translate(1391.000000, 1051.000000)">
                <rect id="矩形备份-3" fill="#D8D8D8" opacity="0" x="0" y="0" width="31" height="31"></rect>
                <path d="M7.11111111,5 L24.8888889,5 C25.5025556,5 26,5.45253736 26,6.01075977 L26,25.4944683 C26,25.7736402 25.7512222,26 25.4444444,26 C25.3664444,26 25.2893333,25.9848889 25.2181111,25.9559812 L16,22.2145529 L6.78192222,25.9559812 C6.50172222,26.0697928 6.17323333,25.9552737 6.04821111,25.7004612 C6.01642222,25.6355704 6,25.5654236 6,25.4944683 L6,6.01075977 C6,5.45253736 6.49746667,5 7.11111111,5 Z M16,16.6237373 L19.2654444,18.1854623 L18.6417778,14.8776498 L21.2836667,12.5351332 L17.6327778,12.0525359 L16,9.04303908 L14.3672222,12.0525359 L10.7163556,12.5351332 L13.3581778,14.8776498 L12.7345222,18.1854623 L16,16.6237373 Z" id="形状" fill="#356DF6" fill-rule="nonzero"></path>
            </g>
        </g>
    </g>
</svg>
