<?xml version="1.0" encoding="UTF-8"?>
<svg width="18px" height="18px" viewBox="0 0 18 18" version="1.1" xmlns="http://www.w3.org/2000/svg" xmlns:xlink="http://www.w3.org/1999/xlink">
    <g id="知识图谱" stroke="none" stroke-width="1" fill="none" fill-rule="evenodd">
        <g id="经济指数_天际对比区域" transform="translate(-375.000000, -1362.000000)" fill="#86909C" fill-rule="nonzero">
            <path d="M384,1380 C379.029435,1380 375,1375.97052 375,1371 C375,1366.02943 379.029435,1362 384,1362 C388.97052,1362 393,1366.02943 393,1371 C393,1375.97052 388.97052,1380 384,1380 Z M384,1378 C387.866013,1378 391,1374.86601 391,1371 C391,1367.134 387.866013,1364 384,1364 C380.134005,1364 377,1367.134 377,1371 C377,1374.86601 380.134005,1378 384,1378 Z M383,1374 L385,1374 L385,1376 L383,1376 L383,1374 Z M384.836338,1372.39809 L384.836338,1373 L383.105408,1373 L383.105408,1371.6 C383.105408,1371.08452 383.492877,1370.66667 383.970873,1370.66667 C384.687824,1370.66667 385.26907,1370.03984 385.26907,1369.26667 C385.26907,1368.49347 384.687824,1367.86667 383.970873,1367.86667 C383.341074,1367.86667 382.815996,1368.35035 382.697601,1368.99205 L381,1368.6259 C381.276135,1367.12858 382.501313,1366 383.970873,1366 C385.643816,1366 387,1367.46253 387,1369.26667 C387,1370.74647 386.08754,1371.99648 384.836338,1372.39809 Z" id="形状"></path>
        </g>
    </g>
</svg>
