<svg width="52" height="52" viewBox="0 0 52 52" fill="none" xmlns="http://www.w3.org/2000/svg">
<g id="wj-wjj 1">
<path id="Vector" d="M44.2 7.7998H31.4945C30.8902 7.7998 30.3113 8.03848 29.8848 8.46504L26 12.3498H7.8C5.28633 12.3498 3.25 14.3861 3.25 16.8998V39.6498C3.25 42.1635 5.28633 44.1998 7.8 44.1998H44.2C46.7137 44.1998 48.75 42.1635 48.75 39.6498V12.3498C48.75 9.83613 46.7137 7.7998 44.2 7.7998Z" fill="#E0E0E0"/>
<path id="Vector_2" d="M39 37.6494H13C12.1012 37.6494 11.375 36.9232 11.375 36.0244C11.375 35.1256 12.1012 34.3994 13 34.3994H39C39.8988 34.3994 40.625 35.1256 40.625 36.0244C40.625 36.9232 39.8988 37.6494 39 37.6494Z" fill="#FBFBFB"/>
</g>
</svg>
