<svg width="32" height="32" viewBox="0 0 32 32" fill="none" xmlns="http://www.w3.org/2000/svg">
<g id="Frame" clip-path="url(#clip0_6098_3419)">
<path id="Vector" d="M22 0H6C4.896 0 4 0.896 4 2V12H22C23.104 12 24 12.896 24 14V26.992C24 28.096 23.104 28.992 22 28.992H4V29.984C4 31.088 4.896 31.984 6 31.984H30C31.104 31.984 32 31.088 32 29.984V9.984L22 0Z" fill="#EAEAEA"/>
<path id="Vector_2" d="M22 0V8C22 9.104 22.896 10 24 10H32L22 0Z" fill="#434854"/>
<path id="Vector_3" opacity="0.1" d="M24 10L32 18V10H24Z" fill="black"/>
<path id="Vector_4" d="M22 26.0001C22 26.5601 21.552 26.9921 21.008 26.9921H0.992C0.432 26.9921 0 26.5441 0 26.0001V15.0081C0 14.4481 0.448 14.0161 0.992 14.0161H20.992C21.552 14.0161 21.984 14.4641 21.984 15.0081V26.0001H22Z" fill="#CD4050"/>
<g id="PDF">
<path id="Vector_5" d="M15.6467 18.5544V20.2278H18.1333V21.3057H15.6467V24.0002H14.4082V17.4766H18.5493V18.5544H15.6467Z" fill="white"/>
<path id="Vector_6" d="M8.83203 17.4766H11.1295C11.848 17.4766 12.4248 17.6846 12.8408 18.0817C13.2568 18.4882 13.4742 19.15 13.4742 20.0671V21.4002C13.4742 22.3267 13.2568 22.9886 12.8313 23.3951C12.3964 23.8017 11.8197 24.0002 11.0917 24.0002H8.83203V17.4766ZM11.12 22.9224C11.4888 22.9224 11.7629 22.7995 11.952 22.5537C12.1411 22.3078 12.2357 21.9202 12.2357 21.3907V20.1333C12.2357 19.5849 12.1411 19.1784 11.9615 18.9326C11.7724 18.6867 11.4982 18.5544 11.12 18.5544H10.0706V22.9224H11.12Z" fill="white"/>
<path id="Vector_7" d="M7.46607 18.0249C7.84425 18.3937 8.0428 18.8947 8.0428 19.5282C8.0428 20.1333 7.84425 20.6249 7.46607 20.9842C7.08789 21.3435 6.56789 21.5231 5.90607 21.5231H4.70534V24.0002H3.4668V17.4766H5.90607C6.56789 17.4766 7.08789 17.6657 7.46607 18.0249ZM6.54898 20.1995C6.71916 20.0482 6.80425 19.8213 6.80425 19.5282C6.80425 19.2162 6.71916 18.9798 6.54898 18.8097C6.3788 18.6395 6.15189 18.5544 5.84934 18.5544H4.70534V20.4358H5.84934C6.14243 20.4358 6.3788 20.3602 6.54898 20.1995Z" fill="white"/>
</g>
</g>
<defs>
<clipPath id="clip0_6098_3419">
<rect width="32" height="32" fill="white"/>
</clipPath>
</defs>
</svg>
