<svg width="16" height="16" viewBox="0 0 16 16" fill="none" xmlns="http://www.w3.org/2000/svg">
<g id="Frame">
<path id="Vector" d="M5.03707 5.45307C5.10298 5.45314 5.16825 5.44015 5.22911 5.41483C5.28996 5.38951 5.34519 5.35237 5.3916 5.30557L7.49128 3.194L7.50488 11.4863C7.50508 11.6188 7.55785 11.7458 7.6516 11.8394C7.74535 11.933 7.8724 11.9856 8.00488 11.9856H8.00566C8.07137 11.9855 8.13643 11.9725 8.1971 11.9472C8.25777 11.922 8.31287 11.885 8.35925 11.8385C8.40563 11.7919 8.44238 11.7367 8.46739 11.6759C8.49241 11.6151 8.5052 11.55 8.50503 11.4843L8.49144 3.18588L10.6305 5.30775C10.7247 5.40114 10.852 5.4533 10.9847 5.45276C11.1173 5.45221 11.2442 5.39902 11.3376 5.30486C11.431 5.21071 11.4832 5.08332 11.4826 4.95071C11.4821 4.8181 11.4289 4.69114 11.3347 4.59775L8.3416 1.629L8.33613 1.62385C8.33222 1.6201 8.32832 1.61619 8.32425 1.6126L8.32316 1.6115L8.31535 1.60479L8.30582 1.59666L8.30378 1.59494L8.29472 1.58791L8.28675 1.58182L8.28394 1.57963L8.27425 1.57291L8.26691 1.56791L8.26331 1.56541L8.25363 1.55947L8.24628 1.55494L8.24207 1.55244L8.23347 1.54682L8.2255 1.54244L8.22113 1.5401L8.21238 1.53572L8.20222 1.53119L8.198 1.52916L8.18988 1.52572L8.17957 1.52135L8.17566 1.51963L8.16816 1.51682L8.15628 1.51244L8.15269 1.51119L8.14582 1.509L8.13269 1.50479L8.12957 1.50385L8.123 1.50213L8.10894 1.49838H8.10613L8.09941 1.49697L8.08503 1.49385H8.08253L8.07519 1.4926L8.06113 1.49025H8.05878L8.04988 1.48916L8.03707 1.4876H8.03488L8.02347 1.48682H7.95019L7.93941 1.4876H7.93832L7.92472 1.48932L7.9155 1.49041H7.91425L7.89863 1.49307L7.89113 1.49432H7.88957L7.87394 1.4976L7.86707 1.49916H7.86519L7.85082 1.50307L7.84378 1.50494H7.8416L7.82847 1.50916L7.82082 1.51166L7.81816 1.5126L7.80675 1.51697L7.79816 1.52025L7.79503 1.52166L7.78535 1.52588L7.77566 1.5301L7.77222 1.53182L7.76425 1.53572L7.75363 1.54104L7.75003 1.54307L7.74347 1.54682L7.73207 1.55322L7.72878 1.55525L7.72332 1.55869H7.72238L7.71113 1.56572L7.70816 1.56775L7.703 1.57135L7.70175 1.57229L7.6905 1.5801L7.68832 1.58182L7.68269 1.58619L7.67128 1.5951L7.66988 1.59619L7.66207 1.60291L7.65191 1.61166C7.64597 1.61708 7.64014 1.62265 7.63441 1.62838L4.68207 4.59713C4.61122 4.66701 4.56285 4.75644 4.54312 4.85398C4.5234 4.95152 4.53323 5.05272 4.57135 5.14463C4.60947 5.23655 4.67416 5.315 4.75712 5.36995C4.84009 5.4249 4.93756 5.45384 5.03707 5.45307Z" fill="white"/>
<path id="Vector_2" d="M14.5117 9.45312C14.3791 9.45312 14.2519 9.5058 14.1582 9.59957C14.0644 9.69334 14.0117 9.82052 14.0117 9.95312V13.4531H2.01953V9.95312C2.01953 9.82052 1.96685 9.69334 1.87308 9.59957C1.77932 9.5058 1.65214 9.45312 1.51953 9.45312C1.38692 9.45312 1.25975 9.5058 1.16598 9.59957C1.07221 9.69334 1.01953 9.82052 1.01953 9.95312V13.9531C1.01953 14.0857 1.07221 14.2129 1.16598 14.3067C1.25975 14.4004 1.38692 14.4531 1.51953 14.4531H14.5117C14.6443 14.4531 14.7715 14.4004 14.8653 14.3067C14.959 14.2129 15.0117 14.0857 15.0117 13.9531V9.95312C15.0117 9.82052 14.959 9.69334 14.8653 9.59957C14.7715 9.5058 14.6443 9.45312 14.5117 9.45312Z" fill="white"/>
</g>
</svg>
