<?xml version="1.0" encoding="UTF-8"?>
<svg width="17px" height="16px" viewBox="0 0 17 16" version="1.1" xmlns="http://www.w3.org/2000/svg" xmlns:xlink="http://www.w3.org/1999/xlink">
    <title>编组 56</title>
    <g id="页面-1" stroke="none" stroke-width="1" fill="none" fill-rule="evenodd">
        <g id="画板" transform="translate(-1728.000000, -892.000000)">
            <g id="编组-39" transform="translate(1724.000000, 892.000000)">
                <g id="编组-31" transform="translate(0.000000, -0.000000)">
                    <g id="编组-56" transform="translate(4.896655, 0.000000)">
                        <rect id="矩形备份-129" fill="#D8D8D8" opacity="0" x="0.10334487" y="5.68434189e-14" width="16" height="16"></rect>
                        <rect id="矩形备份-4" fill="#E6E8EB" x="13.4829143" y="9" width="2" height="2" rx="0.400000006"></rect>
                        <rect id="矩形备份-7" fill="#E6E8EB" x="7.48291425" y="0" width="2" height="2" rx="0.400000006"></rect>
                        <rect id="矩形备份-6" fill="#E6E8EB" x="11.0884698" y="2" width="4" height="4" rx="0.467999995"></rect>
                        <g id="编组" transform="translate(7.708451, 6.877596) rotate(-320.000000) translate(-7.708451, -6.877596) translate(-0.291586, 4.986549)" fill="#CED0D7">
                            <path d="M0.291157785,3.19715486 C5.34781322,2.63389752 10.4772025,2.82763607 15.6793256,3.77837051 C16.0047683,3.83773859 16.131226,3.16990047 15.8264464,3.00024719 L12.0907781,0.922575538 C9.48310437,-0.198868548 6.70144797,-0.299857672 4.02269344,0.63017188 L0.199620585,2.40973547 C-0.115490543,2.55635985 -0.0369710489,3.23370531 0.291157785,3.19715486" id="Fill-1"></path>
                        </g>
                        <path d="M3.26682933,15.3109191 L3.25587792,15.3104965 C2.53019249,15.2842985 1.95080128,15.0033037 1.96195931,14.6828005 L2.16920945,8.70690641 C2.18036748,8.38661454 2.77773553,8.14829711 3.50362759,8.1747064 L3.51437236,8.17512894 C4.24026443,8.20132696 4.81965564,8.4823218 4.80849761,8.80261367 L4.60124747,14.7785078 C4.58988281,15.0990109 3.99272139,15.3373284 3.26682933,15.3109191" id="Fill-3" fill="#CED0D7" transform="translate(3.385228, 11.742813) rotate(-320.000000) translate(-3.385228, -11.742813) "></path>
                        <g id="编组" transform="translate(7.272487, 7.420518) rotate(-320.000000) translate(-7.272487, -7.420518) translate(5.090839, 4.800375)" fill="#CED0D7">
                            <path d="M3.64998967,0.100826968 L0.895815098,0.00068294121 C0.492059593,-0.0138949868 0.1566987,0.206675402 0.146573818,0.493163379 L7.29723794e-05,4.72033995 C-0.0019933301,4.77717275 0.0399526103,4.8310477 0.109380374,4.86041483 L0.774936403,5.14457879 L3.41401793,5.24028605 L4.09755079,5.00513774 C4.16904486,4.98084119 4.21450351,4.92992408 4.21636318,4.87330256 L4.36307066,0.64633726 C4.37298891,0.359638009 4.05374518,0.115404896 3.64998967,0.100826968" id="Fill-5"></path>
                        </g>
                    </g>
                </g>
            </g>
        </g>
    </g>
</svg>