<?xml version="1.0" encoding="UTF-8"?>
<svg width="16px" height="16px" viewBox="0 0 16 16" version="1.1" xmlns="http://www.w3.org/2000/svg" xmlns:xlink="http://www.w3.org/1999/xlink">
    <title>编组 35备份 2</title>
    <g id="页面-1" stroke="none" stroke-width="1" fill="none" fill-rule="evenodd">
        <g id="画板" transform="translate(-1694.000000, -918.000000)">
            <g id="编组-35备份" transform="translate(1694.000000, 918.000000)">
                <rect id="矩形备份-128" fill="#D8D8D8" opacity="0" x="0" y="0" width="16" height="16"></rect>
                <g id="编组-2" transform="translate(2.500000, 2.000000)">
                    <g id="flask-fill-(1)" fill="#52C5A8" fill-opacity="0.68" fill-rule="nonzero">
                        <path d="M8.19734461,0 L8.19734461,1.2 L7.52297963,1.2 L7.52297963,3.145746 C7.52297963,3.840306 7.69238011,4.526592 8.01951456,5.15724 L10.9066733,10.72284 C11.1407454,11.17416 10.9193514,11.70888 10.4120941,11.91714 C10.2791767,11.97174 10.1345929,12 9.98818823,12 L1.01154746,12 C0.452883286,12 0,11.59704 0,11.1 C0,10.96974 0.0317625903,10.8411 0.0931028284,10.72284 L2.98022788,5.15724 C3.30736233,4.526592 3.47678304,3.840306 3.47678304,3.145746 L3.47678304,1.2 L2.80241806,1.2 L2.80241806,0 L8.19734461,0 Z M6.17424968,1.2 L4.82551973,1.2 L4.82551973,3.6 L6.17424968,3.6 L6.17424968,1.2 Z" id="形状"></path>
                    </g>
                    <g id="编组" transform="translate(2.453666, 5.434728)" fill="#F5FFFC" fill-opacity="0.535990255">
                        <path d="M2.5520669,0.249883985 L2.9110232,0.228937257 C3.07471118,0.219385321 3.21514987,0.344337271 3.22470181,0.508025247 C3.22537408,0.519545654 3.22537408,0.531095458 3.22470181,0.542615866 L3.20375508,0.901572166 C3.19498136,1.05192418 3.07501911,1.17188643 2.92466709,1.18066016 L2.56571079,1.20160688 C2.40202281,1.21115882 2.26158412,1.08620687 2.25203218,0.922518893 C2.25135991,0.910998486 2.25135991,0.899448682 2.25203218,0.887928274 L2.27297891,0.528971974 C2.28175263,0.378619958 2.40171488,0.258657707 2.5520669,0.249883985 Z" id="矩形" transform="translate(2.738367, 0.715272) rotate(-315.000000) translate(-2.738367, -0.715272) "></path>
                        <path d="M0.705820021,2.34988398 L1.70195881,2.29175477 C1.86564678,2.28220283 2.00608548,2.40715478 2.01563742,2.57084276 C2.01630968,2.58236317 2.01630968,2.59391297 2.01563742,2.60543338 L1.9575082,3.60157217 C1.94873448,3.75192418 1.82877223,3.87188643 1.67842021,3.88066016 L0.682281425,3.93878937 C0.518593449,3.94834131 0.378154752,3.82338936 0.368602816,3.65970138 C0.367930548,3.64818097 0.367930548,3.63663117 0.368602816,3.62511076 L0.426732032,2.62897197 C0.435505753,2.47861996 0.555468005,2.35865771 0.705820021,2.34988398 Z" id="矩形备份" transform="translate(1.192120, 3.115272) rotate(-315.000000) translate(-1.192120, -3.115272) "></path>
                        <path d="M4.11482738,2.94988398 L5.74814866,2.85457228 C5.91183663,2.84502035 6.05227533,2.9699723 6.06182727,3.13366027 C6.06249953,3.14518068 6.06249953,3.15673048 6.06182727,3.16825089 L5.96651556,4.80157217 C5.95774184,4.95192418 5.83777959,5.07188643 5.68742757,5.08066016 L4.0541063,5.17597186 C3.89041832,5.18552379 3.74997963,5.06057184 3.74042769,4.89688387 C3.73975542,4.88536346 3.73975542,4.87381366 3.74042769,4.86229325 L3.83573939,3.22897197 C3.84451311,3.07861996 3.96447537,2.95865771 4.11482738,2.94988398 Z" id="矩形备份-2" transform="translate(4.901127, 4.015272) rotate(-315.000000) translate(-4.901127, -4.015272) "></path>
                    </g>
                </g>
            </g>
        </g>
    </g>
</svg>