<?xml version="1.0" encoding="UTF-8"?>
<svg width="568px" height="414px" viewBox="0 0 568 414" version="1.1" xmlns="http://www.w3.org/2000/svg" xmlns:xlink="http://www.w3.org/1999/xlink">
    <title>编组 50</title>
    <defs>
        <path d="M7.69081736,21.5845041 L443.309183,21.5845041 C447.556704,21.5845041 451,25.0278003 451,29.2753214 L451,46.5845041 L451,46.5845041 L0,46.5845041 L0,29.2753214 C-1.40834974e-15,25.0278003 3.44329622,21.5845041 7.69081736,21.5845041 Z" id="path-1"></path>
        <filter x="-0.1%" y="-2.0%" width="100.2%" height="108.0%" filterUnits="objectBoundingBox" id="filter-2">
            <feOffset dx="0" dy="1" in="SourceAlpha" result="shadowOffsetOuter1"></feOffset>
            <feColorMatrix values="0 0 0 0 1   0 0 0 0 1   0 0 0 0 1  0 0 0 0.5 0" type="matrix" in="shadowOffsetOuter1"></feColorMatrix>
        </filter>
        <linearGradient x1="13.8132158%" y1="21.1189561%" x2="50%" y2="78.8810439%" id="linearGradient-3">
            <stop stop-color="#FFFFFF" offset="0%"></stop>
            <stop stop-color="#F8FAFC" offset="79.0003727%"></stop>
            <stop stop-color="#FFFFFF" offset="100%"></stop>
        </linearGradient>
        <path d="M66.5282723,0 L532.413831,0 C544.01181,2.87727117e-14 553.413831,9.40202025 553.413831,21 L553.413831,382.28 C553.413831,384.334499 551.74833,386 549.69383,386 L49.2482723,386 C47.193773,386 45.5282723,384.334499 45.5282723,382.28 L45.5282723,21 C45.5282723,9.40202025 54.9302926,2.13051432e-15 66.5282723,0 Z" id="path-4"></path>
        <filter x="-4.3%" y="-5.2%" width="108.7%" height="111.4%" filterUnits="objectBoundingBox" id="filter-5">
            <feOffset dx="0" dy="2" in="SourceAlpha" result="shadowOffsetOuter1"></feOffset>
            <feGaussianBlur stdDeviation="7" in="shadowOffsetOuter1" result="shadowBlurOuter1"></feGaussianBlur>
            <feColorMatrix values="0 0 0 0 0.74300224   0 0 0 0 0.780012747   0 0 0 0 0.788071784  0 0 0 0.264429906 0" type="matrix" in="shadowBlurOuter1"></feColorMatrix>
        </filter>
        <polygon id="path-6" points="0 23 88 23 88 0 0 0"></polygon>
        <rect id="path-8" x="0" y="0" width="171" height="36" rx="4"></rect>
        <filter x="-7.6%" y="-30.6%" width="115.2%" height="172.2%" filterUnits="objectBoundingBox" id="filter-9">
            <feOffset dx="0" dy="2" in="SourceAlpha" result="shadowOffsetOuter1"></feOffset>
            <feGaussianBlur stdDeviation="4" in="shadowOffsetOuter1" result="shadowBlurOuter1"></feGaussianBlur>
            <feColorMatrix values="0 0 0 0 0.802156752   0 0 0 0 0.802156752   0 0 0 0 0.802156752  0 0 0 0.4 0" type="matrix" in="shadowBlurOuter1"></feColorMatrix>
        </filter>
        <rect id="path-10" x="0" y="0" width="172" height="36" rx="4"></rect>
        <filter x="-7.6%" y="-30.6%" width="115.1%" height="172.2%" filterUnits="objectBoundingBox" id="filter-11">
            <feOffset dx="0" dy="2" in="SourceAlpha" result="shadowOffsetOuter1"></feOffset>
            <feGaussianBlur stdDeviation="4" in="shadowOffsetOuter1" result="shadowBlurOuter1"></feGaussianBlur>
            <feColorMatrix values="0 0 0 0 0.802156752   0 0 0 0 0.802156752   0 0 0 0 0.802156752  0 0 0 0.4 0" type="matrix" in="shadowBlurOuter1"></feColorMatrix>
        </filter>
        <rect id="path-12" x="0" y="0" width="171" height="36" rx="4"></rect>
        <filter x="-7.6%" y="-30.6%" width="115.2%" height="172.2%" filterUnits="objectBoundingBox" id="filter-13">
            <feOffset dx="0" dy="2" in="SourceAlpha" result="shadowOffsetOuter1"></feOffset>
            <feGaussianBlur stdDeviation="4" in="shadowOffsetOuter1" result="shadowBlurOuter1"></feGaussianBlur>
            <feColorMatrix values="0 0 0 0 0.802156752   0 0 0 0 0.802156752   0 0 0 0 0.802156752  0 0 0 0.4 0" type="matrix" in="shadowBlurOuter1"></feColorMatrix>
        </filter>
        <rect id="path-14" x="0" y="1.13686838e-13" width="171" height="36" rx="4"></rect>
        <filter x="-7.6%" y="-30.6%" width="115.2%" height="172.2%" filterUnits="objectBoundingBox" id="filter-15">
            <feOffset dx="0" dy="2" in="SourceAlpha" result="shadowOffsetOuter1"></feOffset>
            <feGaussianBlur stdDeviation="4" in="shadowOffsetOuter1" result="shadowBlurOuter1"></feGaussianBlur>
            <feColorMatrix values="0 0 0 0 0.802156752   0 0 0 0 0.802156752   0 0 0 0 0.802156752  0 0 0 0.4 0" type="matrix" in="shadowBlurOuter1"></feColorMatrix>
        </filter>
    </defs>
    <g id="数据要素所有版本" stroke="none" stroke-width="1" fill="none" fill-rule="evenodd">
        <g id="首页备份" transform="translate(-981.000000, -868.000000)">
            <g id="编组-50" transform="translate(981.556246, 880.000000)">
                <g id="编组-3">
                    <g id="编组-13">
                        <g id="编组-20">
                            <ellipse id="椭圆形" fill="#FFFFFF" cx="325.988114" cy="57.6047655" rx="4.96972217" ry="4.97484355"></ellipse>
                            <rect id="矩形" fill="#F4F8FC" x="0" y="21.5845041" width="451" height="346" rx="7.69081736"></rect>
                            <g id="矩形备份-2">
                                <use fill="black" fill-opacity="1" filter="url(#filter-2)" xlink:href="#path-1"></use>
                                <use fill="#EAEAEA" fill-rule="evenodd" xlink:href="#path-1"></use>
                            </g>
                            <ellipse id="椭圆形备份-2" fill="#FFFFFF" cx="59.8318822" cy="99.6145555" rx="4.96972217" ry="4.97484355"></ellipse>
                            <ellipse id="椭圆形备份-3" fill="#FFFFFF" cx="78.6063882" cy="99.6145555" rx="4.96972217" ry="4.97484355"></ellipse>
                            <g id="矩形">
                                <use fill="black" fill-opacity="1" filter="url(#filter-5)" xlink:href="#path-4"></use>
                                <use fill="url(#linearGradient-3)" fill-rule="evenodd" xlink:href="#path-4"></use>
                            </g>
                            <rect id="矩形" fill="#F6F8FA" x="45.443754" y="25" width="161" height="361"></rect>
                            <g id="编组-15" transform="translate(57.443754, 47.000000)">
                                <text id="读取数据" font-family="SourceHanSansSC-Regular, Source Han Sans SC" font-size="12" font-weight="normal" fill="#646464">
                                    <tspan x="49.3075" y="46">读取数据</tspan>
                                </text>
                                <polygon id="路径" points="23.3075 31 41.3075 31 41.3075 49 23.3075 49"></polygon>
                                <path d="M27.0575,40.375 C27.0575,40.60975 27.40325,41.0185 28.205,41.41975 C29.243,41.93875 30.71525,42.25 32.3075,42.25 C33.89975,42.25 35.372,41.93875 36.41,41.41975 C37.21175,41.0185 37.5575,40.60975 37.5575,40.375 L37.5575,38.74675 C36.32,39.51175 34.42775,40 32.3075,40 C30.18725,40 28.295,39.511 27.0575,38.74675 L27.0575,40.375 Z M37.5575,42.49675 C36.32,43.26175 34.42775,43.75 32.3075,43.75 C30.18725,43.75 28.295,43.261 27.0575,42.49675 L27.0575,44.125 C27.0575,44.35975 27.40325,44.7685 28.205,45.16975 C29.243,45.68875 30.71525,46 32.3075,46 C33.89975,46 35.372,45.68875 36.41,45.16975 C37.21175,44.7685 37.5575,44.35975 37.5575,44.125 L37.5575,42.49675 Z M25.5575,44.125 L25.5575,36.625 C25.5575,34.76125 28.58,33.25 32.3075,33.25 C36.035,33.25 39.0575,34.76125 39.0575,36.625 L39.0575,44.125 C39.0575,45.98875 36.035,47.5 32.3075,47.5 C28.58,47.5 25.5575,45.98875 25.5575,44.125 Z M32.3075,38.5 C33.89975,38.5 35.372,38.18875 36.41,37.66975 C37.21175,37.2685 37.5575,36.85975 37.5575,36.625 C37.5575,36.39025 37.21175,35.9815 36.41,35.58025 C35.372,35.06125 33.89975,34.75 32.3075,34.75 C30.71525,34.75 29.243,35.06125 28.205,35.58025 C27.40325,35.9815 27.0575,36.39025 27.0575,36.625 C27.0575,36.85975 27.40325,37.2685 28.205,37.66975 C29.243,38.18875 30.71525,38.5 32.3075,38.5 Z" id="形状" fill="#A1A1A1" fill-rule="nonzero"></path>
                                <text id="数据筛选" font-family="SourceHanSansSC-Regular, Source Han Sans SC" font-size="12" font-weight="normal" fill="#646464">
                                    <tspan x="49.3075" y="117">数据筛选</tspan>
                                </text>
                                <polygon id="路径" points="24.3075 103 42.3075 103 42.3075 121 24.3075 121"></polygon>
                                <path d="M34.8075,113.5 L34.8075,118 L31.8075,119.5 L31.8075,113.5 L27.3075,106.75 L27.3075,105.25 L39.3075,105.25 L39.3075,106.75 L34.8075,113.5 Z M29.1105,106.75 L33.3075,113.0455 L37.5045,106.75 L29.1105,106.75 Z" id="形状" fill="#A1A1A1" fill-rule="nonzero"></path>
                                <polygon id="路径" points="24.3075 174 42.3075 174 42.3075 192 24.3075 192"></polygon>
                                <path d="M26.5575,176.25 L40.0575,176.25 C40.4717136,176.25 40.8075,176.585786 40.8075,177 L40.8075,189 C40.8075,189.414214 40.4717136,189.75 40.0575,189.75 L26.5575,189.75 C26.1432864,189.75 25.8075,189.414214 25.8075,189 L25.8075,177 C25.8075,176.585786 26.1432864,176.25 26.5575,176.25 Z M27.3075,177.75 L27.3075,188.25 L39.3075,188.25 L39.3075,177.75 L27.3075,177.75 Z M31.0575,182.25 L32.5575,182.25 L32.5575,183.75 L31.0575,183.75 L31.0575,185.25 L29.5575,185.25 L29.5575,183.75 L28.0575,183.75 L28.0575,182.25 L29.5575,182.25 L29.5575,180.75 L31.0575,180.75 L31.0575,182.25 Z M34.0575,182.25 L38.5575,182.25 L38.5575,183.75 L34.0575,183.75 L34.0575,182.25 Z" id="形状" fill="#A1A1A1" fill-rule="nonzero"></path>
                                <text id="熵权法" font-family="SourceHanSansSC-Regular, Source Han Sans SC" font-size="12" font-weight="normal" fill="#646464">
                                    <tspan x="49.3075" y="188">熵权法</tspan>
                                </text>
                                <polygon id="路径" points="24.3075 204 42.3075 204 42.3075 222 24.3075 222"></polygon>
                                <path d="M26.5575,206.25 L40.0575,206.25 C40.4717136,206.25 40.8075,206.585786 40.8075,207 L40.8075,219 C40.8075,219.414214 40.4717136,219.75 40.0575,219.75 L26.5575,219.75 C26.1432864,219.75 25.8075,219.414214 25.8075,219 L25.8075,207 C25.8075,206.585786 26.1432864,206.25 26.5575,206.25 Z M27.3075,207.75 L27.3075,218.25 L39.3075,218.25 L39.3075,207.75 L27.3075,207.75 Z M29.5575,213.75 L31.0575,213.75 L31.0575,216.75 L29.5575,216.75 L29.5575,213.75 Z M32.5575,209.25 L34.0575,209.25 L34.0575,216.75 L32.5575,216.75 L32.5575,209.25 Z M35.5575,211.5 L37.0575,211.5 L37.0575,216.75 L35.5575,216.75 L35.5575,211.5 Z" id="形状" fill="#A1A1A1" fill-rule="nonzero"></path>
                                <text id="Min-Max标准化" font-family="SourceHanSansSC-Regular, Source Han Sans SC" font-size="12" font-weight="normal" fill="#646464">
                                    <tspan x="49.3075" y="218">Min-Max标准化</tspan>
                                </text>
                                <text id="数据读取" font-family="SourceHanSansSC-Regular, Source Han Sans SC" font-size="12" font-weight="normal" fill="#646464">
                                    <tspan x="45.8085" y="16">数据读取</tspan>
                                </text>
                                <polygon id="路径" points="19.3075 0 39.3075 0 39.3075 20 19.3075 20"></polygon>
                                <path d="M21.8075,17.5 C21.3472627,17.5 20.9741667,17.126904 20.9741667,16.6666667 L20.9741667,3.33333333 C20.9741667,2.87309604 21.3472627,2.5 21.8075,2.5 L27.9858333,2.5 L29.6525,4.16666667 L35.9741667,4.16666667 C36.434404,4.16666667 36.8075,4.53976271 36.8075,5 L36.8075,7.5 L22.6408333,7.5 L22.6408333,15.83 L24.3075,9.16666667 L38.0575,9.16666667 L36.1325,16.8691667 C36.0396174,17.2399426 35.7063995,17.5 35.3241667,17.5 L21.8075,17.5 L21.8075,17.5 Z" id="路径" fill="#C0C2C7" fill-rule="nonzero"></path>
                                <path d="M6.8085,5 L8.1915,6.384 L4.57626695,10 L8.1915,13.616 L6.8085,15 L1.8085,10 L6.8085,5 Z" id="形状结合备份" fill="#D2D2D2" transform="translate(5.000000, 10.000000) scale(-1, 1) rotate(-90.000000) translate(-5.000000, -10.000000) "></path>
                                <text id="数据处理" font-family="SourceHanSansSC-Regular, Source Han Sans SC" font-size="14" font-weight="normal" fill="#646464">
                                    <tspan x="45.8085" y="87">数据处理</tspan>
                                </text>
                                <polygon id="路径" points="11.8085 71 31.8085 71 31.8085 91 11.8085 91"></polygon>
                                <path d="M38.1418333,80.1666667 L38.1418333,87.6666667 C38.1418333,88.126904 37.7687373,88.5 37.3085,88.5 L22.3085,88.5 C21.8482627,88.5 21.4751667,88.126904 21.4751667,87.6666667 L21.4751667,80.1666667 L38.1418333,80.1666667 Z M38.1418333,78.5 L21.4751667,78.5 L21.4751667,74.3333333 C21.4751667,73.873096 21.8482627,73.5 22.3085,73.5 L28.4868333,73.5 L30.1535,75.1666667 L37.3085,75.1666667 C37.7687373,75.1666667 38.1418333,75.5397627 38.1418333,76 L38.1418333,78.5 Z" id="形状" fill="#C0C2C7" fill-rule="nonzero"></path>
                                <path d="M6.8085,76 L8.1915,77.384 L4.57626695,81 L8.1915,84.616 L6.8085,86 L1.8085,81 L6.8085,76 Z" id="形状结合备份" fill="#D2D2D2" transform="translate(5.000000, 81.000000) scale(-1, 1) rotate(-90.000000) translate(-5.000000, -81.000000) "></path>
                                <path d="M6.8085,148 L8.1915,149.384 L4.57626695,153 L8.1915,156.616 L6.8085,158 L1.8085,153 L6.8085,148 Z" id="形状结合备份-2" fill="#D2D2D2" transform="translate(5.000000, 153.000000) scale(-1, 1) rotate(-90.000000) translate(-5.000000, -153.000000) "></path>
                                <text id="模型训练" font-family="SourceHanSansSC-Regular, Source Han Sans SC" font-size="12" font-weight="normal" fill="#646464">
                                    <tspan x="45.8085" y="158">模型训练</tspan>
                                </text>
                                <polygon id="路径" points="11.8085 142 31.8085 142 31.8085 162 11.8085 162"></polygon>
                                <path d="M38.1418333,151.166667 L38.1418333,158.666667 C38.1418333,159.126904 37.7687373,159.5 37.3085,159.5 L22.3085,159.5 C21.8482627,159.5 21.4751667,159.126904 21.4751667,158.666667 L21.4751667,151.166667 L38.1418333,151.166667 Z M38.1418333,149.5 L21.4751667,149.5 L21.4751667,145.333333 C21.4751667,144.873096 21.8482627,144.5 22.3085,144.5 L28.4868333,144.5 L30.1535,146.166667 L37.3085,146.166667 C37.7687373,146.166667 38.1418333,146.539763 38.1418333,147 L38.1418333,149.5 Z" id="形状" fill="#C0C2C7" fill-rule="nonzero"></path>
                            </g>
                            <path d="M52.8095337,2.84217094e-14 L546.809534,2.84217094e-14 C550.675527,2.7711538e-14 553.809534,3.13400675 553.809534,7 L553.809534,34 L553.809534,34 L45.8095337,34 L45.8095337,7 C45.8095337,3.13400675 48.9435405,2.55791672e-14 52.8095337,2.84217094e-14 Z" id="矩形备份-4" fill="#FFFFFF"></path>
                            <g id="编组" transform="translate(70.528272, 6.000000)">
                                <path d="M34.9348814,8.41773646 C34.5791445,8.04158151 34.1048288,7.87084879 33.5003271,7.87084879 L31.9471938,7.87084879 L31.9471938,13.7765117 L33.5003271,13.7765117 C34.1048288,13.7765117 34.5791445,13.6051757 34.9348814,13.2290207 C35.3734353,12.7614664 35.3853559,11.883671 35.3853559,10.7663671 C35.3853559,9.64906325 35.3734353,8.88529073 34.9348814,8.41773646 M35.8123029,14.1182788 C35.2786976,14.6316835 34.5079344,14.8823529 33.630513,14.8823529 L30.6666667,14.8823529 L30.6666667,6.76470588 L33.630513,6.76470588 C34.5079344,6.76470588 35.2786976,7.01567695 35.8123029,7.5284784 C36.7251725,8.40657549 36.6658831,9.59235344 36.6658831,10.7663671 C36.6658831,11.9409841 36.7251725,13.2404833 35.8123029,14.1182788" id="Fill-1" fill="#3E504F"></path>
                                <path d="M40.8418952,12.1842988 L39.4906227,12.1842988 C38.8092786,12.1842988 38.4574911,12.5011875 38.4574911,13.0409225 C38.4574911,13.5803471 38.7867473,13.8851313 39.5134544,13.8851313 C39.956268,13.8851313 40.2855242,13.8500594 40.5919488,13.5452752 C40.7622849,13.3692949 40.8418952,13.0877885 40.8418952,12.6653737 L40.8418952,12.1842988 Z M40.8647268,14.8122091 L40.8647268,14.2727845 C40.4444444,14.706683 40.0469937,14.8823529 39.3317025,14.8823529 C38.6164113,14.8823529 38.1393502,14.706683 37.7875628,14.3429283 C37.4922536,14.02635 37.3333333,13.568553 37.3333333,13.0642003 C37.3333333,12.0669786 38.0032617,11.3515737 39.3205871,11.3515737 L40.8418952,11.3515737 L40.8418952,10.929159 C40.8418952,10.1783718 40.4786919,9.81461712 39.5816489,9.81461712 C38.9456676,9.81461712 38.6389425,9.9673196 38.3211021,10.3897344 L37.560448,9.65074129 C38.1054032,8.99368613 38.67319,8.79411765 39.6270117,8.79411765 C41.2050985,8.79411765 42,9.48655509 42,10.835427 L42,14.8122091 L40.8647268,14.8122091 Z" id="Fill-3" fill="#3E504F"></path>
                                <path d="M44.0360952,14.8823529 C43.0544162,14.8823529 42.5996719,14.1063182 42.5996719,13.2732132 L42.5996719,10.0890552 L42,10.0890552 L42,9.19888001 L42.5996719,9.19888001 L42.5996719,7.44117647 L43.6538146,7.44117647 L43.6538146,9.19888001 L44.6666667,9.19888001 L44.6666667,10.0890552 L43.6538146,10.0890552 L43.6538146,13.215841 C43.6538146,13.6382817 43.8397594,13.8895116 44.232431,13.8895116 L44.6666667,13.8895116 L44.6666667,14.8823529 L44.0360952,14.8823529 Z" id="Fill-5" fill="#3E504F"></path>
                                <path d="M48.8418952,12.1842988 L47.4906227,12.1842988 C46.8092786,12.1842988 46.4574911,12.5011875 46.4574911,13.0409225 C46.4574911,13.5803471 46.7867473,13.8851313 47.5134544,13.8851313 C47.956268,13.8851313 48.2855242,13.8500594 48.5919488,13.5452752 C48.7622849,13.3692949 48.8418952,13.0877885 48.8418952,12.6653737 L48.8418952,12.1842988 Z M48.8647268,14.8122091 L48.8647268,14.2727845 C48.4444444,14.706683 48.0469937,14.8823529 47.3317025,14.8823529 C46.6164113,14.8823529 46.1393502,14.706683 45.7875628,14.3429283 C45.4922536,14.02635 45.3333333,13.568553 45.3333333,13.0642003 C45.3333333,12.0669786 46.0032617,11.3515737 47.3205871,11.3515737 L48.8418952,11.3515737 L48.8418952,10.929159 C48.8418952,10.1783718 48.4786919,9.81461712 47.5816489,9.81461712 C46.9456676,9.81461712 46.6389425,9.9673196 46.3211021,10.3897344 L45.560448,9.65074129 C46.1054032,8.99368613 46.67319,8.79411765 47.6270117,8.79411765 C49.2050985,8.79411765 50,9.48655509 50,10.835427 L50,14.8122091 L48.8647268,14.8122091 Z" id="Fill-7" fill="#3E504F"></path>
                                <path d="M53.7648518,7.87084879 L51.9152393,7.87084879 L51.9152393,10.4131374 L53.7648518,10.4131374 C54.5971316,10.4131374 55.1636079,9.9458848 55.1636079,9.14742277 C55.1636079,8.34956403 54.5971316,7.87084879 53.7648518,7.87084879 L53.7648518,7.87084879 Z M55.2097947,14.8823529 L53.4758021,11.4619672 L51.9152393,11.4619672 L51.9152393,14.8823529 L50.6666667,14.8823529 L50.6666667,6.76470588 L53.8572254,6.76470588 C55.4180941,6.76470588 56.4121805,7.75682588 56.4121805,9.1362618 C56.4121805,10.2991145 55.6955207,11.0402634 54.7705614,11.2912345 L56.6666667,14.8823529 L55.2097947,14.8823529 Z" id="Fill-9" fill="#3E504F"></path>
                                <path d="M60.7518612,10.5421265 C60.5784368,10.0961235 60.1876577,9.7913393 59.6668102,9.7913393 C59.1456757,9.7913393 58.7442729,10.0961235 58.5705613,10.5421265 C58.4620275,10.8118388 58.4402059,10.9881294 58.4295822,11.3515737 L60.9037511,11.3515737 C60.8928403,10.9881294 60.860395,10.8118388 60.7518612,10.5421265 L60.7518612,10.5421265 Z M58.4295822,12.1842988 C58.4295822,13.2051087 58.9286081,13.8500594 59.8293238,13.8500594 C60.4477943,13.8500594 60.7736828,13.6625954 61.1644619,13.2401806 L61.8699317,13.9558958 C61.305441,14.5657746 60.7736828,14.8823529 59.8077893,14.8823529 C58.4295822,14.8823529 57.3333333,14.0964939 57.3333333,11.8323382 C57.3333333,9.9086595 58.2558707,8.79411765 59.6668102,8.79411765 C61.1423532,8.79411765 62,9.9673196 62,11.6566683 L62,12.1842988 L58.4295822,12.1842988 Z" id="Fill-11" fill="#3E504F"></path>
                                <mask id="mask-7" fill="white">
                                    <use xlink:href="#path-6"></use>
                                </mask>
                                <g id="Clip-14"></g>
                                <path d="M66.1254334,14.8823529 L67.2875019,14.8823529 L67.2875019,9.24433254 L66.1254334,9.24433254 L66.1254334,14.8823529 Z M66.0910599,7.81760365 L67.3333333,7.81760365 L67.3333333,6.78747124 L66.0910599,6.78747124 L66.0910599,7.81760365 Z M63.8236092,10.1273888 L63.8236092,14.8823529 L62.6609377,14.8823529 L62.6609377,10.1273888 L62,10.1273888 L62,9.24433254 L62.6609377,9.24433254 L62.6609377,8.36097677 C62.6609377,7.53483395 63.16237,6.76470588 64.2451379,6.76470588 L64.9630635,6.76470588 L64.9630635,7.74960712 L64.4501734,7.74960712 C64.0168853,7.74960712 63.8236092,7.99852833 63.8236092,8.41789017 L63.8236092,9.24433254 L64.9630635,9.24433254 L64.9630635,10.1273888 L63.8236092,10.1273888 Z" id="Fill-13" fill="#3E504F" mask="url(#mask-7)"></path>
                                <path d="M71.5085619,14.8823529 L71.5085619,11.6227346 C71.5085619,10.7893396 70.9978542,10.430695 70.3507575,10.430695 C69.70306,10.430695 69.1584052,10.7999454 69.1584052,11.6227346 L69.1584052,14.8823529 L68,14.8823529 L68,9.53422322 L69.1355736,9.53422322 L69.1355736,10.0720505 C69.5330243,9.67126172 70.0890949,9.47058824 70.6682975,9.47058824 C71.2589159,9.47058824 71.7470924,9.65005006 72.0877645,9.95622364 C72.5302777,10.3567333 72.6666667,10.8633013 72.6666667,11.4644844 L72.6666667,14.8823529 L71.5085619,14.8823529 Z" id="Fill-15" fill="#3E504F" mask="url(#mask-7)"></path>
                                <path d="M76.7517844,10.5421265 C76.5783493,10.0961235 76.1875461,9.7913393 75.6666667,9.7913393 C75.1455,9.7913393 74.7440725,10.0961235 74.5703503,10.5421265 C74.4618098,10.8118388 74.4399869,10.9881294 74.4293625,11.3515737 L76.9036836,11.3515737 C76.8927722,10.9881294 76.8603249,10.8118388 76.7517844,10.5421265 L76.7517844,10.5421265 Z M74.4293625,12.1842988 C74.4293625,13.2051087 74.9284191,13.8500594 75.8291903,13.8500594 C76.4476987,13.8500594 76.7736074,13.6625954 77.1644105,13.2401806 L77.8699237,13.9558958 C77.3053983,14.5657746 76.7736074,14.8823529 75.8076544,14.8823529 C74.4293625,14.8823529 73.3333333,14.0964939 73.3333333,11.8323382 C73.3333333,9.9086595 74.2556403,8.79411765 75.6666667,8.79411765 C77.1423004,8.79411765 78,9.9673196 78,11.6566683 L78,12.1842988 L74.4293625,12.1842988 Z" id="Fill-16" fill="#3E504F" mask="url(#mask-7)"></path>
                                <path d="M82.4682274,10.7893396 C82.2098848,10.546801 82.0074322,10.430695 81.6144184,10.430695 C80.9963582,10.430695 80.479673,10.8948397 80.479673,11.6330613 L80.479673,14.8823529 L79.3333333,14.8823529 L79.3333333,9.53422322 L80.4567819,9.53422322 L80.4567819,10.1141947 C80.7493125,9.7346176 81.333482,9.47058824 81.9738387,9.47058824 C82.5244147,9.47058824 82.9403196,9.60790583 83.3333333,9.97715621 L82.4682274,10.7893396 Z" id="Fill-17" fill="#3E504F" mask="url(#mask-7)"></path>
                                <path d="M85.3802147,16.4417898 C85.2632434,16.7630615 85.1227541,16.9921079 84.9476066,17.1641202 C84.6199014,17.4850886 84.1872933,17.5882353 83.7311672,17.5882353 L83.2515231,17.5882353 L83.2515231,16.5337117 L83.5557103,16.5337117 C84.058563,16.5337117 84.2340199,16.3847557 84.4091674,15.914528 L84.7368726,15.0083537 L82.6666667,9.47058824 L83.9298327,9.47058824 L85.3452471,13.5639963 L86.7253844,9.47058824 L88,9.47058824 L85.3802147,16.4417898 Z" id="Fill-18" fill="#3E504F" mask="url(#mask-7)"></path>
                                <path d="M25.5857411,13.0187731 L20.6296435,21.4796004 C20.0772983,22.4203495 19.0596623,23 17.9579737,23 L8.04277674,23 C7.49043152,23 6.95909944,22.8550874 6.49681051,22.5886256 C6.03452158,22.3283743 5.64727955,21.9498271 5.37110694,21.4796004 L4.77373358,20.4592972 L0.412007505,13.0187731 C-0.137335835,12.0780239 -0.137335835,10.9216803 0.412007505,9.98122694 L5.37110694,1.52010389 C5.92045028,0.579650512 6.94108818,0 8.04277674,0 L17.9579737,0 C19.0596623,0 20.0772983,0.579650512 20.6296435,1.52010389 L25.5857411,9.98122694 C26.1380863,10.9216803 26.1380863,12.0780239 25.5857411,13.0187731" id="Fill-19" fill="#00ACB6" mask="url(#mask-7)"></path>
                                <path d="M3.53245529,6.14042601 C9.78569967,9.70217883 15.7199672,13.934772 21.3352579,18.8382054 C21.6866931,19.1450329 22.1927479,18.7043857 21.9245241,18.3249879 L18.6376758,13.6740993 C16.1675971,10.6937801 12.9471408,8.40171814 9.2970543,7.02636485 L3.84553061,5.43010742 C3.39642539,5.29860994 3.12672619,5.90936202 3.53245529,6.14042601" id="Fill-20" fill="#EFF7F9" mask="url(#mask-7)"></path>
                                <path d="M11.3289887,15.4051979 C11.3537212,15.7006655 11.2733405,16.0049095 11.0754804,16.2623466 L6.44122483,22.3235294 C5.96512386,22.0663848 5.56631201,21.6916382 5.28188805,21.226496 L4.66666667,20.2172252 L8.8557369,14.7408344 C9.05359705,14.4807644 9.33183787,14.3140153 9.63481122,14.2435126 C10.0119821,14.1557499 10.4231602,14.2201092 10.7601408,14.4512176 L10.7694155,14.457361 C11.1094876,14.6884694 11.3011646,15.03952 11.3289887,15.4051979" id="Fill-21" fill="#EFF7F9" mask="url(#mask-7)"></path>
                                <path d="M15.6868496,9.81415017 L13.3782438,8.25189034 C13.0393405,8.02303525 12.566538,8.09385079 12.321518,8.41050563 L8.70962733,13.080013 C8.6609927,13.1427683 8.65298953,13.2253864 8.68900378,13.2950504 L9.03252432,13.9643436 L11.2450921,15.4609695 L12.0321727,15.5571175 C12.1146669,15.566905 12.1959298,15.534088 12.2442567,15.4713328 L15.8564551,10.8024011 C16.1011674,10.4854584 16.0254451,10.0432931 15.6868496,9.81415017" id="Fill-22" fill="#EFF7F9" mask="url(#mask-7)"></path>
                                <path d="M20.632342,12.8207972 L20.2190336,12.6350723 C20.0331438,12.5513814 19.949239,12.3304031 20.0317312,12.1418121 L20.214796,11.7224979 C20.2972882,11.5336203 20.5148189,11.4484963 20.7009913,11.5321872 L21.1142997,11.7179121 C21.3001896,11.801603 21.3840943,12.0225813 21.3016021,12.2111723 L21.1185373,12.6304865 C21.0360451,12.8190775 20.8182319,12.9044881 20.632342,12.8207972" id="Fill-23" fill="#F4CF1F" mask="url(#mask-7)"></path>
                                <path d="M18.632342,4.70315016 L18.2190336,4.51742523 C18.0331438,4.43373436 17.949239,4.21275609 18.0317312,4.02416503 L18.214796,3.60485088 C18.2972882,3.41597321 18.5148189,3.33084929 18.7009913,3.41454015 L19.1142997,3.60026508 C19.3001896,3.68395594 19.3840943,3.90493422 19.3016021,4.09352527 L19.1185373,4.51283943 C19.0360451,4.70143048 18.8185144,4.78684102 18.632342,4.70315016" id="Fill-24" fill="#F4CF1F" mask="url(#mask-7)"></path>
                                <path d="M21.0932533,10.1147436 L20.2201029,9.72196099 C20.0335056,9.63793717 19.9489981,9.41607976 20.0318041,9.22673842 L20.4191778,8.34074754 C20.5019838,8.1514062 20.7203423,8.06594362 20.9069396,8.14996744 L21.78009,8.54275001 C21.9669708,8.62648608 22.0509112,8.84834349 21.9681051,9.03797258 L21.5812987,9.9236757 C21.4984926,10.1133048 21.2798505,10.1987674 21.0932533,10.1147436" id="Fill-25" fill="#F4CF1F" mask="url(#mask-7)"></path>
                            </g>
                            <g id="编组-24" transform="translate(6.045559, 221.299277)"></g>
                            <line x1="45.8095337" y1="34.0845041" x2="553.413831" y2="34.0845041" id="路径-12" stroke="#F3F3F3"></line>
                        </g>
                        <g id="编组-5" transform="translate(154.443754, 234.352490)"></g>
                    </g>
                    <g id="编组-8备份-4" transform="translate(277.443754, 285.000000)">
                        <g id="矩形">
                            <use fill="black" fill-opacity="1" filter="url(#filter-9)" xlink:href="#path-8"></use>
                            <use fill="#FFFFFF" fill-rule="evenodd" xlink:href="#path-8"></use>
                        </g>
                        <g id="bar-chart-box-line-(2)" transform="translate(12.000000, 10.000000)">
                            <polygon id="路径" points="0 0 18 0 18 18 0 18"></polygon>
                            <path d="M2.25,2.25 L15.75,2.25 C16.1642136,2.25 16.5,2.58578644 16.5,3 L16.5,15 C16.5,15.4142136 16.1642136,15.75 15.75,15.75 L2.25,15.75 C1.83578644,15.75 1.5,15.4142136 1.5,15 L1.5,3 C1.5,2.58578644 1.83578644,2.25 2.25,2.25 Z M3,3.75 L3,14.25 L15,14.25 L15,3.75 L3,3.75 Z M5.25,9.75 L6.75,9.75 L6.75,12.75 L5.25,12.75 L5.25,9.75 Z M8.25,5.25 L9.75,5.25 L9.75,12.75 L8.25,12.75 L8.25,5.25 Z M11.25,7.5 L12.75,7.5 L12.75,12.75 L11.25,12.75 L11.25,7.5 Z" id="形状" fill="#4CAAB4" fill-rule="nonzero"></path>
                        </g>
                        <text id="Min-Max标准化" font-family="SourceHanSansSC-Regular, Source Han Sans SC" font-size="14" font-weight="normal" fill="#646464">
                            <tspan x="36" y="24">Min-Max标准化</tspan>
                        </text>
                    </g>
                    <g id="编组-8备份-4" transform="translate(276.443754, 210.000000)">
                        <g id="矩形">
                            <use fill="black" fill-opacity="1" filter="url(#filter-11)" xlink:href="#path-10"></use>
                            <use fill="#FFFFFF" fill-rule="evenodd" xlink:href="#path-10"></use>
                        </g>
                        <text id="熵权法" font-family="SourceHanSansSC-Regular, Source Han Sans SC" font-size="14" font-weight="normal" fill="#646464">
                            <tspan x="38" y="23">熵权法</tspan>
                        </text>
                        <g id="increase-decrease-line" transform="translate(12.000000, 9.000000)">
                            <polygon id="路径" points="0 0 18 0 18 18 0 18"></polygon>
                            <path d="M2.25,2.25 L15.75,2.25 C16.1642136,2.25 16.5,2.58578644 16.5,3 L16.5,15 C16.5,15.4142136 16.1642136,15.75 15.75,15.75 L2.25,15.75 C1.83578644,15.75 1.5,15.4142136 1.5,15 L1.5,3 C1.5,2.58578644 1.83578644,2.25 2.25,2.25 Z M3,3.75 L3,14.25 L15,14.25 L15,3.75 L3,3.75 Z M6.75,8.25 L8.25,8.25 L8.25,9.75 L6.75,9.75 L6.75,11.25 L5.25,11.25 L5.25,9.75 L3.75,9.75 L3.75,8.25 L5.25,8.25 L5.25,6.75 L6.75,6.75 L6.75,8.25 Z M9.75,8.25 L14.25,8.25 L14.25,9.75 L9.75,9.75 L9.75,8.25 Z" id="形状" fill="#4CAAB4" fill-rule="nonzero"></path>
                        </g>
                    </g>
                    <g id="编组-8备份-4" transform="translate(277.443754, 136.000000)">
                        <g id="矩形">
                            <use fill="black" fill-opacity="1" filter="url(#filter-13)" xlink:href="#path-12"></use>
                            <use fill="#FFFFFF" fill-rule="evenodd" xlink:href="#path-12"></use>
                        </g>
                        <g id="filter-2-line" transform="translate(12.000000, 9.000000)">
                            <polygon id="路径" points="0 0 18 0 18 18 0 18"></polygon>
                            <path d="M10.5,10.5 L10.5,15 L7.5,16.5 L7.5,10.5 L3,3.75 L3,2.25 L15,2.25 L15,3.75 L10.5,10.5 Z M4.803,3.75 L9,10.0455 L13.197,3.75 L4.803,3.75 Z" id="形状" fill="#4CAAB4" fill-rule="nonzero"></path>
                        </g>
                        <text id="数据筛选" font-family="SourceHanSansSC-Regular, Source Han Sans SC" font-size="14" font-weight="normal" fill="#646464">
                            <tspan x="37" y="24">数据筛选</tspan>
                        </text>
                    </g>
                    <g id="编组-8备份-4" transform="translate(277.443754, 61.000000)">
                        <g id="矩形">
                            <use fill="black" fill-opacity="1" filter="url(#filter-15)" xlink:href="#path-14"></use>
                            <use fill="#FFFFFF" fill-rule="evenodd" xlink:href="#path-14"></use>
                        </g>
                        <path d="M149.833333,100.666667 C146.611583,100.666667 144,98.0550833 144,94.8333333 C144,91.6115833 146.611583,89 149.833333,89 C153.055083,89 155.666667,91.6115833 155.666667,94.8333333 C155.666667,98.0550833 153.055083,100.666667 149.833333,100.666667 Z M149.833333,99.5 C152.410662,99.5 154.5,97.4106622 154.5,94.8333333 C154.5,92.2560045 152.410662,90.1666667 149.833333,90.1666667 C147.256005,90.1666667 145.166667,92.2560045 145.166667,94.8333333 C145.166667,97.4106622 147.256005,99.5 149.833333,99.5 Z M149.25175,97.1666667 L146.776667,94.6915833 L147.6015,93.86675 L149.25175,95.517 L152.551083,92.2170833 L153.3765,93.0419167 L149.25175,97.1666667 Z" id="形状" fill="#52C5A8" fill-rule="nonzero"></path>
                        <path d="M149.833333,24.6666667 C146.611583,24.6666667 144,22.0550833 144,18.8333333 C144,15.6115833 146.611583,13 149.833333,13 C153.055083,13 155.666667,15.6115833 155.666667,18.8333333 C155.666667,22.0550833 153.055083,24.6666667 149.833333,24.6666667 Z M149.833333,23.5 C152.410662,23.5 154.5,21.4106622 154.5,18.8333333 C154.5,16.2560045 152.410662,14.1666667 149.833333,14.1666667 C147.256005,14.1666667 145.166667,16.2560045 145.166667,18.8333333 C145.166667,21.4106622 147.256005,23.5 149.833333,23.5 Z M149.25175,21.1666667 L146.776667,18.6915833 L147.6015,17.86675 L149.25175,19.517 L152.551083,16.2170833 L153.3765,17.0419167 L149.25175,21.1666667 Z" id="形状备份-6" fill="#52C5A8" fill-rule="nonzero"></path>
                        <path d="M149.833333,173.666667 C146.611583,173.666667 144,171.055083 144,167.833333 C144,164.611583 146.611583,162 149.833333,162 C153.055083,162 155.666667,164.611583 155.666667,167.833333 C155.666667,171.055083 153.055083,173.666667 149.833333,173.666667 Z M149.833333,172.5 C152.410662,172.5 154.5,170.410662 154.5,167.833333 C154.5,165.256005 152.410662,163.166667 149.833333,163.166667 C147.256005,163.166667 145.166667,165.256005 145.166667,167.833333 C145.166667,170.410662 147.256005,172.5 149.833333,172.5 Z M149.25175,170.166667 L146.776667,167.691583 L147.6015,166.86675 L149.25175,168.517 L152.551083,165.217083 L153.3765,166.041917 L149.25175,170.166667 Z" id="形状备份-7" fill="#52C5A8" fill-rule="nonzero"></path>
                        <path d="M149.833333,247.666667 C146.611583,247.666667 144,245.055083 144,241.833333 C144,238.611583 146.611583,236 149.833333,236 C153.055083,236 155.666667,238.611583 155.666667,241.833333 C155.666667,245.055083 153.055083,247.666667 149.833333,247.666667 Z M149.833333,246.5 C152.410662,246.5 154.5,244.410662 154.5,241.833333 C154.5,239.256005 152.410662,237.166667 149.833333,237.166667 C147.256005,237.166667 145.166667,239.256005 145.166667,241.833333 C145.166667,244.410662 147.256005,246.5 149.833333,246.5 Z M149.25175,244.166667 L146.776667,241.691583 L147.6015,240.86675 L149.25175,242.517 L152.551083,239.217083 L153.3765,240.041917 L149.25175,244.166667 Z" id="形状备份-8" fill="#52C5A8" fill-rule="nonzero"></path>
                        <text id="数据读取" font-family="SourceHanSansSC-Regular, Source Han Sans SC" font-size="14" font-weight="normal" fill="#646464">
                            <tspan x="35" y="24">数据读取</tspan>
                        </text>
                        <g id="database-2-line-(3)" transform="translate(11.000000, 9.000000)">
                            <polygon id="路径" points="0 0 18 0 18 18 0 18"></polygon>
                            <path d="M3.75,9.375 C3.75,9.60975 4.09575,10.0185 4.8975,10.41975 C5.9355,10.93875 7.40775,11.25 9,11.25 C10.59225,11.25 12.0645,10.93875 13.1025,10.41975 C13.90425,10.0185 14.25,9.60975 14.25,9.375 L14.25,7.74675 C13.0125,8.51175 11.12025,9 9,9 C6.87975,9 4.9875,8.511 3.75,7.74675 L3.75,9.375 Z M14.25,11.49675 C13.0125,12.26175 11.12025,12.75 9,12.75 C6.87975,12.75 4.9875,12.261 3.75,11.49675 L3.75,13.125 C3.75,13.35975 4.09575,13.7685 4.8975,14.16975 C5.9355,14.68875 7.40775,15 9,15 C10.59225,15 12.0645,14.68875 13.1025,14.16975 C13.90425,13.7685 14.25,13.35975 14.25,13.125 L14.25,11.49675 Z M2.25,13.125 L2.25,5.625 C2.25,3.76125 5.2725,2.25 9,2.25 C12.7275,2.25 15.75,3.76125 15.75,5.625 L15.75,13.125 C15.75,14.98875 12.7275,16.5 9,16.5 C5.2725,16.5 2.25,14.98875 2.25,13.125 Z M9,7.5 C10.59225,7.5 12.0645,7.18875 13.1025,6.66975 C13.90425,6.2685 14.25,5.85975 14.25,5.625 C14.25,5.39025 13.90425,4.9815 13.1025,4.58025 C12.0645,4.06125 10.59225,3.75 9,3.75 C7.40775,3.75 5.9355,4.06125 4.8975,4.58025 C4.09575,4.9815 3.75,5.39025 3.75,5.625 C3.75,5.85975 4.09575,6.2685 4.8975,6.66975 C5.9355,7.18875 7.40775,7.5 9,7.5 Z" id="形状" fill="#4CAAB4" fill-rule="nonzero"></path>
                        </g>
                    </g>
                </g>
                <g id="编组-16" transform="translate(355.443754, 92.000000)">
                    <g id="编组-26">
                        <line x1="3.5" y1="3" x2="3.65097242" y2="43.5" id="路径-3" stroke="#D9D9D9"></line>
                        <polygon id="三角形备份" fill="#D9D9D9" transform="translate(4.000000, 42.000000) rotate(-180.000000) translate(-4.000000, -42.000000) " points="4 39 7 45 1 45"></polygon>
                        <circle id="椭圆形" stroke="#DADADA" fill="#FFFFFF" cx="4" cy="4" r="4"></circle>
                    </g>
                    <g id="编组-26备份" transform="translate(0.000000, 76.000000)">
                        <g id="编组-28">
                            <line x1="3.5" y1="3" x2="3.65097242" y2="43.5" id="路径-3" stroke="#D9D9D9"></line>
                            <polygon id="三角形备份" fill="#D9D9D9" transform="translate(4.000000, 42.000000) rotate(-180.000000) translate(-4.000000, -42.000000) " points="4 39 7 45 1 45"></polygon>
                            <circle id="椭圆形" stroke="#DADADA" fill="#FFFFFF" cx="4" cy="4" r="4"></circle>
                        </g>
                        <g id="编组-28备份" transform="translate(0.000000, 73.000000)">
                            <line x1="3.5" y1="3" x2="3.65097242" y2="43.5" id="路径-3" stroke="#D9D9D9"></line>
                            <polygon id="三角形备份" fill="#D9D9D9" transform="translate(4.000000, 42.000000) rotate(-180.000000) translate(-4.000000, -42.000000) " points="4 39 7 45 1 45"></polygon>
                            <circle id="椭圆形" stroke="#DADADA" fill="#FFFFFF" cx="4" cy="4" r="4"></circle>
                        </g>
                    </g>
                </g>
                <path d="M406.659964,14.5789474 L408.128175,16.1043609 L407.309543,16.9548872 L404.443754,13.9774436 L407.309543,11 L408.128175,11.8505263 L406.659964,13.3759398 L410.812175,13.3759398 C413.370125,13.3759398 415.443754,15.5303591 415.443754,18.1879699 C415.443754,20.8455808 413.370125,23 410.812175,23 L405.601649,23 L405.601649,21.7969925 L410.812175,21.7969925 C412.730638,21.7969925 414.285859,20.181178 414.285859,18.1879699 C414.285859,16.1947618 412.730638,14.5789474 410.812175,14.5789474 L406.659964,14.5789474 Z" id="路径" fill="#A09D9D" fill-rule="nonzero"></path>
                <path d="M437.227543,13.5789474 L433.075333,13.5789474 C431.15687,13.5789474 429.601649,15.1947618 429.601649,17.1879699 C429.601649,19.181178 431.15687,20.7969925 433.075333,20.7969925 L438.285859,20.7969925 L438.285859,22 L433.075333,22 C430.517382,22 428.443754,19.8455808 428.443754,17.1879699 C428.443754,14.5303591 430.517382,12.3759398 433.075333,12.3759398 L437.227543,12.3759398 L435.759333,10.8505263 L436.577964,10 L439.443754,12.9774436 L436.577964,15.9548872 L435.759333,15.1043609 L437.227543,13.5789474 Z" id="路径" fill="#A09D9D" fill-rule="nonzero"></path>
                <path d="M512.443739,14.6 L512.443739,22.3958 C512.444863,22.5549311 512.381567,22.7079882 512.267764,22.8212985 C512.15396,22.9346088 511.99897,22.99889 511.836892,23 L502.050586,23 C501.71568,23 501.444091,22.7336169 501.443754,22.4048 L501.443754,11.5952 C501.443754,11.273 501.718142,11 502.056086,11 L508.775234,11 L512.443739,14.6 Z M511.221505,15.2 L508.165958,15.2 L508.165958,12.2 L502.665973,12.2 L502.665973,21.8 L511.221505,21.8 L511.221505,15.2 Z M504.499301,14 L506.33263,14 L506.33263,15.2 L504.499301,15.2 L504.499301,14 Z M504.499301,16.4 L509.388177,16.4 L509.388177,17.6 L504.499301,17.6 L504.499301,16.4 Z M504.499301,18.8 L509.388177,18.8 L509.388177,20 L504.499301,20 L504.499301,18.8 Z" id="形状" fill="#A09D9D" fill-rule="nonzero"></path>
                <path d="M530.85414,12.2174042 C528.845102,12.0450687 526.942541,13.1467434 526.091917,14.9749624 C525.241293,16.8031815 525.623977,18.9681266 527.049799,20.3939508 C528.47562,21.8197749 530.640561,22.2024597 532.468777,21.3518339 C534.296993,20.501208 535.398666,18.5986445 535.22633,16.5896025 C535.184264,16.0854822 535.062133,15.5912858 534.864531,15.1256031 L535.764529,14.2244034 C536.212659,15.0808358 536.445758,16.0334139 536.443741,17.0000024 C536.443741,20.3138011 533.757534,23.0000024 530.443741,23.0000024 C527.129948,23.0000024 524.443754,20.3138011 524.443754,17.0000024 C524.443754,13.6862037 527.129948,11.0000024 530.443741,11.0000024 C531.410187,10.999146 532.362488,11.232178 533.219335,11.6792044 L532.318737,12.5792041 C531.853039,12.3816507 531.358851,12.2595214 530.85474,12.2174042 L530.85414,12.2174042 Z M535.53473,11.0600047 L536.383728,11.9090044 L530.86854,17.4242022 L530.021342,17.4260022 L530.020142,16.5758025 L535.53473,11.0600047 Z" id="形状" fill="#A09D9D" fill-rule="nonzero" transform="translate(530.443754, 17.000000) rotate(-45.000000) translate(-530.443754, -17.000000) "></path>
                <path d="M478.888198,20.7777778 L478.888198,17.1111111 L484.99931,17.1111111 L484.99931,20.7777778 L486.221532,20.7777778 L486.221532,13.9504444 L484.49331,12.2222222 L477.665976,12.2222222 L477.665976,20.7777778 L478.888198,20.7777778 Z M477.054865,11 L484.99931,11 L487.443754,13.4444444 L487.443754,21.3888889 C487.443754,21.7263962 487.17015,22 486.832643,22 L477.054865,22 C476.717358,22 476.443754,21.7263962 476.443754,21.3888889 L476.443754,11.6111111 C476.443754,11.2736038 476.717358,11 477.054865,11 Z M480.110421,18.3333333 L480.110421,20.7777778 L483.777087,20.7777778 L483.777087,18.3333333 L480.110421,18.3333333 Z" id="形状" fill="#A09D9D" fill-rule="nonzero"></path>
                <path d="M457.443754,23 C454.129954,23 451.443754,20.3138 451.443754,17 C451.443754,13.6862 454.129954,11 457.443754,11 C460.757554,11 463.443754,13.6862 463.443754,17 C463.443754,20.3138 460.757554,23 457.443754,23 Z M457.443754,21.8 C460.094721,21.8 462.243754,19.6509668 462.243754,17 C462.243754,14.3490332 460.094721,12.2 457.443754,12.2 C454.792787,12.2 452.643754,14.3490332 452.643754,17 C452.643754,19.6509668 454.792787,21.8 457.443754,21.8 Z M456.616954,14.849 L459.544354,16.8002 C459.611215,16.8446958 459.651388,16.9196863 459.651388,17 C459.651388,17.0803137 459.611215,17.1553042 459.544354,17.1998 L456.616354,19.151 C456.5428,19.1997567 456.448422,19.204215 456.370599,19.1626093 C456.292776,19.1210035 456.244064,19.0400459 456.243754,18.9518 L456.243754,15.0482 C456.243918,14.9597533 456.292714,14.8785649 456.370742,14.8369168 C456.448769,14.7952687 456.54338,14.7999118 456.616954,14.849 Z" id="形状" fill="#A09D9D" fill-rule="nonzero"></path>
            </g>
        </g>
    </g>
</svg>