<?xml version="1.0" encoding="UTF-8"?>
<svg width="636px" height="465px" viewBox="0 0 636 465" version="1.1" xmlns="http://www.w3.org/2000/svg" xmlns:xlink="http://www.w3.org/1999/xlink">
    <title>编组 57</title>
    <defs>
        <rect id="path-1" x="0" y="106" width="279.934066" height="203.518382" rx="8.269696"></rect>
        <filter x="-16.6%" y="-18.4%" width="133.2%" height="145.7%" filterUnits="objectBoundingBox" id="filter-2">
            <feOffset dx="0" dy="9" in="SourceAlpha" result="shadowOffsetOuter1"></feOffset>
            <feGaussianBlur stdDeviation="14" in="shadowOffsetOuter1" result="shadowBlurOuter1"></feGaussianBlur>
            <feColorMatrix values="0 0 0 0 0.888327778   0 0 0 0 0.888327778   0 0 0 0 0.888327778  0 0 0 0.5 0" type="matrix" in="shadowBlurOuter1"></feColorMatrix>
        </filter>
        <rect id="path-3" x="299" y="0" width="279.934066" height="203.518382" rx="8.269696"></rect>
        <filter x="-16.6%" y="-18.4%" width="133.2%" height="145.7%" filterUnits="objectBoundingBox" id="filter-4">
            <feOffset dx="0" dy="9" in="SourceAlpha" result="shadowOffsetOuter1"></feOffset>
            <feGaussianBlur stdDeviation="14" in="shadowOffsetOuter1" result="shadowBlurOuter1"></feGaussianBlur>
            <feColorMatrix values="0 0 0 0 0.888327778   0 0 0 0 0.888327778   0 0 0 0 0.888327778  0 0 0 0.5 0" type="matrix" in="shadowBlurOuter1"></feColorMatrix>
        </filter>
        <linearGradient x1="110.731823%" y1="96.7729752%" x2="0%" y2="-5.52440721%" id="linearGradient-5">
            <stop stop-color="#FFE671" offset="0%"></stop>
            <stop stop-color="#FF9312" offset="100%"></stop>
        </linearGradient>
        <rect id="path-6" x="271.230769" y="344.511029" width="51" height="51" rx="8"></rect>
        <filter x="-80.4%" y="-78.4%" width="260.8%" height="260.8%" filterUnits="objectBoundingBox" id="filter-7">
            <feOffset dx="0" dy="1" in="SourceAlpha" result="shadowOffsetOuter1"></feOffset>
            <feGaussianBlur stdDeviation="13.5" in="shadowOffsetOuter1" result="shadowBlurOuter1"></feGaussianBlur>
            <feColorMatrix values="0 0 0 0 0.946388576   0 0 0 0 0.914281555   0 0 0 0 0.832056771  0 0 0 0.420902706 0" type="matrix" in="shadowBlurOuter1"></feColorMatrix>
        </filter>
    </defs>
    <g id="数据要素所有版本" stroke="none" stroke-width="1" fill="none" fill-rule="evenodd">
        <g id="首页备份" transform="translate(-412.000000, -1432.000000)">
            <g id="编组" transform="translate(440.769231, 1451.488971)">
                <g id="编组-57" transform="translate(0.000000, -0.000000)">
                    <rect id="矩形" fill="#FFFFFF" x="208.230769" y="236.511029" width="72" height="17" rx="8"></rect>
                    <rect id="矩形" fill="#FFFFFF" x="54.956044" y="200.540441" width="35.1208791" height="35.125" rx="8.269696"></rect>
                    <g id="矩形">
                        <use fill="black" fill-opacity="1" filter="url(#filter-2)" xlink:href="#path-1"></use>
                        <use fill="#FFFFFF" fill-rule="evenodd" xlink:href="#path-1"></use>
                    </g>
                    <rect id="矩形" fill="#E5EFF2" opacity="0.36" x="38.2307692" y="151" width="46.8071238" height="45.689394" rx="6.48"></rect>
                    <path d="M63.3995115,184.970231 L57.6777947,184.970231 L57.6777947,174.184866 L63.3995115,174.184866 L63.3995115,184.970231 Z M66.2603699,184.970231 L66.2603699,174.184866 L70.5516575,174.184866 L70.5516575,183.989743 C70.5516575,184.531252 70.1674025,184.970231 69.6933999,184.970231 L66.2603699,184.970231 Z M56.2473655,184.970231 L52.8143354,184.970231 C52.3403329,184.970231 51.9560779,184.531252 51.9560779,183.989743 L51.9560779,174.184866 L56.2473655,174.184866 L56.2473655,184.970231 Z M70.5516575,171.103333 L51.9560779,171.103333 L51.9560779,167.405494 C51.9560779,166.894929 52.3723542,166.481034 52.8858569,166.481034 L69.6218785,166.481034 C70.1353812,166.481034 70.5516575,166.894929 70.5516575,167.405494 L70.5516575,171.103333 Z" id="形状" fill="#9FB1C8" fill-rule="nonzero"></path>
                    <rect id="矩形备份-9" fill="#E5EFF2" opacity="0.36" x="116.920866" y="151" width="46.8071238" height="45.689394" rx="6.48"></rect>
                    <path d="M144.047022,182.84871 L139.491864,174.710356 L143.090458,168.865284 L150.742971,182.84871 L144.047022,182.84871 Z M135.975893,173.060312 L142.30464,182.84871 L129.647145,182.84871 L135.975893,173.060312 Z M138.085475,171.661969 C136.532022,171.661969 135.272699,170.40985 135.272699,168.865284 C135.272699,167.320717 136.532022,166.068599 138.085475,166.068599 C139.638929,166.068599 140.898252,167.320717 140.898252,168.865284 C140.898252,170.40985 139.638929,171.661969 138.085475,171.661969 Z" id="形状" fill="#9FB1C8" fill-rule="nonzero"></path>
                    <rect id="矩形备份-10" fill="#E5EFF2" opacity="0.36" x="193.423645" y="151.394633" width="46.8071238" height="45.689394" rx="6.48"></rect>
                    <path d="M225.929037,171.296199 L225.929037,182.515235 C225.930766,182.763337 225.833319,183.00197 225.658109,183.178633 C225.4829,183.355296 225.244282,183.455518 224.994752,183.457248 L209.928016,183.457248 C209.412404,183.457248 208.994273,183.041928 208.993754,182.529267 L208.993754,165.675923 C208.993754,165.173578 209.414313,164.747942 209.93272,164.747942 L219.343079,164.747942 L219.343079,170.360734 C219.343079,170.877377 219.764311,171.296199 220.283927,171.296199 L225.929037,171.296199 Z M225.929014,169.425268 L221.224775,169.425268 L221.224775,164.750748 L225.929014,169.425268 Z M213.697993,169.425268 L213.697993,171.296199 L216.520536,171.296199 L216.520536,169.425268 L213.697993,169.425268 Z M213.697993,173.16713 L213.697993,175.03806 L221.224775,175.03806 L221.224775,173.16713 L213.697993,173.16713 Z M213.697993,176.908991 L213.697993,178.779922 L221.224775,178.779922 L221.224775,176.908991 L213.697993,176.908991 Z" id="形状" fill="#9FB1C8" fill-rule="nonzero"></path>
                    <rect id="矩形备份-13" fill="#E5EFF2" opacity="0.36" x="80.8884997" y="223.310606" width="46.8071238" height="45.689394" rx="6.48"></rect>
                    <path d="M101.424486,250.553293 L97.4743326,250.553293 C96.9133634,250.553293 96.458608,250.101139 96.458608,249.543379 L96.458608,243.483895 C96.458608,242.926135 96.9133634,242.473982 97.4743326,242.473982 L101.424486,242.473982 L106.801732,238.099035 C106.953603,237.975239 107.163646,237.949597 107.341126,238.033186 C107.518606,238.116774 107.63171,238.29461 107.631579,238.489871 L107.631579,254.537403 C107.63171,254.732664 107.518606,254.9105 107.341126,254.994088 C107.163646,255.077677 106.953603,255.052035 106.801732,254.928239 L101.425502,250.553293 L101.424486,250.553293 Z M111.555324,251.150152 L110.110963,249.714054 C111.1104,248.949943 111.695618,247.767169 111.694478,246.513637 C111.694478,245.06946 110.932685,243.802018 109.784916,243.088009 L111.246544,241.634743 C112.806894,242.775985 113.727567,244.587671 113.72593,246.513637 C113.72593,248.373898 112.882876,250.038236 111.555324,251.150152 L111.555324,251.150152 Z" id="形状" fill="#9FB1C8" fill-rule="nonzero"></path>
                    <polygon id="路径备份-7" stroke="#E6E6E6" stroke-width="1.32545455" opacity="0" points="89.8173296 231.381287 119.038955 231.381287 119.038955 260.43574 89.8173296 260.43574"></polygon>
                    <rect id="矩形备份-12" fill="#E5EFF2" opacity="0.36" x="160.578597" y="223.310606" width="46.8071238" height="45.689394" rx="6.48"></rect>
                    <path d="M179.011926,252.952017 L176.145904,252.952017 C175.413876,252.952017 174.820449,252.358591 174.820449,251.626563 L174.820449,238.920037 L174.820449,238.920037 C174.820449,238.403394 175.241681,237.984572 175.761297,237.984572 L192.696557,237.984572 C193.216173,237.984572 193.637405,238.403394 193.637405,238.920037 L193.637405,252.016552 C193.637405,252.533195 193.216173,252.952017 192.696557,252.952017 L179.011926,252.952017 Z M186.110623,244.766696 L186.110623,242.661899 L179.524688,242.661899 L179.524688,248.274691 L186.110623,248.274691 L186.110623,246.169894 L188.933166,248.274691 L188.933166,242.661899 L186.110623,244.766696 Z" id="形状" fill="#9FB1C8" fill-rule="nonzero"></path>
                    <polygon id="路径" stroke="#E6E6E6" stroke-width="1.32545455" opacity="0" points="139.507427 231.381287 168.729052 231.381287 168.729052 260.43574 139.507427 260.43574"></polygon>
                    <text id="数据资源(X)" font-family="PingFangSC-Medium, PingFang SC" font-size="13.92" font-weight="400" letter-spacing="-0.596571445" fill="#646464">
                        <tspan x="16.2307692" y="132.511029">数据资源(X)</tspan>
                    </text>
                    <text id="音频" font-family="PingFangSC-Regular, PingFang SC" font-size="13.92" font-weight="normal" letter-spacing="-0.596571445" fill="#8C8C8C">
                        <tspan x="89.2307692" y="289.511029">音频</tspan>
                    </text>
                    <text id="视频" font-family="PingFangSC-Regular, PingFang SC" font-size="13.92" font-weight="normal" letter-spacing="-0.596571445" fill="#8C8C8C">
                        <tspan x="170.230769" y="289.511029">视频</tspan>
                    </text>
                    <g id="矩形">
                        <use fill="black" fill-opacity="1" filter="url(#filter-4)" xlink:href="#path-3"></use>
                        <use fill="#FFFFFF" fill-rule="evenodd" xlink:href="#path-3"></use>
                    </g>
                    <rect id="矩形" fill-opacity="0.153096659" fill="#00ACB6" opacity="0.251579648" x="337.230769" y="45" width="46.8071238" height="45.689394" rx="6.48"></rect>
                    <path d="M362.399511,78.9702312 L356.677795,78.9702312 L356.677795,68.1848662 L362.399511,68.1848662 L362.399511,78.9702312 Z M365.26037,78.9702312 L365.26037,68.1848662 L369.551657,68.1848662 L369.551657,77.9897435 C369.551657,78.5312519 369.167402,78.9702312 368.6934,78.9702312 L365.26037,78.9702312 Z M355.247366,78.9702312 L351.814335,78.9702312 C351.340333,78.9702312 350.956078,78.5312519 350.956078,77.9897435 L350.956078,68.1848662 L355.247366,68.1848662 L355.247366,78.9702312 Z M369.551657,65.1033334 L350.956078,65.1033334 L350.956078,61.405494 C350.956078,60.8949289 351.372354,60.4810341 351.885857,60.4810341 L368.621878,60.4810341 C369.135381,60.4810341 369.551657,60.8949289 369.551657,61.405494 L369.551657,65.1033334 Z" id="形状" fill="#8AC0C3" fill-rule="nonzero"></path>
                    <rect id="矩形备份-9" fill-opacity="0.153096659" fill="#00ACB6" opacity="0.251579648" x="415.920866" y="45" width="46.8071238" height="45.689394" rx="6.48"></rect>
                    <path d="M443.047022,76.8487102 L438.491864,68.7103561 L442.090458,62.8652838 L449.742971,76.8487102 L443.047022,76.8487102 Z M434.975893,67.0603117 L441.30464,76.8487102 L428.647145,76.8487102 L434.975893,67.0603117 Z M437.085475,65.6619691 C435.532022,65.6619691 434.272699,64.4098505 434.272699,62.8652838 C434.272699,61.3207172 435.532022,60.0685985 437.085475,60.0685985 C438.638929,60.0685985 439.898252,61.3207172 439.898252,62.8652838 C439.898252,64.4098505 438.638929,65.6619691 437.085475,65.6619691 Z" id="形状" fill="#8AC0C3" fill-rule="nonzero"></path>
                    <rect id="矩形备份-10" fill-opacity="0.153096659" fill="#00ACB6" opacity="0.251579648" x="492.423645" y="45.3946326" width="46.8071238" height="45.689394" rx="6.48"></rect>
                    <path d="M524.929037,65.2961989 L524.929037,76.5152346 C524.930766,76.7633373 524.833319,77.00197 524.658109,77.1786331 C524.4829,77.3552963 524.244282,77.4555176 523.994752,77.4572482 L508.928016,77.4572482 C508.412404,77.4572482 507.994273,77.041928 507.993754,76.5292666 L507.993754,59.6759232 C507.993754,59.1735783 508.414313,58.7479416 508.93272,58.7479416 L518.343079,58.7479416 L518.343079,64.3607336 C518.343079,64.8773768 518.764311,65.2961989 519.283927,65.2961989 L524.929037,65.2961989 Z M524.929014,63.4252683 L520.224775,63.4252683 L520.224775,58.750748 L524.929014,63.4252683 Z M512.697993,63.4252683 L512.697993,65.2961989 L515.520536,65.2961989 L515.520536,63.4252683 L512.697993,63.4252683 Z M512.697993,67.1671296 L512.697993,69.0380602 L520.224775,69.0380602 L520.224775,67.1671296 L512.697993,67.1671296 Z M512.697993,70.9089909 L512.697993,72.7799216 L520.224775,72.7799216 L520.224775,70.9089909 L512.697993,70.9089909 Z" id="形状" fill="#8AC0C3" fill-rule="nonzero"></path>
                    <rect id="矩形备份-13" fill-opacity="0.153096659" fill="#00ACB6" opacity="0.251579648" x="339.8885" y="117.310606" width="46.8071238" height="45.689394" rx="6.48"></rect>
                    <path d="M360.424486,144.553293 L356.474333,144.553293 C355.913363,144.553293 355.458608,144.101139 355.458608,143.543379 L355.458608,137.483895 C355.458608,136.926135 355.913363,136.473982 356.474333,136.473982 L360.424486,136.473982 L365.801732,132.099035 C365.953603,131.975239 366.163646,131.949597 366.341126,132.033186 C366.518606,132.116774 366.63171,132.29461 366.631579,132.489871 L366.631579,148.537403 C366.63171,148.732664 366.518606,148.9105 366.341126,148.994088 C366.163646,149.077677 365.953603,149.052035 365.801732,148.928239 L360.425502,144.553293 L360.424486,144.553293 Z M370.555324,145.150152 L369.110963,143.714054 C370.1104,142.949943 370.695618,141.767169 370.694478,140.513637 C370.694478,139.06946 369.932685,137.802018 368.784916,137.088009 L370.246544,135.634743 C371.806894,136.775985 372.727567,138.587671 372.72593,140.513637 C372.72593,142.373898 371.882876,144.038236 370.555324,145.150152 L370.555324,145.150152 Z" id="形状" fill="#8AC0C3" fill-rule="nonzero"></path>
                    <polygon id="路径备份-7" stroke="#E6E6E6" stroke-width="1.32545455" opacity="0" points="348.81733 125.381287 378.038955 125.381287 378.038955 154.43574 348.81733 154.43574"></polygon>
                    <rect id="矩形备份-12" fill-opacity="0.153096659" fill="#00ACB6" opacity="0.251579648" x="419.578597" y="117.310606" width="46.8071238" height="45.689394" rx="6.48"></rect>
                    <path d="M438.011926,146.952017 L435.145904,146.952017 C434.413876,146.952017 433.820449,146.358591 433.820449,145.626563 L433.820449,132.920037 L433.820449,132.920037 C433.820449,132.403394 434.241681,131.984572 434.761297,131.984572 L451.696557,131.984572 C452.216173,131.984572 452.637405,132.403394 452.637405,132.920037 L452.637405,146.016552 C452.637405,146.533195 452.216173,146.952017 451.696557,146.952017 L438.011926,146.952017 Z M445.110623,138.766696 L445.110623,136.661899 L438.524688,136.661899 L438.524688,142.274691 L445.110623,142.274691 L445.110623,140.169894 L447.933166,142.274691 L447.933166,136.661899 L445.110623,138.766696 Z" id="形状" fill="#8AC0C3" fill-rule="nonzero"></path>
                    <rect id="矩形备份-60" fill-opacity="0.153096659" fill="#00ACB6" opacity="0.251579648" x="491.578597" y="117.310606" width="46.8071238" height="45.689394" rx="6.48"></rect>
                    <path d="M507.245019,148.511029 L502.556224,148.511029 C501.824195,148.511029 501.230769,147.917603 501.230769,147.185575 L501.230769,131.636029 L501.230769,131.636029 C501.230769,131.014709 501.835185,130.511029 502.580769,130.511029 L526.880769,130.511029 C527.626354,130.511029 528.230769,131.014709 528.230769,131.636029 L528.230769,147.386029 C528.230769,148.00735 527.626354,148.511029 526.880769,148.511029 L507.245019,148.511029 Z" id="形状备份" fill="#8AC0C3" fill-rule="nonzero"></path>
                    <path d="M506.950769,138.372 L506.950769,142.764 L511.546769,142.764 L511.546769,138.372 L506.950769,138.372 Z M510.442769,141.696 L508.054769,141.696 L508.054769,139.44 L510.442769,139.44 L510.442769,141.696 Z M508.342769,134.112 C508.198769,134.7 508.006769,135.264 507.754769,135.816 L504.430769,135.816 L504.430769,145.212 L505.570769,145.212 L505.570769,136.908 L512.986769,136.908 L512.986769,143.556 C512.986769,143.892 512.830769,144.06 512.518769,144.06 L510.814769,144.012 L511.126769,145.164 L512.902769,145.164 C513.718769,145.164 514.126769,144.708 514.126769,143.808 L514.126769,135.816 L508.966769,135.816 C509.206769,135.336 509.386769,134.82 509.530769,134.268 L508.342769,134.112 Z" id="形状" fill="#FFFFFF" fill-rule="nonzero"></path>
                    <path d="M516.456484,139.2 L516.456484,142.32 L520.140484,142.32 L520.140484,142.848 L516.216484,142.848 L516.216484,143.58 L520.140484,143.58 L520.140484,144.144 L515.316484,144.144 L515.316484,145.008 L526.116484,145.008 L526.116484,144.144 L521.268484,144.144 L521.268484,143.58 L525.240484,143.58 L525.240484,142.848 L521.268484,142.848 L521.268484,142.32 L525.000484,142.32 L525.000484,139.2 L516.456484,139.2 Z M523.920484,141.648 L521.268484,141.648 L521.268484,141.072 L523.920484,141.072 L523.920484,141.648 Z M520.140484,141.648 L517.536484,141.648 L517.536484,141.072 L520.140484,141.072 L520.140484,141.648 Z M517.536484,140.448 L517.536484,139.872 L520.140484,139.872 L520.140484,140.448 L517.536484,140.448 Z M521.268484,139.872 L523.920484,139.872 L523.920484,140.448 L521.268484,140.448 L521.268484,139.872 Z M516.720484,134.34 L516.720484,137.388 L524.748484,137.388 L524.748484,134.34 L516.720484,134.34 Z M523.656484,136.74 L517.812484,136.74 L517.812484,136.188 L523.656484,136.188 L523.656484,136.74 Z M517.812484,135.54 L517.812484,135 L523.656484,135 L523.656484,135.54 L517.812484,135.54 Z M515.316484,137.892 L515.316484,138.708 L526.116484,138.708 L526.116484,137.892 L515.316484,137.892 Z" id="形状" fill="#FFFFFF" fill-rule="nonzero"></path>
                    <text id="数据要素(y)" font-family="PingFangSC-Medium, PingFang SC" font-size="13.92" font-weight="400" letter-spacing="-0.596571445" fill="#646464">
                        <tspan x="318.230769" y="29.5110294">数据要素(y)</tspan>
                    </text>
                    <text id="音频" font-family="PingFangSC-Regular, PingFang SC" font-size="13.92" font-weight="normal" letter-spacing="-0.596571445" fill="#8C8C8C">
                        <tspan x="348.230769" y="183.511029">音频</tspan>
                    </text>
                    <text id="视频" font-family="PingFangSC-Regular, PingFang SC" font-size="13.92" font-weight="normal" letter-spacing="-0.596571445" fill="#8C8C8C">
                        <tspan x="429.230769" y="183.511029">视频</tspan>
                    </text>
                    <text id="向量" font-family="PingFangSC-Regular, PingFang SC" font-size="13.92" font-weight="normal" letter-spacing="-0.596571445" fill="#8C8C8C">
                        <tspan x="501.230769" y="183.511029">向量</tspan>
                    </text>
                    <polygon id="路径备份-10" stroke="#E6E6E6" stroke-width="1.63636364" opacity="0" points="125 161 161 161 161 197 125 197"></polygon>
                    <polygon id="路径备份-11" stroke="#E6E6E6" stroke-width="1.63636364" opacity="0" points="50.2307692 161.511029 86.2307692 161.511029 86.2307692 197.511029 50.2307692 197.511029"></polygon>
                    <path d="M152.351582,305.801245 L152.351582,356.412145 C152.351582,364.696417 159.067311,371.412145 167.351582,371.412145 L430.351582,371.412145 C438.635853,371.412145 445.351582,364.696417 445.351582,356.412145 L445.351582,203.518382 L445.351582,203.518382" id="路径-6" stroke="#DAD6D6" stroke-width="2" stroke-dasharray="2"></path>
                    <path d="M445.230769,211.511029 C439.707769,211.511029 435.230769,207.034029 435.230769,201.511029 C435.230769,195.988029 439.707769,191.511029 445.230769,191.511029 C450.753769,191.511029 455.230769,195.988029 455.230769,201.511029 C455.230769,207.034029 450.753769,211.511029 445.230769,211.511029 Z M444.233769,205.511029 L451.303769,198.440029 L449.889769,197.026029 L444.233769,202.683029 L441.404769,199.854029 L439.990769,201.268029 L444.233769,205.511029 Z" id="形状" fill="#F4CC48" fill-rule="nonzero"></path>
                    <polyline id="路径-9" stroke="#FFFFFF" stroke-width="3" points="439.712895 199.302913 443.934066 203.511029 450.303769 197.440029"></polyline>
                    <polygon id="路径" points="140.230769 289.511029 164.230769 289.511029 164.230769 313.511029 140.230769 313.511029"></polygon>
                    <path d="M152.230769,311.511029 C146.707769,311.511029 142.230769,307.034029 142.230769,301.511029 C142.230769,295.988029 146.707769,291.511029 152.230769,291.511029 C157.753769,291.511029 162.230769,295.988029 162.230769,301.511029 C162.230769,307.034029 157.753769,311.511029 152.230769,311.511029 Z M151.233769,305.511029 L158.303769,298.440029 L156.889769,297.026029 L151.233769,302.683029 L148.404769,299.854029 L146.990769,301.268029 L151.233769,305.511029 Z" id="形状" fill="#2FCEA5" fill-rule="nonzero"></path>
                    <polyline id="路径-9备份" stroke="#FFFFFF" stroke-width="3" points="146.712895 299.302913 150.934066 303.511029 157.303769 297.440029"></polyline>
                    <g id="矩形" fill-rule="nonzero" transform="translate(296.730769, 370.011029) rotate(-315.000000) translate(-296.730769, -370.011029) ">
                        <use fill="black" fill-opacity="1" filter="url(#filter-7)" xlink:href="#path-6"></use>
                        <use fill="url(#linearGradient-5)" xlink:href="#path-6"></use>
                    </g>
                    <path d="M275.893072,358.530965 C289.45708,366.083176 302.32919,375.057812 314.509403,385.454873 C315.271707,386.105459 316.369398,385.171127 315.78759,384.366666 L308.658037,374.505091 C303.300151,368.185731 296.31461,363.325726 288.397152,360.409477 L276.572168,357.024831 C275.598007,356.746009 275.012999,358.041025 275.893072,358.530965" id="Fill-20" fill="#FFFFFF"></path>
                    <path d="M292.804652,378.175649 C292.8583,378.802148 292.683945,379.447256 292.254763,379.993116 L282.202528,392.845027 C281.169811,392.299787 280.304742,391.505188 279.687793,390.518918 L278.353307,388.378897 L287.439884,376.766957 C287.869065,376.215514 288.472601,375.861946 289.129786,375.712454 C289.947913,375.526366 290.839805,375.662831 291.570755,376.152864 L291.590873,376.165891 C292.328529,376.655924 292.744298,377.400279 292.804652,378.175649" id="Fill-21" fill="#FFFFFF"></path>
                    <path d="M297.249722,363.008037 C296.514602,362.522781 295.489039,362.672936 294.957562,363.344359 L287.122955,373.245412 C287.017461,373.378476 287.000101,373.553657 287.07822,373.70137 L287.823356,375.120515 L292.62267,378.293906 L294.329939,378.497774 C294.508878,378.518527 294.685147,378.448943 294.789974,378.315879 L302.625249,368.416047 C303.156058,367.744013 302.991807,366.806462 302.257354,366.320596 L297.249722,363.008037 Z" id="Fill-22" fill="#FFFFFF"></path>
                    <path d="M312.984698,372.69578 L312.088184,372.301976 C311.684968,372.124521 311.502969,371.655967 311.681904,371.256085 L312.078992,370.366987 C312.257927,369.966497 312.729777,369.786004 313.133606,369.963459 L314.030119,370.357263 C314.433336,370.534718 314.615335,371.003272 314.4364,371.403154 L314.039311,372.292253 C313.860376,372.692134 313.387914,372.873236 312.984698,372.69578" id="Fill-23" fill="#FFFFFF"></path>
                    <path d="M308.646467,355.483418 L307.749954,355.089613 C307.346737,354.912158 307.164738,354.443604 307.343673,354.043722 L307.740762,353.154624 C307.919697,352.754134 308.391546,352.573641 308.795375,352.751096 L309.691889,353.1449 C310.095106,353.322355 310.277104,353.79091 310.098169,354.190791 L309.701081,355.07989 C309.522146,355.479771 309.050297,355.660873 308.646467,355.483418" id="Fill-24" fill="#FFFFFF"></path>
                    <path d="M313.984467,366.957963 L312.090504,366.125121 C311.685753,365.94696 311.502446,365.476542 311.682062,365.075069 L312.52232,363.196446 C312.701936,362.794974 313.175581,362.613762 313.580332,362.791923 L315.474295,363.624765 C315.879661,363.802316 316.061738,364.272734 315.882122,364.674817 L315.043094,366.55283 C314.863478,366.954912 314.389218,367.136124 313.984467,366.957963" id="Fill-25" fill="#FFFFFF"></path>
                    <polygon id="三角形备份-3" fill="#D9D9D9" transform="translate(201.230769, 371.511029) rotate(-270.000000) translate(-201.230769, -371.511029) " points="201.230769 367.511029 205.230769 375.511029 197.230769 375.511029"></polygon>
                    <polygon id="三角形备份-5" fill="#D9D9D9" transform="translate(445.230769, 258.511029) rotate(-360.000000) translate(-445.230769, -258.511029) " points="445.230769 254.511029 449.230769 262.511029 441.230769 262.511029"></polygon>
                    <text id="表格" font-family="PingFangSC-Regular, PingFang SC" font-size="13.92" font-weight="normal" letter-spacing="-0.596571445" fill="#8C8C8C">
                        <tspan x="48.2307692" y="213.511029">表格</tspan>
                    </text>
                    <text id="图片" font-family="PingFangSC-Regular, PingFang SC" font-size="13.92" font-weight="normal" letter-spacing="-0.596571445" fill="#8C8C8C">
                        <tspan x="127.230769" y="213.511029">图片</tspan>
                    </text>
                    <text id="文本" font-family="PingFangSC-Regular, PingFang SC" font-size="13.92" font-weight="normal" letter-spacing="-0.596571445" fill="#8C8C8C">
                        <tspan x="200.230769" y="213.511029">文本</tspan>
                    </text>
                    <text id="表格备份" font-family="PingFangSC-Regular, PingFang SC" font-size="13.92" font-weight="normal" letter-spacing="-0.596571445" fill="#8C8C8C">
                        <tspan x="349.230769" y="107.511029">表格</tspan>
                    </text>
                    <text id="图片备份" font-family="PingFangSC-Regular, PingFang SC" font-size="13.92" font-weight="normal" letter-spacing="-0.596571445" fill="#8C8C8C">
                        <tspan x="428.230769" y="107.511029">图片</tspan>
                    </text>
                    <text id="文本备份" font-family="PingFangSC-Regular, PingFang SC" font-size="13.92" font-weight="normal" letter-spacing="-0.596571445" fill="#8C8C8C">
                        <tspan x="501.230769" y="107.511029">文本</tspan>
                    </text>
                    <text id="要素加工" font-family="PingFangSC-Regular, PingFang SC" font-size="13.92" font-weight="normal" letter-spacing="-0.596571445" fill="#B7B7B7">
                        <tspan x="269.230769" y="423.511029">要素加工</tspan>
                    </text>
                </g>
            </g>
        </g>
    </g>
</svg>