<?xml version="1.0" encoding="UTF-8"?>
<svg width="770px" height="562px" viewBox="0 0 770 562" version="1.1" xmlns="http://www.w3.org/2000/svg" xmlns:xlink="http://www.w3.org/1999/xlink">
    <title>编组 61</title>
    <defs>
        <rect id="path-1" x="201" y="0" width="89.2149533" height="102" rx="8"></rect>
        <filter x="-0.6%" y="-0.5%" width="101.1%" height="102.0%" filterUnits="objectBoundingBox" id="filter-2">
            <feOffset dx="0" dy="1" in="SourceAlpha" result="shadowOffsetOuter1"></feOffset>
            <feColorMatrix values="0 0 0 0 1   0 0 0 0 1   0 0 0 0 1  0 0 0 0.5 0" type="matrix" in="shadowOffsetOuter1"></feColorMatrix>
        </filter>
        <rect id="path-3" x="209.785047" y="9" width="89.2149533" height="102" rx="8"></rect>
        <filter x="-52.1%" y="-36.8%" width="204.2%" height="191.2%" filterUnits="objectBoundingBox" id="filter-4">
            <feOffset dx="0" dy="9" in="SourceAlpha" result="shadowOffsetOuter1"></feOffset>
            <feGaussianBlur stdDeviation="14" in="shadowOffsetOuter1" result="shadowBlurOuter1"></feGaussianBlur>
            <feColorMatrix values="0 0 0 0 0.888327778   0 0 0 0 0.888327778   0 0 0 0 0.888327778  0 0 0 0.5 0" type="matrix" in="shadowBlurOuter1"></feColorMatrix>
        </filter>
        <rect id="path-5" x="331" y="370" width="84" height="84" rx="8"></rect>
        <filter x="-171.4%" y="-169.0%" width="442.9%" height="442.9%" filterUnits="objectBoundingBox" id="filter-6">
            <feMorphology radius="0.5" operator="dilate" in="SourceAlpha" result="shadowSpreadOuter1"></feMorphology>
            <feOffset dx="0" dy="2" in="shadowSpreadOuter1" result="shadowOffsetOuter1"></feOffset>
            <feGaussianBlur stdDeviation="47.5" in="shadowOffsetOuter1" result="shadowBlurOuter1"></feGaussianBlur>
            <feComposite in="shadowBlurOuter1" in2="SourceAlpha" operator="out" result="shadowBlurOuter1"></feComposite>
            <feColorMatrix values="0 0 0 0 0   0 0 0 0 0   0 0 0 0 0  0 0 0 0.0773114825 0" type="matrix" in="shadowBlurOuter1"></feColorMatrix>
        </filter>
        <rect id="path-7" x="0" y="195" width="84" height="84" rx="8"></rect>
        <filter x="-171.4%" y="-169.0%" width="442.9%" height="442.9%" filterUnits="objectBoundingBox" id="filter-8">
            <feMorphology radius="0.5" operator="dilate" in="SourceAlpha" result="shadowSpreadOuter1"></feMorphology>
            <feOffset dx="0" dy="2" in="shadowSpreadOuter1" result="shadowOffsetOuter1"></feOffset>
            <feGaussianBlur stdDeviation="47.5" in="shadowOffsetOuter1" result="shadowBlurOuter1"></feGaussianBlur>
            <feComposite in="shadowBlurOuter1" in2="SourceAlpha" operator="out" result="shadowBlurOuter1"></feComposite>
            <feColorMatrix values="0 0 0 0 0   0 0 0 0 0   0 0 0 0 0  0 0 0 0.0773114825 0" type="matrix" in="shadowBlurOuter1"></feColorMatrix>
        </filter>
        <rect id="path-9" x="162" y="195" width="84" height="84" rx="8"></rect>
        <filter x="-171.4%" y="-169.0%" width="442.9%" height="442.9%" filterUnits="objectBoundingBox" id="filter-10">
            <feMorphology radius="0.5" operator="dilate" in="SourceAlpha" result="shadowSpreadOuter1"></feMorphology>
            <feOffset dx="0" dy="2" in="shadowSpreadOuter1" result="shadowOffsetOuter1"></feOffset>
            <feGaussianBlur stdDeviation="47.5" in="shadowOffsetOuter1" result="shadowBlurOuter1"></feGaussianBlur>
            <feComposite in="shadowBlurOuter1" in2="SourceAlpha" operator="out" result="shadowBlurOuter1"></feComposite>
            <feColorMatrix values="0 0 0 0 0   0 0 0 0 0   0 0 0 0 0  0 0 0 0.0773114825 0" type="matrix" in="shadowBlurOuter1"></feColorMatrix>
        </filter>
        <rect id="path-11" x="324" y="195" width="84" height="84" rx="8"></rect>
        <filter x="-171.4%" y="-169.0%" width="442.9%" height="442.9%" filterUnits="objectBoundingBox" id="filter-12">
            <feMorphology radius="0.5" operator="dilate" in="SourceAlpha" result="shadowSpreadOuter1"></feMorphology>
            <feOffset dx="0" dy="2" in="shadowSpreadOuter1" result="shadowOffsetOuter1"></feOffset>
            <feGaussianBlur stdDeviation="47.5" in="shadowOffsetOuter1" result="shadowBlurOuter1"></feGaussianBlur>
            <feComposite in="shadowBlurOuter1" in2="SourceAlpha" operator="out" result="shadowBlurOuter1"></feComposite>
            <feColorMatrix values="0 0 0 0 0   0 0 0 0 0   0 0 0 0 0  0 0 0 0.0773114825 0" type="matrix" in="shadowBlurOuter1"></feColorMatrix>
        </filter>
        <rect id="path-13" x="486" y="191" width="92" height="92" rx="46"></rect>
        <filter x="-156.5%" y="-154.3%" width="413.0%" height="413.0%" filterUnits="objectBoundingBox" id="filter-14">
            <feMorphology radius="0.5" operator="dilate" in="SourceAlpha" result="shadowSpreadOuter1"></feMorphology>
            <feOffset dx="0" dy="2" in="shadowSpreadOuter1" result="shadowOffsetOuter1"></feOffset>
            <feGaussianBlur stdDeviation="47.5" in="shadowOffsetOuter1" result="shadowBlurOuter1"></feGaussianBlur>
            <feComposite in="shadowBlurOuter1" in2="SourceAlpha" operator="out" result="shadowBlurOuter1"></feComposite>
            <feColorMatrix values="0 0 0 0 0   0 0 0 0 0   0 0 0 0 0  0 0 0 0.0773114825 0" type="matrix" in="shadowBlurOuter1"></feColorMatrix>
        </filter>
    </defs>
    <g id="数据要素所有版本" stroke="none" stroke-width="1" fill="none" fill-rule="evenodd">
        <g id="首页备份" transform="translate(-354.000000, -2532.000000)">
            <g id="编组-61" transform="translate(450.000000, 2542.000000)">
                <text id="数据提供商-提供" font-family="PingFangSC-Regular, PingFang SC" font-size="12" font-weight="normal" letter-spacing="-0.514285714" fill="#B7B7B7">
                    <tspan x="11.7857143" y="295">数据提供商</tspan>
                    <tspan x="29.0142857" y="312">提供</tspan>
                </text>
                <g id="矩形" opacity="0.508586339">
                    <use fill="black" fill-opacity="1" filter="url(#filter-2)" xlink:href="#path-1"></use>
                    <use fill="#00ACB6" fill-rule="evenodd" xlink:href="#path-1"></use>
                </g>
                <g id="矩形备份-35">
                    <use fill="black" fill-opacity="1" filter="url(#filter-4)" xlink:href="#path-3"></use>
                    <use fill="#EDFDFF" fill-rule="evenodd" xlink:href="#path-3"></use>
                </g>
                <path d="M235.042748,37.6779134 C234.532891,38.4959561 233.593534,39 232.576591,39 L223.424102,39 C222.914244,39 222.423784,38.873989 221.997056,38.6422831 C221.570328,38.4159777 221.212873,38.0868061 220.957945,37.6779134 L220.406523,36.7906932 L216.380315,30.3206722 C215.873228,29.5026295 215.873228,28.4971133 216.380315,27.6793278 L220.957945,20.3218295 C221.465031,19.5040439 222.407158,19 223.424102,19 L232.576591,19 C233.593534,19 234.532891,19.5040439 235.042748,20.3218295 L239.617607,27.6793278 C240.127464,28.4971133 240.127464,29.5026295 239.617607,30.3206722 L235.042748,37.6779134 Z" id="Fill-19" fill="#00ACB6"></path>
                <path d="M219.260728,24.3395009 C225.032954,27.4366772 230.510739,31.117193 235.694084,35.3810482 C236.018486,35.6478547 236.485613,35.2646832 236.238022,34.9347721 L233.204008,30.8905211 C230.923936,28.2989392 227.951207,26.3058419 224.581896,25.1098825 L219.549721,23.7218325 C219.135162,23.6074869 218.886209,24.1385757 219.260728,24.3395009" id="Fill-20" fill="#FFFFFF"></path>
                <path d="M226.457528,32.3958242 C226.480358,32.6527526 226.40616,32.9173126 226.22352,33.141171 L221.945746,38.4117647 C221.506268,38.1881607 221.138134,37.8622941 220.875589,37.4578226 L220.307692,36.5801959 L224.174526,31.8181169 C224.357167,31.591969 224.614004,31.4469698 224.893672,31.3856631 C225.24183,31.3093478 225.621379,31.3653124 225.932438,31.5662762 L225.940999,31.5716182 C226.254912,31.772582 226.431844,32.0778435 226.457528,32.3958242" id="Fill-21" fill="#FFFFFF"></path>
                <path d="M228.349148,26.1755568 C228.036314,25.9765524 227.599881,26.0381311 227.373709,26.3134832 L224.039656,30.3739244 C223.994762,30.4284941 223.987375,30.500336 224.020619,30.5609134 L224.337715,31.1429075 L226.380085,32.4443213 L227.106621,32.5279282 C227.182769,32.5364391 227.257781,32.5079026 227.302391,32.4533329 L230.636728,28.3933923 C230.862616,28.1177899 230.792719,27.7332984 230.480169,27.5340436 L228.349148,26.1755568 Z" id="Fill-22" fill="#FFFFFF"></path>
                <path d="M235.045239,30.1485193 L234.663723,29.9870194 C234.492133,29.9142447 234.414682,29.7220897 234.490829,29.5580975 L234.659812,29.1934765 C234.735958,29.029235 234.936756,28.9552142 235.108607,29.0279889 L235.490123,29.1894888 C235.661713,29.2622635 235.739164,29.4544185 235.663017,29.6184107 L235.494034,29.9830317 C235.417888,30.1470239 235.216829,30.221294 235.045239,30.1485193" id="Fill-23" fill="#F4CF1F"></path>
                <path d="M233.199085,23.0896958 L232.81757,22.9281958 C232.645979,22.8554212 232.568528,22.6632662 232.644675,22.4992739 L232.813658,22.1346529 C232.889804,21.9704115 233.090602,21.8963907 233.262454,21.9691653 L233.643969,22.1306653 C233.81556,22.2034399 233.89301,22.395595 233.816863,22.5595872 L233.647881,22.9242082 C233.571734,23.0882004 233.370936,23.1624705 233.199085,23.0896958" id="Fill-24" fill="#F4CF1F"></path>
                <path d="M235.470695,27.7954292 L234.66471,27.4538791 C234.492467,27.3808149 234.41446,27.1878954 234.490896,27.0232508 L234.848472,26.252824 C234.924908,26.0881793 235.12647,26.013864 235.298713,26.0869282 L236.104698,26.4284783 C236.277204,26.5012922 236.354687,26.6942117 236.278251,26.8591066 L235.921199,27.6292832 C235.844762,27.7941781 235.642939,27.8684934 235.470695,27.7954292" id="Fill-25" fill="#F4CF1F"></path>
                <rect id="矩形" fill="#E5EFF2" x="246" y="19" width="30" height="4" rx="2"></rect>
                <rect id="矩形备份-37" fill="#E5EFF2" x="282" y="19" width="11" height="4" rx="2"></rect>
                <rect id="矩形备份-39" fill="#E5EFF2" x="246" y="27" width="47" height="4" rx="2"></rect>
                <rect id="矩形备份-41" fill="#E5EFF2" x="246" y="35" width="18" height="4" rx="2"></rect>
                <rect id="矩形备份-42" fill="#E5EFF2" x="270" y="35" width="23" height="4" rx="2"></rect>
                <rect id="矩形备份-40" fill="#E5EFF2" x="216" y="44" width="77" height="4" rx="2"></rect>
                <rect id="矩形备份-43" fill="#E5EFF2" x="216" y="53" width="77" height="4" rx="2"></rect>
                <rect id="矩形备份-44" fill="#E5EFF2" x="216" y="62" width="77" height="4" rx="2"></rect>
                <rect id="矩形备份-45" fill="#E5EFF2" x="216" y="71" width="77" height="4" rx="2"></rect>
                <rect id="矩形备份-46" fill="#E5EFF2" x="216" y="79" width="77" height="4" rx="2"></rect>
                <rect id="矩形备份-47" fill="#E5EFF2" x="216" y="88" width="77" height="4" rx="2"></rect>
                <rect id="矩形备份-48" fill="#E5EFF2" x="216" y="97" width="77" height="4" rx="2"></rect>
                <g id="矩形备份-33" fill-rule="nonzero">
                    <use fill="black" fill-opacity="1" filter="url(#filter-6)" xlink:href="#path-5"></use>
                    <use stroke="#F8F8F8" stroke-width="1" fill="#FFFFFF" xlink:href="#path-5"></use>
                </g>
                <polygon id="路径" points="353 398 385 398 385 430 353 430"></polygon>
                <path d="M363.666667,405.666667 C363.666667,406.084 364.281333,406.810667 365.706667,407.524 C367.552,408.446667 370.169333,409 373,409 C375.830667,409 378.448,408.446667 380.293333,407.524 C381.718667,406.810667 382.333333,406.084 382.333333,405.666667 L382.333333,402.772 C380.133333,404.132 376.769333,405 373,405 C369.230667,405 365.866667,404.130667 363.666667,402.772 L363.666667,405.666667 Z M382.333333,409.438667 C380.133333,410.798667 376.769333,411.666667 373,411.666667 C369.230667,411.666667 365.866667,410.797333 363.666667,409.438667 L363.666667,412.333333 C363.666667,412.750667 364.281333,413.477333 365.706667,414.190667 C367.552,415.113333 370.169333,415.666667 373,415.666667 C375.830667,415.666667 378.448,415.113333 380.293333,414.190667 C381.718667,413.477333 382.333333,412.750667 382.333333,412.333333 L382.333333,409.438667 Z M361,412.333333 L361,399 C361,395.686667 366.373333,393 373,393 C379.626667,393 385,395.686667 385,399 L385,412.333333 C385,415.646667 379.626667,418.333333 373,418.333333 C366.373333,418.333333 361,415.646667 361,412.333333 Z M373,402.333333 C375.830667,402.333333 378.448,401.78 380.293333,400.857333 C381.718667,400.144 382.333333,399.417333 382.333333,399 C382.333333,398.582667 381.718667,397.856 380.293333,397.142667 C378.448,396.22 375.830667,395.666667 373,395.666667 C370.169333,395.666667 367.552,396.22 365.706667,397.142667 C364.281333,397.856 363.666667,398.582667 363.666667,399 C363.666667,399.417333 364.281333,400.144 365.706667,400.857333 C367.552,401.78 370.169333,402.333333 373,402.333333 Z" id="形状" fill="#8AC0C3" fill-rule="nonzero"></path>
                <path d="M42,195 L42,171 C42,165.477153 46.4771525,161 52,161 L522,161 C527.522847,161 532,165.477153 532,171 L532,195 L532,195" id="路径-7" stroke="#DAD6D6" stroke-width="2" stroke-dasharray="2"></path>
                <line x1="42" y1="237" x2="245" y2="237" id="路径-10" stroke="#DAD6D6" stroke-width="2" stroke-dasharray="2"></line>
                <line x1="388" y1="237" x2="486" y2="237" id="路径-10备份-2" stroke="#DAD6D6" stroke-width="2" stroke-dasharray="2"></line>
                <g id="矩形" fill-rule="nonzero">
                    <use fill="black" fill-opacity="1" filter="url(#filter-8)" xlink:href="#path-7"></use>
                    <use stroke="#F8F8F8" stroke-width="1" fill="#FFFFFF" xlink:href="#path-7"></use>
                </g>
                <polygon id="路径" points="26 217 58 217 58 249 26 249"></polygon>
                <path d="M28.6666667,234.333333 L36.6666667,234.333333 L36.6666667,245 L28.6666667,245 L28.6666667,234.333333 Z M47.3333333,227.666667 L55.3333333,227.666667 L55.3333333,245 L47.3333333,245 L47.3333333,227.666667 Z M38,221 L46,221 L46,245 L38,245 L38,221 Z M31.3333333,237 L31.3333333,242.333333 L34,242.333333 L34,237 L31.3333333,237 Z M40.6666667,223.666667 L40.6666667,242.333333 L43.3333333,242.333333 L43.3333333,223.666667 L40.6666667,223.666667 Z M50,230.333333 L50,242.333333 L52.6666667,242.333333 L52.6666667,230.333333 L50,230.333333 Z" id="形状" fill="#8AC0C3" fill-rule="nonzero"></path>
                <text id="样例数据" font-family="PingFangSC-Regular, PingFang SC" font-size="14" font-weight="normal" letter-spacing="-0.6" fill="#8C8C8C">
                    <tspan x="15" y="265">样例数据</tspan>
                </text>
                <g id="矩形备份-30" fill-rule="nonzero">
                    <use fill="black" fill-opacity="1" filter="url(#filter-10)" xlink:href="#path-9"></use>
                    <use stroke="#F8F8F8" stroke-width="1" fill="#FFFFFF" xlink:href="#path-9"></use>
                </g>
                <polygon id="路径" points="186 214 218 214 218 246 186 246"></polygon>
                <path d="M207.333333,216.666667 L207.333333,219.333333 L206,219.333333 L206,223.657333 C206,225.201333 206.334667,226.725333 206.981333,228.126667 L212.690667,240.494667 C213.153333,241.498667 212.714667,242.686667 211.712,243.148 C211.449333,243.270667 211.164,243.333333 210.874667,243.333333 L193.125333,243.333333 C192.021333,243.333333 191.125333,242.437333 191.125333,241.333333 C191.125333,241.044 191.188,240.757333 191.309333,240.494667 L197.018667,228.126667 C197.665333,226.726667 198,225.201333 198,223.657333 L198,219.333333 L196.666667,219.333333 L196.666667,216.666667 L207.333333,216.666667 Z M203.850667,227.334667 L200.149333,227.334667 C200.010667,227.818667 199.842667,228.296 199.650667,228.762667 L199.44,229.244 L194.166667,240.666667 L209.832,240.666667 L204.56,229.244 C204.274667,228.625333 204.037333,227.986667 203.850667,227.334667 Z M200.666667,223.657333 C200.666667,223.994667 200.653333,224.332 200.628,224.668 L203.372,224.668 C203.358667,224.506667 203.350667,224.345333 203.344,224.182667 L203.333333,223.657333 L203.333333,219.333333 L200.666667,219.333333 L200.666667,223.657333 Z" id="形状" fill="#8AC0C3" fill-rule="nonzero"></path>
                <text id="实验" font-family="PingFangSC-Regular, PingFang SC" font-size="14" font-weight="normal" letter-spacing="-0.6" fill="#8C8C8C">
                    <tspan x="189" y="265">实验</tspan>
                </text>
                <text id="生产数据" font-family="PingFangSC-Regular, PingFang SC" font-size="14" font-weight="normal" letter-spacing="-0.6" fill="#8C8C8C">
                    <tspan x="346" y="441">生产数据</tspan>
                </text>
                <g id="矩形备份-31" fill-rule="nonzero">
                    <use fill="black" fill-opacity="1" filter="url(#filter-12)" xlink:href="#path-11"></use>
                    <use stroke="#F8F8F8" stroke-width="1" fill="#FFFFFF" xlink:href="#path-11"></use>
                </g>
                <polygon id="路径" points="349 213 381 213 381 245 349 245"></polygon>
                <path d="M361.333333,218.333333 L361.333333,215.666667 L374.666667,215.666667 L374.666667,218.333333 L378.676,218.333333 C379.406667,218.333333 380,218.926667 380,219.657333 L380,241.009333 C379.999265,241.740254 379.40692,242.332598 378.676,242.333333 L357.324,242.333333 C356.59308,242.332598 356.000735,241.740254 356,241.009333 L356,219.657333 C356,218.926667 356.593333,218.333333 357.324,218.333333 L361.333333,218.333333 Z M361.333333,221 L358.666667,221 L358.666667,239.666667 L377.333333,239.666667 L377.333333,221 L374.666667,221 L374.666667,223.666667 L361.333333,223.666667 L361.333333,221 Z M364,218.333333 L364,221 L372,221 L372,218.333333 L364,218.333333 Z" id="形状" fill="#8AC0C3" fill-rule="nonzero"></path>
                <polygon id="路径" fill="#8AC0C3" fill-rule="nonzero" points="367.691 227.846 367.691 230.758 364.765 230.758 364.765 231.99 367.691 231.99 367.691 234.916 368.923 234.916 368.923 231.99 371.835 231.99 371.835 230.758 368.923 230.758 368.923 227.846"></polygon>
                <text id="创建生产任务" font-family="PingFangSC-Regular, PingFang SC" font-size="14" font-weight="normal" letter-spacing="-1.5" fill="#8C8C8C">
                    <tspan x="329" y="266">创建生产任务</tspan>
                </text>
                <g id="矩形备份-32" fill-rule="nonzero">
                    <use fill="black" fill-opacity="1" filter="url(#filter-14)" xlink:href="#path-13"></use>
                    <use stroke="#F8F8F8" stroke-width="1" fill="#FFFFFF" xlink:href="#path-13"></use>
                </g>
                <rect id="矩形" stroke="#8AC0C3" stroke-width="3" x="515" y="227.2" width="12.8" height="12.8" rx="2"></rect>
                <rect id="矩形备份-25" stroke="#8AC0C3" stroke-width="3" x="535" y="227.2" width="12.8" height="12.8" rx="2"></rect>
                <rect id="矩形备份-26" stroke="#8AC0C3" stroke-width="3" x="525" y="209" width="12.8" height="12.8" rx="2"></rect>
                <text id="数据要素" font-family="PingFangSC-Regular, PingFang SC" font-size="14" font-weight="normal" letter-spacing="-0.6" fill="#8C8C8C">
                    <tspan x="505" y="260">数据要素</tspan>
                </text>
                <polygon id="三角形备份-6" fill="#D9D9D9" transform="translate(158.000000, 237.000000) rotate(-270.000000) translate(-158.000000, -237.000000) " points="158 233 162 241 154 241"></polygon>
                <polygon id="三角形备份-11" fill="#D9D9D9" points="257 111 261 119 253 119"></polygon>
                <polygon id="三角形备份-9" fill="#D9D9D9" transform="translate(481.000000, 237.000000) rotate(-270.000000) translate(-481.000000, -237.000000) " points="481 233 485 241 477 241"></polygon>
                <polygon id="三角形备份-10" fill="#D9D9D9" transform="translate(373.000000, 283.000000) rotate(-360.000000) translate(-373.000000, -283.000000) " points="373 279 377 287 369 287"></polygon>
                <polygon id="三角形备份-20" fill="#D9D9D9" transform="translate(202.000000, 312.000000) rotate(-180.000000) translate(-202.000000, -312.000000) " points="202 308 206 316 198 316"></polygon>
                <polygon id="三角形备份-19" fill="#D9D9D9" transform="translate(345.000000, 283.000000) rotate(-360.000000) translate(-345.000000, -283.000000) " points="345 279 349 287 341 287"></polygon>
                <line x1="257" y1="161" x2="257" y2="116" id="路径-11" stroke="#DAD6D6" stroke-width="2" stroke-dasharray="2"></line>
                <text id="生成审计报告" font-family="PingFangSC-Semibold, PingFang SC" font-size="12" font-weight="500" letter-spacing="-0.514285714" fill="#8C8C8C">
                    <tspan x="267" y="142">生成审计报告</tspan>
                </text>
                <line x1="373" y1="287" x2="373" y2="371" id="路径-17" stroke="#DAD6D6" stroke-width="2" stroke-dasharray="2"></line>
                <text id="加载生产数据" font-family="PingFangSC-Medium, PingFang SC" font-size="12" font-weight="400" letter-spacing="-0.514285714" fill="#8C8C8C">
                    <tspan x="381" y="336">加载生产数据</tspan>
                </text>
                <path d="M201.999333,279.488971 L201.999333,320 C201.999333,325.522847 206.476486,330 211.999333,330 L335,330 C340.522847,330 345,325.522847 345,320 L345,279 L345,279" id="路径-18" stroke="#DAD6D6" stroke-width="2" stroke-dasharray="2"></path>
                <text id="调用加工流程" font-family="PingFangSC-Medium, PingFang SC" font-size="12" font-weight="400" letter-spacing="-0.514285714" fill="#8C8C8C">
                    <tspan x="239" y="352">调用加工流程</tspan>
                </text>
            </g>
        </g>
    </g>
</svg>