<?xml version="1.0" encoding="UTF-8"?>
<svg width="161px" height="150px" viewBox="0 0 161 150" version="1.1" xmlns="http://www.w3.org/2000/svg" xmlns:xlink="http://www.w3.org/1999/xlink">
    <defs>
        <linearGradient x1="50%" y1="0%" x2="50%" y2="100%" id="linearGradient-1">
            <stop stop-color="#E0EDFF" offset="0%"></stop>
            <stop stop-color="#BBD6FF" offset="100%"></stop>
        </linearGradient>
        <linearGradient x1="50%" y1="0%" x2="50%" y2="100%" id="linearGradient-2">
            <stop stop-color="#E0EDFF" offset="0%"></stop>
            <stop stop-color="#BBD6FF" offset="100%"></stop>
        </linearGradient>
        <linearGradient x1="50%" y1="0%" x2="50%" y2="100%" id="linearGradient-3">
            <stop stop-color="#E0EDFF" offset="0%"></stop>
            <stop stop-color="#BBD6FF" offset="100%"></stop>
        </linearGradient>
    </defs>
    <g id="AI中台第一期" stroke="none" stroke-width="1" fill="none" fill-rule="evenodd">
        <g id="模型评估空状态" transform="translate(-923.000000, -393.000000)" fill-rule="nonzero">
            <g id="数据为空的" transform="translate(923.000000, 393.000000)">
                <g id="编组-4" transform="translate(0.000000, 0.000000)">
                    <g id="空货位" transform="translate(0.000000, 57.872768)" fill="url(#linearGradient-1)">
                        <path d="M140.096833,5.47526558 C137.275798,2.23277767 133.270597,0.259935745 128.981125,5.67578517e-14 L32.24025,5.67578517e-14 C27.8992677,0.314352131 23.8181315,2.18739045 20.748875,5.27396905 C17.6764584,8.34709616 0,36.8909439 0,42.9030002 L0,81.2835383 C0.0268333857,84.1822083 1.2075,86.9533905 3.27366661,88.9730657 C5.38008323,91.0128706 8.19758323,92.1468409 11.1224166,92.1269749 L149.884292,92.1269749 C152.802417,92.1468411 155.626625,91.0128706 157.726333,88.9663559 C159.7925,86.9399709 160.973167,84.1889183 161,81.2902483 L161,42.9097102 C161,36.8909439 140.090125,5.47526574 140.090125,5.47526558 L140.096833,5.47526558 Z M104.301167,39.5010889 C101.872842,39.345754 99.6631406,40.9001583 98.9881666,43.2384944 L98.9881666,44.0235508 C98.4542255,53.8395234 90.1965285,61.4415662 80.3723046,61.1613291 C70.5480807,60.8810921 62.7369503,52.8206842 62.7631666,42.9902288 C61.8960855,40.9030791 59.8834385,39.5207068 57.6245834,39.4608296 L11.9945,39.4608296 L27.5444166,13.1580832 C27.5444166,13.1580832 30.6570832,8.05857109 33.6154584,8.09195564 L130.470375,8.09195564 C132.650583,9.23951067 134.455125,10.9773708 135.696167,13.111114 L150.957625,39.5010889 L104.281042,39.5010889 L104.301167,39.5010889 L104.301167,39.5010889 Z" id="形状"></path>
                    </g>
                    <path d="M40.4864864,6.75845605 C41.9031997,5.88483086 43.7413968,6.27060002 44.6942747,7.60567843 L44.813435,7.78517722 L58.0204662,29.2122491 C58.9318644,30.6909005 58.472292,32.6285892 56.9939824,33.5401981 C55.5772691,34.4138233 53.7390719,34.0280542 52.7861941,32.6929758 L52.6670338,32.513477 L39.4600025,11.0864051 C38.5486043,9.60775373 39.0081768,7.67006495 40.4864864,6.75845605 Z" id="路径-21" fill="url(#linearGradient-2)"></path>
                    <path d="M107.150549,6.75845605 C108.567262,5.88483086 110.405459,6.27060002 111.358337,7.60567843 L111.477497,7.78517722 L124.684529,29.2122491 C125.595927,30.6909005 125.136354,32.6285892 123.658045,33.5401981 C122.241332,34.4138233 120.403134,34.0280542 119.450257,32.6929758 L119.331096,32.513477 L106.124065,11.0864051 C105.212667,9.60775373 105.672239,7.67006495 107.150549,6.75845605 Z" id="路径-21备份-2" fill="url(#linearGradient-2)" transform="translate(115.404297, 20.149327) scale(-1, 1) translate(-115.404297, -20.149327) "></path>
                    <path d="M82.4580656,0.000826050864 C84.124846,0.0386624367 85.4592233,1.36706612 85.5284446,3.00973784 L85.5304405,3.21663799 L84.9015342,30.9342264 C84.8621305,32.6708574 83.4226952,34.0467245 81.6864656,34.0073116 C80.0196852,33.9694752 78.685308,32.6410716 78.6160866,30.9983998 L78.6140908,30.7914997 L79.242997,3.07391125 C79.2824008,1.33728026 80.721836,-0.0385868511 82.4580656,0.000826050864 Z" id="路径-21备份" fill="url(#linearGradient-3)"></path>
                </g>
            </g>
        </g>
    </g>
</svg>
