<?xml version="1.0" encoding="UTF-8"?>
<svg width="22px" height="22px" viewBox="0 0 22 22" version="1.1" xmlns="http://www.w3.org/2000/svg" xmlns:xlink="http://www.w3.org/1999/xlink">
    <title>编组 54</title>
    <defs>
        <polygon id="path-1" points="0 0 22 0 22 17 0 17"></polygon>
    </defs>
    <g id="页面-1" stroke="none" stroke-width="1" fill="none" fill-rule="evenodd">
        <g id="画板" transform="translate(-1767.000000, -1046.000000)">
            <g id="编组-54" transform="translate(1767.000000, 1046.000000)">
                <g id="编组" transform="translate(0.000000, 3.000000)">
                    <g>
                        <mask id="mask-2" fill="white">
                            <use xlink:href="#path-1"></use>
                        </mask>
                        <g id="Clip-2"></g>
                        <path d="M22,10.7938947 C22,7.90620444 20.074429,5.47897837 17.4660279,4.78654732 C16.8393341,2.04358855 14.4380565,0 11.5683314,0 C8.2224158,0 5.50948509,2.77815033 5.50948509,6.205114 C5.50948509,6.29829728 5.51287263,6.39048924 5.51626016,6.48268121 C5.39285714,6.47326375 5.26800232,6.46731588 5.14217964,6.46731588 C2.30197445,6.46731588 -9.67866815e-05,8.8246545 -9.67866815e-05,11.7336579 C-9.67866815e-05,14.6421657 2.30197445,17 5.14217964,17 C5.21767325,17 5.29268293,16.9980174 5.36769261,16.9945478 C5.42673248,16.9980174 5.48625629,17 5.54674797,17 L16.3234611,17 C16.6418893,17 16.9487031,16.9494431 17.2366434,16.8562598 C19.9602207,16.2485859 22,13.7658464 22,10.7938947" id="Fill-1" fill-opacity="0.737313224" fill="#E57F3F" mask="url(#mask-2)"></path>
                    </g>
                    <path d="M8.14905149,10.4826229 C8.28939218,10.4826229 8.38859853,10.3423523 8.34504452,10.2055513 L7.87950058,8.75179311 C7.84417344,8.64225319 7.8190089,8.49702607 7.8044909,8.31660738 L7.77593883,8.31660738 C7.76335656,8.46282582 7.73528842,8.60359205 7.69076655,8.73890606 L7.22231901,10.2055513 C7.178765,10.3423523 7.27797135,10.4826229 7.41831204,10.4826229 L8.14905149,10.4826229 Z M9.88395277,12.4488891 L9.19337979,12.4488891 C9.10433604,12.4488891 9.0254549,12.3899061 8.99738676,12.3031664 L8.72541618,11.4501429 C8.69783198,11.3629075 8.61895083,11.3044201 8.52942315,11.3044201 L7.05778165,11.3044201 C6.96825397,11.3044201 6.88888889,11.3634031 6.86130468,11.4511342 L6.59465738,12.3021751 C6.56707317,12.3894105 6.48770809,12.4488891 6.39818041,12.4488891 L5.7172861,12.4488891 C5.57404181,12.4488891 5.47435153,12.3026707 5.52371274,12.1653741 L7.156988,7.59493265 C7.18650794,7.51166249 7.26393728,7.4566447 7.35056136,7.4566447 L8.28213318,7.4566447 C8.36924119,7.4566447 8.44715447,7.51215814 8.47619048,7.59592396 L10.0780101,12.1658697 C10.1259195,12.303662 10.0267131,12.4488891 9.88395277,12.4488891 L9.88395277,12.4488891 Z" id="Fill-3" fill="#FFF4ED"></path>
                    <path d="M11.8321719,8.49226777 L11.8321719,9.68134585 C11.8321719,9.7983206 11.9241192,9.89299084 12.0383275,9.89299084 L12.28223,9.89299084 C12.89247,9.89299084 13.197832,9.62087585 13.197832,9.07763718 C13.197832,8.54629424 12.8958575,8.28111843 12.2914247,8.28111843 L12.0383275,8.28111843 C11.9241192,8.28111843 11.8321719,8.37578868 11.8321719,8.49226777 M11.8321719,10.9189982 L11.8321719,12.2379381 C11.8321719,12.3539215 11.7397406,12.4485918 11.6260163,12.4485918 L10.9998064,12.4485918 C10.8860821,12.4485918 10.7936508,12.3539215 10.7936508,12.2379381 L10.7936508,7.66749665 C10.7936508,7.55101755 10.8860821,7.45634731 10.9998064,7.45634731 L12.470964,7.45634731 C13.6832172,7.45634731 14.2895858,7.98273369 14.2895858,9.03550644 C14.2895858,9.54702315 14.1066589,9.95693043 13.7403213,10.2652283 C13.3744677,10.5735262 12.9166667,10.7212316 12.3669183,10.7083445 L12.0383275,10.7083445 C11.9241192,10.7083445 11.8321719,10.8025191 11.8321719,10.9189982" id="Fill-5" fill="#FFF4ED"></path>
                    <path d="M16.2769067,8.28463759 L16.2706156,8.28463759 C16.1564073,8.28463759 16.0644599,8.37881218 16.0644599,8.49578693 L16.0644599,11.4092513 C16.0644599,11.5257304 16.1564073,11.619905 16.2706156,11.619905 L16.2769067,11.619905 C16.390631,11.619905 16.4830623,11.7150708 16.4830623,11.8315499 L16.4830623,12.2379876 C16.4830623,12.3539711 16.390631,12.4486413 16.2769067,12.4486413 L14.8197832,12.4486413 C14.7060588,12.4486413 14.6136276,12.3539711 14.6136276,12.2379876 L14.6136276,11.8315499 C14.6136276,11.7150708 14.7060588,11.619905 14.8197832,11.619905 C14.9339915,11.619905 15.0259388,11.5257304 15.0259388,11.4092513 L15.0259388,8.49578693 C15.0259388,8.37881218 14.9339915,8.28463759 14.8197832,8.28463759 C14.7060588,8.28463759 14.6136276,8.18996735 14.6136276,8.07348825 L14.6136276,7.66754621 C14.6136276,7.55106712 14.7060588,7.45639687 14.8197832,7.45639687 L16.2769067,7.45639687 C16.390631,7.45639687 16.4830623,7.55106712 16.4830623,7.66754621 L16.4830623,8.07348825 C16.4830623,8.18996735 16.390631,8.28463759 16.2769067,8.28463759" id="Fill-7" fill="#FFF4ED"></path>
                </g>
                <rect id="矩形备份-141" fill="#D8D8D8" opacity="0" x="0" y="0" width="22" height="22"></rect>
            </g>
        </g>
    </g>
</svg>