<?xml version="1.0" encoding="UTF-8"?>
<svg width="141px" height="40px" viewBox="0 0 141 40" version="1.1" xmlns="http://www.w3.org/2000/svg" xmlns:xlink="http://www.w3.org/1999/xlink">
    <defs>
        <linearGradient x1="79.1723832%" y1="89.2507336%" x2="-18.2232507%" y2="0%" id="linearGradient-1">
            <stop stop-color="#2554FF" offset="0%"></stop>
            <stop stop-color="#53A9FF" offset="100%"></stop>
        </linearGradient>
        <linearGradient x1="0%" y1="15.2777778%" x2="50%" y2="84.7222222%" id="linearGradient-2">
            <stop stop-color="#FFFFFF" offset="0%"></stop>
            <stop stop-color="#B0CEFF" offset="100%"></stop>
        </linearGradient>
        <polygon id="path-3" points="17.3237695 3.60647461 6.92739258 10.83 16.4565234 10.83 16.4565234 14.4364746 0 14.4364746 0 10.83 10.396377 3.60647461 0.867246094 3.60647461 0.867246094 0 17.3237695 0"></polygon>
    </defs>
    <g id="页面-1" stroke="none" stroke-width="1" fill="none" fill-rule="evenodd">
        <g id="主页_列表_-语音识别过程结果" transform="translate(-36.000000, -25.000000)">
            <g id="编组" transform="translate(36.000000, 25.000000)">
                <g id="政策通才" transform="translate(50.432070, 9.650986)" fill="#1A2029" fill-rule="nonzero">
                    <path d="M11.0834541,14.585202 L10.8276821,16.900827 L0,20.1961395 L0.255772018,17.969577 L1.61988945,17.613327 L3.15452156,6.74770203 L5.20069771,8.35082703 L4.00709496,16.9898895 L5.45646973,16.544577 L7.16161652,3.54145203 L2.38720551,3.54145203 L2.64297752,1.58207703 L12.8738583,1.58207703 L12.6180862,3.54145203 L9.46356468,3.54145203 L8.95202065,7.46020203 L11.0834541,7.46020203 L10.8276821,9.41957703 L8.69624863,9.41957703 L7.84367523,15.832077 L11.0834541,14.585202 Z M21.9030367,6.3746006 L20.1020162,6.3746006 C19.5302636,9.16863213 18.4439338,11.9032162 16.8430266,14.5783527 L20.3593048,20.4636532 L17.3576039,20.4636532 C16.8430266,19.5124935 16.2140988,18.2938202 15.4708205,16.8076332 C14.2701402,18.5910576 13.4125113,19.8097309 12.8979341,20.4636532 L9.72470741,20.4636532 C11.4971403,18.8585712 13.0980474,16.8670807 14.5274288,14.4891815 C13.7269753,12.6463097 13.1838103,11.1601227 12.8979341,10.0306206 L15.127769,10.0306206 C15.2992948,10.6250954 15.5279958,11.3384651 15.8138721,12.1707298 C16.2712741,11.2195702 16.6715009,10.2386868 17.0145524,9.22807961 C17.3004287,8.21747246 17.5291297,7.26631279 17.7006555,6.3746006 L15.2135319,6.3746006 L13.6698,9.49559326 L10.9253878,9.49559326 C13.1552227,5.21537476 14.6131917,2.06465836 15.2992948,0.0434440613 L17.7864183,0.0434440613 L16.1569236,4.23449135 L22.1603253,4.23449135 L21.9030367,6.3746006 Z" id="形状"></path>
                    <path d="M28.8654911,2.93707294 L27.2042885,4.97043114 L24.2316101,4.97043114 C25.9802444,3.16300163 27.2917202,1.50619125 28.1660374,0 L30.8764206,0 L30.0021034,1.35557213 L35.2480064,1.35557213 L34.9857113,2.93707294 L32.4501915,2.93707294 L33.237077,4.89512157 L30.6141254,4.89512157 L30.0021034,2.93707294 L28.8654911,2.93707294 Z M38.2198151,3.06270847 L36.5294867,5.13246574 L33.5046885,5.13246574 C35.2839815,3.2926815 36.6184513,1.60621262 37.5080978,0.073059082 L40.2660021,0.073059082 L39.3763556,1.45289726 L44.7142347,1.45289726 L44.4473408,3.06270847 L41.8673658,3.06270847 L42.6680477,5.05580807 L39.9991081,5.05580807 L39.3763556,3.06270847 L38.2198151,3.06270847 Z M36.271986,5.14457703 L36.093861,6.39145203 L44.7329235,6.39145203 L44.465736,8.17270203 L35.8266735,8.17270203 L35.6485485,9.50863953 L41.437611,9.50863953 C41.853236,9.50863953 42.209486,9.56801453 42.506361,9.68676453 C42.743861,9.80551453 42.803236,10.1617645 42.684486,10.7555145 L42.150111,15.0305145 L38.6766735,15.0305145 L38.1422985,13.160202 L40.012611,13.160202 L40.190736,11.6461395 C40.250111,11.4680145 40.2204235,11.378952 40.1016735,11.378952 L35.381361,11.378952 L34.134486,20.463327 L31.7297985,20.463327 L32.9766735,11.378952 L28.3454235,11.378952 L27.8110485,15.0305145 L25.406361,15.0305145 L26.2079235,9.50863953 L33.243861,9.50863953 L33.421986,8.17270203 L24.9610485,8.17270203 L25.1391735,6.39145203 L33.6891735,6.39145203 L33.8672985,5.14457703 L36.271986,5.14457703 Z M29.2360485,14.585202 L32.0860485,14.585202 C30.1860485,16.603952 28.2860485,18.3555145 26.3860485,19.8398895 L22.912611,19.8398895 L29.2360485,14.585202 Z M37.875111,14.585202 C39.062611,16.247702 40.6360485,17.9992645 42.5954235,19.8398895 L39.300111,19.8398895 C37.815736,18.1180145 36.4797985,16.366452 35.2922985,14.585202 L37.875111,14.585202 Z" id="形状"></path>
                    <path d="M62.1791496,0.514175034 L65.8259829,0.514175034 C66.0553434,0.514175034 66.284704,0.514175034 66.5140646,0.514175034 C66.6975531,0.566726112 66.7892973,0.698103809 66.7892973,0.908308125 C66.7892973,1.48636999 66.6516809,1.88050308 66.3764482,2.0907074 L61.7663006,4.92846565 L63.4176968,6.34734478 L60.2525208,6.34734478 L56.5368793,2.64249372 L59.0827818,2.64249372 L60.3213289,3.74606638 C61.7433645,3.06290236 62.7525511,2.51111603 63.3488886,2.0907074 C63.4406328,2.03815632 63.4635689,1.98560524 63.4176968,1.93305416 C63.3718246,1.93305416 63.3259525,1.93305416 63.2800804,1.93305416 L54.9542913,1.93305416 L54.5414423,0.514175034 L62.1791496,0.514175034 Z M65.8840605,5.03111801 C66.9626785,4.98286858 67.3884488,5.41711349 67.1613713,6.33385277 L65.6285983,17.334724 L62.0521279,17.334724 L61.4560495,15.7424927 L63.670055,15.7424927 L64.0106712,13.5712681 L61.1154333,13.5712681 L60.604509,16.9728533 L58.3053494,16.9728533 L58.9014278,13.5712681 L56.0061899,13.5712681 L55.4101115,17.334724 L53.2812601,17.334724 L55.3249575,5.03111801 L65.8840605,5.03111801 Z M60.0084306,6.55097523 L57.1983467,6.55097523 L56.8577305,8.50507736 L59.6678144,8.50507736 L60.0084306,6.55097523 Z M65.0325199,6.55097523 L62.222436,6.55097523 L61.8818198,8.50507736 L64.7770577,8.50507736 L65.0325199,6.55097523 Z M56.2616521,12.0514109 L59.15689,12.0514109 L59.4975062,9.95256042 L56.6022683,9.95256042 L56.2616521,12.0514109 Z M61.3708955,12.0514109 L64.2661334,12.0514109 L64.5215956,9.95256042 L61.6263577,9.95256042 L61.3708955,12.0514109 Z M53.6126026,5.60593643 L51.0379875,5.60593643 L49.1736111,0.0901279449 L51.5706665,0.0901279449 C52.162532,1.92873077 52.8431774,3.7673336 53.6126026,5.60593643 Z M51.304327,16.2816948 C52.0737522,16.993412 53.2574833,17.4975451 54.8555202,17.7940939 C56.4535572,18.1499525 58.4067135,18.3278818 60.7149891,18.3278818 L67.1071369,18.3278818 L66.3968983,20.5519981 L60.6262093,20.5519981 C58.2587471,20.5519981 56.2759975,20.3444139 54.6779606,19.9292456 C53.0207371,19.573387 51.5706665,18.9506344 50.3277489,18.0609879 L48.8184917,20.5519981 L46.1550968,20.5519981 L49.9726295,13.7906845 L50.5940884,9.60934582 C50.5940884,9.49072628 50.5644951,9.40176163 50.5053085,9.34245186 C50.446122,9.28314209 50.3573421,9.25348721 50.238969,9.25348721 L48.0194733,9.25348721 L48.3745926,7.20730019 L51.837006,7.20730019 C52.3104984,7.20730019 52.6360245,7.29626484 52.8135841,7.47419415 C52.9911438,7.65212345 53.0503304,7.97832718 52.9911438,8.45280533 L52.1921253,14.5024017 C51.8961926,15.1548092 51.6002598,15.7479069 51.304327,16.2816948 Z M64.5330437,2.27750816 L54.284844,2.27750816 L54.5368489,0.49623642 L64.7850486,0.49623642 L64.5330437,2.27750816 Z" id="形状"></path>
                    <path d="M90.065736,4.25395203 L89.7985485,6.30238953 L86.2360485,6.30238953 L84.2766735,20.3742645 L77.8641735,20.3742645 L77.3297985,18.325827 L81.871986,18.325827 L83.653236,6.30238953 L70.9172985,6.30238953 L71.184486,4.25395203 L83.9204235,4.25395203 L84.4547985,0.157077026 L87.1266735,0.157077026 L86.5922985,4.25395203 L90.065736,4.25395203 Z M79.2891735,7.46020203 L82.3172985,7.46020203 C80.5360485,9.77582703 78.8735485,11.853952 77.3297985,13.694577 C75.7860485,15.535202 74.1829235,17.2867645 72.5204235,18.9492645 L68.7797985,18.9492645 C70.5610485,17.4055145 72.4016735,15.5648895 74.3016735,13.4273895 C76.1422985,11.3492645 77.8047985,9.36020203 79.2891735,7.46020203 Z" id="形状"></path>
                </g>
                <g id="编组-2">
                    <rect id="矩形" fill="url(#linearGradient-1)" x="0" y="0" width="39.8357488" height="40" rx="14.0790005"></rect>
                    <g id="Z" transform="translate(11.794311, 12.353914)" fill-rule="nonzero">
                        <g id="路径">
                            <use fill="#FFFFFF" xlink:href="#path-3"></use>
                            <use fill="url(#linearGradient-2)" xlink:href="#path-3"></use>
                        </g>
                    </g>
                </g>
            </g>
        </g>
    </g>
</svg>
