<?xml version="1.0" encoding="UTF-8"?>
<svg width="20px" height="20px" viewBox="0 0 20 20" version="1.1" xmlns="http://www.w3.org/2000/svg" xmlns:xlink="http://www.w3.org/1999/xlink">
    <title>形状</title>
    <g id="前台" stroke="none" stroke-width="1" fill="none" fill-rule="evenodd">
        <g id="超出对话限制提示" transform="translate(-244.000000, -1180.000000)" fill="#EC8315" fill-rule="nonzero">
            <g id="error-warning-line-(2)" transform="translate(244.000000, 1180.000000)">
                <path d="M10,20 C4.47715,20 0,15.5228 0,10 C0,4.47715 4.47715,0 10,0 C15.5228,0 20,4.47715 20,10 C20,15.5228 15.5228,20 10,20 Z M10,18 C14.4183,18 18,14.4183 18,10 C18,5.58172 14.4183,2 10,2 C5.58172,2 2,5.58172 2,10 C2,14.4183 5.58172,18 10,18 Z M9,13 L11,13 L11,15 L9,15 L9,13 Z M9,5 L11,5 L11,11 L9,11 L9,5 Z" id="形状"></path>
            </g>
        </g>
    </g>
</svg>