<?xml version="1.0" encoding="UTF-8"?>
<svg width="22px" height="22px" viewBox="0 0 22 22" version="1.1" xmlns="http://www.w3.org/2000/svg" xmlns:xlink="http://www.w3.org/1999/xlink">
    <title>表格_输出</title>
    <g id="页面-1" stroke="none" stroke-width="1" fill="none" fill-rule="evenodd">
        <g id="按钮" transform="translate(-128.000000, -813.000000)">
            <g id="编组-19" transform="translate(128.000000, 813.000000)">
                <path d="M11.6153846,19 L7.30769231,19 L7.30769231,10.8333333 L11.6153846,10.8333333 L11.6153846,19 Z M13.7692308,19 L13.7692308,10.8333333 L17,10.8333333 L17,18.2575758 C17,18.6676053 16.7107071,19 16.3538462,19 L13.7692308,19 Z M6.23076923,19 L3.64615385,19 C3.28929293,19 3,18.6676053 3,18.2575758 L3,10.8333333 L6.23076923,10.8333333 L6.23076923,19 Z M17,8.5 L3,8.5 L3,5.7 C3,5.31340068 3.31340068,5 3.7,5 L16.3,5 C16.6865993,5 17,5.31340068 17,5.7 L17,8.5 Z" id="形状" fill="#CEDCDE" fill-rule="nonzero"></path>
                <circle id="椭圆形" stroke="#FFFFFF" fill="#CEDCDE" cx="15" cy="7" r="5"></circle>
                <polygon id="路径备份-4" fill="#FFFFFF" fill-rule="nonzero" transform="translate(15.000000, 6.722222) scale(1, -1) rotate(-270.000000) translate(-15.000000, -6.722222) " points="15.0002946 6.72222222 13.3333333 5.05594836 14.1665194 4.22222222 16.6666667 6.72222222 14.1665194 9.22222222 13.3333333 8.38849609"></polygon>
                <polygon id="路径备份-11" stroke="#E6E6E6" opacity="0" points="0 0 22 0 22 22 0 22"></polygon>
            </g>
        </g>
    </g>
</svg>