<?xml version="1.0" encoding="UTF-8"?>
<svg width="22px" height="22px" viewBox="0 0 22 22" version="1.1" xmlns="http://www.w3.org/2000/svg" xmlns:xlink="http://www.w3.org/1999/xlink">
    <title>视频_输入</title>
    <g id="页面-1" stroke="none" stroke-width="1" fill="none" fill-rule="evenodd">
        <g id="按钮" transform="translate(-98.000000, -944.000000)">
            <g id="视频_输入" transform="translate(98.000000, 944.000000)">
                <polygon id="路径" stroke="#E6E6E6" opacity="0" points="0 0 22 0 22 22 0 22"></polygon>
                <path d="M6.155625,20.3333333 L4,20.3333333 C3.44771525,20.3333333 3,19.8856181 3,19.3333333 L3,9.70833333 L3,9.70833333 C3,9.31713164 3.31713164,9 3.70833333,9 L16.4583333,9 C16.849535,9 17.1666667,9.31713164 17.1666667,9.70833333 L17.1666667,19.625 C17.1666667,20.0162017 16.849535,20.3333333 16.4583333,20.3333333 L6.155625,20.3333333 Z M11.5,14.1354167 L11.5,12.5416667 L6.54166667,12.5416667 L6.54166667,16.7916667 L11.5,16.7916667 L11.5,15.1979167 L13.625,16.7916667 L13.625,12.5416667 L11.5,14.1354167 Z" id="形状" fill="#CEDCDE" fill-rule="nonzero"></path>
                <circle id="椭圆形备份-3" stroke="#FFFFFF" fill="#CEDCDE" cx="15" cy="7" r="5"></circle>
                <polygon id="路径备份-5" fill="#FFFFFF" fill-rule="nonzero" transform="translate(15.000000, 7.166667) rotate(-270.000000) translate(-15.000000, -7.166667) " points="15.0002946 7.16666667 13.3333333 5.5003928 14.1665194 4.66666667 16.6666667 7.16666667 14.1665194 9.66666667 13.3333333 8.83294053"></polygon>
            </g>
        </g>
    </g>
</svg>