<?xml version="1.0" encoding="UTF-8"?>
<svg width="22px" height="22px" viewBox="0 0 22 22" version="1.1" xmlns="http://www.w3.org/2000/svg" xmlns:xlink="http://www.w3.org/1999/xlink">
    <title>音频_输出</title>
    <g id="页面-1" stroke="none" stroke-width="1" fill="none" fill-rule="evenodd">
        <g id="按钮" transform="translate(-128.000000, -911.000000)">
            <g id="音频_输出" transform="translate(128.000000, 911.000000)">
                <path d="M6.73864611,17.5170216 L3.76470569,17.5170216 C3.3423704,17.5170216 3,17.1746512 3,16.7523159 L3,12.1640818 C3,11.7417465 3.3423704,11.3993761 3.76470569,11.3993761 L6.73864611,11.3993761 L10.786998,8.08667104 C10.9013363,7.99293326 11.059471,7.97351719 11.1930899,8.03681032 C11.3267087,8.10010346 11.4118612,8.23476084 11.4117627,8.38261214 L11.4117627,20.5337855 C11.4118612,20.6816368 11.3267087,20.8162942 11.1930899,20.8795874 C11.059471,20.9428805 10.9013363,20.9234644 10.786998,20.8297266 L6.73941082,17.5170216 L6.73864611,17.5170216 Z M14.3658207,17.9689627 L13.2784092,16.8815512 C14.030852,16.3029672 14.4714432,15.4073716 14.4705853,14.4581988 C14.4705853,13.3646697 13.8970561,12.4049641 13.0329386,11.8643171 L14.1333501,10.7639057 C15.3080865,11.6280524 16.001231,12.9998595 15.9999984,14.4581988 C15.9999984,15.8667867 15.365291,17.1270217 14.3658207,17.9689627 L14.3658207,17.9689627 Z" id="形状" fill="#CEDCDE" fill-rule="nonzero"></path>
                <circle id="椭圆形备份-3" stroke="#FFFFFF" fill="#CEDCDE" cx="14" cy="7" r="5"></circle>
                <polygon id="路径备份-5" fill="#FFFFFF" fill-rule="nonzero" transform="translate(14.000000, 6.722222) scale(1, -1) rotate(-270.000000) translate(-14.000000, -6.722222) " points="14.0002946 6.72222222 12.3333333 5.05594836 13.1665194 4.22222222 15.6666667 6.72222222 13.1665194 9.22222222 12.3333333 8.38849609"></polygon>
                <polygon id="路径备份-7" stroke="#E6E6E6" opacity="0" points="0 0 22 0 22 22 0 22"></polygon>
            </g>
        </g>
    </g>
</svg>