<?xml version="1.0" encoding="UTF-8"?>
<svg width="43px" height="43px" viewBox="0 0 43 43" version="1.1" xmlns="http://www.w3.org/2000/svg" xmlns:xlink="http://www.w3.org/1999/xlink">
    <g id="后台" stroke="none" stroke-width="1" fill="none" fill-rule="evenodd">
        <g id="画板" transform="translate(-755.000000, -630.000000)" fill="#2554FF">
            <g id="编组-3" transform="translate(755.000000, 630.000000)">
                <circle id="椭圆形" fill-opacity="0.0502110194" cx="21.5" cy="21.5" r="21.5"></circle>
                <g id="book-read-line-(2)" transform="translate(12.000000, 13.000000)" fill-rule="nonzero">
                    <path d="M0,0.9934 C0,0.44476 0.45531,0 0.9918,0 L19.0082,0 C19.556,0 20,0.44495 20,0.9934 L20,17.0066 C20,17.5552 19.5447,18 19.0082,18 L0.9918,18 C0.44405,18 0,17.5551 0,17.0066 L0,0.9934 Z M9,2 L2,2 L2,16 L9,16 L9,2 Z M11,2 L11,16 L18,16 L18,2 L11,2 Z M12,4 L17,4 L17,6 L12,6 L12,4 Z M12,7 L17,7 L17,9 L12,9 L12,7 Z" id="形状"></path>
                </g>
            </g>
        </g>
    </g>
</svg>
