<?xml version="1.0" encoding="UTF-8"?>
<svg width="48px" height="48px" viewBox="0 0 48 48" version="1.1" xmlns="http://www.w3.org/2000/svg" xmlns:xlink="http://www.w3.org/1999/xlink">
    <g id="知识图谱" stroke="none" stroke-width="1" fill="none" fill-rule="evenodd">
        <g id="画板" transform="translate(-369.000000, -384.000000)">
            <g id="1" transform="translate(369.000000, 384.000000)">
                <g id="2">
                    <rect id="矩形备份-2" fill="#D8D8D8" opacity="0" x="0" y="0" width="48" height="48"></rect>
                    <path d="M39.9609375,36.9512855 C39.2410714,36.9512855 38.6027902,37.2963464 38.2236607,37.8254398 L5.10502232,37.8254398 C4.71629464,37.8254398 4.39955357,37.5217862 4.39955357,37.1491204 L4.39955357,12.6912043 C4.39955357,12.0562923 3.86205357,11.5410014 3.19977679,11.5410014 C2.5375,11.5410014 2,12.0562923 2,12.6912043 L2,37.1491204 C2,38.7916103 3.39174107,40.1258457 5.10502232,40.1258457 L38.2236607,40.1258457 C38.6027902,40.6549391 39.2410714,41 39.9609375,41 C41.1271205,41 42.0725446,40.0936401 42.0725446,38.9756428 C42.0725446,37.8576455 41.1271205,36.9512855 39.9609375,36.9512855 Z M41.8949777,7.87415426 L8.77633929,7.87415426 C8.39720982,7.34506089 7.75892857,7 7.0390625,7 C5.87287946,7 4.92745536,7.90635995 4.92745536,9.02435724 C4.92745536,10.1423545 5.87287946,11.0487145 7.0390625,11.0487145 C7.75892857,11.0487145 8.39720982,10.7036536 8.77633929,10.1745602 L41.8949777,10.1745602 C42.2837054,10.1745602 42.6004464,10.4782138 42.6004464,10.8508796 L42.6004464,35.3087957 L45,35.3087957 L45,10.8508796 C45,9.20838972 43.6082589,7.87415426 41.8949777,7.87415426 Z" id="形状" fill="#4AAF9C" fill-rule="nonzero"></path>
                    <path d="M18.1873884,17.5358593 L14.943192,17.5358593 C13.4698661,17.5358593 12.2700893,18.6860622 12.2700893,20.0985115 L12.2700893,32.3044655 L10.1584821,32.3044655 C9.49620536,32.3044655 8.95870536,32.8197564 8.95870536,33.4546685 C8.95870536,34.0895805 9.49620536,34.6048714 10.1584821,34.6048714 L36.3136161,34.6048714 C36.9758929,34.6048714 37.5133929,34.0895805 37.5133929,33.4546685 C37.5133929,32.8197564 36.9758929,32.3044655 36.3136161,32.3044655 L34.5379464,32.3044655 L34.5379464,15.4056834 C34.5379464,13.9932341 33.3381696,12.8430311 31.8648438,12.8430311 L26.365067,12.8430311 C24.8917411,12.8430311 23.6919643,13.9932341 23.6919643,15.4056834 L23.6919643,32.3044655 L20.8604911,32.3044655 L20.8604911,20.0985115 C20.8604911,18.6860622 19.6607143,17.5358593 18.1873884,17.5358593 Z M14.6696429,32.3044655 L14.6696429,20.0985115 C14.6696429,19.9558863 14.7896205,19.8362652 14.943192,19.8362652 L18.1873884,19.8362652 C18.3361607,19.8362652 18.4609375,19.9512855 18.4609375,20.0985115 L18.4609375,32.3044655 L14.6696429,32.3044655 L14.6696429,32.3044655 Z M26.0915179,15.4056834 C26.0915179,15.2630582 26.2114955,15.1434371 26.365067,15.1434371 L31.8648437,15.1434371 C32.0136161,15.1434371 32.1383929,15.2584574 32.1383929,15.4056834 L32.1383929,32.3044655 L26.0915179,32.3044655 L26.0915179,15.4056834 Z" id="形状" fill="#4AAF9C" fill-rule="nonzero"></path>
                </g>
                <g id="大数据" transform="translate(2.000000, 7.000000)"></g>
            </g>
        </g>
    </g>
</svg>
