<?xml version="1.0" encoding="UTF-8"?>
<svg width="48px" height="48px" viewBox="0 0 48 48" version="1.1" xmlns="http://www.w3.org/2000/svg" xmlns:xlink="http://www.w3.org/1999/xlink">
    <g id="知识图谱" stroke="none" stroke-width="1" fill="none" fill-rule="evenodd">
        <g id="画板" transform="translate(-302.000000, -384.000000)">
            <g id="2" transform="translate(302.000000, 384.000000)">
                <g id="1">
                    <rect id="矩形" fill="#D8D8D8" opacity="0" x="0" y="0" width="48" height="48"></rect>
                    <path d="M7.28571429,30.2413793 L9.85714286,30.2413793 L9.85714286,43 L7.28571429,43 L7.28571429,30.2413793 Z M17.5714286,35.3448276 L20.1428571,35.3448276 L20.1428571,43 L17.5714286,43 L17.5714286,35.3448276 Z M27.8571429,22.5862069 L30.4285714,22.5862069 L30.4285714,43 L27.8571429,43 L27.8571429,22.5862069 Z M38.1428571,25.137931 L40.7142857,25.137931 L40.7142857,43 L38.1428571,43 L38.1428571,25.137931 Z" id="形状" fill="#356DF6" fill-rule="nonzero"></path>
                    <path d="M10.4228571,19.217931 L11.7008571,17.0030345 L16.5557143,19.7588966 L15.2777143,21.9737931 L10.4254286,19.217931 L10.4228571,19.217931 Z M21.4542857,22.3233793 L19.5822857,20.5754483 L27.9625714,11.7286207 L29.8345714,13.4765517 L21.4568571,22.3233793 L21.4542857,22.3233793 Z M31.2334286,13.5888276 L32.6554286,11.4632414 L37.2017143,14.4564138 L35.7797143,16.5845517 L31.2334286,13.5888276 Z" id="形状" fill="#356DF6" fill-rule="nonzero"></path>
                    <path d="M9.85714286,21.3103448 C7.72690168,21.3103448 6,19.5966761 6,17.4827586 C6,15.3688411 7.72690168,13.6551724 9.85714286,13.6551724 C11.987384,13.6551724 13.7142857,15.3688411 13.7142857,17.4827586 C13.7142857,19.5966761 11.987384,21.3103448 9.85714286,21.3103448 Z M9.85714286,18.7586207 C10.5672232,18.7586207 11.1428571,18.1873978 11.1428571,17.4827586 C11.1428571,16.7781195 10.5672232,16.2068966 9.85714286,16.2068966 C9.14706246,16.2068966 8.57142857,16.7781195 8.57142857,17.4827586 C8.57142857,18.1873978 9.14706246,18.7586207 9.85714286,18.7586207 Z M17.5714286,26.4137931 C15.4411874,26.4137931 13.7142857,24.7001244 13.7142857,22.5862069 C13.7142857,20.4722894 15.4411874,18.7586207 17.5714286,18.7586207 C19.7016697,18.7586207 21.4285714,20.4722894 21.4285714,22.5862069 C21.4285714,24.7001244 19.7016697,26.4137931 17.5714286,26.4137931 L17.5714286,26.4137931 Z M17.5714286,23.862069 C18.281509,23.862069 18.8571429,23.2908461 18.8571429,22.5862069 C18.8571429,21.8815677 18.281509,21.3103448 17.5714286,21.3103448 C16.8613482,21.3103448 16.2857143,21.8815677 16.2857143,22.5862069 C16.2857143,23.2908461 16.8613482,23.862069 17.5714286,23.862069 L17.5714286,23.862069 Z M30.4285714,13.6551724 C29.050547,13.6551724 27.7771999,12.9256386 27.0881877,11.7413793 C26.3991755,10.55712 26.3991755,9.09805239 27.0881877,7.91379309 C27.7771999,6.72953378 29.050547,6 30.4285714,6 C32.5588126,6 34.2857143,7.71366872 34.2857143,9.82758621 C34.2857143,11.9415037 32.5588126,13.6551724 30.4285714,13.6551724 L30.4285714,13.6551724 Z M30.4285714,11.1034483 C31.1386518,11.1034483 31.7142857,10.5322254 31.7142857,9.82758621 C31.7142857,9.12294704 31.1386518,8.55172414 30.4285714,8.55172414 C29.718491,8.55172414 29.1428571,9.12294704 29.1428571,9.82758621 C29.1428571,10.5322254 29.718491,11.1034483 30.4285714,11.1034483 L30.4285714,11.1034483 Z M38.1428571,21.3103448 C36.012616,21.3103448 34.2857143,19.5966761 34.2857143,17.4827586 C34.2857143,15.3688411 36.012616,13.6551724 38.1428571,13.6551724 C40.2730983,13.6551724 42,15.3688411 42,17.4827586 C42,19.5966761 40.2730983,21.3103448 38.1428571,21.3103448 Z M38.1428571,18.7586207 C38.8529375,18.7586207 39.4285714,18.1873978 39.4285714,17.4827586 C39.4285714,16.7781195 38.8529375,16.2068966 38.1428571,16.2068966 C37.4327768,16.2068966 36.8571429,16.7781195 36.8571429,17.4827586 C36.8571429,18.1873978 37.4327768,18.7586207 38.1428571,18.7586207 Z" id="形状" fill="#356DF6" fill-rule="nonzero"></path>
                </g>
                <g id="编组-33" transform="translate(6.000000, 6.000000)"></g>
            </g>
        </g>
    </g>
</svg>
