<?xml version="1.0" encoding="UTF-8"?>
<svg width="583px" height="330px" viewBox="0 0 583 330" version="1.1" xmlns="http://www.w3.org/2000/svg" xmlns:xlink="http://www.w3.org/1999/xlink">
    <defs>
        <radialGradient cx="50%" cy="0.000404573297%" fx="50%" fy="0.000404573297%" r="85.519512%" gradientTransform="translate(0.500000,0.000004),scale(0.374701,1.000000),rotate(90.203692),translate(-0.500000,-0.000004)" id="radialGradient-1">
            <stop stop-color="#E2E2E2" offset="0%"></stop>
            <stop stop-color="#F8F8F8" stop-opacity="0" offset="100%"></stop>
        </radialGradient>
        <linearGradient x1="50.5863709%" y1="6.45951013%" x2="44.5144581%" y2="102.702353%" id="linearGradient-2">
            <stop stop-color="#E3E3E3" offset="0%"></stop>
            <stop stop-color="#C9C9C9" offset="100%"></stop>
        </linearGradient>
        <linearGradient x1="69.3524047%" y1="-3.87397966%" x2="35.2952633%" y2="100.311442%" id="linearGradient-3">
            <stop stop-color="#F2F2F2" offset="0%"></stop>
            <stop stop-color="#E4E4E4" offset="97.9167%"></stop>
        </linearGradient>
        <linearGradient x1="57.5994099%" y1="-1.6478779%" x2="41.0827667%" y2="102.014902%" id="linearGradient-4">
            <stop stop-color="#FFFFFF" offset="0%"></stop>
            <stop stop-color="#F8F8F8" offset="100%"></stop>
        </linearGradient>
        <linearGradient x1="45.0549966%" y1="67.6332663%" x2="76.6754491%" y2="33.9678238%" id="linearGradient-5">
            <stop stop-color="#DFDFDF" offset="0%"></stop>
            <stop stop-color="#EBEBEB" offset="100%"></stop>
        </linearGradient>
        <linearGradient x1="60.2867556%" y1="33.2183934%" x2="39.0209673%" y2="54.583472%" id="linearGradient-6">
            <stop stop-color="#F5F5F5" offset="28.8952%"></stop>
            <stop stop-color="#FAFAFA" offset="96.1443%"></stop>
        </linearGradient>
        <linearGradient x1="53.5417895%" y1="43.7806509%" x2="43.9569467%" y2="60.4116778%" id="linearGradient-7">
            <stop stop-color="#F2F2F2" offset="0%"></stop>
            <stop stop-color="#D7D7D7" offset="100%"></stop>
        </linearGradient>
    </defs>
    <g id="知识图谱" stroke="none" stroke-width="1" fill="none" fill-rule="evenodd">
        <g id="经济指数_选择对比备份-2" transform="translate(-790.000000, -349.000000)">
            <g id="Group-427335712" transform="translate(790.000000, 349.000000)">
                <ellipse id="椭圆形" fill="url(#radialGradient-1)" fill-rule="nonzero" cx="291.5" cy="220.774648" rx="291.5" ry="109.225352"></ellipse>
                <path d="M195.388639,43.2957985 C194.138486,38.2927813 197.175836,33.2220887 202.17291,31.9700943 L296.153825,8.42349315 C303.33181,6.62504666 309.64274,13.5097758 307.238871,20.5159487 L254.943004,172.940733 C253.751244,176.413968 250.63692,178.865872 246.983783,179.205134 L237.727517,180.065249 C233.143622,180.491321 228.934861,177.505278 227.81742,173.033743 L195.388639,43.2957985 Z" id="路径" fill="url(#linearGradient-2)" fill-rule="nonzero"></path>
                <path d="M225.990667,15.649222 L324.803527,15.6368543 C331.567528,15.632943 337.05152,21.115563 337.052367,27.8795642 C337.052367,27.8805859 337.052367,27.8816076 337.049302,27.882629 L337.033047,157.815768 C337.029136,164.578572 331.547011,170.060697 324.784207,170.064609 L225.971348,170.076976 C219.207347,170.080888 213.723354,164.598268 213.722508,157.834266 C213.722508,157.833245 213.722508,157.832223 213.725572,157.831202 L213.741828,27.8980625 C213.745739,21.1352586 219.227864,15.6531339 225.990667,15.649222 Z" id="矩形" fill="url(#linearGradient-3)" fill-rule="nonzero" transform="translate(275.387437, 92.856915) rotate(-14.049700) translate(-275.387437, -92.856915) "></path>
                <path d="M234.85865,114.230238 C222.008246,91.3343317 212.527888,51.6907059 212.527888,35.7364556 L309.414523,11.6197183 C317.058603,56.0419136 331.992067,83.1155616 354.213147,122.332713 C348.288587,130.635819 325.925098,141.55867 306.461088,144.031935 C283.052973,145.909522 261.927821,153.855754 252.091,158.028169 C251.222394,153.240545 241.93221,126.835371 234.85865,114.230238 Z" id="路径" fill="url(#linearGradient-4)" fill-rule="nonzero"></path>
                <path d="M224.460806,19.444144 C224.868516,17.988913 226.275601,17.1671795 227.734867,16.8001278 L246.469181,12.0888908 C245.874862,8.90522865 246.476256,2.08739952 253.639922,0.286002384 C256.320548,-0.489249835 262.390208,-0.156948099 265.216761,7.37436548 L281.915178,3.17504559 C283.078169,2.88255963 284.344634,2.83723364 285.26176,3.61355235 C287.188875,5.24599907 289.484786,9.14465654 289.402536,16.1365908 L289.70058,16.0614919 C290.473549,15.8672122 291.258899,16.3480232 291.455236,17.1355401 C291.651574,17.9229682 291.183724,18.7188393 290.410756,18.9132078 L227.173271,34.8160544 C226.401187,35.0103341 225.615837,34.529523 225.419499,33.7420061 C225.223162,32.9545781 225.691011,32.158707 226.463095,31.9643385 L227.002581,31.8288049 C225.594611,29.5356652 223.294278,23.5969825 224.460806,19.444144 Z M255.909301,10.3709468 C257.817843,9.89102455 258.977296,7.94742822 258.499718,6.02969437 C258.02214,4.11196052 256.08795,2.94637152 254.179408,3.42629379 C252.27175,3.90621606 251.111413,5.84990127 251.588991,7.76754624 C252.066569,9.6852801 254.000759,10.8508691 255.909301,10.3709468 Z" id="形状" fill="url(#linearGradient-5)"></path>
                <path d="M401.599813,73.2042254 C381.320077,85.5987956 358.461867,79.558847 349.567729,74.9894406 C371.80707,98.9914554 390.047289,111.021714 396.386926,114.03637 C411.846229,121.765802 428.134835,122.453651 434.346614,121.831396 C417.179871,111.877979 405.362751,85.2655081 401.599813,73.2042254 Z" id="路径" fill="url(#linearGradient-6)" fill-rule="nonzero"></path>
                <path d="M391.596651,88.908715 C373.985823,92.7466465 356.239378,80.8130645 349.567729,74.3661972 C370.641192,117.245278 414.093212,124.625503 433.185259,122.955284 C401.436805,122.729313 392.231585,100.163491 391.596651,88.908715 Z" id="路径" fill="url(#linearGradient-7)" fill-rule="nonzero"></path>
                <g id="指数-(2)" transform="translate(279.733028, 83.571429) rotate(-15.000000) translate(-279.733028, -83.571429) translate(246.036697, 50.357143)" fill="#E8E8E8" fill-rule="nonzero">
                    <path d="M63.4137858,60.8485941 L56.9227294,60.8485941 L56.9227294,21.9928984 C56.9227294,19.2785192 54.6587572,17.0934061 51.9209303,17.2219422 C49.3560981,17.3429173 47.3779429,19.5507132 47.3779429,22.1214345 L47.3779429,60.8410332 L39.412672,60.8410332 L39.412672,36.0108902 C39.412672,33.3721204 37.2765654,31.232373 34.6365181,31.232373 C31.9964708,31.232373 29.8603641,33.3721204 29.8603641,36.0108902 L29.8603641,60.8485941 L21.9101362,60.8485941 L21.9101362,45.8854842 C21.9101362,43.171105 19.646164,40.9859919 16.9083372,41.114528 C14.3435049,41.2355031 12.3653498,43.45086 12.3653498,46.0215812 L12.3653498,60.8561551 L3.97887471,60.8561551 C1.78259604,60.8485941 -3.63797881e-12,62.09615 -3.63797881e-12,63.6385828 C-3.63797881e-12,65.1810155 1.78259604,66.4285714 3.97887471,66.4285714 L63.4137858,66.4285714 C65.6100645,66.4285714 67.3926606,65.1810155 67.3926606,63.6385828 C67.3926606,62.09615 65.6100645,60.8485941 63.4137858,60.8485941 Z M8.25860952,34.4306527 C19.5032554,32.1094426 24.5351405,31.0887151 31.3421001,26.1060524 C35.5390983,23.0211869 38.0588016,19.7397368 40.2776448,16.420482 C41.059881,15.2560965 41.6691227,14.1673205 42.1354558,13.1843976 C42.3385364,12.7534238 42.7747835,12.4812298 43.2561597,12.4812298 L46.1293736,12.4812298 C47.2726419,12.4812298 47.7991471,11.0597721 46.9341743,10.3112386 L35.3736253,0.300547559 C34.9072921,-0.10018252 34.2228354,-0.10018252 33.7565023,0.300547559 L22.1884318,10.3036776 C21.323459,11.0522112 21.8499642,12.4736688 22.9932325,12.4736688 L25.3625057,12.4736688 C26.1071345,12.4736688 26.6938116,13.1239101 26.5885106,13.8648827 C26.38543,15.2636575 25.6408013,17.0329186 24.0913718,19.1953488 C20.6089163,24.0494754 14.779752,29.0699428 7.91262041,33.5913878 C7.78475487,33.6745582 7.70201835,33.8257771 7.70201835,33.976996 C7.70201835,34.2718729 7.97279243,34.4911403 8.25860952,34.4306527 Z" id="形状"></path>
                </g>
            </g>
        </g>
    </g>
</svg>
