<?xml version="1.0" encoding="UTF-8"?>
<svg width="39px" height="34px" viewBox="0 0 39 34" version="1.1" xmlns="http://www.w3.org/2000/svg" xmlns:xlink="http://www.w3.org/1999/xlink">
    <g id="页面-1" stroke="none" stroke-width="1" fill="none" fill-rule="evenodd">
        <g id="数据要素_模型管理_用户模型交互样式" transform="translate(-27.000000, -15.000000)">
            <g id="编组-14" transform="translate(27.000000, 15.000000)">
                <path d="M38.3786116,19.2451428 L30.9444653,31.7524527 C30.1159475,33.1431253 28.5894934,34 26.9369606,34 L12.0641651,34 C11.2356473,34 10.4386492,33.7857813 9.74521576,33.3918813 C9.05178236,33.0071621 8.47091932,32.4475704 8.05666041,31.7524527 L7.16060038,30.2441784 L0.618011257,19.2451428 C-0.206003752,17.8544702 -0.206003752,16.1450926 0.618011257,14.7548572 L8.05666041,2.24711011 C8.88067542,0.856874671 10.4116323,0 12.0641651,0 L26.9369606,0 C28.5894934,0 30.1159475,0.856874671 30.9444653,2.24711011 L38.3786116,14.7548572 C39.2071295,16.1450926 39.2071295,17.8544702 38.3786116,19.2451428" id="Fill-19" fill="#00ACB6"></path>
                <path d="M5.29868293,9.0771515 C14.6785495,14.3423513 23.5799508,20.5992281 32.0028869,27.8477819 C32.5300396,28.3013529 33.2891219,27.6499615 32.8867861,27.0891125 L27.9565137,20.2138859 C24.2513956,15.8081967 19.4207112,12.4199312 13.9455814,10.3868002 L5.76829592,8.02711532 C5.09463808,7.83272774 4.69008929,8.73557863 5.29868293,9.0771515" id="Fill-20" fill="#EFF7F9"></path>
                <path d="M16.9934831,22.7729012 C17.0305818,23.2096795 16.9100108,23.6594314 16.6132206,24.0399907 L9.66183725,33 C8.94768579,32.6198732 8.34946801,32.0658999 7.92283208,31.3782984 L7,29.886333 L13.2836054,21.7907987 C13.5803956,21.4063473 13.9977568,21.1598487 14.4522168,21.0556273 C15.0179732,20.9258912 15.6347403,21.021031 16.1402112,21.3626695 L16.1541232,21.371751 C16.6642314,21.7133895 16.9517469,22.232334 16.9934831,22.7729012" id="Fill-21" fill="#EFF7F9"></path>
                <path d="M23.5302744,14.5078742 L20.0673657,12.1984466 C19.5590107,11.8601391 18.849807,11.9648229 18.482277,12.4329214 L13.064441,19.3356714 C12.9914891,19.42844 12.9794843,19.5505712 13.0335057,19.6535528 L13.5487865,20.6429428 L16.8676381,22.8553463 L18.0482591,22.997478 C18.1720004,23.0119465 18.2938948,22.9634345 18.366385,22.8706659 L23.7846827,15.9687669 C24.151751,15.5002429 24.0381676,14.8466072 23.5302744,14.5078742" id="Fill-22" fill="#EFF7F9"></path>
                <path d="M30.948513,18.9524828 L30.3285505,18.6779329 C30.0497156,18.554216 29.9238586,18.2275525 30.0475968,17.9487657 L30.322194,17.32891 C30.4459323,17.0496995 30.7722284,16.9238642 31.051487,17.0475811 L31.6714495,17.322131 C31.9502844,17.4458479 32.0761414,17.7725114 31.9524032,18.0512982 L31.677806,18.6711539 C31.5540677,18.9499407 31.2273479,19.0761998 30.948513,18.9524828" id="Fill-23" fill="#F4CF1F"></path>
                <path d="M27.948513,6.95248284 L27.3285505,6.67793294 C27.0497156,6.55421601 26.9238586,6.22755248 27.0475968,5.9487657 L27.322194,5.32891 C27.4459323,5.04969953 27.7722284,4.92386416 28.051487,5.04758109 L28.6714495,5.32213099 C28.9502844,5.44584791 29.0761414,5.77251145 28.9524032,6.05129823 L28.677806,6.67115393 C28.5540677,6.94994071 28.2277716,7.07619977 27.948513,6.95248284" id="Fill-24" fill="#F4CF1F"></path>
                <path d="M31.6398799,14.9522296 L30.3301543,14.3715945 C30.0502584,14.2473854 29.9234971,13.9194223 30.0477062,13.6395264 L30.6287667,12.3298007 C30.7529758,12.0499048 31.0805135,11.9235688 31.3604094,12.047778 L32.670135,12.6284131 C32.9504562,12.7521968 33.0763668,13.0801599 32.9521577,13.3604812 L32.371948,14.6697815 C32.2477389,14.9501027 31.9197758,15.0764387 31.6398799,14.9522296" id="Fill-25" fill="#F4CF1F"></path>
            </g>
        </g>
    </g>
</svg>
