<svg width="94" height="24" viewBox="0 0 94 24" fill="none" xmlns="http://www.w3.org/2000/svg">
<path d="M25.792 5.758C26.73 6.5 27.528 7.242 28.172 7.984L27.444 8.698C26.884 7.998 26.1 7.228 25.106 6.416L25.792 5.758ZM33.898 18.148C33.142 18.148 32.33 18.134 31.448 18.12C30.566 18.106 29.838 18.022 29.278 17.868C28.746 17.7 28.256 17.35 27.822 16.846C27.64 16.608 27.458 16.496 27.29 16.496C26.954 16.496 26.394 17.14 25.61 18.428L24.854 17.742C25.61 16.566 26.268 15.852 26.856 15.6V11.344H24.854V10.42H27.794V15.67C27.906 15.754 28.004 15.866 28.116 15.992C28.452 16.398 28.816 16.692 29.194 16.888C29.614 17.084 30.244 17.196 31.056 17.224C31.784 17.238 32.694 17.252 33.772 17.252C34.444 17.252 35.116 17.238 35.816 17.238C36.502 17.21 37.034 17.196 37.398 17.182L37.174 18.148H33.898ZM36.236 5.716L36.726 6.584C34.92 7.06 32.904 7.326 30.692 7.382L30.706 8.992H36.586V9.706C36.18 11.022 35.606 12.184 34.864 13.206C35.704 13.99 36.474 14.788 37.174 15.6L36.502 16.398C35.844 15.558 35.102 14.746 34.276 13.962C33.394 14.97 32.33 15.838 31.07 16.538L30.468 15.74C31.7 15.068 32.722 14.256 33.562 13.304C32.778 12.604 31.938 11.946 31.028 11.302L31.616 10.588C32.512 11.218 33.366 11.876 34.15 12.562C34.752 11.736 35.228 10.84 35.578 9.86H30.692C30.622 12.604 30.146 14.662 29.264 16.062L28.354 15.614C29.25 14.186 29.726 12.17 29.768 9.58V6.5C32.316 6.444 34.472 6.178 36.236 5.716ZM42.312 9.468H47.716V14.452H42.312V9.468ZM46.764 13.598V10.336H43.25V13.598H46.764ZM50.614 6.402V18.176H49.634V17.574H40.366V18.176H39.386V6.402H50.614ZM40.366 16.678H49.634V7.298H40.366V16.678ZM57.824 5.562H58.86V9.888H64.054V10.868H58.86V16.86H65.244V17.84H52.784V16.86H57.824V5.562ZM66.7 11.358H79.286V12.366H66.7V11.358ZM84.872 15.446V16.398C83.64 16.902 82.254 17.308 80.686 17.602L80.56 16.622C82.198 16.328 83.64 15.936 84.872 15.446ZM83.164 5.548L84.116 5.926C83.388 7.69 82.646 9.09 81.89 10.126C82.562 10.056 83.234 9.972 83.906 9.86C84.172 9.384 84.452 8.894 84.746 8.376L85.628 8.698C84.312 10.966 83.234 12.59 82.366 13.556C83.374 13.374 84.396 13.122 85.404 12.814V13.724C83.92 14.172 82.492 14.466 81.134 14.634L80.868 13.724C81.05 13.654 81.204 13.556 81.33 13.444C81.89 12.912 82.562 12.03 83.346 10.77C82.534 10.896 81.722 11.008 80.91 11.106L80.658 10.182C80.812 10.126 80.952 10 81.078 9.818C81.876 8.572 82.576 7.144 83.164 5.548ZM86.986 7.088H85.6V6.136H91.746V6.766C91.522 8.026 91.298 9.104 91.074 10H92.852V10.56C92.558 12.492 91.914 14.13 90.906 15.46C91.634 16.244 92.488 16.93 93.468 17.546L92.838 18.386C91.858 17.742 91.004 17.014 90.304 16.202C89.464 17.098 88.428 17.826 87.224 18.414L86.664 17.49C87.84 16.916 88.834 16.202 89.632 15.362C88.792 14.228 88.148 12.94 87.714 11.512C87.294 14.466 86.37 16.748 84.956 18.344L84.214 17.686C86.034 15.642 86.958 12.366 86.986 7.844V7.088ZM90.22 14.662C91.032 13.584 91.564 12.324 91.844 10.882H89.898C90.15 10.014 90.416 8.754 90.71 7.088H87.966V7.844C87.966 8.362 87.952 8.866 87.924 9.342C88.274 11.386 89.044 13.164 90.22 14.662Z" fill="#356DF6"/>
<path d="M16.2858 18.2279L16.2858 16.9723C16.2858 16.887 16.2439 16.8066 16.1753 16.7564L9.61949 12.0002L16.1753 7.24411C16.2439 7.19389 16.2858 7.11353 16.2858 7.02815L16.2858 5.77257C16.2858 5.66375 16.1619 5.60014 16.0732 5.66375L7.93534 11.5667C7.64069 11.7809 7.64069 12.2196 7.93534 12.4322L16.0732 18.3351C16.1619 18.4004 16.2858 18.3367 16.2858 18.2279V18.2279Z" fill="black" fill-opacity="0.25"/>
</svg>
