<?xml version="1.0" encoding="UTF-8"?>
<svg width="20px" height="20px" viewBox="0 0 20 20" version="1.1" xmlns="http://www.w3.org/2000/svg" xmlns:xlink="http://www.w3.org/1999/xlink">
    <g id="AI中台第二期" stroke="none" stroke-width="1" fill="none" fill-rule="evenodd">
        <g id="画板" transform="translate(-1347.000000, -834.000000)">
            <g id="编组-19" transform="translate(1347.000000, 834.000000)">
                <polygon id="路径" points="0 0 20 0 20 20 0 20"></polygon>
                <path d="M3.33333333,2.5 L16.6666667,2.5 C17.126904,2.5 17.5,2.87309604 17.5,3.33333333 L17.5,9.16666667 L2.5,9.16666667 L2.5,3.33333333 C2.5,2.87309604 2.87309604,2.5 3.33333333,2.5 Z M2.5,10.8333333 L17.5,10.8333333 L17.5,16.6666667 C17.5,17.126904 17.126904,17.5 16.6666667,17.5 L3.33333333,17.5 C2.87309604,17.5 2.5,17.126904 2.5,16.6666667 L2.5,10.8333333 Z M5.83333333,13.3333333 L5.83333333,15 L8.33333333,15 L8.33333333,13.3333333 L5.83333333,13.3333333 Z M5.83333333,5 L5.83333333,6.66666667 L8.33333333,6.66666667 L8.33333333,5 L5.83333333,5 Z" id="形状" fill="#FFFFFF" fill-rule="nonzero"></path>
            </g>
        </g>
    </g>
</svg>
