<?xml version="1.0" encoding="UTF-8"?>
<svg width="16px" height="16px" viewBox="0 0 17 16" version="1.1" xmlns="http://www.w3.org/2000/svg" xmlns:xlink="http://www.w3.org/1999/xlink">
    <title>编组 57</title>
    <g id="页面-1" stroke="none" stroke-width="1" fill="none" fill-rule="evenodd">
        <g id="画板" transform="translate(-1728.000000, -918.000000)">
            <g id="编组-31备份-2" transform="translate(1724.000000, 918.000000)">
                <g id="编组-31备份" transform="translate(0.000000, 0.000000)">
                    <g id="编组-57" transform="translate(4.896655, 0.000000)">
                        <rect id="矩形备份-129" fill="#D8D8D8" opacity="0" x="0.10334487" y="5.68434189e-14" width="16" height="16"></rect>
                        <rect id="矩形备份-4" fill-opacity="0.405125758" fill="#86C6CC" x="13.4829143" y="9" width="2" height="2" rx="0.400000006"></rect>
                        <rect id="矩形备份-7" fill-opacity="0.405125758" fill="#86C6CC" x="7.48291425" y="0" width="2" height="2" rx="0.400000006"></rect>
                        <rect id="矩形备份-6" fill-opacity="0.405125758" fill="#86C6CC" x="11.0884698" y="2" width="4" height="4" rx="0.467999995"></rect>
                        <path d="M-0.000427782365,8.1837041 C5.05622765,7.62044676 10.1856169,7.81418531 15.3877401,8.76491975 C15.7131827,8.82428783 15.8396404,8.15644971 15.5348608,7.98679643 L11.7991925,5.90912478 C9.1915188,4.78768069 6.4098624,4.68669157 3.73110787,5.61672112 L-0.0919649823,7.39628471 C-0.407076111,7.54290909 -0.328556616,8.22025455 -0.000427782365,8.1837041" id="Fill-1" fill-opacity="0.68" fill="#4CAAB4" fill-rule="nonzero" transform="translate(7.708451, 6.877596) rotate(-320.000000) translate(-7.708451, -6.877596) "></path>
                        <path d="M3.26682933,15.3109191 L3.25587792,15.3104965 C2.53019249,15.2842985 1.95080128,15.0033037 1.96195931,14.6828005 L2.16920945,8.70690641 C2.18036748,8.38661454 2.77773553,8.14829711 3.50362759,8.1747064 L3.51437236,8.17512894 C4.24026443,8.20132696 4.81965564,8.4823218 4.80849761,8.80261367 L4.60124747,14.7785078 C4.58988281,15.0990109 3.99272139,15.3373284 3.26682933,15.3109191" id="Fill-3" fill-opacity="0.68" fill="#4CAAB4" fill-rule="nonzero" transform="translate(3.385228, 11.742813) rotate(-320.000000) translate(-3.385228, -11.742813) "></path>
                        <path d="M8.74082846,4.9012017 L5.98665388,4.80105768 C5.58289838,4.78647975 5.24753748,5.00705014 5.2374126,5.29353811 L5.09091176,9.52071469 C5.08884545,9.57754748 5.13079139,9.63142243 5.20021916,9.66078956 L5.86577519,9.94495352 L8.50485672,10.0406608 L9.18838958,9.80551247 C9.25988364,9.78121592 9.3053423,9.73029881 9.30720197,9.6736773 L9.45390944,5.44671199 C9.4638277,5.16001274 9.14458396,4.91577963 8.74082846,4.9012017" id="Fill-5" fill="#4CAAB4" fill-rule="nonzero" transform="translate(7.272487, 7.420518) rotate(-320.000000) translate(-7.272487, -7.420518) "></path>
                    </g>
                </g>
            </g>
        </g>
    </g>
</svg>
