<?xml version="1.0" encoding="UTF-8"?>
<svg width="16px" height="16px" viewBox="0 0 16 16" version="1.1" xmlns="http://www.w3.org/2000/svg" xmlns:xlink="http://www.w3.org/1999/xlink">
    <title>编组 51</title>
    <g id="页面-1" stroke="none" stroke-width="1" fill="none" fill-rule="evenodd">
        <g id="画板" transform="translate(-1888.000000, -1009.000000)">
            <g id="编组-51" transform="translate(1888.000000, 1009.000000)">
                <path d="M14.8873317,4.812848 C15.0375561,4.66658514 15.0375561,4.43017049 14.8873317,4.28390763 L12.648217,2.10941659 C12.4979926,1.9635278 12.2541667,1.9635278 12.1035571,2.10941659 L10.5296671,3.63750809 L6.2120624,3.63750809 L6.2120624,3.02627149 C6.2120624,2.81978275 6.03988207,2.65219768 5.82687151,2.65219768 L2.53926725,2.65219768 C2.32664188,2.65219768 2.15407636,2.81978275 2.15407636,3.02627149 L2.15407636,6.21936551 C2.15407636,6.42585426 2.32664188,6.59343932 2.53926725,6.59343932 L5.82687151,6.59343932 C6.03988207,6.59343932 6.2120624,6.42585426 6.2120624,6.21936551 L6.2120624,5.60775484 L10.6829731,5.60775484 L11.3678425,6.27285807 L11.3678425,10.6394216 L10.7184106,10.6394216 C10.5057853,10.6394216 10.3332198,10.8066326 10.3332198,11.0134954 L10.3332198,11.710769 L6.51520763,11.710769 C6.13463903,10.9315733 5.3195751,10.3914107 4.37277589,10.3914107 C3.06235648,10.3914107 2,11.4231063 2,12.6957053 C2,13.9686785 3.06235648,15 4.37277589,15 C5.3195751,15 6.13463903,14.4598374 6.51520763,13.6806417 L10.3332198,13.6806417 L10.3332198,14.2451191 C10.3332198,14.4519819 10.5057853,14.6191929 10.7184106,14.6191929 L14.0460748,14.6191929 C14.2587001,14.6191929 14.4312656,14.4519819 14.4312656,14.2451191 L14.4312656,11.0134954 C14.4312656,10.8066326 14.2587001,10.6394216 14.0460748,10.6394216 L13.3962577,10.6394216 L13.3962577,6.26051363 L14.8873317,4.812848 Z" id="Fill-1" fill="#4CAAB4"></path>
                <rect id="矩形备份-139" fill="#575353" opacity="0" x="0" y="0" width="16" height="16"></rect>
            </g>
        </g>
    </g>
</svg>
