<?xml version="1.0" encoding="UTF-8"?>
<svg width="13px" height="12px" viewBox="0 0 13 12" version="1.1" xmlns="http://www.w3.org/2000/svg" xmlns:xlink="http://www.w3.org/1999/xlink">
    <title>形状</title>
    <g id="页面-1" stroke="none" stroke-width="1" fill="none" fill-rule="evenodd">
        <g id="画板" transform="translate(-1757.000000, -1011.000000)" fill="#CED0D7" fill-rule="nonzero">
            <path d="M1757.65,1011 L1769.35,1011 C1769.70899,1011 1770,1011.29848 1770,1011.66667 L1770,1022.33333 C1770,1022.70152 1769.70899,1023 1769.35,1023 L1757.65,1023 C1757.29101,1023 1757,1022.70152 1757,1022.33333 L1757,1011.66667 C1757,1011.29848 1757.29101,1011 1757.65,1011 Z M1763,1019.5 C1763,1019.77614 1763.22386,1020 1763.5,1020 L1766.5,1020 C1766.77614,1020 1767,1019.77614 1767,1019.5 C1767,1019.22386 1766.77614,1019 1766.5,1019 L1763.5,1019 C1763.22386,1019 1763,1019.22386 1763,1019.5 Z M1759.99982,1017.99976 L1759.50009,1018.49947 C1759.22387,1018.77567 1759.22379,1019.22347 1759.49991,1019.49976 C1759.77592,1019.77596 1760.22357,1019.7761 1760.49976,1019.50009 C1760.49981,1019.50004 1760.49986,1019.49999 1760.49991,1019.49994 L1761.49991,1018.5 C1762.32834,1017.67162 1762.32838,1016.32852 1761.5,1015.50009 C1761.49997,1015.50006 1761.49994,1015.50003 1761.49991,1015.5 L1760.49991,1014.50006 C1760.2238,1014.22397 1759.77615,1014.22398 1759.50006,1014.50009 C1759.50001,1014.50014 1759.49996,1014.50019 1759.49991,1014.50024 C1759.22379,1014.77653 1759.22387,1015.22433 1759.50009,1015.50053 L1759.99982,1016.00024 C1760.55198,1016.55236 1760.552,1017.44755 1759.99988,1017.99971 C1759.99986,1017.99973 1759.99984,1017.99974 1759.99982,1017.99976 Z" id="形状"></path>
        </g>
    </g>
</svg>