<?xml version="1.0" encoding="UTF-8"?>
<svg width="20px" height="15px" viewBox="0 0 20 15" version="1.1" xmlns="http://www.w3.org/2000/svg" xmlns:xlink="http://www.w3.org/1999/xlink">
    <title>编组备份 2</title>
    <defs>
        <polygon id="path-1" points="0 0 20 0 20 15 0 15"></polygon>
    </defs>
    <g id="页面-1" stroke="none" stroke-width="1" fill="none" fill-rule="evenodd">
        <g id="画板" transform="translate(-1853.000000, -1010.000000)">
            <g id="编组备份-2" transform="translate(1853.000000, 1010.000000)">
                <g id="编组">
                    <mask id="mask-2" fill="white">
                        <use xlink:href="#path-1"></use>
                    </mask>
                    <g id="Clip-2"></g>
                    <path d="M20,9.52402472 C20,6.97606274 18.2494809,4.83439268 15.8782072,4.22342411 C15.3084856,1.80316637 13.1255059,0 10.5166649,0 C7.47492345,0 5.00862281,2.45130911 5.00862281,5.47510059 C5.00862281,5.55732113 5.01170239,5.63866698 5.01478197,5.72001283 C4.9025974,5.71170331 4.78909302,5.70645519 4.67470876,5.70645519 C2.09270404,5.70645519 -8.79878929e-05,7.78645985 -8.79878929e-05,10.3532276 C-8.79878929e-05,12.919558 2.09270404,15 4.67470876,15 C4.74333932,15 4.81152993,14.9982506 4.87972055,14.9951892 C4.93339317,14.9982506 4.98750572,15 5.04249815,15 L14.8395101,15 C15.1289903,15 15.4079119,14.955391 15.6696759,14.8731704 C18.1456552,14.3369876 20,12.1463351 20,9.52402472" id="Fill-1" fill="#CED0D7" mask="url(#mask-2)"></path>
                </g>
                <path d="M7.40822863,9.24937314 C7.53581107,9.24937314 7.62599866,9.12560499 7.58640411,9.00489824 L7.16318235,7.72217039 C7.13106677,7.62551752 7.10818991,7.49737594 7.09499173,7.33818298 L7.0690353,7.33818298 C7.05759687,7.46719925 7.03208039,7.59140475 6.99160596,7.71079946 L6.56574455,9.00489824 C6.52615,9.12560499 6.61633759,9.24937314 6.74392004,9.24937314 L7.40822863,9.24937314 Z M8.98541161,10.984314 L8.35761799,10.984314 C8.27666913,10.984314 8.204959,10.9322701 8.17944251,10.855735 L7.93219653,10.1030672 C7.90711998,10.0260948 7.83540985,9.97448831 7.75402105,9.97448831 L6.41616514,9.97448831 C6.33477633,9.97448831 6.26262626,10.0265322 6.23754971,10.1039419 L5.99514307,10.8548603 C5.97006652,10.9318328 5.89791645,10.984314 5.81652765,10.984314 L5.19753282,10.984314 C5.06731074,10.984314 4.97668321,10.8552977 5.02155703,10.7341536 L6.50635273,6.70141116 C6.53318903,6.62793749 6.60357935,6.57939238 6.68232851,6.57939238 L7.52921198,6.57939238 C7.60840108,6.57939238 7.67923134,6.62837483 7.70562771,6.70228585 L9.16182733,10.7345909 C9.20538134,10.8561724 9.11519375,10.984314 8.98541161,10.984314 L8.98541161,10.984314 Z" id="Fill-3" fill="#F3F3F3"></path>
                <path d="M10.7565199,7.49317744 L10.7565199,8.54236399 C10.7565199,8.645577 10.8401084,8.72910957 10.9439341,8.72910957 L11.1656636,8.72910957 C11.7204273,8.72910957 11.9980291,8.48900811 11.9980291,8.00967986 C11.9980291,7.54084786 11.7235068,7.30686921 11.1740225,7.30686921 L10.9439341,7.30686921 C10.8401084,7.30686921 10.7565199,7.39040177 10.7565199,7.49317744 M10.7565199,9.63441017 L10.7565199,10.7981807 C10.7565199,10.900519 10.6724915,10.9840515 10.5691057,10.9840515 L9.99982402,10.9840515 C9.89643825,10.9840515 9.81240981,10.900519 9.81240981,10.7981807 L9.81240981,6.76543822 C9.81240981,6.66266255 9.89643825,6.57912998 9.99982402,6.57912998 L11.33724,6.57912998 C12.4392884,6.57912998 12.9905325,7.04358855 12.9905325,7.97250569 C12.9905325,8.42384396 12.8242354,8.78552685 12.4912012,9.05755438 C12.158607,9.3295819 11.7424242,9.4599102 11.242653,9.44853927 L10.9439341,9.44853927 C10.8401084,9.44853927 10.7565199,9.5316345 10.7565199,9.63441017" id="Fill-5" fill="#F3F3F3"></path>
                <path d="M14.7971879,7.30997434 L14.7914687,7.30997434 C14.687643,7.30997434 14.6040545,7.39306957 14.6040545,7.49628258 L14.6040545,10.0669864 C14.6040545,10.1697621 14.687643,10.2528573 14.7914687,10.2528573 L14.7971879,10.2528573 C14.9005737,10.2528573 14.9846021,10.3368272 14.9846021,10.4396029 L14.9846021,10.7982244 C14.9846021,10.9005627 14.9005737,10.9840953 14.7971879,10.9840953 L13.4725302,10.9840953 C13.3691444,10.9840953 13.285116,10.9005627 13.285116,10.7982244 L13.285116,10.4396029 C13.285116,10.3368272 13.3691444,10.2528573 13.4725302,10.2528573 C13.5763559,10.2528573 13.6599444,10.1697621 13.6599444,10.0669864 L13.6599444,7.49628258 C13.6599444,7.39306957 13.5763559,7.30997434 13.4725302,7.30997434 C13.3691444,7.30997434 13.285116,7.22644178 13.285116,7.1236661 L13.285116,6.76548195 C13.285116,6.66270628 13.3691444,6.57917371 13.4725302,6.57917371 L14.7971879,6.57917371 C14.9005737,6.57917371 14.9846021,6.66270628 14.9846021,6.76548195 L14.9846021,7.1236661 C14.9846021,7.22644178 14.9005737,7.30997434 14.7971879,7.30997434" id="Fill-7" fill="#F3F3F3"></path>
            </g>
        </g>
    </g>
</svg>