<?xml version="1.0" encoding="UTF-8"?>
<svg width="15px" height="14px" viewBox="0 0 15 14" version="1.1" xmlns="http://www.w3.org/2000/svg" xmlns:xlink="http://www.w3.org/1999/xlink">
    <title>编组 15</title>
    <g id="页面-1" stroke="none" stroke-width="1" fill="none" fill-rule="evenodd">
        <g id="画板" transform="translate(-1726.000000, -1010.000000)">
            <g id="编组-15" transform="translate(1726.000000, 1010.000000)">
                <rect id="矩形备份-4" fill="#E6E8EB" x="12.2916954" y="8" width="2" height="2" rx="0.344000005"></rect>
                <rect id="矩形备份-7" fill="#E6E8EB" x="6.29169539" y="0" width="2" height="2" rx="0.344000005"></rect>
                <rect id="矩形备份-6" fill="#E6E8EB" x="9.29169539" y="3" width="3" height="3" rx="0.402479995"></rect>
                <path d="M-0.270211986,7.48643118 C4.1543414,7.01705007 8.64253662,7.17849886 13.1943737,7.97077756 C13.4791347,8.02025096 13.5897847,7.46371919 13.3231037,7.32234146 L10.0544089,5.59094842 C7.77270472,4.65641168 5.33876643,4.57225407 2.99486687,5.3472787 L-0.350306672,6.83024836 C-0.626027656,6.95243534 -0.55732341,7.5168899 -0.270211986,7.48643118" id="Fill-1" fill="#CED0D7" transform="translate(6.475026, 6.398008) rotate(-320.000000) translate(-6.475026, -6.398008) "></path>
                <path d="M2.76285431,13.4208366 L2.75327188,13.4204845 C2.11830001,13.3986528 1.611335,13.1644904 1.62109824,12.8974045 L1.80244128,7.9174927 C1.81220452,7.65058281 2.33489918,7.45198495 2.97005185,7.47399269 L2.97945348,7.47434482 C3.61460615,7.4961765 4.12157116,7.73033887 4.11180792,7.99724876 L3.93046488,12.9771605 C3.92052084,13.2442465 3.39800698,13.4428443 2.76285431,13.4208366" id="Fill-3" fill="#CED0D7" transform="translate(2.866453, 10.447415) rotate(-320.000000) translate(-2.866453, -10.447415) "></path>
                <path d="M7.39699512,4.75141464 L4.98710332,4.66796128 C4.63381886,4.65581301 4.34037941,4.83962167 4.33152018,5.07836165 L4.20333253,8.60100879 C4.20152452,8.64836945 4.23822705,8.69326525 4.29897607,8.71773785 L4.88133495,8.95454115 L7.19052079,9.03429721 L7.78860932,8.83834028 C7.85116634,8.81809316 7.89094249,8.77566223 7.89256969,8.72847763 L8.02093815,5.20600655 C8.02961658,4.96709051 7.75027958,4.76356291 7.39699512,4.75141464" id="Fill-5" fill="#CED0D7" transform="translate(6.112202, 6.850845) rotate(-320.000000) translate(-6.112202, -6.850845) "></path>
            </g>
        </g>
    </g>
</svg>