<?xml version="1.0" encoding="UTF-8"?>
<svg width="13px" height="13px" viewBox="0 0 13 13" version="1.1" xmlns="http://www.w3.org/2000/svg" xmlns:xlink="http://www.w3.org/1999/xlink">
    <title>Fill 1</title>
    <g id="页面-1" stroke="none" stroke-width="1" fill="none" fill-rule="evenodd">
        <g id="画板" transform="translate(-1890.000000, -1010.000000)" fill="#CED0D7">
            <path d="M1902.88733,1012.81285 C1903.03756,1012.66659 1903.03756,1012.43017 1902.88733,1012.28391 L1900.64822,1010.10942 C1900.49799,1009.96353 1900.25417,1009.96353 1900.10356,1010.10942 L1898.52967,1011.63751 L1894.21206,1011.63751 L1894.21206,1011.02627 C1894.21206,1010.81978 1894.03988,1010.6522 1893.82687,1010.6522 L1890.53927,1010.6522 C1890.32664,1010.6522 1890.15408,1010.81978 1890.15408,1011.02627 L1890.15408,1014.21937 C1890.15408,1014.42585 1890.32664,1014.59344 1890.53927,1014.59344 L1893.82687,1014.59344 C1894.03988,1014.59344 1894.21206,1014.42585 1894.21206,1014.21937 L1894.21206,1013.60775 L1898.68297,1013.60775 L1899.36784,1014.27286 L1899.36784,1018.63942 L1898.71841,1018.63942 C1898.50579,1018.63942 1898.33322,1018.80663 1898.33322,1019.0135 L1898.33322,1019.71077 L1894.51521,1019.71077 C1894.13464,1018.93157 1893.31958,1018.39141 1892.37278,1018.39141 C1891.06236,1018.39141 1890,1019.42311 1890,1020.69571 C1890,1021.96868 1891.06236,1023 1892.37278,1023 C1893.31958,1023 1894.13464,1022.45984 1894.51521,1021.68064 L1898.33322,1021.68064 L1898.33322,1022.24512 C1898.33322,1022.45198 1898.50579,1022.61919 1898.71841,1022.61919 L1902.04607,1022.61919 C1902.2587,1022.61919 1902.43127,1022.45198 1902.43127,1022.24512 L1902.43127,1019.0135 C1902.43127,1018.80663 1902.2587,1018.63942 1902.04607,1018.63942 L1901.39626,1018.63942 L1901.39626,1014.26051 L1902.88733,1012.81285 Z" id="Fill-1"></path>
        </g>
    </g>
</svg>