<svg width="51" height="120" viewBox="0 0 51 120" fill="none" xmlns="http://www.w3.org/2000/svg">
<g id="Group 427338838">
<path id="Vector 1223" d="M51 60L46 62.8868V57.1132L51 60ZM46.5 60.5H33.5V59.5H46.5V60.5ZM25 52V9H26V52H25ZM17.5 1.5H0V0.5H17.5V1.5ZM25 9C25 4.85787 21.6421 1.5 17.5 1.5V0.5C22.1944 0.5 26 4.30558 26 9H25ZM33.5 60.5C28.8056 60.5 25 56.6944 25 52H26C26 56.1421 29.3579 59.5 33.5 59.5V60.5Z" fill="#9FA9AE"/>
<path id="Vector 1224" d="M51 60L46 57.1132V62.8868L51 60ZM46.5 59.5H33.5V60.5H46.5V59.5ZM25 68V111H26V68H25ZM17.5 118.5H0V119.5H17.5V118.5ZM25 111C25 115.142 21.6421 118.5 17.5 118.5V119.5C22.1944 119.5 26 115.694 26 111H25ZM33.5 59.5C28.8056 59.5 25 63.3056 25 68H26C26 63.8579 29.3579 60.5 33.5 60.5V59.5Z" fill="#9FA9AE"/>
</g>
</svg>
