<svg width="51" height="124" viewBox="0 0 51 124" fill="none" xmlns="http://www.w3.org/2000/svg">
<g id="Group 427339164">
<path id="Vector 1223" d="M51 3L46 0.113249V5.88675L51 3ZM0 62.5H17.5V61.5H0V62.5ZM26 54V11H25V54H26ZM33.5 3.5H46.5V2.5H33.5V3.5ZM26 11C26 6.85787 29.3579 3.5 33.5 3.5V2.5C28.8056 2.5 25 6.30558 25 11H26ZM17.5 62.5C22.1944 62.5 26 58.6944 26 54H25C25 58.1421 21.6421 61.5 17.5 61.5V62.5Z" fill="#9FA9AE"/>
<path id="Vector 1224" d="M51 121L46 123.887V118.113L51 121ZM0 61.5H17.5V62.5H0V61.5ZM26 70V113H25V70H26ZM33.5 120.5H46.5V121.5H33.5V120.5ZM26 113C26 117.142 29.3579 120.5 33.5 120.5V121.5C28.8056 121.5 25 117.694 25 113H26ZM17.5 61.5C22.1944 61.5 26 65.3056 26 70H25C25 65.8579 21.6421 62.5 17.5 62.5V61.5Z" fill="#9FA9AE"/>
</g>
</svg>
