<?xml version="1.0" encoding="UTF-8"?>
<svg width="24px" height="24px" viewBox="0 0 24 24" version="1.1" xmlns="http://www.w3.org/2000/svg" xmlns:xlink="http://www.w3.org/1999/xlink">
    <title>编组 18</title>
    <defs>
        <linearGradient x1="50%" y1="1.22921556%" x2="50%" y2="100%" id="linearGradient-1">
            <stop stop-color="#F8F8F8" offset="0%"></stop>
            <stop stop-color="#C1C4C5" offset="100%"></stop>
        </linearGradient>
    </defs>
    <g id="后台" stroke="none" stroke-width="1" fill="none" fill-rule="evenodd">
        <g id="画板" transform="translate(-827.000000, -491.000000)">
            <g id="编组-18" transform="translate(827.000000, 491.000000)">
                <path d="M4.28572273,3 L21,20.3858419 L19.7142955,21.7232034 L16.3080239,18.1798857 L12.6427386,22 L4.93463896,13.9694002 C3.08028608,11.8097817 3.09049571,8.52907551 4.96527695,6.38188302 L3,4.33738045 L4.28572273,3 Z M20.3305539,6.66230437 C22.4795488,8.80701708 22.5533475,12.2239375 20.5547044,14.4524954 L19.0021776,16 L8,5.04304324 C9.58506657,4.84803496 11.2366944,5.31564431 12.5026695,6.44585237 C14.7338213,4.45137813 18.181559,4.51759166 20.3305539,6.66230437 Z" id="形状结合" fill="url(#linearGradient-1)" fill-rule="nonzero"></path>
                <rect id="矩形备份-13" fill-opacity="0.318756317" fill="#D8D8D8" opacity="0" x="0" y="0" width="24" height="24"></rect>
            </g>
        </g>
    </g>
</svg>