<?xml version="1.0" encoding="UTF-8"?>
<svg width="51px" height="51px" viewBox="0 0 51 51" version="1.1" xmlns="http://www.w3.org/2000/svg" xmlns:xlink="http://www.w3.org/1999/xlink">
    <g id="后台" stroke="none" stroke-width="1" fill="none" fill-rule="evenodd">
        <g id="画板" transform="translate(-609.000000, -613.000000)" fill="#2554FF">
            <g id="编组-4" transform="translate(609.000000, 613.000000)">
                <rect id="矩形" fill-opacity="0.0502110194" x="0" y="0" width="51" height="51" rx="25.5"></rect>
                <path d="M19.76282,30 L34,30 L34,18 L18,18 L18,31.3851 L19.76282,30 Z M20.45455,32 L16,35.5 L16,17 C16,16.44772 16.44772,16 17,16 L35,16 C35.5523,16 36,16.44772 36,17 L36,31 C36,31.5523 35.5523,32 35,32 L20.45455,32 Z M25,27 L27,27 L27,29 L25,29 L25,27 Z M22.56731,21.81346 C22.88637,20.20919 24.302,19 26,19 C27.933,19 29.5,20.567 29.5,22.5 C29.5,24.433 27.933,26 26,26 L25,26 L25,24 L26,24 C26.8284,24 27.5,23.3284 27.5,22.5 C27.5,21.67157 26.8284,21 26,21 C25.2723,21 24.6656,21.51823 24.5288,22.20577 L22.56731,21.81346 Z" id="形状" fill-rule="nonzero"></path>
            </g>
        </g>
    </g>
</svg>
