<?xml version="1.0" encoding="UTF-8"?>
<svg width="16px" height="16px" viewBox="0 0 16 16" version="1.1" xmlns="http://www.w3.org/2000/svg" xmlns:xlink="http://www.w3.org/1999/xlink">
    <title>编组 11</title>
    <g id="后台" stroke="none" stroke-width="1" fill="none" fill-rule="evenodd">
        <g id="画板" transform="translate(-930.000000, -761.000000)">
            <g id="编组-11" transform="translate(930.000000, 761.000000)">
                <path d="M0,8.49998833 C0,7.82729443 0.08776,7.17452068 0.25276,6.55194618 C1.124976,6.59592612 1.990784,6.17365022 2.45744,5.38748154 C2.923736,4.60190424 2.867248,3.66228043 2.392968,2.94974625 C3.346832,2.03799508 4.534656,1.35707635 5.860824,1 C6.25776,1.75674756 7.06664,2.27495919 8,2.27495919 C8.93336,2.27495919 9.74224,1.75674756 10.1392,1 C11.46536,1.35707635 12.6532,2.03799508 13.60704,2.94974625 C13.13272,3.66228043 13.07624,4.60190424 13.54256,5.38748154 C14.0092,6.17365022 14.87504,6.59592612 15.74728,6.55194618 C15.91224,7.17452068 16,7.82729443 16,8.49998833 C16,9.17268222 15.91224,9.82545597 15.74728,10.4480383 C14.87504,10.4040739 14.0092,10.8263653 13.54256,11.6125107 C13.07624,12.3981113 13.13272,13.337704 13.60704,14.0502382 C12.6532,14.9619738 11.46536,15.6429159 10.1392,16 C9.74224,15.243268 8.93336,14.725033 8,14.725033 C7.06664,14.725033 6.25776,15.243268 5.860824,16 C4.534656,15.6429159 3.346832,14.9619738 2.392968,14.0502382 C2.867248,13.337704 2.923736,12.3981113 2.45744,11.6125107 C1.990784,10.8263653 1.124976,10.4040739 0.25276,10.4480383 C0.08776,9.82545597 0,9.17268222 0,8.49998833 Z M3.84308,10.8343801 C4.34716,11.6836318 4.491664,12.6599523 4.294544,13.5763567 C4.620776,13.8021702 4.96804,13.9977922 5.331912,14.1603437 C6.049408,13.5355826 6.99136,13.1687719 8,13.1687719 C9.00864,13.1687719 9.95056,13.5355826 10.66808,14.1603437 C11.03192,13.9977922 11.3792,13.8021702 11.70544,13.5763567 C11.50832,12.6599523 11.6528,11.6836318 12.15696,10.8343801 C12.66096,9.98520618 13.458,9.37538524 14.3724,9.0831972 C14.39072,8.89037644 14.4,8.69592161 14.4,8.49998833 C14.4,8.30413286 14.39072,8.10960021 14.3724,7.91685727 C13.458,7.62466923 12.66096,7.01484829 12.15696,6.16561213 C11.6528,5.31638375 11.50832,4.34008664 11.70544,3.4236589 C11.3792,3.19786875 11.03192,3.00223894 10.66808,2.83964855 C9.95056,3.46442517 9.00864,3.83122036 8,3.83122036 C6.99136,3.83122036 6.049408,3.46442517 5.331912,2.83964855 C4.96804,3.00223894 4.620776,3.19786875 4.294544,3.4236589 C4.491664,4.34008664 4.34716,5.31638375 3.84308,6.16561213 C3.339008,7.01484829 2.542032,7.62466923 1.627608,7.91685727 C1.609256,8.10960021 1.6,8.30413286 1.6,8.49998833 C1.6,8.69592161 1.609256,8.89037644 1.627608,9.0831972 C2.542032,9.37538524 3.339008,9.98520618 3.84308,10.8343801 Z M8,10.8343801 C6.67448,10.8343801 5.6,9.7892729 5.6,8.49998833 C5.6,7.21078157 6.67448,6.16561213 8,6.16561213 C9.32552,6.16561213 10.4,7.21078157 10.4,8.49998833 C10.4,9.7892729 9.32552,10.8343801 8,10.8343801 Z M8,9.27811892 C8.44184,9.27811892 8.8,8.92974985 8.8,8.49998833 C8.8,8.0702268 8.44184,7.72185774 8,7.72185774 C7.55816,7.72185774 7.2,8.0702268 7.2,8.49998833 C7.2,8.92974985 7.55816,9.27811892 8,9.27811892 Z" id="形状备份" fill="#7D8699" fill-rule="nonzero"></path>
                <rect id="矩形备份-3" fill-opacity="0" fill="#FF0000" x="0" y="0" width="16" height="16"></rect>
            </g>
        </g>
    </g>
</svg>