<?xml version="1.0" encoding="UTF-8"?>
<svg width="16px" height="16px" viewBox="0 0 16 16" version="1.1" xmlns="http://www.w3.org/2000/svg" xmlns:xlink="http://www.w3.org/1999/xlink">
    <title>编组 10</title>
    <g id="后台" stroke="none" stroke-width="1" fill="none" fill-rule="evenodd">
        <g id="画板" transform="translate(-892.000000, -761.000000)">
            <g id="编组-10" transform="translate(892.000000, 761.000000)">
                <path d="M7.08788294,9.6744186 L7.08788294,11.1627907 C4.56619812,11.1627907 2.52197073,13.1618977 2.52197073,15.627907 L1,15.627907 C1,12.3398698 3.72563651,9.6744186 7.08788294,9.6744186 Z M7.08788294,8.93023256 C4.56521645,8.93023256 2.52197073,6.93209302 2.52197073,4.46511628 C2.52197073,1.99813953 4.56521645,0 7.08788294,0 C9.61054943,0 11.6537951,1.99813953 11.6537951,4.46511628 C11.6537951,6.93209302 9.61054943,8.93023256 7.08788294,8.93023256 Z M7.08788294,7.44186047 C8.7696606,7.44186047 10.1318244,6.10976744 10.1318244,4.46511628 C10.1318244,2.82046512 8.7696606,1.48837209 7.08788294,1.48837209 C5.40610528,1.48837209 4.04394147,2.82046512 4.04394147,4.46511628 C4.04394147,6.10976744 5.40610528,7.44186047 7.08788294,7.44186047 Z M9.06233557,13.2550698 C9.01523058,13.0612837 8.99034636,12.8590884 8.99034636,12.6511628 C8.99034636,12.4433116 9.01523058,12.2411163 9.06225947,12.0473302 L8.30766638,11.6212837 L9.06865175,10.3322791 L9.82377753,10.7586233 C10.1229209,10.4819349 10.4876612,10.2722977 10.8928098,10.1543442 L10.8928098,9.30232558 L12.4147805,9.30232558 L12.4147805,10.1543442 C12.8199291,10.2722977 13.1845933,10.4819349 13.4837367,10.7586233 L14.2389385,10.3322047 L15,11.6212093 L14.2453308,12.0472558 C14.2923597,12.2411163 14.3172439,12.4433116 14.3172439,12.6511628 C14.3172439,12.859014 14.2923597,13.0612093 14.2453308,13.2549953 L15,13.6810419 L14.2390146,14.9700465 L13.4838128,14.5436279 C13.1846694,14.8203907 12.8200052,15.0300279 12.4148566,15.147907 L12.4148566,16 L10.8928859,16 L10.8928859,15.1479814 C10.4877373,15.0301023 10.122997,14.8204651 9.82385363,14.5437023 L9.06872785,14.9701209 L8.30766638,13.6811163 L9.06233557,13.2550698 Z M11.6537951,13.7674419 C12.2841954,13.7674419 12.7952732,13.2676465 12.7952732,12.6511628 C12.7952732,12.0346791 12.2841954,11.5348837 11.6537951,11.5348837 C11.0233949,11.5348837 10.5123171,12.0346791 10.5123171,12.6511628 C10.5123171,13.2676465 11.0233949,13.7674419 11.6537951,13.7674419 Z" id="形状备份" fill="#7D8699" fill-rule="nonzero"></path>
                <rect id="矩形备份-2" fill-opacity="0" fill="#FF0000" x="0" y="0" width="16" height="16"></rect>
            </g>
        </g>
    </g>
</svg>