<?xml version="1.0" encoding="UTF-8"?>
<svg width="24px" height="24px" viewBox="0 0 24 24" version="1.1" xmlns="http://www.w3.org/2000/svg" xmlns:xlink="http://www.w3.org/1999/xlink">
    <title>编组 16</title>
    <g id="后台" stroke="none" stroke-width="1" fill="none" fill-rule="evenodd">
        <g id="画板" transform="translate(-860.000000, -542.000000)">
            <g id="编组-16" transform="translate(860.000000, 542.000000)">
                <path d="M6.9998,6 L6.9998,3 C6.9998,2.44772 7.44752,2 7.9998,2 L19.9998,2 C20.5521,2 20.9998,2.44772 20.9998,3 L20.9998,17 C20.9998,17.5523 20.5521,18 19.9998,18 L16.9998,18 L16.9998,20.9991 C16.9998,21.5519 16.5499,22 15.993,22 L4.00666,22 C3.45059,22 3,21.5554 3,20.9991 L3.0026,7.00087 C3.0027,6.44811 3.45264,6 4.00942,6 L6.9998,6 Z M5.00242,8 L5.00019,20 L14.9998,20 L14.9998,8 L5.00242,8 Z M8.9998,6 L16.9998,6 L16.9998,16 L18.9998,16 L18.9998,4 L8.9998,4 L8.9998,6 Z M7,11 L13,11 L13,13 L7,13 L7,11 Z M7,15 L13,15 L13,17 L7,17 L7,15 Z" id="形状" fill="#A4AFCA" fill-rule="nonzero"></path>
                <path d="M6.9998,6 L6.9998,3 C6.9998,2.44772 7.44752,2 7.9998,2 L19.9998,2 C20.5521,2 20.9998,2.44772 20.9998,3 L20.9998,17 C20.9998,17.5523 20.5521,18 19.9998,18 L16.9998,18 L16.9998,20.9991 C16.9998,21.5519 16.5499,22 15.993,22 L4.00666,22 C3.45059,22 3,21.5554 3,20.9991 L3.0026,7.00087 C3.0027,6.44811 3.45264,6 4.00942,6 L6.9998,6 Z M5.00242,8 L5.00019,20 L14.9998,20 L14.9998,8 L5.00242,8 Z M8.9998,6 L16.9998,6 L16.9998,16 L18.9998,16 L18.9998,4 L8.9998,4 L8.9998,6 Z M7,11 L13,11 L13,13 L7,13 L7,11 Z M7,15 L13,15 L13,17 L7,17 L7,15 Z" id="形状备份" fill="#A4AFCA" fill-rule="nonzero"></path>
                <rect id="矩形备份-11" fill-opacity="0" fill="#D8D8D8" x="0" y="0" width="24" height="24"></rect>
            </g>
        </g>
    </g>
</svg>