<?xml version="1.0" encoding="UTF-8"?>
<svg width="16px" height="16px" viewBox="0 0 16 16" version="1.1" xmlns="http://www.w3.org/2000/svg" xmlns:xlink="http://www.w3.org/1999/xlink">
    <title>编组 2</title>
    <g id="后台" stroke="none" stroke-width="1" fill="none" fill-rule="evenodd">
        <g id="画板" transform="translate(-855.000000, -792.000000)">
            <g id="编组-5" transform="translate(855.000000, 792.000000)">
                <polygon id="矩形备份" fill-opacity="0.148141287" fill="#2554FF" fill-rule="nonzero" points="2 1 10.4 1 15 14 2 14"></polygon>
                <polygon id="路径备份" points="0 0 16 0 16 16 0 16"></polygon>
                <path d="M15,4.8 L15,15.19456 C15,15.64008 14.6540444,16 14.2273556,16 L1.77264444,16 C1.34607222,16 1,15.6448 1,15.20656 L1,0.79344 C1,0.364248 1.34898889,0 1.77949667,0 L10.3308444,0 L15,4.8 Z M13.4444444,5.6 L9.55555556,5.6 L9.55555556,1.6 L2.55555556,1.6 L2.55555556,14.4 L13.4444444,14.4 L13.4444444,5.6 Z M4.88888889,4 L7.22222222,4 L7.22222222,5.6 L4.88888889,5.6 L4.88888889,4 Z M4.88888889,7.2 L11.1111111,7.2 L11.1111111,8.8 L4.88888889,8.8 L4.88888889,7.2 Z M4.88888889,10.4 L11.1111111,10.4 L11.1111111,12 L4.88888889,12 L4.88888889,10.4 Z" id="形状备份" fill="#2554FF" fill-rule="nonzero"></path>
                <rect id="矩形备份-8" fill-opacity="0" fill="#FF0000" x="0" y="0" width="16" height="16"></rect>
            </g>
        </g>
    </g>
</svg>