<?xml version="1.0" encoding="UTF-8"?>
<svg width="24px" height="24px" viewBox="0 0 24 24" version="1.1" xmlns="http://www.w3.org/2000/svg" xmlns:xlink="http://www.w3.org/1999/xlink">
    <title>编组 15</title>
    <g id="后台" stroke="none" stroke-width="1" fill="none" fill-rule="evenodd">
        <g id="画板" transform="translate(-809.000000, -542.000000)">
            <g id="编组-15" transform="translate(809.000000, 542.000000)">
                <path d="M7.65549667,15.1929258 L15.5437889,7.06725585 L14.4438556,5.93422045 L6.55555556,14.0598984 L6.55555556,15.1929258 L7.65549667,15.1929258 Z M8.29983111,16.7952839 L5,16.7952839 L5,13.3962017 L13.8938889,4.23466334 C14.1976889,3.92177889 14.6901,3.92177889 14.9938222,4.23466334 L17.1937667,6.50073414 C17.4974889,6.81361859 17.4974889,7.32089311 17.1937667,7.63377756 L8.29983111,16.7952839 Z M5,18.3976419 L19,18.3976419 L19,20 L5,20 L5,18.3976419 Z" id="形状" fill="#A4AFCA" fill-rule="nonzero"></path>
                <path d="M7.65549667,15.1929258 L15.5437889,7.06725585 L14.4438556,5.93422045 L6.55555556,14.0598984 L6.55555556,15.1929258 L7.65549667,15.1929258 Z M8.29983111,16.7952839 L5,16.7952839 L5,13.3962017 L13.8938889,4.23466334 C14.1976889,3.92177889 14.6901,3.92177889 14.9938222,4.23466334 L17.1937667,6.50073414 C17.4974889,6.81361859 17.4974889,7.32089311 17.1937667,7.63377756 L8.29983111,16.7952839 Z M5,18.3976419 L19,18.3976419 L19,20 L5,20 L5,18.3976419 Z" id="形状备份-2" fill="#A4AFCA" fill-rule="nonzero"></path>
                <rect id="矩形备份-10" fill-opacity="0" fill="#D8D8D8" x="0" y="0" width="24" height="24"></rect>
            </g>
        </g>
    </g>
</svg>