<?xml version="1.0" encoding="UTF-8"?>
<svg width="20px" height="20px" viewBox="0 0 20 20" version="1.1" xmlns="http://www.w3.org/2000/svg" xmlns:xlink="http://www.w3.org/1999/xlink">
    <title>3</title>
    <g id="机构管理" stroke="none" stroke-width="1" fill="none" fill-rule="evenodd">
        <g id="画板" transform="translate(-286.000000, -111.000000)">
            <g id="3" transform="translate(286.000000, 111.000000)">
                <rect id="矩形备份-2" fill="#D8D8D8" opacity="0" x="0" y="0" width="20" height="20"></rect>
                <path d="M14,15.4444444 L15.6,15.4444444 L15.6,9.22222222 L10.8,9.22222222 L10.8,15.4444444 L12.4,15.4444444 L12.4,10.7777778 L14,10.7777778 L14,15.4444444 Z M2.8,15.4444444 L2.8,3.77777778 C2.8,3.34822667 3.158176,3 3.6,3 L14.8,3 C15.24184,3 15.6,3.34822667 15.6,3.77777778 L15.6,7.66666667 L17.2,7.66666667 L17.2,15.4444444 L18,15.4444444 L18,17 L2,17 L2,15.4444444 L2.8,15.4444444 Z M6,9.22222222 L6,10.7777778 L7.6,10.7777778 L7.6,9.22222222 L6,9.22222222 Z M6,12.3333333 L6,13.8888889 L7.6,13.8888889 L7.6,12.3333333 L6,12.3333333 Z M6,6.11111111 L6,7.66666667 L7.6,7.66666667 L7.6,6.11111111 L6,6.11111111 Z" id="形状" fill="#DBDBDB" fill-rule="nonzero"></path>
            </g>
        </g>
    </g>
</svg>