<svg width="14" height="14" viewBox="0 0 14 14" fill="none" xmlns="http://www.w3.org/2000/svg">
<g id="Home" clip-path="url(#clip0_380_8459)">
<path id="Vector" d="M13.7899 6.88972L7.75241 0.855343L7.34772 0.450656C7.25551 0.359057 7.13082 0.307648 7.00085 0.307648C6.87087 0.307648 6.74618 0.359057 6.65397 0.450656L0.211783 6.88972C0.117301 6.98383 0.0426296 7.09592 -0.00782254 7.21937C-0.0582747 7.34282 -0.0834854 7.47512 -0.0819665 7.60847C-0.0757165 8.15847 0.382096 8.59753 0.932096 8.59753H1.59616V13.6866H12.4055V8.59753H13.0837C13.3508 8.59753 13.6024 8.49284 13.7915 8.30378C13.8846 8.21099 13.9583 8.10065 14.0085 7.97915C14.0586 7.85765 14.0842 7.72741 14.0837 7.59597C14.0837 7.33034 13.979 7.07878 13.7899 6.88972ZM7.87585 12.5616H6.12585V9.37409H7.87585V12.5616ZM11.2805 7.47253V12.5616H8.87584V8.99909C8.87584 8.65378 8.59616 8.37409 8.25084 8.37409H5.75085C5.40553 8.37409 5.12585 8.65378 5.12585 8.99909V12.5616H2.72116V7.47253H1.22116L7.00241 1.69597L7.36335 2.05691L12.7821 7.47253H11.2805Z" fill="white"/>
</g>
<defs>
<clipPath id="clip0_380_8459">
<rect width="14" height="14" fill="white"/>
</clipPath>
</defs>
</svg>
