<?xml version="1.0" encoding="UTF-8"?>
<svg width="20px" height="20px" viewBox="0 0 20 20" version="1.1" xmlns="http://www.w3.org/2000/svg" xmlns:xlink="http://www.w3.org/1999/xlink">
    <title>4</title>
    <g id="机构管理" stroke="none" stroke-width="1" fill="none" fill-rule="evenodd">
        <g id="画板" transform="translate(-318.000000, -111.000000)">
            <g id="4" transform="translate(318.000000, 111.000000)">
                <rect id="矩形备份-3" fill="#D8D8D8" opacity="0" x="0" y="0" width="20" height="20"></rect>
                <path d="M5.00027556,2 C3.30063378,2 2,3.30063378 2,5.00027556 C2,6.69991733 3.30063378,8.00055112 5.00027556,8.00055112 C6.69991733,8.00055112 8.00055112,6.69991733 8.00055112,5.00027556 C8.00055112,3.30063378 6.69991733,2 5.00027556,2 L5.00027556,2 Z M14.9997244,8.00055112 C16.6993662,8.00055112 18,6.69991733 18,5.00027556 C18,3.30063378 16.6993662,2 14.9997244,2 C13.3000827,2 11.9994489,3.30063378 11.9994489,5.00027556 C11.9994489,6.69991733 13.3000827,8.00055112 14.9997244,8.00055112 Z M5.00027556,11.9994489 C3.30063378,11.9994489 2,13.3000827 2,14.9997244 C2,16.6993662 3.30063378,18 5.00027556,18 C6.69991733,18 8.00055112,16.6993662 8.00055112,14.9997244 C8.00055112,13.3000827 6.69991733,11.9994489 5.00027556,11.9994489 L5.00027556,11.9994489 Z M14.9997244,11.9994489 C13.3000827,11.9994489 11.9994489,13.3000827 11.9994489,14.9997244 C11.9994489,16.6993662 13.3000827,18 14.9997244,18 C16.6993662,18 18,16.6993662 18,14.9997244 C18,13.3000827 16.6993662,11.9994489 14.9997244,11.9994489 Z M6.00110223,10 C6.00110223,9.40038578 5.60209424,8.99917333 5.00027556,8.99917333 C4.40066134,8.99917333 3.99944888,9.39818132 3.99944888,10 C3.99944888,10.5996142 4.39845688,11.0008267 5.00027556,11.0008267 C5.59988978,11.0008267 6.00110223,10.5996142 6.00110223,10 Z M13.9988978,10 C13.9988978,10.5996142 14.3979058,11.0008267 14.9997244,11.0008267 C15.5993387,11.0008267 16.0005511,10.6018187 16.0005511,10 C16.0005511,9.40038578 15.6015431,8.99917333 14.9997244,8.99917333 C14.4001102,8.99917333 13.9988978,9.40038578 13.9988978,10 Z M10,3.99944888 C9.40038578,3.99944888 8.99917333,4.39845688 8.99917333,5.00027556 C8.99917333,5.59988978 9.39818132,6.00110223 10,6.00110223 C10.5996142,6.00110223 11.0008267,5.60209424 11.0008267,5.00027556 C11.0008267,4.40066134 10.5996142,3.99944888 10,3.99944888 L10,3.99944888 Z M10,13.9988978 C9.40038578,13.9988978 8.99917333,14.3979058 8.99917333,14.9997244 C8.99917333,15.5993387 9.39818132,16.0005511 10,16.0005511 C10.5996142,16.0005511 11.0008267,15.6015431 11.0008267,14.9997244 C11.0008267,14.4001102 10.5996142,13.9988978 10,13.9988978 Z" id="形状" fill="#DBDBDB" fill-rule="nonzero"></path>
            </g>
        </g>
    </g>
</svg>