<?xml version="1.0" encoding="UTF-8"?>
<svg width="231px" height="31px" viewBox="0 0 231 31" version="1.1" xmlns="http://www.w3.org/2000/svg" xmlns:xlink="http://www.w3.org/1999/xlink">
    <g id="知识图谱" stroke="none" stroke-width="1" fill="none" fill-rule="evenodd">
        <g id="知识图谱备" transform="translate(-78.000000, -16.000000)" fill-rule="nonzero">
            <g id="编组-4" transform="translate(78.000000, 0.000000)">
                <g id="logo" transform="translate(0.000000, 16.000000)">
                    <g id="产业经济智能决策平台" transform="translate(52.397627, 6.360280)" fill="#16234C">
                        <path d="M16.9434302,7.32284966 L13.0017943,7.32284966 C13.4688128,6.66902379 14.0105542,5.9031135 14.5336149,5.1372032 L12.0490766,4.37129291 C11.731504,5.26796837 11.1710819,6.50089714 10.6667019,7.32284966 L6.33277049,7.32284966 L7.65910296,6.72506601 C7.37889187,6.05255941 6.74374675,5.09984172 6.18332458,4.35261217 L16.5511347,4.35261217 L16.5511347,2.24168867 L10.517256,2.24168867 C10.2744064,1.62522429 9.80738793,0.821952512 9.34036946,0.224168867 L7.04263857,0.784591035 C7.34153039,1.21424803 7.65910296,1.73730872 7.88327182,2.24168867 L1.45709764,2.24168867 L1.45709764,4.35261217 L5.71630611,4.35261217 L4.1284433,5.04379951 C4.61414251,5.73498685 5.1372032,6.63166232 5.45477576,7.32284966 L1.60654355,7.32284966 L1.60654355,9.90079163 C1.60654355,11.806227 1.47577837,14.4775727 0,16.383008 C0.504379951,16.6632191 1.49445911,17.5412138 1.86807389,17.9708708 C3.58670187,15.7852244 3.94163591,12.2732455 3.94163591,9.95683384 L3.94163591,9.48981537 L16.9434302,9.48981537 L16.9434302,7.32284966 Z" id="路径"></path>
                        <path d="M23.0733813,11.1150397 C22.6063628,9.34036946 21.5228799,6.40749345 20.6448852,4.221847 L18.6086847,4.81963064 C19.4679986,7.11736153 20.4393971,10.1062798 20.8503733,11.8996307 L23.0733813,11.1150397 Z M30.246785,14.6643801 L30.246785,11.1524011 L31.9467322,12.0117151 C32.9181307,10.2183642 34.0950172,7.58438 34.9169697,5.2306069 L32.9181307,4.27788921 C32.3016663,6.40749345 31.1808219,9.06015838 30.246785,10.8348286 L30.246785,0.541741429 L27.9490541,0.541741429 L27.9490541,14.6643801 L25.5018773,14.6643801 L25.5018773,0.541741429 L23.2041464,0.541741429 L23.2041464,14.6643801 L18.3845158,14.6643801 L18.3845158,16.887388 L35.0850964,16.887388 L35.0850964,14.6643801 L30.246785,14.6643801 Z" id="形状"></path>
                        <path d="M53.5256544,7.86459108 C52.6476596,7.26680744 51.0597968,6.51957788 49.6026992,5.88443276 C50.7795858,4.76358842 51.7696649,3.4559367 52.4608523,1.94279685 L50.8916702,1.12084434 L50.4806939,1.21424803 L43.176525,1.21424803 L43.176525,3.23176783 L49.0235963,3.23176783 C47.398372,5.24928764 44.6896649,6.85583118 41.9249155,7.6777837 C42.391934,8.14480217 42.9710369,9.00411616 43.251248,9.58321907 C44.8764723,9.00411616 46.4643351,8.23820586 47.8653905,7.26680744 C49.471934,8.014037 51.2839657,8.98543542 52.2180027,9.65794202 L53.5256544,7.86459108 Z M39.6832268,10.0502375 C40.9908786,8.63050138 42.2424881,6.94923488 43.2699287,5.30532985 L41.3271319,4.05372035 C41.0095593,4.68886547 40.6172638,5.34269133 40.2062875,5.95915571 L38.4502981,6.08992089 C39.4777387,4.63282325 40.5051794,2.87683379 41.2337282,1.19556729 L39.1414854,0.224168867 C38.4689788,2.3537731 37.1800078,4.65150399 36.7690316,5.24928764 C36.3580553,5.86575202 36.021802,6.2393668 35.6481872,6.35145123 C35.8910368,6.9118734 36.2459709,7.99535626 36.3580553,8.40633251 C36.6569471,8.2568866 37.1426463,8.14480217 38.8239129,7.93931404 C38.1887677,8.76126655 37.6283456,9.41509241 37.3481345,9.6953035 C36.7129894,10.3678101 36.2833324,10.7601056 35.7602717,10.8721901 C36.021802,11.451293 36.3767361,12.5160951 36.4888205,12.9457521 C36.9932004,12.665541 37.7777915,12.4413721 42.391934,11.5446967 C42.3545725,11.0589974 42.391934,10.1810027 42.4666569,9.58321907 L39.6832268,10.0502375 Z M42.2238073,13.2259632 C39.8700342,13.7863853 37.4788996,14.384169 35.8536754,14.6643801 L36.2833324,16.887388 C38.0580026,16.4016888 40.3370527,15.7852244 42.4666569,15.1500793 L42.2238073,13.2259632 Z M48.9301926,11.8435885 L52.3674486,11.8435885 L52.3674486,9.82606867 L43.3446517,9.82606867 L43.3446517,11.8435885 L46.6885039,11.8435885 L46.6885039,15.2808444 L42.2238073,15.2808444 L42.2238073,17.3357257 L53.3014855,17.3357257 L53.3014855,15.2808444 L48.9301926,15.2808444 L48.9301926,11.8435885 Z" id="形状"></path>
                        <path d="M58.9083759,2.72738788 C58.25455,2.12960424 56.9282176,1.28897099 56.0128613,0.728548818 L54.6304867,2.18564645 C55.5645236,2.82079158 56.8348139,3.75482852 57.4512782,4.37129291 L58.9083759,2.72738788 Z M58.0677426,7.50965705 C57.4325975,6.9118734 56.1249458,5.97783645 55.1722281,5.39873355 L53.7898534,6.83715044 C54.7425711,7.49097631 56.0128613,8.49973621 56.5732835,9.13488133 L58.0677426,7.50965705 Z M56.965579,10.1996834 C56.0689036,12.3292877 54.892017,14.5896571 54.0700645,16.0093933 L56.0502228,17.3730872 C56.965579,15.598417 57.9182967,13.4874935 58.7028877,11.5633774 L56.965579,10.1996834 Z M66.4740751,17.4851716 L68.6410409,17.4851716 L68.6410409,10.0502375 L66.4740751,10.0502375 L66.4740751,17.4851716 Z M66.698244,4.221847 C66.268587,5.08116099 65.6894841,5.75366759 64.9609353,6.33277049 C64.0829406,5.75366759 63.3543917,5.06248025 62.7939696,4.221847 L66.698244,4.221847 Z M70.9761332,4.221847 L70.9761332,2.27905015 L65.9510144,2.27905015 C65.7268456,1.62522429 65.3719115,0.85931399 65.0169775,0.224168867 L62.9994577,0.784591035 C63.2236266,1.23292877 63.4477954,1.7746702 63.6346028,2.27905015 L58.9270566,2.27905015 L58.9270566,4.221847 L60.6456846,4.221847 C61.2995105,5.49213724 62.1027822,6.55693936 63.0928614,7.39757261 C61.7665289,7.97667552 60.1973469,8.33160956 58.3853152,8.57445916 C58.7215685,9.0227969 59.1699062,10.0128761 59.3193521,10.5359367 C59.9544973,10.4238523 60.5522809,10.2930871 61.1313838,10.1436412 L61.1313838,12.3292877 C61.1313838,13.5435357 60.7204076,15.2248022 57.7688508,16.2148814 C58.2358693,16.4950925 59.0017796,17.1862798 59.3567136,17.5785753 C62.7192466,16.4016888 63.2983495,14.1600001 63.2983495,12.3666492 L63.2983495,10.0502375 L61.4676371,10.0502375 C62.7752888,9.6953035 63.9521754,9.24696576 64.979616,8.6865436 C66.3993522,9.41509241 68.1179802,9.90079163 70.1728614,10.1810027 C70.4530725,9.58321907 71.0321754,8.6865436 71.4618324,8.20084439 C69.705843,8.05139847 68.2113839,7.75250665 66.9224129,7.26680744 C67.8004076,6.46353567 68.5289564,5.45477576 69.0706978,4.221847 L70.9761332,4.221847 Z" id="形状"></path>
                        <path d="M73.6314668,4.63282325 C73.9303587,4.27788921 74.2292505,3.86691296 74.4907808,3.41857522 L75.4248178,3.41857522 L75.4248178,4.221847 C75.4248178,4.35261217 75.4248178,4.48337734 75.406137,4.63282325 L73.6314668,4.63282325 Z M80.4499365,8.16348291 C79.9642373,7.84591035 78.0961634,6.78110823 77.3115724,6.37013197 L80.3938943,6.37013197 L80.3938943,4.63282325 L77.5170605,4.63282325 C77.5357413,4.50205808 77.5357413,4.38997365 77.5357413,4.25920847 L77.5357413,3.41857522 L79.9642373,3.41857522 L79.9642373,1.69994724 L75.3314141,1.69994724 C75.48086,1.32633246 75.5929444,0.952717685 75.7050289,0.597783645 L73.7435513,0.186807389 C73.3699365,1.56918207 72.6413877,2.93287601 71.68867,3.82955148 C72.0622848,4.01635887 72.6600684,4.35261217 73.1084061,4.63282325 L71.8567966,4.63282325 L71.8567966,6.37013197 L74.9577993,6.37013197 C74.4907808,7.30416892 73.5380631,8.21952512 71.6326278,8.96675468 C72.118327,9.32168872 72.7347914,10.0128761 73.0336832,10.4612138 C74.7149497,9.67662276 75.7984325,8.72390507 76.4709391,7.77118739 C77.3115724,8.3502903 78.3576938,9.11620059 78.8807545,9.58321907 L80.4499365,8.16348291 Z M84.2421265,11.6007389 L84.2421265,12.6468602 L76.5269814,12.6468602 L76.5269814,11.6007389 L84.2421265,11.6007389 Z M76.5269814,15.3555674 L76.5269814,14.2534038 L84.2421265,14.2534038 L84.2421265,15.3555674 L76.5269814,15.3555674 Z M74.3413349,17.746702 L76.5269814,17.746702 L76.5269814,17.1302376 L84.2421265,17.1302376 L84.2421265,17.7280212 L86.5211767,17.7280212 L86.5211767,9.86343015 L74.3413349,9.86343015 L74.3413349,17.746702 Z M85.923393,6.78110823 L83.0839207,6.78110823 L83.0839207,3.62406335 L85.923393,3.62406335 L85.923393,6.78110823 Z M81.0290394,1.66258576 L81.0290394,8.74258581 L88.1277202,8.74258581 L88.1277202,1.66258576 L81.0290394,1.66258576 Z" id="形状"></path>
                        <path d="M92.6698085,12.5534566 L92.6698085,11.4699737 L95.4532386,11.4699737 L95.4532386,12.5534566 L92.6698085,12.5534566 Z M95.4532386,8.83598951 L95.4532386,9.82606867 L92.6698085,9.82606867 L92.6698085,8.83598951 L95.4532386,8.83598951 Z M97.6575658,7.00527709 L90.6149272,7.00527709 L90.6149272,17.7280212 L92.6698085,17.7280212 L92.6698085,14.1973616 L95.4532386,14.1973616 L95.4532386,15.4489711 C95.4532386,15.67314 95.3785156,15.7291822 95.1543468,15.7291822 C94.9114972,15.7478629 94.1829483,15.7665436 93.5104417,15.7291822 C93.7906528,16.2522429 94.1269061,17.1115568 94.2389905,17.6906598 C95.3411541,17.6906598 96.2191489,17.671979 96.8356133,17.317045 C97.4707584,16.9994724 97.6575658,16.457731 97.6575658,15.4863326 L97.6575658,7.00527709 Z M94.5939246,2.12960424 C94.8928164,2.63398419 95.2290697,3.19440636 95.5092808,3.75482852 L92.7818929,3.92295517 C93.491761,3.0262797 94.2389905,1.92411611 94.7620512,0.85931399 L92.4082781,0.242849606 C91.8852174,1.62522429 91.0072227,2.93287601 90.7270116,3.30649079 C90.4094391,3.71746704 90.1105472,3.96031665 89.8116554,4.03503961 C90.0731858,4.63282325 90.4468005,5.67894463 90.558885,6.10860163 C91.0445842,5.92179424 91.773133,5.79102906 96.2751911,5.41741429 C96.4059563,5.75366759 96.5180407,6.07124015 96.5740829,6.35145123 L98.5916027,5.54817946 C98.2927109,4.37129291 97.3399932,2.70870714 96.4806792,1.4384169 L94.5939246,2.12960424 Z M104.363951,8.64918212 C106.063898,8.64918212 106.661682,7.97667552 106.904532,5.58554094 C106.288067,5.45477576 105.410072,5.11852246 104.961735,4.78226916 C104.868331,6.40749345 104.756247,6.68770453 104.139782,6.68770453 L102.122262,6.68770453 C101.412394,6.68770453 101.30031,6.61298158 101.30031,5.94047498 L101.30031,4.83831138 C102.925534,4.35261217 104.681524,3.77350926 106.10126,3.08232192 L104.681524,1.47577837 C103.82221,1.98015833 102.5706,2.54058049 101.30031,3.04496044 L101.30031,0.354934039 L99.0959827,0.354934039 L99.0959827,5.97783645 C99.0959827,8.014037 99.6377241,8.64918212 101.80469,8.64918212 L104.363951,8.64918212 Z M102.178305,15.67314 C101.449756,15.67314 101.318991,15.5797363 101.318991,14.9259104 L101.318991,13.450132 C103.018938,12.9083906 104.84965,12.235884 106.288067,11.4699737 L104.83097,9.84474941 C103.934294,10.4425331 102.645323,11.0589974 101.318991,11.5820581 L101.318991,9.06015838 L99.1146634,9.06015838 L99.1146634,14.9259104 C99.1146634,16.9621109 99.6750856,17.6159368 101.860732,17.6159368 L104.476035,17.6159368 C106.250706,17.6159368 106.848489,16.8687072 107.072658,14.2534038 C106.474875,14.1039579 105.59688,13.7677046 105.129861,13.450132 C105.036458,15.3182059 104.924373,15.67314 104.270547,15.67314 L102.178305,15.67314 Z" id="形状"></path>
                        <path d="M112.305934,5.00643803 C111.689469,3.90427443 110.325775,2.22300793 109.279654,1.02744064 L107.523665,2.09224276 C108.551105,3.38121374 109.858757,5.1372032 110.381818,6.22068606 L112.305934,5.00643803 Z M110.456541,9.39641168 C109.466461,11.6567811 108.196171,14.0852771 107.262134,15.5610555 L107.280815,15.5610555 L109.204931,16.9060687 C110.232372,15.0193141 111.278493,12.7963062 112.156488,10.7414249 L110.456541,9.39641168 Z M119.161765,5.15588394 L121.160604,5.15588394 L121.160604,8.63050138 L119.087042,8.63050138 C119.143084,7.99535626 119.161765,7.39757261 119.161765,6.78110823 L119.161765,5.15588394 Z M124.84071,10.7601056 L124.84071,8.63050138 L123.290208,8.63050138 L123.290208,3.06364118 L119.161765,3.06364118 L119.161765,0.280211084 L116.826673,0.280211084 L116.826673,3.06364118 L113.46414,3.06364118 L113.46414,5.15588394 L116.826673,5.15588394 L116.826673,6.76242749 C116.826673,7.37889187 116.807992,7.99535626 116.77063,8.63050138 L112.623506,8.63050138 L112.623506,10.7601056 L116.378335,10.7601056 C115.817913,12.7402639 114.472899,14.6456993 111.465301,15.9907125 C112.007042,16.4203695 112.772952,17.2796835 113.090525,17.7840635 C116.042082,16.2148814 117.611264,14.0852771 118.395855,11.8622692 C119.441976,14.5896571 121.029839,16.6071769 123.626462,17.6906598 C123.944034,17.0928761 124.59786,16.1775199 125.10224,15.7291822 C122.673744,14.8885489 121.104562,13.095198 120.207886,10.7601056 L124.84071,10.7601056 Z" id="形状"></path>
                        <path d="M135.397996,10.2557257 L138.891294,10.2557257 L138.891294,11.5633774 C138.891294,11.7688655 138.816571,11.8249077 138.592402,11.8249077 C138.386914,11.8249077 137.621004,11.8435885 137.004539,11.7875463 C137.26607,12.2545647 137.583642,12.9083906 137.733088,13.450132 C136.799051,12.9644328 136.01446,12.4413721 135.397996,11.8996307 L135.397996,10.2557257 Z M130.111347,5.5668602 L131.792613,4.91303434 C131.661848,4.5581003 131.418998,4.09108182 131.157468,3.60538261 L133.455199,3.60538261 C133.23103,3.82955148 133.006861,4.05372035 132.764012,4.24052773 C132.932138,4.33393143 133.118946,4.44601586 133.324434,4.57678104 L133.006861,4.57678104 L133.006861,5.5668602 L130.111347,5.5668602 Z M141.189025,8.36897104 L135.397996,8.36897104 L135.397996,7.47229557 L142.123062,7.47229557 L142.123062,5.5668602 L135.397996,5.5668602 L135.397996,4.68886547 C135.678207,4.37129291 135.958418,3.99767813 136.219948,3.60538261 L137.116624,3.60538261 C137.5276,4.27788921 137.919896,5.02511877 138.069341,5.52949872 L140.0495,4.8943536 C139.918735,4.53941956 139.675885,4.07240108 139.395674,3.60538261 L142.440634,3.60538261 L142.440634,1.75598946 L137.247389,1.75598946 C137.415516,1.40105542 137.564961,1.04612138 137.695727,0.709868079 L135.51008,0.16812665 C135.117785,1.28897099 134.50132,2.40981532 133.73541,3.28781005 L133.73541,1.75598946 L129.70037,1.75598946 C129.868497,1.41973616 130.017943,1.06480212 130.148708,0.747229557 L128.037785,0.16812665 C127.440001,1.69994724 126.356518,3.26912931 125.179632,4.25920847 C125.702692,4.53941956 126.599368,5.11852246 127.029025,5.4734565 C127.552085,4.96907655 128.093827,4.33393143 128.579526,3.60538261 L128.897099,3.60538261 C129.289394,4.25920847 129.663009,5.02511877 129.849816,5.5668602 L125.8895,5.5668602 L125.8895,7.47229557 L133.006861,7.47229557 L133.006861,8.36897104 L127.085067,8.36897104 L127.085067,13.5622165 L129.43884,13.5622165 L129.43884,10.2557257 L133.006861,10.2557257 L133.006861,11.5633774 C131.418998,13.3754091 128.523484,14.7764645 125.422481,15.3929289 C125.8895,15.8412666 126.505964,16.7005806 126.804856,17.2610028 C129.139948,16.6258576 131.306914,15.523694 133.006861,14.0479157 L133.006861,17.7653827 L135.397996,17.7653827 L135.397996,14.1039579 C136.948497,15.3555674 139.059421,16.5324539 141.450555,17.1302376 C141.749447,16.5511347 142.384592,15.6544592 142.851611,15.16876 C141.002217,14.8325067 139.264909,14.2347231 137.845173,13.5061742 C138.853932,13.5061742 139.694566,13.4874935 140.329711,13.2259632 C141.002217,12.9457521 141.189025,12.4974143 141.189025,11.5633774 L141.189025,8.36897104 Z" id="形状"></path>
                        <path d="M160.376812,9.32168872 L153.035282,9.32168872 L153.035282,3.66142483 L159.29333,3.66142483 L159.29333,1.45709764 L144.423461,1.45709764 L144.423461,3.66142483 L150.71887,3.66142483 L150.71887,9.32168872 L143.452063,9.32168872 L143.452063,11.5820581 L150.71887,11.5820581 L150.71887,17.746702 L153.035282,17.746702 L153.035282,11.5820581 L160.376812,11.5820581 L160.376812,9.32168872 Z M145.562986,4.85699212 C146.16077,6.10860163 146.739873,7.75250665 146.92668,8.74258581 L149.093646,8.07007921 C148.888158,7.02395783 148.215651,5.45477576 147.599187,4.25920847 L145.562986,4.85699212 Z M156.472538,8.70522434 C157.089002,7.75250665 157.854913,6.2393668 158.527419,4.8009499 L156.154965,4.20316626 C155.800031,5.41741429 155.127525,7.06131931 154.529741,8.14480217 L156.472538,8.70522434 Z" id="形状"></path>
                        <path d="M173.661486,11.6567811 L173.661486,14.6456993 L165.740853,14.6456993 L165.740853,11.6567811 L173.661486,11.6567811 Z M163.461803,17.7280212 L165.740853,17.7280212 L165.740853,16.7753035 L173.661486,16.7753035 L173.661486,17.7093405 L176.052621,17.7093405 L176.052621,9.52717685 L163.461803,9.52717685 L163.461803,17.7280212 Z M171.289033,3.17572562 C171.98022,3.86691296 172.72745,4.65150399 173.455998,5.4734565 L165.796895,5.71630611 C167.216632,4.35261217 168.69241,2.6900264 169.869296,0.952717685 L167.627608,0 C166.357318,2.24168867 164.321117,4.50205808 163.667291,5.08116099 C163.050827,5.67894463 162.602489,6.03387867 162.11679,6.16464384 C162.37832,6.74374675 162.733254,7.84591035 162.845339,8.29424808 C163.835418,7.95799478 165.16175,7.9206333 175.081223,7.43493409 C175.473518,7.95799478 175.809771,8.44369399 176.052621,8.85467025 L177.939376,7.49097631 C176.967977,5.92179424 174.744969,3.62406335 173.026341,2.0175198 L171.289033,3.17572562 Z" id="形状"></path>
                    </g>
                    <polyline id="路径" fill="#356DF6" points="23.8656624 7.10978775 16.7805069 0.0236677355 9.69771784 7.10978775"></polyline>
                    <polyline id="路径" fill="#356DF6" points="37.929483 7.10978775 30.8443275 0.0236677355 23.7615385 7.10978775"></polyline>
                    <polyline id="路径" fill="#356DF6" points="16.7284449 0 23.8136004 7.08612002 30.8963895 0"></polyline>
                    <polyline id="路径" fill="#356DF6" points="30.7165392 0 37.8016947 7.08612002 44.8868502 0"></polyline>
                    <polyline id="路径" fill="#17F3FF" points="9.65512171 7.12635517 16.7402772 14.2124752 23.8254327 7.12635517"></polyline>
                    <polyline id="路径" fill="#356DF6" points="21.2767645 23.892579 14.191609 30.978699 7.10882001 23.892579"></polyline>
                    <polyline id="路径" fill="#356DF6" points="35.3405852 23.892579 28.2554297 30.978699 21.1726407 23.892579"></polyline>
                    <polyline id="路径" fill="#356DF6" points="14.1395471 31 21.2247026 23.9162468 28.3074916 31"></polyline>
                    <polyline id="路径" fill="#356DF6" points="0 31 7.08515549 23.9162468 14.1679445 31"></polyline>
                    <polyline id="路径" fill="#17F4FF" points="7.06622388 23.8736448 14.1513794 16.7875248 21.2341684 23.8736448"></polyline>
                    <polyline id="路径" fill="#356DF6" points="30.8608927 14.193541 23.7757372 21.279661 16.6905817 14.193541"></polyline>
                </g>
            </g>
        </g>
    </g>
</svg>
