<svg xmlns="http://www.w3.org/2000/svg" viewBox="0 0 646.32 130.98">
    <defs>
        <style>.cls-1{fill:#16234c;}.cls-2{fill:#356df6;}.cls-3{fill:#17f3ff;}.cls-4{fill:#17f4ff;}</style>
    </defs>
    <g id="图层_2">
        <g id="图层_1-2">
            <path class="cls-1"
                  d="M220.52,61.06a86.53,86.53,0,0,0,1.18-14.75V34.7H231l-3.69-10h9.46l3.69,10H257l3.69-10h9.46l-3.69,10h13.56v8.9H230.88v2.71a98.9,98.9,0,0,1-1,14.54,67.22,67.22,0,0,1-3.44,13.35h-10A54,54,0,0,0,220.52,61.06Zm-1.81-46.74h26.91v-4h9.19v4h24v8.9H218.71Z"/>
            <path class="cls-1"
                  d="M290.35,64.12h19.12V10.91h8.91V64.12h7.93V10.91h8.9V64.12h19.13v9h-64Zm10.36-46.67,5.57,37.21h-9l-5.56-37.21Zm43.26,0h9l-5.56,37.21h-9Z"/>
            <path class="cls-1"
                  d="M374.23,11.6h9.11l-8.55,19.9,1.87,1.11L379.45,26h8.41l-9.67,22.82h7.58v9H364.7L371.79,41l-8.13-4.53Zm-9.67,53.21,20.52-2.43v9l-20.52,2.44Zm21.91.07h15.86V52.08H388.7V43.53h37v8.55H411.37v12.8h16.55v8.56H386.47Zm22.47-43.82H388.42V12.44h35.19a38.22,38.22,0,0,1-8.27,15.23l11.89,4.52V41L408,33.86q-8.62,5.64-21,6.89V31.84Q401.29,29.76,408.94,21.06Z"/>
            <path class="cls-1"
                  d="M437.59,74.2a132.13,132.13,0,0,0,6.16-15.4,79.41,79.41,0,0,0,3.16-14.23h9.32a100.36,100.36,0,0,1-3.09,15.58,91.15,91.15,0,0,1-5.39,14.05Zm.63-36.79V28l18.71,4.1v9.32Zm1.39-16.35V11.6l17.18,3.9V25Zm19,20.8v9q2.72-.48,5.49-1.25v3.27a34.59,34.59,0,0,1-1.67,11.23,33.68,33.68,0,0,1-5.77,10h10.92a38.83,38.83,0,0,0,4.21-10.15,45.68,45.68,0,0,0,1.29-11.13V47.77H470a57.19,57.19,0,0,0,9.6-4.52,52.56,52.56,0,0,0,9.46,4.52h-4V74.2h9V49.37c2.69.7,4.84,1.21,6.47,1.53v-9A57.91,57.91,0,0,1,487,37.48a35.19,35.19,0,0,0,8.34-13.7h5.5V15.43H484.54V11h-9v4.45H459.22v8.35H464a35.32,35.32,0,0,0,8.21,13.7A58,58,0,0,1,458.6,41.86Zm15.16-18.08h11.83a25.34,25.34,0,0,1-6,8.69A23.93,23.93,0,0,1,473.76,23.78Z"/>
            <path class="cls-1"
                  d="M511.11,43.53h27.48v-22h-26V12.79h61.07v8.76h-26v22H575.1v8.76H547.63V74.2h-9V52.29H511.11Zm14.82-18.71,4.38,15.58h-9.25l-4.39-15.58Zm34.36,0h9.25L565.15,40.4H555.9Z"/>
            <path class="cls-1"
                  d="M588,29.13h6.12l12.1-17.53H618l-12.1,17.53h24.76l-4.52-8.83h11.13l9,17.73H588Zm54.67,44.1H590.75V43.67h51.89Zm-9.12-8.7V52.43H599.86v12.1Z"/>
            <path class="cls-1" d="M218.38,102.36h3.72v15.79h-3.72Z"/>
            <path class="cls-1" d="M230.24,105.87h-.14v12.28h-3.65V102.36h5.93l3.77,12.47h.29V102.36h3.66v15.79H234Z"/>
            <path class="cls-1"
                  d="M244.38,102.36h6a7.38,7.38,0,0,1,5.67,2.09,8.27,8.27,0,0,1,1.94,5.82,8.13,8.13,0,0,1-1.94,5.87,7.66,7.66,0,0,1-5.76,2h-5.91Zm6.05,13a3,3,0,0,0,1.8-.61,4.22,4.22,0,0,0,1.39-1.76,7,7,0,0,0,0-5.31,4.55,4.55,0,0,0-1.36-1.84,2.94,2.94,0,0,0-1.85-.68h-2.32v10.2Z"/>
            <path class="cls-1"
                  d="M263.7,116.73a6.09,6.09,0,0,1-1.88-4.72v-9.65h3.72V112a3.31,3.31,0,0,0,.44,1.72,3,3,0,0,0,1.19,1.11,3.42,3.42,0,0,0,3.21,0,2.87,2.87,0,0,0,1.16-1.13A3.23,3.23,0,0,0,272,112v-9.65h3.72V112a6.06,6.06,0,0,1-1.88,4.72,8.33,8.33,0,0,1-10.11,0Z"/>
            <path class="cls-1"
                  d="M284.9,118.44a11.06,11.06,0,0,1-5.42-1.31v-3.31a13.09,13.09,0,0,0,2.73,1.25,9,9,0,0,0,2.71.48,2.45,2.45,0,0,0,1.57-.46,1.59,1.59,0,0,0,.64-1.09,1.83,1.83,0,0,0-.65-1.63,5.76,5.76,0,0,0-2.26-1.17,13.76,13.76,0,0,1-2.67-1.1,3.86,3.86,0,0,1-1.45-1.38,4.7,4.7,0,0,1,.11-4.35,4.33,4.33,0,0,1,1.72-1.61,6.45,6.45,0,0,1,2.72-.68l.63,0a11.89,11.89,0,0,1,2.36.24,9.65,9.65,0,0,1,2,.6v2.91a9.93,9.93,0,0,0-2.05-.63,9.82,9.82,0,0,0-2.07-.25,3.16,3.16,0,0,0-1.76.4,1.28,1.28,0,0,0-.61,1.13,1.48,1.48,0,0,0,.65,1.17,7.05,7.05,0,0,0,2,1,12,12,0,0,1,2.69,1.07,4.22,4.22,0,0,1,2.21,4,4.63,4.63,0,0,1-.63,2.43,4.46,4.46,0,0,1-1.78,1.66,6.24,6.24,0,0,1-2.65.67Z"/>
            <path class="cls-1" d="M293.4,102.36h11.87v3h-4.06v12.75h-3.75V105.4H293.4Z"/>
            <path class="cls-1"
                  d="M315.89,102.36a5.52,5.52,0,0,1,3.78,1.22,4.43,4.43,0,0,1,1.39,3.47,4.61,4.61,0,0,1-1,3,4.43,4.43,0,0,1-2.7,1.51,24.19,24.19,0,0,1,2.33,3,29.38,29.38,0,0,1,1.94,3.57h-3.88a38.53,38.53,0,0,0-2-3.55,18.42,18.42,0,0,0-2.34-2.86h-1.17v6.41h-3.73V102.36Zm-.27,6.79a2.48,2.48,0,0,0,1.78-.61,2,2,0,0,0,.63-1.49,2,2,0,0,0-.64-1.5,2.5,2.5,0,0,0-1.77-.6h-3.31v4.2Z"/>
            <path class="cls-1" d="M325.12,102.36h3.72v15.79h-3.72Z"/>
            <path class="cls-1"
                  d="M342.53,113.68h-5l-1.2,4.47h-3.94l4.58-15.79h6.2l4.58,15.79h-4Zm-.72-2.71L340,104.36h0L338.2,111Z"/>
            <path class="cls-1" d="M354.85,102.36V115.1h6.38v3.05h-10.1V102.36Z"/>
            <path class="cls-1" d="M371.92,102.36H383v3.06h-7.37v3.39h6.4v2.86h-6.4v3.41H383v3.07h-11.1Z"/>
            <path class="cls-1"
                  d="M390.46,117.49a7.31,7.31,0,0,1-3.14-2.75,7.85,7.85,0,0,1-1.14-4.29,8.73,8.73,0,0,1,1.11-4.5,7.29,7.29,0,0,1,3.09-2.88,9.87,9.87,0,0,1,4.53-1,13.94,13.94,0,0,1,2.55.25,10,10,0,0,1,2.12.63v2.8a12.28,12.28,0,0,0-4.24-.83,5.28,5.28,0,0,0-3.8,1.37,5.49,5.49,0,0,0-1.46,4.17,4.8,4.8,0,0,0,.72,2.63,5.12,5.12,0,0,0,1.9,1.77,6.28,6.28,0,0,0,2.53.73l.49,0a7.16,7.16,0,0,0,2-.3,6.61,6.61,0,0,0,1.81-.79v3.12a8,8,0,0,1-2.06.63,15.51,15.51,0,0,1-2.5.18A10.53,10.53,0,0,1,390.46,117.49Z"/>
            <path class="cls-1"
                  d="M407,117.5a6.42,6.42,0,0,1-2.79-2.74,9,9,0,0,1-1-4.33,9.69,9.69,0,0,1,1-4.47,6.79,6.79,0,0,1,2.8-2.89,9.51,9.51,0,0,1,8.53,0,6.77,6.77,0,0,1,2.79,2.89,9.56,9.56,0,0,1,1,4.47,8.84,8.84,0,0,1-1,4.34,6.49,6.49,0,0,1-2.76,2.73,10.24,10.24,0,0,1-8.57,0Zm1.26-3.22a3.92,3.92,0,0,0,6,0,6.18,6.18,0,0,0,1.09-3.85,8,8,0,0,0-.48-2.86,4.26,4.26,0,0,0-1.41-2,3.71,3.71,0,0,0-4.39,0,4.57,4.57,0,0,0-1.42,2,7.76,7.76,0,0,0-.49,2.86A6.18,6.18,0,0,0,408.22,114.28Z"/>
            <path class="cls-1" d="M426.9,105.87h-.14v12.28h-3.65V102.36H429l3.77,12.47h.29V102.36h3.65v15.79h-6.06Z"/>
            <path class="cls-1"
                  d="M444.36,117.5a6.42,6.42,0,0,1-2.79-2.74,9,9,0,0,1-1-4.33,9.69,9.69,0,0,1,1-4.47,6.79,6.79,0,0,1,2.8-2.89,9.53,9.53,0,0,1,8.54,0,6.81,6.81,0,0,1,2.78,2.89,9.56,9.56,0,0,1,1,4.47,8.84,8.84,0,0,1-1,4.34,6.49,6.49,0,0,1-2.76,2.73,10.24,10.24,0,0,1-8.57,0Zm1.26-3.22a3.92,3.92,0,0,0,6,0,6.18,6.18,0,0,0,1.09-3.85,8,8,0,0,0-.48-2.86,4.26,4.26,0,0,0-1.41-2,3.71,3.71,0,0,0-4.39,0,4.57,4.57,0,0,0-1.42,2,7.76,7.76,0,0,0-.49,2.86A6.18,6.18,0,0,0,445.62,114.28Z"/>
            <path class="cls-1"
                  d="M464.3,105.15h-.21v13h-3.58V102.36H467l2.15,11.3,0,.22.05-.22,2.14-11.3h6.47v15.79h-3.58v-13h-.18l-2.71,13H467Z"/>
            <path class="cls-1" d="M482.19,102.36h3.72v15.79h-3.72Z"/>
            <path class="cls-1"
                  d="M494.09,117.49a7.31,7.31,0,0,1-3.14-2.75,7.85,7.85,0,0,1-1.14-4.29,8.73,8.73,0,0,1,1.11-4.5,7.29,7.29,0,0,1,3.09-2.88,9.87,9.87,0,0,1,4.53-1,13.94,13.94,0,0,1,2.55.25,10,10,0,0,1,2.12.63v2.8a12.28,12.28,0,0,0-4.24-.83,5.28,5.28,0,0,0-3.8,1.37,5.49,5.49,0,0,0-1.46,4.17,4.8,4.8,0,0,0,.72,2.63,5.12,5.12,0,0,0,1.9,1.77,6.28,6.28,0,0,0,2.53.73l.49,0a7.28,7.28,0,0,0,2.06-.3,6.68,6.68,0,0,0,1.8-.79v3.12a8.07,8.07,0,0,1-2.06.63,15.51,15.51,0,0,1-2.5.18A10.53,10.53,0,0,1,494.09,117.49Z"/>
            <path class="cls-1"
                  d="M522.27,102.36a5.5,5.5,0,0,1,3.91,1.33,5.67,5.67,0,0,1,0,7.55,5.5,5.5,0,0,1-3.91,1.33h-3.83v5.58h-3.73V102.36Zm-.34,7.24a2.39,2.39,0,0,0,1.74-.61,2,2,0,0,0,.61-1.51,2.08,2.08,0,0,0-.61-1.54,2.39,2.39,0,0,0-1.74-.61h-3.49v4.27Z"/>
            <path class="cls-1" d="M535,102.36V115.1h6.38v3.05h-10.1V102.36Z"/>
            <path class="cls-1"
                  d="M554.14,113.68h-5l-1.19,4.47H544l4.58-15.79h6.2l4.58,15.79h-4Zm-.72-2.71-1.78-6.61h0L549.81,111Z"/>
            <path class="cls-1" d="M560.42,102.36h11.86v3h-4.06v12.75h-3.74V105.4h-4.06Z"/>
            <path class="cls-1" d="M575.6,102.36h10.46v3h-6.74v3.43h5.82v2.84h-5.82v6.48H575.6Z"/>
            <path class="cls-1"
                  d="M593,117.5a6.53,6.53,0,0,1-2.79-2.74,9,9,0,0,1-1-4.33,9.69,9.69,0,0,1,1-4.47,6.85,6.85,0,0,1,2.8-2.89,9.53,9.53,0,0,1,8.54,0,6.81,6.81,0,0,1,2.78,2.89,9.56,9.56,0,0,1,1,4.47,8.84,8.84,0,0,1-1,4.34,6.49,6.49,0,0,1-2.76,2.73,10.24,10.24,0,0,1-8.57,0Zm1.26-3.22a3.92,3.92,0,0,0,6,0,6.12,6.12,0,0,0,1.09-3.85,8,8,0,0,0-.48-2.86,4.26,4.26,0,0,0-1.41-2,3.48,3.48,0,0,0-2.2-.72,3.43,3.43,0,0,0-2.18.72,4.49,4.49,0,0,0-1.42,2,7.56,7.56,0,0,0-.5,2.86A6.18,6.18,0,0,0,594.25,114.28Z"/>
            <path class="cls-1"
                  d="M616.45,102.36a5.56,5.56,0,0,1,3.78,1.22,4.43,4.43,0,0,1,1.38,3.47,4.66,4.66,0,0,1-1,3,4.43,4.43,0,0,1-2.7,1.51,23.18,23.18,0,0,1,2.32,3,26.87,26.87,0,0,1,1.94,3.57h-3.88a36.46,36.46,0,0,0-2-3.55,18,18,0,0,0-2.35-2.86h-1.17v6.41h-3.72V102.36Zm-.27,6.79a2.49,2.49,0,0,0,1.78-.61,2,2,0,0,0,.63-1.49,2,2,0,0,0-.64-1.5,2.5,2.5,0,0,0-1.77-.6h-3.32v4.2Z"/>
            <path class="cls-1"
                  d="M629.4,105.15h-.21v13h-3.58V102.36h6.47l2.14,11.3,0,.22,0-.22,2.15-11.3h6.47v15.79h-3.59v-13h-.18l-2.7,13h-4.38Z"/>
            <polyline class="cls-2" points="100.85 30.04 70.91 0.1 40.98 30.04"/>
            <polyline class="cls-2" points="160.28 30.04 130.34 0.1 100.41 30.04"/>
            <polyline class="cls-2" points="70.69 0 100.63 29.94 130.56 0"/>
            <polyline class="cls-2" points="129.8 0 159.74 29.94 189.68 0"/>
            <polyline class="cls-3" points="40.8 30.11 70.74 60.05 100.68 30.11"/>
            <polyline class="cls-2" points="89.91 100.95 59.97 130.89 30.04 100.95"/>
            <polyline class="cls-2" points="149.34 100.95 119.4 130.89 89.47 100.95"/>
            <polyline class="cls-2" points="59.75 130.98 89.69 101.05 119.62 130.98"/>
            <polyline class="cls-2" points="0 130.98 29.94 101.05 59.87 130.98"/>
            <polyline class="cls-4" points="29.86 100.87 59.8 70.93 89.73 100.87"/>
            <polyline class="cls-2" points="130.41 59.97 100.47 89.91 70.53 59.97"/>
        </g>
    </g>
</svg>
