<?xml version="1.0" encoding="UTF-8"?>
<svg width="20px" height="20px" viewBox="0 0 20 20" version="1.1" xmlns="http://www.w3.org/2000/svg" xmlns:xlink="http://www.w3.org/1999/xlink">
    <title>6</title>
    <g id="机构管理" stroke="none" stroke-width="1" fill="none" fill-rule="evenodd">
        <g id="画板" transform="translate(-373.000000, -111.000000)">
            <g id="6" transform="translate(373.000000, 111.000000)">
                <rect id="矩形备份-5" fill="#D8D8D8" opacity="0" x="0" y="0" width="20" height="20"></rect>
                <path d="M2.77272727,15.4444444 L2.77272727,6.88888889 L2,6.88888889 L2,5.33333333 L4.31818182,5.33333333 L4.31818182,3.77777778 C4.31818182,3.34822667 4.66414727,3 5.09090909,3 L15.9090909,3 C16.3358682,3 16.6818182,3.34822667 16.6818182,3.77777778 L16.6818182,5.33333333 L19,5.33333333 L19,6.88888889 L18.2272727,6.88888889 L18.2272727,15.4444444 L19,15.4444444 L19,17 L2,17 L2,15.4444444 L2.77272727,15.4444444 Z M11.2727273,15.4444444 L11.2727273,10 L9.72727273,10 L9.72727273,15.4444444 L11.2727273,15.4444444 Z M7.40909091,15.4444444 L7.40909091,10 L5.86363636,10 L5.86363636,15.4444444 L7.40909091,15.4444444 Z M15.1363636,15.4444444 L15.1363636,10 L13.5909091,10 L13.5909091,15.4444444 L15.1363636,15.4444444 Z M5.86363636,4.55555556 L5.86363636,5.33333333 L15.1363636,5.33333333 L15.1363636,4.55555556 L5.86363636,4.55555556 Z" id="形状" fill="#DBDBDB" fill-rule="nonzero"></path>
            </g>
        </g>
    </g>
</svg>