<?xml version="1.0" encoding="UTF-8"?>
<svg width="20px" height="20px" viewBox="0 0 20 20" version="1.1" xmlns="http://www.w3.org/2000/svg" xmlns:xlink="http://www.w3.org/1999/xlink">
    <title>2</title>
    <g id="机构管理" stroke="none" stroke-width="1" fill="none" fill-rule="evenodd">
        <g id="画板" transform="translate(-249.000000, -111.000000)">
            <g id="编组-2" transform="translate(249.000000, 111.000000)">
                <path d="M3.83333333,2 L17.1666667,2 C17.6269167,2 18,2.36633977 18,2.8182341 L18,18.5907601 C18,18.8167563 17.8134167,19 17.5833333,19 C17.5248333,19 17.467,18.9877672 17.4135833,18.9643657 L10.5,15.9355904 L3.58644167,18.9643657 C3.37629167,19.0564989 3.129925,18.963793 3.03615833,18.7575162 C3.01231667,18.7049855 3,18.6482001 3,18.5907601 L3,2.8182341 C3,2.36633977 3.3731,2 3.83333333,2 Z M10.5,11.4096921 L12.9490833,12.6739456 L12.4813333,9.99619273 L14.46275,8.09986975 L11.7245833,7.7091957 L10.5,5.2729364 L9.27541667,7.7091957 L6.53726667,8.09986975 L8.51863333,9.99619273 L8.05089167,12.6739456 L10.5,11.4096921 Z" id="形状" fill="#DBDBDB" fill-rule="nonzero"></path>
                <rect id="矩形备份" fill="#D8D8D8" opacity="0" x="0" y="0" width="20" height="20"></rect>
            </g>
        </g>
    </g>
</svg>