<?xml version="1.0" encoding="UTF-8"?>
<svg width="20px" height="20px" viewBox="0 0 20 20" version="1.1" xmlns="http://www.w3.org/2000/svg" xmlns:xlink="http://www.w3.org/1999/xlink">
    <title>5</title>
    <g id="机构管理" stroke="none" stroke-width="1" fill="none" fill-rule="evenodd">
        <g id="画板" transform="translate(-345.000000, -111.000000)">
            <g id="5" transform="translate(345.000000, 111.000000)">
                <rect id="矩形备份-4" fill="#D8D8D8" opacity="0" x="0" y="0" width="20" height="20"></rect>
                <path d="M13.19944,3 C15.85072,3 18,5.09594 18,7.66179778 L18,17 L6.800528,17 C4.149272,17 2,14.9040444 2,12.3382333 L2,7.66179778 C2,5.08715889 4.141232,3 6.800528,3 L13.19944,3 Z M13.2847222,8 L13.2152778,8 C12.5440984,8 12,8.54409839 12,9.21527778 C12,9.88645716 12.5440984,10.4305556 13.2152778,10.4305556 L13.2152778,10.4305556 L13.2847222,10.4305556 C13.9559016,10.4305556 14.5,9.88645716 14.5,9.21527778 C14.5,8.54409839 13.9559016,8 13.2847222,8 L13.2847222,8 Z M7.28472222,8 L7.21527778,8 C6.54409839,8 6,8.54409839 6,9.21527778 C6,9.88645716 6.54409839,10.4305556 7.21527778,10.4305556 L7.21527778,10.4305556 L7.28472222,10.4305556 C7.95590161,10.4305556 8.5,9.88645716 8.5,9.21527778 C8.5,8.54409839 7.95590161,8 7.28472222,8 L7.28472222,8 Z" id="形状结合" fill="#DBDBDB" fill-rule="nonzero"></path>
            </g>
        </g>
    </g>
</svg>