<?xml version="1.0" encoding="UTF-8"?>
<svg width="20px" height="20px" viewBox="0 0 20 20" version="1.1" xmlns="http://www.w3.org/2000/svg" xmlns:xlink="http://www.w3.org/1999/xlink">
    <title>7</title>
    <g id="机构管理" stroke="none" stroke-width="1" fill="none" fill-rule="evenodd">
        <g id="画板" transform="translate(-400.000000, -111.000000)">
            <g id="7" transform="translate(400.000000, 111.000000)">
                <rect id="矩形备份-6" fill="#D8D8D8" opacity="0" x="0" y="0" width="20" height="20"></rect>
                <g id="user-settings-fill" transform="translate(3.000000, 2.000000)" fill="#DBDBDB" fill-rule="nonzero">
                    <path d="M6.08788294,10.2790698 L6.08788294,16.6046512 L0,16.6046512 C0,13.1111116 2.72563651,10.2790698 6.08788294,10.2790698 Z M6.08788294,9.48837209 C3.56521645,9.48837209 1.52197073,7.36534884 1.52197073,4.74418605 C1.52197073,2.12302326 3.56521645,0 6.08788294,0 C8.61054943,0 10.6537951,2.12302326 10.6537951,4.74418605 C10.6537951,7.36534884 8.61054943,9.48837209 6.08788294,9.48837209 Z M8.06233557,14.0835116 C8.01523058,13.877614 7.99034636,13.6627814 7.99034636,13.4418605 C7.99034636,13.2210186 8.01523058,13.006186 8.06225947,12.8002884 L7.30766638,12.347614 L8.06865175,10.9780465 L8.82377753,11.4310372 C9.12292088,11.1370558 9.48766117,10.9143163 9.89280978,10.7889907 L9.89280978,9.88372093 L11.4147805,9.88372093 L11.4147805,10.7889907 C11.8199291,10.9143163 12.1845933,11.1370558 12.4837367,11.4310372 L13.2389385,10.9779674 L14,12.3475349 L13.2453308,12.8002093 C13.2923597,13.006186 13.3172439,13.2210186 13.3172439,13.4418605 C13.3172439,13.6627023 13.2923597,13.8775349 13.2453308,14.0834326 L14,14.536107 L13.2390146,15.9056744 L12.4838128,15.4526047 C12.1846694,15.7466651 11.8200052,15.9694047 11.4148566,16.0946512 L11.4148566,17 L9.89288587,17 L9.89288587,16.0947302 C9.48773726,15.9694837 9.12299698,15.7467442 8.82385363,15.4526837 L8.06872785,15.9057535 L7.30766638,14.536186 L8.06233557,14.0835116 Z M10.6537951,12.6511628 C10.2335029,12.6511628 9.89280978,13.0051581 9.89280978,13.4418605 C9.89280978,13.8785628 10.2335029,14.2325581 10.6537951,14.2325581 C11.0740874,14.2325581 11.4147805,13.8785628 11.4147805,13.4418605 C11.4147805,13.0051581 11.0740874,12.6511628 10.6537951,12.6511628 Z" id="形状"></path>
                </g>
            </g>
        </g>
    </g>
</svg>