<?xml version="1.0" encoding="UTF-8"?>
<svg width="28px" height="28px" viewBox="0 0 28 28" version="1.1" xmlns="http://www.w3.org/2000/svg" xmlns:xlink="http://www.w3.org/1999/xlink">
    <title>邮箱</title>
    <g id="AI中台三期-权限管理" stroke="none" stroke-width="1" fill="none" fill-rule="evenodd">
        <g id="权限管理-第二步-邮箱验证" transform="translate(-793.000000, -317.000000)">
            <g id="邮箱" transform="translate(793.000000, 317.000000)">
                <g id="24gf-mailboxFull" transform="translate(2.000000, 1.000000)" fill="#C9D6EB" fill-rule="nonzero">
                    <path d="M25,9.60869566 L25,19.7826087 C25,20.0947697 24.7456163,20.3478261 24.4318182,20.3478261 L14.7727273,20.3478261 L14.7727273,25.4347826 C14.7727273,25.5846876 14.7128654,25.7284528 14.6063107,25.8344517 C14.4997559,25.9404505 14.3552366,26 14.2045455,26 L9.6590909,26 C9.50839971,26 9.36388045,25.9404505 9.25732569,25.8344517 C9.15077093,25.7284528 9.09090909,25.5846876 9.09090909,25.4347826 L9.09090909,20.3478261 L3.40909091,20.3478261 L3.40909091,20.4891304 C3.40850376,21.03517 2.9636761,21.4776768 2.41477271,21.4782609 L0.994318174,21.4782609 C0.445414796,21.4776768 0.000587152922,21.03517 -1.77635684e-15,20.4891304 L-1.77635684e-15,5.51086957 C0.000587167598,4.96483004 0.445414807,4.52232324 0.994318174,4.52173914 L2.41477271,4.52173914 C2.96367609,4.52232323 3.40850374,4.96483003 3.40909091,5.51086957 L3.40909091,5.65217391 L6.81818182,5.65217391 L6.81818182,10.7391304 C6.81818182,10.8890354 6.87804365,11.0328007 6.98459841,11.1387995 C7.09115317,11.2447983 7.23567244,11.3043478 7.38636363,11.3043478 L9.6590909,11.3043478 C9.97288904,11.3043478 10.2272727,11.0512914 10.2272727,10.7391304 C10.2272727,10.4269695 9.97288904,10.1739131 9.6590909,10.173913 L7.95454544,10.173913 L7.95454544,5.65217391 L21.0227273,5.65217391 C22.0775656,5.65217391 23.0892005,6.06902054 23.8350838,6.8110123 C24.5809671,7.55300406 25,8.55936085 25,9.60869566 Z M7.95454544,4.52173914 L10.2272727,4.52173914 C11.4824654,4.52173914 12.5,3.50951336 12.5,2.26086957 C12.5,1.01222579 11.4824654,1.77635684e-15 10.2272727,1.77635684e-15 L7.38636363,1.77635684e-15 C7.07256548,1.77635684e-15 6.81818182,0.253056442 6.81818182,0.565217383 L6.81818182,5.65217391 L7.95454544,5.65217391 L7.95454544,4.52173914 Z" id="形状"></path>
                </g>
                <rect id="矩形" stroke="#979797" opacity="0" x="0" y="0" width="28" height="28"></rect>
            </g>
        </g>
    </g>
</svg>
