<?xml version="1.0" encoding="UTF-8"?>
<svg width="24px" height="24px" viewBox="0 0 24 24" version="1.1" xmlns="http://www.w3.org/2000/svg" xmlns:xlink="http://www.w3.org/1999/xlink">
    <g id="超级管理员角色优化" stroke="none" stroke-width="1" fill="none" fill-rule="evenodd">
        <g id="画板备份-2" transform="translate(-609.000000, -532.000000)">
            <g id="Renewal_Not-clickable--" transform="translate(609.000000, 532.000000)">
                <polygon id="路径" points="0 0 24 0 24 24 0 24"></polygon>
                <polygon id="路径备份" points="0 0 24 0 24 24 0 24"></polygon>
                <path d="M9,2 L9,4 L15,4 L15,2 L17,2 L17,4 L21,4 C21.5522847,4 22,4.44771525 22,5 L22,21 C22,21.5522847 21.5522847,22 21,22 L3,22 C2.44771525,22 2,21.5522847 2,21 L2,5 C2,4.44771525 2.44771525,4 3,4 L7,4 L7,2 L9,2 Z M20,11 L4,11 L4,20 L20,20 L20,11 Z M15.036,12.136 L16.45,13.55 L11.5,18.5 L7.964,14.964 L9.38,13.55 L11.501,15.672 L15.037,12.136 L15.036,12.136 Z M7,6 L4,6 L4,9 L20,9 L20,6 L17,6 L17,7 L15,7 L15,6 L9,6 L9,7 L7,7 L7,6 Z" id="形状" fill="#B7B7B7" fill-rule="nonzero"></path>
            </g>
        </g>
    </g>
</svg>