<?xml version="1.0" encoding="UTF-8"?>
<svg width="24px" height="24px" viewBox="0 0 24 24" version="1.1" xmlns="http://www.w3.org/2000/svg" xmlns:xlink="http://www.w3.org/1999/xlink">
    <g id="超级管理员角色优化" stroke="none" stroke-width="1" fill="none" fill-rule="evenodd">
        <g id="画板" transform="translate(-726.000000, -446.000000)">
            <g id="删除不可点击备份-2" transform="translate(726.000000, 446.000000)">
                <path d="M17,6 L22,6 L22,8 L20,8 L20,21 C20,21.5522847 19.5522847,22 19,22 L5,22 C4.44771525,22 4,21.5522847 4,21 L4,8 L2,8 L2,6 L7,6 L7,3 C7,2.44771525 7.44771525,2 8,2 L16,2 C16.5522847,2 17,2.44771525 17,3 L17,6 Z M18,8 L6,8 L6,20 L18,20 L18,8 Z M9,11 L11,11 L11,17 L9,17 L9,11 Z M13,11 L15,11 L15,17 L13,17 L13,11 Z M9,4 L9,6 L15,6 L15,4 L9,4 Z" id="形状" fill="#FD5E3A" fill-rule="nonzero"></path>
                <path d="M17,6 L22,6 L22,8 L20,8 L20,21 C20,21.5522847 19.5522847,22 19,22 L5,22 C4.44771525,22 4,21.5522847 4,21 L4,8 L2,8 L2,6 L7,6 L7,3 C7,2.44771525 7.44771525,2 8,2 L16,2 C16.5522847,2 17,2.44771525 17,3 L17,6 Z M18,8 L6,8 L6,20 L18,20 L18,8 Z M9,11 L11,11 L11,17 L9,17 L9,11 Z M13,11 L15,11 L15,17 L13,17 L13,11 Z M9,4 L9,6 L15,6 L15,4 L9,4 Z" id="形状备份" fill="#FF7A5B" fill-rule="nonzero"></path>
                <g id="delete-bin-line备份"></g>
                <g id="delete-bin-line备份-2"></g>
            </g>
        </g>
    </g>
</svg>