<?xml version="1.0" encoding="UTF-8"?>
<svg width="24px" height="24px" viewBox="0 0 24 24" version="1.1" xmlns="http://www.w3.org/2000/svg" xmlns:xlink="http://www.w3.org/1999/xlink">
    <g id="超级管理员角色优化" stroke="none" stroke-width="1" fill="none" fill-rule="evenodd">
        <g id="画板备份-2" transform="translate(-1018.000000, -491.000000)">
            <g id="link_click" transform="translate(1018.000000, 491.000000)">
                <polygon id="路径" points="0 0 24 0 24 24 0 24"></polygon>
                <path d="M17.657,14.828 L16.243,13.414 L17.657,12 C18.6675257,10.9894743 19.062181,9.51660094 18.6923029,8.13619712 C18.3224248,6.7557933 17.2442067,5.67757518 15.8638029,5.3076971 C14.4833991,4.93781902 13.0105257,5.33247425 12,6.343 L10.586,7.757 L9.172,6.343 L10.586,4.929 C12.9345588,2.61838521 16.7069259,2.63374593 19.03659,4.96341 C21.3662541,7.29307407 21.3816148,11.0654412 19.071,13.414 L17.657,14.828 L17.657,14.828 Z M14.828,17.657 L13.414,19.071 C11.9024795,20.6073421 9.68307771,21.2149626 7.59977329,20.6627998 C5.51646887,20.110637 3.88936297,18.4835311 3.33720019,16.4002267 C2.78503741,14.3169223 3.39265792,12.0975205 4.929,10.586 L6.343,9.172 L7.757,10.586 L6.343,12 C5.33247425,13.0105257 4.93781902,14.4833991 5.3076971,15.8638029 C5.67757518,17.2442067 6.7557933,18.3224248 8.13619712,18.6923029 C9.51660094,19.062181 10.9894743,18.6675257 12,17.657 L13.414,16.243 L14.828,17.657 L14.828,17.657 Z M14.828,7.757 L16.243,9.172 L9.172,16.242 L7.757,14.828 L14.828,7.758 L14.828,7.757 Z" id="形状" fill="#029B53" fill-rule="nonzero"></path>
            </g>
        </g>
    </g>
</svg>