<?xml version="1.0" encoding="UTF-8"?>
<svg width="24px" height="24px" viewBox="0 0 24 24" version="1.1" xmlns="http://www.w3.org/2000/svg" xmlns:xlink="http://www.w3.org/1999/xlink">
    <g id="超级管理员角色优化" stroke="none" stroke-width="1" fill="none" fill-rule="evenodd">
        <g id="画板备份-2" transform="translate(-1801.000000, -532.000000)">
            <g id="zhongcareful_Not-clickable" transform="translate(1801.000000, 532.000000)">
                <polygon id="路径" points="0 0 24 0 24 24 0 24"></polygon>
                <path d="M15,4 L5,4 L5,20 L19,20 L19,8 L15,8 L15,4 Z M3,2.992 C3,2.444 3.447,2 3.999,2 L16,2 L21.0000247,7 L21.0000247,20.993 C21.001863,21.2582184 20.8982888,21.5133136 20.7120638,21.7021642 C20.5258387,21.8910147 20.2722185,21.99815 20.007,22 L3.993,22 C3.44655554,21.9961922 3.00435839,21.5544403 3,21.008 L3,2.992 L3,2.992 Z M12,6 C13.0733333,6 13.9426667,6.90933333 13.9426667,8.03133333 C13.9426667,8.59933333 13.72,9.11266667 13.3606667,9.48133333 L13.366,9.47133333 C13.2173333,9.69466667 13.1006667,10.1646667 13.1006667,10.5346667 C13.1006667,11.1493333 13.3313333,11.6966667 13.852,11.9486667 L16,11.948 L16,15.3333333 L8,15.3333333 L8,11.948 L10.0693333,11.948 L10.1026667,11.932 C10.6053333,11.6733333 10.9346667,11.136 10.9346667,10.5346667 C10.9346667,10.2073333 10.8433333,9.80133333 10.7193333,9.558 C10.294219,9.16454887 10.0540002,8.61056977 10.0573333,8.03133333 C10.0573333,6.90933333 10.9266667,6 12,6 Z" id="形状" fill="#B7B7B7" fill-rule="nonzero"></path>
                <rect id="矩形" fill="#B7B7B7" x="8" y="16" width="8" height="1"></rect>
                <rect id="矩形备份" fill="#B7B7B7" x="8" y="17.5" width="8" height="1"></rect>
            </g>
        </g>
    </g>
</svg>