<?xml version="1.0" encoding="UTF-8"?>
<svg width="24px" height="24px" viewBox="0 0 24 24" version="1.1" xmlns="http://www.w3.org/2000/svg" xmlns:xlink="http://www.w3.org/1999/xlink">
    <g id="超级管理员角色优化" stroke="none" stroke-width="1" fill="none" fill-rule="evenodd">
        <g id="画板备份-2" transform="translate(-1685.000000, -491.000000)">
            <g id="Restart_click" transform="translate(1685.000000, 491.000000)">
                <polygon id="路径" points="0 0 24 0 24 24 0 24"></polygon>
                <polygon id="路径备份-6" points="0 0 24 0 24 24 0 24"></polygon>
                <polygon id="路径备份-7" points="0 0 24 0 24 24 0 24"></polygon>
                <path d="M19.375,15.103 C20.7054194,11.9418898 19.8731597,8.28444291 17.3059261,6.01025184 C14.7386925,3.73606076 11.0075645,3.3510179 8.03,5.053 L7.038,3.316 C10.1263899,1.55086773 13.9201509,1.56000749 17,3.34 C21.49,5.932 23.21,11.482 21.117,16.11 L22.459,16.884 L18.294,19.098 L18.129,14.384 L19.375,15.103 Z M4.625,8.897 C3.29458059,12.0581102 4.1268403,15.7155571 6.69407391,17.9897482 C9.26130751,20.2639392 12.9924355,20.6489821 15.97,18.947 L16.962,20.684 C13.8736101,22.4491323 10.0798491,22.4399925 7,20.66 C2.51,18.068 0.79,12.518 2.883,7.89 L1.54,7.117 L5.705,4.903 L5.87,9.617 L4.624,8.898 L4.625,8.897 Z M13.415,14.828 L10.584,12 L7.756,14.828 L6.342,13.414 L10.585,9.172 L13.414,12 L16.243,9.172 L17.657,10.586 L13.414,14.828 L13.415,14.828 Z" id="形状" fill="#21C8C9" fill-rule="nonzero"></path>
                <path d="M19.375,15.103 C20.7054194,11.9418898 19.8731597,8.28444291 17.3059261,6.01025184 C14.7386925,3.73606076 11.0075645,3.3510179 8.03,5.053 L7.038,3.316 C10.1263899,1.55086773 13.9201509,1.56000749 17,3.34 C21.49,5.932 23.21,11.482 21.117,16.11 L22.459,16.884 L18.294,19.098 L18.129,14.384 L19.375,15.103 Z M4.625,8.897 C3.29458059,12.0581102 4.1268403,15.7155571 6.69407391,17.9897482 C9.26130751,20.2639392 12.9924355,20.6489821 15.97,18.947 L16.962,20.684 C13.8736101,22.4491323 10.0798491,22.4399925 7,20.66 C2.51,18.068 0.79,12.518 2.883,7.89 L1.54,7.117 L5.705,4.903 L5.87,9.617 L4.624,8.898 L4.625,8.897 Z M13.415,14.828 L10.584,12 L7.756,14.828 L6.342,13.414 L10.585,9.172 L13.414,12 L16.243,9.172 L17.657,10.586 L13.414,14.828 L13.415,14.828 Z" id="形状备份-3" fill="#029899" fill-rule="nonzero"></path>
            </g>
        </g>
    </g>
</svg>