<?xml version="1.0" encoding="UTF-8"?>
<svg width="24px" height="24px" viewBox="0 0 24 24" version="1.1" xmlns="http://www.w3.org/2000/svg" xmlns:xlink="http://www.w3.org/1999/xlink">
    <g id="超级管理员角色优化" stroke="none" stroke-width="1" fill="none" fill-rule="evenodd">
        <g id="画板备份-2" transform="translate(-1308.000000, -491.000000)">
            <g id="Result_click" transform="translate(1308.000000, 491.000000)">
                <polygon id="路径" points="0 0 24 0 24 24 0 24"></polygon>
                <path d="M3,2 L21,2 C21.5522847,2 22,2.49746139 22,3.11111111 L22,20.8888889 C22,21.5025386 21.5522847,22 21,22 L3,22 C2.44771525,22 2,21.5025386 2,20.8888889 L2,3.11111111 C2,2.49746139 2.44771525,2 3,2 Z M4,4.22222222 L4,19.7777778 L20,19.7777778 L20,4.22222222 L4,4.22222222 Z M16.9,13 C16.380274,15.5090242 14.0485994,17.219593 11.4992842,16.9620865 C8.94996902,16.7045799 7.00747344,14.5622767 7,12 C7.00029082,9.62393334 8.67209489,7.57597335 11,7.1 L11,13 L16.9,13 Z M16.9,11 L13,11 L13,7.1 C14.9635032,7.5020652 16.4979348,9.0364968 16.9,11 Z" id="形状" fill="#0358DC" fill-rule="nonzero"></path>
            </g>
        </g>
    </g>
</svg>