<?xml version="1.0" encoding="UTF-8"?>
<svg width="24px" height="24px" viewBox="0 0 24 24" version="1.1" xmlns="http://www.w3.org/2000/svg" xmlns:xlink="http://www.w3.org/1999/xlink">
    <g id="超级管理员角色优化" stroke="none" stroke-width="1" fill="none" fill-rule="evenodd">
        <g id="画板备份-2" transform="translate(-1193.000000, -491.000000)">
            <g id="Release_click" transform="translate(1193.000000, 491.000000)">
                <polygon id="路径" points="0 0 24 0 24 24 0 24"></polygon>
                <polygon id="路径备份-3" points="0 0 24 0 24 24 0 24"></polygon>
                <path d="M1.923,9.37 C1.413,9.165 1.419,8.86 1.957,8.681 L21.043,2.319 C21.572,2.143 21.875,2.439 21.727,2.957 L16.273,22.043 C16.123,22.572 15.798,22.596 15.556,22.113 L11,13 L1.923,9.37 Z M6.813,9.17 L12.449,11.425 L15.489,17.507 L19.035,5.097 L6.812,9.17 L6.813,9.17 Z" id="形状" fill="#029B53" fill-rule="nonzero"></path>
            </g>
        </g>
    </g>
</svg>