<?xml version="1.0" encoding="UTF-8"?>
<svg width="24px" height="24px" viewBox="0 0 24 24" version="1.1" xmlns="http://www.w3.org/2000/svg" xmlns:xlink="http://www.w3.org/1999/xlink">
    <g id="超级管理员角色优化" stroke="none" stroke-width="1" fill="none" fill-rule="evenodd">
        <g id="画板备份-2" transform="translate(-1745.000000, -399.000000)">
            <g id="onecareful_normal" transform="translate(1745.000000, 399.000000)">
                <polygon id="路径" points="0 0 24 0 24 24 0 24"></polygon>
                <path d="M15,4 L5,4 L5,20 L19,20 L19,8 L15,8 L15,4 Z M3,2.992 C3,2.444 3.447,2 3.999,2 L16,2 L21.0000247,7 L21.0000247,20.993 C21.001863,21.2582184 20.8982888,21.5133136 20.7120638,21.7021642 C20.5258387,21.8910147 20.2722185,21.99815 20.007,22 L3.993,22 C3.44655554,21.9961922 3.00435839,21.5544403 3,21.008 L3,2.992 L3,2.992 Z M12,7 C13.0733333,7 13.9426667,7.90933333 13.9426667,9.03133333 C13.9426667,9.59933333 13.72,10.1126667 13.3606667,10.4813333 L13.366,10.4713333 C13.2173333,10.6946667 13.1006667,11.1646667 13.1006667,11.5346667 C13.1006667,12.1493333 13.3313333,12.6966667 13.852,12.9486667 L16,12.948 L16,16.3333333 L8,16.3333333 L8,12.948 L10.0693333,12.948 L10.1026667,12.932 C10.6053333,12.6733333 10.9346667,12.136 10.9346667,11.5346667 C10.9346667,11.2073333 10.8433333,10.8013333 10.7193333,10.558 C10.294219,10.1645489 10.0540002,9.61056977 10.0573333,9.03133333 C10.0573333,7.90933333 10.9266667,7 12,7 Z" id="形状" fill="#E56E0D" fill-rule="nonzero"></path>
                <rect id="矩形" fill="#E56E0D" x="8" y="17" width="8" height="1"></rect>
            </g>
        </g>
    </g>
</svg>