<?xml version="1.0" encoding="UTF-8"?>
<svg width="24px" height="24px" viewBox="0 0 24 24" version="1.1" xmlns="http://www.w3.org/2000/svg" xmlns:xlink="http://www.w3.org/1999/xlink">
    <g id="超级管理员角色优化" stroke="none" stroke-width="1" fill="none" fill-rule="evenodd">
        <g id="画板备份-2" transform="translate(-1135.000000, -532.000000)">
            <g id="quxiaoshouquan_Not-clickable" transform="translate(1135.000000, 532.000000)">
                <polygon id="路径" points="0 0 24 0 24 24 0 24"></polygon>
                <path d="M12,1 L20.217,2.826 C20.674,2.928 21,3.333 21,3.802 L21,13.789 C21,15.795 19.997,17.669 18.328,18.781 L12,23 L5.672,18.781 C4.002,17.668 3,15.795 3,13.79 L3,3.802 C3,3.333 3.326,2.928 3.783,2.826 L12,1 Z M12,3.049 L5,4.604 L5,13.789 C5,15.126 5.668,16.375 6.781,17.117 L12,20.597 L17.219,17.117 C18.332,16.375 19,15.127 19,13.79 L19,4.604 L12,3.05 L12,3.049 Z M12,9.586 L14.828,6.757 L16.243,8.172 L13.414,11 L16.243,13.828 L14.828,15.243 L12,12.414 L9.172,15.243 L7.757,13.828 L10.586,11 L7.757,8.172 L9.172,6.757 L12,9.586 Z" id="形状" fill="#B7B7B7" fill-rule="nonzero"></path>
            </g>
        </g>
    </g>
</svg>