<?xml version="1.0" encoding="UTF-8"?>
<svg width="24px" height="24px" viewBox="0 0 24 24" version="1.1" xmlns="http://www.w3.org/2000/svg" xmlns:xlink="http://www.w3.org/1999/xlink">
    <g id="超级管理员角色优化" stroke="none" stroke-width="1" fill="none" fill-rule="evenodd">
        <g id="画板备份-2" transform="translate(-784.000000, -532.000000)">
            <g id="establish_Not-clickable" transform="translate(784.000000, 532.000000)">
                <polygon id="路径" points="0 0 24 0 24 24 0 24"></polygon>
                <path d="M15,4 L5,4 L5,20 L19,20 L19,8 L15,8 L15,4 Z M3,2.992 C3,2.444 3.447,2 3.999,2 L16,2 L21.0000247,7 L21.0000247,20.993 C21.001863,21.2582184 20.8982888,21.5133136 20.7120638,21.7021642 C20.5258387,21.8910147 20.2722185,21.99815 20.007,22 L3.993,22 C3.44655554,21.9961922 3.00435839,21.5544403 3,21.008 L3,2.992 L3,2.992 Z M11,11 L11,8 L13,8 L13,11 L16,11 L16,13 L13,13 L13,16 L11,16 L11,13 L8,13 L8,11 L11,11 Z" id="形状" fill="#B7B7B7" fill-rule="nonzero"></path>
            </g>
        </g>
    </g>
</svg>