<?xml version="1.0" encoding="UTF-8"?>
<svg width="24px" height="24px" viewBox="0 0 24 24" version="1.1" xmlns="http://www.w3.org/2000/svg" xmlns:xlink="http://www.w3.org/1999/xlink">
    <g id="页面-1" stroke="none" stroke-width="1" fill="none" fill-rule="evenodd">
        <g id="色版" transform="translate(-182.000000, -494.000000)">
            <g id="编组-6备份" transform="translate(182.000000, 494.000000)">
                <polygon id="路径" points="0 0 24 0 24 24 0 24"></polygon>
                <path d="M19,2 C19.552,2 20,2.448 20,3 L20,6.757 L18,8.757 L18,4 L4,4 L4,20 L18,20 L18,17.242 L20,15.242 L20,21 C20,21.552 19.552,22 19,22 L3,22 C2.448,22 2,21.552 2,21 L2,3 C2,2.448 2.448,2 3,2 L19,2 Z M20.778,8.808 L22.192,10.222 L14.414,18 L12.998,17.998 L13,16.586 L20.778,8.808 L20.778,8.808 Z M12,12 L12,14 L7,14 L7,12 L12,12 Z M15,8 L15,10 L7,10 L7,8 L15,8 Z" id="形状" fill="#0D7CDB" fill-rule="nonzero"></path>
            </g>
        </g>
    </g>
</svg>