<?xml version="1.0" encoding="UTF-8"?>
<svg width="24px" height="24px" viewBox="0 0 24 24" version="1.1" xmlns="http://www.w3.org/2000/svg" xmlns:xlink="http://www.w3.org/1999/xlink">
    <g id="页面-1" stroke="none" stroke-width="1" fill="none" fill-rule="evenodd">
        <g id="色版" transform="translate(-361.000000, -459.000000)">
            <g id="quxiaoyingyong_normal" transform="translate(361.000000, 459.000000)">
                <polygon id="路径" points="0 0 24 0 24 24 0 24"></polygon>
                <path d="M12,2 C17.523,2 22,6.477 22,12 C22,12.5244257 21.959635,13.0394207 21.8818423,13.5420475 C21.2839814,13.2535892 20.6276107,13.0711703 19.9352233,13.0169677 C19.9781779,12.684643 20,12.3448699 20,12 C20,7.581722 16.418278,4 12,4 C7.581722,4 4,7.581722 4,12 C4,16.418278 7.581722,20 12,20 C12.7394472,20 13.4554627,19.8996771 14.1351779,19.7118999 C14.285024,20.3837002 14.5590386,21.0090158 14.9311245,21.562946 C14.0054241,21.8471298 13.0205702,22 12,22 C6.477,22 2,17.523 2,12 C2,6.477 6.477,2 12,2 Z M16,13 L16.00044,14.2567987 C15.7295603,14.4804606 15.4804606,14.7295603 15.2567987,15.00044 L12,15 L12,18 L7,13 L16,13 Z M12,6 L17,11 L8,11 L8,9 L12,9 L12,6 Z" id="形状结合" fill="#CA920D" fill-rule="nonzero"></path>
                <rect id="矩形" stroke="#CA920D" stroke-width="1.4" x="15.7" y="14.7" width="7.6" height="7.6" rx="3.8"></rect>
                <polygon id="路径" stroke="#CA920D" stroke-width="0.4" fill="#CA920D" fill-rule="nonzero" transform="translate(19.699622, 18.499622) rotate(-315.000000) translate(-19.699622, -18.499622) " points="19.3741225 16.7321225 19.3741225 18.1671225 17.9321225 18.1671225 17.9321225 18.8251225 19.3741225 18.8251225 19.3741225 20.2671225 20.0321225 20.2671225 20.0321225 18.8251225 21.4671225 18.8251225 21.4671225 18.1671225 20.0321225 18.1671225 20.0321225 16.7321225"></polygon>
            </g>
        </g>
    </g>
</svg>