<svg width="14" height="14" viewBox="0 0 14 14" fill="none" xmlns="http://www.w3.org/2000/svg">
<g id="Frame">
<path id="Vector" d="M11.4503 3.7889C11.4503 3.78668 11.45 3.78446 11.4495 3.78229C11.4468 3.77335 11.6525 4.39557 11.4414 3.75585C11.4371 3.74242 11.4325 3.72906 11.4278 3.71579C11.2232 3.13479 10.8915 2.90963 10.6484 2.86374C10.3361 2.80424 9.99781 2.94268 9.99781 3.34907C9.99781 3.40974 10.0095 3.47585 10.0309 3.5439L10.0289 3.54351C10.0301 3.54702 10.032 3.55051 10.034 3.55401C10.0561 3.62324 10.088 3.6944 10.1265 3.76518C10.3148 4.23029 10.4182 4.73896 10.4182 5.27135C10.4182 6.31202 10.0223 7.2609 9.37286 7.97568C10.7678 8.79974 11.7956 10.4933 12.1491 12.1275H13.4154C13.126 10.4871 12.2818 8.72818 11.084 7.67546C11.4641 6.93117 11.6617 6.1071 11.6603 5.27135C11.6611 4.76973 11.5904 4.27057 11.4503 3.7889ZM5.8647 8.70913C6.31363 8.7091 6.75815 8.62065 7.1729 8.44883C7.58764 8.27701 7.96448 8.02518 8.2819 7.70773C8.59933 7.39027 8.85111 7.0134 9.02289 6.59863C9.19466 6.18387 9.28306 5.73933 9.28303 5.2904C9.283 4.84148 9.19456 4.39695 9.02274 3.9822C8.85092 3.56746 8.59909 3.19062 8.28163 2.8732C7.96417 2.55577 7.5873 2.30399 7.17254 2.13222C6.75777 1.96044 6.31324 1.87204 5.86431 1.87207C4.95766 1.87212 4.08816 2.23234 3.4471 2.87347C2.80604 3.51461 2.44592 4.38414 2.44598 5.29079C2.44603 6.19744 2.80624 7.06694 3.44738 7.708C4.08851 8.34906 4.95805 8.70918 5.8647 8.70913ZM8.02692 5.24529C8.02692 5.83082 7.79432 6.39236 7.38029 6.80639C6.96626 7.22042 6.40472 7.45301 5.8192 7.45301C5.23367 7.45301 4.67213 7.22042 4.2581 6.80639C3.84407 6.39236 3.61148 5.83082 3.61148 5.24529C3.61148 4.65977 3.84407 4.09823 4.2581 3.6842C4.67213 3.27017 5.23367 3.03757 5.8192 3.03757C6.40472 3.03757 6.96626 3.27017 7.38029 3.6842C7.79432 4.09823 8.02692 4.65977 8.02692 5.24529ZM10.5259 12.1275C10.1067 9.65451 8.05531 7.46624 5.70681 7.46624C3.08531 7.46624 1.00436 9.65451 0.582031 12.1275H1.83036C2.2317 10.346 3.76664 8.70913 5.70681 8.70913C7.38486 8.70913 8.88209 10.3456 9.27798 12.1275H10.5259Z" fill="#02ADEC"/>
</g>
</svg>
