<svg width="12" height="12" viewBox="0 0 12 12" fill="none" xmlns="http://www.w3.org/2000/svg">
<path id="Vector" d="M0.5 1.75C0.5 1.71717 0.506466 1.68466 0.51903 1.65433C0.531594 1.624 0.550009 1.59644 0.573223 1.57322C0.596438 1.55001 0.623998 1.53159 0.654329 1.51903C0.684661 1.50647 0.71717 1.5 0.75 1.5H3.75C3.8163 1.5 3.87989 1.52634 3.92678 1.57322C3.97366 1.62011 4 1.6837 4 1.75C4 1.8163 3.97366 1.87989 3.92678 1.92678C3.87989 1.97366 3.8163 2 3.75 2H0.75C0.71717 2 0.684661 1.99353 0.654329 1.98097C0.623998 1.96841 0.596438 1.94999 0.573223 1.92678C0.550009 1.90356 0.531594 1.876 0.51903 1.84567C0.506466 1.81534 0.5 1.78283 0.5 1.75ZM0.75 6.5H3.75C3.8163 6.5 3.87989 6.47366 3.92678 6.42678C3.97366 6.37989 4 6.3163 4 6.25C4 6.1837 3.97366 6.12011 3.92678 6.07322C3.87989 6.02634 3.8163 6 3.75 6H0.75C0.683696 6 0.620107 6.02634 0.573223 6.07322C0.526339 6.12011 0.5 6.1837 0.5 6.25C0.5 6.3163 0.526339 6.37989 0.573223 6.42678C0.620107 6.47366 0.683696 6.5 0.75 6.5ZM11.25 10.5H0.75C0.683696 10.5 0.620107 10.5263 0.573223 10.5732C0.526339 10.6201 0.5 10.6837 0.5 10.75C0.5 10.8163 0.526339 10.8799 0.573223 10.9268C0.620107 10.9737 0.683696 11 0.75 11H11.25C11.3163 11 11.3799 10.9737 11.4268 10.9268C11.4737 10.8799 11.5 10.8163 11.5 10.75C11.5 10.6837 11.4737 10.6201 11.4268 10.5732C11.3799 10.5263 11.3163 10.5 11.25 10.5ZM6 3.5C6 2.1193 7.1193 1 8.5 1C9.8807 1 11 2.1193 11 3.5C11.0009 4.07683 10.8014 4.63606 10.4356 5.08211L11.4268 6.0732C11.45 6.09642 11.4684 6.12398 11.481 6.15432C11.4936 6.18465 11.5 6.21717 11.5 6.25C11.5 6.28283 11.4936 6.31535 11.481 6.34568C11.4684 6.37602 11.45 6.40358 11.4268 6.4268C11.4036 6.45001 11.376 6.46843 11.3457 6.481C11.3153 6.49356 11.2828 6.50003 11.25 6.50003C11.2172 6.50003 11.1847 6.49356 11.1543 6.481C11.124 6.46843 11.0964 6.45001 11.0732 6.4268L10.0821 5.43563C9.63607 5.80139 9.07683 6.00088 8.5 6C7.1193 6 6 4.8807 6 3.5ZM6.5 3.5C6.5 4.60453 7.39547 5.5 8.5 5.5C9.60453 5.5 10.5 4.60453 10.5 3.5C10.5 2.39547 9.60453 1.5 8.5 1.5C7.39547 1.5 6.5 2.39547 6.5 3.5Z" fill="#767C94" stroke="#767C94" stroke-width="0.4"/>
</svg>
