<svg width="12" height="11" viewBox="0 0 12 11" fill="none" xmlns="http://www.w3.org/2000/svg">
<path id="Vector" d="M0.5 1.48567C0.5 1.4529 0.506466 1.42045 0.51903 1.39018C0.531594 1.3599 0.550009 1.33239 0.573223 1.30922C0.596438 1.28605 0.623998 1.26767 0.654329 1.25513C0.684661 1.24259 0.71717 1.23613 0.75 1.23613H3.75C3.8163 1.23613 3.87989 1.26242 3.92678 1.30922C3.97366 1.35602 4 1.41949 4 1.48567C4 1.55185 3.97366 1.61532 3.92678 1.66212C3.87989 1.70892 3.8163 1.73521 3.75 1.73521H0.75C0.71717 1.73521 0.684661 1.72875 0.654329 1.71621C0.623998 1.70367 0.596438 1.68529 0.573223 1.66212C0.550009 1.63895 0.531594 1.61144 0.51903 1.58117C0.506466 1.55089 0.5 1.51844 0.5 1.48567ZM0.75 6.22688H3.75C3.8163 6.22688 3.87989 6.20058 3.92678 6.15379C3.97366 6.10699 4 6.04352 4 5.97734C4 5.91116 3.97366 5.84769 3.92678 5.80089C3.87989 5.75409 3.8163 5.7278 3.75 5.7278H0.75C0.683696 5.7278 0.620107 5.75409 0.573223 5.80089C0.526339 5.84769 0.5 5.91116 0.5 5.97734C0.5 6.04352 0.526339 6.10699 0.573223 6.15379C0.620107 6.20058 0.683696 6.22688 0.75 6.22688ZM11.25 10.2195H0.75C0.683696 10.2195 0.620107 10.2458 0.573223 10.2926C0.526339 10.3394 0.5 10.4028 0.5 10.469C0.5 10.5352 0.526339 10.5987 0.573223 10.6455C0.620107 10.6923 0.683696 10.7185 0.75 10.7185H11.25C11.3163 10.7185 11.3799 10.6923 11.4268 10.6455C11.4737 10.5987 11.5 10.5352 11.5 10.469C11.5 10.4028 11.4737 10.3394 11.4268 10.2926C11.3799 10.2458 11.3163 10.2195 11.25 10.2195ZM6 3.23243C6 1.85428 7.1193 0.737061 8.5 0.737061C9.8807 0.737061 11 1.85428 11 3.23243C11.0009 3.8082 10.8014 4.36639 10.4356 4.81161L11.4268 5.80087C11.45 5.82404 11.4684 5.85156 11.481 5.88183C11.4936 5.91211 11.5 5.94456 11.5 5.97734C11.5 6.01011 11.4936 6.04256 11.481 6.07284C11.4684 6.10312 11.45 6.13063 11.4268 6.15381C11.4036 6.17698 11.376 6.19537 11.3457 6.20791C11.3153 6.22045 11.2828 6.2269 11.25 6.2269C11.2172 6.2269 11.1847 6.22045 11.1543 6.20791C11.124 6.19536 11.0964 6.17698 11.0732 6.15381L10.0821 5.16447C9.63607 5.52956 9.07683 5.72868 8.5 5.7278C7.1193 5.7278 6 4.61058 6 3.23243ZM6.5 3.23243C6.5 4.33492 7.39547 5.22873 8.5 5.22873C9.60453 5.22873 10.5 4.33492 10.5 3.23243C10.5 2.12995 9.60453 1.23613 8.5 1.23613C7.39547 1.23613 6.5 2.12995 6.5 3.23243Z" fill="#356DF6" stroke="#356DF6" stroke-width="0.4"/>
</svg>
