<?xml version="1.0" encoding="UTF-8"?>
<svg width="502px" height="284px" viewBox="0 0 502 284" version="1.1" xmlns="http://www.w3.org/2000/svg" xmlns:xlink="http://www.w3.org/1999/xlink">
    <title>Group 427335712</title>
    <defs>
        <radialGradient cx="50%" cy="0.000404573297%" fx="50%" fy="0.000404573297%" r="85.5195126%" gradientTransform="translate(0.500000,0.000004),scale(0.374502,1.000000),rotate(90.203800),translate(-0.500000,-0.000004)" id="radialGradient-1">
            <stop stop-color="#E2E2E2" offset="0%"></stop>
            <stop stop-color="#F8F8F8" stop-opacity="0" offset="100%"></stop>
        </radialGradient>
        <linearGradient x1="50.5869943%" y1="6.45951013%" x2="44.5086255%" y2="102.702353%" id="linearGradient-2">
            <stop stop-color="#E3E3E3" offset="0%"></stop>
            <stop stop-color="#C9C9C9" offset="100%"></stop>
        </linearGradient>
        <linearGradient x1="69.3683572%" y1="-3.87397966%" x2="35.2831419%" y2="100.311442%" id="linearGradient-3">
            <stop stop-color="#F2F2F2" offset="0%"></stop>
            <stop stop-color="#E4E4E4" offset="97.9167%"></stop>
        </linearGradient>
        <linearGradient x1="57.60749%" y1="-1.6478779%" x2="41.0732853%" y2="102.014902%" id="linearGradient-4">
            <stop stop-color="#FFFFFF" offset="0%"></stop>
            <stop stop-color="#F8F8F8" offset="100%"></stop>
        </linearGradient>
        <linearGradient x1="45.0549966%" y1="67.6145374%" x2="76.6754491%" y2="33.9848522%" id="linearGradient-5">
            <stop stop-color="#DFDFDF" offset="0%"></stop>
            <stop stop-color="#EBEBEB" offset="100%"></stop>
        </linearGradient>
        <linearGradient x1="60.2867556%" y1="33.2362177%" x2="39.0209673%" y2="54.5786037%" id="linearGradient-6">
            <stop stop-color="#F5F5F5" offset="28.8952%"></stop>
            <stop stop-color="#FAFAFA" offset="96.1443%"></stop>
        </linearGradient>
        <linearGradient x1="53.5417895%" y1="43.7872566%" x2="43.9569467%" y2="60.4006192%" id="linearGradient-7">
            <stop stop-color="#F2F2F2" offset="0%"></stop>
            <stop stop-color="#D7D7D7" offset="100%"></stop>
        </linearGradient>
    </defs>
    <g id="机构管理" stroke="none" stroke-width="1" fill="none" fill-rule="evenodd">
        <g id="机构验证没有机构" transform="translate(-744.000000, -343.000000)">
            <g id="Group-427335712" transform="translate(744.000000, 343.000000)">
                <ellipse id="椭圆形" fill="url(#radialGradient-1)" fill-rule="nonzero" cx="251" cy="190" rx="251" ry="94"></ellipse>
                <path d="M168.242018,37.2606266 C167.165557,32.9549997 169.780909,28.5911309 174.083707,27.5136569 L255.007238,7.24930926 C261.18794,5.7015553 266.62205,11.626595 264.552167,17.6561498 L219.522106,148.833843 C218.495926,151.82293 215.814295,153.933053 212.668712,154.225025 L204.69848,154.965245 C200.751455,155.331925 197.127445,152.762118 196.165257,148.913888 L168.242018,37.2606266 Z" id="路径" fill="url(#linearGradient-2)" fill-rule="nonzero"></path>
                <path d="M194.581943,13.460413 L279.670179,13.460413 C285.492365,13.460413 290.212179,18.1802272 290.212179,24.002413 L290.212179,135.824035 C290.212179,141.646221 285.492365,146.366035 279.670179,146.366035 L194.581943,146.366035 C188.759757,146.366035 184.039943,141.646221 184.039943,135.824035 L184.039943,24.002413 C184.039943,18.1802272 188.759757,13.460413 194.581943,13.460413 Z" id="矩形" fill="url(#linearGradient-3)" fill-rule="nonzero" transform="translate(237.126061, 79.913224) rotate(-14.049700) translate(-237.126061, -79.913224) "></path>
                <path d="M202.228203,98.3072352 C191.163189,78.6028794 183,44.4853348 183,30.7550103 L266.425541,10 C273.007579,48.2300105 285.86624,71.529756 305,105.280274 C299.898578,112.425978 280.642195,121.826249 263.882446,123.954757 C243.726574,125.570619 225.536477,132.409194 217.06635,136 C216.318425,131.879741 208.318987,109.155289 202.228203,98.3072352 Z" id="路径" fill="url(#linearGradient-4)" fill-rule="nonzero"></path>
                <path d="M193.274999,16.7337482 C193.626063,15.4813676 194.837653,14.7741787 196.094174,14.4582918 L212.225607,10.4037727 C211.71386,7.66389375 212.231699,1.79642868 218.40007,0.246135385 C220.70826,-0.421051373 225.934622,-0.135070485 228.368463,6.34642362 L242.74686,2.73246348 C243.748269,2.48074829 244.838776,2.44174046 245.62848,3.10984505 C247.287848,4.5147386 249.264773,7.86994684 249.193951,13.8872478 L249.450585,13.8226172 C250.11616,13.655419 250.792396,14.0692079 250.961455,14.7469497 C251.130515,15.424615 250.727667,16.1095465 250.062092,16.2768212 L195.610604,29.9629074 C194.94579,30.1301057 194.269554,29.7163168 194.100495,29.038575 C193.931436,28.3609096 194.334284,27.6759782 194.999097,27.5087034 L195.463629,27.3920624 C194.251277,25.4185724 192.270545,20.3077062 193.274999,16.7337482 Z M220.354149,8.92529969 C221.997525,8.51227567 222.995888,6.83960489 222.584663,5.18919152 C222.173438,3.53877814 220.507978,2.53566518 218.864602,2.9486892 C217.221987,3.36171322 216.222864,5.03446048 216.634088,6.68479737 C217.045313,8.33521075 218.710773,9.33832371 220.354149,8.92529969 Z" id="形状" fill="url(#linearGradient-5)"></path>
                <path d="M345.802926,63 C328.340787,73.6668423 308.658417,68.4688259 301,64.536367 C320.149484,85.1926464 335.85547,95.54596 341.3143,98.1403911 C354.625741,104.792387 368.651264,105.384354 374,104.848838 C359.218345,96.2828669 349.043055,73.3800131 345.802926,63 Z" id="路径" fill="url(#linearGradient-6)" fill-rule="nonzero"></path>
                <path d="M337.189569,76.515379 C322.025529,79.818326 306.744713,69.5482131 301,64 C319.145589,100.901997 356.560536,107.253463 373,105.816063 C345.662566,105.621591 337.736288,86.2013077 337.189569,76.515379 Z" id="路径" fill="url(#linearGradient-7)" fill-rule="nonzero"></path>
                <g id="机构管理" transform="translate(237.000000, 60.000000) rotate(-15.000000) translate(-237.000000, -60.000000) translate(208.571596, 30.625302)" fill="#E7E7E7" fill-rule="nonzero">
                    <path d="M50.9937413,22.9103852 L5.86896942,22.9103852 C2.00969278,22.9103852 1.42840421,20.3198518 1.42840421,18.7751486 L1.42840421,14.8502801 C1.42840421,12.87883 2.67487866,11.1117376 4.60451698,10.3484018 L26.4238124,1.75336045 C27.7002502,1.24847691 29.1624606,1.24847691 30.4329057,1.75336045 L52.2522011,10.3484018 C54.1818394,11.1057271 55.4283594,12.8728195 55.4283594,14.8502801 L55.4283594,18.7751486 C55.4343065,20.3198518 54.853018,22.9103852 50.9937413,22.9103852 Z M6.34239,17.9877707 L50.5263134,17.9877707 L50.5263134,14.9825115 L28.6410987,6.339386 C28.5152527,6.29130185 28.3474581,6.29130185 28.2216121,6.339386 L6.40231666,14.9344273 C6.360368,14.9584694 6.34838267,14.9524589 6.33639733,14.9404378 L6.33639733,17.9877707 L6.34239,17.9877707 Z M27.3387416,4.06941354 L27.3587416,4.06941354 L27.3387416,4.06941354 Z M51.7488172,57.3746978 L5.11389355,57.3746978 C3.08237992,57.3746978 1.43439688,55.7157947 1.43439688,53.6842395 L1.43439688,47.1928796 C1.43439688,45.1553139 3.08837258,43.5024213 5.11389355,43.5024213 L51.7488172,43.5024213 C53.7803308,43.5024213 55.4283301,45.1613244 55.4283301,47.1928796 L55.4283301,53.6842395 C55.4343065,55.7218052 53.7803308,57.3746978 51.7488172,57.3746978 Z M6.34239,52.4520832 L50.5263134,52.4520832 L50.5263134,48.4250359 L6.34239,48.4250359 L6.34239,52.4520832 Z" id="形状" transform="translate(28.428404, 29.374698) rotate(-3.000000) translate(-28.428404, -29.374698) "></path>
                    <path d="M8.79339023,20.4460727 L13.7013833,20.4460727 L13.7013833,46.2973124 L8.79339023,46.2973124 L8.79339023,20.4460727 Z M43.1613274,20.4460727 L48.0693205,20.4460727 L48.0693205,46.2973124 L43.1613274,46.2973124 L43.1613274,20.4460727 Z M31.7033508,20.4460727 L36.6113439,20.4460727 L36.6113439,46.2973124 L31.7033508,46.2973124 L31.7033508,20.4460727 Z M20.2513668,20.4460727 L25.15936,20.4460727 L25.15936,46.2973124 L20.2513668,46.2973124 L20.2513668,20.4460727 Z" id="形状"></path>
                </g>
                <path d="M282.856522,89.7410993 C283.190962,90.296707 282.914917,91.0193006 282.29609,91.2098163 L224.67239,108.955865 C224.21737,109.095526 223.727465,108.895143 223.501472,108.47616 L222.120487,105.913685 C221.820174,105.358078 222.10532,104.667363 222.708979,104.484438 L280.354672,87.0427586 C280.791491,86.910688 281.261678,87.0920954 281.49753,87.4829942 L282.856522,89.7410993 Z" id="路径" fill="#E7E7E7" opacity="0.8"></path>
            </g>
        </g>
    </g>
</svg>