<?xml version="1.0" encoding="UTF-8"?>
<svg width="24px" height="24px" viewBox="0 0 24 24" version="1.1" xmlns="http://www.w3.org/2000/svg" xmlns:xlink="http://www.w3.org/1999/xlink">
    <title>企业</title>
    <g id="知识图谱" stroke="none" stroke-width="1" fill="none" fill-rule="evenodd">
        <g id="切图" transform="translate(-242.000000, -339.000000)">
            <g id="企业" transform="translate(242.000000, 339.000000)">
                <rect id="矩形备份-5" fill="#D8D8D8" opacity="0" x="0" y="0" width="24" height="24"></rect>
                <path d="M21,20 L3,20 L3,18.2222222 L3.9,18.2222222 L3.9,4.88888889 C3.9,4.39797333 4.302948,4 4.8,4 L17.4,4 C17.89707,4 18.3,4.39797333 18.3,4.88888889 L18.3,9.33333333 L20.1,9.33333333 L20.1,18.2222222 L21,18.2222222 L21,20 Z M16.5,18.2222222 L18.3,18.2222222 L18.3,11.1111111 L12.9,11.1111111 L12.9,18.2222222 L14.7,18.2222222 L14.7,12.8888889 L16.5,12.8888889 L16.5,18.2222222 Z M16.5,9.33333333 L16.5,5.77777778 L5.7,5.77777778 L5.7,18.2222222 L11.1,18.2222222 L11.1,9.33333333 L16.5,9.33333333 Z M7.5,11.1111111 L9.3,11.1111111 L9.3,12.8888889 L7.5,12.8888889 L7.5,11.1111111 Z M7.5,14.6666667 L9.3,14.6666667 L9.3,16.4444444 L7.5,16.4444444 L7.5,14.6666667 Z M7.5,7.55555556 L9.3,7.55555556 L9.3,9.33333333 L7.5,9.33333333 L7.5,7.55555556 Z" id="形状备份-4" fill="#A6A9AE" fill-rule="nonzero"></path>
            </g>
        </g>
    </g>
</svg>