<svg width="19" height="18" viewBox="0 0 19 18" fill="none" xmlns="http://www.w3.org/2000/svg">
<g id="Frame">
<path id="Vector" d="M9.1052 4.8534L9.52494 5.5007L9.94437 4.85319C10.176 4.49568 10.553 3.99159 11.0463 3.58154C11.5396 3.17152 12.1147 2.88306 12.756 2.88306C14.7226 2.88306 16.4081 4.67317 16.4081 6.98234C16.4081 7.47757 16.2353 8.1251 15.9281 8.77237C15.6226 9.41604 15.2074 10.0102 14.7696 10.4091L14.7376 10.4382L14.7111 10.4725C14.0564 11.3176 12.8164 12.5 11.6617 13.4828C11.0882 13.971 10.5469 14.4003 10.1242 14.705C9.91183 14.8581 9.73701 14.9741 9.6071 15.0497C9.58187 15.0644 9.55964 15.0768 9.54028 15.0871C9.52034 15.0764 9.49739 15.0635 9.47128 15.0481C9.33942 14.9708 9.16178 14.8522 8.94611 14.6965C8.51677 14.3863 7.96654 13.9503 7.38461 13.4568C6.21256 12.4629 4.95885 11.2756 4.31688 10.4507L4.29064 10.417L4.25907 10.3883C3.83067 9.99791 3.42071 9.40897 3.11796 8.76769C2.81363 8.12307 2.6416 7.47655 2.6416 6.98234C2.6416 4.67314 4.32686 2.88306 6.29346 2.88306C6.93472 2.88306 7.50968 3.1715 8.00288 3.58152C8.49612 3.99158 8.87323 4.49569 9.1052 4.8534ZM9.4506 15.129C9.45065 15.1289 9.45282 15.1281 9.4569 15.127C9.45258 15.1286 9.45055 15.1292 9.4506 15.129ZM9.62404 15.1276C9.62839 15.1289 9.63072 15.1298 9.6308 15.1299C9.63089 15.13 9.62871 15.1294 9.62404 15.1276Z" stroke="#356DF6"/>
</g>
</svg>
