<?xml version="1.0" encoding="UTF-8"?>
<svg width="502px" height="284px" viewBox="0 0 502 284" version="1.1" xmlns="http://www.w3.org/2000/svg" xmlns:xlink="http://www.w3.org/1999/xlink">
    <title>编组 5</title>
    <defs>
        <radialGradient cx="50%" cy="0.000404573297%" fx="50%" fy="0.000404573297%" r="85.5195126%" gradientTransform="translate(0.500000,0.000004),scale(0.374502,1.000000),rotate(90.203800),translate(-0.500000,-0.000004)" id="radialGradient-1">
            <stop stop-color="#E2E2E2" offset="0%"></stop>
            <stop stop-color="#F8F8F8" stop-opacity="0" offset="100%"></stop>
        </radialGradient>
        <linearGradient x1="50.5869943%" y1="6.45951013%" x2="44.5086255%" y2="102.702353%" id="linearGradient-2">
            <stop stop-color="#E3E3E3" offset="0%"></stop>
            <stop stop-color="#C9C9C9" offset="100%"></stop>
        </linearGradient>
        <linearGradient x1="69.3683572%" y1="-3.87397966%" x2="35.2831419%" y2="100.311442%" id="linearGradient-3">
            <stop stop-color="#F2F2F2" offset="0%"></stop>
            <stop stop-color="#E4E4E4" offset="97.9167%"></stop>
        </linearGradient>
        <linearGradient x1="57.60749%" y1="-1.6478779%" x2="41.0732853%" y2="102.014902%" id="linearGradient-4">
            <stop stop-color="#FFFFFF" offset="0%"></stop>
            <stop stop-color="#F8F8F8" offset="100%"></stop>
        </linearGradient>
        <linearGradient x1="45.0549966%" y1="67.6145374%" x2="76.6754491%" y2="33.9848522%" id="linearGradient-5">
            <stop stop-color="#DFDFDF" offset="0%"></stop>
            <stop stop-color="#EBEBEB" offset="100%"></stop>
        </linearGradient>
        <linearGradient x1="60.2867556%" y1="33.2362177%" x2="39.0209673%" y2="54.5786037%" id="linearGradient-6">
            <stop stop-color="#F5F5F5" offset="28.8952%"></stop>
            <stop stop-color="#FAFAFA" offset="96.1443%"></stop>
        </linearGradient>
        <linearGradient x1="53.5417895%" y1="43.7872566%" x2="43.9569467%" y2="60.4006192%" id="linearGradient-7">
            <stop stop-color="#F2F2F2" offset="0%"></stop>
            <stop stop-color="#D7D7D7" offset="100%"></stop>
        </linearGradient>
    </defs>
    <g id="知识图谱" stroke="none" stroke-width="1" fill="none" fill-rule="evenodd">
        <g id="全部图谱搜索为空" transform="translate(-709.000000, -343.000000)">
            <g id="编组-5" transform="translate(709.000000, 343.000000)">
                <ellipse id="椭圆形" fill="url(#radialGradient-1)" fill-rule="nonzero" cx="251" cy="190" rx="251" ry="94"></ellipse>
                <path d="M168.242018,37.2606266 C167.165557,32.9549997 169.780909,28.5911309 174.083707,27.5136569 L255.007238,7.24930926 C261.18794,5.7015553 266.62205,11.626595 264.552167,17.6561498 L219.522106,148.833843 C218.495926,151.82293 215.814295,153.933053 212.668712,154.225025 L204.69848,154.965245 C200.751455,155.331925 197.127445,152.762118 196.165257,148.913888 L168.242018,37.2606266 Z" id="路径" fill="url(#linearGradient-2)" fill-rule="nonzero"></path>
                <path d="M194.581943,13.460413 L279.670179,13.460413 C285.492365,13.460413 290.212179,18.1802272 290.212179,24.002413 L290.212179,135.824035 C290.212179,141.646221 285.492365,146.366035 279.670179,146.366035 L194.581943,146.366035 C188.759757,146.366035 184.039943,141.646221 184.039943,135.824035 L184.039943,24.002413 C184.039943,18.1802272 188.759757,13.460413 194.581943,13.460413 Z" id="矩形" fill="url(#linearGradient-3)" fill-rule="nonzero" transform="translate(237.126061, 79.913224) rotate(-14.049700) translate(-237.126061, -79.913224) "></path>
                <path d="M202.228203,98.3072352 C191.163189,78.6028794 183,44.4853348 183,30.7550103 L266.425541,10 C273.007579,48.2300105 285.86624,71.529756 305,105.280274 C299.898578,112.425978 280.642195,121.826249 263.882446,123.954757 C243.726574,125.570619 225.536477,132.409194 217.06635,136 C216.318425,131.879741 208.318987,109.155289 202.228203,98.3072352 Z" id="路径" fill="url(#linearGradient-4)" fill-rule="nonzero"></path>
                <path d="M193.274999,16.7337482 C193.626063,15.4813676 194.837653,14.7741787 196.094174,14.4582918 L212.225607,10.4037727 C211.71386,7.66389375 212.231699,1.79642868 218.40007,0.246135385 C220.70826,-0.421051373 225.934622,-0.135070485 228.368463,6.34642362 L242.74686,2.73246348 C243.748269,2.48074829 244.838776,2.44174046 245.62848,3.10984505 C247.287848,4.5147386 249.264773,7.86994684 249.193951,13.8872478 L249.450585,13.8226172 C250.11616,13.655419 250.792396,14.0692079 250.961455,14.7469497 C251.130515,15.424615 250.727667,16.1095465 250.062092,16.2768212 L195.610604,29.9629074 C194.94579,30.1301057 194.269554,29.7163168 194.100495,29.038575 C193.931436,28.3609096 194.334284,27.6759782 194.999097,27.5087034 L195.463629,27.3920624 C194.251277,25.4185724 192.270545,20.3077062 193.274999,16.7337482 Z M220.354149,8.92529969 C221.997525,8.51227567 222.995888,6.83960489 222.584663,5.18919152 C222.173438,3.53877814 220.507978,2.53566518 218.864602,2.9486892 C217.221987,3.36171322 216.222864,5.03446048 216.634088,6.68479737 C217.045313,8.33521075 218.710773,9.33832371 220.354149,8.92529969 Z" id="形状" fill="url(#linearGradient-5)"></path>
                <path d="M345.802926,63 C328.340787,73.6668423 308.658417,68.4688259 301,64.536367 C320.149484,85.1926464 335.85547,95.54596 341.3143,98.1403911 C354.625741,104.792387 368.651264,105.384354 374,104.848838 C359.218345,96.2828669 349.043055,73.3800131 345.802926,63 Z" id="路径" fill="url(#linearGradient-6)" fill-rule="nonzero"></path>
                <path d="M337.189569,76.515379 C322.025529,79.818326 306.744713,69.5482131 301,64 C319.145589,100.901997 356.560536,107.253463 373,105.816063 C345.662566,105.621591 337.736288,86.2013077 337.189569,76.515379 Z" id="路径" fill="url(#linearGradient-7)" fill-rule="nonzero"></path>
                <path d="M230.901,73.6278372 L220.188279,62.9151163 C221.850558,60.7662791 222.75,58.1385581 222.75,55.375 C222.75,52.0667116 221.458395,48.9647116 219.123837,46.6258558 C216.789279,44.287 213.678837,43 210.375,43 C207.071163,43 203.960721,44.2911442 201.626163,46.6258558 C199.287,48.9605674 198,52.0667116 198,55.375 C198,58.6788372 199.290837,61.7892791 201.626163,64.1238372 C203.960721,66.463 207.066558,67.75 210.375,67.75 C213.138558,67.75 215.762442,66.8505581 217.911279,65.1921163 L228.624,75.901 C228.655465,75.9324651 228.692302,75.9570233 228.733744,75.973907 C228.774419,75.9915581 228.81893,76 228.863442,76 C228.907186,76 228.951698,75.9915581 228.992372,75.973907 C229.033814,75.9570233 229.070651,75.9324651 229.102116,75.901 L230.901,74.1067209 C230.932465,74.0752558 230.957023,74.0376512 230.973907,73.9969767 C230.991558,73.9555349 231,73.9117907 231,73.8672791 C231,73.8227674 230.991558,73.7790233 230.973907,73.7375814 C230.957023,73.696907 230.932465,73.6593023 230.901,73.6278372 L230.901,73.6278372 Z M216.909,61.909 C215.16,63.6541628 212.841558,64.615 210.375,64.615 C207.908442,64.615 205.59,63.6541628 203.841,61.909 C202.095837,60.16 201.135,57.8415581 201.135,55.375 C201.135,52.9082116 202.095837,50.5858558 203.841,48.841 C205.59,47.0961442 207.908442,46.135 210.375,46.135 C212.841558,46.135 215.163837,47.092 216.909,48.841 C218.654163,50.59 219.615,52.9082116 219.615,55.375 C219.615,57.8415581 218.654163,60.1638372 216.909,61.909 Z" id="形状" fill="#E6E6E6" fill-rule="nonzero"></path>
                <path d="M278.908124,75.7740473 C279.16233,76.3275646 278.867906,76.9776432 278.285129,77.1502372 L218.300022,94.9585907 C217.808303,95.1045732 217.286232,94.8536657 217.092731,94.3777017 L216.074388,91.8777501 C215.850535,91.3280345 216.15103,90.7060879 216.71939,90.5403368 L276.717396,73.0399154 C277.192421,72.901536 277.69628,73.1326751 277.902681,73.5827881 L278.908124,75.7740473 Z" id="路径" fill="#E7E7E7" opacity="0.8"></path>
                <path d="M278.908124,75.7740473 C279.16233,76.3275646 278.867906,76.9776432 278.285129,77.1502372 L218.300022,94.9585907 C217.808303,95.1045732 217.286232,94.8536657 217.092731,94.3777017 L216.074388,91.8777501 C215.850535,91.3280345 216.15103,90.7060879 216.71939,90.5403368 L276.717396,73.0399154 C277.192421,72.901536 277.69628,73.1326751 277.902681,73.5827881 L278.908124,75.7740473 Z" id="路径" fill="#E7E7E7" opacity="0.8"></path>
                <path d="M278.908124,74.7740523 C279.16233,75.3275694 278.867906,75.9768875 278.285129,76.1502418 L218.300022,93.9585907 C217.808303,94.1045732 217.286232,93.8536657 217.092731,93.3777018 L216.074388,90.8777509 C215.850535,90.3280354 216.15103,89.7053286 216.71939,89.5395776 L276.717396,72.039921 C277.192421,71.9015417 277.69628,72.1326807 277.902681,72.5820332 L278.908124,74.7740523 Z" id="路径" fill="#E7E7E7" opacity="0.8"></path>
                <path d="M278.908124,74.7740523 C279.16233,75.3275694 278.867906,75.9768875 278.285129,76.1502418 L218.300022,93.9585907 C217.808303,94.1045732 217.286232,93.8536657 217.092731,93.3777018 L216.074388,90.8777509 C215.850535,90.3280354 216.15103,89.7053286 216.71939,89.5395776 L276.717396,72.039921 C277.192421,71.9015417 277.69628,72.1326807 277.902681,72.5820332 L278.908124,74.7740523 Z" id="路径" fill="#E7E7E7" opacity="0.8"></path>
                <path d="M284.856522,92.7410993 C285.190962,93.296707 284.914917,94.0193006 284.29609,94.2098163 L226.67239,111.955865 C226.21737,112.095526 225.727465,111.895143 225.501472,111.47616 L224.120487,108.913685 C223.820174,108.358078 224.10532,107.667363 224.708979,107.484438 L282.354672,90.0427586 C282.791491,89.910688 283.261678,90.0920954 283.49753,90.4829942 L284.856522,92.7410993 Z" id="路径" fill="#E7E7E7" opacity="0.8"></path>
                <path d="M264.963079,36.3864473 C265.114253,36.9240265 264.787225,37.4791033 264.237293,37.6172665 L230.991519,45.9687189 C230.459328,46.1023373 229.915567,45.7959391 229.765165,45.2775997 L229.039379,42.78392 C228.882807,42.2464166 229.20752,41.6877796 229.758223,41.5465865 L262.980087,33.0325045 C263.516135,32.8950987 264.065295,33.2057388 264.213383,33.7301379 L264.963079,36.3864473 Z" id="路径" fill="#E7E7E7" opacity="0.8"></path>
                <path d="M271.962813,54.3865013 C272.114756,54.9243801 271.78696,55.4788474 271.237032,55.6174642 L237.991504,63.9685601 C237.460088,64.1026321 236.916331,63.7958571 236.765159,63.2777483 L236.039379,60.7841603 C235.882807,60.2463573 236.207519,59.6881027 236.758217,59.546456 L269.979836,51.0325043 C270.51588,50.8950994 271.065036,51.2057374 271.213123,51.7301332 L271.962813,54.3865013 Z" id="路径" fill="#E7E7E7" opacity="0.8"></path>
            </g>
        </g>
    </g>
</svg>