<svg width="16" height="16" viewBox="0 0 16 16" fill="none" xmlns="http://www.w3.org/2000/svg">
<g id="Frame" clip-path="url(#clip0_312_12610)">
<path id="Vector" d="M12.9687 15.375C12.7511 15.3751 12.536 15.3278 12.3385 15.2363C12.141 15.1449 11.9658 15.0115 11.8251 14.8454L11.6379 14.625H10.9873L10.8002 14.8453C10.5142 15.1819 10.0972 15.375 9.65628 15.375C9.43861 15.3751 9.22353 15.3278 9.026 15.2363C8.82847 15.1449 8.65324 15.0115 8.5125 14.8454L8.32532 14.625H7.6747L7.48751 14.8454C7.34679 15.0115 7.17158 15.1449 6.97408 15.2363C6.77657 15.3278 6.56151 15.3751 6.34386 15.375C6.12618 15.3751 5.9111 15.3278 5.71357 15.2363C5.51605 15.1449 5.34082 15.0115 5.20008 14.8454L5.01289 14.625H4.3623L4.17511 14.8454C4.03437 15.0115 3.85914 15.1449 3.6616 15.2363C3.46407 15.3278 3.24898 15.3751 3.03131 15.375C2.20415 15.375 1.53125 14.7021 1.53125 13.875C1.53125 13.8509 1.53184 13.8268 1.53294 13.8031L1.53441 13.7714L1.53269 13.7398L1.53125 13.6874V1.56243C1.53125 1.04553 1.95187 0.625 2.46884 0.625H13.5313C14.0482 0.625 14.4688 1.04553 14.4688 1.56243V13.6874L14.4673 13.7402L14.4656 13.7716L14.4671 13.803C14.4682 13.8269 14.4688 13.8509 14.4688 13.875C14.4688 14.7021 13.7959 15.375 12.9687 15.375Z" fill="#356DF6"/>
<path id="Vector_2" d="M12.9687 14.75C13.4512 14.75 13.8438 14.3574 13.8438 13.8749L13.8428 13.8321C13.841 13.7839 13.8413 13.7356 13.8438 13.6874V1.56243C13.8438 1.39012 13.7036 1.25 13.5313 1.25H2.46884C2.29646 1.25 2.15625 1.39012 2.15625 1.56243L2.15675 13.7057C2.15906 13.7478 2.15925 13.7901 2.15725 13.8322L2.15625 13.8749C2.15625 14.3574 2.54881 14.75 3.0313 14.75C3.15833 14.75 3.28385 14.7224 3.39911 14.669C3.51437 14.6156 3.6166 14.5377 3.69871 14.4408C3.81606 14.3026 3.96206 14.1917 4.12657 14.1155C4.29109 14.0394 4.47019 14 4.65145 14H4.7237C4.90498 14 5.08408 14.0394 5.2486 14.1156C5.41312 14.1917 5.55911 14.3027 5.67645 14.4409C5.75856 14.5378 5.8608 14.6156 5.97606 14.669C6.09132 14.7224 6.21683 14.75 6.34385 14.75C6.60104 14.75 6.84426 14.6373 7.01113 14.4409C7.12847 14.3027 7.27446 14.1917 7.43898 14.1156C7.6035 14.0394 7.7826 14 7.96388 14H8.03613C8.2174 14 8.3965 14.0394 8.56101 14.1155C8.72553 14.1917 8.87152 14.3026 8.98887 14.4408C9.07098 14.5377 9.17322 14.6156 9.28848 14.669C9.40374 14.7224 9.52925 14.75 9.65628 14.75C9.78334 14.75 9.90888 14.7224 10.0242 14.6689C10.1394 14.6155 10.2417 14.5376 10.3238 14.4407C10.4412 14.3026 10.5872 14.1916 10.7517 14.1155C10.9161 14.0394 11.0952 14 11.2765 14H11.3487C11.53 14 11.7091 14.0394 11.8736 14.1156C12.0381 14.1917 12.1841 14.3027 12.3015 14.4409C12.3835 14.5378 12.4858 14.6156 12.601 14.669C12.7162 14.7224 12.8417 14.75 12.9687 14.75ZM12.9687 16C12.3195 16 11.7384 15.7089 11.3487 15.25H11.2765C10.8866 15.7089 10.3055 16 9.65628 16C9.00712 16 8.42588 15.7089 8.03613 15.25H7.96388C7.57413 15.7089 6.99301 16 6.34389 16C5.69454 16 5.11345 15.7089 4.7237 15.25H4.65145C4.26171 15.7089 3.68046 16 3.0313 16C1.85771 16 0.90625 15.0485 0.90625 13.8749C0.90625 13.8411 0.907063 13.8074 0.908625 13.774C0.907042 13.7452 0.90625 13.7163 0.90625 13.6874V1.56243C0.90625 0.699622 1.60593 0 2.46884 0H13.5313C14.3942 0 15.0938 0.699653 15.0938 1.56243V13.6874C15.0938 13.7165 15.0929 13.7453 15.0914 13.774C15.0929 13.8074 15.0938 13.8411 15.0938 13.8749C15.0938 15.0485 14.1424 16 12.9687 16Z" fill="#356DF6" fill-opacity="0.2"/>
<path id="Vector_3" d="M3.84375 3.34375H7.28123C7.44699 3.34375 7.60596 3.4096 7.72317 3.52681C7.84038 3.64402 7.90623 3.80299 7.90623 3.96875C7.90623 4.13451 7.84038 4.29348 7.72317 4.41069C7.60596 4.5279 7.44699 4.59374 7.28123 4.59374H3.84375C3.67799 4.59374 3.51902 4.5279 3.40181 4.41069C3.2846 4.29348 3.21875 4.13451 3.21875 3.96875C3.21875 3.80299 3.2846 3.64402 3.40181 3.52681C3.51902 3.4096 3.67799 3.34375 3.84375 3.34375Z" fill="white"/>
<path id="Vector_4" d="M3.84375 5.71875H10.5625C10.7282 5.71875 10.8872 5.7846 11.0044 5.90181C11.1216 6.01902 11.1875 6.17799 11.1875 6.34375C11.1875 6.50951 11.1216 6.66848 11.0044 6.78569C10.8872 6.9029 10.7282 6.96875 10.5625 6.96875H3.84375C3.67799 6.96875 3.51902 6.9029 3.40181 6.78569C3.2846 6.66848 3.21875 6.50951 3.21875 6.34375C3.21875 6.17799 3.2846 6.01902 3.40181 5.90181C3.51902 5.7846 3.67799 5.71875 3.84375 5.71875Z" fill="white"/>
<path id="Vector_5" d="M3.84365 8.09375H10.5624C10.7281 8.09378 10.8871 8.15964 11.0042 8.27684C11.1214 8.39405 11.1873 8.553 11.1873 8.71875C11.1873 8.88449 11.1214 9.04345 11.0042 9.16065C10.8871 9.27786 10.7281 9.34372 10.5624 9.34375H3.84365C3.67791 9.34372 3.51896 9.27786 3.40177 9.16065C3.28458 9.04345 3.21875 8.88449 3.21875 8.71875C3.21875 8.553 3.28458 8.39405 3.40177 8.27684C3.51896 8.15964 3.67791 8.09378 3.84365 8.09375Z" fill="white"/>
</g>
<defs>
<clipPath id="clip0_312_12610">
<rect width="16" height="16" fill="white"/>
</clipPath>
</defs>
</svg>
