<svg width="18" height="17" viewBox="0 0 18 17" fill="none" xmlns="http://www.w3.org/2000/svg">
<g id="Group 427334934">
<path id="Vector" d="M8.17757 10.1915C8.51222 9.85689 9.05477 9.85689 9.38942 10.1915L13.774 14.5761C14.1087 14.9108 14.1087 15.4533 13.774 15.788C13.4393 16.1226 12.8968 16.1226 12.5621 15.788L8.78349 12.0093L5.00484 15.788C4.67019 16.1226 4.12764 16.1226 3.79298 15.788C3.45833 15.4533 3.45833 14.9108 3.79298 14.5761L8.17757 10.1915Z" fill="#356DF6"/>
<path id="Vector_2" d="M2.65671 1H14.9107C16.0152 1 16.5674 1.55224 16.5674 2.65671V11.3402C16.5674 12.4447 16.0152 12.9969 14.9107 12.9969H2.65671C1.55224 12.9969 1 12.4447 1 11.3402V2.65671C1 1.55224 1.55224 1 2.65671 1Z" fill="#356DF6"/>
<path id="Vector_3" d="M8.17757 10.1915C8.51222 9.85689 9.05477 9.85689 9.38942 10.1915L13.774 14.5761C14.1087 14.9108 14.1087 15.4533 13.774 15.788C13.4393 16.1226 12.8968 16.1226 12.5621 15.788L8.78349 12.0093L5.00484 15.788C4.67019 16.1226 4.12764 16.1226 3.79298 15.788C3.45833 15.4533 3.45833 14.9108 3.79298 14.5761L8.17757 10.1915Z" stroke="#356DF6" stroke-opacity="0.2"/>
<path id="Vector_4" d="M2.65671 1H14.9107C16.0152 1 16.5674 1.55224 16.5674 2.65671V11.3402C16.5674 12.4447 16.0152 12.9969 14.9107 12.9969H2.65671C1.55224 12.9969 1 12.4447 1 11.3402V2.65671C1 1.55224 1.55224 1 2.65671 1Z" stroke="#356DF6" stroke-opacity="0.2"/>
<path id="Vector_5" d="M5.78405 4.57056H11.7539C12.2395 4.57056 12.4823 4.81335 12.4823 5.29894C12.4823 5.78453 12.2395 6.02732 11.7539 6.02732H5.78405C5.29846 6.02732 5.05566 5.78453 5.05566 5.29894C5.05566 4.81335 5.29846 4.57056 5.78405 4.57056Z" fill="white"/>
<path id="Vector_6" d="M5.78405 7.94104H9.69732C10.1829 7.94104 10.4257 8.18383 10.4257 8.66942C10.4257 9.15501 10.1829 9.39781 9.69732 9.39781H5.78405C5.29846 9.39781 5.05566 9.15501 5.05566 8.66942C5.05566 8.18383 5.29846 7.94104 5.78405 7.94104Z" fill="white"/>
</g>
</svg>
