<svg width="17" height="17" viewBox="0 0 17 17" fill="none" xmlns="http://www.w3.org/2000/svg">
<g id="Group 427334935">
<path id="Vector" d="M15.25 1C15.16 1 15.0625 1.015 14.9725 1.0525L8.7775 3.6025C8.6875 3.64 8.59 3.655 8.5 3.655C8.41 3.655 8.3125 3.64 8.2225 3.6025L2.0275 1.0525C1.9375 1.015 1.84 1 1.75 1C1.3525 1 1 1.33 1 1.7725V12.4525C1 12.7675 1.1875 13.0525 1.4725 13.1725L8.2225 15.9475C8.3125 15.985 8.41 16 8.5 16C8.5975 16 8.6875 15.985 8.7775 15.9475L15.5275 13.1725C15.8125 13.0525 16 12.775 16 12.4525V1.7725C16 1.33 15.6475 1 15.25 1ZM7.6 8.2975C7.5925 8.335 7.5775 8.3725 7.5475 8.4025L6.7675 9.16C6.7225 9.1975 6.7075 9.2575 6.715 9.3175L6.895 10.39C6.91 10.4875 6.85 10.5775 6.7525 10.5925H6.7225C6.6925 10.5925 6.67 10.585 6.64 10.5775L5.68 10.0675C5.65 10.0525 5.6275 10.045 5.5975 10.045C5.5675 10.045 5.5375 10.0525 5.515 10.0675L4.555 10.5775C4.5325 10.5925 4.5025 10.6 4.4725 10.6C4.4125 10.6 4.345 10.5625 4.315 10.5025C4.3 10.465 4.2925 10.4275 4.3 10.39L4.48 9.325C4.4875 9.265 4.4725 9.2125 4.4275 9.1675L3.655 8.4025C3.5875 8.335 3.5875 8.2225 3.655 8.155C3.685 8.125 3.715 8.11 3.7525 8.1025L4.825 7.945C4.885 7.9375 4.93 7.9 4.96 7.8475L5.44 6.865C5.47 6.7975 5.5375 6.76 5.5975 6.76C5.6275 6.76 5.65 6.7675 5.6725 6.775C5.71 6.7975 5.74 6.8275 5.755 6.865L6.2425 7.84C6.265 7.8925 6.3175 7.93 6.3775 7.9375L7.45 8.095C7.5475 8.11 7.615 8.2 7.6 8.2975ZM13.51 10.9075L10.2475 12.43C10.165 12.475 10.075 12.49 9.9925 12.49C9.76 12.49 9.55 12.3625 9.445 12.145C9.31 11.845 9.4375 11.4925 9.7375 11.35L13 9.8275C13.0825 9.7825 13.1725 9.7675 13.255 9.7675C13.48 9.7675 13.6975 9.895 13.8025 10.1125C13.9375 10.4125 13.81 10.765 13.51 10.9075ZM13.51 8.455L10.2475 9.9775C10.165 10.0225 10.075 10.0375 9.9925 10.0375C9.76 10.0375 9.55 9.91 9.445 9.6925C9.31 9.3925 9.4375 9.04 9.7375 8.8975L13 7.375C13.0825 7.33 13.1725 7.315 13.255 7.315C13.48 7.315 13.6975 7.4425 13.8025 7.66C13.9375 7.96 13.81 8.3125 13.51 8.455ZM13.51 6.0025L10.2475 7.525C10.165 7.57 10.075 7.585 9.9925 7.585C9.76 7.585 9.55 7.4575 9.445 7.24C9.31 6.94 9.4375 6.5875 9.7375 6.445L13 4.9225C13.0825 4.8775 13.1725 4.8625 13.255 4.8625C13.48 4.8625 13.6975 4.99 13.8025 5.2075C13.9375 5.5075 13.81 5.86 13.51 6.0025Z" fill="#356DF6" stroke="#356DF6" stroke-opacity="0.2"/>
<path id="Vector_2" d="M7.60012 8.29755C7.59262 8.33505 7.57762 8.37255 7.54762 8.40255L6.76762 9.16005C6.72262 9.19755 6.70762 9.25755 6.71512 9.31755L6.89512 10.39C6.91012 10.4875 6.85012 10.5775 6.75262 10.5925H6.72262C6.69262 10.5925 6.67012 10.585 6.64012 10.5775L5.68012 10.0675C5.65012 10.0525 5.62762 10.045 5.59762 10.045C5.56762 10.045 5.53762 10.0525 5.51512 10.0675L4.55512 10.5775C4.53262 10.5925 4.50262 10.6 4.47262 10.6C4.41262 10.6 4.34512 10.5625 4.31512 10.5025C4.30012 10.465 4.29262 10.4275 4.30012 10.39L4.48012 9.32505C4.48762 9.26505 4.47262 9.21255 4.42762 9.16755L3.65512 8.40255C3.58762 8.33505 3.58762 8.22255 3.65512 8.15505C3.68512 8.12505 3.71512 8.11005 3.75262 8.10255L4.82512 7.94505C4.88512 7.93755 4.93012 7.90005 4.96012 7.84755L5.44012 6.86505C5.47012 6.79755 5.53762 6.76005 5.59762 6.76005C5.62762 6.76005 5.65012 6.76755 5.67262 6.77505C5.71012 6.79755 5.74012 6.82755 5.75512 6.86505L6.24262 7.84005C6.26512 7.89255 6.31762 7.93005 6.37762 7.93755L7.45012 8.09505C7.54762 8.11005 7.61512 8.20005 7.60012 8.29755ZM13.5101 10.9075L10.2476 12.43C10.1651 12.475 10.0751 12.49 9.99262 12.49C9.76012 12.49 9.55012 12.3625 9.44512 12.145C9.31012 11.845 9.43762 11.4925 9.73762 11.35L13.0001 9.82755C13.0826 9.78255 13.1726 9.76755 13.2551 9.76755C13.4801 9.76755 13.6976 9.89505 13.8026 10.1125C13.9376 10.4125 13.8101 10.765 13.5101 10.9075ZM13.5101 8.45505L10.2476 9.97755C10.1651 10.0225 10.0751 10.0375 9.99262 10.0375C9.76012 10.0375 9.55012 9.91005 9.44512 9.69255C9.31012 9.39255 9.43762 9.04005 9.73762 8.89755L13.0001 7.37505C13.0826 7.33005 13.1726 7.31505 13.2551 7.31505C13.4801 7.31505 13.6976 7.44255 13.8026 7.66005C13.9376 7.96005 13.8101 8.31255 13.5101 8.45505ZM13.5101 6.00255L10.2476 7.52505C10.1651 7.57005 10.0751 7.58505 9.99262 7.58505C9.76012 7.58505 9.55012 7.45755 9.44512 7.24005C9.31012 6.94005 9.43762 6.58755 9.73762 6.44505L13.0001 4.92255C13.0826 4.87755 13.1726 4.86255 13.2551 4.86255C13.4801 4.86255 13.6976 4.99005 13.8026 5.20755C13.9376 5.50755 13.8101 5.86005 13.5101 6.00255Z" fill="white"/>
</g>
</svg>
