<?xml version="1.0" encoding="UTF-8"?>
<svg width="22px" height="22px" viewBox="0 0 22 22" version="1.1" xmlns="http://www.w3.org/2000/svg" xmlns:xlink="http://www.w3.org/1999/xlink">
    <g id="页面-1" stroke="none" stroke-width="1" fill="none" fill-rule="evenodd">
        <g id="画板" transform="translate(-1802.000000, -1046.000000)">
            <g id="编组-55" transform="translate(1802.000000, 1046.000000)">
                <path d="M19.8526645,6.67833969 C20.0491118,6.48707287 20.0491118,6.17791526 19.8526645,5.98664844 L16.9245915,3.14308323 C16.7281441,2.95230559 16.409295,2.95230559 16.2123439,3.14308323 L14.1541801,5.14135674 L8.5080816,5.14135674 L8.5080816,4.34204733 C8.5080816,4.0720236 8.28292271,3.85287389 8.00437044,3.85287389 L3.70519563,3.85287389 C3.42714707,3.85287389 3.20148447,4.0720236 3.20148447,4.34204733 L3.20148447,8.51763183 C3.20148447,8.78765556 3.42714707,9.00680527 3.70519563,9.00680527 L8.00437044,9.00680527 C8.28292271,9.00680527 8.5080816,8.78765556 8.5080816,8.51763183 L8.5080816,7.71783325 L14.3546571,7.71783325 L15.2502556,8.58758363 L15.2502556,14.2977052 L14.4009985,14.2977052 C14.12295,14.2977052 13.8972874,14.5163657 13.8972874,14.7868786 L13.8972874,15.6986979 L8.90450229,15.6986979 C8.40683566,14.6797497 7.34098283,13.9733832 6.10286078,13.9733832 C4.3892354,13.9733832 3,15.3225236 3,16.9866916 C3,18.6513488 4.3892354,20 6.10286078,20 C7.34098283,20 8.40683566,19.2936336 8.90450229,18.2746853 L13.8972874,18.2746853 L13.8972874,19.012848 C13.8972874,19.2833609 14.12295,19.5020214 14.4009985,19.5020214 L18.7525593,19.5020214 C19.0306079,19.5020214 19.2562705,19.2833609 19.2562705,19.012848 L19.2562705,14.7868786 C19.2562705,14.5163657 19.0306079,14.2977052 18.7525593,14.2977052 L17.9027986,14.2977052 L17.9027986,8.5714409 L19.8526645,6.67833969 Z" id="Fill-1" fill="#4CAAB4"></path>
                <rect id="矩形备份-142" fill="#D8D8D8" opacity="0" x="0" y="0" width="22" height="22"></rect>
            </g>
        </g>
    </g>
</svg>
