<?xml version="1.0" encoding="UTF-8"?>
<svg width="344px" height="192px" viewBox="0 0 344 192" version="1.1" xmlns="http://www.w3.org/2000/svg" xmlns:xlink="http://www.w3.org/1999/xlink">
    <g id="模型管理" stroke="none" stroke-width="1" fill="none" fill-rule="evenodd" opacity="0.0713428316">
        <g id="数据要素_模型管理_用户模型_测试报告哦" transform="translate(-1391.000000, -173.000000)" fill-rule="nonzero">
            <g id="编组-9" transform="translate(207.000000, 108.000000)">
                <g id="编组-15" transform="translate(1184.000000, 65.000000)">
                    <g id="编组-8" transform="translate(0.000000, 53.000000)">
                        <polygon id="路径备份-9" fill="#9CA3AF" points="55.5 64.9986924 55.5 129.997385 111 97.4993462 110.997422 32.5006538"></polygon>
                        <polygon id="路径备份-8" fill="#CED0D7" points="0 32.5006538 55.5 64.9986924 55.5 130 0 97.4993462"></polygon>
                        <polygon id="路径备份-7" fill="#E6E8EA" points="55.5 64.9986924 111 32.5006538 55.5 0 0 32.5006538"></polygon>
                    </g>
                    <g id="编组-14" transform="translate(180.000000, 0.000000)">
                        <polygon id="路径备份-9" fill="#9CA3AF" points="82 95.9980688 82 191.996138 164 143.999034 163.99619 48.0009656"></polygon>
                        <polygon id="路径备份-8" fill="#CED0D7" points="0 48.0009656 82 95.9980688 82 192 0 143.999034"></polygon>
                        <polygon id="路径备份-7" fill="#E6E8EA" points="82 95.9980688 164 48.0009656 82 0 0 48.0009656"></polygon>
                    </g>
                </g>
            </g>
        </g>
    </g>
</svg>
