<?xml version="1.0" encoding="UTF-8"?>
<svg width="16px" height="16px" viewBox="0 0 16 16" version="1.1" xmlns="http://www.w3.org/2000/svg" xmlns:xlink="http://www.w3.org/1999/xlink">
    <title>编辑</title>
    <g id="AI中台二期补充" stroke="none" stroke-width="1" fill="none" fill-rule="evenodd">
        <g id="1数据管理-我的数据集-正常" transform="translate(-509.000000, -282.000000)">
            <g id="编组-12" transform="translate(499.000000, 230.000000)">
                <g id="编组-21" transform="translate(10.000000, 52.000000)">
                    <polygon id="路径" points="0 0 16 0 16 16 0 16"></polygon>
                    <path d="M13.3333333,1.33333333 C13.7013333,1.33333333 14,1.632 14,2 L14,4.50466667 L12.6666667,5.838 L12.6666667,2.66666667 L3.33333333,2.66666667 L3.33333333,13.3333333 L12.6666667,13.3333333 L12.6666667,11.4946667 L14,10.1613333 L14,14 C14,14.368 13.7013333,14.6666667 13.3333333,14.6666667 L2.66666667,14.6666667 C2.29866667,14.6666667 2,14.368 2,14 L2,2 C2,1.632 2.29866667,1.33333333 2.66666667,1.33333333 L13.3333333,1.33333333 Z M14.5186667,5.872 L15.4613333,6.81466667 L10.276,12 L9.332,11.9986667 L9.33333333,11.0573333 L14.5186667,5.872 L14.5186667,5.872 Z M8.66666667,8 L8.66666667,9.33333333 L5.33333333,9.33333333 L5.33333333,8 L8.66666667,8 Z M10.6666667,5.33333333 L10.6666667,6.66666667 L5.33333333,6.66666667 L5.33333333,5.33333333 L10.6666667,5.33333333 Z" id="形状" fill="#646464" fill-rule="nonzero"></path>
                </g>
            </g>
        </g>
    </g>
</svg>