<?xml version="1.0" encoding="UTF-8"?>
<svg width="22px" height="22px" viewBox="0 0 22 22" version="1.1" xmlns="http://www.w3.org/2000/svg" xmlns:xlink="http://www.w3.org/1999/xlink">
    <g id="AI中台二期补充" stroke="none" stroke-width="1" fill="none" fill-rule="evenodd">
        <g id="3数据管理-上线管理-详情-单个" transform="translate(-1492.000000, -650.000000)">
            <g id="编组-20" transform="translate(1492.000000, 650.000000)">
                <rect id="矩形备份-7" stroke="#979797" opacity="0" x="0" y="0" width="22" height="22"></rect>
                <path d="M11.1793592,2 C10.469615,2 9.88814248,2.58773897 9.86573357,3.32730399 L9.68143962,9.48721539 L8.72751557,4.72269492 C8.58263038,3.99878207 7.91229493,3.52530394 7.2133688,3.65365173 L7.13377854,3.66812999 C6.43523877,3.79686908 5.96040173,4.4804776 6.06162818,5.21299914 L6.8691216,11.0457802 L5.62079086,7.83160714 C5.3553612,7.14799862 4.61857174,6.80639002 3.95364534,7.05838995 L3.86478243,7.09204212 C3.2010151,7.34404205 2.84710889,8.09808533 3.06347077,8.79930253 L5.51029176,16.7255613 C5.88312963,17.6627349 6.04656012,18.3443869 7.40577633,19.289778 C8.76499253,20.235169 12.7839144,20.4257342 14.6670354,18.6773868 C15.3528253,18.0403435 16.3303173,16.840996 16.8565403,16.0349093 L19.7233351,12.030693 C20.1645588,11.4151714 20.0683551,10.5472586 19.5038824,10.0530413 C18.9448369,9.56002873 18.0975224,9.61721584 17.6080115,10.1809978 L15.3331209,12.7604754 L16.3770669,5.21299914 C16.4782934,4.4804776 16.0038427,3.79647778 15.3049166,3.66812999 L15.2253263,3.65365173 C14.5264002,3.52491264 13.8560647,3.99839077 13.7111795,4.72269492 L12.7580282,9.48721539 L12.5729615,3.32730399 C12.550939,2.58773897 11.9694664,2 11.2597222,2 L11.1789729,2 L11.1793592,2 Z" id="路径" fill="#898989" fill-rule="nonzero"></path>
            </g>
        </g>
    </g>
</svg>