<?xml version="1.0" encoding="UTF-8"?>
<svg width="17px" height="17px" viewBox="0 0 17 17" version="1.1" xmlns="http://www.w3.org/2000/svg" xmlns:xlink="http://www.w3.org/1999/xlink">
    <g id="AI中台第二期" stroke="none" stroke-width="1" fill="none" fill-rule="evenodd">
        <g id="组件1" transform="translate(-251.000000, -674.000000)">
            <g id="biaoge-fill-icon" transform="translate(251.000000, 674.000000)">
                <polygon id="路径" points="0 0 17 0 17 17 0 17"></polygon>
                <path d="M10.625,14.875 L6.375,14.875 L6.375,7.08333333 L10.625,7.08333333 L10.625,14.875 Z M12.0416667,14.875 L12.0416667,7.08333333 L15.5833333,7.08333333 L15.5833333,14.1666667 C15.5833333,14.5578684 15.2662017,14.875 14.875,14.875 L12.0416667,14.875 Z M4.95833333,14.875 L2.125,14.875 C1.7337983,14.875 1.41666667,14.5578684 1.41666667,14.1666667 L1.41666667,7.08333333 L4.95833333,7.08333333 L4.95833333,14.875 Z M15.5833333,5.66666667 L1.41666667,5.66666667 L1.41666667,2.83333333 C1.41666667,2.44213164 1.7337983,2.125 2.125,2.125 L14.875,2.125 C15.2662017,2.125 15.5833333,2.44213164 15.5833333,2.83333333 L15.5833333,5.66666667 Z" id="形状" fill="#CCE0FF" fill-rule="nonzero"></path>
            </g>
        </g>
    </g>
</svg>