<?xml version="1.0" encoding="UTF-8"?>
<svg width="17px" height="17px" viewBox="0 0 17 17" version="1.1" xmlns="http://www.w3.org/2000/svg" xmlns:xlink="http://www.w3.org/1999/xlink">
    <g id="AI中台第二期" stroke="none" stroke-width="1" fill="none" fill-rule="evenodd">
        <g id="组件1" transform="translate(-298.000000, -674.000000)">
            <g id="shipin-fill-icon" transform="translate(298.000000, 674.000000)">
                <polygon id="路径" points="0 0 17 0 17 17 0 17"></polygon>
                <path d="M4.155625,14.3333333 L2,14.3333333 C1.44771525,14.3333333 1,13.8856181 1,13.3333333 L1,3.70833333 L1,3.70833333 C1,3.31713164 1.31713164,3 1.70833333,3 L14.4583333,3 C14.849535,3 15.1666667,3.31713164 15.1666667,3.70833333 L15.1666667,13.625 C15.1666667,14.0162017 14.849535,14.3333333 14.4583333,14.3333333 L4.155625,14.3333333 Z M9.5,8.13541667 L9.5,6.54166667 L4.54166667,6.54166667 L4.54166667,10.7916667 L9.5,10.7916667 L9.5,9.19791667 L11.625,10.7916667 L11.625,6.54166667 L9.5,8.13541667 Z" id="形状" fill="#CCE0FF" fill-rule="nonzero"></path>
            </g>
        </g>
    </g>
</svg>