<?xml version="1.0" encoding="UTF-8"?>
<svg width="17px" height="17px" viewBox="0 0 17 17" version="1.1" xmlns="http://www.w3.org/2000/svg" xmlns:xlink="http://www.w3.org/1999/xlink">
    <g id="AI中台第二期" stroke="none" stroke-width="1" fill="none" fill-rule="evenodd">
        <g id="组件1" transform="translate(-274.000000, -674.000000)">
            <g id="yinpin-fill-icon" transform="translate(274.000000, 674.000000)">
                <polygon id="路径" points="0 0 17 0 17 17 0 17"></polygon>
                <path d="M5.73864611,11.5170216 L2.76470569,11.5170216 C2.3423704,11.5170216 2,11.1746512 2,10.7523159 L2,6.16408177 C2,5.74174648 2.3423704,5.39937608 2.76470569,5.39937608 L5.73864611,5.39937608 L9.78699803,2.08667104 C9.90133632,1.99293326 10.059471,1.97351719 10.1930899,2.03681032 C10.3267087,2.10010346 10.4118612,2.23476084 10.4117627,2.38261214 L10.4117627,14.5337855 C10.4118612,14.6816368 10.3267087,14.8162942 10.1930899,14.8795874 C10.059471,14.9428805 9.90133632,14.9234644 9.78699803,14.8297266 L5.73941082,11.5170216 L5.73864611,11.5170216 Z M13.3658207,11.9689627 L12.2784092,10.8815512 C13.030852,10.3029672 13.4714432,9.40737157 13.4705853,8.45819884 C13.4705853,7.3646697 12.8970561,6.40496406 12.0329386,5.86431714 L13.1333501,4.76390565 C14.3080865,5.62805244 15.001231,6.99985949 14.9999984,8.45819884 C14.9999984,9.86678672 14.365291,11.1270217 13.3658207,11.9689627 L13.3658207,11.9689627 Z" id="形状" fill="#CCE0FF" fill-rule="nonzero"></path>
            </g>
        </g>
    </g>
</svg>