<?xml version="1.0" encoding="UTF-8"?>
<svg width="17px" height="17px" viewBox="0 0 17 17" version="1.1" xmlns="http://www.w3.org/2000/svg" xmlns:xlink="http://www.w3.org/1999/xlink">
    <g id="AI中台第二期" stroke="none" stroke-width="1" fill="none" fill-rule="evenodd">
        <g id="组件1" transform="translate(-227.000000, -674.000000)">
            <g id="wenben-fill-icon" transform="translate(227.000000, 674.000000)">
                <polygon id="路径" points="0 0 17 0 17 17 0 17"></polygon>
                <path d="M14.8750175,6.375 L14.8750175,14.8700417 C14.8763196,15.0579047 14.8029546,15.2385971 14.6710452,15.3723663 C14.5391358,15.5061354 14.3594881,15.5820229 14.171625,15.5833333 L2.828375,15.5833333 C2.44018817,15.5833333 2.12539092,15.2688533 2.125,14.8806667 L2.125,2.11933333 C2.125,1.73895833 2.441625,1.41666667 2.83191667,1.41666667 L9.91666667,1.41666667 L9.91666667,5.66666667 C9.91666667,6.05786836 10.2337983,6.375 10.625,6.375 L14.8750175,6.375 Z M14.875,4.95833333 L11.3333333,4.95833333 L11.3333333,1.41879167 L14.875,4.95833333 Z M5.66666667,4.95833333 L5.66666667,6.375 L7.79166667,6.375 L7.79166667,4.95833333 L5.66666667,4.95833333 Z M5.66666667,7.79166667 L5.66666667,9.20833333 L11.3333333,9.20833333 L11.3333333,7.79166667 L5.66666667,7.79166667 Z M5.66666667,10.625 L5.66666667,12.0416667 L11.3333333,12.0416667 L11.3333333,10.625 L5.66666667,10.625 Z" id="形状" fill="#CCE0FF" fill-rule="nonzero"></path>
            </g>
        </g>
    </g>
</svg>