<?xml version="1.0" encoding="UTF-8"?>
<svg width="16px" height="16px" viewBox="0 0 16 16" version="1.1" xmlns="http://www.w3.org/2000/svg" xmlns:xlink="http://www.w3.org/1999/xlink">
    <title>删除-xiao</title>
    <g id="AI中台二期补充" stroke="none" stroke-width="1" fill="none" fill-rule="evenodd">
        <g id="1数据管理-我的数据集-正常" transform="translate(-509.000000, -315.000000)">
            <g id="编组-12" transform="translate(499.000000, 230.000000)">
                <g id="删除-xiao" transform="translate(10.000000, 85.000000)">
                    <polygon id="路径" points="0 0 16 0 16 16 0 16"></polygon>
                    <path d="M4.66666667,2.66666667 L4.66666667,1.33333333 L11.3333333,1.33333333 L11.3333333,2.66666667 L14.6666667,2.66666667 L14.6666667,4 L13.3333333,4 L13.3333333,14 C13.3333333,14.3681898 13.0348565,14.6666667 12.6666667,14.6666667 L3.33333333,14.6666667 C2.9651435,14.6666667 2.66666667,14.3681898 2.66666667,14 L2.66666667,4 L1.33333333,4 L1.33333333,2.66666667 L4.66666667,2.66666667 Z M4,4 L4,13.3333333 L12,13.3333333 L12,4 L4,4 Z M6,6 L7.33333333,6 L7.33333333,11.3333333 L6,11.3333333 L6,6 Z M8.66666667,6 L10,6 L10,11.3333333 L8.66666667,11.3333333 L8.66666667,6 Z" id="形状" fill="#646464" fill-rule="nonzero"></path>
                </g>
            </g>
        </g>
    </g>
</svg>