<?xml version="1.0" encoding="UTF-8"?>
<svg width="12px" height="15px" viewBox="0 0 12 15" version="1.1" xmlns="http://www.w3.org/2000/svg" xmlns:xlink="http://www.w3.org/1999/xlink">
    <g id="labelstudio导入" stroke="none" stroke-width="1" fill="none" fill-rule="evenodd">
        <g id="labelstudio导入有标注信息备_本地导入" transform="translate(-1051.000000, -536.000000)" fill="#FFFFFF" fill-rule="nonzero">
            <g id="上传" transform="translate(1051.000000, 536.000000)">
                <path d="M7,3.98437883 L7,5.21308308e-06 L0.75,5.21308308e-06 C0.33425,5.21308308e-06 0,0.313364479 0,0.703129969 L0,14.2968752 C0,14.6866407 0.33425,15.0000052 0.75,15.0000052 L11.25,15.0000052 C11.66575,15.0000052 12,14.6866407 12,14.2968752 L12,4.68750358 L7.75,4.68750358 C7.3375,4.68750358 7,4.37109744 7,3.98437883 Z M9.037,10.312736 L7,10.312736 L7,12.6564852 C7,12.9153686 6.77614237,13.125235 6.5,13.125235 L5.5,13.125235 C5.22385763,13.125235 5,12.9153686 5,12.6564852 L5,10.312736 L2.963,10.312736 C2.517,10.312736 2.294,9.80625181 2.611,9.51117378 L5.624,6.70781538 C5.83180091,6.51412064 6.16744909,6.51412064 6.37525,6.70781538 L9.3885,9.51093941 C9.7055,9.80601743 9.483,10.3125016 9.03675,10.3125016 L9.037,10.312736 Z M11.78125,3.07617602 L8.722,0.205083267 C8.58100284,0.0732826314 8.38985982,-0.000504169083 8.19075,2.59314492e-06 L8,2.59314492e-06 L8,3.75000391 L12,3.75000391 L12,3.57141022 C12,3.38567825 11.9212881,3.20755499 11.78125,3.07617602 L11.78125,3.07617602 Z" id="形状"></path>
            </g>
        </g>
    </g>
</svg>