<?xml version="1.0" encoding="UTF-8"?>
<svg width="14px" height="14px" viewBox="0 0 14 14" version="1.1" xmlns="http://www.w3.org/2000/svg" xmlns:xlink="http://www.w3.org/1999/xlink">
    <g id="AI中台第二期" stroke="none" stroke-width="1" fill="none" fill-rule="evenodd">
        <g id="组件部分" transform="translate(-206.000000, -122.000000)" fill="#8C8C8C" fill-rule="nonzero">
            <path d="M217.333333,122.333333 C217.701333,122.333333 218,122.632 218,123 L218,125.504667 L216.666667,126.838 L216.666667,123.666667 L207.333333,123.666667 L207.333333,134.333333 L216.666667,134.333333 L216.666667,132.494667 L218,131.161333 L218,135 C218,135.368 217.701333,135.666667 217.333333,135.666667 L206.666667,135.666667 C206.298667,135.666667 206,135.368 206,135 L206,123 C206,122.632 206.298667,122.333333 206.666667,122.333333 L217.333333,122.333333 Z M218.518667,126.872 L219.461333,127.814667 L214.276,133 L213.332,132.998667 L213.333333,132.057333 L218.518667,126.872 L218.518667,126.872 Z M212.666667,129 L212.666667,130.333333 L209.333333,130.333333 L209.333333,129 L212.666667,129 Z M214.666667,126.333333 L214.666667,127.666667 L209.333333,127.666667 L209.333333,126.333333 L214.666667,126.333333 Z" id="形状"></path>
        </g>
    </g>
</svg>