<?xml version="1.0" encoding="UTF-8"?>
<svg width="14px" height="14px" viewBox="0 0 14 14" version="1.1" xmlns="http://www.w3.org/2000/svg" xmlns:xlink="http://www.w3.org/1999/xlink">
    <g id="AI中台第二期" stroke="none" stroke-width="1" fill="none" fill-rule="evenodd">
        <g id="组件部分" transform="translate(-206.000000, -159.000000)" fill="#0164FF" fill-rule="nonzero">
            <path d="M217.333333,159.333333 C217.701333,159.333333 218,159.632 218,160 L218,162.504667 L216.666667,163.838 L216.666667,160.666667 L207.333333,160.666667 L207.333333,171.333333 L216.666667,171.333333 L216.666667,169.494667 L218,168.161333 L218,172 C218,172.368 217.701333,172.666667 217.333333,172.666667 L206.666667,172.666667 C206.298667,172.666667 206,172.368 206,172 L206,160 C206,159.632 206.298667,159.333333 206.666667,159.333333 L217.333333,159.333333 Z M218.518667,163.872 L219.461333,164.814667 L214.276,170 L213.332,169.998667 L213.333333,169.057333 L218.518667,163.872 L218.518667,163.872 Z M212.666667,166 L212.666667,167.333333 L209.333333,167.333333 L209.333333,166 L212.666667,166 Z M214.666667,163.333333 L214.666667,164.666667 L209.333333,164.666667 L209.333333,163.333333 L214.666667,163.333333 Z" id="形状备份"></path>
        </g>
    </g>
</svg>