<svg width="48" height="64" viewBox="0 0 48 64" fill="#1890FF" xmlns="http://www.w3.org/2000/svg" class="ls-dropzone__icon"><path d="M28 17V0H3C1.337 0 0 1.337 0 3v58c0 1.663 1.337 3 3 3h42c1.663 0 3-1.337 3-3V20H31c-1.65 0-3-1.35-3-3zm8.148 27.001H28v10a2 2 0 01-2 2h-4a2 2 0 01-2-2v-10h-8.148c-1.784 0-2.676-2.161-1.408-3.42L22.496 28.62a2.131 2.131 0 013.005 0L37.554 40.58c1.268 1.259.378 3.42-1.407 3.42zm10.977-30.876L34.888.875A2.998 2.998 0 0032.763 0H32v16h16v-.762a2.99 2.99 0 00-.875-2.113z"></path></svg>