<?xml version="1.0" encoding="UTF-8"?>
<svg width="27px" height="27px" viewBox="0 0 27 27" version="1.1" xmlns="http://www.w3.org/2000/svg" xmlns:xlink="http://www.w3.org/1999/xlink">
    <g id="labelstudio导入" stroke="none" stroke-width="1" fill="none" fill-rule="evenodd">
        <g id="labelstudio导入有标注信息备_平台已有数据集_导入中" transform="translate(-969.000000, -418.000000)" fill="#0164FF">
            <g id="编组-3" transform="translate(961.872069, 418.330000)">
                <g id="编组-10" transform="translate(8.000000, 0.000000)">
                    <rect id="矩形" x="11.9065983" y="0" width="2.18680344" height="8.82852786" rx="1.09340172"></rect>
                    <path d="M24.9173023,7.70271244 C24.918403,7.70505116 24.9194954,7.70739377 24.9205795,7.70974023 C25.1763137,8.26326219 24.9374964,8.91942872 24.3858011,9.17907998 L18.451873,11.9718385 C17.9052056,12.2291233 17.2534736,11.9945325 16.9961887,11.4478651 C16.995088,11.4455264 16.9939956,11.4431838 16.9929115,11.4408373 C16.7371773,10.8873154 16.9759946,10.2311488 17.5276899,9.97149757 L23.461618,7.1787391 C24.0082853,6.92145423 24.6600174,7.15604509 24.9173023,7.70271244 Z M20.1034304,2.10864297 C20.1060066,2.11030055 20.1085757,2.11196901 20.1111378,2.1136483 C20.6188341,2.44641503 20.7633327,3.12625409 20.4348694,3.63674507 L16.8573399,9.19686823 C16.5324427,9.70181682 15.8597198,9.84777731 15.3547712,9.52288011 C15.352195,9.52122253 15.3496258,9.51955407 15.3470638,9.51787478 C14.8393675,9.18510805 14.6948689,8.50526899 15.0233322,7.99477801 L18.6008617,2.43465485 C18.9257589,1.92970626 19.5984818,1.78374577 20.1034304,2.10864297 Z M15.6074457,18.2136474 C15.6079404,18.2153569 15.608431,18.2170676 15.6089173,18.2187795 L17.4219228,24.600257 C17.5873074,25.182383 17.2512124,25.7887282 16.6699043,25.9569651 C16.0922675,26.1241395 15.4884786,25.791394 15.3213041,25.2137571 C15.3208094,25.2120476 15.3203188,25.2103369 15.3198325,25.208625 L13.5068269,18.8271475 C13.3414424,18.2450215 13.6775374,17.6386763 14.2588455,17.4704394 C14.8364823,17.303265 15.4402712,17.6360105 15.6074457,18.2136474 Z M17.8459683,16.0137484 L17.8535002,16.0202959 L22.8025781,20.3624566 C23.2601307,20.7638984 23.3087386,21.459054 22.9115061,21.9202657 C22.5189459,22.3760526 21.8312247,22.4273079 21.3754379,22.0347477 C21.3729172,22.0325767 21.3704066,22.0303942 21.3679059,22.0282002 L16.4188281,17.6860395 C15.9612755,17.2845976 15.9126675,16.589442 16.3099001,16.1282303 C16.7024603,15.6724435 17.3901814,15.6211882 17.8459683,16.0137484 Z M18.5689634,12.9466176 L18.5717431,12.9470082 L25.0489606,13.8657841 C25.6527457,13.9514294 26.073328,14.5095675 25.9892229,15.1135691 C25.9053947,15.7155829 25.3494098,16.1356553 24.747396,16.0518271 C24.7464693,16.051698 24.7455428,16.0515678 24.7446164,16.0514364 L18.2673989,15.1326605 C17.6636138,15.0470153 17.2430314,14.4888771 17.3271365,13.8848755 C17.4109647,13.2828617 17.9669496,12.8627893 18.5689634,12.9466176 Z M11.7360224,17.4689678 C11.7377343,17.4694541 11.739445,17.4699447 11.7411545,17.4704394 C12.3224626,17.6386763 12.6585576,18.2450215 12.4931731,18.8271475 L10.6801675,25.208625 C10.5158275,25.7870747 9.91367744,26.1227768 9.33522778,25.9584367 C9.33351588,25.9579504 9.33180517,25.9574598 9.33009567,25.9569651 C8.74878765,25.7887282 8.41269264,25.182383 8.57807716,24.600257 L10.3910827,18.2187795 C10.5554227,17.6403298 11.1575728,17.3046277 11.7360224,17.4689678 Z M9.68355247,16.1206984 L9.69009994,16.1282303 C10.0873325,16.589442 10.0387245,17.2845976 9.58117193,17.6860395 L4.63209408,22.0282002 C4.17992332,22.4249202 3.49176139,22.3799685 3.0950414,21.9277977 C3.09284742,21.9252971 3.09066491,21.9227864 3.08849393,21.9202657 C2.69126137,21.459054 2.73986933,20.7638984 3.19742194,20.3624566 L8.14649979,16.0202959 C8.59867056,15.6235759 9.28683248,15.6685276 9.68355247,16.1206984 Z M8.67247284,13.8820958 L8.67286351,13.8848755 C8.75696855,14.4888771 8.33638623,15.0470153 7.73260114,15.1326605 L1.25538364,16.0514364 C0.653585595,16.1367998 0.0965311551,15.7181468 0.0111677255,15.1163488 C0.0110363191,15.1154224 0.0109060942,15.1144958 0.0107770511,15.1135691 C-0.0733279923,14.5095675 0.347254337,13.9514294 0.951039426,13.8657841 L7.42825692,12.9470082 C8.03005497,12.8616448 8.58710941,13.2802978 8.67247284,13.8820958 Z M2.53135422,7.17546189 C2.53370068,7.17654599 2.53604329,7.1776384 2.53838201,7.1787391 L8.47231008,9.97149757 C9.02400545,10.2311488 9.2628227,10.8873154 9.00708847,11.4408373 C8.75368495,11.9893146 8.1036321,12.2285192 7.5551548,11.9751157 C7.55280834,11.9740316 7.55046573,11.9729392 7.54812701,11.9718385 L1.61419894,9.17907998 C1.06250357,8.91942872 0.823686319,8.26326219 1.07942054,7.70974023 C1.33282407,7.16126293 1.98287692,6.92205837 2.53135422,7.17546189 Z M7.39413298,2.42694745 C7.39581228,2.42950952 7.39748074,2.43207868 7.39913831,2.43465485 L10.9766678,7.99477801 C11.3051311,8.50526899 11.1606325,9.18510805 10.6529362,9.51787478 C10.150752,9.84702866 9.47681932,9.70675985 9.14766544,9.20457563 C9.14598615,9.20201356 9.14431769,9.1994444 9.14266011,9.19686823 L5.56513063,3.63674507 C5.23666731,3.12625409 5.38116591,2.44641503 5.88886219,2.1136483 C6.39104641,1.78449442 7.0649791,1.92476323 7.39413298,2.42694745 Z" id="形状结合"></path>
                </g>
            </g>
        </g>
    </g>
</svg>