<?xml version="1.0" encoding="UTF-8"?>
<svg width="13px" height="13px" viewBox="0 0 13 13" version="1.1" xmlns="http://www.w3.org/2000/svg" xmlns:xlink="http://www.w3.org/1999/xlink">
    <defs>
        <polygon id="path-1" points="0 0 13 0 13 13 0 13"></polygon>
    </defs>
    <g id="labelstudio导入" stroke="none" stroke-width="1" fill="none" fill-rule="evenodd">
        <g id="labelstudio导入有标注信息备_本地导入" transform="translate(-593.000000, -477.000000)">
            <g id="编组-3" transform="translate(534.000000, 473.000000)">
                <g id="编组-2" transform="translate(59.000000, 4.000000)">
                    <g id="编组">
                        <mask id="mask-2" fill="white">
                            <use xlink:href="#path-1"></use>
                        </mask>
                        <g id="Clip-2"></g>
                        <path d="M6.49106739,13 C4.78161143,13 3.10932602,12.3062547 1.90258712,11.0955472 C0.67549199,9.86919491 -0.00116766117,8.23700975 -0.00116766117,6.50044755 C-0.00116766117,2.91646634 2.91440445,0.000311340891 6.49881288,0 C10.0838246,0 13,2.91555178 13,6.49955245 C13,10.0832418 10.0844279,12.9993968 6.50072006,13 L6.49106739,13 Z M6.49881288,0.921257697 C3.42245382,0.92154958 0.920039162,3.42459413 0.920039162,6.50044755 C0.920039162,7.99087532 1.5006003,9.39146178 2.55445343,10.4449031 C3.59022727,11.4836531 5.02440711,12.0787423 6.4909117,12.0787423 L6.49988323,12.0787423 C9.57632013,12.0784504 12.078657,9.5754837 12.078657,6.49955245 C12.078657,3.42367957 9.57585307,0.921257697 6.49881288,0.921257697 Z" id="Fill-1" fill="#8C8C8C" mask="url(#mask-2)"></path>
                    </g>
                    <path d="M6.46049413,8.11476953 C6.20629429,8.11476953 5.99981287,7.90856457 5.99981287,7.65416014 L5.99981287,6.53564853 C5.99981287,6.28147761 6.2061386,6.07501968 6.46049413,6.07501968 C7.13168523,6.07501968 7.67818959,5.52896668 7.67818959,4.85785193 C7.67818959,4.18675664 7.13168523,3.64070363 6.46049413,3.64070363 C5.78932249,3.64070363 5.24289598,4.18675664 5.24289598,4.85785193 C5.24289598,5.11204231 5.03657025,5.31848078 4.78221472,5.31848078 C4.52778135,5.31848078 4.32153347,5.11219798 4.32153347,4.85785193 C4.32153347,3.67878451 5.28121473,2.7196016 6.46033844,2.7196016 C7.63955946,2.7196016 8.59924072,3.67878451 8.59924072,4.85785193 C8.59924072,5.87891384 7.87947491,6.73494562 6.9210197,6.94619041 L6.9210197,7.65416014 C6.9210197,7.90833106 6.71479127,8.11476953 6.46049413,8.11476953 Z M6.50001946,8.8038253 C6.08374825,8.8038253 5.74545735,9.14205826 5.74545735,9.55769835 C5.74545735,9.97363032 6.08374825,10.3119411 6.50001946,10.3119411 C6.91578468,10.3119411 7.25407559,9.97363032 7.25407559,9.55769835 C7.25407559,9.14205826 6.91578468,8.8038253 6.50001946,8.8038253 Z" id="Fill-3" fill="#8C8C8C"></path>
                </g>
            </g>
        </g>
    </g>
</svg>