<?xml version="1.0" encoding="UTF-8"?>
<svg width="26px" height="26px" viewBox="0 0 26 26" version="1.1" xmlns="http://www.w3.org/2000/svg" xmlns:xlink="http://www.w3.org/1999/xlink">
    <g id="我的模型" stroke="none" stroke-width="1" fill="none" fill-rule="evenodd">
        <g id="我的模型_启动失败" transform="translate(-727.000000, -387.000000)" fill="#F06B7C" fill-rule="nonzero">
            <g id="编组" transform="translate(573.000000, 227.000000)">
                <path d="M167,186 C159.8201,186 154,180.1799 154,173 C154,165.8201 159.8201,160 167,160 C174.1799,160 180,165.8201 180,173 C180,180.1799 174.1799,186 167,186 Z M167,183.4 C172.743761,183.4 177.4,178.743761 177.4,173 C177.4,167.256239 172.743761,162.6 167,162.6 C161.256239,162.6 156.6,167.256239 156.6,173 C156.6,178.743761 161.256239,183.4 167,183.4 Z M165.7,176.9 L168.3,176.9 L168.3,179.5 L165.7,179.5 L165.7,176.9 Z M165.7,166.5 L168.3,166.5 L168.3,174.3 L165.7,174.3 L165.7,166.5 Z" id="形状"></path>
            </g>
        </g>
    </g>
</svg>
