<?xml version="1.0" encoding="UTF-8"?>
<svg width="16px" height="16px" viewBox="0 0 16 16" version="1.1" xmlns="http://www.w3.org/2000/svg" xmlns:xlink="http://www.w3.org/1999/xlink">
    <title>编组 37</title>
    <g id="页面-1" stroke="none" stroke-width="1" fill="none" fill-rule="evenodd">
        <g id="画板" transform="translate(-1669.000000, -892.000000)">
            <g id="编组-36" transform="translate(1669.000000, 892.000000)">
                <rect id="矩形" fill="#D8D8D8" opacity="0" x="0" y="0" width="16" height="16"></rect>
                <g id="编组-10" transform="translate(3.000000, 2.000000)">
                    <path d="M9.99951972,2.2821634 L0.00531734242,2.2821634 L0.00531734242,10.6178243 C0.0149228642,10.6256405 0.0241853317,10.6320356 0.0337908535,10.6394966 C0.0320755817,10.6636559 0.0259006034,10.6867493 0.0259006034,10.7109086 C0.0259006034,11.9750072 2.25884137,13 5.01288169,13 C7.76692201,13 9.99951972,11.9750072 9.99951972,10.7109086 C9.99951972,10.6817753 9.99231558,10.6533526 9.99025726,10.6242194 C9.99300169,10.6220877 9.99643223,10.6203113 9.99951972,10.6178243 L9.99951972,2.2821634 Z" id="Fill-1备份" fill="#CED0D7"></path>
                    <path d="M9.99951972,2.28944671 C9.99951972,3.5539006 7.76692201,4.57853815 5.01288169,4.57853815 C2.25884137,4.57853815 0.0259006034,3.5539006 0.0259006034,2.28944671 C0.0259006034,1.02463754 2.25884137,0 5.01288169,0 C7.76692201,0 9.99951972,1.02463754 9.99951972,2.28944671" id="Fill-3备份" fill="#E6E8EB"></path>
                    <path d="M10.0000343,6.43453902 L10.0000343,7.24103251 C8.363322,8.16015086 6.61065733,8.37793963 4.93998264,8.37793963 C3.2727385,8.37793963 1.61921653,7.99068064 0,7.24423006 L0,6.43453902 C3.23500252,8.01164237 6.6003657,8.0151952 10.0000343,6.43453902" id="Fill-5备份" fill="#9CA3AF"></path>
                </g>
            </g>
        </g>
    </g>
</svg>