<?xml version="1.0" encoding="UTF-8"?>
<svg width="16px" height="16px" viewBox="0 0 16 16" version="1.1" xmlns="http://www.w3.org/2000/svg" xmlns:xlink="http://www.w3.org/1999/xlink">
    <title>编组 43</title>
    <g id="页面-1" stroke="none" stroke-width="1" fill="none" fill-rule="evenodd">
        <g id="画板" transform="translate(-1669.000000, -918.000000)">
            <g id="编组-43" transform="translate(1669.000000, 918.000000)">
                <g id="编组-36备份">
                    <rect id="矩形" fill="#D8D8D8" opacity="0" x="0" y="0" width="16" height="16"></rect>
                    <g id="编组-10" transform="translate(3.000000, 4.282000)" fill="#4CAAB4">
                        <path d="M9.99951972,8.3358243 C9.99643223,8.33831128 9.99300169,8.3400877 9.99025726,8.3422194 C9.99231558,8.37135265 9.99951972,8.39977532 9.99951972,8.42890857 C9.99951972,9.69300717 7.76692201,10.718 5.01288169,10.718 C2.25884137,10.718 0.0259006034,9.69300717 0.0259006034,8.42890857 C0.0259006034,8.40474929 0.0320755817,8.38165587 0.0337908535,8.35749659 L0.0337908535,8.35749659 L0.00531734242,8.3358243 L0.00531734242,0.000163403069 L0.0253173424,0 C0.0259006034,1.23238642 2.12146318,2.2322641 4.75626931,2.29356023 L5.01288169,2.29653815 C7.76692201,2.29653815 9.99951972,1.2719006 9.99951972,0.00744671431 L9.99951972,0.00744671431 Z" id="形状结合" fill-opacity="0.429115562"></path>
                        <path d="M10.0000343,4.15253902 L10.0000343,4.95903251 C8.363322,5.87815086 6.61065733,6.09593963 4.93998264,6.09593963 C3.2727385,6.09593963 1.61921653,5.70868064 0,4.96223006 L0,4.15253902 C3.23500252,5.72964237 6.6003657,5.7331952 10.0000343,4.15253902" id="Fill-5备份"></path>
                    </g>
                </g>
                <path d="M12.9995197,4.28944671 C12.9995197,5.5539006 10.766922,6.57853815 8.01288169,6.57853815 C5.25884137,6.57853815 3.0259006,5.5539006 3.0259006,4.28944671 C3.0259006,3.02463754 5.25884137,2 8.01288169,2 C10.766922,2 12.9995197,3.02463754 12.9995197,4.28944671" id="Fill-3备份" fill-opacity="0.231276292" fill="#4CAAB4"></path>
            </g>
        </g>
    </g>
</svg>
