<?xml version="1.0" encoding="UTF-8"?>
<svg width="16px" height="16px" viewBox="0 0 16 16" version="1.1" xmlns="http://www.w3.org/2000/svg" xmlns:xlink="http://www.w3.org/1999/xlink">
    <title>编组 50</title>
    <defs>
        <polygon id="path-1" points="0 0 16 0 16 12 0 12"></polygon>
    </defs>
    <g id="页面-1" stroke="none" stroke-width="1" fill="none" fill-rule="evenodd">
        <g id="画板" transform="translate(-1854.000000, -1009.000000)">
            <g id="编组-50" transform="translate(1854.000000, 1009.000000)">
                <g id="编组备份-2" transform="translate(0.000000, 2.000000)">
                    <g id="编组">
                        <mask id="mask-2" fill="white">
                            <use xlink:href="#path-1"></use>
                        </mask>
                        <g id="Clip-2"></g>
                        <path d="M16,7.61921978 C16,5.5808502 14.5995847,3.86751414 12.7025657,3.37873929 C12.2467884,1.44253309 10.5004047,0 8.41333193,0 C5.97993876,0 4.00689825,1.96104729 4.00689825,4.38008047 C4.00689825,4.4458569 4.00936191,4.51093358 4.01182557,4.57601026 C3.92207792,4.56936265 3.83127442,4.56516415 3.73976701,4.56516415 C1.67416324,4.56516415 -7.03903143e-05,6.22916788 -7.03903143e-05,8.28258207 C-7.03903143e-05,10.3356464 1.67416324,12 3.73976701,12 C3.79467145,12 3.84922395,11.9986005 3.90377644,11.9961514 C3.94671453,11.9986005 3.99000458,12 4.03399852,12 L11.8716081,12 C12.1031922,12 12.3263295,11.9643128 12.5357407,11.8985364 C14.5165241,11.4695901 16,9.71706805 16,7.61921978" id="Fill-1" fill="#4CAAB4" mask="url(#mask-2)"></path>
                    </g>
                    <path d="M5.9265829,7.39949851 C6.02864886,7.39949851 6.10079893,7.30048399 6.06912329,7.2039186 L5.73054588,6.17773631 C5.70485341,6.10041402 5.68655193,5.99790075 5.67599338,5.87054639 L5.65522824,5.87054639 C5.6460775,5.9737594 5.62566431,6.0731238 5.59328476,6.16863957 L5.25259564,7.2039186 C5.22092,7.30048399 5.29307007,7.39949851 5.39513603,7.39949851 L5.9265829,7.39949851 Z M7.18832929,8.78745116 L6.68609439,8.78745116 C6.6213353,8.78745116 6.5639672,8.74581608 6.54355401,8.68458802 L6.34575722,8.08245379 C6.32569598,8.02087585 6.26832788,7.97959065 6.20321684,7.97959065 L5.13293211,7.97959065 C5.06782107,7.97959065 5.01010101,8.02122573 4.99003977,8.08315354 L4.79611445,8.68388827 C4.77605322,8.74546621 4.71833316,8.78745116 4.65322212,8.78745116 L4.15802626,8.78745116 C4.05384859,8.78745116 3.98134657,8.68423815 4.01724563,8.58732288 L5.20508218,5.36112893 C5.22655123,5.30234999 5.28286348,5.26351391 5.34586281,5.26351391 L6.02336958,5.26351391 C6.08672087,5.26351391 6.14338507,5.30269987 6.16450216,5.36182868 L7.32946187,8.58767275 C7.36430507,8.6849379 7.292155,8.78745116 7.18832929,8.78745116 L7.18832929,8.78745116 Z" id="Fill-3" fill="#F3F3F3"></path>
                    <path d="M8.60521592,5.99454196 L8.60521592,6.83389119 C8.60521592,6.9164616 8.67208672,6.98328766 8.75514729,6.98328766 L8.93253088,6.98328766 C9.37634182,6.98328766 9.59842326,6.79120648 9.59842326,6.40774389 C9.59842326,6.03267829 9.37880548,5.84549536 8.93921796,5.84549536 L8.75514729,5.84549536 C8.67208672,5.84549536 8.60521592,5.91232142 8.60521592,5.99454196 M8.60521592,7.70752814 L8.60521592,8.63854452 C8.60521592,8.72041518 8.53799317,8.78724124 8.45528455,8.78724124 L7.99985922,8.78724124 C7.9171506,8.78724124 7.84992785,8.72041518 7.84992785,8.63854452 L7.84992785,5.41235057 C7.84992785,5.33013004 7.9171506,5.26330398 7.99985922,5.26330398 L9.069792,5.26330398 C9.95143068,5.26330398 10.392426,5.63487084 10.392426,6.37800455 C10.392426,6.73907516 10.2593883,7.02842148 9.99296097,7.2460435 C9.72688558,7.46366552 9.39393939,7.56792816 8.99412241,7.55883142 L8.75514729,7.55883142 C8.67208672,7.55883142 8.60521592,7.6253076 8.60521592,7.70752814" id="Fill-5" fill="#F3F3F3"></path>
                    <path d="M11.8377503,5.84797947 L11.833175,5.84797947 C11.7501144,5.84797947 11.6832436,5.91445565 11.6832436,5.99702607 L11.6832436,8.05358913 C11.6832436,8.13580967 11.7501144,8.20228585 11.833175,8.20228585 L11.8377503,8.20228585 C11.9204589,8.20228585 11.9876817,8.26946178 11.9876817,8.35168231 L11.9876817,8.63857951 C11.9876817,8.72045017 11.9204589,8.78727623 11.8377503,8.78727623 L10.7780241,8.78727623 C10.6953155,8.78727623 10.6280928,8.72045017 10.6280928,8.63857951 L10.6280928,8.35168231 C10.6280928,8.26946178 10.6953155,8.20228585 10.7780241,8.20228585 C10.8610847,8.20228585 10.9279555,8.13580967 10.9279555,8.05358913 L10.9279555,5.99702607 C10.9279555,5.91445565 10.8610847,5.84797947 10.7780241,5.84797947 C10.6953155,5.84797947 10.6280928,5.78115342 10.6280928,5.69893288 L10.6280928,5.41238556 C10.6280928,5.33016502 10.6953155,5.26333897 10.7780241,5.26333897 L11.8377503,5.26333897 C11.9204589,5.26333897 11.9876817,5.33016502 11.9876817,5.41238556 L11.9876817,5.69893288 C11.9876817,5.78115342 11.9204589,5.84797947 11.8377503,5.84797947" id="Fill-7" fill="#F3F3F3"></path>
                </g>
                <rect id="矩形备份-138" fill="#575353" opacity="0" x="0" y="0" width="16" height="16"></rect>
            </g>
        </g>
    </g>
</svg>
