<?xml version="1.0" encoding="UTF-8"?>
<svg width="16px" height="16px" viewBox="0 0 16 16" version="1.1" xmlns="http://www.w3.org/2000/svg" xmlns:xlink="http://www.w3.org/1999/xlink">
    <title>编组 49</title>
    <defs>
        <polygon id="path-1" points="0 0 4.92962097 0 4.92962097 4.08358032 0 4.08358032"></polygon>
    </defs>
    <g id="页面-1" stroke="none" stroke-width="1" fill="none" fill-rule="evenodd">
        <g id="画板" transform="translate(-1825.000000, -1009.000000)">
            <g id="编组-49" transform="translate(1825.000000, 1009.000000)">
                <g id="编组-5" transform="translate(1.000000, 1.000000)">
                    <path d="M10.8473765,2.27380654 L10.8473765,2.28088939 L10.8473765,8.62357934 C10.3933868,8.65191073 10.0324278,9.01667738 10.0324278,9.45581393 L10.0324278,9.81349773 L9.13933337,9.81349773 C8.90489607,9.81349773 8.71139227,9.99765176 8.71139227,10.2207615 L8.71139227,12.4943555 C7.8034129,12.7847523 6.66843868,12.958282 5.43671256,12.958282 C2.44856733,12.958282 0.0297698155,11.938352 0.0297698155,10.6776051 C0.0297698155,10.6528152 0.0334910425,10.6280252 0.0372122694,10.6067767 C0.0260485886,10.5961524 0.0148849078,10.592611 0.00744245388,10.5819867 L0.00744245388,2.27380654 L10.8473765,2.27380654 Z" id="Fill-1" fill="#CED0D7"></path>
                    <path d="M10.8468184,2.28209347 C10.8468184,3.54248619 8.42504386,4.5638328 5.43727075,4.5638328 C2.45024188,4.5638328 0.0280952634,3.54248619 0.0280952634,2.28209347 C0.0280952634,1.02134661 2.45024188,0 5.43727075,0 C8.42504386,0 10.8468184,1.02134661 10.8468184,2.28209347" id="Fill-3" fill="#E6E8EB"></path>
                    <path d="M10.8473765,6.41387257 L10.8473765,7.21777577 C9.07197916,8.13394209 7.17080432,8.35103137 5.3585668,8.35103137 C3.5500505,8.35103137 1.75641912,7.96501618 0,7.22096305 L0,6.41387257 C3.50911701,7.98591058 7.15964064,7.98945201 10.8473765,6.41387257" id="Fill-5" fill="#9CA3AF"></path>
                    <g id="编组" transform="translate(9.070379, 8.916420)">
                        <mask id="mask-2" fill="white">
                            <use xlink:href="#path-1"></use>
                        </mask>
                        <g id="Clip-8"></g>
                        <path d="M1.6183616,0.780529797 C1.6183616,0.554232819 1.81223752,0.369724641 2.05002392,0.369724641 L2.88022965,0.369724641 C3.11801605,0.369724641 3.31151986,0.554232819 3.31151986,0.780529797 L3.31151986,1.11342363 L1.6183616,1.11342363 L1.6183616,0.780529797 Z M4.53171017,1.11342363 L3.70001595,1.11342363 L3.70001595,0.780529797 C3.70001595,0.35024681 3.3319866,0 2.88022965,0 L2.05002392,0 C1.59752273,0 1.2298655,0.35024681 1.2298655,0.780529797 L1.2298655,1.11342363 L0.398171283,1.11342363 C0.178246771,1.11342363 0,1.28341197 0,1.49271012 L0,3.7046834 C0,3.91398154 0.178246771,4.08361574 0.398171283,4.08361574 L4.53171017,4.08361574 C4.75163468,4.08361574 4.92988145,3.91398154 4.92988145,3.7046834 L4.92988145,1.49271012 C4.92988145,1.28341197 4.75163468,1.11342363 4.53171017,1.11342363 L4.53171017,1.11342363 Z" id="Fill-7" fill="#CED0D7" mask="url(#mask-2)"></path>
                    </g>
                </g>
                <rect id="矩形备份-137" fill="#575353" opacity="0" x="0" y="0" width="16" height="16"></rect>
            </g>
        </g>
    </g>
</svg>