<svg width="20" height="20" viewBox="0 0 20 20" fill="none" xmlns="http://www.w3.org/2000/svg">
<path d="M11.3333 11.5833V7C11.3333 5.15905 9.84092 3.66667 8 3.66667C6.15905 3.66667 4.66667 5.15905 4.66667 7V11.5833C4.66667 14.5749 7.09179 17 10.0833 17C13.0749 17 15.5 14.5749 15.5 11.5833V3.66667H17.1667V11.5833C17.1667 15.4953 13.9953 18.6667 10.0833 18.6667C6.17132 18.6667 3 15.4953 3 11.5833V7C3 4.23857 5.23858 2 8 2C10.7614 2 13 4.23857 13 7V11.5833C13 13.1942 11.6942 14.5 10.0833 14.5C8.4725 14.5 7.16667 13.1942 7.16667 11.5833V7H8.83333V11.5833C8.83333 12.2737 9.393 12.8333 10.0833 12.8333C10.7737 12.8333 11.3333 12.2737 11.3333 11.5833Z" fill="#707A95"/>
</svg>
