<svg width="21" height="20" viewBox="0 0 21 20" fill="none" xmlns="http://www.w3.org/2000/svg">
<path d="M14.792 12.9436L16.8236 14.9752C17.1518 14.818 17.5202 14.7644 17.8796 14.8216C18.8718 13.4098 19.4029 11.7256 19.4 9.99999C19.4 8.20599 18.8372 6.54399 17.8796 5.17839C17.5622 5.13619 17.2565 5.03049 16.9808 4.86759L14.792 7.05639C15.4232 7.86999 15.8 8.89119 15.8 9.99999C15.8 11.1088 15.4232 12.13 14.792 12.9436ZM13.9436 13.792C13.3151 14.2794 12.5754 14.6031 11.7909 14.734C11.0064 14.8649 10.2016 14.7989 9.44892 14.5419C8.69622 14.285 8.01913 13.8451 7.47845 13.2618C6.93776 12.6785 6.55042 11.97 6.3512 11.2H3.698C3.5516 11.6128 3.2588 11.956 2.882 12.1696C3.23138 13.475 3.89041 14.6769 4.80321 15.6733C5.716 16.6698 6.85564 17.4314 8.12547 17.8936C9.39531 18.3558 10.7579 18.505 12.0976 18.3285C13.4374 18.152 14.7148 17.6549 15.8216 16.8796C15.7657 16.5202 15.8192 16.1522 15.9752 15.8236L13.9436 13.792ZM18.9404 15.3976C19.2469 15.7405 19.4106 16.1878 19.3977 16.6476C19.3848 17.1073 19.1964 17.5448 18.8712 17.87C18.546 18.1952 18.1085 18.3836 17.6488 18.3965C17.189 18.4094 16.7417 18.2457 16.3988 17.9392C15.1234 18.8059 13.6581 19.3527 12.1268 19.5334C10.5955 19.7142 9.04315 19.5236 7.60106 18.9777C6.15896 18.4318 4.86952 17.5466 3.84176 16.3971C2.814 15.2476 2.07814 13.8676 1.6964 12.3736C1.29825 12.3051 0.934729 12.1046 0.664321 11.8045C0.393913 11.5043 0.232343 11.1219 0.205608 10.7188C0.178872 10.3157 0.288525 9.91528 0.516924 9.58204C0.745323 9.2488 1.07919 9.00208 1.4648 8.88159C1.65256 7.28139 2.24 5.75417 3.173 4.44063C4.106 3.12708 5.35456 2.06945 6.80365 1.36517C8.25274 0.660882 9.85577 0.33259 11.4651 0.410535C13.0744 0.488481 14.6382 0.970157 16.0124 1.81119C16.1725 1.45769 16.4159 1.14829 16.7219 0.909502C17.0278 0.670717 17.387 0.509674 17.7688 0.440176C18.1506 0.370678 18.5436 0.394798 18.914 0.51047C19.2844 0.626141 19.6213 0.829913 19.8957 1.10432C20.1701 1.37872 20.3738 1.71558 20.4895 2.08601C20.6052 2.45644 20.6293 2.84939 20.5598 3.23118C20.4903 3.61298 20.3293 3.97223 20.0905 4.27813C19.8517 4.58404 19.5423 4.82748 19.1888 4.98759C20.1142 6.49553 20.6027 8.23077 20.6 9.99999C20.6 12.0016 19.988 13.8592 18.9404 15.3976ZM13.9436 6.20799L16.1324 4.01919C15.9691 3.74359 15.863 3.43791 15.8204 3.12039C14.6362 2.2907 13.2579 1.78068 11.8189 1.63969C10.3799 1.49869 8.92881 1.73148 7.6061 2.31554C6.28339 2.89961 5.13381 3.81517 4.26859 4.97364C3.40336 6.13212 2.85178 7.4943 2.6672 8.92839C3.1472 9.12039 3.5252 9.51159 3.698 9.99999H6.2C6.1999 9.10173 6.45185 8.22147 6.92721 7.45929C7.40257 6.69712 8.08226 6.08363 8.88899 5.68858C9.69571 5.29353 10.5971 5.13278 11.4907 5.2246C12.3842 5.31642 13.2341 5.65713 13.9436 6.20799Z" fill="#356DF6"/>
</svg>
