<svg width="42" height="42" viewBox="0 0 42 42" fill="none" xmlns="http://www.w3.org/2000/svg">
<g id="Group 427333649">
<g id="Ellipse 1285" filter="url(#filter0_d_3153_5089)">
<circle cx="21" cy="21" r="15" fill="#356DF6"/>
</g>
<path id="Vector" d="M22.6915 25.1641C22.6397 25.2291 22.6061 25.3014 22.593 25.3766C22.5799 25.4518 22.5875 25.5283 22.6154 25.6011C22.6432 25.674 22.6907 25.7418 22.7549 25.8002C22.8191 25.8586 22.8986 25.9064 22.9884 25.9407C23.0782 25.9749 23.1764 25.9948 23.2769 25.9991C23.3774 26.0034 23.478 25.9921 23.5724 25.9658C23.6668 25.9395 23.753 25.8988 23.8255 25.8463C23.8981 25.7938 23.9556 25.7305 23.9943 25.6605L26.9217 21.2482C26.9732 21.1712 27 21.0862 27 21C27 20.9138 26.9732 20.8288 26.9217 20.7518L23.9943 16.3395C23.899 16.2202 23.7473 16.1324 23.5698 16.0939C23.3922 16.0553 23.2018 16.0688 23.0369 16.1317C22.872 16.1945 22.7448 16.302 22.6807 16.4327C22.6166 16.5633 22.6205 16.7073 22.6915 16.8359L25.4507 21L22.6915 25.1641ZM16.1048 25.1641C16.0529 25.2291 16.0193 25.3014 16.0062 25.3766C15.9931 25.4518 16.0007 25.5283 16.0286 25.6011C16.0565 25.674 16.104 25.7418 16.1682 25.8002C16.2323 25.8586 16.3118 25.9064 16.4016 25.9407C16.4914 25.9749 16.5897 25.9948 16.6901 25.9991C16.7906 26.0034 16.8912 25.9921 16.9856 25.9658C17.08 25.9395 17.1662 25.8988 17.2388 25.8463C17.3114 25.7938 17.3688 25.7305 17.4075 25.6605L20.3349 21.2482C20.3864 21.1712 20.4132 21.0862 20.4132 21C20.4132 20.9138 20.3864 20.8288 20.3349 20.7518L17.4075 16.3395C17.3688 16.2695 17.3114 16.2062 17.2388 16.1537C17.1662 16.1012 17.08 16.0605 16.9856 16.0342C16.8912 16.0079 16.7906 15.9966 16.6901 16.0009C16.5897 16.0052 16.4914 16.0251 16.4016 16.0593C16.3118 16.0936 16.2323 16.1414 16.1682 16.1998C16.104 16.2582 16.0565 16.326 16.0286 16.3989C16.0007 16.4717 15.9931 16.5482 16.0062 16.6234C16.0193 16.6986 16.0529 16.7709 16.1048 16.8359L18.8639 21L16.1048 25.1641Z" fill="white"/>
</g>
<defs>
<filter id="filter0_d_3153_5089" x="0" y="0" width="42" height="42" filterUnits="userSpaceOnUse" color-interpolation-filters="sRGB">
<feFlood flood-opacity="0" result="BackgroundImageFix"/>
<feColorMatrix in="SourceAlpha" type="matrix" values="0 0 0 0 0 0 0 0 0 0 0 0 0 0 0 0 0 0 127 0" result="hardAlpha"/>
<feOffset/>
<feGaussianBlur stdDeviation="3"/>
<feComposite in2="hardAlpha" operator="out"/>
<feColorMatrix type="matrix" values="0 0 0 0 0 0 0 0 0 0 0 0 0 0 0 0 0 0 0.06 0"/>
<feBlend mode="normal" in2="BackgroundImageFix" result="effect1_dropShadow_3153_5089"/>
<feBlend mode="normal" in="SourceGraphic" in2="effect1_dropShadow_3153_5089" result="shape"/>
</filter>
</defs>
</svg>
