<svg width="22" height="22" viewBox="0 0 22 22" fill="none" xmlns="http://www.w3.org/2000/svg">
<path d="M11.4049 8.45708C11.4049 8.32633 11.4049 8.32633 11.4049 8.45708C12.2979 7.41147 12.2979 5.97397 11.4049 5.05911C10.5119 4.14436 9.23629 4.14436 8.34339 5.05911C7.45026 5.97397 7.45026 7.41146 8.21563 8.32633C9.10876 9.2412 10.5119 9.2412 11.4049 8.45708Z" fill="#356DF6"/>
<path d="M19.7097 0.791016H2.40968C1.50592 0.791016 0.731354 1.43651 0.731354 2.34027V19.8985C0.731354 20.8022 1.50592 21.4477 2.40968 21.4477H19.7097C20.6135 21.4477 21.3881 20.8022 21.3881 19.8985V2.34027C21.3881 1.43651 20.6134 0.791016 19.7097 0.791016ZM5.12097 10.603L7.18664 8.53728C6.28276 7.24618 6.41195 5.43878 7.57386 4.40594C8.73589 3.11484 10.8016 3.11484 12.0925 4.27687L12.2216 4.40594C13.5127 5.69705 13.5127 7.89179 12.2216 9.18278C11.0597 10.2156 9.38138 10.3447 8.09028 9.57012L6.02461 11.6358C5.76646 11.8939 5.37912 11.8939 5.12085 11.6358V11.5067C4.8627 11.2484 4.86282 10.8612 5.12097 10.603ZM11.5761 18.7366H5.63726C5.25004 18.7366 4.8627 18.3492 4.8627 17.9619C4.8627 17.5745 5.25004 17.1873 5.63726 17.1873H11.5761C11.9635 17.1873 12.3507 17.5747 12.3507 17.9619C12.3507 18.3492 12.0925 18.7366 11.5761 18.7366ZM16.482 15.7671H5.63726C5.25004 15.7671 4.8627 15.3798 4.8627 14.9926C4.8627 14.6052 5.25004 14.2179 5.63726 14.2179H16.353C16.7403 14.2179 17.1277 14.6052 17.1277 14.9924C17.2567 15.3798 16.8693 15.7671 16.482 15.7671Z" fill="#356DF6"/>
</svg>
