<svg width="32" height="42" viewBox="0 0 32 42" fill="none" xmlns="http://www.w3.org/2000/svg">
<g id="Group 427333648">
<g id="Ellipse 1285" filter="url(#filter0_d_3153_5092)">
<path d="M6 21C6 29.2843 12.4471 36 20.4 36H32V6H20.4C12.4471 6 6 12.7157 6 21Z" fill="#356DF6"/>
</g>
<path id="Vector" d="M19.3085 25.1641C19.3603 25.2291 19.3939 25.3014 19.407 25.3766C19.4201 25.4518 19.4125 25.5283 19.3846 25.6011C19.3568 25.674 19.3093 25.7418 19.2451 25.8002C19.1809 25.8586 19.1014 25.9064 19.0116 25.9407C18.9218 25.9749 18.8236 25.9948 18.7231 25.9991C18.6226 26.0034 18.522 25.9921 18.4276 25.9658C18.3332 25.9395 18.247 25.8988 18.1745 25.8463C18.1019 25.7938 18.0444 25.7305 18.0057 25.6605L15.0783 21.2482C15.0268 21.1712 15 21.0862 15 21C15 20.9138 15.0268 20.8288 15.0783 20.7518L18.0057 16.3395C18.101 16.2202 18.2527 16.1324 18.4302 16.0939C18.6078 16.0553 18.7982 16.0688 18.9631 16.1317C19.128 16.1945 19.2552 16.302 19.3193 16.4327C19.3834 16.5633 19.3795 16.7073 19.3085 16.8359L16.5493 21L19.3085 25.1641ZM25.8952 25.1641C25.9471 25.2291 25.9807 25.3014 25.9938 25.3766C26.0069 25.4518 25.9993 25.5283 25.9714 25.6011C25.9435 25.674 25.896 25.7418 25.8318 25.8002C25.7677 25.8586 25.6882 25.9064 25.5984 25.9407C25.5086 25.9749 25.4103 25.9948 25.3099 25.9991C25.2094 26.0034 25.1088 25.9921 25.0144 25.9658C24.92 25.9395 24.8338 25.8988 24.7612 25.8463C24.6886 25.7938 24.6312 25.7305 24.5925 25.6605L21.6651 21.2482C21.6136 21.1712 21.5868 21.0862 21.5868 21C21.5868 20.9138 21.6136 20.8288 21.6651 20.7518L24.5925 16.3395C24.6312 16.2695 24.6886 16.2062 24.7612 16.1537C24.8338 16.1012 24.92 16.0605 25.0144 16.0342C25.1088 16.0079 25.2094 15.9966 25.3099 16.0009C25.4103 16.0052 25.5086 16.0251 25.5984 16.0593C25.6882 16.0936 25.7677 16.1414 25.8318 16.1998C25.896 16.2582 25.9435 16.326 25.9714 16.3989C25.9993 16.4717 26.0069 16.5482 25.9938 16.6234C25.9807 16.6986 25.9471 16.7709 25.8952 16.8359L23.1361 21L25.8952 25.1641Z" fill="white"/>
</g>
<defs>
<filter id="filter0_d_3153_5092" x="0" y="0" width="38" height="42" filterUnits="userSpaceOnUse" color-interpolation-filters="sRGB">
<feFlood flood-opacity="0" result="BackgroundImageFix"/>
<feColorMatrix in="SourceAlpha" type="matrix" values="0 0 0 0 0 0 0 0 0 0 0 0 0 0 0 0 0 0 127 0" result="hardAlpha"/>
<feOffset/>
<feGaussianBlur stdDeviation="3"/>
<feComposite in2="hardAlpha" operator="out"/>
<feColorMatrix type="matrix" values="0 0 0 0 0 0 0 0 0 0 0 0 0 0 0 0 0 0 0.06 0"/>
<feBlend mode="normal" in2="BackgroundImageFix" result="effect1_dropShadow_3153_5092"/>
<feBlend mode="normal" in="SourceGraphic" in2="effect1_dropShadow_3153_5092" result="shape"/>
</filter>
</defs>
</svg>
