<svg width="14" height="14" viewBox="0 0 14 14" fill="none" xmlns="http://www.w3.org/2000/svg">
<path d="M13.5333 12.2H13.0667V5.66667C13.0667 4.64 12.2267 3.8 11.2 3.8H8.4V2.86667C8.4 1.84 7.56 1 6.53333 1H2.8C1.77333 1 0.933333 1.84 0.933333 2.86667V12.2H0.466667C0.205333 12.2 0 12.4053 0 12.6667C0 12.928 0.205333 13.1333 0.466667 13.1333H13.5333C13.7947 13.1333 14 12.928 14 12.6667C14 12.4053 13.7947 12.2 13.5333 12.2ZM7.46667 3.8V4.73333V12.2H1.86667V2.86667C1.86667 2.35333 2.28667 1.93333 2.8 1.93333H6.53333C7.04667 1.93333 7.46667 2.35333 7.46667 2.86667V3.8ZM12.1333 12.2H8.4V4.73333H11.2C11.7133 4.73333 12.1333 5.15333 12.1333 5.66667V12.2ZM6.06667 3.8H3.26667C3.00533 3.8 2.8 4.00533 2.8 4.26667C2.8 4.528 3.00533 4.73333 3.26667 4.73333H6.06667C6.328 4.73333 6.53333 4.528 6.53333 4.26667C6.53333 4.00533 6.328 3.8 6.06667 3.8ZM6.06667 6.6H3.26667C3.00533 6.6 2.8 6.80533 2.8 7.06667C2.8 7.328 3.00533 7.53333 3.26667 7.53333H6.06667C6.328 7.53333 6.53333 7.328 6.53333 7.06667C6.53333 6.80533 6.328 6.6 6.06667 6.6ZM6.06667 9.4H3.26667C3.00533 9.4 2.8 9.60533 2.8 9.86667C2.8 10.128 3.00533 10.3333 3.26667 10.3333H6.06667C6.328 10.3333 6.53333 10.128 6.53333 9.86667C6.53333 9.60533 6.328 9.4 6.06667 9.4ZM10.7333 6.6H9.8C9.53867 6.6 9.33333 6.80533 9.33333 7.06667C9.33333 7.328 9.53867 7.53333 9.8 7.53333H10.7333C10.9947 7.53333 11.2 7.328 11.2 7.06667C11.2 6.80533 10.9947 6.6 10.7333 6.6ZM10.7333 9.4H9.8C9.53867 9.4 9.33333 9.60533 9.33333 9.86667C9.33333 10.128 9.53867 10.3333 9.8 10.3333H10.7333C10.9947 10.3333 11.2 10.128 11.2 9.86667C11.2 9.60533 10.9947 9.4 10.7333 9.4Z" fill="#1A262C"/>
</svg>
