<svg width="14" height="14" viewBox="0 0 14 14" fill="none" xmlns="http://www.w3.org/2000/svg">
<g id="Frame" clip-path="url(#clip0_10_186)">
<path id="Vector" d="M3.70353 0.875C2.14165 0.875 0.875 2.14124 0.875 3.70353C0.875 5.2656 2.14145 6.53205 3.70353 6.53205H5.89464C6.24662 6.53205 6.53185 6.24662 6.53185 5.89464V3.70353C6.53205 2.14124 5.26581 0.875 3.70353 0.875ZM3.70353 7.46795C2.14165 7.46795 0.875 8.73419 0.875 10.2965C0.875 11.8586 2.14145 13.125 3.70353 13.125C5.2656 13.125 6.53205 11.8586 6.53205 10.2965V8.10556C6.53205 7.75358 6.24662 7.46795 5.89464 7.46795H3.70353ZM10.3246 1.53956C10.8951 1.53956 11.4316 1.7617 11.8349 2.16513C12.2381 2.56836 12.4602 3.10491 12.4602 3.67535C12.4602 4.24559 12.2381 4.78214 11.8349 5.18557C11.4314 5.5888 10.8949 5.81114 10.3246 5.81114H8.18845V3.67535C8.18845 3.10491 8.411 2.56836 8.81423 2.16513C9.21745 1.7617 9.754 1.53956 10.3246 1.53956ZM10.2965 0.875C8.7346 0.875 7.46795 2.14124 7.46795 3.70353V5.89464C7.46795 6.24662 7.75317 6.53185 8.10577 6.53185H10.2963C11.8586 6.53185 13.125 5.2656 13.125 3.70332C13.125 2.14124 11.8586 0.875 10.2965 0.875ZM10.2965 7.46795H8.10577C7.75358 7.46795 7.46795 7.75297 7.46795 8.10556V10.2965C7.46795 11.8583 8.7344 13.125 10.2965 13.125C11.8586 13.125 13.125 11.8586 13.125 10.2965C13.125 8.73419 11.8586 7.46795 10.2965 7.46795Z" fill="#356DF6"/>
</g>
<defs>
<clipPath id="clip0_10_186">
<rect width="14" height="14" fill="white"/>
</clipPath>
</defs>
</svg>
