<svg width="24" height="24" viewBox="0 0 24 24" fill="none" xmlns="http://www.w3.org/2000/svg">
<path d="M13.2285 23.6002C15.9135 22.1119 18.5718 20.5738 21.2032 18.9926C22.5657 18.1867 22.7414 16.3329 22.6589 15.5068C22.6589 15.4074 22.6409 10.3245 22.6665 7.86457C22.6816 6.40974 22.0423 5.39525 20.8004 4.6884C18.4459 3.34798 16.0964 1.99807 13.7599 0.626746C12.5559 -0.0796834 11.3832 -0.114699 10.1727 0.589996C7.76851 1.98929 5.3585 3.37815 2.94664 4.76403C1.77697 5.43605 1.1795 6.43906 1.17634 7.78341C1.1698 10.6042 1.16701 13.4253 1.17849 16.2461C1.18346 17.5013 1.72634 18.4859 2.81338 19.1209C5.30865 20.5789 7.81351 22.0206 10.3216 23.4565C11.2582 23.9925 12.2816 24.1248 13.2285 23.6002Z" fill="#356DF6"/>
<path d="M12.9184 14.6069C13.9271 14.6069 14.8561 14.6069 15.8575 14.6069C15.8796 15.0274 15.8976 15.3727 15.9217 15.8395C14.899 15.8395 13.9415 15.8395 12.88 15.8395C12.88 16.7292 12.88 17.5069 12.88 18.3649C12.3273 18.3649 11.8783 18.3649 11.2967 18.3649C11.2619 17.6062 11.2247 16.7994 11.1824 15.8718C10.1329 15.8718 9.14065 15.8718 8.10169 15.8718C8.10169 15.4015 8.10169 15.0571 8.10169 14.6247C9.11515 14.6247 10.0805 14.6247 11.1413 14.6247C11.1413 14.0259 11.1413 13.5124 11.1413 12.8652C10.1688 12.8652 9.17972 12.8652 8.11155 12.8652C8.08854 12.4006 8.07164 12.0589 8.04902 11.6034C8.94291 11.6034 9.75673 11.6034 10.7901 11.6034C9.65116 9.63568 8.6133 7.84272 7.51404 5.94355C8.54969 5.70568 9.27516 5.68192 9.76964 6.77666C10.4352 8.24999 11.266 9.64839 12.0858 11.1911C12.8792 9.71029 13.6869 8.35677 14.3398 6.93229C14.8009 5.92623 15.4262 5.58233 16.5734 5.94695C15.5154 7.75925 14.4698 9.55037 13.3275 11.5074C14.2267 11.5074 14.9887 11.5074 15.8325 11.5074C15.8692 11.9762 15.8959 12.3171 15.9324 12.7836C14.9084 12.7836 13.9541 12.7836 12.9185 12.7836C12.9184 13.4182 12.9184 13.9356 12.9184 14.6069Z" fill="#F8F9FB"/>
</svg>
