<svg width="20" height="20" viewBox="0 0 20 20" fill="none" xmlns="http://www.w3.org/2000/svg">
<path d="M10.8829 6.75902L12.0614 7.93753C14.3394 10.2156 14.3394 13.9091 12.0614 16.1871L11.7667 16.4817C9.48869 18.7598 5.7952 18.7598 3.51714 16.4817C1.23908 14.2037 1.23908 10.5102 3.51714 8.23216L4.69565 9.41066C3.06846 11.0378 3.06846 13.6761 4.69565 15.3032C6.32283 16.9304 8.96102 16.9304 10.5882 15.3032L10.8829 15.0086C12.51 13.3814 12.51 10.7432 10.8829 9.11608L9.70435 7.93753L10.8829 6.75902ZM16.4808 11.7677L15.3023 10.5892C16.9294 8.962 16.9294 6.32381 15.3023 4.69662C13.6751 3.06944 11.0369 3.06944 9.40969 4.69662L9.1151 4.99126C7.48788 6.61844 7.48788 9.25666 9.1151 10.8838L10.2936 12.0623L9.1151 13.2408L7.93655 12.0623C5.6585 9.78425 5.6585 6.0908 7.93655 3.81274L8.23118 3.51811C10.5093 1.24006 14.2027 1.24006 16.4808 3.51811C18.7589 5.79617 18.7589 9.48966 16.4808 11.7677Z" fill="#707A95"/>
</svg>
