<svg width="661" height="401" viewBox="0 0 661 401" fill="none" xmlns="http://www.w3.org/2000/svg">
<ellipse cx="330.003" cy="277.413" rx="330.003" ry="123.587" fill="url(#paint0_diamond_1258_8291)"/>
<path d="M221.8 75.6473C220.387 69.9993 223.82 64.2749 229.468 62.8614L335.691 36.2792C343.804 34.249 350.937 42.0212 348.22 49.9306L289.112 222.006C287.765 225.927 284.244 228.694 280.116 229.078L269.654 230.049C264.473 230.53 259.716 227.159 258.453 222.111L221.8 75.6473Z" fill="url(#paint1_linear_1258_8291)"/>
<rect x="222.942" y="64.4941" width="139.46" height="174.575" rx="10.542" transform="rotate(-14.0497 222.942 64.4941)" fill="url(#paint2_linear_1258_8291)"/>
<g filter="url(#filter0_d_1258_8291)">
<path d="M265.455 156.6C250.928 130.809 240.21 86.1524 240.21 68.1808L349.745 41.0146C358.387 91.0538 375.269 121.551 400.392 165.727C393.694 175.08 368.411 187.384 346.406 190.17C319.942 192.285 296.058 201.236 284.938 205.935C283.955 200.543 273.453 170.798 265.455 156.6Z" fill="url(#paint3_linear_1258_8291)"/>
</g>
<path fill-rule="evenodd" clip-rule="evenodd" d="M254.258 49.8365C254.72 48.1992 256.311 47.2746 257.961 46.8616L279.144 41.5606C278.472 37.9783 279.152 30.307 287.251 28.2802C290.283 27.4079 297.145 27.7818 300.342 36.2559L319.223 31.5309C320.538 31.2018 321.97 31.1508 323.007 32.0243C325.186 33.8611 327.782 38.2478 327.689 46.115L328.026 46.0305C328.9 45.8119 329.788 46.3529 330.01 47.239C330.232 48.125 329.703 49.0205 328.829 49.2392L257.326 67.1327C256.453 67.3514 255.565 66.8103 255.343 65.9243C255.121 65.0383 255.65 64.1427 256.523 63.9241L257.133 63.7716C255.541 61.1914 252.94 54.5093 254.258 49.8365ZM289.818 39.6276C291.976 39.0876 293.287 36.9007 292.747 34.7429C292.207 32.5851 290.02 31.2736 287.862 31.8136C285.705 32.3536 284.393 34.5406 284.933 36.6983C285.473 38.8561 287.66 40.1676 289.818 39.6276Z" fill="url(#paint4_linear_1258_8291)"/>
<path d="M455.091 110.735C432.251 124.719 406.506 117.905 396.489 112.75C421.536 139.828 442.079 153.4 449.22 156.801C466.631 165.521 484.976 166.297 491.972 165.595C472.637 154.366 459.328 124.343 455.091 110.735Z" fill="url(#paint5_linear_1258_8291)"/>
<path d="M442.959 127.806C422.961 132.103 402.809 118.741 395.233 111.524C419.163 159.532 468.505 167.795 490.185 165.925C454.133 165.672 443.68 140.407 442.959 127.806Z" fill="url(#paint6_linear_1258_8291)"/>
<path opacity="0.8" fill-rule="evenodd" clip-rule="evenodd" d="M356.172 104.177C356.507 104.905 356.119 105.76 355.351 105.987L276.301 129.409C275.653 129.601 274.965 129.271 274.71 128.645L273.368 125.357C273.074 124.634 273.469 123.816 274.218 123.598L353.285 100.581C353.911 100.399 354.575 100.703 354.847 101.295L356.172 104.177Z" fill="#E7E7E7"/>
<path opacity="0.8" fill-rule="evenodd" clip-rule="evenodd" d="M345.526 81.0134C345.721 81.7149 345.308 82.4409 344.606 82.6328L294.289 96.3794C293.594 96.5692 292.876 96.1648 292.678 95.4724L291.737 92.1806C291.537 91.4787 291.946 90.7477 292.65 90.5524L342.935 76.5896C343.635 76.3952 344.36 76.8053 344.554 77.5052L345.526 81.0134Z" fill="#E7E7E7"/>
<path opacity="0.8" fill-rule="evenodd" clip-rule="evenodd" d="M364.252 126.651C364.693 127.383 364.329 128.335 363.513 128.586L287.529 151.966C286.929 152.15 286.283 151.886 285.985 151.334L284.164 147.958C283.768 147.226 284.144 146.316 284.94 146.075L360.953 123.096C361.529 122.922 362.149 123.161 362.46 123.676L364.252 126.651Z" fill="#E7E7E7"/>
<path fill-rule="evenodd" clip-rule="evenodd" d="M282.129 86.3221C283.502 86.9199 284.103 88.5391 283.452 89.8878L275.804 105.74C275.603 106.156 275.117 106.35 274.685 106.185L265.943 102.852C264.595 102.338 263.942 100.809 264.504 99.4803C265.037 98.2166 266.476 97.6026 267.758 98.0913L272.227 99.7953C272.507 99.9021 272.822 99.7768 272.952 99.5068L278.699 87.5948C279.315 86.3182 280.83 85.7562 282.129 86.3221Z" fill="#E7E7E7"/>
<path d="M231.736 283.392H233.392V284.952H239.344V286.368H233.392V287.976H238.48V289.368H233.392V291H239.944V292.44H225.256V291H231.736V289.368H226.888V287.976H231.736V286.368H225.928V284.952H231.736V283.392ZM228.736 298.488V300.24H236.488V298.488H228.736ZM236.488 297.144V295.368H228.736V297.144H236.488ZM228.736 301.584V305.4H227.08V293.952H238.144V303.312C238.144 304.608 237.448 305.256 236.104 305.256H234.088L233.68 303.72L235.6 303.792C236.176 303.792 236.488 303.504 236.488 302.952V301.584H228.736ZM220.912 283.656C222.52 284.856 223.864 286.08 224.968 287.304L223.792 288.504C222.784 287.352 221.416 286.128 219.688 284.832L220.912 283.656ZM218.008 290.736H223.096V301.272C223.816 300.6 224.56 299.856 225.376 299.016L225.832 300.84C224.488 302.232 223.048 303.48 221.56 304.56L220.888 303.024C221.248 302.688 221.44 302.328 221.44 301.92V292.392H218.008V290.736ZM246.688 288.72C246.064 289.992 245.368 291.144 244.6 292.2L242.944 291.168C244.696 288.912 245.968 286.44 246.736 283.728L248.488 284.088C248.176 285.144 247.816 286.128 247.432 287.064H252.328V283.416H254.08V287.064H262V288.72H254.08V293.256H263.656V294.912H257.104V301.944C257.104 302.904 257.488 303.384 258.28 303.384H260.584C260.968 303.384 261.28 303.24 261.52 302.976C261.832 302.592 262.024 301.272 262.12 299.016L263.776 299.544C263.584 302.184 263.248 303.792 262.816 304.344C262.384 304.776 261.808 305.016 261.04 305.04H257.776C256.144 305.04 255.328 304.104 255.328 302.256V294.912H250.864C250.624 297.744 250.024 299.832 249.064 301.224C247.936 302.856 246.04 304.248 243.4 305.4L242.2 303.864C244.648 302.904 246.376 301.728 247.408 300.384C248.32 299.184 248.872 297.36 249.088 294.912H242.464V293.256H252.328V288.72H246.688ZM278.512 293.304C280.168 296.016 281.44 298.392 282.304 300.408L280.888 301.416C280.6 300.72 280.288 300.024 279.952 299.304C276.88 300.048 273.448 300.6 269.656 300.96L269.344 299.352C270.664 298.584 272.296 295.584 274.24 290.376L275.872 290.928C274.528 294.384 273.208 297.144 271.864 299.16C274.48 298.872 276.928 298.44 279.232 297.84C278.608 296.64 277.936 295.416 277.192 294.12L278.512 293.304ZM272.176 283.296L273.952 283.632C273.64 284.76 273.28 285.816 272.872 286.824H286.432C286.432 294.864 286.312 299.832 286.072 301.728C285.784 304.104 284.344 305.304 281.752 305.304C281.176 305.304 280.144 305.256 278.68 305.208L278.296 303.672C279.544 303.72 280.624 303.768 281.536 303.768C283.192 303.768 284.152 302.856 284.416 301.056C284.56 299.712 284.656 295.512 284.704 288.504H272.056C270.952 290.472 269.584 292.128 267.952 293.448L266.824 292.08C269.464 289.92 271.264 286.992 272.176 283.296ZM292.024 283.776C293.632 285.024 294.976 286.272 296.08 287.52L294.88 288.72C293.896 287.52 292.552 286.248 290.848 284.904L292.024 283.776ZM305.968 304.968C304.672 304.968 303.232 304.944 301.696 304.92C300.16 304.896 298.888 304.752 297.928 304.488C296.992 304.2 296.152 303.6 295.408 302.736C295.072 302.328 294.76 302.136 294.472 302.136C293.872 302.136 292.912 303.24 291.568 305.496L290.272 304.32C291.568 302.28 292.696 301.032 293.704 300.6V293.304H290.296V291.72H295.312V300.696C295.504 300.84 295.696 301.032 295.888 301.248C296.464 301.944 297.088 302.448 297.76 302.76C298.504 303.096 299.584 303.288 301.024 303.336C302.272 303.36 303.856 303.384 305.728 303.384C306.88 303.384 308.056 303.36 309.256 303.336C310.408 303.312 311.32 303.288 311.968 303.24L311.536 304.968H305.968ZM303.904 283.32H305.584V286.392H310.384V288.048H305.584V291.48H311.224V293.16H307.192V299.592C307.192 300.024 307.432 300.264 307.96 300.264H308.824C309.16 300.264 309.4 300.192 309.592 300.048C309.88 299.832 310.072 298.872 310.168 297.168L311.68 297.672C311.536 299.664 311.272 300.84 310.912 301.224C310.576 301.56 310 301.752 309.184 301.776H307.456C306.832 301.776 306.376 301.608 306.064 301.272C305.728 300.936 305.584 300.504 305.584 299.976V293.16H303.16C303.088 294.816 302.848 296.256 302.44 297.456C301.816 299.28 300.352 300.792 298.096 301.968L296.968 300.6C298.912 299.64 300.184 298.44 300.808 297C301.216 295.944 301.456 294.648 301.528 293.16H297.664V291.48H303.904V288.048H300.016C299.584 288.96 299.104 289.776 298.576 290.544L297.064 289.608C298.36 287.808 299.296 285.816 299.872 283.656L301.528 283.992C301.288 284.832 301.024 285.624 300.736 286.392H303.904V283.32ZM314.728 286.872H322C322.264 285.72 322.48 284.52 322.672 283.296L324.4 283.512C324.208 284.688 324.016 285.816 323.776 286.872H335.68V288.552H323.368C322.84 290.544 322.192 292.368 321.472 294.048H333.76V295.704H327.904V303.024H335.704V304.704H318.208V303.024H326.152V295.704H320.68C319.144 298.632 317.248 300.984 314.992 302.784L314.104 301.2C317.608 298.224 320.104 294 321.592 288.552H314.728V286.872ZM352.12 284.64V299.256H350.584V286.128H345.928V299.352H344.392V284.64H352.12ZM349.648 300.336C350.992 301.632 352.096 302.928 353.008 304.224L351.808 305.424C351.04 304.152 349.96 302.808 348.592 301.368L349.648 300.336ZM347.584 287.352H348.976V295.032C348.928 297.84 348.52 300.072 347.752 301.752C346.984 303.312 345.76 304.536 344.08 305.4L343.192 304.008C344.824 303.168 345.952 302.064 346.624 300.672C347.2 299.232 347.536 297.336 347.584 295.032V287.352ZM340.408 292.08C339.784 293.088 339.112 294.072 338.392 294.984L337.84 293.184C339.904 290.304 341.392 287.016 342.328 283.296L343.84 283.992C343.336 285.816 342.712 287.52 341.992 289.104V305.424H340.408V292.08ZM356.968 305.208H354.376L354.016 303.6C354.832 303.672 355.624 303.72 356.392 303.72C357.016 303.72 357.328 303.36 357.328 302.664V283.464H359.008V303.072C359.008 304.488 358.312 305.208 356.968 305.208ZM353.8 285.6H355.312V300.48H353.8V285.6ZM370.696 287.544V303.912H369.016V302.544H364.648V304.608H362.968V287.544H365.2C365.68 286.2 366.016 284.808 366.232 283.368L367.96 283.608C367.672 285.024 367.312 286.344 366.832 287.544H370.696ZM364.648 300.936H369.016V295.68H364.648V300.936ZM364.648 294.12H369.016V289.176H364.648V294.12ZM374.872 293.112C376.6 295.104 377.896 296.856 378.808 298.344L377.44 299.304C376.456 297.72 375.136 295.944 373.48 293.976L374.872 293.112ZM383.104 287.568C383.104 295.536 382.984 300.48 382.744 302.352C382.504 304.176 381.4 305.112 379.384 305.112C378.904 305.112 378.088 305.064 376.936 305.016L376.528 303.432C377.536 303.48 378.4 303.504 379.144 303.504C380.272 303.504 380.92 302.88 381.112 301.656C381.256 300.312 381.352 296.16 381.4 289.248H374.8C374.128 290.76 373.336 292.128 372.4 293.352L371.368 291.984C373.048 289.632 374.176 286.752 374.8 283.344L376.504 283.56C376.216 284.976 375.88 286.32 375.448 287.568H383.104ZM396.448 288.048H403.408V283.344H405.136V288.048H407.8V289.704H405.136V302.904C405.136 304.512 404.296 305.328 402.664 305.328H398.896L398.536 303.624C399.784 303.696 400.96 303.744 402.064 303.744C402.952 303.744 403.408 303.312 403.408 302.472V289.704H396.448V288.048ZM387.856 289.608C389.368 291.24 390.76 292.896 392.056 294.528C392.944 292.368 393.472 290.016 393.64 287.472H387.064V285.792H395.2V287.064C395.08 290.328 394.408 293.304 393.16 295.968C394.168 297.312 395.104 298.68 395.944 300.024L394.696 301.272C393.976 300.072 393.184 298.872 392.32 297.648C391 299.952 389.224 302.016 387.016 303.84L386.008 302.328C388.264 300.6 390.016 298.56 391.264 296.208C389.92 294.408 388.384 292.56 386.704 290.688L387.856 289.608ZM397.744 292.536C399.352 294.504 400.6 296.256 401.464 297.792L400.096 298.752C399.136 297.096 397.912 295.344 396.424 293.496L397.744 292.536ZM423.424 292.92V302.016C423.424 302.712 423.76 303.072 424.48 303.072H428.08C428.536 303.072 428.92 302.928 429.208 302.64C429.592 302.232 429.856 300.816 429.952 298.368L431.608 298.896C431.392 301.68 431.032 303.384 430.528 303.96C430.048 304.44 429.376 304.704 428.512 304.728H423.976C422.44 304.728 421.672 303.912 421.672 302.328V283.68H423.424V291.288C425.776 290.616 428.056 289.68 430.288 288.456L431.32 289.872C428.56 291.24 425.92 292.248 423.424 292.92ZM411.928 305.04L411.4 303.432C411.784 303.192 411.976 302.856 411.976 302.4V283.8H413.704V290.496H419.872V292.176H413.704V302.928C415.816 302.448 417.904 301.848 419.992 301.152L420.448 302.784C417.808 303.624 414.952 304.368 411.928 305.04ZM445.192 288.36V289.848C445.192 290.424 445.504 290.712 446.128 290.712H452.2C452.728 290.712 453.112 290.592 453.352 290.352C453.64 290.04 453.856 289.128 453.952 287.592L455.536 288.096C455.368 290.112 455.032 291.312 454.552 291.744C454.12 292.128 453.424 292.32 452.512 292.32H445.624C444.232 292.32 443.536 291.6 443.536 290.208V283.536H445.192V286.824C448.096 286.248 450.928 285.384 453.712 284.232L454.672 285.6C451.36 286.848 448.192 287.76 445.192 288.36ZM437.344 305.184H434.8L434.44 303.528C435.256 303.6 436.024 303.648 436.744 303.648C437.368 303.648 437.68 303.288 437.68 302.616V296.88C436.624 297.24 435.544 297.576 434.464 297.864L434.056 296.136C435.28 295.872 436.48 295.536 437.68 295.152V289.656H434.44V288H437.68V283.488H439.336V288H442V289.656H439.336V294.576C440.344 294.168 441.304 293.736 442.264 293.28V295.032C441.304 295.464 440.32 295.896 439.336 296.28V303.048C439.336 304.464 438.664 305.184 437.344 305.184ZM454.672 294.168V305.4H452.944V304.176H445.432V305.4H443.728V294.168H454.672ZM445.432 302.64H452.944V299.904H445.432V302.64ZM445.432 298.368H452.944V295.68H445.432V298.368ZM461.584 283.464H463.288V288H466.072V289.656H463.288V291.504C464.464 292.704 465.64 294.048 466.816 295.512L465.832 296.976C464.848 295.464 464.008 294.264 463.288 293.352V305.376H461.584V293.424C460.816 295.68 459.832 297.744 458.632 299.616L457.888 297.744C459.616 295.392 460.84 292.68 461.584 289.656H458.656V288H461.584V283.464ZM468.664 294.312L470.248 294.672C469.48 298.032 468.352 300.912 466.912 303.36L465.424 302.4C466.912 299.976 467.992 297.288 468.664 294.312ZM477.352 294.192C478.36 296.904 479.224 299.808 479.944 302.88L478.384 303.576C477.592 300.24 476.728 297.288 475.792 294.696L477.352 294.192ZM471.976 305.136H469.528L469.192 303.528C469.96 303.576 470.68 303.624 471.376 303.624C472.024 303.624 472.36 303.264 472.36 302.568V292.32H466.504V290.664H479.968V292.32H474.088V303C474.088 304.416 473.368 305.136 471.976 305.136ZM467.776 284.832H478.72V286.464H467.776V284.832Z" fill="#86909C"/>
<path fill-rule="evenodd" clip-rule="evenodd" d="M192 281C184.82 281 179 286.82 179 294C179 301.18 184.82 307 192 307C199.18 307 205 301.18 205 294C205 286.82 199.18 281 192 281ZM192.812 301.312C192.812 301.762 192.449 302.125 192 302.125C191.551 302.125 191.188 301.762 191.188 301.312C191.188 300.863 191.551 300.5 192 300.5C192.449 300.5 192.812 300.863 192.812 301.312ZM192.812 298.062C192.812 298.512 192.449 298.875 192 298.875C191.551 298.875 191.188 298.512 191.188 298.062V286.688C191.188 286.238 191.551 285.875 192 285.875C192.449 285.875 192.812 286.238 192.812 286.688V298.062Z" fill="#FAAD14"/>
<defs>
<filter id="filter0_d_1258_8291" x="231.584" y="40.0563" width="171.682" height="176.421" filterUnits="userSpaceOnUse" color-interpolation-filters="sRGB">
<feFlood flood-opacity="0" result="BackgroundImageFix"/>
<feColorMatrix in="SourceAlpha" type="matrix" values="0 0 0 0 0 0 0 0 0 0 0 0 0 0 0 0 0 0 127 0" result="hardAlpha"/>
<feOffset dx="-2.87509" dy="4.79181"/>
<feGaussianBlur stdDeviation="2.87509"/>
<feComposite in2="hardAlpha" operator="out"/>
<feColorMatrix type="matrix" values="0 0 0 0 0 0 0 0 0 0 0 0 0 0 0 0 0 0 0.1 0"/>
<feBlend mode="normal" in2="BackgroundImageFix" result="effect1_dropShadow_1258_8291"/>
<feBlend mode="normal" in="SourceGraphic" in2="effect1_dropShadow_1258_8291" result="shape"/>
</filter>
<radialGradient id="paint0_diamond_1258_8291" cx="0" cy="0" r="1" gradientUnits="userSpaceOnUse" gradientTransform="translate(330.003 153.826) rotate(90.2038) scale(211.382 564.435)">
<stop stop-color="#E2E2E2"/>
<stop offset="1" stop-color="#F8F8F8" stop-opacity="0"/>
</radialGradient>
<linearGradient id="paint1_linear_1258_8291" x1="286.885" y1="48.4928" x2="268.867" y2="235.341" gradientUnits="userSpaceOnUse">
<stop stop-color="#E3E3E3"/>
<stop offset="1" stop-color="#C9C9C9"/>
</linearGradient>
<linearGradient id="paint2_linear_1258_8291" x1="334.997" y1="57.7312" x2="260.511" y2="239.613" gradientUnits="userSpaceOnUse">
<stop stop-color="#F2F2F2"/>
<stop offset="0.979167" stop-color="#E4E4E4"/>
</linearGradient>
<linearGradient id="paint3_linear_1258_8291" x1="333.298" y1="38.297" x2="305.048" y2="209.258" gradientUnits="userSpaceOnUse">
<stop stop-color="white"/>
<stop offset="1" stop-color="#F8F8F8"/>
</linearGradient>
<linearGradient id="paint4_linear_1258_8291" x1="288.213" y1="73.3939" x2="312.296" y2="24.0906" gradientUnits="userSpaceOnUse">
<stop stop-color="#DFDFDF"/>
<stop offset="1" stop-color="#EBEBEB"/>
</linearGradient>
<linearGradient id="paint5_linear_1258_8291" x1="454.053" y1="110.382" x2="433.748" y2="145.88" gradientUnits="userSpaceOnUse">
<stop offset="0.288952" stop-color="#F5F5F5"/>
<stop offset="0.961443" stop-color="#FAFAFA"/>
</linearGradient>
<linearGradient id="paint6_linear_1258_8291" x1="446.072" y1="128.868" x2="436.971" y2="155.545" gradientUnits="userSpaceOnUse">
<stop stop-color="#F2F2F2"/>
<stop offset="1" stop-color="#D7D7D7"/>
</linearGradient>
</defs>
</svg>
