<svg width="14" height="14" viewBox="0 0 14 14" fill="none" xmlns="http://www.w3.org/2000/svg">
<g clip-path="url(#clip0_381_8208)">
<path d="M2.98427 10.5136V12.2728H1.22512V10.5136H2.98427ZM3.70939 9.78849H0.5V12.9979H3.70939V9.78849ZM7.8919 10.5136V12.2728H6.1313V10.5136H7.8919ZM8.61702 9.78849H5.40618V12.9979H8.61557V9.78849H8.61702ZM12.7749 10.5136V12.2728H11.0143V10.5136H12.7749ZM13.5 9.78849H10.2892V12.9979H13.4985V9.78849H13.5ZM9.0579 1.72512V3.98461H4.9392V1.72512H9.0579ZM4.21408 1V4.70973H9.78447V1H4.21408Z" fill="#1A262C"/>
<path d="M6.64904 4.5357H7.37416V10.0756H6.64904V4.5357Z" fill="#1A262C"/>
<path d="M1.64569 6.64001H12.3413V7.36513H1.64569V6.64001Z" fill="#1A262C"/>
<path d="M11.6161 7.01852H12.3413V10.0176H11.6161V7.01852ZM1.64569 7.01852H2.37082V9.95962H1.64569V7.01852Z" fill="#1A262C"/>
<path d="M2.98427 10.5136V12.2728H1.22512V10.5136H2.98427ZM3.70939 9.78849H0.5V12.9979H3.70939V9.78849ZM7.8919 10.5136V12.2728H6.1313V10.5136H7.8919ZM8.61702 9.78849H5.40618V12.9979H8.61557V9.78849H8.61702ZM12.7749 10.5136V12.2728H11.0143V10.5136H12.7749ZM13.5 9.78849H10.2892V12.9979H13.4985V9.78849H13.5ZM9.0579 1.72512V3.98461H4.9392V1.72512H9.0579ZM4.21408 1V4.70973H9.78447V1H4.21408Z" stroke="#1A262C" stroke-width="0.3"/>
<path d="M6.64904 4.5357H7.37416V10.0756H6.64904V4.5357Z" stroke="#1A262C" stroke-width="0.3"/>
<path d="M1.64569 6.64001H12.3413V7.36513H1.64569V6.64001Z" stroke="#1A262C" stroke-width="0.3"/>
<path d="M11.6161 7.01852H12.3413V10.0176H11.6161V7.01852ZM1.64569 7.01852H2.37082V9.95962H1.64569V7.01852Z" stroke="#1A262C" stroke-width="0.3"/>
</g>
<defs>
<clipPath id="clip0_381_8208">
<rect width="14" height="14" fill="white"/>
</clipPath>
</defs>
</svg>
