<svg width="14" height="12" viewBox="0 0 14 12" fill="none" xmlns="http://www.w3.org/2000/svg">
<path d="M13.5 0.497154H0.5C0.223437 0.497154 0 0.720592 0 0.997154V10.9972C0 11.2737 0.223437 11.4972 0.5 11.4972H13.5C13.7766 11.4972 14 11.2737 14 10.9972V0.997154C14 0.720592 13.7766 0.497154 13.5 0.497154ZM12.875 10.3722H1.125V1.62215H12.875V10.3722ZM8.53594 5.43465H10.4641C10.4844 5.43465 10.5 5.3784 10.5 5.30965V4.55965C10.5 4.4909 10.4844 4.43465 10.4641 4.43465H8.53594C8.51562 4.43465 8.5 4.4909 8.5 4.55965V5.30965C8.5 5.3784 8.51562 5.43465 8.53594 5.43465ZM8.61094 7.68466H11.5125C11.5734 7.68466 11.6234 7.62841 11.6234 7.55966V6.80966C11.6234 6.7409 11.5734 6.68466 11.5125 6.68466H8.61094C8.55 6.68466 8.5 6.7409 8.5 6.80966V7.55966C8.5 7.62841 8.55 7.68466 8.61094 7.68466ZM2.5 8.51278H3.18594C3.25156 8.51278 3.30469 8.46122 3.30937 8.39559C3.36875 7.60653 4.02812 6.98153 4.82812 6.98153C5.62813 6.98153 6.2875 7.60653 6.34688 8.39559C6.35156 8.46122 6.40469 8.51278 6.47031 8.51278H7.15625C7.1732 8.5128 7.18999 8.50937 7.20557 8.5027C7.22116 8.49604 7.23523 8.48627 7.24692 8.47399C7.25862 8.46171 7.26769 8.44718 7.27359 8.43129C7.27949 8.41539 7.2821 8.39846 7.28125 8.38153C7.2375 7.54872 6.78125 6.82372 6.11562 6.41122C6.40916 6.08855 6.57135 5.66774 6.57031 5.23153C6.57031 4.26434 5.79063 3.48153 4.82969 3.48153C3.86875 3.48153 3.08906 4.26434 3.08906 5.23153C3.08906 5.68622 3.26094 6.09872 3.54375 6.41122C3.20489 6.6212 2.92188 6.91008 2.71891 7.25319C2.51593 7.59629 2.399 7.98343 2.37812 8.38153C2.37188 8.4534 2.42812 8.51278 2.5 8.51278ZM4.82812 4.41903C5.27344 4.41903 5.63594 4.78309 5.63594 5.23153C5.63594 5.67997 5.27344 6.04403 4.82812 6.04403C4.38281 6.04403 4.02031 5.67997 4.02031 5.23153C4.02031 4.78309 4.38281 4.41903 4.82812 4.41903Z" fill="#1A262C"/>
</svg>
