<svg width="17" height="17" viewBox="0 0 17 17" fill="none" xmlns="http://www.w3.org/2000/svg">
<g id="Group 427334935">
<path id="Vector" d="M15.25 1C15.16 1 15.0625 1.01498 14.9725 1.05242L8.7775 3.5985C8.6875 3.63595 8.59 3.65092 8.5 3.65092C8.41 3.65092 8.3125 3.63595 8.2225 3.5985L2.0275 1.05242C1.9375 1.01498 1.84 1 1.75 1C1.3525 1 1 1.32949 1 1.77131V12.4349C1 12.7494 1.1875 13.034 1.4725 13.1538L8.2225 15.9246C8.3125 15.962 8.41 15.977 8.5 15.977C8.5975 15.977 8.6875 15.962 8.7775 15.9246L15.5275 13.1538C15.8125 13.034 16 12.7569 16 12.4349V1.77131C16 1.32949 15.6475 1 15.25 1ZM7.6 8.2863C7.5925 8.32374 7.5775 8.36118 7.5475 8.39113L6.7675 9.14747C6.7225 9.18491 6.7075 9.24482 6.715 9.30473L6.895 10.3756C6.91 10.4729 6.85 10.5628 6.7525 10.5778H6.7225C6.6925 10.5778 6.67 10.5703 6.64 10.5628L5.68 10.0536C5.65 10.0386 5.6275 10.0311 5.5975 10.0311C5.5675 10.0311 5.5375 10.0386 5.515 10.0536L4.555 10.5628C4.5325 10.5778 4.5025 10.5853 4.4725 10.5853C4.4125 10.5853 4.345 10.5478 4.315 10.4879C4.3 10.4505 4.2925 10.413 4.3 10.3756L4.48 9.31222C4.4875 9.25231 4.4725 9.19989 4.4275 9.15496L3.655 8.39113C3.5875 8.32374 3.5875 8.21141 3.655 8.14401C3.685 8.11406 3.715 8.09908 3.7525 8.0916L4.825 7.93434C4.885 7.92685 4.93 7.88941 4.96 7.83699L5.44 6.856C5.47 6.7886 5.5375 6.75116 5.5975 6.75116C5.6275 6.75116 5.65 6.75865 5.6725 6.76613C5.71 6.7886 5.74 6.81855 5.755 6.856L6.2425 7.8295C6.265 7.88192 6.3175 7.91936 6.3775 7.92685L7.45 8.08411C7.5475 8.09908 7.615 8.18895 7.6 8.2863ZM13.51 10.8923L10.2475 12.4125C10.165 12.4574 10.075 12.4724 9.9925 12.4724C9.76 12.4724 9.55 12.3451 9.445 12.1279C9.31 11.8283 9.4375 11.4764 9.7375 11.3341L13 9.81395C13.0825 9.76902 13.1725 9.75404 13.255 9.75404C13.48 9.75404 13.6975 9.88134 13.8025 10.0985C13.9375 10.398 13.81 10.75 13.51 10.8923ZM13.51 8.44355L10.2475 9.96372C10.165 10.0086 10.075 10.0236 9.9925 10.0236C9.76 10.0236 9.55 9.89632 9.445 9.67915C9.31 9.37962 9.4375 9.02766 9.7375 8.88538L13 7.36521C13.0825 7.32028 13.1725 7.3053 13.255 7.3053C13.48 7.3053 13.6975 7.43261 13.8025 7.64978C13.9375 7.94931 13.81 8.30127 13.51 8.44355ZM13.51 5.99482L10.2475 7.51498C10.165 7.55991 10.075 7.57489 9.9925 7.57489C9.76 7.57489 9.55 7.44759 9.445 7.23042C9.31 6.93088 9.4375 6.57892 9.7375 6.43664L13 4.91648C13.0825 4.87155 13.1725 4.85657 13.255 4.85657C13.48 4.85657 13.6975 4.98387 13.8025 5.20104C13.9375 5.50058 13.81 5.85254 13.51 5.99482Z" fill="#356DF6" stroke="#356DF6" stroke-opacity="0.2"/>
<path id="Vector_2" d="M7.60109 8.21207C7.59359 8.24952 7.57859 8.28696 7.54859 8.31691L6.76859 9.07325C6.72359 9.11069 6.70859 9.1706 6.71609 9.23051L6.89609 10.3014C6.91109 10.3987 6.85109 10.4886 6.75359 10.5036H6.72359C6.69359 10.5036 6.67109 10.4961 6.64109 10.4886L5.68109 9.97936C5.65109 9.96438 5.62859 9.95689 5.59859 9.95689C5.56859 9.95689 5.53859 9.96438 5.51609 9.97936L4.55609 10.4886C4.53359 10.5036 4.50359 10.511 4.47359 10.511C4.41359 10.511 4.34609 10.4736 4.31609 10.4137C4.30109 10.3762 4.29359 10.3388 4.30109 10.3014L4.48109 9.238C4.48859 9.17809 4.47359 9.12567 4.42859 9.08074L3.65609 8.31691C3.58859 8.24952 3.58859 8.13719 3.65609 8.06979C3.68609 8.03984 3.71609 8.02486 3.75359 8.01737L4.82609 7.86012C4.88609 7.85263 4.93109 7.81519 4.96109 7.76277L5.44109 6.78177C5.47109 6.71438 5.53859 6.67694 5.59859 6.67694C5.62859 6.67694 5.65109 6.68442 5.67359 6.69191C5.71109 6.71438 5.74109 6.74433 5.75609 6.78177L6.24359 7.75528C6.26609 7.8077 6.31859 7.84514 6.37859 7.85263L7.45109 8.00989C7.54859 8.02486 7.61609 8.11472 7.60109 8.21207ZM13.5111 10.8181L10.2486 12.3382C10.1661 12.3832 10.0761 12.3981 9.99359 12.3981C9.76109 12.3981 9.55109 12.2708 9.44609 12.0537C9.31109 11.7541 9.43859 11.4022 9.73859 11.2599L13.0011 9.73973C13.0836 9.6948 13.1736 9.67982 13.2561 9.67982C13.4811 9.67982 13.6986 9.80712 13.8036 10.0243C13.9386 10.3238 13.8111 10.6758 13.5111 10.8181ZM13.5111 8.36933L10.2486 9.8895C10.1661 9.93443 10.0761 9.9494 9.99359 9.9494C9.76109 9.9494 9.55109 9.8221 9.44609 9.60493C9.31109 9.30539 9.43859 8.95343 9.73859 8.81115L13.0011 7.29099C13.0836 7.24606 13.1736 7.23108 13.2561 7.23108C13.4811 7.23108 13.6986 7.35839 13.8036 7.57555C13.9386 7.87509 13.8111 8.22705 13.5111 8.36933ZM13.5111 5.9206L10.2486 7.44076C10.1661 7.48569 10.0761 7.50067 9.99359 7.50067C9.76109 7.50067 9.55109 7.37336 9.44609 7.1562C9.31109 6.85666 9.43859 6.5047 9.73859 6.36242L13.0011 4.84226C13.0836 4.79733 13.1736 4.78235 13.2561 4.78235C13.4811 4.78235 13.6986 4.90965 13.8036 5.12682C13.9386 5.42636 13.8111 5.77832 13.5111 5.9206Z" fill="white"/>
</g>
</svg>
