<svg width="14" height="17" viewBox="0 0 14 17" fill="none" xmlns="http://www.w3.org/2000/svg">
<g id="Group 427334934">
<path id="Vector" d="M6.65788 10.1031C6.92177 9.769 7.3496 9.769 7.6135 10.1031L11.071 14.481C11.3349 14.8151 11.3349 15.3568 11.071 15.691C10.8071 16.0251 10.3793 16.0251 10.1154 15.691L7.13569 11.9181L4.15599 15.691C3.89209 16.0251 3.46426 16.0251 3.20036 15.691C2.93647 15.3568 2.93647 14.8151 3.20036 14.481L6.65788 10.1031Z" fill="#356DF6"/>
<path id="Vector_2" d="M2.30642 0.925781H11.9694C12.8404 0.925781 13.2759 1.47717 13.2759 2.57995V11.2501C13.2759 12.3529 12.8404 12.9043 11.9694 12.9043H2.30642C1.43547 12.9043 1 12.3529 1 11.2501V2.57995C1 1.47717 1.43547 0.925781 2.30642 0.925781Z" fill="#356DF6"/>
<path id="Vector_3" d="M6.65788 10.1031C6.92177 9.769 7.3496 9.769 7.6135 10.1031L11.071 14.481C11.3349 14.8151 11.3349 15.3568 11.071 15.691C10.8071 16.0251 10.3793 16.0251 10.1154 15.691L7.13569 11.9181L4.15599 15.691C3.89209 16.0251 3.46426 16.0251 3.20036 15.691C2.93647 15.3568 2.93647 14.8151 3.20036 14.481L6.65788 10.1031Z" stroke="#356DF6" stroke-opacity="0.2"/>
<path id="Vector_4" d="M2.30642 0.925781H11.9694C12.8404 0.925781 13.2759 1.47717 13.2759 2.57995V11.2501C13.2759 12.3529 12.8404 12.9043 11.9694 12.9043H2.30642C1.43547 12.9043 1 12.3529 1 11.2501V2.57995C1 1.47717 1.43547 0.925781 2.30642 0.925781Z" stroke="#356DF6" stroke-opacity="0.2"/>
<path id="Vector_5" d="M4.77164 4.49072H9.47926C9.86218 4.49072 10.0536 4.73314 10.0536 5.21799C10.0536 5.70283 9.86218 5.94525 9.47926 5.94525H4.77164C4.38872 5.94525 4.19727 5.70283 4.19727 5.21799C4.19727 4.73314 4.38872 4.49072 4.77164 4.49072Z" fill="white"/>
<path id="Vector_6" d="M4.77164 7.8562H7.8575C8.24041 7.8562 8.43187 8.09862 8.43187 8.58347C8.43187 9.06831 8.24041 9.31073 7.8575 9.31073H4.77164C4.38872 9.31073 4.19727 9.06831 4.19727 8.58347C4.19727 8.09862 4.38872 7.8562 4.77164 7.8562Z" fill="white"/>
</g>
</svg>
