<svg width="17" height="17" viewBox="0 0 17 17" fill="none" xmlns="http://www.w3.org/2000/svg">
<g id="&#229;&#155;&#173;&#229;&#140;&#186;&#230;&#148;&#191;&#231;&#173;&#150; 1" clip-path="url(#clip0_632_2934)">
<g id="Vector">
<path d="M8.4272 16.991L1.8246 15.3409C1.764 15.327 1.70981 15.2932 1.67075 15.2448C1.63168 15.1964 1.60999 15.1363 1.60915 15.0741V3.47737H15.3916V15.0741C15.3908 15.1363 15.3691 15.1964 15.3301 15.2448C15.291 15.2932 15.2368 15.327 15.1762 15.3409L8.5736 16.991C8.54967 16.997 8.52508 17.0001 8.5004 17C8.47572 17 8.45113 16.997 8.4272 16.991ZM4.2896 12.538V13.3107C4.28215 13.3627 4.28685 13.4158 4.30332 13.4657C4.31978 13.5157 4.34758 13.5612 4.38453 13.5986C4.42149 13.636 4.46659 13.6644 4.51633 13.6815C4.56607 13.6986 4.61908 13.7039 4.67124 13.6971H12.3282C12.3803 13.704 12.4334 13.6987 12.4832 13.6816C12.5329 13.6645 12.5781 13.6362 12.615 13.5987C12.652 13.5613 12.6798 13.5158 12.6962 13.4658C12.7127 13.4158 12.7173 13.3627 12.7098 13.3107V12.538C12.7173 12.486 12.7126 12.4329 12.6961 12.383C12.6796 12.333 12.6518 12.2876 12.6149 12.2502C12.5779 12.2128 12.5328 12.1844 12.4831 12.1674C12.4333 12.1503 12.3803 12.145 12.3282 12.1519H4.67124C4.61912 12.1451 4.56614 12.1505 4.51643 12.1675C4.46672 12.1846 4.42164 12.213 4.38469 12.2503C4.34775 12.2877 4.31994 12.3331 4.30345 12.383C4.28695 12.4329 4.28221 12.486 4.2896 12.538ZM8.57742 9.56927L9.83403 10.1986C9.8872 10.2278 9.94685 10.2432 10.0075 10.2434C10.0819 10.2434 10.1546 10.2206 10.2157 10.1781C10.2718 10.1394 10.3161 10.0859 10.3438 10.0236C10.3714 9.9613 10.3814 9.89256 10.3725 9.82496L10.1327 8.49202C10.1232 8.43519 10.128 8.37689 10.1467 8.32238C10.1653 8.26787 10.1973 8.21886 10.2396 8.17978L11.2561 7.2361C11.3055 7.18976 11.3405 7.13015 11.3569 7.06443C11.3732 6.99871 11.3703 6.92967 11.3484 6.86557C11.3268 6.80167 11.2871 6.74546 11.234 6.7038C11.181 6.66215 11.1169 6.63686 11.0497 6.63104L9.6453 6.4378C9.58653 6.43017 9.53043 6.40867 9.48162 6.37507C9.43282 6.34146 9.39271 6.29673 9.36462 6.24455L8.73666 5.03235C8.70382 4.97233 8.65545 4.92224 8.59661 4.88733C8.53778 4.85241 8.47063 4.83396 8.40222 4.8339C8.33384 4.83414 8.26677 4.85267 8.20796 4.88757C8.14915 4.92246 8.10075 4.97245 8.06777 5.03235L7.43981 6.24455C7.41176 6.29676 7.37167 6.34153 7.32286 6.37514C7.27404 6.40875 7.21791 6.43023 7.15913 6.4378L5.75473 6.63104C5.68759 6.63693 5.62362 6.66224 5.57063 6.70389C5.51765 6.74554 5.47794 6.80172 5.45636 6.86557C5.43452 6.92967 5.43162 6.99871 5.44798 7.06442C5.46435 7.13013 5.4993 7.18973 5.54864 7.2361L6.56518 8.17978C6.60786 8.21861 6.64006 8.26758 6.6588 8.32216C6.67754 8.37674 6.68221 8.43516 6.67238 8.49202L6.4323 9.82496C6.42363 9.89256 6.43374 9.96125 6.46153 10.0235C6.48931 10.0857 6.53369 10.1391 6.58981 10.1778C6.65086 10.2204 6.72351 10.2433 6.79797 10.2434C6.85861 10.2431 6.91823 10.2277 6.97144 10.1986L8.22736 9.56927C8.28128 9.54252 8.34063 9.52851 8.40083 9.52833C8.46209 9.5279 8.52259 9.54192 8.57742 9.56927ZM2.01577 2.31824C1.88754 2.2906 1.77449 2.21556 1.69922 2.10813C1.62396 2.0007 1.59204 1.86881 1.60985 1.73886V0.579735C1.59194 0.449725 1.62382 0.31775 1.69909 0.210245C1.77436 0.102741 1.88747 0.0276449 2.01577 0L14.9854 0C15.1135 0.02787 15.2263 0.10306 15.3014 0.210541C15.3765 0.318021 15.4082 0.449871 15.3903 0.579735V1.73886C15.4081 1.86867 15.3763 2.00043 15.3013 2.10783C15.2262 2.21524 15.1134 2.29038 14.9854 2.31824H2.01577Z" fill="#356DF6"/>
<path d="M1.10911 15.0741H1.10915V3.47737V2.97737H1.60915H15.3916H15.8916V3.47737V15.0741V15.0808H15.8916C15.8893 15.255 15.8285 15.4234 15.7191 15.5589C15.7191 15.5589 15.719 15.5589 15.719 15.5589L15.3301 15.2448C15.291 15.2932 15.2368 15.327 15.1762 15.3409L1.10911 15.0741ZM1.10911 15.0741L1.1092 15.0809M1.10911 15.0741L1.1092 15.0809M1.1092 15.0809C1.11154 15.255 1.1723 15.4234 1.28175 15.5589M1.1092 15.0809L1.28175 15.5589M8.39832 9.02833C8.26189 9.0289 8.1274 9.06071 8.00518 9.12134L8.00336 9.12225L6.97401 9.63806L7.16446 8.58065L7.16447 8.58065L7.16507 8.57718C7.18922 8.43746 7.17775 8.2939 7.1317 8.15979C7.08599 8.02665 7.00767 7.90708 6.90391 7.81199L6.12115 7.08533L7.22556 6.93337C7.36228 6.91535 7.4928 6.86518 7.6064 6.78697C7.72072 6.70826 7.81461 6.60342 7.88029 6.48115L7.88034 6.48117L7.88377 6.47454L8.40222 5.47375L8.92066 6.47454L8.9206 6.47457L8.92437 6.48157C8.99008 6.60362 9.0839 6.70828 9.19808 6.78689C9.31161 6.86506 9.44202 6.91524 9.57864 6.93334L10.6836 7.08537L9.90047 7.81237C9.90026 7.81256 9.90005 7.81275 9.89984 7.81295C9.79679 7.90826 9.71905 8.02768 9.67361 8.16048C9.62806 8.29356 9.61638 8.43589 9.63962 8.57461L9.63958 8.57462L9.64064 8.58053L9.8308 9.63779L8.80132 9.1222L8.80055 9.12182C8.67566 9.05953 8.53787 9.02751 8.39832 9.02833ZM8.39832 9.02833C8.39799 9.02833 8.39767 9.02834 8.39734 9.02834L8.40083 9.52833L8.3993 9.02833C8.39897 9.02833 8.39865 9.02833 8.39832 9.02833ZM1.96248 2.81824L1.9104 2.80702C1.65898 2.75282 1.4373 2.60567 1.28972 2.39503L1.69922 2.10813L1.28972 2.39503C1.14976 2.19526 1.08624 1.95235 1.10985 1.71045V0.608277C1.08613 0.366327 1.14957 0.123329 1.28951 -0.0765352C1.4371 -0.287329 1.65889 -0.434575 1.91044 -0.488781L1.96251 -0.5H2.01577H14.9854H15.0391L15.0917 -0.488571C15.3429 -0.433924 15.5642 -0.286492 15.7113 -0.075744L1.96248 2.81824ZM1.96248 2.81824H2.01577M1.96248 2.81824H2.01577M2.01577 2.81824H14.9854H15.0392M2.01577 2.81824H15.0392M15.0392 2.81824L15.0917 2.80681M15.0392 2.81824L15.0917 2.80681M15.0917 2.80681C15.3428 2.75216 15.564 2.60483 15.7111 2.39424C15.8507 2.19456 15.9139 1.95194 15.8903 1.71037V0.608367L15.0917 2.80681ZM1.28175 15.5589C1.38992 15.6929 1.53946 15.7871 1.70686 15.8269M1.28175 15.5589L1.70686 15.8269M1.70686 15.8269L8.30525 17.4759L1.70686 15.8269ZM8.69617 17.4757L15.2939 15.8269L8.69617 17.4757ZM4.7896 12.6519H12.2098V13.1971H4.7896V12.6519ZM11.0198 6.97668L11.0198 6.97668L11.0198 6.97668ZM4.62725 12.4901L4.62726 12.4901L4.62725 12.4901Z" stroke="#356DF6" stroke-opacity="0.12"/>
</g>
</g>
<defs>
<clipPath id="clip0_632_2934">
<rect width="17" height="17" fill="white"/>
</clipPath>
</defs>
</svg>
