<svg width="16" height="17" viewBox="0 0 16 17" fill="none" xmlns="http://www.w3.org/2000/svg">
<g id="Frame">
<path id="Vector" d="M8 1.65369C6.61553 1.65369 5.26215 2.06347 4.11101 2.83121C2.95987 3.59896 2.06266 4.69019 1.53285 5.9669C1.00303 7.24361 0.86441 8.64847 1.13451 10.0038C1.4046 11.3592 2.07129 12.6041 3.05026 13.5813C4.02922 14.5585 5.2765 15.2239 6.63437 15.4935C7.99224 15.7631 9.3997 15.6247 10.6788 15.0959C11.9579 14.5671 13.0511 13.6715 13.8203 12.5225C14.5895 11.3735 15 10.0226 15 8.64072C15 6.78764 14.2625 5.01047 12.9497 3.70014C11.637 2.38982 9.85652 1.65369 8 1.65369ZM8 14.8825C6.76321 14.8825 5.55419 14.5164 4.52584 13.8305C3.49748 13.1447 2.69598 12.1699 2.22268 11.0293C1.74938 9.88881 1.62554 8.6338 1.86683 7.42302C2.10811 6.21224 2.70368 5.10006 3.57823 4.22714C4.45277 3.35421 5.56701 2.75974 6.78004 2.5189C7.99306 2.27806 9.2504 2.40167 10.393 2.8741C11.5357 3.34652 12.5123 4.14654 13.1995 5.17299C13.8866 6.19944 14.2533 7.40622 14.2533 8.64072C14.2514 10.2955 13.5919 11.882 12.4196 13.0521C11.2473 14.2223 9.65788 14.8805 8 14.8825Z" fill="#1A262C" stroke="#1A262C" stroke-width="0.2"/>
<path id="Vector_2" d="M11.7024 6.64693C10.5371 6.03934 8.77892 5.1122 6.44656 6.03784C5.63531 6.36557 4.96341 6.91531 4.52916 7.60662C4.0949 8.29794 3.92109 9.09455 4.03313 9.87992C4.04127 9.95234 4.07791 10.0199 4.13661 10.0707C4.19532 10.1214 4.27231 10.1522 4.35402 10.1575C4.40297 10.1595 4.45182 10.1521 4.49721 10.1356C4.54259 10.1192 4.5834 10.0942 4.61683 10.0624C4.65025 10.0306 4.67547 9.99267 4.69075 9.95131C4.70603 9.90996 4.711 9.86614 4.70531 9.82291C4.60734 9.16303 4.75018 8.49263 5.11283 7.91018C5.47548 7.32774 6.03884 6.86394 6.72016 6.58692C8.42595 5.91332 9.74159 6.35438 11.0167 6.99048C11.0286 6.99585 11.0381 7.00454 11.0439 7.0152C11.0497 7.02586 11.0513 7.03791 11.0487 7.04949C11.046 7.06108 11.0391 7.07156 11.029 7.07933C11.019 7.0871 11.0064 7.09173 10.9931 7.0925C10.0603 7.16692 9.14416 7.35887 8.27226 7.66258C7.15421 8.06014 6.55634 8.45621 6.17972 8.81026C5.58926 9.29387 5.18312 9.9289 5.01776 10.627C4.96728 10.7935 4.9891 10.9708 5.07889 11.1236C5.16868 11.2764 5.31987 11.3937 5.50247 11.4522C5.94934 11.5703 6.41271 11.6319 6.87892 11.6352C8.12363 11.6352 9.15048 11.1401 9.75004 10.2115C9.92689 9.9298 10.0864 9.63983 10.228 9.34284C10.5438 8.71274 10.7921 8.21317 11.6821 7.65208C11.7835 7.58877 11.8656 7.50408 11.921 7.40562C11.9764 7.30717 12.0035 7.19802 11.9996 7.088C11.9963 6.99811 11.9673 6.91044 11.9153 6.83328C11.8633 6.75611 11.79 6.69198 11.7024 6.64693Z" fill="#1A262C" stroke="" stroke-width="0.2"/>
</g>
</svg>
