<svg width="16" height="17" viewBox="0 0 16 17" fill="none" xmlns="http://www.w3.org/2000/svg">
<g id="Frame">
<path id="Vector" d="M8 1.69075C6.61553 1.69075 5.26215 2.10053 4.11101 2.86828C2.95987 3.63602 2.06266 4.72725 1.53285 6.00396C1.00303 7.28068 0.86441 8.68554 1.13451 10.0409C1.4046 11.3962 2.07129 12.6412 3.05026 13.6184C4.02922 14.5955 5.2765 15.261 6.63437 15.5306C7.99224 15.8002 9.3997 15.6618 10.6788 15.133C11.9579 14.6041 13.0511 13.7086 13.8203 12.5596C14.5895 11.4106 15 10.0597 15 8.67779C15 6.82471 14.2625 5.04753 12.9497 3.73721C11.637 2.42688 9.85652 1.69075 8 1.69075ZM8 14.9195C6.76321 14.9195 5.55419 14.5535 4.52584 13.8676C3.49748 13.1818 2.69598 12.2069 2.22268 11.0664C1.74938 9.92587 1.62554 8.67086 1.86683 7.46008C2.10811 6.2493 2.70368 5.13713 3.57823 4.2642C4.45277 3.39128 5.56701 2.79681 6.78004 2.55597C7.99306 2.31513 9.2504 2.43874 10.393 2.91116C11.5357 3.38358 12.5123 4.1836 13.1995 5.21005C13.8866 6.23651 14.2533 7.44328 14.2533 8.67779C14.2514 10.3326 13.5919 11.9191 12.4196 13.0892C11.2473 14.2593 9.65788 14.9176 8 14.9195Z" fill="#356DF6" stroke="#356DF6" stroke-width="0.2"/>
<path id="Vector_2" d="M11.7024 6.68396C10.5371 6.07637 8.77892 5.14923 6.44656 6.07487C5.63531 6.40261 4.96341 6.95234 4.52916 7.64366C4.0949 8.33497 3.92109 9.13158 4.03313 9.91696C4.04127 9.98938 4.07791 10.0569 4.13661 10.1077C4.19532 10.1585 4.27231 10.1892 4.35402 10.1945C4.40297 10.1965 4.45182 10.1891 4.49721 10.1727C4.54259 10.1563 4.5834 10.1313 4.61683 10.0994C4.65025 10.0676 4.67547 10.0297 4.69075 9.98835C4.70603 9.94699 4.711 9.90318 4.70531 9.85995C4.60734 9.20006 4.75018 8.52966 5.11283 7.94722C5.47548 7.36477 6.03884 6.90097 6.72016 6.62395C8.42595 5.95035 9.74159 6.39142 11.0167 7.02751C11.0286 7.03289 11.0381 7.04157 11.0439 7.05223C11.0497 7.06289 11.0513 7.07494 11.0487 7.08653C11.046 7.09811 11.0391 7.1086 11.029 7.11637C11.019 7.12414 11.0064 7.12876 10.9931 7.12953C10.0603 7.20395 9.14416 7.3959 8.27226 7.69962C7.15421 8.09718 6.55634 8.49324 6.17972 8.84729C5.58926 9.33091 5.18312 9.96593 5.01776 10.6641C4.96728 10.8305 4.9891 11.0078 5.07889 11.1606C5.16868 11.3135 5.31987 11.4308 5.50247 11.4892C5.94934 11.6073 6.41271 11.6689 6.87892 11.6722C8.12363 11.6722 9.15048 11.1771 9.75004 10.2485C9.92689 9.96684 10.0864 9.67687 10.228 9.37987C10.5438 8.74978 10.7921 8.2502 11.6821 7.68912C11.7835 7.6258 11.8656 7.54112 11.921 7.44266C11.9764 7.3442 12.0035 7.23506 11.9996 7.12503C11.9963 7.03514 11.9673 6.94748 11.9153 6.87031C11.8633 6.79314 11.79 6.72901 11.7024 6.68396Z" fill="#356DF6" stroke="#356DF6" stroke-width="0.2"/>
</g>
</svg>
