<svg width="16" height="18" viewBox="0 0 16 18" fill="none" xmlns="http://www.w3.org/2000/svg">
<path d="M0 2C0 0.89543 0.895431 0 2 0H14C15.1046 0 16 0.895431 16 2V16.382C16 17.1253 15.2177 17.6088 14.5528 17.2764L8.44721 14.2236C8.16569 14.0828 7.83431 14.0828 7.55279 14.2236L1.44721 17.2764C0.782312 17.6088 0 17.1253 0 16.382V2Z" fill="url(#paint0_linear_0_1)"/>
<g filter="url(#filter0_d_0_1)">
<path d="M9.06 11.28H6.78L7.536 5.904L6.6 6.036L6.78 4.788L10.032 4.332L9.06 11.28Z" fill="white"/>
</g>
<defs>
<filter id="filter0_d_0_1" x="4.59998" y="2.33203" width="7.43201" height="10.948" filterUnits="userSpaceOnUse" color-interpolation-filters="sRGB">
<feFlood flood-opacity="0" result="BackgroundImageFix"/>
<feColorMatrix in="SourceAlpha" type="matrix" values="0 0 0 0 0 0 0 0 0 0 0 0 0 0 0 0 0 0 127 0" result="hardAlpha"/>
<feOffset/>
<feGaussianBlur stdDeviation="1"/>
<feComposite in2="hardAlpha" operator="out"/>
<feColorMatrix type="matrix" values="0 0 0 0 0 0 0 0 0 0 0 0 0 0 0 0 0 0 0.15 0"/>
<feBlend mode="normal" in2="BackgroundImageFix" result="effect1_dropShadow_0_1"/>
<feBlend mode="normal" in="SourceGraphic" in2="effect1_dropShadow_0_1" result="shape"/>
</filter>
<linearGradient id="paint0_linear_0_1" x1="1" y1="1.58946e-07" x2="13" y2="18" gradientUnits="userSpaceOnUse">
<stop stop-color="#FBE79E"/>
<stop offset="1" stop-color="#F3CB6B"/>
</linearGradient>
</defs>
</svg>
