<svg width="24" height="24" viewBox="0 0 24 24" fill="none" xmlns="http://www.w3.org/2000/svg">
<path d="M7.04034 13.6319L11.1886 17.6742C11.4054 17.8857 11.6937 18 12 18C12.3063 18 12.5946 17.8838 12.8114 17.6742L16.9597 13.6319C17.6259 12.9842 18.1409 12.2241 18.4909 11.3783C18.829 10.561 19 9.69806 19 8.81224C19 7.92642 18.829 7.06346 18.4909 6.24622C18.1409 5.3985 17.6239 4.64031 16.9597 3.99262C16.2935 3.34302 15.5139 2.8401 14.6429 2.4972C13.8017 2.16764 12.9128 2 12 2C11.0872 2 10.1983 2.16764 9.3571 2.49911C8.48608 2.84201 7.70653 3.34492 7.04034 3.99452C6.37415 4.64222 5.85909 5.40231 5.50909 6.24812C5.17102 7.06536 5 7.92832 5 8.81414C5 9.69996 5.17102 10.5629 5.50909 11.3802C5.86108 12.226 6.37614 12.9842 7.04034 13.6319Z" fill="#356DF6"/>
<path d="M12.0001 12.2592C13.7719 12.2592 15.2143 10.8548 15.2143 9.12958C15.2143 7.4044 13.7719 6 12.0001 6C10.2282 6 8.78577 7.4044 8.78577 9.12958C8.78577 10.8548 10.2282 12.2592 12.0001 12.2592ZM12.0001 7.17359C13.107 7.17359 14.009 8.05183 14.009 9.12958C14.009 10.2073 13.107 11.0856 12.0001 11.0856C10.8931 11.0856 9.99112 10.2073 9.99112 9.12958C9.99112 8.05183 10.8931 7.17359 12.0001 7.17359Z" fill="#F8F9FB"/>
<path d="M20.094 17.4074C19.6179 17.0651 18.9509 16.7639 18.1172 16.5116C17.6451 16.3688 17.1268 16.2436 16.5763 16.138C16.2047 16.0676 15.8571 16.3434 15.8571 16.713C15.8571 16.9927 16.06 17.2353 16.3433 17.2881C16.8516 17.3839 17.3257 17.4993 17.7596 17.6304C19.3687 18.1213 19.7946 18.6553 19.7946 18.8705C19.7946 19.0857 19.3687 19.6196 17.7596 20.1086C16.2288 20.5722 14.1837 20.8265 12 20.8265C9.81629 20.8265 7.7712 20.5722 6.2404 20.1086C4.63125 19.6196 4.20536 19.0857 4.20536 18.8705C4.20536 18.6553 4.63125 18.1214 6.2404 17.6324C6.67433 17.5013 7.14844 17.3859 7.6567 17.2901C7.93795 17.2372 8.14286 16.9947 8.14286 16.715C8.14286 16.3453 7.79531 16.0676 7.42366 16.1399C6.87321 16.2456 6.35491 16.3688 5.88281 16.5135C5.0471 16.7658 4.38214 17.0671 3.90603 17.4094C3.49219 17.7028 3 18.1976 3 18.8705C3 19.5434 3.49219 20.0382 3.90603 20.3336C4.38214 20.6759 5.04911 20.9771 5.88281 21.2294C7.52612 21.7262 9.69777 22.0001 12 22.0001C14.3022 22.0001 16.4739 21.7262 18.1172 21.2294C18.9529 20.9771 19.6179 20.6759 20.094 20.3336C20.5078 20.0382 21 19.5434 21 18.8705C21 18.1976 20.5078 17.7028 20.094 17.4074Z" fill="#356DF6"/>
</svg>
