<svg width="14" height="14" viewBox="0 0 14 14" fill="none" xmlns="http://www.w3.org/2000/svg">
<g clip-path="url(#clip0_381_8215)">
<path d="M10.042 8.96246C9.33567 8.96246 8.7615 9.53608 8.7615 10.2413C8.7615 10.9466 9.33621 11.5213 10.042 11.5213C10.7478 11.5213 11.323 10.9466 11.323 10.2413C11.323 9.53608 10.7483 8.96246 10.042 8.96246ZM10.042 10.8626C9.87741 10.8625 9.7196 10.797 9.60322 10.6807C9.48684 10.5643 9.42139 10.4065 9.42125 10.2419C9.42794 10.0817 9.49627 9.93036 9.61195 9.81942C9.72763 9.70847 9.88171 9.64652 10.042 9.64652C10.2023 9.64652 10.3564 9.70847 10.4721 9.81942C10.5877 9.93036 10.6561 10.0817 10.6628 10.2419C10.6628 10.4065 10.5974 10.5644 10.4809 10.6808C10.3645 10.7972 10.2066 10.8626 10.042 10.8626ZM13.4285 9.574C13.3803 9.31996 13.2173 9.15529 13.0087 9.15529H12.9795C12.7874 9.15529 12.6033 9.07908 12.4674 8.9434C12.3315 8.80772 12.255 8.62365 12.2547 8.43162C12.2547 8.32708 12.3002 8.19871 12.3175 8.15754C12.4172 7.93546 12.3408 7.66138 12.1204 7.50917L11.2727 7.04008C11.1686 6.99802 11.0545 6.9873 10.9444 7.00924C10.8343 7.03118 10.733 7.08483 10.653 7.16358C10.5479 7.273 10.2673 7.49779 10.0745 7.49779C9.87896 7.49779 9.59675 7.26813 9.49167 7.15817C9.41247 7.07853 9.31165 7.02388 9.2017 7.00096C9.09175 6.97805 8.9775 6.98788 8.87308 7.02925L8.85683 7.03575L7.99396 7.50971L7.97392 7.52217C7.87603 7.59134 7.80483 7.692 7.7722 7.80734C7.73957 7.92267 7.74749 8.04571 7.79462 8.15592C7.80167 8.17163 7.85908 8.31246 7.85908 8.43217C7.85851 8.62429 7.78179 8.80836 7.64573 8.94401C7.50967 9.07966 7.32538 9.15583 7.13325 9.15583H7.09913C6.89492 9.15583 6.73242 9.32104 6.68421 9.57454C6.67663 9.61246 6.61271 9.964 6.61271 10.2473C6.61271 10.5295 6.67663 10.881 6.68421 10.92C6.73242 11.173 6.89492 11.3371 7.104 11.3371H7.13271C7.53246 11.3371 7.85854 11.6621 7.85854 12.0619C7.85854 12.1653 7.8125 12.2948 7.79517 12.336C7.6955 12.558 7.77188 12.831 7.99125 12.9833L8.82325 13.4464C8.92819 13.4899 9.04382 13.5008 9.15504 13.4776C9.26626 13.4544 9.36791 13.3982 9.44671 13.3164C9.54908 13.2053 9.8405 12.9621 10.0388 12.9621C10.2403 12.9621 10.5273 13.2053 10.6357 13.3229C10.7359 13.4334 10.8908 13.5 11.0484 13.5C11.1283 13.4997 11.2071 13.4815 11.2792 13.4469L12.1204 12.9838L12.1404 12.9703C12.2382 12.9012 12.3093 12.8008 12.3419 12.6856C12.3744 12.5704 12.3664 12.4476 12.3192 12.3376C12.2824 12.2498 12.2608 12.1564 12.2552 12.0613C12.2555 11.8692 12.332 11.685 12.4678 11.5492C12.6037 11.4133 12.7879 11.3369 12.98 11.3366H13.0141C13.2183 11.3366 13.3814 11.1725 13.429 10.9195C13.4285 10.9163 13.5 10.5441 13.5 10.2467C13.5 9.96346 13.4355 9.61192 13.4285 9.574ZM12.798 10.6893C12.465 10.7328 12.1592 10.8961 11.9377 11.1486C11.7162 11.401 11.5942 11.7255 11.5944 12.0613C11.5944 12.2222 11.6334 12.3755 11.6681 12.48L11.0609 12.8142C11.0067 12.7601 10.9195 12.6821 10.8117 12.6014C10.543 12.4026 10.283 12.3007 10.0388 12.3007C9.79717 12.3007 9.53933 12.4004 9.27283 12.5949C9.18567 12.6593 9.1028 12.7293 9.02475 12.8045L8.44463 12.4806C8.47929 12.376 8.51883 12.2211 8.51883 12.0608C8.51904 11.7249 8.39701 11.4005 8.17553 11.148C7.95406 10.8955 7.64827 10.7323 7.31525 10.6888C7.29128 10.5425 7.27734 10.3949 7.27354 10.2467C7.27354 10.1 7.29792 9.91688 7.31525 9.80367C7.64813 9.75979 7.95372 9.59645 8.17513 9.34405C8.39654 9.09164 8.51869 8.76738 8.51883 8.43162C8.51883 8.27075 8.47983 8.11746 8.44517 8.01292L9.07188 7.66896C9.12604 7.72096 9.21325 7.79788 9.31996 7.87425C9.58321 8.06275 9.83671 8.15646 10.0745 8.15646C10.309 8.15646 10.5598 8.06329 10.8215 7.87912C10.9276 7.80492 11.0138 7.73017 11.0685 7.67925L11.6686 8.01237C11.6221 8.14719 11.597 8.28849 11.5944 8.43108C11.5944 9.13038 12.115 9.71321 12.798 9.80313C12.8159 9.91742 12.8397 10.1016 12.8397 10.2462C12.8397 10.3908 12.8159 10.575 12.798 10.6893ZM1.35583 12.5629V11.8382C1.35583 9.37304 3.25817 7.34288 5.6805 7.11429L5.67942 7.11321H5.68592C5.83433 7.09967 5.98492 7.09154 6.13713 7.09154L6.20538 7.09317C6.74108 7.052 7.55142 6.92579 7.97554 6.54825L8.18354 6.38629C8.99333 5.75362 9.45862 4.81004 9.45862 3.7955C9.45808 1.97821 7.96796 0.5 6.13604 0.5C4.30467 0.5 2.81454 1.97821 2.81454 3.7955C2.81454 4.81004 3.27875 5.75362 4.08963 6.38629L4.29708 6.54825L4.05279 6.64467C1.89425 7.50104 0.5 9.53933 0.5 11.8382V12.987C0.5 13.22 0.69175 13.4101 0.927917 13.4101H7.182C6.97766 13.1485 6.80409 12.8642 6.66471 12.5629H1.35583ZM3.67092 3.7955C3.67092 2.44621 4.777 1.34771 6.13658 1.34771C7.49671 1.34771 8.60279 2.44512 8.60279 3.7955C8.60279 5.14587 7.49671 6.24383 6.13658 6.24383C4.777 6.24383 3.67092 5.14533 3.67092 3.7955Z" fill="#1A262C" stroke="#1A262C" stroke-width="0.3"/>
</g>
<defs>
<clipPath id="clip0_381_8215">
<rect width="14" height="14" fill="white"/>
</clipPath>
</defs>
</svg>
