<svg width="16" height="16" viewBox="0 0 16 16" fill="none" xmlns="http://www.w3.org/2000/svg">
<g id="Frame" clip-path="url(#clip0_34_7949)">
<path id="Vector" d="M8 1C6.61553 1 5.26215 1.41054 4.11101 2.17971C2.95987 2.94888 2.06266 4.04213 1.53285 5.32121C1.00303 6.6003 0.86441 8.00776 1.13451 9.36563C1.4046 10.7235 2.07129 11.9708 3.05026 12.9497C4.02922 13.9287 5.2765 14.5954 6.63437 14.8655C7.99224 15.1356 9.3997 14.997 10.6788 14.4672C11.9579 13.9373 13.0511 13.0401 13.8203 11.889C14.5895 10.7378 15 9.38447 15 8C15 6.14348 14.2625 4.36301 12.9497 3.05025C11.637 1.7375 9.85652 1 8 1ZM8 14.2533C6.76321 14.2533 5.55419 13.8866 4.52584 13.1995C3.49748 12.5123 2.69598 11.5357 2.22268 10.393C1.74938 9.2504 1.62554 7.99306 1.86683 6.78003C2.10811 5.56701 2.70368 4.45277 3.57823 3.57822C4.45277 2.70368 5.56701 2.10811 6.78004 1.86682C7.99306 1.62554 9.2504 1.74937 10.393 2.22267C11.5357 2.69597 12.5123 3.49748 13.1995 4.52583C13.8866 5.55419 14.2533 6.76321 14.2533 8C14.2514 9.65788 13.5919 11.2473 12.4196 12.4196C11.2473 13.5919 9.65788 14.2514 8 14.2533Z" fill="#1A262C" stroke="" stroke-width="0.2"/>
<path id="Vector_2" d="M10.8393 7.14509H9.70309C9.47585 7.14509 8.79411 7.23485 8.56687 7.14509C8.56687 7.05534 8.68049 6.78607 8.68049 6.69631C8.79411 6.33729 8.90773 6.06802 9.02136 5.709L9.58947 4.2729C9.58947 4.00364 9.2486 3.91388 9.13498 4.09339L5.04457 8.58118C4.93095 8.67094 5.04457 8.85045 5.27182 8.85045H6.86253C6.97615 8.85045 7.43064 8.7607 7.54427 8.85045C7.54427 8.85045 7.43064 9.11972 7.43064 9.20948C7.08978 10.107 6.86253 10.9148 6.52166 11.8124C6.40804 11.9919 6.74891 12.0817 6.86253 11.9022L10.9529 7.41436C11.0666 7.3246 10.9529 7.14509 10.8393 7.14509Z" fill="#1A262C" stroke="#1A262C" stroke-width="0.4"/>
</g>
<defs>
<clipPath id="clip0_34_7949">
<rect width="16" height="16" fill="white"/>
</clipPath>
</defs>
</svg>
