<svg width="24" height="24" viewBox="0 0 24 24" fill="none" xmlns="http://www.w3.org/2000/svg">
<g id="shopping-bag-2-fill 1">
<path id="Vector" d="M20.0039 22H4.00391C3.45163 22 3.00391 21.5523 3.00391 21V3C3.00391 2.44772 3.45163 2 4.00391 2H20.0039C20.5562 2 21.0039 2.44772 21.0039 3V21C21.0039 21.5523 20.5562 22 20.0039 22ZM9.00391 6H7.00391V8C7.00391 10.7614 9.24249 13 12.0039 13C14.7653 13 17.0039 10.7614 17.0039 8V6H15.0039V8C15.0039 9.65685 13.6607 11 12.0039 11C10.347 11 9.00391 9.65685 9.00391 8V6Z" fill="#356DF6"/>
</g>
</svg>
