<svg width="25" height="22" viewBox="0 0 25 22" fill="none" xmlns="http://www.w3.org/2000/svg">
<path d="M0.571303 8.86922C0.374456 7.0261 2.57389 5.92999 3.92696 7.19689L5.68291 8.84102C6.14539 9.27405 6.88887 9.17333 7.21946 8.63286L10.7939 2.78926C11.5739 1.51407 13.4261 1.51407 14.2061 2.78926L17.7805 8.63286C18.1111 9.17333 18.8546 9.27405 19.3171 8.84102L21.073 7.19689C22.4261 5.92999 24.6255 7.0261 24.4287 8.86922L23.2172 20.2124C23.1087 21.229 22.2509 22 21.2285 22H3.77146C2.7491 22 1.89134 21.229 1.78277 20.2124L0.571303 8.86922Z" fill="url(#paint0_linear_40_2940)"/>
<g filter="url(#filter0_d_40_2940)">
<path d="M13.315 17.22H10.845L11.664 11.396L10.65 11.539L10.845 10.187L14.368 9.693L13.315 17.22Z" fill="white"/>
</g>
<defs>
<filter id="filter0_d_40_2940" x="8.65002" y="7.69312" width="7.71796" height="11.5269" filterUnits="userSpaceOnUse" color-interpolation-filters="sRGB">
<feFlood flood-opacity="0" result="BackgroundImageFix"/>
<feColorMatrix in="SourceAlpha" type="matrix" values="0 0 0 0 0 0 0 0 0 0 0 0 0 0 0 0 0 0 127 0" result="hardAlpha"/>
<feOffset/>
<feGaussianBlur stdDeviation="1"/>
<feComposite in2="hardAlpha" operator="out"/>
<feColorMatrix type="matrix" values="0 0 0 0 0 0 0 0 0 0 0 0 0 0 0 0 0 0 0.15 0"/>
<feBlend mode="normal" in2="BackgroundImageFix" result="effect1_dropShadow_40_2940"/>
<feBlend mode="normal" in="SourceGraphic" in2="effect1_dropShadow_40_2940" result="shape"/>
</filter>
<linearGradient id="paint0_linear_40_2940" x1="5" y1="2.5" x2="22" y2="21.5" gradientUnits="userSpaceOnUse">
<stop stop-color="#FBE9A2"/>
<stop offset="1" stop-color="#F2C866"/>
</linearGradient>
</defs>
</svg>
