<svg width="25" height="21" viewBox="0 0 25 21" fill="none" xmlns="http://www.w3.org/2000/svg">
<path d="M0.571303 7.86922C0.374456 6.0261 2.57389 4.92999 3.92696 6.19689L5.68291 7.84102C6.14539 8.27405 6.88887 8.17333 7.21946 7.63286L10.7939 1.78926C11.5739 0.514071 13.4261 0.514068 14.2061 1.78926L17.7805 7.63286C18.1111 8.17333 18.8546 8.27405 19.3171 7.84102L21.073 6.19689C22.4261 4.92999 24.6255 6.0261 24.4287 7.86922L23.2172 19.2124C23.1087 20.229 22.2509 21 21.2285 21H3.77146C2.7491 21 1.89134 20.229 1.78277 19.2124L0.571303 7.86922Z" fill="url(#paint0_linear_0_1)"/>
<g filter="url(#filter0_d_0_1)">
<path d="M14.279 11.045H11.796L11.679 12.033H9.209L9.521 9.81H16.918L16.294 14.256H11.107L10.873 15.985H15.566L16.125 15.491L15.878 17.22H9.365C9.11367 17.22 8.91433 17.1377 8.767 16.973C8.61967 16.7997 8.56333 16.5873 8.598 16.336L9.066 13.021H13.993L14.279 11.045Z" fill="white"/>
</g>
<defs>
<filter id="filter0_d_0_1" x="6.54602" y="7.81006" width="12.372" height="11.4099" filterUnits="userSpaceOnUse" color-interpolation-filters="sRGB">
<feFlood flood-opacity="0" result="BackgroundImageFix"/>
<feColorMatrix in="SourceAlpha" type="matrix" values="0 0 0 0 0 0 0 0 0 0 0 0 0 0 0 0 0 0 127 0" result="hardAlpha"/>
<feOffset/>
<feGaussianBlur stdDeviation="1"/>
<feComposite in2="hardAlpha" operator="out"/>
<feColorMatrix type="matrix" values="0 0 0 0 0 0 0 0 0 0 0 0 0 0 0 0 0 0 0.15 0"/>
<feBlend mode="normal" in2="BackgroundImageFix" result="effect1_dropShadow_0_1"/>
<feBlend mode="normal" in="SourceGraphic" in2="effect1_dropShadow_0_1" result="shape"/>
</filter>
<linearGradient id="paint0_linear_0_1" x1="5" y1="2" x2="22.5" y2="21" gradientUnits="userSpaceOnUse">
<stop stop-color="#E9E9E9"/>
<stop offset="1" stop-color="#B8B8B8"/>
</linearGradient>
</defs>
</svg>
