<svg width="25" height="21" viewBox="0 0 25 21" fill="none" xmlns="http://www.w3.org/2000/svg">
<path d="M0.571303 7.86922C0.374456 6.02611 2.57389 4.92999 3.92696 6.19689L5.68291 7.84102C6.14539 8.27405 6.88887 8.17333 7.21946 7.63286L10.7939 1.78926C11.5739 0.514071 13.4261 0.514068 14.2061 1.78926L17.7805 7.63286C18.1111 8.17333 18.8546 8.27405 19.3171 7.84102L21.073 6.19689C22.4261 4.92999 24.6255 6.0261 24.4287 7.86922L23.2172 19.2124C23.1087 20.229 22.2509 21 21.2285 21H3.77146C2.7491 21 1.89134 20.229 1.78277 19.2124L0.571303 7.86922Z" fill="url(#paint0_linear_0_1)"/>
<g filter="url(#filter0_d_0_1)">
<path d="M13.525 14.009H9.079L9.248 12.774H13.694L13.941 11.045H9.001L9.17 9.823H16.58L15.657 16.336C15.6223 16.5873 15.5053 16.7997 15.306 16.973C15.1153 17.1377 14.8987 17.22 14.656 17.22H8.13L8.312 15.985H13.239L13.525 14.009Z" fill="white"/>
</g>
<defs>
<filter id="filter0_d_0_1" x="6.13" y="7.823" width="12.45" height="11.397" filterUnits="userSpaceOnUse" color-interpolation-filters="sRGB">
<feFlood flood-opacity="0" result="BackgroundImageFix"/>
<feColorMatrix in="SourceAlpha" type="matrix" values="0 0 0 0 0 0 0 0 0 0 0 0 0 0 0 0 0 0 127 0" result="hardAlpha"/>
<feOffset/>
<feGaussianBlur stdDeviation="1"/>
<feComposite in2="hardAlpha" operator="out"/>
<feColorMatrix type="matrix" values="0 0 0 0 0 0 0 0 0 0 0 0 0 0 0 0 0 0 0.15 0"/>
<feBlend mode="normal" in2="BackgroundImageFix" result="effect1_dropShadow_0_1"/>
<feBlend mode="normal" in="SourceGraphic" in2="effect1_dropShadow_0_1" result="shape"/>
</filter>
<linearGradient id="paint0_linear_0_1" x1="5" y1="1.5" x2="22" y2="21" gradientUnits="userSpaceOnUse">
<stop stop-color="#F7CFAE"/>
<stop offset="1" stop-color="#ED8964"/>
</linearGradient>
</defs>
</svg>
