<svg width="24" height="24" viewBox="0 0 24 24" fill="none" xmlns="http://www.w3.org/2000/svg">
<path d="M9.00003 22.5V21H13.5V22.5H9.00003ZM19.5 9.75C19.5066 10.9701 19.2379 12.176 18.714 13.278C18.1959 14.3729 17.4395 15.3379 16.5 16.1025C16.047 16.4775 15.684 16.9185 15.4095 17.427C15.1365 17.9344 14.9957 18.5023 15 19.0785V19.5015H7.50003V19.1715C7.50003 18.594 7.38603 18.0465 7.15953 17.532C6.94066 17.0255 6.59821 16.5819 6.16353 16.242C4.96292 15.3033 4.0464 14.0498 3.51603 12.621C2.98551 11.1952 2.85581 9.65132 3.14103 8.157C3.44445 6.57729 4.2061 5.12182 5.33103 3.972C6.45191 2.81492 7.89312 2.01936 9.46953 1.6875C10.6745 1.42215 11.9236 1.43035 13.125 1.7115C14.3283 1.99238 15.4511 2.54557 16.407 3.3285C17.3712 4.10026 18.1515 5.07685 18.6915 6.1875C19.2315 7.2975 19.5015 8.484 19.5015 9.75H19.5ZM6.75003 10.5C6.76503 8.922 7.17603 7.6605 7.98003 6.7155C8.78553 5.7705 9.87453 5.2815 11.25 5.25V3.75C9.42153 3.7965 7.97253 4.4415 6.90153 5.685C5.83203 6.924 5.28153 8.529 5.25003 10.5H6.75003Z" fill="#356DF6"/>
</svg>
