<svg width="16" height="16" viewBox="0 0 16 16" fill="none" xmlns="http://www.w3.org/2000/svg">
<g id="Frame">
<g id="Vector">
<path d="M1.50174 7.1824C1.42774 7.18247 1.35465 7.16651 1.28771 7.13567C1.22077 7.10482 1.16164 7.05986 1.11456 7.004C1.06748 6.94814 1.03362 6.88278 1.01541 6.8126C0.997205 6.74242 0.995101 6.66917 1.00925 6.5981C1.65368 3.35438 4.57538 1 7.95885 1C9.58913 1.00009 11.1695 1.55054 12.4331 2.55845C13.6968 3.56636 14.5665 4.97 14.8953 6.5325C14.922 6.65994 14.8958 6.79254 14.8226 6.90111C14.7493 7.00968 14.635 7.08534 14.5048 7.11144C14.3745 7.13753 14.239 7.11194 14.1281 7.04027C14.0171 6.96861 13.9398 6.85675 13.9132 6.72931C13.6306 5.38823 12.8841 4.18355 11.7993 3.31853C10.7146 2.4535 9.35817 1.98109 7.95885 1.98099C5.05533 1.98099 2.54654 4.00153 1.99297 6.78571C1.97075 6.8973 1.90961 6.99786 1.82001 7.07022C1.73041 7.14257 1.61791 7.18223 1.50174 7.1824Z" fill="#1A262C"/>
<path d="M1.51427 7.21337C1.3992 7.21285 1.28782 7.17361 1.19882 7.10223C1.10983 7.03086 1.04864 6.93169 1.02552 6.82139C1.00241 6.71108 1.01879 6.59635 1.0719 6.49647C1.12502 6.39658 1.21163 6.31762 1.31721 6.27284L2.9676 5.57695C3.02809 5.55139 3.09314 5.53775 3.15902 5.53681C3.22491 5.53587 3.29033 5.54765 3.35156 5.57148C3.41279 5.5953 3.46862 5.6307 3.51585 5.67565C3.56309 5.7206 3.60081 5.77422 3.62685 5.83345C3.65289 5.89268 3.66675 5.95635 3.66763 6.02082C3.6685 6.08529 3.65639 6.14929 3.63196 6.20918C3.60754 6.26906 3.5713 6.32365 3.5253 6.36981C3.47931 6.41598 3.42446 6.45282 3.3639 6.47823L1.71226 7.17351C1.64972 7.19982 1.58235 7.21338 1.51427 7.21337ZM8.04031 15C6.41003 14.9999 4.8297 14.4495 3.56602 13.4416C2.30235 12.4336 1.4327 11.03 1.10386 9.4675C1.09066 9.4044 1.09028 9.33937 1.10276 9.27612C1.11524 9.21288 1.14032 9.15265 1.17659 9.09889C1.21285 9.04513 1.25958 8.99889 1.3141 8.9628C1.36863 8.92671 1.42989 8.90149 1.49437 8.88856C1.55886 8.87564 1.62532 8.87528 1.68996 8.88749C1.75459 8.89969 1.81613 8.92424 1.87107 8.95973C1.92601 8.99521 1.97327 9.04094 2.01015 9.09429C2.04703 9.14765 2.07281 9.20759 2.08601 9.27069C2.36851 10.6118 3.11511 11.8165 4.19983 12.6815C5.28455 13.5465 6.641 14.0189 8.04031 14.019C10.9438 14.019 13.4526 11.9985 14.0059 9.21429C14.018 9.15059 14.0428 9.08987 14.079 9.03562C14.1151 8.98138 14.1619 8.93468 14.2167 8.89823C14.2714 8.86177 14.3329 8.83629 14.3978 8.82324C14.4626 8.8102 14.5295 8.80985 14.5945 8.82222C14.6594 8.83459 14.7213 8.85943 14.7764 8.89531C14.8315 8.93119 14.8788 8.97739 14.9156 9.03126C14.9523 9.08513 14.9778 9.14559 14.9906 9.20915C15.0034 9.27271 15.0031 9.33812 14.9899 9.40159C14.3455 12.6456 11.4225 15 8.04031 15Z" fill=""/>
<path d="M12.8339 10.4629C12.7184 10.463 12.6065 10.4241 12.517 10.3528C12.4275 10.2815 12.3659 10.1821 12.3426 10.0715C12.3192 9.96083 12.3357 9.84572 12.3891 9.74557C12.4424 9.64542 12.5295 9.56637 12.6356 9.52177L14.2872 8.82649C14.3478 8.79995 14.4133 8.78546 14.4797 8.78388C14.5461 8.7823 14.6121 8.79364 14.674 8.81726C14.7359 8.84088 14.7924 8.87629 14.8401 8.92145C14.8879 8.96661 14.926 9.02061 14.9523 9.08031C14.9786 9.14001 14.9924 9.20423 14.9931 9.26922C14.9938 9.33422 14.9813 9.39869 14.9563 9.45891C14.9312 9.51912 14.8943 9.57387 14.8474 9.61998C14.8006 9.66608 14.7449 9.70262 14.6835 9.72747L13.0319 10.4227C12.9694 10.4492 12.902 10.4628 12.8339 10.4629Z" fill="#1A262C"/>
</g>
<g id="Vector_2">
<path d="M10.3123 7.49212H5.47324C5.34773 7.49212 5.22736 7.44326 5.13861 7.35628C5.04986 7.2693 5 7.15133 5 7.02832C5 6.90531 5.04986 6.78734 5.13861 6.70036C5.22736 6.61338 5.34773 6.56451 5.47324 6.56451H10.3123C10.4378 6.56451 10.5581 6.61338 10.6469 6.70036C10.7356 6.78734 10.7855 6.90531 10.7855 7.02832C10.7855 7.15133 10.7356 7.2693 10.6469 7.35628C10.5581 7.44326 10.4378 7.49212 10.3123 7.49212ZM10.3123 9.60738H5.47324C5.34773 9.60738 5.22736 9.55852 5.13861 9.47154C5.04986 9.38456 5 9.26659 5 9.14358C5 9.02057 5.04986 8.9026 5.13861 8.81562C5.22736 8.72864 5.34773 8.67977 5.47324 8.67977H10.3123C10.4378 8.67977 10.5581 8.72864 10.6469 8.81562C10.7356 8.9026 10.7855 9.02057 10.7855 9.14358C10.7855 9.26659 10.7356 9.38456 10.6469 9.47154C10.5581 9.55852 10.4378 9.60738 10.3123 9.60738Z" fill="#1A262C"/>
<path d="M8.01452 12C7.95238 12 7.89084 11.988 7.83342 11.9647C7.77601 11.9414 7.72384 11.9072 7.67989 11.8642C7.63595 11.8211 7.60109 11.77 7.57731 11.7137C7.55353 11.6574 7.54129 11.5971 7.54129 11.5362V7.02832C7.54129 6.90531 7.59115 6.78734 7.67989 6.70036C7.76864 6.61338 7.88901 6.56451 8.01452 6.56451C8.14003 6.56451 8.2604 6.61338 8.34915 6.70036C8.4379 6.78734 8.48776 6.90531 8.48776 7.02832V11.5362C8.48776 11.5971 8.47552 11.6574 8.45174 11.7137C8.42796 11.77 8.3931 11.8211 8.34915 11.8642C8.30521 11.9072 8.25304 11.9414 8.19562 11.9647C8.13821 11.988 8.07667 12 8.01452 12Z" fill="#1A262C"/>
<path d="M7.83943 7.2191C7.77727 7.21912 7.71572 7.20715 7.65828 7.18386C7.60085 7.16057 7.54866 7.12642 7.50469 7.08336L5.17352 4.79741C5.12832 4.75463 5.09227 4.70345 5.06747 4.64687C5.04267 4.59028 5.02961 4.52942 5.02906 4.46784C5.02852 4.40625 5.04049 4.34518 5.06429 4.28818C5.08808 4.23118 5.12322 4.17939 5.16765 4.13585C5.21209 4.0923 5.26493 4.05786 5.32309 4.03454C5.38124 4.01122 5.44356 3.99948 5.5064 4.00002C5.56923 4.00055 5.63133 4.01335 5.68907 4.03766C5.7468 4.06196 5.79902 4.0973 5.84268 4.14159L8.17511 6.42754C8.24129 6.49247 8.28632 6.57519 8.3045 6.66522C8.32269 6.75525 8.31321 6.84855 8.27727 6.9333C8.24133 7.01805 8.18054 7.09044 8.1026 7.14132C8.02466 7.19219 7.93307 7.21926 7.83943 7.2191Z" fill="#1A262C"/>
<path d="M8.18868 7.25218C8.09505 7.25222 8.00351 7.22504 7.92565 7.17408C7.84778 7.12312 7.78709 7.05067 7.75126 6.96589C7.71542 6.88112 7.70605 6.78783 7.72433 6.69783C7.74261 6.60784 7.78771 6.52518 7.85394 6.46031L10.1864 4.17437C10.23 4.13007 10.2822 4.09474 10.34 4.07043C10.3977 4.04612 10.4598 4.03333 10.5227 4.03279C10.5855 4.03226 10.6478 4.04399 10.706 4.06731C10.7641 4.09063 10.817 4.12507 10.8614 4.16862C10.9058 4.21217 10.941 4.26395 10.9648 4.32095C10.9886 4.37795 11.0005 4.43903 11 4.50061C10.9994 4.56219 10.9864 4.62306 10.9616 4.67964C10.9368 4.73623 10.9007 4.78741 10.8555 4.83019L8.5231 7.11613C8.43443 7.20314 8.31414 7.25207 8.18868 7.25218Z" fill="#1A262C"/>
<path d="M10.3123 7.49212H5.47324C5.34773 7.49212 5.22736 7.44326 5.13861 7.35628C5.04986 7.2693 5 7.15133 5 7.02832C5 6.90531 5.04986 6.78734 5.13861 6.70036C5.22736 6.61338 5.34773 6.56451 5.47324 6.56451H10.3123C10.4378 6.56451 10.5581 6.61338 10.6469 6.70036C10.7356 6.78734 10.7855 6.90531 10.7855 7.02832C10.7855 7.15133 10.7356 7.2693 10.6469 7.35628C10.5581 7.44326 10.4378 7.49212 10.3123 7.49212ZM10.3123 9.60738H5.47324C5.34773 9.60738 5.22736 9.55852 5.13861 9.47154C5.04986 9.38456 5 9.26659 5 9.14358C5 9.02057 5.04986 8.9026 5.13861 8.81562C5.22736 8.72864 5.34773 8.67977 5.47324 8.67977H10.3123C10.4378 8.67977 10.5581 8.72864 10.6469 8.81562C10.7356 8.9026 10.7855 9.02057 10.7855 9.14358C10.7855 9.26659 10.7356 9.38456 10.6469 9.47154C10.5581 9.55852 10.4378 9.60738 10.3123 9.60738Z" stroke="#1A262C" stroke-width="0.2"/>
<path d="M8.01452 12C7.95238 12 7.89084 11.988 7.83342 11.9647C7.77601 11.9414 7.72384 11.9072 7.67989 11.8642C7.63595 11.8211 7.60109 11.77 7.57731 11.7137C7.55353 11.6574 7.54129 11.5971 7.54129 11.5362V7.02832C7.54129 6.90531 7.59115 6.78734 7.67989 6.70036C7.76864 6.61338 7.88901 6.56451 8.01452 6.56451C8.14003 6.56451 8.2604 6.61338 8.34915 6.70036C8.4379 6.78734 8.48776 6.90531 8.48776 7.02832V11.5362C8.48776 11.5971 8.47552 11.6574 8.45174 11.7137C8.42796 11.77 8.3931 11.8211 8.34915 11.8642C8.30521 11.9072 8.25304 11.9414 8.19562 11.9647C8.13821 11.988 8.07667 12 8.01452 12Z" stroke="#1A262C" stroke-width="0.2"/>
<path d="M7.83943 7.2191C7.77727 7.21912 7.71572 7.20715 7.65828 7.18386C7.60085 7.16057 7.54866 7.12642 7.50469 7.08336L5.17352 4.79741C5.12832 4.75463 5.09227 4.70345 5.06747 4.64687C5.04267 4.59028 5.02961 4.52942 5.02906 4.46784C5.02852 4.40625 5.04049 4.34518 5.06429 4.28818C5.08808 4.23118 5.12322 4.17939 5.16765 4.13585C5.21209 4.0923 5.26493 4.05786 5.32309 4.03454C5.38124 4.01122 5.44356 3.99948 5.5064 4.00002C5.56923 4.00055 5.63133 4.01335 5.68907 4.03766C5.7468 4.06196 5.79902 4.0973 5.84268 4.14159L8.17511 6.42754C8.24129 6.49247 8.28632 6.57519 8.3045 6.66522C8.32269 6.75525 8.31321 6.84855 8.27727 6.9333C8.24133 7.01805 8.18054 7.09044 8.1026 7.14132C8.02466 7.19219 7.93307 7.21926 7.83943 7.2191Z" stroke="#1A262C" stroke-width="0.2"/>
<path d="M8.18868 7.25218C8.09505 7.25222 8.00351 7.22504 7.92565 7.17408C7.84778 7.12312 7.78709 7.05067 7.75126 6.96589C7.71542 6.88112 7.70605 6.78783 7.72433 6.69783C7.74261 6.60784 7.78771 6.52518 7.85394 6.46031L10.1864 4.17437C10.23 4.13007 10.2822 4.09474 10.34 4.07043C10.3977 4.04612 10.4598 4.03333 10.5227 4.03279C10.5855 4.03226 10.6478 4.04399 10.706 4.06731C10.7641 4.09063 10.817 4.12507 10.8614 4.16862C10.9058 4.21217 10.941 4.26395 10.9648 4.32095C10.9886 4.37795 11.0005 4.43903 11 4.50061C10.9994 4.56219 10.9864 4.62306 10.9616 4.67964C10.9368 4.73623 10.9007 4.78741 10.8555 4.83019L8.5231 7.11613C8.43443 7.20314 8.31414 7.25207 8.18868 7.25218Z" stroke="#1A262C" stroke-width="0.2"/>
</g>
</g>
</svg>
