<?xml version="1.0" encoding="UTF-8"?>
<svg width="28px" height="28px" viewBox="0 0 28 28" version="1.1" xmlns="http://www.w3.org/2000/svg" xmlns:xlink="http://www.w3.org/1999/xlink">
    <title>mail-fill</title>
    <g id="AI中台三期-权限管理" stroke="none" stroke-width="1" fill="none" fill-rule="evenodd">
        <g id="权限管理-第二步-邮箱验证" transform="translate(-793.000000, -391.000000)">
            <g id="mail-fill" transform="translate(793.000000, 391.000000)">
                <polygon id="路径" points="0 0 28 0 28 28 0 28"></polygon>
                <path d="M3.5,3.5 L24.5,3.5 C25.1443322,3.5 25.6666667,4.02233446 25.6666667,4.66666667 L25.6666667,23.3333333 C25.6666667,23.9776655 25.1443322,24.5 24.5,24.5 L3.5,24.5 C2.85566779,24.5 2.33333333,23.9776655 2.33333333,23.3333333 L2.33333333,4.66666667 C2.33333333,4.02233446 2.85566779,3.5 3.5,3.5 Z M14.07,13.6301667 L6.58933333,7.27766667 L5.0785,9.05566667 L14.0851667,16.7031667 L22.9296667,9.04983333 L21.4036667,7.28466667 L14.0711667,13.6301667 L14.07,13.6301667 Z" id="形状" fill="#C9D6EB" fill-rule="nonzero"></path>
            </g>
        </g>
    </g>
</svg>