<?xml version="1.0" encoding="UTF-8"?>
<svg width="23px" height="23px" viewBox="0 0 23 23" version="1.1" xmlns="http://www.w3.org/2000/svg" xmlns:xlink="http://www.w3.org/1999/xlink">
    <title>编组 8</title>
    <defs>
        <linearGradient x1="50%" y1="0%" x2="50%" y2="100%" id="linearGradient-1">
            <stop stop-color="#4DA9B4" stop-opacity="0.14273178" offset="0%"></stop>
            <stop stop-color="#4DA9B4" stop-opacity="0.14273178" offset="100%"></stop>
        </linearGradient>
    </defs>
    <g id="页面-1" stroke="none" stroke-width="1" fill="none" fill-rule="evenodd">
        <g id="要素加工_生产任务" transform="translate(-1302.000000, -345.000000)">
            <g id="编组-8" transform="translate(1302.000000, 345.000000)">
                <rect id="矩形" fill="url(#linearGradient-1)" opacity="0.505156017" x="0" y="0" width="23" height="23" rx="11.5"></rect>
                <path d="M7.33333333,11.5 C7.33333333,11.7141579 7.64066667,12.0870526 8.35333333,12.4531053 C9.276,12.9265789 10.5846667,13.2105263 12,13.2105263 C13.4153333,13.2105263 14.724,12.9265789 15.6466667,12.4531053 C16.3593333,12.0870526 16.6666667,11.7141579 16.6666667,11.5 L16.6666667,10.0145789 C15.5666667,10.7124737 13.8846667,11.1578947 12,11.1578947 C10.1153333,11.1578947 8.43333333,10.7117895 7.33333333,10.0145789 L7.33333333,11.5 Z M16.6666667,13.4356316 C15.5666667,14.1335263 13.8846667,14.5789474 12,14.5789474 C10.1153333,14.5789474 8.43333333,14.1328421 7.33333333,13.4356316 L7.33333333,14.9210526 C7.33333333,15.1352105 7.64066667,15.5081053 8.35333333,15.8741579 C9.276,16.3476316 10.5846667,16.6315789 12,16.6315789 C13.4153333,16.6315789 14.724,16.3476316 15.6466667,15.8741579 C16.3593333,15.5081053 16.6666667,15.1352105 16.6666667,14.9210526 L16.6666667,13.4356316 Z M6,14.9210526 L6,8.07894737 C6,6.37868421 8.68666667,5 12,5 C15.3133333,5 18,6.37868421 18,8.07894737 L18,14.9210526 C18,16.6213158 15.3133333,18 12,18 C8.68666667,18 6,16.6213158 6,14.9210526 Z M12,9.78947368 C13.4153333,9.78947368 14.724,9.50552632 15.6466667,9.03205263 C16.3593333,8.666 16.6666667,8.29310526 16.6666667,8.07894737 C16.6666667,7.86478947 16.3593333,7.49189474 15.6466667,7.12584211 C14.724,6.65236842 13.4153333,6.36842105 12,6.36842105 C10.5846667,6.36842105 9.276,6.65236842 8.35333333,7.12584211 C7.64066667,7.49189474 7.33333333,7.86478947 7.33333333,8.07894737 C7.33333333,8.29310526 7.64066667,8.666 8.35333333,9.03205263 C9.276,9.50552632 10.5846667,9.78947368 12,9.78947368 Z" id="形状" fill="#55ADB7" fill-rule="nonzero"></path>
            </g>
        </g>
    </g>
</svg>