<?xml version="1.0" encoding="UTF-8"?>
<svg width="22px" height="22px" viewBox="0 0 22 22" version="1.1" xmlns="http://www.w3.org/2000/svg" xmlns:xlink="http://www.w3.org/1999/xlink">
    <title>编组 52</title>
    <g id="页面-1" stroke="none" stroke-width="1" fill="none" fill-rule="evenodd">
        <g id="画板" transform="translate(-1694.000000, -1046.000000)">
            <g id="编组-52" transform="translate(1694.000000, 1046.000000)">
                <g id="编组-14" transform="translate(3.500000, 2.000000)">
                    <path d="M2.5,1.7 L2.5,5.1 L12.5,5.1 L12.5,1.7 L14.1721667,1.7 C14.6293333,1.7 15,2.0782075 15,2.54439 L15,16.15561 C15,16.62192 14.62925,17 14.1721667,17 L0.827833333,17 C0.370633333,17 0,16.621835 0,16.15561 L0,2.54439 C0,2.078046 0.370791667,1.7 0.827833333,1.7 L2.5,1.7 Z" id="形状" fill="#4CAAB4" fill-rule="nonzero"></path>
                    <polygon id="路径" fill="#4CAAB4" fill-rule="nonzero" points="10.8333333 0 10.8333333 3.4 4.16666667 3.4 4.16666667 0"></polygon>
                    <polyline id="路径-2" stroke="#F0F3F5" stroke-width="1.41192" points="4.70018297 9.71428571 7.01482274 12.3121215 11.6380852 8.60899474"></polyline>
                </g>
                <rect id="矩形" fill="#D8D8D8" opacity="0" x="0" y="0" width="22" height="22"></rect>
            </g>
        </g>
    </g>
</svg>