<?xml version="1.0" encoding="UTF-8"?>
<svg width="16px" height="15px" viewBox="0 0 16 15" version="1.1" xmlns="http://www.w3.org/2000/svg" xmlns:xlink="http://www.w3.org/1999/xlink">
    <g id="页面-1" stroke="none" stroke-width="1" fill="none" fill-rule="evenodd">
        <g id="要素加工_生产任务_运行成功_文本" transform="translate(-523.000000, -894.000000)" fill="#CEDCDE" fill-rule="nonzero">
            <g id="编组-4" transform="translate(498.960116, 123.000000)">
                <g id="编组-5" transform="translate(0.000000, 771.750000)">
                    <path d="M32.7134955,1.55555556 L39.0730185,1.55555556 C39.4820877,1.55555556 39.8137037,1.90377853 39.8137037,2.33333333 L39.8137037,13.2222222 C39.8137037,13.651777 39.4820877,14 39.0730185,14 L25.7406852,14 C25.3316161,14 25,13.651777 25,13.2222222 L25,0.777777778 C25,0.348222972 25.3316161,0 25.7406852,0 L31.2321251,0 L32.7134955,1.55555556 Z M31.6661667,4.66666667 L31.6661667,10.8888889 L33.147537,10.8888889 L33.147537,4.66666667 L31.6661667,4.66666667 Z M34.6289074,7 L34.6289074,10.8888889 L36.1102778,10.8888889 L36.1102778,7 L34.6289074,7 Z M28.7034259,8.55555556 L28.7034259,10.8888889 L30.1847963,10.8888889 L30.1847963,8.55555556 L28.7034259,8.55555556 Z" id="形状"></path>
                </g>
            </g>
        </g>
    </g>
</svg>
