<?xml version="1.0" encoding="UTF-8"?>
<svg width="26px" height="26px" viewBox="0 0 26 26" version="1.1" xmlns="http://www.w3.org/2000/svg" xmlns:xlink="http://www.w3.org/1999/xlink">
    <g id="我的模型" stroke="none" stroke-width="1" fill="none" fill-rule="evenodd">
        <g id="我的模型_启动测试中" transform="translate(-727.000000, -387.000000)" fill="#4CAAB4" fill-rule="nonzero">
            <g id="编组" transform="translate(573.000000, 227.000000)">
                <g id="编组-15" transform="translate(154.000000, 160.000000)">
                    <path d="M13,0 C13.7179702,0 14.3,0.582029825 14.3,1.3 L14.3,5.2 C14.3,5.91797017 13.7179702,6.5 13,6.5 C12.2820298,6.5 11.7,5.91797017 11.7,5.2 L11.7,1.3 C11.7,0.582029825 12.2820298,0 13,0 Z M13,19.5 C13.7179702,19.5 14.3,20.0820298 14.3,20.8 L14.3,24.7 C14.3,25.4179702 13.7179702,26 13,26 C12.2820298,26 11.7,25.4179702 11.7,24.7 L11.7,20.8 C11.7,20.0820298 12.2820298,19.5 13,19.5 Z M26,13 C26,13.7179702 25.4179702,14.3 24.7,14.3 L20.8,14.3 C20.0820298,14.3 19.5,13.7179702 19.5,13 C19.5,12.2820298 20.0820298,11.7 20.8,11.7 L24.7,11.7 C25.4179702,11.7 26,12.2820298 26,13 Z M6.5,13 C6.5,13.7179702 5.91797017,14.3 5.2,14.3 L1.3,14.3 C0.582029825,14.3 0,13.7179702 0,13 C0,12.2820298 0.582029825,11.7 1.3,11.7 L5.2,11.7 C5.91797017,11.7 6.5,12.2820298 6.5,13 Z M22.1923,22.1923 C21.6846502,22.6997965 20.8617498,22.6997965 20.3541,22.1923 L17.5968,19.435 C17.1041361,18.9249074 17.1111819,18.1140898 17.6126359,17.6126359 C18.1140898,17.1111819 18.9249074,17.1041361 19.435,17.5968 L22.1923,20.3528 C22.4364102,20.5966387 22.5735727,20.927518 22.5735727,21.27255 C22.5735727,21.617582 22.4364102,21.9484613 22.1923,22.1923 L22.1923,22.1923 Z M8.4032,8.4032 C7.89555019,8.91069652 7.07264981,8.91069652 6.565,8.4032 L3.809,5.6472 C3.3010361,5.13959509 3.30074509,4.3163139 3.80835,3.80835 C4.31595491,3.3003861 5.1392361,3.30009509 5.6472,3.8077 L8.4032,6.565 C8.91069652,7.07264981 8.91069652,7.89555019 8.4032,8.4032 Z M3.809,22.1923 C3.30150348,21.6846502 3.30150348,20.8617498 3.809,20.3541 L6.5663,17.5968 C6.89269681,17.2588564 7.37604126,17.1233236 7.83055952,17.2422937 C8.28507778,17.3612638 8.64003623,17.7162222 8.7590063,18.1707405 C8.87797638,18.6252587 8.74244356,19.1086032 8.4045,19.435 L5.6485,22.1923 C5.40466127,22.4364102 5.07378202,22.5735727 4.72875,22.5735727 C4.38371798,22.5735727 4.05283873,22.4364102 3.809,22.1923 L3.809,22.1923 Z M17.5968,8.4032 C17.0893035,7.89555019 17.0893035,7.07264981 17.5968,6.565 L20.3528,3.8077 C20.8604049,3.29973613 21.6836861,3.29944513 22.19165,3.80705003 C22.6996139,4.31465493 22.6999049,5.1379361 22.1923,5.6459 L19.435,8.4032 C18.9273502,8.91069652 18.1044498,8.91069652 17.5968,8.4032 Z" id="形状"></path>
                </g>
            </g>
        </g>
    </g>
</svg>
