<?xml version="1.0" encoding="UTF-8"?>
<svg width="26px" height="26px" viewBox="0 0 26 26" version="1.1" xmlns="http://www.w3.org/2000/svg" xmlns:xlink="http://www.w3.org/1999/xlink">
    <g id="我的模型" stroke="none" stroke-width="1" fill="none" fill-rule="evenodd">
        <g id="我的模型_启动测试第一步部署模型成功" transform="translate(-730.000000, -385.000000)">
            <g id="编组" transform="translate(573.000000, 227.000000)">
                <g id="编组-14" transform="translate(157.000000, 158.000000)">
                    <path d="M13,1 C16.3137085,1 19.3137085,2.34314575 21.4852814,4.51471863 C23.6568542,6.6862915 25,9.6862915 25,13 C25,16.3137085 23.6568542,19.3137085 21.4852814,21.4852814 C19.3137085,23.6568542 16.3137085,25 13,25 C9.6862915,25 6.6862915,23.6568542 4.51471863,21.4852814 C2.34314575,19.3137085 1,16.3137085 1,13 C1,9.6862915 2.34314575,6.6862915 4.51471863,4.51471863 C6.6862915,2.34314575 9.6862915,1 13,1 Z" id="Oval-1-Copy-21" stroke="#4DA9B4" stroke-width="2"></path>
                    <path d="M17.1037038,9.5375385 L11.6321008,15.0091291 L8.89630552,12.2733338 C8.5605399,11.9375682 8.01615661,11.9375682 7.68039098,12.2733338 C7.34463779,12.6090994 7.34462536,13.1534827 7.68039098,13.4892359 L11.0241435,16.832976 C11.0338189,16.8426638 11.0432331,16.8515806 11.0524484,16.859888 C11.3898432,17.168381 11.913545,17.1594766 12.2400581,16.832976 L18.3195935,10.753453 C18.6553715,10.4176874 18.6553715,9.87330413 18.3196059,9.5375385 C17.9838527,9.20177288 17.4394694,9.20177288 17.1037038,9.5375385 Z" id="Shape-Copy-4" fill="#4DA9B4"></path>
                </g>
            </g>
        </g>
    </g>
</svg>
