<?xml version="1.0" encoding="UTF-8"?>
<svg width="132px" height="34px" viewBox="0 0 132 34" version="1.1" xmlns="http://www.w3.org/2000/svg" xmlns:xlink="http://www.w3.org/1999/xlink">
    <title>编组</title>
    <defs>
        <polygon id="path-1" points="0 34 132 34 132 0 0 0"></polygon>
    </defs>
    <g id="控件" stroke="none" stroke-width="1" fill="none" fill-rule="evenodd">
        <g id="数据要素顶部tab备份-2" transform="translate(-33.000000, -16.000000)">
            <g id="编组" transform="translate(33.000000, 16.000000)">
                <path d="M52.4023221,12.4436104 C51.8687168,11.8875553 51.1572431,11.6351678 50.2504906,11.6351678 L47.9207907,11.6351678 L47.9207907,20.3652781 L50.2504906,20.3652781 C51.1572431,20.3652781 51.8687168,20.1119988 52.4023221,19.5559437 C53.0601529,18.8647765 53.0780339,17.5671658 53.0780339,15.9154992 C53.0780339,14.2638326 53.0601529,13.1347776 52.4023221,12.4436104 M53.7184543,20.8704991 C52.9180464,21.6294452 51.7619016,22 50.4457694,22 L46,22 L46,10 L50.4457694,10 C51.7619016,10 52.9180464,10.3710007 53.7184543,11.129055 C55.0877588,12.4271116 54.9988246,14.1800007 54.9988246,15.9154992 C54.9988246,17.6518896 55.0877588,19.5728884 53.7184543,20.8704991" id="Fill-1" fill="#3E504F"></path>
                <path d="M61.2628428,18.0115722 L59.2359341,18.0115722 C58.2139179,18.0115722 57.6862366,18.4800163 57.6862366,19.2778854 C57.6862366,20.0752957 58.180121,20.5258462 59.2701815,20.5258462 C59.934402,20.5258462 60.4282863,20.4740008 60.8879233,20.0234502 C61.1434273,19.7633055 61.2628428,19.3471656 61.2628428,18.7227263 L61.2628428,18.0115722 Z M61.2970903,21.8963091 L61.2970903,21.0988989 C60.6666667,21.740314 60.0704905,22 58.9975538,22 C57.924617,22 57.2090254,21.740314 56.6813441,21.2025897 C56.2383803,20.7346044 56,20.0578609 56,19.3122961 C56,17.8381423 57.0048925,16.7805873 58.9808806,16.7805873 L61.2628428,16.7805873 L61.2628428,16.156148 C61.2628428,15.0462887 60.7180379,14.5085644 59.3724733,14.5085644 C58.4185014,14.5085644 57.9584138,14.7342985 57.4816531,15.3587378 L56.3406721,14.2663132 C57.1581048,13.2950143 58.009785,13 59.4405176,13 C61.8076477,13 63,14.0236032 63,16.0175877 L63,21.8963091 L61.2970903,21.8963091 Z" id="Fill-3" fill="#3E504F"></path>
                <path d="M66.0541427,22 C64.5816243,22 63.8995078,20.8528182 63.8995078,19.6212718 L63.8995078,14.9142556 L63,14.9142556 L63,13.5983444 L63.8995078,13.5983444 L63.8995078,11 L65.4807219,11 L65.4807219,13.5983444 L67,13.5983444 L67,14.9142556 L65.4807219,14.9142556 L65.4807219,19.5364607 C65.4807219,20.1609382 65.759639,20.5323216 66.3486464,20.5323216 L67,20.5323216 L67,22 L66.0541427,22 Z" id="Fill-5" fill="#3E504F"></path>
                <path d="M73.2628428,18.0115722 L71.2359341,18.0115722 C70.2139179,18.0115722 69.6862366,18.4800163 69.6862366,19.2778854 C69.6862366,20.0752957 70.180121,20.5258462 71.2701815,20.5258462 C71.934402,20.5258462 72.4282863,20.4740008 72.8879233,20.0234502 C73.1434273,19.7633055 73.2628428,19.3471656 73.2628428,18.7227263 L73.2628428,18.0115722 Z M73.2970903,21.8963091 L73.2970903,21.0988989 C72.6666667,21.740314 72.0704905,22 70.9975538,22 C69.924617,22 69.2090254,21.740314 68.6813441,21.2025897 C68.2383803,20.7346044 68,20.0578609 68,19.3122961 C68,17.8381423 69.0048925,16.7805873 70.9808806,16.7805873 L73.2628428,16.7805873 L73.2628428,16.156148 C73.2628428,15.0462887 72.7180379,14.5085644 71.3724733,14.5085644 C70.4185014,14.5085644 69.9584138,14.7342985 69.4816531,15.3587378 L68.3406721,14.2663132 C69.1581048,13.2950143 70.009785,13 71.4405176,13 C73.8076477,13 75,14.0236032 75,16.0175877 L75,21.8963091 L73.2970903,21.8963091 Z" id="Fill-7" fill="#3E504F"></path>
                <path d="M80.6472777,11.6351678 L77.8728589,11.6351678 L77.8728589,15.3933336 L80.6472777,15.3933336 C81.8956974,15.3933336 82.7454119,14.7026123 82.7454119,13.5222771 C82.7454119,12.3428338 81.8956974,11.6351678 80.6472777,11.6351678 L80.6472777,11.6351678 Z M82.8146921,22 L80.2137031,16.9437776 L77.8728589,16.9437776 L77.8728589,22 L76,22 L76,10 L80.7858381,10 C83.1271411,10 84.6182708,11.4666122 84.6182708,13.5057783 C84.6182708,15.224778 83.543281,16.3203894 82.1558422,16.6913901 L85,22 L82.8146921,22 Z" id="Fill-9" fill="#3E504F"></path>
                <path d="M91.1277918,15.5840131 C90.8676552,14.9247043 90.2814865,14.4741538 89.5002153,14.4741538 C88.7185135,14.4741538 88.1164093,14.9247043 87.855842,15.5840131 C87.6930413,15.9827182 87.6603089,16.2433218 87.6443733,16.7805873 L91.3556267,16.7805873 C91.3392604,16.2433218 91.2905925,15.9827182 91.1277918,15.5840131 L91.1277918,15.5840131 Z M87.6443733,18.0115722 C87.6443733,19.5205954 88.3929121,20.4740008 89.7439857,20.4740008 C90.6716914,20.4740008 91.1605242,20.1968801 91.7466929,19.5724409 L92.8048976,20.6304547 C91.9581616,21.5320147 91.1605242,22 89.711684,22 C87.6443733,22 86,20.8382953 86,17.4912826 C86,14.6475836 87.3838061,13 89.5002153,13 C91.7135298,13 93,14.7342985 93,17.2315967 L93,18.0115722 L87.6443733,18.0115722 Z" id="Fill-11" fill="#3E504F"></path>
                <mask id="mask-2" fill="white">
                    <use xlink:href="#path-1"></use>
                </mask>
                <g id="Clip-14"></g>
                <path d="M99.1881502,22 L100.931253,22 L100.931253,13.6655351 L99.1881502,13.6655351 L99.1881502,22 Z M99.1365898,11.5564576 L101,11.5564576 L101,10.0336531 L99.1365898,10.0336531 L99.1365898,11.5564576 Z M95.7354138,14.9709225 L95.7354138,22 L93.9914066,22 L93.9914066,14.9709225 L93,14.9709225 L93,13.6655351 L93.9914066,13.6655351 L93.9914066,12.3597048 C93.9914066,11.1384502 94.743555,10 96.3677069,10 L97.4445952,10 L97.4445952,11.455941 L96.6752601,11.455941 C96.0253279,11.455941 95.7354138,11.8239114 95.7354138,12.4438376 L95.7354138,13.6655351 L97.4445952,13.6655351 L97.4445952,14.9709225 L95.7354138,14.9709225 Z" id="Fill-13" fill="#3E504F" mask="url(#mask-2)"></path>
                <path d="M107.262843,22 L107.262843,17.1814337 C107.262843,15.9494585 106.496781,15.4192883 105.526136,15.4192883 C104.55459,15.4192883 103.737608,15.9651367 103.737608,17.1814337 L103.737608,22 L102,22 L102,14.0940691 L103.70336,14.0940691 L103.70336,14.8891181 C104.299537,14.2966478 105.133642,14 106.002446,14 C106.888374,14 107.620639,14.2652914 108.131647,14.7178958 C108.795417,15.3099536 109,16.0587932 109,16.9474987 L109,22 L107.262843,22 Z" id="Fill-15" fill="#3E504F" mask="url(#mask-2)"></path>
                <path d="M115.127677,15.5840131 C114.867524,14.9247043 114.281319,14.4741538 113.5,14.4741538 C112.71825,14.4741538 112.116109,14.9247043 111.855525,15.5840131 C111.692715,15.9827182 111.65998,16.2433218 111.644044,16.7805873 L115.355525,16.7805873 C115.339158,16.2433218 115.290487,15.9827182 115.127677,15.5840131 L115.127677,15.5840131 Z M111.644044,18.0115722 C111.644044,19.5205954 112.392629,20.4740008 113.743785,20.4740008 C114.671548,20.4740008 115.160411,20.1968801 115.746616,19.5724409 L116.804886,20.6304547 C115.958097,21.5320147 115.160411,22 113.711482,22 C111.644044,22 110,20.8382953 110,17.4912826 C110,14.6475836 111.38346,13 113.5,13 C115.713451,13 117,14.7342985 117,17.2315967 L117,18.0115722 L111.644044,18.0115722 Z" id="Fill-16" fill="#3E504F" mask="url(#mask-2)"></path>
                <path d="M123.702341,15.9494585 C123.314827,15.5909232 123.011148,15.4192883 122.421628,15.4192883 C121.494537,15.4192883 120.719509,16.1054152 120.719509,17.1966993 L120.719509,22 L119,22 L119,14.0940691 L120.685173,14.0940691 L120.685173,14.9514183 C121.123969,14.3903043 122.000223,14 122.960758,14 C123.786622,14 124.410479,14.2029912 125,14.7488396 L123.702341,15.9494585 Z" id="Fill-17" fill="#3E504F" mask="url(#mask-2)"></path>
                <path d="M128.070322,24.3052545 C127.894865,24.7801779 127.684131,25.1187682 127.42141,25.3730473 C126.929852,25.8475222 126.28094,26 125.596751,26 L124.877285,26 L124.877285,24.4411391 L125.333565,24.4411391 C126.087845,24.4411391 126.35103,24.2209433 126.613751,23.5258241 L127.105309,22.1862621 L124,14 L125.894749,14 L128.017871,20.0511249 L130.088077,14 L132,14 L128.070322,24.3052545 Z" id="Fill-18" fill="#3E504F" mask="url(#mask-2)"></path>
                <path d="M38.3786116,19.2451428 L30.9444653,31.7524527 C30.1159475,33.1431253 28.5894934,34 26.9369606,34 L12.0641651,34 C11.2356473,34 10.4386492,33.7857813 9.74521576,33.3918813 C9.05178236,33.0071621 8.47091932,32.4475704 8.05666041,31.7524527 L7.16060038,30.2441784 L0.618011257,19.2451428 C-0.206003752,17.8544702 -0.206003752,16.1450926 0.618011257,14.7548572 L8.05666041,2.24711011 C8.88067542,0.856874671 10.4116323,0 12.0641651,0 L26.9369606,0 C28.5894934,0 30.1159475,0.856874671 30.9444653,2.24711011 L38.3786116,14.7548572 C39.2071295,16.1450926 39.2071295,17.8544702 38.3786116,19.2451428" id="Fill-19" fill="#00ACB6" mask="url(#mask-2)"></path>
                <path d="M5.29868293,9.0771515 C14.6785495,14.3423513 23.5799508,20.5992281 32.0028869,27.8477819 C32.5300396,28.3013529 33.2891219,27.6499615 32.8867861,27.0891125 L27.9565137,20.2138859 C24.2513956,15.8081967 19.4207112,12.4199312 13.9455814,10.3868002 L5.76829592,8.02711532 C5.09463808,7.83272774 4.69008929,8.73557863 5.29868293,9.0771515" id="Fill-20" fill="#EFF7F9" mask="url(#mask-2)"></path>
                <path d="M16.9934831,22.7729012 C17.0305818,23.2096795 16.9100108,23.6594314 16.6132206,24.0399907 L9.66183725,33 C8.94768579,32.6198732 8.34946801,32.0658999 7.92283208,31.3782984 L7,29.886333 L13.2836054,21.7907987 C13.5803956,21.4063473 13.9977568,21.1598487 14.4522168,21.0556273 C15.0179732,20.9258912 15.6347403,21.021031 16.1402112,21.3626695 L16.1541232,21.371751 C16.6642314,21.7133895 16.9517469,22.232334 16.9934831,22.7729012" id="Fill-21" fill="#EFF7F9" mask="url(#mask-2)"></path>
                <path d="M23.5302744,14.5078742 L20.0673657,12.1984466 C19.5590107,11.8601391 18.849807,11.9648229 18.482277,12.4329214 L13.064441,19.3356714 C12.9914891,19.42844 12.9794843,19.5505712 13.0335057,19.6535528 L13.5487865,20.6429428 L16.8676381,22.8553463 L18.0482591,22.997478 C18.1720004,23.0119465 18.2938948,22.9634345 18.366385,22.8706659 L23.7846827,15.9687669 C24.151751,15.5002429 24.0381676,14.8466072 23.5302744,14.5078742" id="Fill-22" fill="#EFF7F9" mask="url(#mask-2)"></path>
                <path d="M30.948513,18.9524828 L30.3285505,18.6779329 C30.0497156,18.554216 29.9238586,18.2275525 30.0475968,17.9487657 L30.322194,17.32891 C30.4459323,17.0496995 30.7722284,16.9238642 31.051487,17.0475811 L31.6714495,17.322131 C31.9502844,17.4458479 32.0761414,17.7725114 31.9524032,18.0512982 L31.677806,18.6711539 C31.5540677,18.9499407 31.2273479,19.0761998 30.948513,18.9524828" id="Fill-23" fill="#F4CF1F" mask="url(#mask-2)"></path>
                <path d="M27.948513,6.95248284 L27.3285505,6.67793294 C27.0497156,6.55421601 26.9238586,6.22755248 27.0475968,5.9487657 L27.322194,5.32891 C27.4459323,5.04969953 27.7722284,4.92386416 28.051487,5.04758109 L28.6714495,5.32213099 C28.9502844,5.44584791 29.0761414,5.77251145 28.9524032,6.05129823 L28.677806,6.67115393 C28.5540677,6.94994071 28.2277716,7.07619977 27.948513,6.95248284" id="Fill-24" fill="#F4CF1F" mask="url(#mask-2)"></path>
                <path d="M31.6398799,14.9522296 L30.3301543,14.3715945 C30.0502584,14.2473854 29.9234971,13.9194223 30.0477062,13.6395264 L30.6287667,12.3298007 C30.7529758,12.0499048 31.0805135,11.9235688 31.3604094,12.047778 L32.670135,12.6284131 C32.9504562,12.7521968 33.0763668,13.0801599 32.9521577,13.3604812 L32.371948,14.6697815 C32.2477389,14.9501027 31.9197758,15.0764387 31.6398799,14.9522296" id="Fill-25" fill="#F4CF1F" mask="url(#mask-2)"></path>
            </g>
        </g>
    </g>
</svg>