<?xml version="1.0" encoding="UTF-8"?>
<svg width="298px" height="86px" viewBox="0 0 298 86" version="1.1" xmlns="http://www.w3.org/2000/svg" xmlns:xlink="http://www.w3.org/1999/xlink">
    <defs>
        <linearGradient x1="-26.7427292%" y1="-60.9849876%" x2="76.869496%" y2="110.121915%" id="linearGradient-1">
            <stop stop-color="#FFFFFF" offset="0%"></stop>
            <stop stop-color="#B0CEFF" offset="100%"></stop>
        </linearGradient>
        <linearGradient x1="0%" y1="15.2777778%" x2="50%" y2="84.7222222%" id="linearGradient-2">
            <stop stop-color="#F6F9FF" offset="0%"></stop>
            <stop stop-color="#0147EB" offset="100%"></stop>
        </linearGradient>
    </defs>
    <g id="后台" stroke="none" stroke-width="1" fill="none" fill-rule="evenodd">
        <g id="登录" transform="translate(-218.000000, -402.000000)" fill-rule="nonzero">
            <g id="logo白色" transform="translate(218.000000, 402.000000)">
                <g id="政策通才" transform="translate(106.299469, 19.710903)" fill="#FFFFFF">
                    <path d="M23.4745441,30.8911793 L22.9328239,35.7956288 L0,42.7750377 L0.541720249,38.0592209 L3.43089491,37.3046902 L6.68121641,14.291504 L11.0149784,17.6868921 L8.48695057,35.9842615 L11.5566986,35.0410981 L15.168167,7.50072774 L5.05605566,7.50072774 L5.59777591,3.35080892 L27.2665859,3.35080892 L26.7248656,7.50072774 L20.0436492,7.50072774 L18.9602087,15.8005654 L23.4745441,15.8005654 L22.9328239,19.9504842 L18.4184885,19.9504842 L16.6127543,33.5320367 L23.4745441,30.8911793 Z M46.3902133,13.5012823 L42.5756862,13.5012823 C41.3647253,19.4189877 39.0638994,25.2107845 35.6732087,30.8766726 L43.1206187,43.3416265 L36.7630735,43.3416265 C35.6732087,41.3270885 34.3411516,38.7459617 32.7669023,35.5982461 C30.2238843,39.3755048 28.4074428,41.9566316 27.3175779,43.3416265 L20.5967445,43.3416265 C24.3507236,39.9420936 27.7414143,35.7241547 30.7688167,30.6878097 C29.0734714,26.7846423 27.9230584,23.6369266 27.3175779,21.2446628 L32.0403257,21.2446628 C32.403614,22.503749 32.8879984,24.0146525 33.4934789,25.7773733 C34.4622477,23.7628353 35.3099204,21.685343 36.036497,19.5448963 C36.6419774,17.4044497 37.1263618,15.3899117 37.4896501,13.5012823 L32.2219699,13.5012823 L28.9523753,20.1114851 L23.1397626,20.1114851 C27.8625104,11.0460641 30.9504609,4.37290696 32.403614,0.0920136919 L37.6712943,0.0920136919 L34.2200555,8.96857178 L46.9351457,8.96857178 L46.3902133,13.5012823 Z" id="形状"></path>
                    <path d="M61.1365587,6.22066439 L57.6181633,10.5272782 L51.3220873,10.5272782 C55.0256614,6.69917704 57.803342,3.1900843 59.6551291,0 L65.395669,0 L63.5438819,2.87107587 L74.6546043,2.87107587 L74.0990682,6.22066439 L68.7288857,6.22066439 L70.3954941,10.367774 L64.8401329,10.367774 L63.5438819,6.22066439 L61.1365587,6.22066439 Z M80.9488382,6.48675804 L77.3687549,10.8704644 L70.9622901,10.8704644 C74.7307988,6.97383652 77.5571804,3.40192764 79.4414347,0.15473774 L85.2826232,0.15473774 L83.3983689,3.07720865 L94.703895,3.07720865 L94.1386187,6.48675804 L88.6742811,6.48675804 L90.37011,10.7081049 L84.7173469,10.7081049 L83.3983689,6.48675804 L80.9488382,6.48675804 Z M76.8233735,10.8961159 L76.4461081,13.5369733 L94.7434775,13.5369733 L94.1775794,17.3096268 L75.8802101,17.3096268 L75.5029448,20.1391169 L87.7640685,20.1391169 C88.6443543,20.1391169 89.398885,20.264872 90.0276606,20.5163822 C90.5306811,20.7678925 90.6564362,21.5224231 90.404926,22.7799743 L89.2731299,31.8343426 L81.9164557,31.8343426 L80.7846596,27.8730565 L84.7459458,27.8730565 L85.1232111,24.666301 C85.2489662,24.2890357 85.1860887,24.100403 84.9345784,24.100403 L74.9370467,24.100403 L72.2961893,43.3409357 L67.2031071,43.3409357 L69.8439645,24.100403 L60.0350655,24.100403 L58.9032695,31.8343426 L53.8101873,31.8343426 L55.5078813,20.1391169 L70.4098626,20.1391169 L70.7871279,17.3096268 L52.8670239,17.3096268 L53.2442893,13.5369733 L71.3530259,13.5369733 L71.7302913,10.8961159 L76.8233735,10.8961159 Z M61.9213922,30.8911793 L67.9576378,30.8911793 C63.9334741,35.1668532 59.9093104,38.8766291 55.8851467,42.020507 L48.5284724,42.020507 L61.9213922,30.8911793 Z M80.2187616,30.8911793 C82.7338639,34.4123225 86.0663745,38.1220984 90.2162933,42.020507 L83.2368844,42.020507 C80.0930065,38.3736087 77.2635164,34.6638327 74.7484141,30.8911793 L80.2187616,30.8911793 Z" id="形状"></path>
                    <path d="M131.694251,1.0890129 L139.418174,1.0890129 C139.903956,1.0890129 140.389737,1.0890129 140.875518,1.0890129 C141.264143,1.20031508 141.458456,1.47857053 141.458456,1.92377926 C141.458456,3.14810325 141.166987,3.98286961 140.584049,4.42807833 L130.819845,10.4383961 L134.31747,13.443555 L127.613688,13.443555 L119.74403,5.59675123 L125.136203,5.59675123 L127.759422,7.93409703 C130.771267,6.48716868 132.908704,5.31849578 134.171736,4.42807833 C134.366048,4.31677615 134.414627,4.20547397 134.31747,4.09417179 C134.220314,4.09417179 134.123158,4.09417179 134.026001,4.09417179 L116.392139,4.09417179 L115.517733,1.0890129 L131.694251,1.0890129 Z M139.541182,10.6558118 C141.825674,10.5536205 142.727447,11.4733429 142.246501,13.4149792 L139.000118,36.7146144 L131.425222,36.7146144 L130.162739,33.3422988 L134.85196,33.3422988 L135.573379,28.7436865 L129.44132,28.7436865 L128.359192,35.948179 L123.489616,35.948179 L124.752099,28.7436865 L118.62004,28.7436865 L117.357558,36.7146144 L112.848691,36.7146144 L117.177203,10.6558118 L139.541182,10.6558118 Z M127.09671,13.8748404 L121.145006,13.8748404 L120.423587,18.0135914 L126.375291,18.0135914 L127.09671,13.8748404 Z M137.737635,13.8748404 L131.785931,13.8748404 L131.064512,18.0135914 L137.196571,18.0135914 L137.737635,13.8748404 Z M119.161104,25.524658 L125.293163,25.524658 L126.014582,21.0793329 L119.882523,21.0793329 L119.161104,25.524658 Z M129.982384,25.524658 L136.114443,25.524658 L136.655507,21.0793329 L130.523448,21.0793329 L129.982384,25.524658 Z M113.550468,11.8732663 L108.097483,11.8732663 L104.148769,0.190889266 L109.225687,0.190889266 C110.479246,4.08501493 111.92084,7.9791406 113.550468,11.8732663 Z M108.661585,34.4843185 C110.291212,35.991722 112.798332,37.0594662 116.182944,37.687551 C119.567556,38.4412527 123.704303,38.8181036 128.593187,38.8181036 L142.131634,38.8181036 L140.627362,43.5287395 L128.405153,43.5287395 C123.390913,43.5287395 119.191488,43.0890801 115.806876,42.2097614 C112.296908,41.4560597 109.225687,40.1370816 106.593211,38.2528273 L103.396633,43.5287395 L97.7556134,43.5287395 L105.841075,29.2084063 L107.157313,20.3524109 C107.157313,20.101177 107.094635,19.9127515 106.969279,19.7871346 C106.843923,19.6615176 106.655889,19.5987091 106.405177,19.5987091 L101.704327,19.5987091 L102.456463,15.2649241 L109.789788,15.2649241 C110.792636,15.2649241 111.482094,15.4533495 111.858162,15.8302004 C112.23423,16.2070513 112.359586,16.8979446 112.23423,17.9028802 L110.541924,30.7158098 C109.915144,32.0975964 109.288365,33.3537659 108.661585,34.4843185 Z M136.679754,4.82371878 L114.974263,4.82371878 L115.508004,1.05101926 L137.213495,1.05101926 L136.679754,4.82371878 Z" id="形状"></path>
                    <path d="M190.757508,9.00978913 L190.19161,13.3483406 L182.646303,13.3483406 L178.496385,43.1523031 L164.914832,43.1523031 L163.783036,38.8137516 L173.403302,38.8137516 L177.175956,13.3483406 L150.201484,13.3483406 L150.767382,9.00978913 L177.741854,9.00978913 L178.87365,0.332686141 L184.53263,0.332686141 L183.400834,9.00978913 L190.757508,9.00978913 Z M167.932955,15.8005654 L174.346466,15.8005654 C170.573812,20.7050149 167.052669,25.1064439 163.783036,29.0048525 C160.513403,32.9032611 157.118015,36.613037 153.596872,40.1341803 L145.674299,40.1341803 C149.446953,36.8645473 153.345361,32.9661387 157.369525,28.4389545 C161.267934,24.0375255 164.789077,19.8247291 167.932955,15.8005654 Z" id="形状"></path>
                </g>
                <g id="编组-2">
                    <rect id="矩形" fill="url(#linearGradient-1)" x="0" y="0" width="84.1569101" height="86" rx="29.8190541"></rect>
                    <g id="Z" transform="translate(24.870004, 27.661133)" fill="url(#linearGradient-2)">
                        <polygon id="路径" points="36.6914129 7.63844433 14.6720851 22.9377331 34.8546023 22.9377331 34.8546023 30.5761774 0 30.5761774 0 22.9377331 22.0193278 7.63844433 1.83681066 7.63844433 1.83681066 0 36.6914129 0"></polygon>
                    </g>
                </g>
            </g>
        </g>
    </g>
</svg>
