<?xml version="1.0" encoding="UTF-8"?>
<svg width="138px" height="138px" viewBox="0 0 138 138" version="1.1" xmlns="http://www.w3.org/2000/svg" xmlns:xlink="http://www.w3.org/1999/xlink">
    <defs>
        <linearGradient x1="50%" y1="0%" x2="50%" y2="100%" id="linearGradient-1">
            <stop stop-color="#F5FCFF" stop-opacity="0.477786618" offset="0%"></stop>
            <stop stop-color="#DEF2FC" stop-opacity="0.457935253" offset="100%"></stop>
        </linearGradient>
        <linearGradient x1="50%" y1="0%" x2="50%" y2="100%" id="linearGradient-2">
            <stop stop-color="#FFFFFF" stop-opacity="0.401884492" offset="0%"></stop>
            <stop stop-color="#F5FCFF" offset="100%"></stop>
        </linearGradient>
        <path d="M96.9589947,88.4708995 L56.5568783,88.4708995 C55.1622863,88.4708995 54.031746,87.3403592 54.031746,85.9457672 L54.031746,40.4933862 C54.031746,39.0987942 55.1622863,37.968254 56.5568783,37.968254 L96.9589947,37.968254 C98.3535868,37.968254 99.484127,39.0987942 99.484127,40.4933862 L99.484127,85.9457672 C99.484127,87.3403592 98.3535868,88.4708995 96.9589947,88.4708995 Z M66.6574074,50.5939153 L66.6574074,55.6441799 L86.8584656,55.6441799 L86.8584656,50.5939153 L66.6574074,50.5939153 Z M66.6574074,60.6944444 L66.6574074,65.744709 L86.8584656,65.744709 L86.8584656,60.6944444 L66.6574074,60.6944444 Z M66.6574074,70.7949735 L66.6574074,75.8452381 L79.2830688,75.8452381 L79.2830688,70.7949735 L66.6574074,70.7949735 Z" id="path-3"></path>
        <filter x="-12.6%" y="-9.4%" width="125.2%" height="122.7%" filterUnits="objectBoundingBox" id="filter-4">
            <feMorphology radius="0.73015873" operator="dilate" in="SourceAlpha" result="shadowSpreadOuter1"></feMorphology>
            <feOffset dx="0" dy="1" in="shadowSpreadOuter1" result="shadowOffsetOuter1"></feOffset>
            <feGaussianBlur stdDeviation="1.5" in="shadowOffsetOuter1" result="shadowBlurOuter1"></feGaussianBlur>
            <feComposite in="shadowBlurOuter1" in2="SourceAlpha" operator="out" result="shadowBlurOuter1"></feComposite>
            <feColorMatrix values="0 0 0 0 0.807929343   0 0 0 0 0.924747641   0 0 0 0 0.979010098  0 0 0 1 0" type="matrix" in="shadowBlurOuter1"></feColorMatrix>
        </filter>
        <linearGradient x1="50%" y1="0%" x2="50%" y2="100%" id="linearGradient-5">
            <stop stop-color="#FFFFFF" stop-opacity="0.401884492" offset="0%"></stop>
            <stop stop-color="#F5FCFF" offset="100%"></stop>
        </linearGradient>
        <path d="M76.2222222,45 L89,57.75 L89,93.47091 C89,94.8678 87.8630333,96 86.4613111,96 L45.5386889,96 C44.1366089,96 43,94.838985 43,93.47091 L43,47.52909 C43,46.1323275 44.1370944,45 45.5386889,45 L76.2222222,45 Z M73.6666667,67.95 L73.6666667,65.4 C73.6666667,61.1750325 70.2343,57.75 66,57.75 C61.7657,57.75 58.3333333,61.1750325 58.3333333,65.4 L58.3333333,67.95 L55.7777778,67.95 L55.7777778,80.7 L76.2222222,80.7 L76.2222222,67.95 L73.6666667,67.95 Z M68.5555556,67.95 L63.4444444,67.95 L63.4444444,65.4 C63.4444444,63.991686 64.5885667,62.85 66,62.85 C67.4114333,62.85 68.5555556,63.991686 68.5555556,65.4 L68.5555556,67.95 Z" id="path-6"></path>
        <filter x="-12.5%" y="-9.3%" width="124.9%" height="122.5%" filterUnits="objectBoundingBox" id="filter-7">
            <feMorphology radius="0.73015873" operator="dilate" in="SourceAlpha" result="shadowSpreadOuter1"></feMorphology>
            <feOffset dx="0" dy="1" in="shadowSpreadOuter1" result="shadowOffsetOuter1"></feOffset>
            <feGaussianBlur stdDeviation="1.5" in="shadowOffsetOuter1" result="shadowBlurOuter1"></feGaussianBlur>
            <feComposite in="shadowBlurOuter1" in2="SourceAlpha" operator="out" result="shadowBlurOuter1"></feComposite>
            <feColorMatrix values="0 0 0 0 0.807929343   0 0 0 0 0.924747641   0 0 0 0 0.979010098  0 0 0 1 0" type="matrix" in="shadowBlurOuter1"></feColorMatrix>
        </filter>
    </defs>
    <g id="模型库" stroke="none" stroke-width="1" fill="none" fill-rule="evenodd">
        <g id="模型库_未授权提示" transform="translate(-891.000000, -381.000000)">
            <g id="编组-4" transform="translate(836.000000, 381.000000)">
                <g id="编组-10" transform="translate(55.000000, 0.000000)">
                    <circle id="椭圆形" fill="url(#linearGradient-1)" cx="69" cy="69" r="69"></circle>
                    <polygon id="路径" points="38.6984127 38.6984127 99.3015873 38.6984127 99.3015873 99.3015873 38.6984127 99.3015873"></polygon>
                    <g id="形状">
                        <use fill="black" fill-opacity="1" filter="url(#filter-4)" xlink:href="#path-3"></use>
                        <use stroke="#FFFFFF" stroke-width="1.46031746" fill="url(#linearGradient-2)" fill-rule="evenodd" xlink:href="#path-3"></use>
                    </g>
                    <rect id="矩形" fill="#F6FCFE" x="64" y="45" width="25" height="36" rx="8"></rect>
                    <g id="形状">
                        <use fill="black" fill-opacity="1" filter="url(#filter-7)" xlink:href="#path-6"></use>
                        <use stroke="#FFFFFF" stroke-width="1.46031746" fill="url(#linearGradient-5)" fill-rule="evenodd" xlink:href="#path-6"></use>
                    </g>
                </g>
            </g>
        </g>
    </g>
</svg>
