<?xml version="1.0" encoding="UTF-8"?>
<svg width="20px" height="20px" viewBox="0 0 20 20" version="1.1" xmlns="http://www.w3.org/2000/svg" xmlns:xlink="http://www.w3.org/1999/xlink">
    <g id="后台" stroke="none" stroke-width="1" fill="none" fill-rule="evenodd">
        <g id="画板" transform="translate(-964.000000, -619.000000)">
            <g id="编组-22" transform="translate(964.000000, 619.000000)">
                <rect id="矩形备份-16" fill-opacity="0.318756317" fill="#D8D8D8" opacity="0" x="0" y="0" width="20" height="20"></rect>
                <path d="M14.1818182,9.18181817 C14.7843106,9.18181817 15.2727273,9.67023481 15.2727273,10.2727273 L15.2727273,15.3636364 C15.2727273,15.9661288 14.7843106,16.4545455 14.1818182,16.4545455 L6.18181819,16.4545455 C5.57932573,16.4545455 5.09090909,15.9661288 5.09090909,15.3636364 L5.09090909,10.2727273 C5.09090909,9.67023481 5.57932573,9.18181817 6.18181819,9.18181817 L14.1818182,9.18181817 M14.1818182,8.09090908 L6.18181819,8.09090908 C4.97683328,8.09090908 4,9.06774235 4,10.2727273 L4,15.3636364 C4,16.5686213 4.97683328,17.5454545 6.18181819,17.5454545 L14.1818182,17.5454545 C15.3868031,17.5454545 16.3636364,16.5686213 16.3636364,15.3636364 L16.3636364,10.2727273 C16.3636364,9.06774235 15.3868031,8.09090908 14.1818182,8.09090908 L14.1818182,8.09090908 Z" id="形状备份-3" fill="#2554FF" fill-rule="nonzero"></path>
                <path d="M10.1818182,4.09090908 C11.5876339,4.09090908 12.7272727,5.2305479 12.7272727,6.63636362 L12.7272727,8.09090908 L7.63636364,8.09090908 L7.63636364,6.63636362 C7.63636364,5.2305479 8.77600246,4.09090908 10.1818182,4.09090908 M10.1818182,3 C8.17351001,3 6.54545455,4.62805545 6.54545455,6.63636362 L6.54545455,9.18181817 L13.8181818,9.18181817 L13.8181818,6.63636362 C13.8181818,4.62805545 12.1901264,3 10.1818182,3 L10.1818182,3 Z M10.1818182,14.4545455 C9.88057196,14.4545455 9.63636364,14.2103371 9.63636364,13.9090909 L9.63636364,11.7272727 C9.63636364,11.4260265 9.88057196,11.1818182 10.1818182,11.1818182 C10.4830644,11.1818182 10.7272727,11.4260265 10.7272727,11.7272727 L10.7272727,13.9090909 C10.7272727,14.2103371 10.4830644,14.4545455 10.1818182,14.4545455 L10.1818182,14.4545455 Z" id="形状备份" fill="#2554FF" fill-rule="nonzero"></path>
            </g>
        </g>
    </g>
</svg>
