<?xml version="1.0" encoding="UTF-8"?>
<svg width="16px" height="16px" viewBox="0 0 16 16" version="1.1" xmlns="http://www.w3.org/2000/svg" xmlns:xlink="http://www.w3.org/1999/xlink">
    <title>file-copy-2-fill</title>
    <g id="控件" stroke="none" stroke-width="1" fill="none" fill-rule="evenodd">
        <g id="列表icon" transform="translate(-112.000000, -6.000000)">
            <g id="插入单月格备份-3" transform="translate(106.000000, 0.000000)">
                <g id="file-copy-2-fill" transform="translate(6.533333, 6.533333)">
                    <polygon id="路径" points="0 0 14.9333333 0 14.9333333 14.9333333 0 14.9333333"></polygon>
                    <path d="M4.35555556,3.73333333 L4.35555556,1.86666667 C4.35555556,1.52302282 4.63413393,1.24444444 4.97777778,1.24444444 L12.4444444,1.24444444 C12.7880883,1.24444444 13.0666667,1.52302282 13.0666667,1.86666667 L13.0666667,10.5777778 C13.0666667,10.9214216 12.7880883,11.2 12.4444444,11.2 L10.5777778,11.2 L10.5777778,13.0666667 C10.5777778,13.4101333 10.2977778,13.6889001 9.9512,13.6889001 L2.49324444,13.6889001 C2.32751771,13.6898824 2.16822865,13.6247857 2.05063204,13.5080066 C1.93303542,13.3912274 1.86682925,13.2323963 1.86666667,13.0666667 L1.86853333,4.35555556 C1.86853333,4.01208889 2.14853333,3.73333333 2.49511111,3.73333333 L4.35555556,3.73333333 Z M5.6,3.73333333 L10.5777778,3.73333333 L10.5777778,9.95555556 L11.8222222,9.95555556 L11.8222222,2.48888889 L5.6,2.48888889 L5.6,3.73333333 Z M4.35555556,6.84444444 L4.35555556,8.08888889 L8.08888889,8.08888889 L8.08888889,6.84444444 L4.35555556,6.84444444 Z M4.35555556,9.33333333 L4.35555556,10.5777778 L8.08888889,10.5777778 L8.08888889,9.33333333 L4.35555556,9.33333333 Z" id="形状" fill="#8C8C8C" fill-rule="nonzero"></path>
                </g>
            </g>
        </g>
    </g>
</svg>