<?xml version="1.0" encoding="UTF-8"?>
<svg width="16px" height="16px" viewBox="0 0 16 16" version="1.1" xmlns="http://www.w3.org/2000/svg" xmlns:xlink="http://www.w3.org/1999/xlink">
    <title>keyboard-box-line</title>
    <g id="控件" stroke="none" stroke-width="1" fill="none" fill-rule="evenodd">
        <g id="列表icon" transform="translate(-518.000000, -6.000000)">
            <g id="插入单月格备份-11" transform="translate(512.000000, 0.000000)">
                <g id="keyboard-box-line" transform="translate(6.533333, 6.533333)">
                    <polygon id="路径" points="0 0 14.9333333 0 14.9333333 14.9333333 0 14.9333333"></polygon>
                    <path d="M2.48888889,3.11111111 L2.48888889,11.8222222 L12.4444444,11.8222222 L12.4444444,3.11111111 L2.48888889,3.11111111 Z M1.86666667,1.86666667 L13.0666667,1.86666667 C13.4103105,1.86666667 13.6888889,2.14524504 13.6888889,2.48888889 L13.6888889,12.4444444 C13.6888889,12.7880883 13.4103105,13.0666667 13.0666667,13.0666667 L1.86666667,13.0666667 C1.52302282,13.0666667 1.24444444,12.7880883 1.24444444,12.4444444 L1.24444444,2.48888889 C1.24444444,2.14524504 1.52302282,1.86666667 1.86666667,1.86666667 Z M3.73333333,4.35555556 L4.97777778,4.35555556 L4.97777778,5.6 L3.73333333,5.6 L3.73333333,4.35555556 Z M3.73333333,6.84444444 L4.97777778,6.84444444 L4.97777778,8.08888889 L3.73333333,8.08888889 L3.73333333,6.84444444 Z M3.73333333,9.33333333 L11.2,9.33333333 L11.2,10.5777778 L3.73333333,10.5777778 L3.73333333,9.33333333 Z M6.84444444,6.84444444 L8.08888889,6.84444444 L8.08888889,8.08888889 L6.84444444,8.08888889 L6.84444444,6.84444444 Z M6.84444444,4.35555556 L8.08888889,4.35555556 L8.08888889,5.6 L6.84444444,5.6 L6.84444444,4.35555556 Z M9.95555556,4.35555556 L11.2,4.35555556 L11.2,5.6 L9.95555556,5.6 L9.95555556,4.35555556 Z M9.95555556,6.84444444 L11.2,6.84444444 L11.2,8.08888889 L9.95555556,8.08888889 L9.95555556,6.84444444 Z" id="形状" fill="#8C8C8C" fill-rule="nonzero"></path>
                </g>
            </g>
        </g>
    </g>
</svg>