<?xml version="1.0" encoding="UTF-8"?>
<svg width="16px" height="16px" viewBox="0 0 16 16" version="1.1" xmlns="http://www.w3.org/2000/svg" xmlns:xlink="http://www.w3.org/1999/xlink">
    <title>list-check</title>
    <g id="控件" stroke="none" stroke-width="1" fill="none" fill-rule="evenodd">
        <g id="列表icon" transform="translate(-553.000000, -6.000000)">
            <g id="插入单月格备份-12" transform="translate(547.000000, 0.000000)">
                <g id="list-check" transform="translate(6.533333, 6.533333)">
                    <polygon id="路径" points="0 0 14.9333333 0 14.9333333 14.9333333 0 14.9333333"></polygon>
                    <path d="M4.97777778,2.48888889 L13.0666667,2.48888889 L13.0666667,3.73333333 L4.97777778,3.73333333 L4.97777778,2.48888889 Z M1.86666667,2.17777778 L3.73333333,2.17777778 L3.73333333,4.04444444 L1.86666667,4.04444444 L1.86666667,2.17777778 Z M1.86666667,6.53333333 L3.73333333,6.53333333 L3.73333333,8.4 L1.86666667,8.4 L1.86666667,6.53333333 Z M1.86666667,10.8888889 L3.73333333,10.8888889 L3.73333333,12.7555556 L1.86666667,12.7555556 L1.86666667,10.8888889 Z M4.97777778,6.84444444 L13.0666667,6.84444444 L13.0666667,8.08888889 L4.97777778,8.08888889 L4.97777778,6.84444444 Z M4.97777778,11.2 L13.0666667,11.2 L13.0666667,12.4444444 L4.97777778,12.4444444 L4.97777778,11.2 Z" id="形状" fill="#8C8C8C" fill-rule="nonzero"></path>
                </g>
            </g>
        </g>
    </g>
</svg>