<?xml version="1.0" encoding="UTF-8"?>
<svg width="16px" height="16px" viewBox="0 0 16 16" version="1.1" xmlns="http://www.w3.org/2000/svg" xmlns:xlink="http://www.w3.org/1999/xlink">
    <title>play-fill (1)</title>
    <g id="控件" stroke="none" stroke-width="1" fill="none" fill-rule="evenodd">
        <g id="列表icon" transform="translate(-235.000000, -6.000000)">
            <g id="插入单月格备份-6" transform="translate(229.000000, 0.000000)">
                <g id="play-fill-(1)" transform="translate(6.513889, 6.533333)">
                    <polygon id="路径" points="0 0 14.8888889 0 14.8888889 14.9333333 0 14.9333333"></polygon>
                    <path d="M12.0202963,7.72551111 L5.44499074,12.1221333 C5.34981803,12.1856553 5.22752405,12.191523 5.12674039,12.1374031 C5.02595673,12.0832832 4.96296296,11.9779494 4.96296296,11.8632889 L4.96296296,3.07004444 C4.96296296,2.95538391 5.02595673,2.85005011 5.12674039,2.79593022 C5.22752405,2.74181033 5.34981803,2.74767804 5.44499074,2.8112 L12.0202963,7.20782222 C12.1065759,7.26552499 12.1583983,7.36265567 12.1583983,7.46666667 C12.1583983,7.57067767 12.1065759,7.66780834 12.0202963,7.72551111 Z" id="路径" fill="#8C8C8C" fill-rule="nonzero"></path>
                </g>
            </g>
        </g>
    </g>
</svg>