<?xml version="1.0" encoding="UTF-8"?>
<svg width="16px" height="16px" viewBox="0 0 16 16" version="1.1" xmlns="http://www.w3.org/2000/svg" xmlns:xlink="http://www.w3.org/1999/xlink">
    <title>restart-line</title>
    <g id="控件" stroke="none" stroke-width="1" fill="none" fill-rule="evenodd">
        <g id="列表icon" transform="translate(-345.000000, -6.000000)">
            <g id="插入单月格备份-8" transform="translate(339.000000, 0.000000)">
                <g id="restart-line" transform="translate(6.533333, 6.533333)">
                    <polygon id="路径" points="0 0 14.9333333 0 14.9333333 14.9333333 0 14.9333333"></polygon>
                    <path d="M11.5341333,12.1750222 C10.4050743,13.1533669 8.96063056,13.6909731 7.46666667,13.6888949 C4.03013333,13.6888949 1.24444444,10.9032 1.24444444,7.46666667 C1.24444444,4.03013333 4.03013333,1.24444444 7.46666667,1.24444444 C10.9032,1.24444444 13.6888889,4.03013333 13.6888889,7.46666667 C13.6888889,8.79573333 13.272,10.0277333 12.5626667,11.0382222 L10.5777778,7.46666667 L12.4444444,7.46666667 C12.4442502,5.10149961 10.7797899,3.06304307 8.46242899,2.58991142 C6.14506807,2.11677977 3.81475237,3.33962967 2.88743681,5.51542862 C1.96012125,7.69122758 2.69188667,10.2191224 4.63809512,11.5631046 C6.58430356,12.9070867 9.20750397,12.6960115 10.9137778,11.0581333 L11.5341333,12.1750222 Z" id="路径" fill="#8C8C8C" fill-rule="nonzero"></path>
                </g>
            </g>
        </g>
    </g>
</svg>