<?xml version="1.0" encoding="UTF-8"?>
<svg width="16px" height="16px" viewBox="0 0 16 16" version="1.1" xmlns="http://www.w3.org/2000/svg" xmlns:xlink="http://www.w3.org/1999/xlink">
    <title>scissors-fill</title>
    <g id="控件" stroke="none" stroke-width="1" fill="none" fill-rule="evenodd">
        <g id="列表icon" transform="translate(-41.000000, -6.000000)">
            <g id="插入单月格备份" transform="translate(35.000000, 0.000000)">
                <g id="scissors-fill" transform="translate(6.533333, 6.533333)">
                    <polygon id="路径" points="0 0 14.9333333 0 14.9333333 14.9333333 0 14.9333333"></polygon>
                    <path d="M6.02497778,4.70524444 L7.46666667,6.14755556 L11.4327111,2.18088889 C11.6661042,1.94740124 11.9827099,1.81622129 12.3128444,1.81622129 C12.642979,1.81622129 12.9595847,1.94740124 13.1929778,2.18088889 L13.6328889,2.6208 L6.02497778,10.2280889 C6.49005732,11.3248551 6.11273785,12.5973911 5.12498459,13.2633781 C4.13723132,13.9293651 2.81605632,13.8020293 1.97368016,12.9596532 C1.131304,12.117277 1.00396822,10.796102 1.66995522,9.80834875 C2.33594222,8.82059549 3.60847819,8.44327602 4.70524444,8.90835556 L6.14755556,7.46666667 L4.70524444,6.02497778 C3.60847819,6.49005732 2.33594222,6.11273785 1.66995522,5.12498459 C1.00396822,4.13723132 1.131304,2.81605632 1.97368016,1.97368016 C2.81605632,1.131304 4.13723132,1.00396822 5.12498459,1.66995522 C6.11273785,2.33594222 6.49005732,3.60847819 6.02497778,4.70524444 Z M3.73333333,4.97777778 C4.42062102,4.97777778 4.97777778,4.42062102 4.97777778,3.73333333 C4.97777778,3.04604564 4.42062102,2.48888889 3.73333333,2.48888889 C3.04604564,2.48888889 2.48888889,3.04604564 2.48888889,3.73333333 C2.48888889,4.42062102 3.04604564,4.97777778 3.73333333,4.97777778 Z M3.73333333,12.4444444 C4.42062102,12.4444444 4.97777778,11.8872877 4.97777778,11.2 C4.97777778,10.5127123 4.42062102,9.95555556 3.73333333,9.95555556 C3.04604564,9.95555556 2.48888889,10.5127123 2.48888889,11.2 C2.48888889,11.8872877 3.04604564,12.4444444 3.73333333,12.4444444 Z M9.66622222,8.34586667 L13.6328889,12.3131556 L13.1929778,12.7530667 C12.9595847,12.9865543 12.642979,13.1177343 12.3128444,13.1177343 C11.9827099,13.1177343 11.6661042,12.9865543 11.4327111,12.7530667 L8.34648889,9.66622222 L9.6656,8.34586667 L9.66622222,8.34586667 Z" id="形状" fill="#8C8C8C" fill-rule="nonzero"></path>
                </g>
            </g>
        </g>
    </g>
</svg>