<?xml version="1.0" encoding="UTF-8"?>
<svg width="16px" height="16px" viewBox="0 0 16 16" version="1.1" xmlns="http://www.w3.org/2000/svg" xmlns:xlink="http://www.w3.org/1999/xlink">
    <title>speed-line</title>
    <g id="控件" stroke="none" stroke-width="1" fill="none" fill-rule="evenodd">
        <g id="列表icon" transform="translate(-381.000000, -5.000000)">
            <g id="插入单月格备份-10" transform="translate(375.000000, 0.000000)">
                <g id="speed-line" transform="translate(6.533333, 5.600000)">
                    <polygon id="路径" points="0 0 14.9333333 0 14.9333333 14.9333333 0 14.9333333"></polygon>
                    <path d="M7.46666667,8.29608889 L1.72791111,12.1221333 C1.6324543,12.1856553 1.50979527,12.191523 1.40871076,12.1374031 C1.30762625,12.0832832 1.24444444,11.9779494 1.24444444,11.8632889 L1.24444444,3.07004444 C1.24444444,2.95538391 1.30762625,2.85005011 1.40871076,2.79593022 C1.50979527,2.74181033 1.6324543,2.74767804 1.72791111,2.8112 L7.46666667,6.63724444 L7.46666667,3.07004444 C7.4667259,2.95538391 7.52984847,2.85005011 7.63093298,2.79593022 C7.73201749,2.74181033 7.85467653,2.74767804 7.95013333,2.8112 L14.5450667,7.20782222 C14.6316038,7.26552499 14.6835809,7.36265567 14.6835809,7.46666667 C14.6835809,7.57067767 14.6316038,7.66780834 14.5450667,7.72551111 L7.95013333,12.1221333 C7.85467653,12.1856553 7.73201749,12.191523 7.63093298,12.1374031 C7.52984847,12.0832832 7.4667259,11.9779494 7.46666667,11.8632889 L7.46666667,8.29608889 Z" id="形状" fill="#8C8C8C" fill-rule="nonzero"></path>
                </g>
            </g>
        </g>
    </g>
</svg>