<?xml version="1.0" encoding="UTF-8"?>
<svg width="13px" height="13px" viewBox="0 0 13 13" version="1.1" xmlns="http://www.w3.org/2000/svg" xmlns:xlink="http://www.w3.org/1999/xlink">
    <g id="页面-1" stroke="none" stroke-width="1" fill="none" fill-rule="evenodd">
        <g id="色版" transform="translate(-1710.000000, -648.000000)" fill="#0C61AA" fill-rule="nonzero">
            <path d="M1713.25,649.3 L1713.25,648 L1719.75,648 L1719.75,649.3 L1723,649.3 L1723,650.6 L1721.7,650.6 L1721.7,660.35 C1721.7,660.708985 1721.40899,661 1721.05,661 L1711.95,661 C1711.59101,661 1711.3,660.708985 1711.3,660.35 L1711.3,650.6 L1710,650.6 L1710,649.3 L1713.25,649.3 Z M1712.6,650.6 L1712.6,659.7 L1720.4,659.7 L1720.4,650.6 L1712.6,650.6 Z M1714.55,652.55 L1715.85,652.55 L1715.85,657.75 L1714.55,657.75 L1714.55,652.55 Z M1717.15,652.55 L1718.45,652.55 L1718.45,657.75 L1717.15,657.75 L1717.15,652.55 Z" id="shanchu_hover"></path>
        </g>
    </g>
</svg>
