<?xml version="1.0" encoding="UTF-8"?>
<svg width="22px" height="22px" viewBox="0 0 22 22" version="1.1" xmlns="http://www.w3.org/2000/svg" xmlns:xlink="http://www.w3.org/1999/xlink">
    <g id="页面-1" stroke="none" stroke-width="1" fill="none" fill-rule="evenodd">
        <g id="首页正常状态" transform="translate(-496.000000, -377.000000)">
            <g id="编组-3" transform="translate(480.000000, 253.000000)">
                <g id="编组-2" transform="translate(0.000000, 100.000000)">
                    <g id="search-line" transform="translate(16.000000, 24.000000)">
                        <polygon id="路径" points="0 0 22 0 22 22 0 22"></polygon>
                        <path d="M16.5284167,15.23225 L20.4545,19.1574167 L19.1574167,20.4545 L15.23225,16.5284167 C13.77176,17.6992027 11.9551677,18.3359964 10.0833333,18.3333333 C5.52933333,18.3333333 1.83333333,14.6373333 1.83333333,10.0833333 C1.83333333,5.52933333 5.52933333,1.83333333 10.0833333,1.83333333 C14.6373333,1.83333333 18.3333333,5.52933333 18.3333333,10.0833333 C18.3359964,11.9551677 17.6992027,13.77176 16.5284167,15.23225 Z M14.6895833,14.5520833 C15.8529368,13.3557285 16.5026281,11.7520602 16.5000079,10.0833333 C16.5000079,6.53766667 13.6280833,3.66666667 10.0833333,3.66666667 C6.53766667,3.66666667 3.66666667,6.53766667 3.66666667,10.0833333 C3.66666667,13.6280833 6.53766667,16.5000079 10.0833333,16.5000079 C11.7520602,16.5026281 13.3557285,15.8529368 14.5520833,14.6895833 L14.6895833,14.5520833 L14.6895833,14.5520833 Z" id="形状" stroke="#B6C3D6" stroke-width="1.2" fill="#B6C3D6" fill-rule="nonzero"></path>
                    </g>
                </g>
            </g>
        </g>
    </g>
</svg>
