<?xml version="1.0" encoding="UTF-8"?>
<svg width="37px" height="37px" viewBox="0 0 37 37" version="1.1" xmlns="http://www.w3.org/2000/svg" xmlns:xlink="http://www.w3.org/1999/xlink">
    <title>phone-fill</title>
    <g id="页面-1" stroke="none" stroke-width="1" fill="none" fill-rule="evenodd">
        <g id="首页_联系我们" transform="translate(-1568.000000, -1711.000000)" fill="#C9C9C9" fill-rule="nonzero">
            <g id="phone-fill" transform="translate(1568.000000, 1711.000000)">
                <path d="M32.375,25.3141667 L32.375,30.7655 C32.3753669,31.5753288 31.7490924,32.2473954 30.94125,32.3040833 C30.2675417,32.3503333 29.7171667,32.375 29.2916667,32.375 C15.6679583,32.375 4.625,21.3320417 4.625,7.70833333 C4.625,7.28283333 4.648125,6.73245833 4.69591667,6.05875 C4.75260461,5.25090759 5.42467116,4.62463315 6.2345,4.6249996 L11.6858333,4.6249996 C12.0820016,4.62459887 12.4139667,4.9245673 12.4535833,5.31875 C12.4890417,5.67333333 12.5214167,5.95545833 12.55225,6.16975 C12.8586319,8.30792326 13.4865043,10.3874907 14.4145833,12.3379583 C14.5610417,12.6462917 14.4654583,13.01475 14.1879583,13.2120833 L10.8610417,15.5893333 C12.8951989,20.3291125 16.6724291,24.1063428 21.4122083,26.1405 L23.786375,22.81975 C23.9866383,22.5397767 24.3584706,22.4430873 24.66975,22.5900417 C26.6199915,23.5163761 28.6990184,24.1426829 30.8364167,24.44775 C31.0507083,24.4785833 31.3328333,24.5125 31.6843333,24.5464167 C32.0779052,24.5867712 32.3770226,24.9185317 32.3765422,25.3141667 L32.375,25.3141667 Z" id="路径"></path>
            </g>
        </g>
    </g>
</svg>