<?xml version="1.0" encoding="UTF-8"?>
<svg width="59px" height="60px" viewBox="0 0 59 60" version="1.1" xmlns="http://www.w3.org/2000/svg" xmlns:xlink="http://www.w3.org/1999/xlink">
    <defs>
        <linearGradient x1="-10.2305995%" y1="-15.8112588%" x2="83.0329323%" y2="89.5439925%" id="linearGradient-1">
            <stop stop-color="#65A7FB" stop-opacity="0" offset="0%"></stop>
            <stop stop-color="#356EF5" stop-opacity="0.115015844" offset="100%"></stop>
        </linearGradient>
        <circle id="path-2" cx="29.5" cy="29.5" r="29.5"></circle>
        <filter x="-0.8%" y="-0.8%" width="101.7%" height="103.4%" filterUnits="objectBoundingBox" id="filter-3">
            <feOffset dx="0" dy="1" in="SourceAlpha" result="shadowOffsetOuter1"></feOffset>
            <feColorMatrix values="0 0 0 0 0.0745098039   0 0 0 0 0.149019608   0 0 0 0 0.321568627  0 0 0 0.0546089653 0" type="matrix" in="shadowOffsetOuter1"></feColorMatrix>
        </filter>
    </defs>
    <g id="知识图谱" stroke="none" stroke-width="1" fill="none" fill-rule="evenodd">
        <g id="首页_标注" transform="translate(-1017.000000, -714.000000)">
            <g id="编组-47" transform="translate(1017.000000, 714.000000)">
                <g id="椭圆形">
                    <use fill="black" fill-opacity="1" filter="url(#filter-3)" xlink:href="#path-2"></use>
                    <use fill="url(#linearGradient-1)" fill-rule="evenodd" xlink:href="#path-2"></use>
                </g>
                <path d="M21.9298942,29.5 C21.9298942,29.8475677 22.4515794,30.451985 23.6617951,31.0449793 C25.2274732,31.8122011 27.4485142,32.2725564 29.8511905,32.2725564 C32.2538328,32.2725564 34.4748511,31.8122011 36.0405519,31.0449793 C37.2508128,30.451985 37.7724868,29.8475677 37.7724868,29.5 L37.7724868,27.0919793 C35.9053241,28.2226278 33.0506021,28.9454887 29.8511905,28.9454887 C26.6518129,28.9454887 23.7970116,28.2226278 21.9298942,27.0919793 L21.9298942,29.5 Z M37.7724868,32.6370921 C35.9053241,33.7677406 33.0506021,34.4906015 29.8511905,34.4906015 C26.6518129,34.4906015 23.7970116,33.7677406 21.9298942,32.6370921 L21.9298942,35.0451128 C21.9298942,35.3926805 22.4515794,35.9970977 23.6617951,36.5900921 C25.2274732,37.3573139 27.4485142,37.8176692 29.8511905,37.8176692 C32.2538328,37.8176692 34.4748511,37.3573139 36.0405519,36.5900921 C37.2508128,35.9970977 37.7724868,35.3926805 37.7724868,35.0451128 L37.7724868,32.6370921 Z M19.6666667,35.0451128 L19.6666667,23.9548872 C19.6666667,21.1986556 24.2264364,18.9642857 29.8511905,18.9642857 C35.4759898,18.9642857 40.0357143,21.1986556 40.0357143,23.9548872 L40.0357143,35.0451128 C40.0357143,37.8013665 35.4759898,40.0357143 29.8511905,40.0357143 C24.2264364,40.0357143 19.6666667,37.8013665 19.6666667,35.0451128 Z M29.8511905,26.7274436 C32.2538328,26.7274436 34.4748511,26.2671105 36.0405519,25.4998998 C37.2508128,24.9068722 37.7724868,24.3024771 37.7724868,23.9548872 C37.7724868,23.6072974 37.2508128,23.0029023 36.0405519,22.4098746 C34.4748511,21.6426639 32.2538328,21.1823308 29.8511905,21.1823308 C27.4485142,21.1823308 25.2274732,21.6426639 23.6617951,22.4098746 C22.4515794,23.0029023 21.9298942,23.6072974 21.9298942,23.9548872 C21.9298942,24.3024771 22.4515794,24.9068722 23.6617951,25.4998998 C25.2274732,26.2671105 27.4485142,26.7274436 29.8511905,26.7274436 Z" id="形状" fill="#356EF5" fill-rule="nonzero"></path>
            </g>
        </g>
    </g>
</svg>
