<?xml version="1.0" encoding="UTF-8"?>
<svg width="59px" height="60px" viewBox="0 0 59 60" version="1.1" xmlns="http://www.w3.org/2000/svg" xmlns:xlink="http://www.w3.org/1999/xlink">
    <defs>
        <linearGradient x1="-10.2305995%" y1="-15.8112588%" x2="83.0329323%" y2="89.5439925%" id="linearGradient-1">
            <stop stop-color="#65A7FB" stop-opacity="0" offset="0%"></stop>
            <stop stop-color="#356EF5" stop-opacity="0.115015844" offset="100%"></stop>
        </linearGradient>
        <circle id="path-2" cx="29.5" cy="29.5" r="29.5"></circle>
        <filter x="-0.8%" y="-0.8%" width="101.7%" height="103.4%" filterUnits="objectBoundingBox" id="filter-3">
            <feOffset dx="0" dy="1" in="SourceAlpha" result="shadowOffsetOuter1"></feOffset>
            <feColorMatrix values="0 0 0 0 0.0745098039   0 0 0 0 0.149019608   0 0 0 0 0.321568627  0 0 0 0.0546089653 0" type="matrix" in="shadowOffsetOuter1"></feColorMatrix>
        </filter>
    </defs>
    <g id="知识图谱" stroke="none" stroke-width="1" fill="none" fill-rule="evenodd">
        <g id="首页_标注" transform="translate(-400.000000, -982.000000)">
            <g id="编组-16备份" transform="translate(400.000000, 982.000000)">
                <g id="编组-48" transform="translate(0.000000, 0.000000)">
                    <g id="椭圆形">
                        <use fill="black" fill-opacity="1" filter="url(#filter-3)" xlink:href="#path-2"></use>
                        <use fill="url(#linearGradient-1)" fill-rule="evenodd" xlink:href="#path-2"></use>
                    </g>
                    <g id="AI" transform="translate(24.965902, 24.843238)" fill="#356EF5" fill-rule="nonzero">
                        <path d="M2.2932,4.263 L2.5088,3.4692 C2.7244,2.7146 2.94,1.8914 3.1262,1.0976 L3.1654,1.0976 C3.381,1.8816 3.577,2.7146 3.8024,3.4692 L4.018,4.263 L2.2932,4.263 Z M4.8412,7.252 L6.3602,7.252 L4.0278,0 L2.3226,0 L0,7.252 L1.47,7.252 L1.9796,5.39 L4.3316,5.39 L4.8412,7.252 Z" id="形状"></path>
                        <polygon id="路径" points="7.2128 7.252 8.6632 7.252 8.6632 0 7.2128 0"></polygon>
                    </g>
                    <path d="M38.2951057,25.8759938 C37.6791623,21.1841986 33.6046185,17.5595238 28.6699134,17.5595238 C23.3096408,17.5595238 18.9642857,21.836268 18.9642857,27.1119048 C18.9642857,29.3715205 19.7614453,31.4478499 21.0940644,33.0834563 C22.0743449,34.2865787 22.6042965,35.6197329 22.6041994,37.0297837 L22.6038961,41.4404762 L33.5227273,41.4404762 L33.5239405,37.8583333 L35.9491342,37.8583333 C37.2892387,37.8583333 38.3755411,36.7891831 38.3755411,35.4702381 L38.3755411,31.9728726 L40.7525707,30.9707085 C41.1689421,30.7951835 41.2052169,30.3796549 41.0254201,30.1014418 L38.2951057,25.8759938 Z M21.3906926,27.1119048 C21.3906926,23.1551772 24.649709,19.947619 28.6699134,19.947619 C32.3390047,19.947619 35.4232105,22.6359098 35.8885953,26.1819566 L35.9578693,26.709057 L37.8292356,29.6051956 L35.9491342,30.3978044 L35.9491342,35.4702381 L31.0983828,35.4702381 L31.0971696,39.052381 L25.0304607,39.052381 L25.0306063,37.0300225 C25.0307398,35.072859 24.3140884,33.2182643 22.9870015,31.5894639 C21.9586902,30.3273556 21.3906926,28.7655413 21.3906926,27.1119048 Z" id="形状" fill="#356EF5" fill-rule="nonzero"></path>
                </g>
            </g>
        </g>
    </g>
</svg>
