<?xml version="1.0" encoding="UTF-8"?>
<svg width="59px" height="60px" viewBox="0 0 59 60" version="1.1" xmlns="http://www.w3.org/2000/svg" xmlns:xlink="http://www.w3.org/1999/xlink">
    <defs>
        <linearGradient x1="-10.2305995%" y1="-15.8112588%" x2="83.0329323%" y2="89.5439925%" id="linearGradient-1">
            <stop stop-color="#65A7FB" stop-opacity="0" offset="0%"></stop>
            <stop stop-color="#356EF5" stop-opacity="0.115015844" offset="100%"></stop>
        </linearGradient>
        <circle id="path-2" cx="29.5" cy="29.5" r="29.5"></circle>
        <filter x="-0.8%" y="-0.8%" width="101.7%" height="103.4%" filterUnits="objectBoundingBox" id="filter-3">
            <feOffset dx="0" dy="1" in="SourceAlpha" result="shadowOffsetOuter1"></feOffset>
            <feColorMatrix values="0 0 0 0 0.0745098039   0 0 0 0 0.149019608   0 0 0 0 0.321568627  0 0 0 0.0546089653 0" type="matrix" in="shadowOffsetOuter1"></feColorMatrix>
        </filter>
    </defs>
    <g id="知识图谱" stroke="none" stroke-width="1" fill="none" fill-rule="evenodd">
        <g id="首页_标注" transform="translate(-1017.000000, -982.000000)">
            <g id="编组-15备份-2" transform="translate(1017.000000, 982.000000)">
                <g id="椭圆形">
                    <use fill="black" fill-opacity="1" filter="url(#filter-3)" xlink:href="#path-2"></use>
                    <use fill="url(#linearGradient-1)" fill-rule="evenodd" xlink:href="#path-2"></use>
                </g>
                <g id="briefcase-2-line" transform="translate(18.261905, 18.964286)" fill="#356EF5" fill-rule="nonzero">
                    <path d="M5.44345238,4.3547619 L5.44345238,1.08869048 C5.44345238,0.4874285 5.93088088,0 6.53214286,0 L15.2416667,0 C15.8429504,0 16.3303571,0.4874285 16.3303571,1.08869048 L16.3303571,4.3547619 L20.685119,4.3547619 C21.2864028,4.3547619 21.7738095,4.8421904 21.7738095,5.44345238 L21.7738095,20.685119 C21.7738095,21.2864028 21.2864028,21.7738095 20.685119,21.7738095 L1.08869048,21.7738095 C0.4874285,21.7738095 0,21.2864028 0,20.685119 L0,5.44345238 C0,4.8421904 0.4874285,4.3547619 1.08869048,4.3547619 L5.44345238,4.3547619 Z M19.5964286,13.0642857 L2.17738095,13.0642857 L2.17738095,19.5964286 L19.5964286,19.5964286 L19.5964286,13.0642857 Z M19.5964286,6.53214286 L2.17738095,6.53214286 L2.17738095,10.8869048 L5.44345238,10.8869048 L5.44345238,8.70952381 L7.62083333,8.70952381 L7.62083333,10.8869048 L14.1529762,10.8869048 L14.1529762,8.70952381 L16.3303571,8.70952381 L16.3303571,10.8869048 L19.5964286,10.8869048 L19.5964286,6.53214286 Z M7.62083333,2.17738095 L7.62083333,4.3547619 L14.1529762,4.3547619 L14.1529762,2.17738095 L7.62083333,2.17738095 Z" id="形状"></path>
                </g>
            </g>
        </g>
    </g>
</svg>
