<?xml version="1.0" encoding="UTF-8"?>
<svg width="54px" height="60px" viewBox="0 0 54 60" version="1.1" xmlns="http://www.w3.org/2000/svg" xmlns:xlink="http://www.w3.org/1999/xlink">
    <title>编组 10</title>
    <defs>
        <linearGradient x1="50%" y1="0%" x2="50%" y2="100%" id="linearGradient-1">
            <stop stop-color="#F3F4F5" stop-opacity="0.949211067" offset="0%"></stop>
            <stop stop-color="#EDF0F1" offset="100%"></stop>
        </linearGradient>
        <path d="M50.9398891,11.2280574 L40.4634987,1.01508266 L39.4371659,0.0310739597 L5.33952931,0.0310739597 C2.46839558,0.0310739597 -2.84217094e-14,2.19071416 -2.84217094e-14,5.13756129 L-2.84217094e-14,51.8935127 C-2.84217094e-14,54.6435581 2.26053066,57 5.33952931,57 L46.6266927,57 C49.4978264,57 51.966222,54.8403598 51.966222,51.8935127 L51.966222,12.2094766 L50.9398891,11.2280574 Z" id="path-2"></path>
        <filter x="-1.7%" y="-1.5%" width="103.4%" height="104.8%" filterUnits="objectBoundingBox" id="filter-3">
            <feMorphology radius="0.3725" operator="dilate" in="SourceAlpha" result="shadowSpreadOuter1"></feMorphology>
            <feOffset dx="0" dy="1" in="shadowSpreadOuter1" result="shadowOffsetOuter1"></feOffset>
            <feComposite in="shadowOffsetOuter1" in2="SourceAlpha" operator="out" result="shadowOffsetOuter1"></feComposite>
            <feColorMatrix values="0 0 0 0 0.806241497   0 0 0 0 0.813375278   0 0 0 0 0.814752109  0 0 0 0.0749409282 0" type="matrix" in="shadowOffsetOuter1"></feColorMatrix>
        </filter>
    </defs>
    <g id="我的模型" stroke="none" stroke-width="1" fill="none" fill-rule="evenodd">
        <g id="我的模型_创建模型_上传文件效果备份" transform="translate(-843.000000, -316.000000)">
            <g id="正常" transform="translate(553.000000, 219.000000)">
                <g id="编组-10" transform="translate(291.000000, 98.000000)">
                    <g id="路径">
                        <use fill="black" fill-opacity="1" filter="url(#filter-3)" xlink:href="#path-2"></use>
                        <use stroke-opacity="0.177337433" stroke="#D5DDE0" stroke-width="0.745" fill="url(#linearGradient-1)" fill-rule="evenodd" xlink:href="#path-2"></use>
                    </g>
                    <path d="M43.5736771,12.0333909 L52,12.2198346 L39.3929946,0 L39.3826013,7.85653277 C39.3826013,10.1534163 41.2663769,12.0333908 43.5736771,12.0333909 Z" id="路径" fill="#FFFFFF" fill-rule="nonzero" opacity="0.565"></path>
                    <path d="M15.5898666,5.21006722 L20.7864888,5.21006722 L20.7864888,8.66186626 L15.5898666,8.66186626 L15.5898666,5.21006722 Z M10.3932444,8.66186626 L15.5898666,8.66186626 L15.5898666,12.1162548 L10.3932444,12.1162548 L10.3932444,8.66186626 Z M15.5898666,12.1162548 L20.7864888,12.1162548 L20.7864888,15.5680538 L15.5898666,15.5680538 L15.5898666,12.1162548 L15.5898666,12.1162548 Z M10.3932444,15.5680538 L15.5898666,15.5680538 L15.5898666,19.0198528 L10.3932444,19.0198528 L10.3932444,15.5680538 Z M15.5898666,19.0198528 L20.7864888,19.0198528 L20.7864888,22.4742413 L15.5898666,22.4742413 L15.5898666,19.0198528 Z M10.3932444,22.4742413 L15.5898666,22.4742413 L15.5898666,25.9260403 L10.3932444,25.9260403 L10.3932444,22.4742413 Z M10.3932444,29.3778394 L10.3932444,41.4630202 C10.3932444,42.4159549 11.1701394,43.1902144 12.1263179,43.1902144 L19.0534153,43.1902144 C20.0105654,43.1902144 20.7864888,42.4169232 20.7864888,41.4630202 L20.7864888,25.9260403 L15.5898666,25.9260403 L15.5898666,29.3778394 L10.3932444,29.3778394 L10.3932444,29.3778394 Z M19.0534153,36.2840269 L19.0534153,39.7358259 L12.1263179,39.7358259 L12.1263179,36.2840269 L19.0534153,36.2840269 L19.0534153,36.2840269 Z" id="形状" fill="#FFFFFF" fill-rule="nonzero"></path>
                </g>
            </g>
        </g>
    </g>
</svg>