<?xml version="1.0" encoding="UTF-8"?>
<svg width="24px" height="24px" viewBox="0 0 24 24" version="1.1" xmlns="http://www.w3.org/2000/svg" xmlns:xlink="http://www.w3.org/1999/xlink">
    <g id="页面-1" stroke="none" stroke-width="1" fill="none" fill-rule="evenodd">
        <g id="编组" fill-rule="nonzero">
            <rect id="矩形备份" fill="#D8D8D8" opacity="0" x="0" y="0" width="24" height="24"></rect>
            <path d="M2,12 C2.86934298,7.44867556 7.01586615,4 12.0000277,4 C16.9841154,4 21.1306663,7.44867556 22,12 C21.1306663,16.5512889 16.9841154,20 12.0000277,20 C7.01586615,20 2.86934298,16.5512889 2,12 Z M12.0000277,16.4444444 C14.5524766,16.4444444 16.621685,14.4545778 16.621685,12 C16.621685,9.54540444 14.5524766,7.55555556 12.0000277,7.55555556 C9.44752339,7.55555556 7.37833349,9.54540444 7.37833349,12 C7.37833349,14.4545778 9.44752339,16.4444444 12.0000277,16.4444444 Z M12.0000277,14.6666667 C10.4685029,14.6666667 9.22699639,13.4728 9.22699639,12 C9.22699639,10.5272 10.4685029,9.33333333 12.0000277,9.33333333 C13.5314601,9.33333333 14.7730221,10.5272 14.7730221,12 C14.7730221,13.4728 13.5314601,14.6666667 12.0000277,14.6666667 Z" id="形状" fill="#9CA4AB"></path>
        </g>
    </g>
</svg>
