<?xml version="1.0" encoding="UTF-8"?>
<svg width="388px" height="179px" viewBox="0 0 388 179" version="1.1" xmlns="http://www.w3.org/2000/svg" xmlns:xlink="http://www.w3.org/1999/xlink">
    <g id="数据要素所有版本" stroke="none" stroke-width="1" fill="none" fill-rule="evenodd">
        <g id="登录" transform="translate(-181.000000, -335.000000)">
            <g id="编组-4" transform="translate(181.000000, 335.000000)">
                <g id="编组">
                    <path d="M154.031068,36.5988542 C152.462592,34.9633979 150.37129,34.2210817 147.705988,34.2210817 L140.858082,34.2210817 L140.858082,59.8978769 L147.705988,59.8978769 C150.37129,59.8978769 152.462592,59.1529377 154.031068,57.5174814 C155.964692,55.4846367 156.017251,51.6681348 156.017251,46.8102919 C156.017251,41.9524489 155.964692,38.6316988 154.031068,36.5988542 M157.899699,61.3838207 C155.546985,63.6160153 152.14862,64.7058824 148.279989,64.7058824 L135.212121,64.7058824 L135.212121,29.4117647 L148.279989,29.4117647 C152.14862,29.4117647 155.546985,30.5029433 157.899699,32.7325148 C161.924624,36.5503282 161.663212,41.7058845 161.663212,46.8102919 C161.663212,51.9173222 161.924624,57.5673189 157.899699,61.3838207" id="Fill-1" fill="#E5FFFC"></path>
                    <path d="M180.075629,52.9752123 L174.117746,52.9752123 C171.113637,52.9752123 169.562574,54.3529892 169.562574,56.6996629 C169.562574,59.0449873 171.014295,60.370136 174.218412,60.370136 C176.170818,60.370136 177.622539,60.2176495 178.973593,58.8925007 C179.72462,58.127369 180.075629,56.9034282 180.075629,55.0668422 L180.075629,52.9752123 Z M180.176296,64.4009092 L180.176296,62.0555849 C178.323232,63.9421001 176.570836,64.7058824 173.417052,64.7058824 C170.263268,64.7058824 168.159862,63.9421001 166.608799,62.360558 C165.306754,60.9841306 164.606061,58.9937086 164.606061,56.8008708 C164.606061,52.4651245 167.559836,49.3546685 173.368043,49.3546685 L180.075629,49.3546685 L180.075629,47.5180825 C180.075629,44.2537904 178.474232,42.6722483 174.519088,42.6722483 C171.714989,42.6722483 170.36261,43.3361722 168.961223,45.1727581 L165.60743,41.9597447 C168.010187,39.1029832 170.51361,38.2352941 174.719097,38.2352941 C181.677025,38.2352941 185.181818,41.2458917 185.181818,47.110552 L185.181818,64.4009092 L180.176296,64.4009092 Z" id="Fill-3" fill="#E5FFFC"></path>
                    <path d="M194.159147,64.7058824 C189.830835,64.7058824 187.825826,61.3318184 187.825826,57.7096228 L187.825826,43.8654576 L185.181818,43.8654576 L185.181818,39.9951305 L187.825826,39.9951305 L187.825826,32.3529412 L192.473637,32.3529412 L192.473637,39.9951305 L196.939394,39.9951305 L196.939394,43.8654576 L192.473637,43.8654576 L192.473637,57.4601784 C192.473637,59.2968771 193.293484,60.389181 195.024809,60.389181 L196.939394,60.389181 L196.939394,64.7058824 L194.159147,64.7058824 Z" id="Fill-5" fill="#E5FFFC"></path>
                    <path d="M215.348356,52.9752123 L209.390473,52.9752123 C206.386365,52.9752123 204.835302,54.3529892 204.835302,56.6996629 C204.835302,59.0449873 206.287022,60.370136 209.49114,60.370136 C211.443545,60.370136 212.895266,60.2176495 214.24632,58.8925007 C214.997347,58.127369 215.348356,56.9034282 215.348356,55.0668422 L215.348356,52.9752123 Z M215.449023,64.4009092 L215.449023,62.0555849 C213.59596,63.9421001 211.843563,64.7058824 208.689779,64.7058824 C205.535995,64.7058824 203.43259,63.9421001 201.881527,62.360558 C200.579482,60.9841306 199.878788,58.9937086 199.878788,56.8008708 C199.878788,52.4651245 202.832563,49.3546685 208.64077,49.3546685 L215.348356,49.3546685 L215.348356,47.5180825 C215.348356,44.2537904 213.74696,42.6722483 209.791815,42.6722483 C206.987716,42.6722483 205.635338,43.3361722 204.23395,45.1727581 L200.880157,41.9597447 C203.282914,39.1029832 205.786338,38.2352941 209.991824,38.2352941 C216.949752,38.2352941 220.454545,41.2458917 220.454545,47.110552 L220.454545,64.4009092 L215.449023,64.4009092 Z" id="Fill-7" fill="#E5FFFC"></path>
                    <path d="M237.054119,34.2210817 L228.899009,34.2210817 L228.899009,45.2745105 L237.054119,45.2745105 C240.723717,45.2745105 243.221362,43.2429774 243.221362,39.7714033 C243.221362,36.3024523 240.723717,34.2210817 237.054119,34.2210817 L237.054119,34.2210817 Z M243.425004,64.7058824 L235.779673,49.8346401 L228.899009,49.8346401 L228.899009,64.7058824 L223.393939,64.7058824 L223.393939,29.4117647 L237.461403,29.4117647 C244.343415,29.4117647 248.726432,33.7253299 248.726432,39.7228774 C248.726432,44.7787587 245.566614,48.0011454 241.488385,49.0923239 L249.848485,64.7058824 L243.425004,64.7058824 Z" id="Fill-9" fill="#E5FFFC"></path>
                    <path d="M267.860479,45.8353325 C267.095835,43.8961892 265.372854,42.5710404 263.076391,42.5710404 C260.778661,42.5710404 259.008839,43.8961892 258.24293,45.8353325 C257.764394,47.0079947 257.668181,47.7744758 257.62134,49.3546685 L268.530175,49.3546685 C268.482069,47.7744758 268.339014,47.0079947 267.860479,45.8353325 L267.860479,45.8353325 Z M257.62134,52.9752123 C257.62134,57.413516 259.82159,60.2176495 263.792928,60.2176495 C266.51982,60.2176495 267.956692,59.4025885 269.679673,57.5660025 L272.790153,60.677808 C270.301263,63.3294549 267.956692,64.7058824 263.69798,64.7058824 C257.62134,64.7058824 252.787879,61.2891037 252.787879,51.4449489 C252.787879,43.0811283 256.85543,38.2352941 263.076391,38.2352941 C269.582194,38.2352941 273.363636,43.3361722 273.363636,50.6811666 L273.363636,52.9752123 L257.62134,52.9752123 Z" id="Fill-11" fill="#E5FFFC"></path>
                    <path d="M291.553047,64.7058824 L296.676713,64.7058824 L296.676713,40.1927502 L291.553047,40.1927502 L291.553047,64.7058824 Z M291.401491,33.9895811 L296.878788,33.9895811 L296.878788,29.5107445 L291.401491,29.5107445 L291.401491,33.9895811 Z M281.404095,44.032125 L281.404095,64.7058824 L276.277771,64.7058824 L276.277771,44.032125 L273.363636,44.032125 L273.363636,40.1927502 L276.277771,40.1927502 L276.277771,36.3520729 C276.277771,32.7601476 278.488631,29.4117647 283.262654,29.4117647 L286.428053,29.4117647 L286.428053,33.693944 L284.166674,33.693944 C282.256267,33.693944 281.404095,34.7762101 281.404095,36.5995225 L281.404095,40.1927502 L286.428053,40.1927502 L286.428053,44.032125 L281.404095,44.032125 Z" id="Fill-13" fill="#E5FFFC"></path>
                    <path d="M315.28775,64.7058824 L315.28775,50.5336286 C315.28775,46.910172 313.035993,45.3508479 310.182885,45.3508479 C307.327128,45.3508479 304.925696,46.9562843 304.925696,50.5336286 L304.925696,64.7058824 L299.818182,64.7058824 L299.818182,41.4531444 L304.825029,41.4531444 L304.825029,43.7915238 C306.577425,42.048964 309.029191,41.1764706 311.582948,41.1764706 C314.187038,41.1764706 316.339453,41.9567394 317.841507,43.2879289 C319.792588,45.0292752 320.393939,47.2317447 320.393939,49.8455844 L320.393939,64.7058824 L315.28775,64.7058824 Z" id="Fill-15" fill="#E5FFFC"></path>
                    <path d="M338.405595,45.8353325 C337.640904,43.8961892 335.917817,42.5710404 333.621212,42.5710404 C331.323341,42.5710404 329.553411,43.8961892 328.787454,45.8353325 C328.308889,47.0079947 328.212669,47.7744758 328.165826,49.3546685 L339.075332,49.3546685 C339.027223,47.7744758 338.88416,47.0079947 338.405595,45.8353325 L338.405595,45.8353325 Z M328.165826,52.9752123 C328.165826,57.413516 330.366211,60.2176495 334.337793,60.2176495 C337.064854,60.2176495 338.501814,59.4025885 340.224901,57.5660025 L343.335573,60.677808 C340.846529,63.3294549 338.501814,64.7058824 334.24284,64.7058824 C328.165826,64.7058824 323.333333,61.2891037 323.333333,51.4449489 C323.333333,43.0811283 327.399869,38.2352941 333.621212,38.2352941 C340.127416,38.2352941 343.909091,43.3361722 343.909091,50.6811666 L343.909091,52.9752123 L328.165826,52.9752123 Z" id="Fill-16" fill="#E5FFFC"></path>
                    <path d="M363.609912,46.910172 C362.470856,45.8556563 361.578224,45.3508479 359.84539,45.3508479 C357.120307,45.3508479 354.842195,47.3688681 354.842195,50.5785274 L354.842195,64.7058824 L349.787879,64.7058824 L349.787879,41.4531444 L354.741265,41.4531444 L354.741265,43.9747596 C356.03106,42.3244244 358.606716,41.1764706 361.430107,41.1764706 C363.857647,41.1764706 365.691409,41.7735036 367.424242,43.37894 L363.609912,46.910172 Z" id="Fill-17" fill="#E5FFFC"></path>
                    <path d="M376.449128,71.4860427 C375.933391,72.8828761 375.313961,73.8787301 374.54172,74.6266097 C373.096838,76.0221242 371.18943,76.4705882 369.178328,76.4705882 L367.063534,76.4705882 L367.063534,71.8857032 L368.404723,71.8857032 C370.621846,71.8857032 371.395451,71.2380684 372.167693,69.1936002 L373.612575,65.2537119 L364.484848,41.1764706 L370.054262,41.1764706 L376.294953,58.9738968 L382.380104,41.1764706 L388,41.1764706 L376.449128,71.4860427 Z" id="Fill-18" fill="#E5FFFC"></path>
                    <path d="M112.809858,56.6033612 L90.9579737,93.3895668 C88.5226335,97.4797804 84.0357837,100 79.1783387,100 L35.4613338,100 C33.0259935,100 30.6833021,99.3699451 28.6450281,98.2114156 C26.6067542,97.0798884 24.8993689,95.4340307 23.6816988,93.3895668 L21.0478253,88.9534659 L1.81657854,56.6033612 C-0.605526181,52.5131476 -0.605526181,47.4855666 1.81657854,43.3966388 L23.6816988,6.60914737 C26.1038035,2.52021962 30.6038888,0 35.4613338,0 L79.1783387,0 C84.0357837,0 88.5226335,2.52021962 90.9579737,6.60914737 L112.809858,43.3966388 C115.245199,47.4855666 115.245199,52.5131476 112.809858,56.6033612" id="Fill-19" fill="#F2FFFB"></path>
                    <g id="编组-2" transform="translate(14.696970, 24.748924)" fill="#48ADB1">
                        <path d="M0.877946803,3.16809264 C28.4490697,18.6539744 54.6137948,37.0565533 79.372122,58.3758292 C80.9216316,59.7098615 83.1528734,57.7940043 81.9702502,56.1444487 L67.4782372,35.9231937 C56.5874355,22.9652843 42.3881511,12.9997975 26.2945879,7.02000065 L2.25832437,0.0797509299 C0.278178604,-0.491977224 -0.910949669,2.16346657 0.877946803,3.16809264" id="Fill-20"></path>
                        <path d="M35.2535714,43.4497093 C35.3626193,44.7343514 35.0082136,46.0571511 34.1358302,47.1764432 L13.7029762,73.5294118 C11.6038037,72.4113916 9.84540598,70.7820585 8.5913549,68.7597012 L5.87878788,64.3715676 L24.3487794,40.5611727 C25.2211627,39.4304333 26.4479518,38.7054373 27.7837889,38.3989039 C29.4467696,38.017327 31.2596913,38.2971501 32.7454692,39.3019691 L32.7863622,39.3286795 C34.2857711,40.3334985 35.1308925,41.8598058 35.2535714,43.4497093" id="Fill-21"></path>
                        <path d="M54.4677762,19.1408063 L44.2889235,12.3483723 C42.7946679,11.3533502 40.7100389,11.6612438 39.6297233,13.038004 L23.704569,33.3402101 C23.4901345,33.6130589 23.4548478,33.9722681 23.6136379,34.2751554 L25.1282512,37.1851257 L34.8836636,43.6921949 L38.3539738,44.1102294 C38.7176981,44.1527838 39.0759937,44.0101014 39.289071,43.7372525 L55.2155825,23.4375497 C56.2945409,22.0595379 55.9606746,20.1370801 54.4677762,19.1408063" id="Fill-22"></path>
                    </g>
                    <path d="M90.9698716,55.7425966 L89.1475574,54.9350969 C88.327952,54.5712236 87.9580085,53.6104485 88.321724,52.7904874 L89.1288734,50.9673823 C89.4925889,50.1461751 90.4517016,49.7760711 91.2725526,50.1399444 L93.0948668,50.9474441 C93.9144722,51.3113174 94.2844157,52.2720925 93.9207002,53.0920536 L93.1135508,54.9151586 C92.7498353,55.7351197 91.789477,56.1064699 90.9698716,55.7425966" id="Fill-23" fill="#F4CF1F"></path>
                    <path d="M82.1516898,20.4484789 L80.3293756,19.6409792 C79.5097702,19.2771059 79.1398267,18.3163308 79.5035422,17.4963697 L80.3106916,15.6732647 C80.6744071,14.8520574 81.6335198,14.4819534 82.4543708,14.8458267 L84.276685,15.6533264 C85.0962904,16.0171997 85.4662339,16.9779748 85.1025184,17.797936 L84.295369,19.621041 C83.9316535,20.4410021 82.9725408,20.8123523 82.1516898,20.4484789" id="Fill-24" fill="#F4CF1F"></path>
                    <path d="M93.0020712,43.9771459 L89.1522718,42.2693956 C88.3295475,41.9040747 87.956946,40.9394772 88.3220455,40.116254 L90.0300111,36.2641198 C90.3951106,35.4408965 91.357873,35.0693201 92.1805973,35.434641 L96.0303967,37.1423914 C96.8543713,37.5064612 97.2244722,38.4710586 96.8593727,39.295533 L95.1539078,43.1464161 C94.7888083,43.9708904 93.8247955,44.3424669 93.0020712,43.9771459" id="Fill-25" fill="#F4CF1F"></path>
                </g>
                <text id="数据要素加工平台" fill-rule="nonzero" font-family="SourceHanSansSC-Bold, Source Han Sans SC" font-size="36" font-weight="bold" fill="#FFFFFF">
                    <tspan x="50" y="167">数据要素加工平台</tspan>
                </text>
            </g>
        </g>
    </g>
</svg>
