<?xml version="1.0" encoding="UTF-8"?>
<svg width="22px" height="22px" viewBox="0 0 22 22" version="1.1" xmlns="http://www.w3.org/2000/svg" xmlns:xlink="http://www.w3.org/1999/xlink">
    <title>编组 53</title>
    <defs>
        <polygon id="path-1" points="0 0 7.04231567 0 7.04231567 5.65418814 0 5.65418814"></polygon>
    </defs>
    <g id="页面-1" stroke="none" stroke-width="1" fill="none" fill-rule="evenodd">
        <g id="画板" transform="translate(-1728.000000, -1046.000000)">
            <g id="编组-53" transform="translate(1728.000000, 1046.000000)">
                <g id="编组" transform="translate(1.000000, 2.000000)">
                    <path d="M15.4962522,3.14834752 L15.4962522,11.9403406 C14.8476955,11.9795687 14.3320398,12.4846302 14.3320398,13.0926654 L14.3320398,13.5879199 L13.0561905,13.5879199 C12.7212801,13.5879199 12.4448461,13.8429024 12.4448461,14.1518236 L12.4448461,17.2998769 C11.1477327,17.7019647 9.52634097,17.9422367 7.76673223,17.9422367 C3.49795333,17.9422367 0.0425283079,16.5300258 0.0425283079,14.7843763 C0.0425283079,14.7500518 0.0478443464,14.7157272 0.0531603849,14.6863061 C0.0372122694,14.6715956 0.021264154,14.6666921 0.010632077,14.6519816 L0.010632077,3.14834752 L0.039632077,3.14828571 L0.0401360906,3.15982173 C0.0401360906,4.86531817 3.34485059,6.25470159 7.47786689,6.31697444 L7.76752964,6.31915311 C12.0357769,6.31915311 15.4954548,4.90498088 15.4954548,3.15982173 C15.4954548,3.15609171 15.495439,3.1523632 15.4954074,3.14863622 L15.4962522,3.14834752 Z" id="形状结合" fill-opacity="0.788679216" fill="#E57F3F"></path>
                    <path d="M15.4954548,3.15982173 C15.4954548,4.90498088 12.0357769,6.31915311 7.76752964,6.31915311 C3.50034554,6.31915311 0.0401360906,4.90498088 0.0401360906,3.15982173 C0.0401360906,1.41417223 3.50034554,0 7.76752964,0 C12.0357769,0 15.4954548,1.41417223 15.4954548,3.15982173" id="Fill-3备份" fill-opacity="0.471723223" fill="#E57F3F"></path>
                    <path d="M15.4962522,8.88074664 L15.4962522,9.99384337 C12.9599702,11.2623814 10.2440062,11.5629665 7.65509542,11.5629665 C5.07150072,11.5629665 2.50917017,11.0284839 0,9.99825653 L0,8.88074664 C5.01302429,11.0574147 10.2280581,11.0623182 15.4962522,8.88074664" id="Fill-5" fill="#E57F3F"></path>
                    <g transform="translate(12.957684, 12.345812)">
                        <mask id="mask-2" fill="white">
                            <use xlink:href="#path-1"></use>
                        </mask>
                        <g id="Clip-8"></g>
                        <path d="M2.31194514,1.08073357 C2.31194514,0.767399287 2.58891074,0.511926426 2.9286056,0.511926426 L4.11461379,0.511926426 C4.45430865,0.511926426 4.73074265,0.767399287 4.73074265,1.08073357 L4.73074265,1.54166349 L2.31194514,1.54166349 L2.31194514,1.08073357 Z M6.47387167,1.54166349 L5.28573707,1.54166349 L5.28573707,1.08073357 C5.28573707,0.484957122 4.75998086,0 4.11461379,0 L2.9286056,0 C2.28217532,0 1.75695072,0.484957122 1.75695072,1.08073357 L1.75695072,1.54166349 L0.568816118,1.54166349 C0.254638244,1.54166349 0,1.77703196 0,2.06682939 L0,5.12956163 C0,5.41935906 0.254638244,5.65423718 0.568816118,5.65423718 L6.47387167,5.65423718 C6.78804955,5.65423718 7.04268779,5.41935906 7.04268779,5.12956163 L7.04268779,2.06682939 C7.04268779,1.77703196 6.78804955,1.54166349 6.47387167,1.54166349 L6.47387167,1.54166349 Z" id="Fill-7" fill-opacity="0.685713335" fill="#E57F3F" mask="url(#mask-2)"></path>
                    </g>
                </g>
                <rect id="矩形备份-140" fill="#D8D8D8" opacity="0" x="0" y="0" width="22" height="22"></rect>
            </g>
        </g>
    </g>
</svg>