<?xml version="1.0" encoding="UTF-8"?>
<svg width="14px" height="14px" viewBox="0 0 14 14" version="1.1" xmlns="http://www.w3.org/2000/svg" xmlns:xlink="http://www.w3.org/1999/xlink">
    <g id="控件" stroke="none" stroke-width="1" fill="none" fill-rule="evenodd">
        <g id="下线审核中" transform="translate(-8.000000, -5.000000)">
            <g id="待审核备份" transform="translate(8.000000, 5.000000)">
                <polygon id="路径" points="0 0 14 0 14 14 0 14"></polygon>
                <path d="M7,12.8333333 C3.77825,12.8333333 1.16666667,10.22175 1.16666667,7 C1.16666667,3.77825 3.77825,1.16666667 7,1.16666667 C10.22175,1.16666667 12.8333333,3.77825 12.8333333,7 C12.8333333,10.22175 10.22175,12.8333333 7,12.8333333 Z M7,11.6666667 C9.57732883,11.6666667 11.6666667,9.57732883 11.6666667,7 C11.6666667,4.42267117 9.57732883,2.33333333 7,2.33333333 C4.42267117,2.33333333 2.33333333,4.42267117 2.33333333,7 C2.33333333,9.57732883 4.42267117,11.6666667 7,11.6666667 Z M7.16666667,4.16666667 C7.70333333,4.16666667 8.138,4.65380952 8.138,5.25488095 C8.138,5.55916667 8.02666667,5.83416667 7.847,6.03166667 L7.84966667,6.02630952 C7.77533333,6.14595238 7.717,6.3977381 7.717,6.59595238 C7.717,6.9252381 7.83233333,7.21845238 8.09266667,7.35345238 L9.16666667,7.35309524 L9.16666667,9.16666667 L5.16666667,9.16666667 L5.16666667,7.35309524 L6.20133333,7.35309524 L6.218,7.34452381 C6.46933333,7.20595238 6.634,6.91809524 6.634,6.59595238 C6.634,6.42059524 6.58833333,6.20309524 6.52633333,6.0727381 C6.31377618,5.8619607 6.19366674,5.56518619 6.19533333,5.25488095 C6.19533333,4.65380952 6.63,4.16666667 7.16666667,4.16666667 Z" id="形状" fill="#E57F3F" fill-rule="nonzero"></path>
            </g>
        </g>
    </g>
</svg>
