<?xml version="1.0" encoding="UTF-8"?>
<svg width="14px" height="14px" viewBox="0 0 14 14" version="1.1" xmlns="http://www.w3.org/2000/svg" xmlns:xlink="http://www.w3.org/1999/xlink">
    <g id="控件" stroke="none" stroke-width="1" fill="none" fill-rule="evenodd">
        <g id="已下线" transform="translate(-8.000000, -5.000000)">
            <g id="编组-2" transform="translate(8.000000, 5.000000)">
                <g id="编组" transform="translate(1.166667, 1.166667)" fill="#B0AFAF" fill-rule="nonzero">
                    <path d="M5.83333333,11.6666667 C2.61158333,11.6666667 0,9.05508333 0,5.83333333 C0,2.61158333 2.61158333,0 5.83333333,0 C9.05508333,0 11.6666667,2.61158333 11.6666667,5.83333333 C11.6666667,9.05508333 9.05508333,11.6666667 5.83333333,11.6666667 Z M5.83333333,10.5 C8.41066217,10.5 10.5,8.41066217 10.5,5.83333333 C10.5,3.2560045 8.41066217,1.16666667 5.83333333,1.16666667 C3.2560045,1.16666667 1.16666667,3.2560045 1.16666667,5.83333333 C1.16666667,8.41066217 3.2560045,10.5 5.83333333,10.5 Z" id="形状"></path>
                    <polygon id="路径" stroke="#B0AFAF" stroke-width="0.4" points="6.38571847 7.56435 8.45454966 5.55285 9 6.083175 6.00002314 9 3 6.083175 3.54545419 5.55285 5.61432781 7.56435 5.61432781 3 6.38571847 3"></polygon>
                </g>
                <polygon id="路径" points="0 0 14 0 14 14 0 14"></polygon>
            </g>
        </g>
    </g>
</svg>
