<?xml version="1.0" encoding="UTF-8"?>
<svg width="14px" height="14px" viewBox="0 0 14 14" version="1.1" xmlns="http://www.w3.org/2000/svg" xmlns:xlink="http://www.w3.org/1999/xlink">
    <g id="控件" stroke="none" stroke-width="1" fill="none" fill-rule="evenodd">
        <g id="已停止" transform="translate(-8.000000, -5.000000)">
            <g transform="translate(8.000000, 5.000000)">
                <polygon id="路径" points="0 0 14 0 14 14 0 14"></polygon>
                <path d="M7,12.8333333 C3.77825,12.8333333 1.16666667,10.22175 1.16666667,7 C1.16666667,3.77825 3.77825,1.16666667 7,1.16666667 C10.22175,1.16666667 12.8333333,3.77825 12.8333333,7 C12.8333333,10.22175 10.22175,12.8333333 7,12.8333333 Z M7,11.6666667 C9.57732883,11.6666667 11.6666667,9.57732883 11.6666667,7 C11.6666667,4.42267117 9.57732883,2.33333333 7,2.33333333 C4.42267117,2.33333333 2.33333333,4.42267117 2.33333333,7 C2.33333333,9.57732883 4.42267117,11.6666667 7,11.6666667 Z M4.08333333,6.41666667 L9.91666667,6.41666667 L9.91666667,7.58333333 L4.08333333,7.58333333 L4.08333333,6.41666667 Z" id="形状" fill="#E57F3F" fill-rule="nonzero"></path>
            </g>
        </g>
    </g>
</svg>
