<?xml version="1.0" encoding="UTF-8"?>
<svg width="14px" height="14px" viewBox="0 0 14 14" version="1.1" xmlns="http://www.w3.org/2000/svg" xmlns:xlink="http://www.w3.org/1999/xlink">
    <g id="控件" stroke="none" stroke-width="1" fill="none" fill-rule="evenodd">
        <g id="运行中" transform="translate(-8.000000, -5.000000)">
            <g transform="translate(8.000000, 5.000000)">
                <polygon id="路径" points="0 0 14 0 14 14 0 14"></polygon>
                <path d="M7,1.16666667 C7.3221661,1.16666667 7.58333333,1.4278339 7.58333333,1.75 L7.58333333,3.5 C7.58333333,3.8221661 7.3221661,4.08333333 7,4.08333333 C6.6778339,4.08333333 6.41666667,3.8221661 6.41666667,3.5 L6.41666667,1.75 C6.41666667,1.4278339 6.6778339,1.16666667 7,1.16666667 Z M7,9.91666667 C7.3221661,9.91666667 7.58333333,10.1778339 7.58333333,10.5 L7.58333333,12.25 C7.58333333,12.5721661 7.3221661,12.8333333 7,12.8333333 C6.6778339,12.8333333 6.41666667,12.5721661 6.41666667,12.25 L6.41666667,10.5 C6.41666667,10.1778339 6.6778339,9.91666667 7,9.91666667 Z M12.8333333,7 C12.8333333,7.3221661 12.5721661,7.58333333 12.25,7.58333333 L10.5,7.58333333 C10.1778339,7.58333333 9.91666667,7.3221661 9.91666667,7 C9.91666667,6.6778339 10.1778339,6.41666667 10.5,6.41666667 L12.25,6.41666667 C12.5721661,6.41666667 12.8333333,6.6778339 12.8333333,7 Z M4.08333333,7 C4.08333333,7.3221661 3.8221661,7.58333333 3.5,7.58333333 L1.75,7.58333333 C1.4278339,7.58333333 1.16666667,7.3221661 1.16666667,7 C1.16666667,6.6778339 1.4278339,6.41666667 1.75,6.41666667 L3.5,6.41666667 C3.8221661,6.41666667 4.08333333,6.6778339 4.08333333,7 Z M11.12475,11.12475 C10.8969584,11.3524728 10.5277082,11.3524728 10.2999167,11.12475 L9.06266667,9.8875 C8.84159954,9.65861232 8.84476112,9.29478388 9.0697725,9.0697725 C9.29478388,8.84476112 9.65861232,8.84159954 9.8875,9.06266667 L11.12475,10.2993333 C11.2342866,10.4087481 11.2958339,10.5572196 11.2958339,10.7120417 C11.2958339,10.8668637 11.2342866,11.0153352 11.12475,11.12475 L11.12475,11.12475 Z M4.93733333,4.93733333 C4.70954175,5.16505613 4.34029158,5.16505613 4.1125,4.93733333 L2.87583333,3.70066667 C2.64790081,3.47289523 2.64777023,3.10347419 2.87554167,2.87554167 C3.1033131,2.64760915 3.47273415,2.64747856 3.70066667,2.87525 L4.93733333,4.1125 C5.16505613,4.34029158 5.16505613,4.70954175 4.93733333,4.93733333 Z M2.87583333,11.12475 C2.64811054,10.8969584 2.64811054,10.5277082 2.87583333,10.2999167 L4.11308333,9.06266667 C4.25954344,8.91102533 4.47642877,8.85020932 4.68037927,8.90359333 C4.88432977,8.95697733 5.043606,9.11625356 5.09699001,9.32020406 C5.15037402,9.52415456 5.08955801,9.74103989 4.93791667,9.8875 L3.70125,11.12475 C3.59183518,11.2342866 3.44336373,11.2958339 3.28854167,11.2958339 C3.13371961,11.2958339 2.98524815,11.2342866 2.87583333,11.12475 L2.87583333,11.12475 Z M9.06266667,4.93733333 C8.83494387,4.70954175 8.83494387,4.34029158 9.06266667,4.1125 L10.2993333,2.87525 C10.5271048,2.64731749 10.8965258,2.64718692 11.1244583,2.87495835 C11.3523908,3.10272978 11.3525214,3.47215081 11.12475,3.70008333 L9.8875,4.93733333 C9.65970842,5.16505613 9.29045825,5.16505613 9.06266667,4.93733333 Z" id="形状" fill="#5B8FD9" fill-rule="nonzero"></path>
            </g>
        </g>
    </g>
</svg>
