<?xml version="1.0" encoding="UTF-8"?>
<svg width="14px" height="14px" viewBox="0 0 14 14" version="1.1" xmlns="http://www.w3.org/2000/svg" xmlns:xlink="http://www.w3.org/1999/xlink">
    <g id="控件" stroke="none" stroke-width="1" fill="none" fill-rule="evenodd">
        <g id="驳回发布备份" transform="translate(-8.000000, -5.000000)">
            <g id="编组-2" transform="translate(8.000000, 5.000000)">
                <g id="编组" transform="translate(1.166667, 1.166667)" fill="#4A5AD6" fill-rule="nonzero">
                    <path d="M5.83333333,11.6666667 C2.61158333,11.6666667 0,9.05508333 0,5.83333333 C0,2.61158333 2.61158333,0 5.83333333,0 C9.05508333,0 11.6666667,2.61158333 11.6666667,5.83333333 C11.6666667,9.05508333 9.05508333,11.6666667 5.83333333,11.6666667 Z M5.83333333,10.5 C8.41066217,10.5 10.5,8.41066217 10.5,5.83333333 C10.5,3.2560045 8.41066217,1.16666667 5.83333333,1.16666667 C3.2560045,1.16666667 1.16666667,3.2560045 1.16666667,5.83333333 C1.16666667,8.41066217 3.2560045,10.5 5.83333333,10.5 Z" id="形状"></path>
                    <polygon id="路径" stroke="#4A5AD6" stroke-width="0.4" points="8.9999625 6.95522008 9 3.83334374 8.25001875 3.83333333 8.24998125 6.26145976 5.40526862 6.26149445 5.40526862 4.38341936 3 6.60837461 5.40526862 8.83333333 5.40526862 6.95525477"></polygon>
                </g>
                <polygon id="路径" points="0 0 14 0 14 14 0 14"></polygon>
            </g>
        </g>
    </g>
</svg>
