<?xml version="1.0" encoding="UTF-8"?>
<svg width="26px" height="26px" viewBox="0 0 26 26" version="1.1" xmlns="http://www.w3.org/2000/svg" xmlns:xlink="http://www.w3.org/1999/xlink">
    <defs>
        <linearGradient x1="50%" y1="0%" x2="50%" y2="100%" id="linearGradient-1">
            <stop stop-color="#2554FF" offset="0%"></stop>
            <stop stop-color="#53A9FF" offset="100%"></stop>
        </linearGradient>
    </defs>
    <g id="页面-1" stroke="none" stroke-width="1" fill="none" fill-rule="evenodd">
        <g id="控件" transform="translate(-340.000000, -365.000000)">
            <g id="新建聊天" transform="translate(340.000000, 365.000000)">
                <rect id="矩形" fill="#D8D8D8" opacity="0" x="0" y="0" width="26" height="26"></rect>
                <path d="M14,5 L14,7 L4,7 L4,20.3851 L5.76282,19 L20,19 L20,12 L22,12 L22,20 C22,20.5523 21.5523,21 21,21 L6.45455,21 L2,24.5 L2,6 C2,5.44772 2.44772,5 3,5 L14,5 Z M19,5 L19,2 L21,2 L21,5 L24,5 L24,7 L21,7 L21,10 L19,10 L19,7 L16,7 L16,5 L19,5 Z" id="形状备份" fill="url(#linearGradient-1)" fill-rule="nonzero"></path>
            </g>
        </g>
    </g>
</svg>
