<?xml version="1.0" encoding="UTF-8"?>
<svg width="48px" height="48px" viewBox="0 0 48 48" version="1.1" xmlns="http://www.w3.org/2000/svg" xmlns:xlink="http://www.w3.org/1999/xlink">
<g id="页面-1" stroke="none" stroke-width="1" fill="none" fill-rule="evenodd">
    <g id="控件" transform="translate(-589.000000, -435.000000)">
        <g id="编组-9" transform="translate(589.000000, 435.000000)">
            <rect id="矩形" fill-opacity="0.130673282" fill="#2554FF" x="0" y="0" width="48" height="48" rx="24"></rect>
            <path d="M32.0432857,36 L15.9975714,36 C14.9,36 14.0067143,35.09 13.9658571,33.9627143 C13.6408571,27.4627143 14.0067143,23.26 15.0225714,21.44 C17.0115714,17.8872857 19.5317143,16.5 24,16.5 C28.6317143,16.5 30.7042857,17.5827143 32.775,21.18 C33.9134286,23.1727143 34.3591429,27.4627143 34.0341429,33.92 C33.9932857,35.09 33.1,36 32.0432857,36 Z M16.4432857,22.3072857 C15.9567143,23.1727143 15.1841429,25.8172857 15.589,33.8327143 C15.589,34.05 15.7932857,34.2227143 15.9975714,34.2227143 L32.0432857,34.2227143 C32.2475714,34.2227143 32.45,34.05 32.45,33.8327143 C32.8158571,25.8172857 31.9615714,23.0427143 31.4341429,22.09 C29.6475714,19.0572857 28.0615714,18.2327143 24,18.2327143 C20.1408571,18.2327143 18.1091429,19.36 16.4432857,22.3072857 Z" id="形状" fill="#0037FF" fill-rule="nonzero"></path>
            <path d="M28.4682857,31.6672857 L19.125,31.6672857 C17.7841429,31.6672857 16.6865714,30.4972857 16.6865714,29.0672857 L16.6865714,26.4672857 C16.6865714,25.0372857 17.7841429,23.8672857 19.125,23.8672857 L28.4682857,23.8672857 C29.8091429,23.8672857 30.9067143,25.0372857 30.9067143,26.4672857 L30.9067143,29.0672857 C30.9067143,30.4972857 29.811,31.6672857 28.4682857,31.6672857 Z M19.125,25.6 C18.6792857,25.6 18.3115714,25.99 18.3115714,26.4672857 L18.3115714,29.0672857 C18.3115714,29.5427143 18.6774286,29.9327143 19.125,29.9327143 L28.4682857,29.9327143 C28.914,29.9327143 29.2817143,29.5427143 29.2817143,29.0672857 L29.2817143,26.4672857 C29.2817143,25.99 28.9158571,25.6 28.4682857,25.6 L19.125,25.6 L19.125,25.6 Z M33.75,32.1 L33.75,30.4527143 C34.6841429,30.4527143 35.4567143,29.63 35.4567143,28.6327143 C35.4567143,27.6372857 34.6841429,26.8127143 33.75,26.8127143 L33.75,25.1672857 C35.5384286,25.1672857 37,26.7272857 37,28.6327143 C37,30.54 35.5384286,32.1 33.75,32.1 Z M14.25,25.1672857 L14.25,26.8127143 C13.3158571,26.8127143 12.5432857,27.6372857 12.5432857,28.6327143 C12.5432857,29.63 13.3158571,30.4527143 14.25,30.4527143 L14.25,32.1 C12.4615714,32.1 11,30.54 11,28.6327143 C11,26.7272857 12.4615714,25.1672857 14.25,25.1672857 Z M23.5932857,13.4672857 L25.2182857,13.4672857 L25.2182857,17.8 L23.5932857,17.8 L23.5932857,13.4672857 L23.5932857,13.4672857 Z" id="形状" fill="#0037FF" fill-rule="nonzero"></path>
            <path d="M24.2042857,14.7672857 C22.9841429,14.7672857 21.9682857,13.6827143 21.9682857,12.3827143 C21.9682857,11.0827143 22.9841429,10 24.2042857,10 C25.4244286,10 26.4402857,11.0827143 26.4402857,12.3827143 C26.4402857,13.6827143 25.4244286,14.7672857 24.2042857,14.7672857 Z M24.2042857,11.7327143 C23.8774286,11.7327143 23.5932857,12.0372857 23.5932857,12.3827143 C23.5932857,12.73 23.8774286,13.0327143 24.2024286,13.0327143 C24.5274286,13.0327143 24.8134286,12.73 24.8134286,12.3827143 C24.8134286,12.0372857 24.5274286,11.7327143 24.2024286,11.7327143 L24.2042857,11.7327143 Z" id="形状" fill="#0037FF" fill-rule="nonzero"></path>
        </g>
    </g>
</g>
</svg>
