<?xml version="1.0" encoding="UTF-8"?>
<svg width="20px" height="20px" viewBox="0 0 20 20" version="1.1" xmlns="http://www.w3.org/2000/svg" xmlns:xlink="http://www.w3.org/1999/xlink">
    <g id="产业经济前台" stroke="none" stroke-width="1" fill="none" fill-rule="evenodd">
        <g id="智能问答-限制提示" transform="translate(-416.000000, -913.000000)" fill="#EC8315" fill-rule="nonzero">
            <g id="编组-2备份-2" transform="translate(397.000000, 901.000000)">
                <path d="M29,32 C23.47715,32 19,27.5228 19,22 C19,16.47715 23.47715,12 29,12 C34.5228,12 39,16.47715 39,22 C39,27.5228 34.5228,32 29,32 Z M29,30 C33.4183,30 37,26.4183 37,22 C37,17.58172 33.4183,14 29,14 C24.58172,14 21,17.58172 21,22 C21,26.4183 24.58172,30 29,30 Z M28,25 L30,25 L30,27 L28,27 L28,25 Z M28,17 L30,17 L30,23 L28,23 L28,17 Z" id="形状备份"></path>
            </g>
        </g>
    </g>
</svg>
