<?xml version="1.0" encoding="UTF-8"?>
<svg width="24px" height="24px" viewBox="0 0 24 24" version="1.1" xmlns="http://www.w3.org/2000/svg" xmlns:xlink="http://www.w3.org/1999/xlink">
    <title>节点</title>
    <g id="知识图谱" stroke="none" stroke-width="1" fill="none" fill-rule="evenodd">
        <g id="切图" transform="translate(-192.000000, -339.000000)">
            <g id="节点" transform="translate(192.000000, 339.000000)">
                <rect id="矩形" fill="#D8D8D8" opacity="0" x="0" y="0" width="24" height="24"></rect>
                <path d="M10.2222222,4 C10.7131556,4 11.1111111,4.402948 11.1111111,4.9 L11.1111111,8.5 C11.1111111,8.997052 10.7131556,9.4 10.2222222,9.4 L8.44444444,9.4 L8.44444444,11.2 L12.8888889,11.2 L12.8888889,10.3 C12.8888889,9.802948 13.2868444,9.4 13.7777778,9.4 L19.1111111,9.4 C19.6020444,9.4 20,9.802948 20,10.3 L20,13.9 C20,14.39707 19.6020444,14.8 19.1111111,14.8 L13.7777778,14.8 C13.2868444,14.8 12.8888889,14.39707 12.8888889,13.9 L12.8888889,13 L8.44444444,13 L8.44444444,18.4 L12.8888889,18.4 L12.8888889,17.5 C12.8888889,17.00293 13.2868444,16.6 13.7777778,16.6 L19.1111111,16.6 C19.6020444,16.6 20,17.00293 20,17.5 L20,21.1 C20,21.59707 19.6020444,22 19.1111111,22 L13.7777778,22 C13.2868444,22 12.8888889,21.59707 12.8888889,21.1 L12.8888889,20.2 L7.55555556,20.2 C7.06464,20.2 6.66666667,19.79707 6.66666667,19.3 L6.66666667,9.4 L4.88888889,9.4 C4.39797333,9.4 4,8.997052 4,8.5 L4,4.9 C4,4.402948 4.39797333,4 4.88888889,4 L10.2222222,4 Z M18.2222222,18.4 L14.6666667,18.4 L14.6666667,20.2 L18.2222222,20.2 L18.2222222,18.4 Z M18.2222222,11.2 L14.6666667,11.2 L14.6666667,13 L18.2222222,13 L18.2222222,11.2 Z M9.33333333,5.8 L5.77777778,5.8 L5.77777778,7.6 L9.33333333,7.6 L9.33333333,5.8 Z" id="形状备份-2" fill="#A6A9AE" fill-rule="nonzero"></path>
            </g>
        </g>
    </g>
</svg>