<?xml version="1.0" encoding="UTF-8"?>
<svg width="22px" height="22px" viewBox="0 0 22 22" version="1.1" xmlns="http://www.w3.org/2000/svg" xmlns:xlink="http://www.w3.org/1999/xlink">
    <g id="知识图谱" stroke="none" stroke-width="1" fill="none" fill-rule="evenodd">
        <g id="全部图谱说明" transform="translate(-988.000000, -96.000000)" fill="#FFFFFF" fill-rule="nonzero">
            <g id="编组-28" transform="translate(424.000000, 86.000000)">
                <path d="M585.549287,29.7993977 L578.832949,23.1272441 C579.87518,21.7887225 580.438933,20.1521797 580.438933,18.4308428 C580.438933,16.3703949 579.629552,14.4383962 578.165698,12.9816855 C576.701911,11.5249749 574.751899,10.7234043 572.680348,10.7234043 C570.608797,10.7234043 568.658785,11.52754 567.194998,12.9816855 C565.728611,14.4358147 564.921713,16.3703949 564.921713,18.4308428 C564.921713,20.4887257 565.731194,22.425871 567.194998,23.8800001 C568.658785,25.3367108 570.606215,26.1383012 572.680348,26.1383012 C574.413118,26.1383012 576.057948,25.5782188 577.405361,24.5454134 L584.121698,31.2149362 C584.141395,31.2345028 584.164898,31.2499588 584.190553,31.2606465 C584.216374,31.2711697 584.24385,31.2765957 584.271822,31.2765957 C584.299629,31.2765957 584.327271,31.2711697 584.352926,31.2606465 C584.378747,31.2499588 584.402085,31.2345028 584.421781,31.2149362 L585.549287,30.0973366 C585.568983,30.07777 585.584708,30.054586 585.595301,30.0289356 C585.606059,30.0034497 585.611521,29.9759906 585.611521,29.9483671 C585.611521,29.9205793 585.606059,29.8932846 585.595301,29.8676343 C585.584708,29.8421483 585.568983,29.8189643 585.549287,29.7993977 L585.549287,29.7993977 Z M576.776907,22.5003722 C575.680353,23.5871256 574.226911,24.1857328 572.680348,24.1857328 C571.133802,24.1857328 569.680343,23.5871256 568.583789,22.5003722 C567.489817,21.4110537 566.887234,19.9672011 566.887234,18.4308428 C566.887234,16.894501 567.489817,15.4480669 568.583789,14.3613135 C569.680343,13.2745601 571.133802,12.6759529 572.680348,12.6759529 C574.226911,12.6759529 575.682935,13.2719951 576.776907,14.3613135 C577.870879,15.450632 578.473462,16.894501 578.473462,18.4308428 C578.473462,19.9672011 577.870879,21.4136187 576.776907,22.5003722 Z" id="形状"></path>
            </g>
        </g>
    </g>
</svg>
