<svg width="342" height="226" viewBox="0 0 342 226" fill="none" xmlns="http://www.w3.org/2000/svg">
<rect width="342" height="226" fill="white"/>
<path d="M87.9926 68.6839L105.266 85.957C113.076 93.7675 113.076 106.431 105.266 114.241L91.2223 128.285L73.9491 111.012C66.1386 103.201 66.1386 90.538 73.9491 82.7275L87.9926 68.6839Z" fill="url(#paint0_linear_5986_29296)"/>
<path d="M270.111 63.9851L279.267 73.1414C287.078 80.9519 287.078 93.6152 279.267 101.426L272.506 108.187L263.35 99.0306C255.539 91.2201 255.539 78.5568 263.35 70.7463L270.111 63.9851Z" fill="url(#paint1_linear_5986_29296)"/>
<path d="M268.205 82.2023L238.045 112.363C230.234 120.173 217.571 120.173 209.761 112.363L184.155 86.7568L214.315 56.5966C222.125 48.7861 234.789 48.7861 242.599 56.5966L268.205 82.2023Z" fill="url(#paint2_linear_5986_29296)"/>
<ellipse cx="171" cy="157.391" rx="139" ry="57.9431" fill="url(#paint3_diamond_5986_29296)"/>
<path d="M172.741 51.0434L213.212 58.0669C214.339 58.662 215.044 59.834 215.041 61.1099L215.257 103.51C215.262 105.693 214.035 107.691 212.089 108.673L172.41 128.864C171.143 129.509 169.644 129.509 168.377 128.864L128.698 108.673C126.752 107.691 125.526 105.693 125.53 103.51L125.357 61.1099C125.354 59.834 126.059 58.662 127.186 58.0669L167.599 51.0434C169.207 50.1896 171.133 50.1896 172.741 51.0434Z" fill="#DFDFDF"/>
<path d="M213.212 58.0624C214.339 58.6576 215.044 59.8298 215.041 61.106L215.257 103.514C215.262 105.697 214.035 107.695 212.089 108.678L172.41 128.872C171.785 129.187 171.094 129.35 170.394 129.348L170.178 50.4031C171.071 50.4031 171.951 50.6203 172.741 51.0378L213.212 58.0624ZM170.379 129.319C169.679 129.321 168.988 129.158 168.363 128.843L128.684 108.649C126.737 107.666 125.511 105.668 125.515 103.485L125.357 61.106C125.357 60.5534 125.491 60.0091 125.746 59.5193L170.178 73.1792L170.379 129.319Z" fill="#F0F0F0"/>
<path fill-rule="evenodd" clip-rule="evenodd" d="M201.495 34.0476C201.897 34.772 201.635 35.685 200.911 36.0869C199.539 36.8477 198.213 37.6531 196.94 38.4982C196.249 38.9562 195.318 38.7679 194.86 38.0776C194.402 37.3873 194.591 36.4564 195.281 35.9984C196.622 35.1085 198.016 34.2619 199.456 33.4635C200.18 33.0616 201.093 33.3231 201.495 34.0476ZM189.751 42.1428C190.327 42.7384 190.311 43.6881 189.715 44.2639C187.402 46.4998 185.445 48.875 183.918 51.3291C183.48 52.0324 182.555 52.2477 181.852 51.8099C181.148 51.3721 180.933 50.447 181.371 49.7437C183.045 47.0541 185.165 44.4903 187.63 42.1069C188.226 41.5312 189.175 41.5472 189.751 42.1428ZM179.354 57.8403C180.167 57.9998 180.697 58.7881 180.537 59.601C180.25 61.0631 180.129 62.5299 180.185 63.9932C180.217 64.821 179.572 65.518 178.744 65.5499C177.917 65.5819 177.22 64.9367 177.188 64.1089C177.122 62.4015 177.264 60.7018 177.593 59.0234C177.753 58.2105 178.541 57.6808 179.354 57.8403Z" fill="url(#paint4_linear_5986_29296)"/>
<path d="M170.35 73.3626L214.974 59.7473C215.23 60.2356 215.364 60.7781 215.364 61.3288L215.581 103.598C215.585 105.774 214.354 107.766 212.401 108.745L172.589 128.873C171.962 129.187 171.269 129.35 170.566 129.348L170.35 73.3626ZM164.049 114.05L151.997 108.299C150.453 107.568 149.485 106.003 149.526 104.302C149.536 103.644 149.889 103.038 150.457 102.702C151.025 102.365 151.728 102.345 152.315 102.649L164.049 108.601V114.05ZM164.049 122.403L157.431 119.341C155.88 118.621 154.901 117.06 154.931 115.358C154.946 114.703 155.3 114.102 155.867 113.768C156.435 113.435 157.135 113.416 157.72 113.719L164.049 116.997V122.403Z" fill="#DFDFDF"/>
<path d="M214.57 59.4253L229.877 75.9007C230.292 76.3464 230.476 76.9603 230.375 77.5611C230.273 78.1619 229.898 78.6811 229.359 78.9655L188.172 100.693C187.113 101.254 185.807 101.009 185.022 100.103L170.147 73.0517L214.57 59.4253Z" fill="url(#paint5_linear_5986_29296)"/>
<path d="M125.701 59.103L110.444 75.7592C110.011 76.2075 109.815 76.836 109.917 77.4523C110.02 78.0686 110.407 78.5994 110.962 78.8823L151.752 101.004C152.812 101.578 154.127 101.338 154.919 100.425L170.146 72.7952L125.701 59.103Z" fill="url(#paint6_linear_5986_29296)"/>
<path fill-rule="evenodd" clip-rule="evenodd" d="M207.321 23.6239L204.301 40.7496L239.386 18.2061L207.321 23.6239Z" fill="#E9E9E9"/>
<path fill-rule="evenodd" clip-rule="evenodd" d="M239.386 18.2067L222.724 42.7651L211.087 31.4354L239.386 18.2067Z" fill="url(#paint7_linear_5986_29296)"/>
<path fill-rule="evenodd" clip-rule="evenodd" d="M239.386 18.2064L207.163 27.3253L197.495 16.8128L239.386 18.2064Z" fill="url(#paint8_linear_5986_29296)"/>
<path d="M101.052 161.294H102.294V162.464H106.758V163.526H102.294V164.732H106.11V165.776H102.294V167H107.208V168.08H96.192V167H101.052V165.776H97.416V164.732H101.052V163.526H96.696V162.464H101.052V161.294ZM98.802 172.616V173.93H104.616V172.616H98.802ZM104.616 171.608V170.276H98.802V171.608H104.616ZM98.802 174.938V177.8H97.56V169.214H105.858V176.234C105.858 177.206 105.336 177.692 104.328 177.692H102.816L102.51 176.54L103.95 176.594C104.382 176.594 104.616 176.378 104.616 175.964V174.938H98.802ZM92.934 161.492C94.14 162.392 95.148 163.31 95.976 164.228L95.094 165.128C94.338 164.264 93.312 163.346 92.016 162.374L92.934 161.492ZM90.756 166.802H94.572V174.704C95.112 174.2 95.67 173.642 96.282 173.012L96.624 174.38C95.616 175.424 94.536 176.36 93.42 177.17L92.916 176.018C93.186 175.766 93.33 175.496 93.33 175.19V168.044H90.756V166.802ZM116.064 161.33H117.342V163.076H124.326V164.3H117.342V166.586H123.084V172.364H111.168V166.586H116.064V161.33ZM121.788 171.158V167.81H112.464V171.158H121.788ZM111.132 173.156L112.23 173.678C111.546 175.244 110.772 176.594 109.872 177.746L108.81 176.972C109.71 175.91 110.484 174.632 111.132 173.156ZM115.056 173.678C115.416 174.866 115.74 176.162 116.028 177.548L114.732 177.836C114.48 176.36 114.192 175.064 113.85 173.93L115.056 173.678ZM118.818 173.498C119.358 174.722 119.826 176.072 120.222 177.512L118.944 177.8C118.584 176.27 118.134 174.92 117.594 173.75L118.818 173.498ZM122.508 173.138C123.66 174.65 124.524 175.964 125.136 177.08L124.056 177.836C123.426 176.612 122.562 175.28 121.464 173.804L122.508 173.138ZM128.448 163.958H134.334V161.42H135.666V163.958H141.48V165.2H135.666V168.188H142.956V169.448H135.666V175.802H139.914V171.014H141.156V177.836H139.914V177.008H128.862V171.014H130.104V175.802H134.334V169.448H127.062V168.188H134.334V165.2H128.448V163.958ZM146.268 161.582C147.474 162.518 148.482 163.454 149.31 164.39L148.41 165.29C147.672 164.39 146.664 163.436 145.386 162.428L146.268 161.582ZM156.726 177.476C155.754 177.476 154.674 177.458 153.522 177.44C152.37 177.422 151.416 177.314 150.696 177.116C149.994 176.9 149.364 176.45 148.806 175.802C148.554 175.496 148.32 175.352 148.104 175.352C147.654 175.352 146.934 176.18 145.926 177.872L144.954 176.99C145.926 175.46 146.772 174.524 147.528 174.2V168.728H144.972V167.54H148.734V174.272C148.878 174.38 149.022 174.524 149.166 174.686C149.598 175.208 150.066 175.586 150.57 175.82C151.128 176.072 151.938 176.216 153.018 176.252C153.954 176.27 155.142 176.288 156.546 176.288C157.41 176.288 158.292 176.27 159.192 176.252C160.056 176.234 160.74 176.216 161.226 176.18L160.902 177.476H156.726ZM155.178 161.24H156.438V163.544H160.038V164.786H156.438V167.36H160.668V168.62H157.644V173.444C157.644 173.768 157.824 173.948 158.22 173.948H158.868C159.12 173.948 159.3 173.894 159.444 173.786C159.66 173.624 159.804 172.904 159.876 171.626L161.01 172.004C160.902 173.498 160.704 174.38 160.434 174.668C160.182 174.92 159.75 175.064 159.138 175.082H157.842C157.374 175.082 157.032 174.956 156.798 174.704C156.546 174.452 156.438 174.128 156.438 173.732V168.62H154.62C154.566 169.862 154.386 170.942 154.08 171.842C153.612 173.21 152.514 174.344 150.822 175.226L149.976 174.2C151.434 173.48 152.388 172.58 152.856 171.5C153.162 170.708 153.342 169.736 153.396 168.62H150.498V167.36H155.178V164.786H152.262C151.938 165.47 151.578 166.082 151.182 166.658L150.048 165.956C151.02 164.606 151.722 163.112 152.154 161.492L153.396 161.744C153.216 162.374 153.018 162.968 152.802 163.544H155.178V161.24ZM169.434 162.014H177.966V163.094C177.444 164.498 176.508 165.668 175.14 166.64C176.292 167.18 177.696 167.558 179.334 167.774L178.866 168.926C176.886 168.656 175.23 168.134 173.934 167.378C172.674 168.062 171.162 168.602 169.416 169.034L168.804 167.936C170.334 167.576 171.666 167.144 172.782 166.604C171.648 165.686 170.838 164.552 170.334 163.184H169.434V162.014ZM171.612 163.184C172.098 164.3 172.872 165.236 173.934 165.956C175.158 165.182 176.04 164.264 176.598 163.184H171.612ZM164.916 177.638H163.35L163.08 176.378C163.548 176.414 164.016 176.45 164.466 176.45C164.934 176.45 165.186 176.198 165.186 175.73V171.41C164.466 171.662 163.746 171.896 163.026 172.112L162.702 170.816C163.548 170.618 164.376 170.384 165.186 170.114V165.992H162.99V164.75H165.186V161.348H166.518V164.75H168.534V165.992H166.518V169.628C167.202 169.34 167.886 169.016 168.57 168.674V169.988C167.904 170.312 167.22 170.618 166.518 170.906V176.072C166.518 177.116 165.978 177.638 164.916 177.638ZM169.74 170.33H173.34V168.746H174.6V170.33H178.146V171.518H174.6V173.57H179.064V174.776H174.6V177.62H173.34V174.776H168.822V173.57H173.34V171.518H169.74V170.33ZM188.334 170.528H184.374V166.568H193.662V170.528H189.666V171.968H195.39V175.244C195.39 176.324 194.832 176.864 193.752 176.864H192.312L191.97 175.622L193.338 175.676C193.842 175.676 194.112 175.424 194.112 174.956V173.156H189.666V177.836H188.334V173.156H183.978V176.972H182.7V171.968H188.334V170.528ZM188.334 161.204H189.666V163.958H191.952C192.51 163.166 192.996 162.338 193.392 161.456L194.598 161.906C194.184 162.698 193.752 163.382 193.32 163.958H196.488V167.594H195.156V165.182H182.844V167.612H181.512V163.958H184.446C184.104 163.274 183.69 162.626 183.222 162.032L184.446 161.582C184.914 162.248 185.346 163.04 185.724 163.958H188.334V161.204ZM192.42 169.43V167.666H185.634V169.43H192.42ZM201.834 167.576V170.726H206.406V167.576H201.834ZM201.762 171.914C201.564 174.218 200.898 176.126 199.746 177.638L198.756 176.756C199.908 175.154 200.502 173.12 200.538 170.654V162.014H213.948V175.496C213.948 176.756 213.318 177.386 212.058 177.386H209.988L209.646 176.108C210.366 176.144 211.032 176.18 211.644 176.18C212.292 176.18 212.634 175.802 212.634 175.046V171.914H207.738V177.188H206.406V171.914H201.762ZM212.634 170.726V167.576H207.738V170.726H212.634ZM212.634 166.37V163.274H207.738V166.37H212.634ZM206.406 163.274H201.834V166.37H206.406V163.274ZM219.528 164.552H216.936V163.31H223.434V164.552H220.842V172.814C221.796 172.544 222.732 172.238 223.65 171.878V173.174C221.598 173.93 219.402 174.542 217.062 175.046L216.738 173.75C217.674 173.588 218.61 173.39 219.528 173.174V164.552ZM226.746 161.348H228.078V164.984H232.65C232.65 170.6 232.56 174.074 232.38 175.406C232.164 176.882 231.138 177.638 229.32 177.638C228.996 177.638 228.456 177.602 227.682 177.566L227.376 176.36C228.042 176.396 228.618 176.414 229.122 176.414C230.292 176.414 230.976 175.892 231.156 174.866C231.264 173.93 231.336 171.05 231.372 166.244H228.078C227.988 171.536 226.548 175.406 223.776 177.872L222.714 176.954C225.342 174.722 226.674 171.14 226.746 166.244H223.884V164.984H226.746V161.348ZM237.222 171.626V173.3H241.38V171.626H237.222ZM241.38 170.546V168.8H237.222V170.546H241.38ZM237.222 174.398V177.836H235.98V167.666H242.622V176.126C242.622 177.17 242.118 177.71 241.11 177.71H239.67L239.346 176.486L240.696 176.54C241.146 176.54 241.38 176.306 241.38 175.856V174.398H237.222ZM248.94 169.16H245.97C244.872 169.16 244.332 168.566 244.332 167.396V161.348H245.61V163.688C247.59 163.382 249.192 163.058 250.434 162.734L250.848 163.868C249.336 164.246 247.59 164.588 245.61 164.876V167.126C245.61 167.702 245.844 167.99 246.33 167.99H248.688C249.048 167.99 249.3 167.882 249.444 167.702C249.624 167.45 249.732 166.784 249.804 165.668L251.01 166.046C250.884 167.522 250.65 168.422 250.326 168.746C250.038 169.016 249.57 169.16 248.94 169.16ZM245.61 173.228V175.802C245.61 176.162 245.826 176.36 246.294 176.36H248.742C249.102 176.36 249.372 176.27 249.516 176.108C249.714 175.856 249.84 175.19 249.912 174.092L251.082 174.452C250.974 175.91 250.74 176.792 250.398 177.116C250.11 177.386 249.642 177.53 248.994 177.53H245.934C244.854 177.53 244.332 177.044 244.332 176.09V169.844H245.61V172.058C247.41 171.878 249.012 171.572 250.434 171.14L250.848 172.292C249.228 172.76 247.482 173.066 245.61 173.228ZM241.326 162.572C242.406 164.03 243.252 165.29 243.846 166.37L242.784 167.126C242.586 166.73 242.37 166.334 242.136 165.938C240.21 166.244 237.906 166.46 235.242 166.604L234.882 165.524C235.116 165.452 235.314 165.326 235.476 165.182C236.592 164.03 237.528 162.734 238.248 161.294L239.472 161.672C238.644 163.274 237.744 164.534 236.736 165.452C238.248 165.362 239.85 165.218 241.542 165.002C241.164 164.426 240.75 163.814 240.318 163.202L241.326 162.572Z" fill="#C8C8C8"/>
<defs>
<linearGradient id="paint0_linear_5986_29296" x1="89.7024" y1="68.6838" x2="89.7023" y2="103.769" gradientUnits="userSpaceOnUse">
<stop stop-color="#F3F3F3"/>
<stop offset="1" stop-color="#F3F3F3" stop-opacity="0"/>
</linearGradient>
<linearGradient id="paint1_linear_5986_29296" x1="271.379" y1="63.9851" x2="271.379" y2="90.0056" gradientUnits="userSpaceOnUse">
<stop stop-color="#F3F3F3"/>
<stop offset="1" stop-color="#F3F3F3" stop-opacity="0"/>
</linearGradient>
<linearGradient id="paint2_linear_5986_29296" x1="226.314" y1="48.8953" x2="226.314" y2="91.0544" gradientUnits="userSpaceOnUse">
<stop stop-color="#EAEAEA"/>
<stop offset="1" stop-color="#EAEAEA" stop-opacity="0"/>
</linearGradient>
<radialGradient id="paint3_diamond_5986_29296" cx="0" cy="0" r="1" gradientUnits="userSpaceOnUse" gradientTransform="translate(170.683 115.596) rotate(90) scale(82.9567 199.005)">
<stop stop-color="#F1F1F1"/>
<stop offset="1" stop-color="#F1F1F1" stop-opacity="0"/>
</radialGradient>
<linearGradient id="paint4_linear_5986_29296" x1="191.159" y1="39.2869" x2="178.746" y2="61.3028" gradientUnits="userSpaceOnUse">
<stop stop-color="#F3F3F3"/>
<stop offset="1" stop-color="#E0E0E0"/>
</linearGradient>
<linearGradient id="paint5_linear_5986_29296" x1="214.579" y1="59.3371" x2="186.371" y2="103.636" gradientUnits="userSpaceOnUse">
<stop stop-color="#FBFBFB"/>
<stop offset="1" stop-color="#F1F1F1"/>
</linearGradient>
<linearGradient id="paint6_linear_5986_29296" x1="111.48" y1="80.394" x2="170.28" y2="71.6534" gradientUnits="userSpaceOnUse">
<stop stop-color="#F2F2F2"/>
<stop offset="1" stop-color="#F9F9F9"/>
</linearGradient>
<linearGradient id="paint7_linear_5986_29296" x1="221.432" y1="28.7892" x2="224.08" y2="40.5623" gradientUnits="userSpaceOnUse">
<stop stop-color="#F7F7F7"/>
<stop offset="1" stop-color="#EEEEEE"/>
</linearGradient>
<linearGradient id="paint8_linear_5986_29296" x1="197.323" y1="17.7884" x2="209.55" y2="26.1549" gradientUnits="userSpaceOnUse">
<stop stop-color="#F4F4F4"/>
<stop offset="1" stop-color="#F3F3F3"/>
</linearGradient>
</defs>
</svg>
