<svg width="26" height="26" viewBox="0 0 26 26" fill="none" xmlns="http://www.w3.org/2000/svg">
<g id="Frame">
<path id="Vector" d="M22.2775 14.6317C21.7191 14.2881 21.3755 13.6868 21.3755 12.9995C21.3755 12.3123 21.7191 11.7539 22.2775 11.3673C22.6641 11.1096 22.8359 10.6371 22.707 10.1646C22.4923 9.43441 22.1916 8.74716 21.848 8.10287C21.6332 7.71629 21.1607 7.45857 20.6883 7.58743C20.044 7.71629 19.3997 7.54448 18.9272 7.072C18.4547 6.59952 18.2829 5.95522 18.4118 5.31093C18.4977 4.8814 18.2829 4.40891 17.8963 4.1512C17.252 3.76462 16.5218 3.5069 15.8346 3.29214C15.405 3.16328 14.8896 3.33509 14.6319 3.72167C14.2883 4.28006 13.6869 4.62368 12.9997 4.62368C12.3124 4.62368 11.754 4.28006 11.3675 3.72167C11.1098 3.33509 10.6373 3.16328 10.1648 3.29214C9.43458 3.5069 8.74734 3.80757 8.10304 4.1512C7.71647 4.36596 7.45875 4.83844 7.58761 5.31093C7.71647 5.95522 7.54466 6.64247 7.07217 7.072C6.59969 7.54448 5.9554 7.71629 5.3111 7.58743C4.88157 7.50153 4.40909 7.71629 4.15137 8.10287C3.76479 8.74716 3.50708 9.47736 3.29231 10.1646C3.16345 10.5941 3.33527 11.1096 3.72184 11.3673C4.28023 11.7109 4.62385 12.3123 4.62385 12.9995C4.62385 13.6868 4.28023 14.2451 3.72184 14.6317C3.33527 14.8894 3.16345 15.3619 3.29231 15.8344C3.50708 16.5646 3.80775 17.2519 4.15137 17.8961C4.36614 18.2827 4.83862 18.4975 5.3111 18.4116C5.9554 18.2827 6.64264 18.4545 7.07217 18.927C7.54466 19.3995 7.71647 20.0438 7.58761 20.6881C7.5017 21.1176 7.71647 21.5901 8.10304 21.8478C8.74734 22.2344 9.47754 22.4921 10.1648 22.7069C10.5943 22.8357 11.1098 22.6639 11.3675 22.2773C11.7111 21.719 12.3124 21.3753 12.9997 21.3753C13.6869 21.3753 14.2453 21.719 14.6319 22.2773C14.8467 22.578 15.1903 22.7498 15.5339 22.7498C15.6198 22.7498 15.7487 22.7498 15.8346 22.7069C16.5648 22.4921 17.252 22.1914 17.8963 21.8478C18.2829 21.6331 18.5406 21.1606 18.4118 20.6881C18.2829 20.0438 18.4547 19.3565 18.9272 18.927C19.3997 18.4545 20.044 18.2827 20.6883 18.4116C21.1178 18.4975 21.5903 18.2827 21.848 17.8961C22.2346 17.2519 22.4923 16.5217 22.707 15.8344C22.8359 15.3619 22.6641 14.8894 22.2775 14.6317Z" fill="white"/>
<path id="Vector_2" d="M13 8.9375C10.7745 8.9375 8.9375 10.7745 8.9375 13C8.9375 15.2255 10.7745 17.0625 13 17.0625C15.2255 17.0625 17.0625 15.2255 17.0625 13C17.0625 10.7745 15.2255 8.9375 13 8.9375ZM13 16.0027C11.3397 16.0027 9.99728 14.6603 9.99728 13C9.99728 11.3397 11.3397 9.99728 13 9.99728C14.6603 9.99728 16.0027 11.3397 16.0027 13C16.0027 14.6603 14.6603 16.0027 13 16.0027Z" fill="#02ADEC"/>
</g>
</svg>
