<?xml version="1.0" encoding="UTF-8"?>
<svg width="16px" height="16px" viewBox="0 0 16 16" version="1.1" xmlns="http://www.w3.org/2000/svg" xmlns:xlink="http://www.w3.org/1999/xlink">
    <g id="页面-1" stroke="none" stroke-width="1" fill="none" fill-rule="evenodd">
        <g id="色版" transform="translate(-564.000000, -720.000000)">
            <g id="moxinng_click" transform="translate(564.000000, 720.000000)">
                <polygon id="路径" points="0 0 16 0 16 16 0 16"></polygon>
                <path d="M3.33333333,7.33333333 L12.6666667,7.33333333 L12.6666667,3.33333333 L3.33333333,3.33333333 L3.33333333,7.33333333 Z M14,2.66666667 L14,13.3333333 C14,13.7015232 13.7015232,14 13.3333333,14 L2.66666667,14 C2.29847683,14 2,13.7015232 2,13.3333333 L2,2.66666667 C2,2.29847683 2.29847683,2 2.66666667,2 L13.3333333,2 C13.7015232,2 14,2.29847683 14,2.66666667 Z M12.6666667,8.66666667 L3.33333333,8.66666667 L3.33333333,12.6666667 L12.6666667,12.6666667 L12.6666667,8.66666667 Z M4.66666667,10 L6.66666667,10 L6.66666667,11.3333333 L4.66666667,11.3333333 L4.66666667,10 Z M4.66666667,4.66666667 L6.66666667,4.66666667 L6.66666667,6 L4.66666667,6 L4.66666667,4.66666667 Z" id="形状" fill="#0C61AA" fill-rule="nonzero"></path>
            </g>
        </g>
    </g>
</svg>