<?xml version="1.0" encoding="UTF-8"?>
<svg width="14px" height="15px" viewBox="0 0 14 15" version="1.1" xmlns="http://www.w3.org/2000/svg" xmlns:xlink="http://www.w3.org/1999/xlink">
    <g id="页面-1" stroke="none" stroke-width="1" fill="none" fill-rule="evenodd">
        <g id="管理-模型管理_应用" transform="translate(-1330.000000, -331.000000)" fill="#618AAE" fill-rule="nonzero" stroke="#618AAE" stroke-width="0.5">
            <g id="点击更多" transform="translate(1308.000000, 276.000000)">
                <g id="编组-9" transform="translate(23.000000, 0.000000)">
                    <g id="编组-6" transform="translate(0.000000, 52.000000)">
                        <g id="模型备份-2" transform="translate(0.000000, 4.000000)">
                            <path d="M11.553897,2.91614331 L6.4726038,0.114035425 C6.19604616,-0.0386977801 5.8529305,-0.0378981299 5.5773496,0.115768001 L0.466614634,2.9599908 C0.194522102,3.11139126 0.0245689199,3.39220178 0.0234526428,3.69287029 L5.38597883e-06,9.34293268 C-0.00110545239,9.64773272 0.169684937,9.93147529 0.446103043,10.0839419 L5.5273962,12.8860498 C5.66497735,12.9620166 5.81930265,13 5.97348842,13 C6.12879047,13 6.28423205,12.9614835 6.4226504,12.8844505 L11.5333854,10.0402277 C11.8054779,9.88882728 11.975152,9.60801675 11.9764078,9.30734824 L11.9999946,3.65741913 C12.0011055,3.35248582 11.8303151,3.06860997 11.553897,2.91614331 Z M6.02204647,0.859442769 L10.7003636,3.43938115 L6.05483711,6.00092757 C6.03558133,6.01158958 6.0181395,6.02438398 5.99986047,6.03611219 C5.98144189,6.02438398 5.9641396,6.0114563 5.94488382,6.00092757 L1.34735723,3.46576961 L6.02204647,0.859442769 Z M0.901265013,9.34613128 L0.918567307,4.22317171 L5.49404742,6.74633492 C5.51623343,6.75859622 5.53227991,6.77712145 5.54344268,6.79817891 C5.54218687,6.81803689 5.53939618,6.83749505 5.53953571,6.85748631 L5.54930314,9.19712978 L5.53814037,11.8984817 L0.901265013,9.34613128 L0.901265013,9.34613128 Z M6.4617201,11.8708938 L6.45055733,9.19726305 L6.46032475,6.85775286 C6.46046429,6.8377616 6.45753406,6.81817017 6.45641778,6.79831219 C6.46758055,6.77712145 6.48362703,6.75859622 6.50567351,6.74633492 L11.0967815,4.2146421 L11.0796187,9.29628641 L6.4617201,11.8708938 Z" id="形状"></path>
                        </g>
                    </g>
                </g>
            </g>
        </g>
    </g>
</svg>