<?xml version="1.0" encoding="UTF-8"?>
<svg width="16px" height="16px" viewBox="0 0 16 16" version="1.1" xmlns="http://www.w3.org/2000/svg" xmlns:xlink="http://www.w3.org/1999/xlink">
    <g id="页面-1" stroke="none" stroke-width="1" fill="none" fill-rule="evenodd">
        <g id="色版" transform="translate(-530.000000, -744.000000)">
            <g id="moxinng_normal" transform="translate(530.000000, 744.000000)">
                <polygon id="路径" points="0 0 16 0 16 16 0 16"></polygon>
                <g id="编组-18" transform="translate(2.000000, 1.154753)" fill="#000000" fill-rule="nonzero">
                    <path d="M5.50050027,0.133993013 L0.499968102,3.02129719 C0.190585001,3.1999348 -4.37508046e-17,3.53005175 0,3.88730418 L0,9.66085788 C-3.68898144e-16,10.0181622 0.190639861,10.3483188 0.500093791,10.5269374 L5.50062597,13.413274 C5.8100053,13.5918496 6.19114659,13.5918336 6.50051095,13.4132321 L11.4999788,10.5269514 C11.8093918,10.3483218 12,10.0181881 12,9.66091374 L12,3.88724831 C12,3.53002582 11.8094467,3.1999318 11.5001045,3.02128323 L6.50063664,0.13403492 C6.19120839,-0.0446633333 5.80994349,-0.0446793089 5.50050027,0.133993013 Z M1.50943396,8.78994883 L1.50943396,4.75921254 C1.50943396,4.402003 1.69997359,4.07191889 2.00929811,3.89326558 L5.50031534,1.87699555 C5.80985477,1.69821812 6.19128165,1.69826085 6.50078103,1.87710761 L9.98973477,3.89322832 C10.29895,4.07191087 10.4894049,4.4019337 10.4894049,4.75906321 L10.4894049,8.79009812 C10.4894049,9.14736621 10.2988034,9.47749515 9.98939886,9.65612703 L6.50044521,11.6704427 C6.1911165,11.8490309 5.81001998,11.8490735 5.50065129,11.6705547 L2.00963397,9.65608968 C1.70012019,9.4774871 1.50943396,9.14729692 1.50943396,8.78994883 Z" id="Fill-1"></path>
                    <path d="M8.7707018,5.53711102 L8.37716467,4.94653241 C8.2545009,4.76292617 8.00632074,4.7131502 7.82234236,4.83525512 L6.22187882,5.90021874 C6.08768223,5.98951443 5.913,5.98953612 5.77878123,5.90027377 L4.17724823,4.83517239 C3.99321677,4.71321746 3.74509589,4.76301359 3.62237089,4.94653241 L3.22883376,5.53711102 C3.106124,5.72081004 3.15584652,5.96914718 3.33968414,6.09164895 C3.33975349,6.09169517 3.33982285,6.09174136 3.34003069,6.09157946 L5.06723234,7.2409569 C5.17867287,7.31511572 5.24563135,7.44010283 5.24563135,7.57396291 L5.24563135,10.1062629 C5.24563135,10.3271768 5.42471745,10.5062629 5.64563136,10.5062629 L6.35506531,10.5062629 C6.57597921,10.5062629 6.75506531,10.3271768 6.75506531,10.1062629 L6.75506531,7.57283279 C6.75506531,7.43895564 6.82204074,7.31395497 6.9335044,7.23980011 L8.65947821,6.09153938 C8.84357216,5.9694228 8.89347976,5.72112279 8.77111504,5.53719392 C8.77106,5.53711118 8.77100492,5.53702845 8.7707018,5.53711102 Z" id="Fill-2"></path>
                </g>
            </g>
        </g>
    </g>
</svg>