<?xml version="1.0" encoding="UTF-8"?>
<svg width="16px" height="16px" viewBox="0 0 16 16" version="1.1" xmlns="http://www.w3.org/2000/svg" xmlns:xlink="http://www.w3.org/1999/xlink">
    <g id="页面-1" stroke="none" stroke-width="1" fill="none" fill-rule="evenodd">
        <g id="色版" transform="translate(-499.000000, -744.000000)">
            <g id="yonghu_click" transform="translate(499.000000, 744.000000)">
                <polygon id="路径" points="0 0 16 0 16 16 0 16"></polygon>
                <path d="M10,2.66666667 L3.33333333,2.66666667 L3.33333333,13.3333333 L12.6666667,13.3333333 L12.6666667,5.33333333 L10,5.33333333 L10,2.66666667 Z M2,1.99466667 C2,1.62933333 2.298,1.33333333 2.666,1.33333333 L10.6666667,1.33333333 L14.0000165,4.66666667 L14.0000165,13.9953333 C14.001242,14.1721456 13.9321925,14.3422091 13.8080425,14.4681094 C13.6838925,14.5940098 13.5148124,14.6654333 13.338,14.6666667 L2.662,14.6666667 C2.2977037,14.6641281 2.0029056,14.3696269 2,14.0053333 L2,1.99466667 L2,1.99466667 Z M8,7.66666667 C7.07952542,7.66666667 6.33333333,6.92047458 6.33333333,6 C6.33333333,5.07952542 7.07952542,4.33333333 8,4.33333333 C8.92047457,4.33333333 9.66666663,5.07952543 9.66666663,6 C9.66666663,6.92047457 8.92047457,7.66666667 8,7.66666667 L8,7.66666667 Z M5.018,11.3333333 C5.18533621,9.81265236 6.47013986,8.66147355 8,8.66147355 C9.52986014,8.66147355 10.8146638,9.81265236 10.982,11.3333333 L5.018,11.3333333 Z" id="形状" fill="#000000"></path>
            </g>
        </g>
    </g>
</svg>