<?xml version="1.0" encoding="UTF-8"?>
<svg width="42px" height="42px" viewBox="0 0 42 42" version="1.1" xmlns="http://www.w3.org/2000/svg" xmlns:xlink="http://www.w3.org/1999/xlink">
    <defs>
        <linearGradient x1="0%" y1="0%" x2="61.6348776%" y2="389.723965%" id="linearGradient-1">
            <stop stop-color="#FF6400" stop-opacity="0.113642339" offset="0%"></stop>
            <stop stop-color="#FFFFFF" stop-opacity="0" offset="100%"></stop>
        </linearGradient>
    </defs>
    <g id="产业经济前台" stroke="none" stroke-width="1" fill="none" fill-rule="evenodd">
        <g id="v" transform="translate(-743.000000, -173.000000)">
            <g id="编组-22" transform="translate(743.000000, 173.000000)">
                <rect id="矩形" fill="url(#linearGradient-1)" x="0" y="0" width="42" height="42" rx="8"></rect>
                <rect id="矩形" fill-opacity="0.117613466" fill="#F6BD35" x="12.139576" y="14" width="18" height="15"></rect>
                <path d="M12.139576,13 L30.139576,13 C30.691876,13 31.139576,13.44772 31.139576,14 L31.139576,30 C31.139576,30.5523 30.691876,31 30.139576,31 L12.139576,31 C11.587296,31 11.139576,30.5523 11.139576,30 L11.139576,14 C11.139576,13.44772 11.587296,13 12.139576,13 Z M13.139576,15 L13.139576,29 L29.139576,29 L29.139576,15 L13.139576,15 Z M16.139576,23 L18.139576,23 L18.139576,27 L16.139576,27 L16.139576,23 Z M20.139576,17 L22.139576,17 L22.139576,27 L20.139576,27 L20.139576,17 Z M24.139576,20 L26.139576,20 L26.139576,27 L24.139576,27 L24.139576,20 Z" id="形状" fill="#FBA64B" fill-rule="nonzero"></path>
            </g>
        </g>
    </g>
</svg>
