<?xml version="1.0" encoding="UTF-8"?>
<svg width="24px" height="24px" viewBox="0 0 24 24" version="1.1" xmlns="http://www.w3.org/2000/svg" xmlns:xlink="http://www.w3.org/1999/xlink">
    <g id="后台" stroke="none" stroke-width="1" fill="none" fill-rule="evenodd">
        <g id="画板" transform="translate(-1066.000000, -611.000000)">
            <g id="编组-21" transform="translate(1066.000000, 611.000000)">
                <rect id="矩形备份-15" fill-opacity="0" fill="#D8D8D8" x="0" y="0" width="24" height="24"></rect>
                <path d="M6,20 C6,16.6336762 8.68629,13.9047619 12,13.9047619 C15.313725,13.9047619 18,16.6336762 18,20 L16.5,20 C16.5,17.4752762 14.485275,15.4285714 12,15.4285714 C9.5147175,15.4285714 7.5,17.4752762 7.5,20 L6,20 Z M12,13.1428571 C9.51375,13.1428571 7.5,11.0971429 7.5,8.57142857 C7.5,6.04571429 9.51375,4 12,4 C14.48625,4 16.5,6.04571429 16.5,8.57142857 C16.5,11.0971429 14.48625,13.1428571 12,13.1428571 Z M12,11.6190476 C13.6575,11.6190476 15,10.2552381 15,8.57142857 C15,6.88761905 13.6575,5.52380952 12,5.52380952 C10.3425,5.52380952 9,6.88761905 9,8.57142857 C9,10.2552381 10.3425,11.6190476 12,11.6190476 Z" id="形状" fill="#646464" fill-rule="nonzero"></path>
            </g>
        </g>
    </g>
</svg>
