<?xml version="1.0" encoding="UTF-8"?>
<svg width="14px" height="18px" viewBox="0 0 14 18" version="1.1" xmlns="http://www.w3.org/2000/svg" xmlns:xlink="http://www.w3.org/1999/xlink">
    <g id="产业经济前台" stroke="none" stroke-width="1" fill="none" fill-rule="evenodd">
        <g id="智能问答-问政策" transform="translate(-340.000000, -103.000000)" fill="#3C73F6" fill-rule="nonzero">
            <g id="map-pin-range-fill" transform="translate(340.000000, 103.000000)">
                <path d="M6.125,13.6612286 C2.67197875,13.2394286 0,10.3539429 0,6.85714286 C0,3.07004571 3.134005,0 7,0 C10.8660125,0 14,3.07004571 14,6.85714286 C14,10.3539429 11.3280125,13.2394286 7.875,13.6612286 L7.875,15.4385143 C11.3280125,15.5176286 14,16.0586571 14,16.7142857 C14,17.4243429 10.8660125,18 7,18 C3.134005,18 0,17.4243429 0,16.7142857 C0,16.0586571 2.67197875,15.5176286 6.125,15.4385143 L6.125,13.6612286 Z M7,8.57142857 C7.966525,8.57142857 8.75,7.80394286 8.75,6.85714286 C8.75,5.91036857 7.966525,5.14285714 7,5.14285714 C6.033475,5.14285714 5.25,5.91036857 5.25,6.85714286 C5.25,7.80394286 6.033475,8.57142857 7,8.57142857 Z" id="形状"></path>
            </g>
        </g>
    </g>
</svg>
