<?xml version="1.0" encoding="UTF-8"?>
<svg width="384px" height="99px" viewBox="0 0 384 99" version="1.1" xmlns="http://www.w3.org/2000/svg" xmlns:xlink="http://www.w3.org/1999/xlink">
    <title>编组 25</title>
    <defs>
        <linearGradient x1="-10.6182583%" y1="-13.3905632%" x2="50%" y2="100%" id="linearGradient-1">
            <stop stop-color="#FD4932" stop-opacity="0.490876311" offset="0%"></stop>
            <stop stop-color="#FD4932" stop-opacity="0.837730141" offset="100%"></stop>
        </linearGradient>
        <linearGradient x1="-10.3945748%" y1="-13.3905632%" x2="50%" y2="100%" id="linearGradient-2">
            <stop stop-color="#FD4932" stop-opacity="0.490876311" offset="0%"></stop>
            <stop stop-color="#FD4932" stop-opacity="0.837730141" offset="100%"></stop>
        </linearGradient>
    </defs>
    <g id="页面-1" stroke="none" stroke-width="1" fill="none" fill-rule="evenodd">
        <g id="画板" transform="translate(-2534.000000, -1771.000000)">
            <g id="编组-25" transform="translate(2534.000000, 1771.000000)">
                <rect id="矩形备份-115" fill="#D8D8D8" opacity="0.228457496" x="0" y="89" width="3" height="9" rx="1.5"></rect>
                <rect id="矩形备份-114" fill="#D8D8D8" opacity="0.228457496" x="42" y="89" width="3" height="9" rx="1.5"></rect>
                <rect id="矩形备份-113" fill="#D8D8D8" opacity="0.228457496" x="85" y="89" width="3" height="9" rx="1.5"></rect>
                <rect id="矩形备份-112" fill="#D8D8D8" opacity="0.228457496" x="127" y="89" width="3" height="9" rx="1.5"></rect>
                <rect id="矩形备份-111" fill="#D8D8D8" opacity="0.228457496" x="254" y="89" width="3" height="9" rx="1.5"></rect>
                <rect id="矩形备份-110" fill="#D8D8D8" opacity="0.228457496" x="296" y="89" width="3" height="9" rx="1.5"></rect>
                <rect id="矩形备份-109" fill="#D8D8D8" opacity="0.228457496" x="339" y="89" width="3" height="9" rx="1.5"></rect>
                <rect id="矩形备份-108" fill="#D8D8D8" opacity="0.228457496" x="381" y="89" width="3" height="9" rx="1.5"></rect>
                <rect id="矩形备份-107" fill="#D8D8D8" opacity="0.228457496" x="169" y="90" width="3" height="9" rx="1.5"></rect>
                <rect id="矩形备份-106" fill="#D8D8D8" opacity="0.228457496" x="212" y="90" width="3" height="9" rx="1.5"></rect>
                <rect id="矩形备份-105" fill="#F3F3F3" x="0" y="86" width="384" height="6" rx="3"></rect>
                <rect id="矩形备份-104" fill="#FE6450" x="0" y="86" width="342" height="6" rx="3"></rect>
                <path d="M311.9145,6.723 L342.5,0 L373.0855,6.723 C374.788199,7.09739623 376,8.5911262 376,10.3164545 L376,47.0867727 C376,54.4726854 372.26728,61.3696895 366.054222,65.4664091 L342.5,81 L318.945778,65.4664091 C312.733817,61.3704132 309.001787,54.4750627 309,47.0904545 L309,10.3164545 C309,8.5911262 310.211801,7.09739623 311.9145,6.723 Z" id="形状备份-17" fill="url(#linearGradient-1)" fill-rule="nonzero" opacity="0.12831915"></path>
                <path d="M317.280377,12.5972609 L342.5,7.04347826 L367.719623,12.5972609 C369.123603,12.9065447 370.122807,14.1404956 370.122807,15.5657668 L370.122807,45.941247 C370.122807,52.0426532 367.04495,57.7401783 361.921903,61.1244249 L342.5,73.9565217 L323.078097,61.1244249 C317.955955,57.7407761 314.878666,52.044617 314.877193,45.9442885 L314.877193,15.5657668 C314.877193,14.1404956 315.876397,12.9065447 317.280377,12.5972609 Z" id="形状备份-16" fill="url(#linearGradient-2)" fill-rule="nonzero"></path>
                <g id="9" transform="translate(335.577159, 24.322672)" fill="#FFFFFF" fill-rule="nonzero">
                    <path d="M2.546875,22.912037 C2.53645833,22.912037 2.625,22.7219329 2.8125,22.3417245 C3,21.9615162 3.24479167,21.4693287 3.546875,20.865162 C3.84895833,20.2609954 4.1875,19.5891204 4.5625,18.849537 C4.9375,18.1099537 5.30729167,17.380787 5.671875,16.662037 C6.03645833,15.943287 6.37760417,15.2818287 6.6953125,14.677662 C7.01302083,14.0734954 7.27083333,13.599537 7.46875,13.255787 C7.16666667,13.4328704 6.82552083,13.5396412 6.4453125,13.5760995 C6.06510417,13.6125579 5.625,13.6203704 5.125,13.599537 C4.4375,13.5787037 3.8359375,13.4537037 3.3203125,13.224537 C2.8046875,12.9953704 2.359375,12.708912 1.984375,12.365162 C1.609375,12.021412 1.296875,11.6385995 1.046875,11.2167245 C0.796875,10.7948495 0.596354167,10.3833912 0.4453125,9.98234954 C0.294270833,9.58130787 0.184895833,9.20630787 0.1171875,8.85734954 C0.0494791667,8.5083912 0.015625,8.2349537 0.015625,8.03703704 C0.015625,7.97453704 0.0130208333,7.8599537 0.0078125,7.69328704 C0.00260416667,7.52662037 0,7.34172454 0,7.13859954 C0,6.93547454 0.00260416667,6.72974537 0.0078125,6.52141204 C0.0130208333,6.3130787 0.0260416667,6.13599537 0.046875,5.99016204 C0.0572916667,5.91724537 0.0911458333,5.73234954 0.1484375,5.43547454 C0.205729167,5.13859954 0.3125,4.7818287 0.46875,4.36516204 C0.625,3.94849537 0.84375,3.50318287 1.125,3.02922454 C1.40625,2.5552662 1.7734375,2.1099537 2.2265625,1.69328704 C2.6796875,1.27662037 3.23697917,0.91724537 3.8984375,0.615162037 C4.55989583,0.313078704 5.34375,0.12037037 6.25,0.037037037 C7.19791667,-0.0462962963 8.03385417,0.0109953704 8.7578125,0.208912037 C9.48177083,0.406828704 10.1041667,0.693287037 10.625,1.06828704 C11.1458333,1.44328704 11.578125,1.88078704 11.921875,2.38078704 C12.265625,2.88078704 12.5338542,3.38859954 12.7265625,3.90422454 C12.9192708,4.41984954 13.046875,4.91984954 13.109375,5.40422454 C13.171875,5.88859954 13.1822917,6.30266204 13.140625,6.64641204 C13.078125,7.1568287 13.0104167,7.61255787 12.9375,8.01359954 C12.8645833,8.4146412 12.7786458,8.7974537 12.6796875,9.16203704 C12.5807292,9.52662037 12.46875,9.88599537 12.34375,10.240162 C12.21875,10.5943287 12.0729167,10.9797454 11.90625,11.396412 C11.8645833,11.5109954 11.7526042,11.7609954 11.5703125,12.146412 C11.3880208,12.5318287 11.1588542,13.0031829 10.8828125,13.5604745 C10.6067708,14.1177662 10.3046875,14.7375579 9.9765625,15.4198495 C9.6484375,16.1021412 9.3125,16.787037 8.96875,17.474537 C8.16666667,19.099537 7.27083333,20.912037 6.28125,22.912037 L2.546875,22.912037 Z M3.25,6.41203704 C3.25,6.81828704 3.27083333,7.2662037 3.3125,7.75578704 C3.35416667,8.24537037 3.4765625,8.70630787 3.6796875,9.13859954 C3.8828125,9.5708912 4.203125,9.94068287 4.640625,10.2479745 C5.078125,10.5552662 5.69270833,10.7297454 6.484375,10.771412 C6.88020833,10.7922454 7.23958333,10.7427662 7.5625,10.6229745 C7.88541667,10.5031829 8.171875,10.3443287 8.421875,10.146412 C8.671875,9.94849537 8.88802083,9.72453704 9.0703125,9.47453704 C9.25260417,9.22453704 9.40364583,8.9771412 9.5234375,8.73234954 C9.64322917,8.48755787 9.72916667,8.26099537 9.78125,8.05266204 C9.83333333,7.8443287 9.859375,7.67766204 9.859375,7.55266204 C9.84895833,7.29224537 9.84114583,7.0005787 9.8359375,6.67766204 C9.83072917,6.35474537 9.79947917,6.02662037 9.7421875,5.69328704 C9.68489583,5.3599537 9.58854167,5.0396412 9.453125,4.73234954 C9.31770833,4.42505787 9.125,4.1568287 8.875,3.92766204 C8.625,3.69849537 8.3046875,3.51880787 7.9140625,3.38859954 C7.5234375,3.2583912 7.03645833,3.20891204 6.453125,3.24016204 C5.80729167,3.27141204 5.27864583,3.43287037 4.8671875,3.72453704 C4.45572917,4.0162037 4.13020833,4.33912037 3.890625,4.69328704 C3.65104167,5.0474537 3.484375,5.3912037 3.390625,5.72453704 C3.296875,6.05787037 3.25,6.28703704 3.25,6.41203704 Z" id="形状"></path>
                </g>
            </g>
        </g>
    </g>
</svg>