<?xml version="1.0" encoding="UTF-8"?>
<svg width="416px" height="99px" viewBox="0 0 416 99" version="1.1" xmlns="http://www.w3.org/2000/svg" xmlns:xlink="http://www.w3.org/1999/xlink">
    <title>编组 26</title>
    <defs>
        <linearGradient x1="-10.6182583%" y1="-13.3905632%" x2="50%" y2="100%" id="linearGradient-1">
            <stop stop-color="#FD4932" stop-opacity="0.490876311" offset="0%"></stop>
            <stop stop-color="#FD4932" stop-opacity="0.837730141" offset="100%"></stop>
        </linearGradient>
        <linearGradient x1="-10.3945748%" y1="-13.3905632%" x2="50%" y2="100%" id="linearGradient-2">
            <stop stop-color="#FD4932" stop-opacity="0.490876311" offset="0%"></stop>
            <stop stop-color="#FD4932" stop-opacity="0.837730141" offset="100%"></stop>
        </linearGradient>
    </defs>
    <g id="页面-1" stroke="none" stroke-width="1" fill="none" fill-rule="evenodd">
        <g id="画板" transform="translate(-2534.000000, -1897.000000)">
            <g id="编组-26" transform="translate(2534.000000, 1897.000000)">
                <rect id="矩形备份-127" fill="#D8D8D8" opacity="0.228457496" x="0" y="89" width="3" height="9" rx="1.5"></rect>
                <rect id="矩形备份-126" fill="#D8D8D8" opacity="0.228457496" x="42" y="89" width="3" height="9" rx="1.5"></rect>
                <rect id="矩形备份-125" fill="#D8D8D8" opacity="0.228457496" x="85" y="89" width="3" height="9" rx="1.5"></rect>
                <rect id="矩形备份-124" fill="#D8D8D8" opacity="0.228457496" x="127" y="89" width="3" height="9" rx="1.5"></rect>
                <rect id="矩形备份-123" fill="#D8D8D8" opacity="0.228457496" x="254" y="89" width="3" height="9" rx="1.5"></rect>
                <rect id="矩形备份-122" fill="#D8D8D8" opacity="0.228457496" x="296" y="89" width="3" height="9" rx="1.5"></rect>
                <rect id="矩形备份-121" fill="#D8D8D8" opacity="0.228457496" x="339" y="89" width="3" height="9" rx="1.5"></rect>
                <rect id="矩形备份-120" fill="#D8D8D8" opacity="0.228457496" x="381" y="89" width="3" height="9" rx="1.5"></rect>
                <rect id="矩形备份-119" fill="#D8D8D8" opacity="0.228457496" x="169" y="90" width="3" height="9" rx="1.5"></rect>
                <rect id="矩形备份-118" fill="#D8D8D8" opacity="0.228457496" x="212" y="90" width="3" height="9" rx="1.5"></rect>
                <rect id="矩形备份-117" fill="#F3F3F3" x="0" y="86" width="384" height="6" rx="3"></rect>
                <rect id="矩形备份-116" fill="#FE6450" x="0" y="86" width="384" height="6" rx="3"></rect>
                <path d="M351.9145,6.723 L382.5,0 L413.0855,6.723 C414.788199,7.09739623 416,8.5911262 416,10.3164545 L416,47.0867727 C416,54.4726854 412.26728,61.3696895 406.054222,65.4664091 L382.5,81 L358.945778,65.4664091 C352.733817,61.3704132 349.001787,54.4750627 349,47.0904545 L349,10.3164545 C349,8.5911262 350.211801,7.09739623 351.9145,6.723 Z" id="形状备份-19" fill="url(#linearGradient-1)" fill-rule="nonzero" opacity="0.12831915"></path>
                <path d="M357.280377,12.5972609 L382.5,7.04347826 L407.719623,12.5972609 C409.123603,12.9065447 410.122807,14.1404956 410.122807,15.5657668 L410.122807,45.941247 C410.122807,52.0426532 407.04495,57.7401783 401.921903,61.1244249 L382.5,73.9565217 L363.078097,61.1244249 C357.955955,57.7407761 354.878666,52.044617 354.877193,45.9442885 L354.877193,15.5657668 C354.877193,14.1404956 355.876397,12.9065447 357.280377,12.5972609 Z" id="形状备份-18" fill="url(#linearGradient-2)" fill-rule="nonzero"></path>
                <g id="10" transform="translate(370.717784, 24.265959)" fill="#FFFFFF" fill-rule="nonzero">
                    <polygon id="路径" points="3.234375 3.640625 3.234375 22.96875 6.5 22.96875 6.5 0.1875 3.234375 0.1875 0 2.546875 0 6.015625"></polygon>
                    <path d="M21.8941964,16.40625 C21.8316964,18.7083333 20.7639881,19.8697917 18.6910714,19.890625 C16.6077381,19.8697917 15.5452381,18.7083333 15.5035714,16.40625 L15.5035714,6.75 C15.5452381,4.46875 16.6077381,3.30729167 18.6910714,3.265625 C20.7639881,3.30729167 21.8316964,4.46875 21.8941964,6.75 L21.8941964,16.40625 Z M12.2379464,16.59375 C12.2587797,18.6875 12.9306547,20.3020833 14.2535714,21.4375 C15.4931547,22.5625 16.9723214,23.1354167 18.6910714,23.15625 C20.4619047,23.1354167 21.9671131,22.5625 23.2066964,21.4375 C24.4671131,20.3020833 25.1181547,18.6875 25.1598214,16.59375 L25.1598214,6.546875 C25.1181547,4.44270833 24.4671131,2.82291667 23.2066964,1.6875 C21.9671131,0.5625 20.4619047,0 18.6910714,0 C16.9723214,0 15.4931547,0.5625 14.2535714,1.6875 C12.9306547,2.82291667 12.2587797,4.44270833 12.2379464,6.546875 L12.2379464,16.59375 Z" id="形状"></path>
                </g>
            </g>
        </g>
    </g>
</svg>