<?xml version="1.0" encoding="UTF-8"?>
<svg width="39px" height="47px" viewBox="0 0 39 47" version="1.1" xmlns="http://www.w3.org/2000/svg" xmlns:xlink="http://www.w3.org/1999/xlink">
    <title>编组 13</title>
    <defs>
        <linearGradient x1="-11.0038696%" y1="-13.3905632%" x2="50%" y2="100%" id="linearGradient-1">
            <stop stop-color="#FCAD41" stop-opacity="0.490876311" offset="0%"></stop>
            <stop stop-color="#FCAD41" stop-opacity="0.837730141" offset="100%"></stop>
        </linearGradient>
        <linearGradient x1="-10.7787633%" y1="-13.3905632%" x2="50%" y2="100%" id="linearGradient-2">
            <stop stop-color="#FCAD41" stop-opacity="0.490876311" offset="0%"></stop>
            <stop stop-color="#FCAD41" stop-opacity="0.837730141" offset="100%"></stop>
        </linearGradient>
    </defs>
    <g id="页面-1" stroke="none" stroke-width="1" fill="none" fill-rule="evenodd">
        <g id="画板" transform="translate(-3041.000000, -830.000000)" fill-rule="nonzero">
            <g id="编组-13" transform="translate(3041.000000, 830.000000)">
                <path d="M1.6965,3.901 L19.5,0 L37.3035,3.901 C38.2946233,4.11824226 39,4.98497446 39,5.98609091 L39,27.3219545 C39,31.6076076 36.8272225,35.6095729 33.2106667,37.9866818 L19.5,47 L5.78933333,37.9866818 C2.17341604,35.6099928 0.00104005976,31.608987 0,27.3240909 L0,5.98609091 C0,4.98497446 0.705376672,4.11824226 1.6965,3.901 Z" id="形状备份" fill="url(#linearGradient-1)" opacity="0.12831915"></path>
                <path d="M4.81992105,7.30952174 L19.5,4.08695652 L34.1800789,7.30952174 C34.997321,7.48898273 35.5789474,8.20497891 35.5789474,9.03198814 L35.5789474,26.6572668 C35.5789474,30.1975889 33.7873589,33.5035603 30.8052865,35.4672589 L19.5,42.9130435 L8.19471345,35.4672589 C5.21316761,33.5039071 3.42191022,30.1987284 3.42105263,26.6590316 L3.42105263,9.03198814 C3.42105263,8.20497891 4.00267901,7.48898273 4.81992105,7.30952174 Z" id="形状" fill="url(#linearGradient-2)"></path>
                <g id="4-7" transform="translate(11.170898, 15.988872)" fill="#FFFFFF">
                    <polygon id="路径" points="0 8.48339844 4.15625 8.48339844 4.15625 9.96679688 5.58496094 9.96679688 5.58496094 8.48339844 6.37792969 8.48339844 6.37792969 7.13671875 5.58496094 7.13671875 5.58496094 4.27246094 4.15625 4.27246094 4.15625 7.13671875 1.55175781 7.13671875 4.921875 0 3.32910156 0 0 7.13671875"></polygon>
                    <polygon id="路径" points="6.69394531 6.80175781 10.9048828 6.80175781 10.9048828 5.37304688 6.69394531 5.37304688"></polygon>
                    <polygon id="路径" points="11.7541016 2.87109375 13.1828125 2.87109375 13.1828125 1.42871094 15.8283203 1.42871094 12.4582031 9.96679688 14.0509766 9.96679688 17.4279297 1.42871094 17.4279297 0 11.7541016 0"></polygon>
                </g>
            </g>
        </g>
    </g>
</svg>