<?xml version="1.0" encoding="UTF-8"?>
<svg width="384px" height="99px" viewBox="0 0 384 99" version="1.1" xmlns="http://www.w3.org/2000/svg" xmlns:xlink="http://www.w3.org/1999/xlink">
    <title>编组 22</title>
    <defs>
        <linearGradient x1="-10.6182583%" y1="-13.3905632%" x2="50%" y2="100%" id="linearGradient-1">
            <stop stop-color="#FCAD41" stop-opacity="0.490876311" offset="0%"></stop>
            <stop stop-color="#FCAD41" stop-opacity="0.837730141" offset="100%"></stop>
        </linearGradient>
        <linearGradient x1="-10.3945748%" y1="-13.3905632%" x2="50%" y2="100%" id="linearGradient-2">
            <stop stop-color="#FCAD41" stop-opacity="0.490876311" offset="0%"></stop>
            <stop stop-color="#FCAD41" stop-opacity="0.837730141" offset="100%"></stop>
        </linearGradient>
    </defs>
    <g id="页面-1" stroke="none" stroke-width="1" fill="none" fill-rule="evenodd">
        <g id="画板" transform="translate(-2534.000000, -1393.000000)">
            <g id="编组-22" transform="translate(2534.000000, 1393.000000)">
                <rect id="矩形备份-79" fill="#D8D8D8" opacity="0.228457496" x="0" y="89" width="3" height="9" rx="1.5"></rect>
                <rect id="矩形备份-78" fill="#D8D8D8" opacity="0.228457496" x="42" y="89" width="3" height="9" rx="1.5"></rect>
                <rect id="矩形备份-77" fill="#D8D8D8" opacity="0.228457496" x="85" y="89" width="3" height="9" rx="1.5"></rect>
                <rect id="矩形备份-76" fill="#D8D8D8" opacity="0.228457496" x="127" y="89" width="3" height="9" rx="1.5"></rect>
                <rect id="矩形备份-75" fill="#D8D8D8" opacity="0.228457496" x="254" y="89" width="3" height="9" rx="1.5"></rect>
                <rect id="矩形备份-74" fill="#D8D8D8" opacity="0.228457496" x="296" y="89" width="3" height="9" rx="1.5"></rect>
                <rect id="矩形备份-73" fill="#D8D8D8" opacity="0.228457496" x="339" y="89" width="3" height="9" rx="1.5"></rect>
                <rect id="矩形备份-72" fill="#D8D8D8" opacity="0.228457496" x="381" y="89" width="3" height="9" rx="1.5"></rect>
                <rect id="矩形备份-71" fill="#D8D8D8" opacity="0.228457496" x="169" y="90" width="3" height="9" rx="1.5"></rect>
                <rect id="矩形备份-70" fill="#D8D8D8" opacity="0.228457496" x="212" y="90" width="3" height="9" rx="1.5"></rect>
                <rect id="矩形备份-69" fill="#F3F3F3" x="0" y="86" width="384" height="6" rx="3"></rect>
                <rect id="矩形备份-68" fill="#FCB95D" x="0" y="86" width="215" height="7" rx="3.5"></rect>
                <path d="M183.9145,6.723 L214.5,0 L245.0855,6.723 C246.788199,7.09739623 248,8.5911262 248,10.3164545 L248,47.0867727 C248,54.4726854 244.26728,61.3696895 238.054222,65.4664091 L214.5,81 L190.945778,65.4664091 C184.733817,61.3704132 181.001787,54.4750627 181,47.0904545 L181,10.3164545 C181,8.5911262 182.211801,7.09739623 183.9145,6.723 Z" id="形状备份-11" fill="url(#linearGradient-1)" fill-rule="nonzero" opacity="0.12831915"></path>
                <path d="M189.280377,12.5972609 L214.5,7.04347826 L239.719623,12.5972609 C241.123603,12.9065447 242.122807,14.1404956 242.122807,15.5657668 L242.122807,45.941247 C242.122807,52.0426532 239.04495,57.7401783 233.921903,61.1244249 L214.5,73.9565217 L195.078097,61.1244249 C189.955955,57.7407761 186.878666,52.044617 186.877193,45.9442885 L186.877193,15.5657668 C186.877193,14.1404956 187.876397,12.9065447 189.280377,12.5972609 Z" id="形状备份-10" fill="url(#linearGradient-2)" fill-rule="nonzero"></path>
                <g id="6" transform="translate(207.943974, 24.219084)" fill="#FFFFFF" fill-rule="nonzero">
                    <path d="M10.6800595,0 C10.6904762,0 10.640997,0.111979167 10.531622,0.3359375 C10.422247,0.559895833 10.2738095,0.864583333 10.0863095,1.25 C9.89880952,1.63541667 9.68005952,2.078125 9.43005952,2.578125 C9.18005952,3.078125 8.91703869,3.60416667 8.64099702,4.15625 C8.36495536,4.70833333 8.08370536,5.265625 7.79724702,5.828125 C7.51078869,6.390625 7.23474702,6.92708333 6.96912202,7.4375 C6.70349702,7.94791667 6.46130952,8.41145833 6.24255952,8.828125 C6.02380952,9.24479167 5.84151786,9.578125 5.69568452,9.828125 C5.99776786,9.65104167 6.33891369,9.54427083 6.71912202,9.5078125 C7.09933036,9.47135417 7.53943452,9.46354167 8.03943452,9.484375 C8.75818452,9.50520833 9.38578869,9.63020833 9.92224702,9.859375 C10.4587054,10.0885417 10.9196429,10.375 11.3050595,10.71875 C11.6904762,11.0625 12.0107887,11.4453125 12.265997,11.8671875 C12.5212054,12.2890625 12.7217262,12.7005208 12.8675595,13.1015625 C13.0133929,13.5026042 13.1149554,13.8776042 13.172247,14.2265625 C13.2295387,14.5755208 13.2581845,14.8489583 13.2581845,15.046875 C13.2581845,15.109375 13.2581845,15.2239583 13.2581845,15.390625 C13.2581845,15.5572917 13.2581845,15.7421875 13.2581845,15.9453125 C13.2581845,16.1484375 13.2555804,16.3541667 13.250372,16.5625 C13.2451637,16.7708333 13.2373512,16.9479167 13.2269345,17.09375 C13.2165179,17.1666667 13.1826637,17.3567708 13.125372,17.6640625 C13.0680804,17.9713542 12.9639137,18.3359375 12.812872,18.7578125 C12.6618304,19.1796875 12.4456845,19.6328125 12.1644345,20.1171875 C11.8831845,20.6015625 11.5133929,21.0598958 11.0550595,21.4921875 C10.5967262,21.9244792 10.0394345,22.296875 9.38318452,22.609375 C8.72693452,22.921875 7.94568452,23.1145833 7.03943452,23.1875 C6.09151786,23.2708333 5.25297619,23.2083333 4.52380952,23 C3.79464286,22.7916667 3.16443452,22.4947917 2.63318452,22.109375 C2.10193452,21.7239583 1.65922619,21.2786458 1.30505952,20.7734375 C0.950892857,20.2682292 0.672247024,19.75 0.469122024,19.21875 C0.265997024,18.6875 0.130580357,18.1770833 0.0628720238,17.6875 C-0.00483630952,17.1979167 -0.0178571429,16.78125 0.0238095238,16.4375 C0.0863095238,15.9270833 0.154017857,15.4713542 0.226934524,15.0703125 C0.29985119,14.6692708 0.38578869,14.2864583 0.484747024,13.921875 C0.583705357,13.5572917 0.695684524,13.1979167 0.820684524,12.84375 C0.945684524,12.4895833 1.09151786,12.1041667 1.25818452,11.6875 C1.29985119,11.5833333 1.41443452,11.3359375 1.60193452,10.9453125 C1.78943452,10.5546875 2.02120536,10.0729167 2.29724702,9.5 C2.57328869,8.92708333 2.88318452,8.296875 3.22693452,7.609375 C3.57068452,6.921875 3.91443452,6.22395833 4.25818452,5.515625 C5.07068452,3.86979167 5.98214286,2.03125 6.99255952,0 L10.6800595,0 Z M10.0238095,16.671875 C10.0238095,16.2760417 10.0081845,15.8385417 9.97693452,15.359375 C9.94568452,14.8802083 9.82849702,14.4244792 9.62537202,13.9921875 C9.42224702,13.5598958 9.09151786,13.1875 8.63318452,12.875 C8.17485119,12.5625 7.52380952,12.375 6.68005952,12.3125 C6.28422619,12.28125 5.92485119,12.3229167 5.60193452,12.4375 C5.27901786,12.5520833 4.99255952,12.7083333 4.74255952,12.90625 C4.49255952,13.1041667 4.27641369,13.3307292 4.09412202,13.5859375 C3.91183036,13.8411458 3.76078869,14.09375 3.64099702,14.34375 C3.52120536,14.59375 3.43526786,14.8255208 3.38318452,15.0390625 C3.33110119,15.2526042 3.30505952,15.4166667 3.30505952,15.53125 C3.30505952,15.7916667 3.31026786,16.0807292 3.32068452,16.3984375 C3.33110119,16.7161458 3.36495536,17.0338542 3.42224702,17.3515625 C3.47953869,17.6692708 3.57589286,17.9765625 3.71130952,18.2734375 C3.84672619,18.5703125 4.03943452,18.8333333 4.28943452,19.0625 C4.53943452,19.2916667 4.85974702,19.4791667 5.25037202,19.625 C5.64099702,19.7708333 6.12797619,19.84375 6.71130952,19.84375 C7.18005952,19.8541667 7.58891369,19.7942708 7.93787202,19.6640625 C8.28683036,19.5338542 8.58370536,19.3671875 8.82849702,19.1640625 C9.07328869,18.9609375 9.27380952,18.734375 9.43005952,18.484375 C9.58630952,18.234375 9.70870536,17.9895833 9.79724702,17.75 C9.88578869,17.5104167 9.94568452,17.2942708 9.97693452,17.1015625 C10.0081845,16.9088542 10.0238095,16.765625 10.0238095,16.671875 Z" id="形状"></path>
                </g>
            </g>
        </g>
    </g>
</svg>