<?xml version="1.0" encoding="UTF-8"?>
<svg width="384px" height="99px" viewBox="0 0 384 99" version="1.1" xmlns="http://www.w3.org/2000/svg" xmlns:xlink="http://www.w3.org/1999/xlink">
    <title>编组 21</title>
    <defs>
        <linearGradient x1="-10.6182583%" y1="-13.3905632%" x2="50%" y2="100%" id="linearGradient-1">
            <stop stop-color="#FCAD41" stop-opacity="0.490876311" offset="0%"></stop>
            <stop stop-color="#FCAD41" stop-opacity="0.837730141" offset="100%"></stop>
        </linearGradient>
        <linearGradient x1="-10.3945748%" y1="-13.3905632%" x2="50%" y2="100%" id="linearGradient-2">
            <stop stop-color="#FCAD41" stop-opacity="0.490876311" offset="0%"></stop>
            <stop stop-color="#FCAD41" stop-opacity="0.837730141" offset="100%"></stop>
        </linearGradient>
    </defs>
    <g id="页面-1" stroke="none" stroke-width="1" fill="none" fill-rule="evenodd">
        <g id="画板" transform="translate(-2534.000000, -1267.000000)">
            <g id="编组-21" transform="translate(2534.000000, 1267.000000)">
                <rect id="矩形备份-67" fill="#D8D8D8" opacity="0.228457496" x="0" y="89" width="3" height="9" rx="1.5"></rect>
                <rect id="矩形备份-66" fill="#D8D8D8" opacity="0.228457496" x="42" y="89" width="3" height="9" rx="1.5"></rect>
                <rect id="矩形备份-65" fill="#D8D8D8" opacity="0.228457496" x="85" y="89" width="3" height="9" rx="1.5"></rect>
                <rect id="矩形备份-64" fill="#D8D8D8" opacity="0.228457496" x="127" y="89" width="3" height="9" rx="1.5"></rect>
                <rect id="矩形备份-63" fill="#D8D8D8" opacity="0.228457496" x="254" y="89" width="3" height="9" rx="1.5"></rect>
                <rect id="矩形备份-62" fill="#D8D8D8" opacity="0.228457496" x="296" y="89" width="3" height="9" rx="1.5"></rect>
                <rect id="矩形备份-61" fill="#D8D8D8" opacity="0.228457496" x="339" y="89" width="3" height="9" rx="1.5"></rect>
                <rect id="矩形备份-60" fill="#D8D8D8" opacity="0.228457496" x="381" y="89" width="3" height="9" rx="1.5"></rect>
                <rect id="矩形备份-59" fill="#D8D8D8" opacity="0.228457496" x="169" y="90" width="3" height="9" rx="1.5"></rect>
                <rect id="矩形备份-58" fill="#D8D8D8" opacity="0.228457496" x="212" y="90" width="3" height="9" rx="1.5"></rect>
                <rect id="矩形备份-57" fill="#F3F3F3" x="0" y="86" width="384" height="6" rx="3"></rect>
                <rect id="矩形备份-56" fill="#FCB95D" x="0" y="86" width="172" height="7" rx="3.5"></rect>
                <path d="M141.9145,6.723 L172.5,0 L203.0855,6.723 C204.788199,7.09739623 206,8.5911262 206,10.3164545 L206,47.0867727 C206,54.4726854 202.26728,61.3696895 196.054222,65.4664091 L172.5,81 L148.945778,65.4664091 C142.733817,61.3704132 139.001787,54.4750627 139,47.0904545 L139,10.3164545 C139,8.5911262 140.211801,7.09739623 141.9145,6.723 Z" id="形状备份-9" fill="url(#linearGradient-1)" fill-rule="nonzero" opacity="0.12831915"></path>
                <path d="M147.280377,12.5972609 L172.5,7.04347826 L197.719623,12.5972609 C199.123603,12.9065447 200.122807,14.1404956 200.122807,15.5657668 L200.122807,45.941247 C200.122807,52.0426532 197.04495,57.7401783 191.921903,61.1244249 L172.5,73.9565217 L153.078097,61.1244249 C147.955955,57.7407761 144.878666,52.044617 144.877193,45.9442885 L144.877193,15.5657668 C144.877193,14.1404956 145.876397,12.9065447 147.280377,12.5972609 Z" id="形状备份-8" fill="url(#linearGradient-2)" fill-rule="nonzero"></path>
                <g id="5" transform="translate(165.936534, 24.453459)" fill="#FFFFFF" fill-rule="nonzero">
                    <path d="M0.40625,12.3125 L3.484375,12.3125 C3.86979167,11.6145833 4.30729167,11.125 4.796875,10.84375 C5.28645833,10.5729167 5.828125,10.4375 6.421875,10.4375 C7.08854167,10.4375 7.64583333,10.53125 8.09375,10.71875 C8.54166667,10.9479167 8.88020833,11.2552083 9.109375,11.640625 C9.53645833,12.453125 9.73958333,13.5104167 9.71875,14.8125 C9.71875,15.34375 9.70833333,15.890625 9.6875,16.453125 C9.64583333,17.0260417 9.53125,17.5572917 9.34375,18.046875 C9.16666667,18.5364583 8.85416667,18.9322917 8.40625,19.234375 C7.9375,19.546875 7.3125,19.703125 6.53125,19.703125 C4.70833333,19.6822917 3.61979167,18.796875 3.265625,17.046875 L0,17.046875 C0.3125,19.140625 1.11979167,20.65625 2.421875,21.59375 C3.703125,22.5104167 5.11458333,22.96875 6.65625,22.96875 C7.80208333,22.9479167 8.79166667,22.6822917 9.625,22.171875 C10.4791667,21.6822917 11.1302083,21.140625 11.578125,20.546875 C12.0885417,19.9427083 12.453125,19.25 12.671875,18.46875 C12.8802083,17.6770833 12.984375,16.5416667 12.984375,15.0625 C12.984375,14.1041667 12.953125,13.296875 12.890625,12.640625 C12.828125,11.9947917 12.7239583,11.4479167 12.578125,11 C12.296875,10.1770833 11.8385417,9.453125 11.203125,8.828125 C10.7760417,8.359375 10.21875,7.96354167 9.53125,7.640625 C8.80208333,7.34895833 8,7.19270833 7.125,7.171875 C5.76041667,7.171875 4.546875,7.58854167 3.484375,8.421875 L3.484375,3.265625 L12.546875,3.265625 L12.546875,0 L0.40625,0 L0.40625,12.3125 Z" id="路径"></path>
                </g>
            </g>
        </g>
    </g>
</svg>