<?xml version="1.0" encoding="UTF-8"?>
<svg width="384px" height="99px" viewBox="0 0 384 99" version="1.1" xmlns="http://www.w3.org/2000/svg" xmlns:xlink="http://www.w3.org/1999/xlink">
    <title>编组 24</title>
    <defs>
        <linearGradient x1="-10.6182583%" y1="-13.3905632%" x2="50%" y2="100%" id="linearGradient-1">
            <stop stop-color="#FD4932" stop-opacity="0.490876311" offset="0%"></stop>
            <stop stop-color="#FD4932" stop-opacity="0.837730141" offset="100%"></stop>
        </linearGradient>
        <linearGradient x1="-10.3945748%" y1="-13.3905632%" x2="50%" y2="100%" id="linearGradient-2">
            <stop stop-color="#FD4932" stop-opacity="0.490876311" offset="0%"></stop>
            <stop stop-color="#FD4932" stop-opacity="0.837730141" offset="100%"></stop>
        </linearGradient>
    </defs>
    <g id="页面-1" stroke="none" stroke-width="1" fill="none" fill-rule="evenodd">
        <g id="画板" transform="translate(-2534.000000, -1645.000000)">
            <g id="编组-24" transform="translate(2534.000000, 1645.000000)">
                <rect id="矩形备份-103" fill="#D8D8D8" opacity="0.228457496" x="0" y="89" width="3" height="9" rx="1.5"></rect>
                <rect id="矩形备份-102" fill="#D8D8D8" opacity="0.228457496" x="42" y="89" width="3" height="9" rx="1.5"></rect>
                <rect id="矩形备份-101" fill="#D8D8D8" opacity="0.228457496" x="85" y="89" width="3" height="9" rx="1.5"></rect>
                <rect id="矩形备份-100" fill="#D8D8D8" opacity="0.228457496" x="127" y="89" width="3" height="9" rx="1.5"></rect>
                <rect id="矩形备份-99" fill="#D8D8D8" opacity="0.228457496" x="254" y="89" width="3" height="9" rx="1.5"></rect>
                <rect id="矩形备份-98" fill="#D8D8D8" opacity="0.228457496" x="296" y="89" width="3" height="9" rx="1.5"></rect>
                <rect id="矩形备份-97" fill="#D8D8D8" opacity="0.228457496" x="339" y="89" width="3" height="9" rx="1.5"></rect>
                <rect id="矩形备份-96" fill="#D8D8D8" opacity="0.228457496" x="381" y="89" width="3" height="9" rx="1.5"></rect>
                <rect id="矩形备份-95" fill="#D8D8D8" opacity="0.228457496" x="169" y="90" width="3" height="9" rx="1.5"></rect>
                <rect id="矩形备份-94" fill="#D8D8D8" opacity="0.228457496" x="212" y="90" width="3" height="9" rx="1.5"></rect>
                <rect id="矩形备份-93" fill="#F3F3F3" x="0" y="86" width="384" height="6" rx="3"></rect>
                <rect id="矩形备份-92" fill="#FE6450" x="0" y="86" width="299" height="7" rx="3"></rect>
                <path d="M265.9145,6.723 L296.5,0 L327.0855,6.723 C328.788199,7.09739623 330,8.5911262 330,10.3164545 L330,47.0867727 C330,54.4726854 326.26728,61.3696895 320.054222,65.4664091 L296.5,81 L272.945778,65.4664091 C266.733817,61.3704132 263.001787,54.4750627 263,47.0904545 L263,10.3164545 C263,8.5911262 264.211801,7.09739623 265.9145,6.723 Z" id="形状备份-15" fill="url(#linearGradient-1)" fill-rule="nonzero" opacity="0.12831915"></path>
                <path d="M271.280377,12.5972609 L296.5,7.04347826 L321.719623,12.5972609 C323.123603,12.9065447 324.122807,14.1404956 324.122807,15.5657668 L324.122807,45.941247 C324.122807,52.0426532 321.04495,57.7401783 315.921903,61.1244249 L296.5,73.9565217 L277.078097,61.1244249 C271.955955,57.7407761 268.878666,52.044617 268.877193,45.9442885 L268.877193,15.5657668 C268.877193,14.1404956 269.876397,12.9065447 271.280377,12.5972609 Z" id="形状备份-14" fill="url(#linearGradient-2)" fill-rule="nonzero"></path>
                <g id="8" transform="translate(289.483409, 24.265959)" fill="#FFFFFF" fill-rule="nonzero">
                    <path d="M3.6875,6.515625 C3.70833333,5.43229167 4.046875,4.61458333 4.703125,4.0625 C5.34895833,3.53125 6.09375,3.265625 6.9375,3.265625 C7.8125,3.265625 8.57291667,3.53125 9.21875,4.0625 C9.85416667,4.61458333 10.1822917,5.43229167 10.203125,6.515625 C10.1822917,7.56770833 9.85416667,8.36979167 9.21875,8.921875 C8.57291667,9.49479167 7.8125,9.78125 6.9375,9.78125 C6.09375,9.78125 5.34895833,9.49479167 4.703125,8.921875 C4.046875,8.36979167 3.70833333,7.56770833 3.6875,6.515625 Z M0,16.3125 C0.0208333333,18.3645833 0.713541667,20.0052083 2.078125,21.234375 C3.38020833,22.4947917 5,23.1354167 6.9375,23.15625 C8.88541667,23.1354167 10.53125,22.4947917 11.875,21.234375 C13.1979167,20.0052083 13.8697917,18.3645833 13.890625,16.3125 C13.8697917,14.1145833 12.9739583,12.40625 11.203125,11.1875 C11.8802083,10.59375 12.4322917,9.91145833 12.859375,9.140625 C13.265625,8.421875 13.46875,7.56770833 13.46875,6.578125 C13.4479167,4.68229167 12.828125,3.11458333 11.609375,1.875 C10.4010417,0.645833333 8.84375,0.0208333333 6.9375,0 C5.0625,0.0208333333 3.53125,0.645833333 2.34375,1.875 C1.08333333,3.11458333 0.442708333,4.68229167 0.421875,6.578125 C0.421875,7.56770833 0.645833333,8.421875 1.09375,9.140625 C1.47916667,9.91145833 2.01041667,10.59375 2.6875,11.1875 C0.916666667,12.40625 0.0208333333,14.1145833 0,16.3125 Z M3.265625,16.28125 C3.28645833,15.21875 3.66145833,14.3541667 4.390625,13.6875 C5.08854167,13.03125 5.9375,12.6927083 6.9375,12.671875 C7.96875,12.6927083 8.83333333,13.03125 9.53125,13.6875 C10.2395833,14.3541667 10.6041667,15.21875 10.625,16.28125 C10.6041667,17.3229167 10.2395833,18.1770833 9.53125,18.84375 C8.83333333,19.5416667 7.96875,19.890625 6.9375,19.890625 C5.9375,19.890625 5.08854167,19.5416667 4.390625,18.84375 C3.66145833,18.1770833 3.28645833,17.3229167 3.265625,16.28125 Z" id="形状"></path>
                </g>
            </g>
        </g>
    </g>
</svg>