<?xml version="1.0" encoding="UTF-8"?>
<svg width="384px" height="99px" viewBox="0 0 384 99" version="1.1" xmlns="http://www.w3.org/2000/svg" xmlns:xlink="http://www.w3.org/1999/xlink">
    <title>编组 19</title>
    <defs>
        <linearGradient x1="-10.6182583%" y1="-13.3905632%" x2="50%" y2="100%" id="linearGradient-1">
            <stop stop-color="#81D3D9" stop-opacity="0.490876311" offset="0%"></stop>
            <stop stop-color="#4AA8B2" stop-opacity="0.837730141" offset="100%"></stop>
        </linearGradient>
        <linearGradient x1="-10.3945748%" y1="-13.3905632%" x2="50%" y2="100%" id="linearGradient-2">
            <stop stop-color="#81D3D9" stop-opacity="0.490876311" offset="0%"></stop>
            <stop stop-color="#4AA8B2" stop-opacity="0.837730141" offset="100%"></stop>
        </linearGradient>
    </defs>
    <g id="页面-1" stroke="none" stroke-width="1" fill="none" fill-rule="evenodd">
        <g id="画板" transform="translate(-2534.000000, -1015.000000)">
            <g id="编组-19" transform="translate(2534.000000, 1015.000000)">
                <rect id="矩形备份-43" fill="#D8D8D8" opacity="0.228457496" x="0" y="89" width="3" height="9" rx="1.5"></rect>
                <rect id="矩形备份-42" fill="#D8D8D8" opacity="0.228457496" x="42" y="89" width="3" height="9" rx="1.5"></rect>
                <rect id="矩形备份-41" fill="#D8D8D8" opacity="0.228457496" x="85" y="89" width="3" height="9" rx="1.5"></rect>
                <rect id="矩形备份-40" fill="#D8D8D8" opacity="0.228457496" x="127" y="89" width="3" height="9" rx="1.5"></rect>
                <rect id="矩形备份-39" fill="#D8D8D8" opacity="0.228457496" x="254" y="89" width="3" height="9" rx="1.5"></rect>
                <rect id="矩形备份-38" fill="#D8D8D8" opacity="0.228457496" x="296" y="89" width="3" height="9" rx="1.5"></rect>
                <rect id="矩形备份-37" fill="#D8D8D8" opacity="0.228457496" x="339" y="89" width="3" height="9" rx="1.5"></rect>
                <rect id="矩形备份-36" fill="#D8D8D8" opacity="0.228457496" x="381" y="89" width="3" height="9" rx="1.5"></rect>
                <rect id="矩形备份-35" fill="#D8D8D8" opacity="0.228457496" x="169" y="90" width="3" height="9" rx="1.5"></rect>
                <rect id="矩形备份-34" fill="#D8D8D8" opacity="0.228457496" x="212" y="90" width="3" height="9" rx="1.5"></rect>
                <rect id="矩形备份-33" fill="#F3F3F3" x="0" y="86" width="384" height="6" rx="3"></rect>
                <rect id="矩形备份-32" fill="#6AB8C1" x="0" y="86" width="88" height="6" rx="3"></rect>
                <g id="编组-12" transform="translate(53.000000, 0.000000)" fill-rule="nonzero">
                    <path d="M2.9145,6.723 L33.5,0 L64.0855,6.723 C65.7881991,7.09739623 67,8.5911262 67,10.3164545 L67,47.0867727 C67,54.4726854 63.2672798,61.3696895 57.0542222,65.4664091 L33.5,81 L9.94577778,65.4664091 C3.7338173,61.3704132 0.00178676932,54.4750627 0,47.0904545 L0,10.3164545 C0,8.5911262 1.21180095,7.09739623 2.9145,6.723 Z" id="形状备份-5" fill="url(#linearGradient-1)" opacity="0.12831915"></path>
                    <path d="M8.28037719,12.5972609 L33.5,7.04347826 L58.7196228,12.5972609 C60.1236027,12.9065447 61.122807,14.1404956 61.122807,15.5657668 L61.122807,45.941247 C61.122807,52.0426532 58.04495,57.7401783 52.9219025,61.1244249 L33.5,73.9565217 L14.0780975,61.1244249 C8.95595462,57.7407761 5.87866628,52.044617 5.87719298,45.9442885 L5.87719298,15.5657668 C5.87719298,14.1404956 6.87639727,12.9065447 8.28037719,12.5972609 Z" id="形状备份-4" fill="url(#linearGradient-2)"></path>
                    <g id="3" transform="translate(26.170909, 24.265959)" fill="#FFFFFF">
                        <path d="M5.203125,12.671875 L6.578125,12.671875 C7.58854167,12.671875 8.421875,12.9791667 9.078125,13.59375 C9.74479167,14.2291667 10.0885417,15.125 10.109375,16.28125 C10.0885417,17.4166667 9.74479167,18.2916667 9.078125,18.90625 C8.421875,19.5625 7.61458333,19.890625 6.65625,19.890625 C5.76041667,19.890625 5.04166667,19.6458333 4.5,19.15625 C3.96875,18.6875 3.55729167,18.0729167 3.265625,17.3125 L0,17.3125 C0.354166667,19.2083333 1.13020833,20.65625 2.328125,21.65625 C3.52604167,22.65625 4.90104167,23.15625 6.453125,23.15625 C8.46354167,23.1354167 10.109375,22.4947917 11.390625,21.234375 C12.6927083,20.0052083 13.3541667,18.3229167 13.375,16.1875 C13.375,15.2291667 13.171875,14.3125 12.765625,13.4375 C12.3385417,12.5625 11.6458333,11.8125 10.6875,11.1875 C11.625,10.5520833 12.2760417,9.828125 12.640625,9.015625 C12.953125,8.203125 13.109375,7.359375 13.109375,6.484375 C13.0885417,4.75520833 12.4947917,3.25520833 11.328125,1.984375 C10.109375,0.682291667 8.46354167,0.0208333333 6.390625,0 C4.75520833,0.0208333333 3.34895833,0.604166667 2.171875,1.75 C0.973958333,2.90625 0.291666667,4.328125 0.125,6.015625 L3.390625,6.015625 C3.59895833,5.078125 4.00520833,4.38541667 4.609375,3.9375 C5.18229167,3.48958333 5.81770833,3.265625 6.515625,3.265625 C7.484375,3.28645833 8.27604167,3.59375 8.890625,4.1875 C9.50520833,4.80208333 9.82291667,5.58854167 9.84375,6.546875 C9.84375,7.49479167 9.53645833,8.265625 8.921875,8.859375 C8.30729167,9.47395833 7.44270833,9.78125 6.328125,9.78125 L5.203125,9.78125 L5.203125,12.671875 Z" id="路径"></path>
                    </g>
                </g>
            </g>
        </g>
    </g>
</svg>