<?xml version="1.0" encoding="UTF-8"?>
<svg width="39px" height="47px" viewBox="0 0 39 47" version="1.1" xmlns="http://www.w3.org/2000/svg" xmlns:xlink="http://www.w3.org/1999/xlink">
    <title>编组 7</title>
    <defs>
        <linearGradient x1="-10.7787633%" y1="-13.3905632%" x2="50%" y2="100%" id="linearGradient-1">
            <stop stop-color="#81D3D9" stop-opacity="0.490876311" offset="0%"></stop>
            <stop stop-color="#4AA8B2" stop-opacity="0.837730141" offset="100%"></stop>
        </linearGradient>
        <linearGradient x1="-11.0038696%" y1="-13.3905632%" x2="50%" y2="100%" id="linearGradient-2">
            <stop stop-color="#81D3D9" stop-opacity="0.490876311" offset="0%"></stop>
            <stop stop-color="#4AA8B2" stop-opacity="0.837730141" offset="100%"></stop>
        </linearGradient>
    </defs>
    <g id="页面-1" stroke="none" stroke-width="1" fill="none" fill-rule="evenodd">
        <g id="画板" transform="translate(-2965.000000, -830.000000)" fill-rule="nonzero">
            <g id="编组-7" transform="translate(2965.000000, 830.000000)">
                <path d="M4.81992105,7.30952174 L19.5,4.08695652 L34.1800789,7.30952174 C34.997321,7.48898273 35.5789474,8.20497891 35.5789474,9.03198814 L35.5789474,26.6572668 C35.5789474,30.1975889 33.7873589,33.5035603 30.8052865,35.4672589 L19.5,42.9130435 L8.19471345,35.4672589 C5.21316761,33.5039071 3.42191022,30.1987284 3.42105263,26.6590316 L3.42105263,9.03198814 C3.42105263,8.20497891 4.00267901,7.48898273 4.81992105,7.30952174 Z" id="形状" fill="url(#linearGradient-1)"></path>
                <path d="M1.6965,3.901 L19.5,0 L37.3035,3.901 C38.2946233,4.11824226 39,4.98497446 39,5.98609091 L39,27.3219545 C39,31.6076076 36.8272225,35.6095729 33.2106667,37.9866818 L19.5,47 L5.78933333,37.9866818 C2.17341604,35.6099928 0.00104005976,31.608987 0,27.3240909 L0,5.98609091 C0,4.98497446 0.705376672,4.11824226 1.6965,3.901 Z" id="形状备份" fill="url(#linearGradient-2)" opacity="0.12831915"></path>
                <g id="1-3" transform="translate(12.298828, 15.906841)" fill="#FFFFFF">
                    <polygon id="路径" points="1.41503906 1.59277344 1.41503906 10.0488281 2.84375 10.0488281 2.84375 0.08203125 1.41503906 0.08203125 0 1.11425781 0 2.63183594"></polygon>
                    <polygon id="路径" points="5.56601562 6.88378906 9.77695312 6.88378906 9.77695312 5.45507812 5.56601562 5.45507812"></polygon>
                    <path d="M12.3761719,5.54394531 L12.9777344,5.54394531 C13.4197917,5.54394531 13.784375,5.67838542 14.0714844,5.94726562 C14.363151,6.22526042 14.5135417,6.6171875 14.5226562,7.12304688 C14.5135417,7.61979167 14.363151,8.00260417 14.0714844,8.27148438 C13.784375,8.55859375 13.4311849,8.70214844 13.0119141,8.70214844 C12.619987,8.70214844 12.3055338,8.59505208 12.0685547,8.38085938 C11.8361328,8.17578125 11.6561198,7.90690104 11.5285156,7.57421875 L10.0998047,7.57421875 C10.2547526,8.40364583 10.5942708,9.03710938 11.1183594,9.47460938 C11.6424479,9.91210938 12.2440104,10.1308594 12.9230469,10.1308594 C13.8026042,10.1217448 14.5226562,9.84147135 15.0832031,9.29003906 C15.6528646,8.75227865 15.9422526,8.01627604 15.9513672,7.08203125 C15.9513672,6.66276042 15.8625,6.26171875 15.6847656,5.87890625 C15.4979167,5.49609375 15.1948568,5.16796875 14.7755859,4.89453125 C15.1857422,4.61653646 15.4705729,4.29980469 15.6300781,3.94433594 C15.7667969,3.58886719 15.8351562,3.21972656 15.8351562,2.83691406 C15.8260417,2.08040365 15.566276,1.42415365 15.0558594,0.868164062 C14.5226562,0.298502604 13.8026042,0.00911458333 12.8957031,0 C12.1802083,0.00911458333 11.5649739,0.264322917 11.05,0.765625 C10.5259114,1.27148438 10.2274088,1.89355469 10.1544922,2.63183594 L11.5832031,2.63183594 C11.6743489,2.22167969 11.8520833,1.91861979 12.1164062,1.72265625 C12.3670573,1.52669271 12.6450521,1.42871094 12.9503906,1.42871094 C13.3742187,1.43782552 13.7205729,1.57226562 13.9894531,1.83203125 C14.2583333,2.10091146 14.3973307,2.44498698 14.4064453,2.86425781 C14.4064453,3.27897135 14.2720052,3.61621094 14.003125,3.87597656 C13.7342448,4.14485677 13.3559896,4.27929688 12.8683594,4.27929688 L12.3761719,4.27929688 L12.3761719,5.54394531 Z" id="路径"></path>
                </g>
            </g>
        </g>
    </g>
</svg>