<?xml version="1.0" encoding="UTF-8"?>
<svg width="384px" height="99px" viewBox="0 0 384 99" version="1.1" xmlns="http://www.w3.org/2000/svg" xmlns:xlink="http://www.w3.org/1999/xlink">
    <title>编组 18</title>
    <defs>
        <linearGradient x1="-10.6182583%" y1="-13.3905632%" x2="50%" y2="100%" id="linearGradient-1">
            <stop stop-color="#81D3D9" stop-opacity="0.490876311" offset="0%"></stop>
            <stop stop-color="#4AA8B2" stop-opacity="0.837730141" offset="100%"></stop>
        </linearGradient>
        <linearGradient x1="-10.3945748%" y1="-13.3905632%" x2="50%" y2="100%" id="linearGradient-2">
            <stop stop-color="#81D3D9" stop-opacity="0.490876311" offset="0%"></stop>
            <stop stop-color="#4AA8B2" stop-opacity="0.837730141" offset="100%"></stop>
        </linearGradient>
    </defs>
    <g id="页面-1" stroke="none" stroke-width="1" fill="none" fill-rule="evenodd">
        <g id="画板" transform="translate(-2534.000000, -889.000000)">
            <g id="编组-18" transform="translate(2534.000000, 889.000000)">
                <rect id="矩形备份-3" fill="#D8D8D8" opacity="0.228457496" x="0" y="89" width="3" height="9" rx="1.5"></rect>
                <rect id="矩形备份-16" fill="#D8D8D8" opacity="0.228457496" x="42" y="89" width="3" height="9" rx="1.5"></rect>
                <rect id="矩形备份-18" fill="#D8D8D8" opacity="0.228457496" x="85" y="89" width="3" height="9" rx="1.5"></rect>
                <rect id="矩形备份-20" fill="#D8D8D8" opacity="0.228457496" x="127" y="89" width="3" height="9" rx="1.5"></rect>
                <rect id="矩形备份-22" fill="#D8D8D8" opacity="0.228457496" x="254" y="89" width="3" height="9" rx="1.5"></rect>
                <rect id="矩形备份-28" fill="#D8D8D8" opacity="0.228457496" x="296" y="89" width="3" height="9" rx="1.5"></rect>
                <rect id="矩形备份-29" fill="#D8D8D8" opacity="0.228457496" x="339" y="89" width="3" height="9" rx="1.5"></rect>
                <rect id="矩形备份-30" fill="#D8D8D8" opacity="0.228457496" x="381" y="89" width="3" height="9" rx="1.5"></rect>
                <rect id="矩形备份-24" fill="#D8D8D8" opacity="0.228457496" x="169" y="90" width="3" height="9" rx="1.5"></rect>
                <rect id="矩形备份-31" fill="#D8D8D8" opacity="0.228457496" x="212" y="90" width="3" height="9" rx="1.5"></rect>
                <rect id="矩形备份-12" fill="#F3F3F3" x="0" y="86" width="384" height="6" rx="3"></rect>
                <rect id="矩形备份-13" fill="#6AB8C1" x="0" y="86" width="48" height="7" rx="3.5"></rect>
                <path d="M12.9145,6.723 L43.5,0 L74.0855,6.723 C75.7881991,7.09739623 77,8.5911262 77,10.3164545 L77,47.0867727 C77,54.4726854 73.2672798,61.3696895 67.0542222,65.4664091 L43.5,81 L19.9457778,65.4664091 C13.7338173,61.3704132 10.0017868,54.4750627 10,47.0904545 L10,10.3164545 C10,8.5911262 11.2118009,7.09739623 12.9145,6.723 Z" id="形状备份-2" fill="url(#linearGradient-1)" fill-rule="nonzero" opacity="0.12831915"></path>
                <path d="M18.2803772,12.5972609 L43.5,7.04347826 L68.7196228,12.5972609 C70.1236027,12.9065447 71.122807,14.1404956 71.122807,15.5657668 L71.122807,45.941247 C71.122807,52.0426532 68.04495,57.7401783 62.9219025,61.1244249 L43.5,73.9565217 L24.0780975,61.1244249 C18.9559546,57.7407761 15.8786663,52.044617 15.877193,45.9442885 L15.877193,15.5657668 C15.877193,14.1404956 16.8763973,12.9065447 18.2803772,12.5972609 Z" id="形状备份-3" fill="url(#linearGradient-2)" fill-rule="nonzero"></path>
                <g id="2备份" transform="translate(36.780284, 24.265959)" fill="#FFFFFF" fill-rule="nonzero">
                    <path d="M0,22.96875 L12.984375,22.96875 L12.984375,19.703125 L4.28125,19.703125 L11.609375,10.515625 C12.5260417,9.34895833 12.984375,8.015625 12.984375,6.515625 C12.9635417,4.640625 12.3333333,3.09375 11.09375,1.875 C9.875,0.645833333 8.28645833,0.0208333333 6.328125,0 C4.578125,0.0208333333 3.10416667,0.635416667 1.90625,1.84375 C0.71875,3.08333333 0.0833333333,4.65104167 0,6.546875 L3.25,6.546875 C3.36458333,5.50520833 3.72916667,4.69791667 4.34375,4.125 C4.9375,3.55208333 5.68229167,3.265625 6.578125,3.265625 C7.58854167,3.28645833 8.36979167,3.61458333 8.921875,4.25 C9.453125,4.88541667 9.71875,5.63020833 9.71875,6.484375 C9.71875,6.80729167 9.67708333,7.15104167 9.59375,7.515625 C9.46875,7.90104167 9.234375,8.31770833 8.890625,8.765625 L0,19.890625 L0,22.96875 Z" id="路径"></path>
                </g>
            </g>
        </g>
    </g>
</svg>