<?xml version="1.0" encoding="UTF-8"?>
<svg width="39px" height="47px" viewBox="0 0 39 47" version="1.1" xmlns="http://www.w3.org/2000/svg" xmlns:xlink="http://www.w3.org/1999/xlink">
    <title>编组 16</title>
    <defs>
        <linearGradient x1="-11.0038696%" y1="-13.3905632%" x2="50%" y2="100%" id="linearGradient-1">
            <stop stop-color="#FD4932" stop-opacity="0.490876311" offset="0%"></stop>
            <stop stop-color="#FD4932" stop-opacity="0.837730141" offset="100%"></stop>
        </linearGradient>
        <linearGradient x1="-10.7787633%" y1="-13.3905632%" x2="50%" y2="100%" id="linearGradient-2">
            <stop stop-color="#FD4932" stop-opacity="0.490876311" offset="0%"></stop>
            <stop stop-color="#FD4932" stop-opacity="0.837730141" offset="100%"></stop>
        </linearGradient>
    </defs>
    <g id="页面-1" stroke="none" stroke-width="1" fill="none" fill-rule="evenodd">
        <g id="画板" transform="translate(-3116.000000, -830.000000)" fill-rule="nonzero">
            <g id="编组-11" transform="translate(3116.000000, 830.000000)">
                <path d="M1.6965,3.901 L19.5,0 L37.3035,3.901 C38.2946233,4.11824226 39,4.98497446 39,5.98609091 L39,27.3219545 C39,31.6076076 36.8272225,35.6095729 33.2106667,37.9866818 L19.5,47 L5.78933333,37.9866818 C2.17341604,35.6099928 0.00104005976,31.608987 0,27.3240909 L0,5.98609091 C0,4.98497446 0.705376672,4.11824226 1.6965,3.901 Z" id="形状备份" fill="url(#linearGradient-1)" opacity="0.12831915"></path>
                <path d="M4.81992105,7.30952174 L19.5,4.08695652 L34.1800789,7.30952174 C34.997321,7.48898273 35.5789474,8.20497891 35.5789474,9.03198814 L35.5789474,26.6572668 C35.5789474,30.1975889 33.7873589,33.5035603 30.8052865,35.4672589 L19.5,42.9130435 L8.19471345,35.4672589 C5.21316761,33.5039071 3.42191022,30.1987284 3.42105263,26.6590316 L3.42105263,9.03198814 C3.42105263,8.20497891 4.00267901,7.48898273 4.81992105,7.30952174 Z" id="形状" fill="url(#linearGradient-2)"></path>
                <g id="8-10" transform="translate(7.321289, 16.906841)" fill="#FFFFFF">
                    <path d="M1.61328125,2.85058594 C1.62239583,2.3766276 1.77050781,2.01888021 2.05761719,1.77734375 C2.34016927,1.54492188 2.66601562,1.42871094 3.03515625,1.42871094 C3.41796875,1.42871094 3.75065104,1.54492188 4.03320312,1.77734375 C4.31119792,2.01888021 4.4547526,2.3766276 4.46386719,2.85058594 C4.4547526,3.3108724 4.31119792,3.66178385 4.03320312,3.90332031 C3.75065104,4.15397135 3.41796875,4.27929688 3.03515625,4.27929688 C2.66601562,4.27929688 2.34016927,4.15397135 2.05761719,3.90332031 C1.77050781,3.66178385 1.62239583,3.3108724 1.61328125,2.85058594 Z M0,7.13671875 C0.00911458333,8.03450521 0.312174479,8.75227865 0.909179688,9.29003906 C1.47884115,9.84147135 2.1875,10.1217448 3.03515625,10.1308594 C3.88736979,10.1217448 4.60742188,9.84147135 5.1953125,9.29003906 C5.77408854,8.75227865 6.06803385,8.03450521 6.07714844,7.13671875 C6.06803385,6.17513021 5.67610677,5.42773437 4.90136719,4.89453125 C5.19759115,4.63476562 5.4391276,4.33626302 5.62597656,3.99902344 C5.80371094,3.68457031 5.89257812,3.3108724 5.89257812,2.87792969 C5.88346354,2.0485026 5.61230469,1.36263021 5.07910156,0.8203125 C4.55045573,0.282552083 3.86914062,0.00911458333 3.03515625,0 C2.21484375,0.00911458333 1.54492188,0.282552083 1.02539062,0.8203125 C0.473958333,1.36263021 0.193684896,2.0485026 0.184570312,2.87792969 C0.184570312,3.3108724 0.282552083,3.68457031 0.478515625,3.99902344 C0.647135417,4.33626302 0.879557292,4.63476562 1.17578125,4.89453125 C0.401041667,5.42773437 0.00911458333,6.17513021 0,7.13671875 Z M1.42871094,7.12304688 C1.43782552,6.65820312 1.60188802,6.27994792 1.92089844,5.98828125 C2.22623698,5.70117188 2.59765625,5.5530599 3.03515625,5.54394531 C3.48632812,5.5530599 3.86458333,5.70117188 4.16992188,5.98828125 C4.47981771,6.27994792 4.63932292,6.65820312 4.6484375,7.12304688 C4.63932292,7.57877604 4.47981771,7.95247396 4.16992188,8.24414062 C3.86458333,8.54947917 3.48632812,8.70214844 3.03515625,8.70214844 C2.59765625,8.70214844 2.22623698,8.54947917 1.92089844,8.24414062 C1.60188802,7.95247396 1.43782552,7.57877604 1.42871094,7.12304688 Z" id="形状"></path>
                    <polygon id="路径" points="6.54355468 6.88378906 10.7544922 6.88378906 10.7544922 5.45507812 6.54355468 5.45507812"></polygon>
                    <polygon id="路径" points="13.6066406 1.59277344 13.6066406 10.0488281 15.0353516 10.0488281 15.0353516 0.08203125 13.6066406 0.08203125 12.1916016 1.11425781 12.1916016 2.63183594"></polygon>
                    <path d="M21.7703125,7.17773438 C21.7429687,8.18489583 21.2758463,8.69303385 20.3689453,8.70214844 C19.457487,8.69303385 18.9926432,8.18489583 18.974414,7.17773438 L18.974414,2.953125 C18.9926432,1.95507812 19.457487,1.4469401 20.3689453,1.42871094 C21.2758463,1.4469401 21.7429687,1.95507812 21.7703125,2.953125 L21.7703125,7.17773438 Z M17.5457031,7.25976562 C17.5548177,8.17578125 17.848763,8.88216146 18.427539,9.37890625 C18.9698568,9.87109375 19.6169922,10.1217448 20.3689453,10.1308594 C21.1436849,10.1217448 21.8022135,9.87109375 22.3445312,9.37890625 C22.8959635,8.88216146 23.1807943,8.17578125 23.1990234,7.25976562 L23.1990234,2.86425781 C23.1807943,1.9436849 22.8959635,1.23502604 22.3445312,0.73828125 C21.8022135,0.24609375 21.1436849,0 20.3689453,0 C19.6169922,0 18.9698568,0.24609375 18.427539,0.73828125 C17.848763,1.23502604 17.5548177,1.9436849 17.5457031,2.86425781 L17.5457031,7.25976562 Z" id="形状"></path>
                </g>
            </g>
        </g>
    </g>
</svg>