<svg width="447" height="204" viewBox="0 0 447 204" fill="none" xmlns="http://www.w3.org/2000/svg">
<g clip-path="url(#clip0_7155_13008)">
<g filter="url(#filter0_d_7155_13008)">
<rect width="447" height="328" rx="16" fill="#E0F2FB"/>
<path d="M397.684 233.826L433.64 213.332C435.201 212.442 436.164 210.784 436.164 208.988V202.77L151.344 47.9208C149.041 46.6688 146.307 46.4829 143.856 47.4118L106.448 61.5875V69.9821C106.448 71.7755 107.408 73.4316 108.965 74.3221L387.767 233.819C390.838 235.576 394.61 235.579 397.684 233.826Z" fill="#76C4FF"/>
<path d="M434.822 201.013L152.085 39.7515C149.371 38.2033 146.047 38.1739 143.306 39.6739L109.533 58.1537C106.098 60.0329 106.058 64.9513 109.461 66.8864L387.828 225.182C390.868 226.91 394.589 226.926 397.642 225.223L434.805 204.497C436.166 203.739 436.175 201.785 434.822 201.013Z" fill="#99D3FF"/>
<path d="M159.012 44.2109L114.268 68.5378" stroke="#88CBFE"/>
<path d="M172.48 52.0303L127.736 76.3572" stroke="#88CBFE"/>
<path d="M186.379 60.7183L141.635 85.0452" stroke="#88CBFE"/>
<path d="M299.324 124.142L256.318 150.641" stroke="#88CBFE"/>
<path d="M330.602 141.52L288.029 168.453" stroke="#88CBFE"/>
<path d="M314.965 131.961L272.827 158.46" stroke="#88CBFE"/>
<path d="M344.504 150.207L302.801 176.705" stroke="#88CBFE"/>
<path d="M358.406 157.157L315.4 184.091" stroke="#88CBFE"/>
<path d="M373.176 165.846L330.169 192.779" stroke="#88CBFE"/>
<path d="M388.379 174.968L346.241 201.033" stroke="#88CBFE"/>
<path d="M401.848 182.788L359.71 209.287" stroke="#88CBFE"/>
<path d="M416.184 191.042L374.046 217.106" stroke="#88CBFE"/>
<path d="M430.082 198.86L387.51 224.925" stroke="#88CBFE"/>
<path d="M165.961 86.7842L155.535 92.8659" stroke="#88CBFE"/>
<path d="M310.344 133.359L282.396 117.994C281.163 117.316 279.664 117.336 278.45 118.046L251.356 133.892C250.689 134.282 250.698 135.249 251.372 135.627L278.45 150.818C279.666 151.5 281.15 151.5 282.365 150.817L310.352 135.107C311.036 134.723 311.032 133.737 310.344 133.359Z" fill="#C1EAFF"/>
<path d="M280.09 113.717L265.765 121.675L280.09 129.633L294.414 121.675L280.09 113.717Z" fill="#E0F2FB"/>
<path d="M294.414 135.999V121.674L280.09 129.632V144.753L294.414 135.999Z" fill="#D2EDFF"/>
<path d="M265.766 135.999V121.674L280.09 129.632V144.753L265.766 135.999Z" fill="#C2E1F6"/>
<path d="M298.457 79.8335V123.274L289.769 118.496V105.029C289.769 102.944 287.742 102.712 286.728 102.857L247.631 125.881C245.546 127.271 245.025 130.804 245.025 132.397V151.945L238.074 155.421C238.074 155.421 230.255 158.896 223.304 155.421L162.487 116.758V82.4399L298.457 79.8335Z" fill="url(#paint0_linear_7155_13008)"/>
<path d="M295.975 77.7051L235.918 43.1268C232.428 41.1173 228.119 41.1758 224.684 43.2794L166.436 78.9563C163.861 80.5336 163.896 84.2864 166.499 85.8162L219.615 117.022C226.184 120.881 234.328 120.88 240.895 117.019L296.007 84.6198C298.651 83.0653 298.634 79.2356 295.975 77.7051Z" fill="#D2F0FF"/>
<path d="M274.625 79.5741L234.378 56.4134C232.475 55.3182 230.126 55.3501 228.253 56.4966L189.224 80.3897C187.936 81.1783 187.953 83.0553 189.256 83.8201L228.252 106.719C230.128 107.821 232.454 107.82 234.329 106.718L274.64 83.0319C275.963 82.2547 275.954 80.3392 274.625 79.5741Z" fill="#BAE8FF"/>
<path d="M379.368 173.324L351.42 157.959C350.187 157.281 348.688 157.301 347.473 158.011L320.38 173.857C319.713 174.247 319.721 175.214 320.395 175.592L347.474 190.783C348.69 191.465 350.173 191.465 351.389 190.782L379.376 175.072C380.06 174.688 380.055 173.702 379.368 173.324Z" fill="#C1EAFF"/>
<path d="M349.113 153.682L334.789 161.64L349.113 169.598L363.438 161.64L349.113 153.682Z" fill="#E0F2FB"/>
<path d="M363.438 175.964V161.639L349.113 169.597V184.717L363.438 175.964Z" fill="#D2EDFF"/>
<path d="M334.789 175.964V161.639L349.113 169.597V184.717L334.789 175.964Z" fill="#C2E1F6"/>
<path d="M89.5938 109.779L95.2194 31.019H110.087L115.713 109.779C111.855 113.636 105.533 114.601 102.854 114.601C97.0679 115.243 91.6029 111.654 89.5938 109.779Z" fill="#A4D8FF"/>
<path d="M102.856 36.0367C104.69 36.0367 106.396 35.5428 107.672 34.6918C108.942 33.8454 109.883 32.5664 109.883 31.0183C109.883 29.4703 108.942 28.1913 107.672 27.3449C106.396 26.4939 104.69 26 102.856 26C101.021 26 99.3154 26.4939 98.0388 27.3449C96.7693 28.1913 95.8281 29.4703 95.8281 31.0183C95.8281 32.5664 96.7693 33.8454 98.0388 34.6918C99.3154 35.5428 101.021 36.0367 102.856 36.0367Z" fill="#76C4FF" stroke="#E0F2FB" stroke-width="2"/>
<path d="M111.294 41.8677C111.294 43.865 107.336 45.4842 102.454 45.4842C97.5712 45.4842 93.6133 43.865 93.6133 41.8677" stroke="#E0F2FB"/>
<path d="M112.098 50.3076C112.098 52.5269 107.96 54.326 102.855 54.326C97.7511 54.326 93.6133 52.5269 93.6133 50.3076" stroke="#E0F2FB"/>
<path d="M59.4297 120.039L65.0554 41.2793H79.9232L85.5489 120.039C81.6913 123.896 75.3691 124.861 72.6902 124.861C66.9038 125.504 61.4389 121.914 59.4297 120.039Z" fill="#A4D8FF"/>
<path d="M72.6916 46.2969C74.5259 46.2969 76.2318 45.8031 77.5084 44.952C78.7779 44.1057 79.7191 42.8266 79.7191 41.2786C79.7191 39.7306 78.7779 38.4515 77.5084 37.6051C76.2318 36.7541 74.5259 36.2603 72.6916 36.2603C70.8572 36.2603 69.1513 36.7541 67.8748 37.6051C66.6052 38.4515 65.6641 39.7306 65.6641 41.2786C65.6641 42.8266 66.6052 44.1057 67.8748 44.952C69.1513 45.8031 70.8572 46.2969 72.6916 46.2969Z" fill="#76C4FF" stroke="#E0F2FB" stroke-width="2"/>
<path d="M81.1299 52.1289C81.1299 54.1262 77.172 55.7454 72.2896 55.7454C67.4072 55.7454 63.4492 54.1262 63.4492 52.1289" stroke="#E0F2FB"/>
<path d="M81.9336 60.5679C81.9336 62.7871 77.7957 64.5862 72.6914 64.5862C67.5871 64.5862 63.4492 62.7871 63.4492 60.5679" stroke="#E0F2FB"/>
<path d="M367.167 120.596L356.985 126.252L367.167 131.909L377.348 126.252L367.167 120.596Z" fill="#E0F2FB"/>
<path d="M377.348 136.434V126.253L367.167 131.909V142.656L377.348 136.434Z" fill="#D2EDFF"/>
<path d="M356.984 136.434V126.253L367.165 131.909V142.656L356.984 136.434Z" fill="#C2E1F6"/>
<path d="M379.518 128.008L369.337 133.664L379.518 139.321L389.699 133.664L379.518 128.008Z" fill="#E0F2FB"/>
<path d="M389.699 143.944V133.763L379.518 139.419V150.166L389.699 143.944Z" fill="#D2EDFF"/>
<path d="M369.336 143.944V133.763L379.517 139.419V150.166L369.336 143.944Z" fill="#C2E1F6"/>
<path d="M374.577 113.186L364.396 118.842L374.577 124.498L384.758 118.842L374.577 113.186Z" fill="#E0F2FB"/>
<path d="M384.758 129.024V118.843L374.577 124.499V135.246L384.758 129.024Z" fill="#D2EDFF"/>
<path d="M364.395 129.024V118.843L374.576 124.499V135.246L364.395 129.024Z" fill="#C2E1F6"/>
<path d="M166.321 118.656L175.746 113.27C178.978 113.27 179.187 116.262 178.888 117.758L161.384 128.081L158.691 123.144L166.321 118.656Z" fill="#93D1FF"/>
<path d="M174.402 125.837L183.827 120.451C187.059 120.451 187.268 123.443 186.969 124.939L163.63 137.955L160.938 133.018L174.402 125.837Z" fill="#93D1FF"/>
<path d="M47.3867 184.184V140.648L82.3944 161.743V206.624L47.3867 184.184Z" fill="#BAE8FF"/>
<path d="M167.221 156.806L166.772 112.373L82.3945 161.743V206.624L167.221 156.806Z" fill="#D2F0FF"/>
<path d="M47.3867 140.648L132.213 90.8291L166.772 112.372L82.3944 161.742L47.3867 140.648Z" fill="#E0F2FB"/>
<path d="M129.968 99.8057L62.8477 137.726L86.8759 152.567L150.164 115.963L153.306 114.168L129.968 99.8057Z" fill="#D2F0FF"/>
<path d="M44.6929 177.451L54.118 172.065C57.3495 172.065 57.559 175.057 57.2597 176.553L49.1811 181.041C48.2834 181.49 47.8346 182.388 47.8346 183.285V195.852C45.3212 199.084 42.8976 197.199 42 195.852V182.388C42 179.874 43.3464 178.348 44.6929 177.451Z" fill="#76C4FF"/>
<path d="M55.0171 183.734L64.4423 178.348C67.6737 178.348 67.8832 181.34 67.584 182.836L59.5053 187.324C58.6076 187.773 58.1588 188.671 58.1588 189.569V202.135C55.6455 205.367 53.2219 203.482 52.3242 202.135V188.671C52.3242 186.158 53.6707 184.632 55.0171 183.734Z" fill="#76C4FF"/>
<path d="M160.488 156.356V125.837L155.551 128.53V159.947L160.488 156.356Z" fill="#BAE8FF"/>
<path d="M150.613 160.395V131.671L145.676 134.364V163.986L150.613 160.395Z" fill="#BAE8FF"/>
<path d="M142.535 164.883V136.159L137.598 138.852V168.474L142.535 164.883Z" fill="#BAE8FF"/>
<path d="M133.558 170.27V141.545L128.621 144.238V173.86L133.558 170.27Z" fill="#BAE8FF"/>
<path d="M124.582 174.758V146.034L119.645 148.727V178.348L124.582 174.758Z" fill="#BAE8FF"/>
<path d="M67.4414 139.749L86.1693 152.213L150.164 115.994L129.07 104.293L67.4414 139.749Z" fill="#BAE8FF"/>
</g>
</g>
<defs>
<filter id="filter0_d_7155_13008" x="-16" y="-16" width="479" height="360" filterUnits="userSpaceOnUse" color-interpolation-filters="sRGB">
<feFlood flood-opacity="0" result="BackgroundImageFix"/>
<feColorMatrix in="SourceAlpha" type="matrix" values="0 0 0 0 0 0 0 0 0 0 0 0 0 0 0 0 0 0 127 0" result="hardAlpha"/>
<feOffset/>
<feGaussianBlur stdDeviation="8"/>
<feComposite in2="hardAlpha" operator="out"/>
<feColorMatrix type="matrix" values="0 0 0 0 0.101961 0 0 0 0 0.14902 0 0 0 0 0.172549 0 0 0 0.07 0"/>
<feBlend mode="normal" in2="BackgroundImageFix" result="effect1_dropShadow_7155_13008"/>
<feBlend mode="normal" in="SourceGraphic" in2="effect1_dropShadow_7155_13008" result="shape"/>
</filter>
<linearGradient id="paint0_linear_7155_13008" x1="295.416" y1="89.3905" x2="167.266" y2="118.061" gradientUnits="userSpaceOnUse">
<stop stop-color="#98D3FF"/>
<stop offset="1" stop-color="#76C4FF"/>
</linearGradient>
<clipPath id="clip0_7155_13008">
<rect width="447" height="204" fill="white"/>
</clipPath>
</defs>
</svg>
