<svg width="447" height="204" viewBox="0 0 447 204" fill="none" xmlns="http://www.w3.org/2000/svg">
<g clip-path="url(#clip0_7155_12921)">
<rect width="447" height="328" rx="16" fill="#E0F2FB"/>
<path d="M421.594 115.764V94.3184L417.557 91.0386V118.539L421.594 115.764Z" fill="#BAE8FF"/>
<path d="M409.233 113.241V86.2451L417.559 91.5434V118.287L409.233 113.241Z" fill="#D2F0FF"/>
<path d="M423.109 117.783V115.764L417.307 119.044L407.467 113.494V115.512L417.307 121.315L423.109 117.783Z" fill="#81BBE3"/>
<path d="M417.307 119.044L423.109 115.764L422.1 115.159L417.307 118.035L408.728 112.989L407.467 113.493L417.307 119.044Z" fill="#A6D5F5"/>
<path d="M359.273 80.4385V58.9932L355.237 55.7134V83.2137L359.273 80.4385Z" fill="#BAE8FF"/>
<path d="M346.912 77.9157V50.9199L355.238 56.2182V82.9616L346.912 77.9157Z" fill="#D2F0FF"/>
<path d="M360.789 82.457V80.4386L354.986 83.7185L345.147 78.168V80.1863L354.986 85.9892L360.789 82.457Z" fill="#81BBE3"/>
<path d="M354.986 83.7182L360.789 80.4384L359.78 79.8328L354.986 82.709L346.408 77.6631L345.147 78.1677L354.986 83.7182Z" fill="#A6D5F5"/>
<path d="M296.703 44.1123V22.6671L292.666 19.3872V46.8875L296.703 44.1123Z" fill="#BAE8FF"/>
<path d="M284.342 41.5895V14.5938L292.668 19.892V46.6354L284.342 41.5895Z" fill="#D2F0FF"/>
<path d="M298.219 46.1313V44.113L292.416 47.3928L282.576 41.8423V43.8607L292.416 49.6635L298.219 46.1313Z" fill="#81BBE3"/>
<path d="M292.416 47.3925L298.219 44.1127L297.21 43.5072L292.416 46.3833L283.838 41.3374L282.576 41.842L292.416 47.3925Z" fill="#A6D5F5"/>
<path d="M443.038 108.446L262.646 2.98615V-0.546003L300.743 -19.4683L480.883 83.4688V87.001L443.038 108.446Z" fill="url(#paint0_linear_7155_12921)"/>
<path d="M300.491 -23L480.883 83.2169L443.038 104.662L262.394 -0.545589L300.491 -23Z" fill="url(#paint1_linear_7155_12921)"/>
<path d="M477.855 84.9838L295.697 -19.9717L266.935 -2.8155L447.58 101.888L477.855 84.9838Z" fill="url(#paint2_linear_7155_12921)"/>
<path fill-rule="evenodd" clip-rule="evenodd" d="M282.796 -9.956L284.926 -8.73631L286.286 -9.61039L284.157 -10.8301L282.796 -9.956ZM287.055 -7.51666L291.313 -5.07736L292.673 -5.95144L288.415 -8.39074L287.055 -7.51666ZM293.442 -3.85771L297.7 -1.41842L299.061 -2.2925L294.802 -4.73179L293.442 -3.85771ZM299.83 -0.198771L304.088 2.24052L305.448 1.36645L301.19 -1.07285L299.83 -0.198771ZM306.217 3.46017L310.475 5.89947L311.836 5.02539L307.577 2.58609L306.217 3.46017ZM312.604 7.11911L316.863 9.55841L318.223 8.68433L313.965 6.24503L312.604 7.11911ZM318.992 10.7781L323.25 13.2174L324.61 12.3433L320.352 9.90398L318.992 10.7781ZM325.379 14.437L329.637 16.8763L330.998 16.0022L326.739 13.5629L325.379 14.437ZM331.767 18.0959L336.025 20.5352L337.385 19.6612L333.127 17.2219L331.767 18.0959ZM338.154 21.7549L342.412 24.1942L343.773 23.3201L339.514 20.8808L338.154 21.7549ZM344.541 25.4138L348.8 27.8531L350.16 26.9791L345.902 24.5398L344.541 25.4138ZM350.929 29.0728L355.187 31.5121L356.547 30.638L352.289 28.1987L350.929 29.0728ZM357.316 32.7317L361.574 35.171L362.935 34.2969L358.676 31.8576L357.316 32.7317ZM363.703 36.3907L367.962 38.83L369.322 37.9559L365.064 35.5166L363.703 36.3907ZM370.091 40.0496L374.349 42.4889L375.709 41.6148L371.451 39.1755L370.091 40.0496ZM376.478 43.7085L380.737 46.1478L382.097 45.2738L377.839 42.8345L376.478 43.7085ZM382.866 47.3675L387.124 49.8068L388.484 48.9327L384.226 46.4934L382.866 47.3675ZM389.253 51.0264L393.511 53.4657L394.872 52.5917L390.613 50.1524L389.253 51.0264ZM395.64 54.6854L399.899 57.1247L401.259 56.2506L397.001 53.8113L395.64 54.6854ZM402.028 58.3443L406.286 60.7836L407.646 59.9095L403.388 57.4702L402.028 58.3443ZM408.415 62.0033L412.674 64.4426L414.034 63.5685L409.776 61.1292L408.415 62.0033ZM414.803 65.6622L419.061 68.1015L420.421 67.2274L416.163 64.7881L414.803 65.6622ZM421.19 69.3212L425.448 71.7605L426.809 70.8864L422.55 68.4471L421.19 69.3212ZM427.577 72.9801L431.836 75.4194L433.196 74.5453L428.938 72.106L427.577 72.9801ZM433.965 76.6391L438.223 79.0784L439.583 78.2043L435.325 75.765L433.965 76.6391ZM440.352 80.298L444.61 82.7373L445.971 81.8632L441.713 79.4239L440.352 80.298ZM446.74 83.957L450.998 86.3962L452.358 85.5222L448.1 83.0829L446.74 83.957ZM453.127 87.6159L457.385 90.0552L458.746 89.1811L454.487 86.7418L453.127 87.6159ZM459.514 91.2748L461.644 92.4945L463.004 91.6204L460.875 90.4008L459.514 91.2748Z" fill="#E0F2FB" fill-opacity="0.6"/>
<path d="M112.367 48.2812H193.256H337.34V52.8415L328.745 70.0692V183.569H120.962V70.0692L112.367 52.8415V48.2812Z" fill="#99D3FF"/>
<rect x="120.727" y="69.5615" width="207.492" height="5.3203" fill="#80C9FF"/>
<rect x="112.367" y="48.2812" width="224.973" height="3.04017" fill="#D2F0FF"/>
<path d="M224.596 27L160.25 69.5624H287.937L224.596 27Z" fill="#D2F0FF"/>
<path d="M225.358 33.8413L170.891 69.5633H278.817L225.358 33.8413Z" fill="#99D3FF"/>
<circle cx="224.853" cy="56.6417" r="8.36047" fill="#BAE8FF"/>
<rect x="126.016" y="69.3486" width="27.3001" height="9.10002" fill="#D2F0FF"/>
<rect x="262.516" y="69.3486" width="27.3001" height="9.10002" fill="#D2F0FF"/>
<rect x="160.391" y="69.3486" width="27.3001" height="9.10002" fill="#D2F0FF"/>
<rect x="296.891" y="69.3486" width="27.3001" height="9.10002" fill="#D2F0FF"/>
<rect x="131.07" y="78.4492" width="18.2" height="104.145" fill="#D2F0FF"/>
<rect x="267.57" y="78.4492" width="18.2" height="104.145" fill="#D2F0FF"/>
<rect x="165.449" y="78.4492" width="18.2" height="104.145" fill="#D2F0FF"/>
<rect x="301.949" y="78.4492" width="18.2" height="104.145" fill="#D2F0FF"/>
<rect x="199.012" y="91.604" width="51.6829" height="91.9652" fill="#80C9FF"/>
<path d="M203.57 96.1641H245.373V183.569H203.57V96.1641Z" fill="#BAE8FF"/>
<rect x="113.129" y="174.448" width="224.213" height="12.9207" fill="#80C9FF"/>
<path d="M362.031 194.645L364.163 167.851H371.166L373.297 194.645H362.031Z" fill="#9ED5FF"/>
<path d="M371.471 100.56H363.555C363.555 102.265 365.382 103.503 366.295 103.909L365.686 162.979H369.34L369.035 103.909C370.74 102.935 371.37 101.271 371.471 100.56Z" fill="#9ED5FF"/>
<path d="M367.529 81.228C363.753 81.9145 362.266 84.4314 361.351 85.6899C358.262 86.7195 359.635 86.7195 361.007 86.7195H373.363C376.933 86.7195 374.851 86.0331 373.363 85.6899C371.99 82.6695 369.588 81.5712 367.529 81.228Z" fill="#9ED5FF"/>
<path d="M363.41 100.793L361.008 86.7207H374.393L371.648 100.793H363.41Z" fill="#54ADF1"/>
<path d="M361.008 86.3765L363.754 101.478" stroke="#97CFFA"/>
<path d="M374.047 86.3765L371.301 101.478" stroke="#97CFFA"/>
<path d="M367.531 79.8555V100.792" stroke="#97CFFA"/>
<path d="M365.687 126.615V127.833H364.469V129.356C366.479 129.758 368.548 129.758 370.558 129.356V127.833H369.34V126.615H365.687Z" fill="#97CFFA"/>
<path d="M364.528 162.979V165.194H362.336V167.962L363.484 168.228C366.724 168.979 370.103 168.888 373.297 167.962V165.194H371.105V162.979H364.528Z" fill="#97CFFA"/>
<path d="M372.69 185.206H362.642C360.206 186.18 361.627 187.844 362.642 188.555C367.27 189.529 371.269 188.961 372.69 188.555C374.882 186.85 373.603 185.612 372.69 185.206Z" fill="#97CFFA"/>
<path d="M375.125 193.428H360.205C357.769 194.646 357.465 196.777 357.769 198.299H377.256C377.5 195.864 375.937 194.037 375.125 193.428Z" fill="#97CFFA"/>
<path d="M73.3594 194.645L75.4907 167.851H82.4938L84.6252 194.645H73.3594Z" fill="#9ED5FF"/>
<path d="M82.7993 100.56H74.8828C74.8828 102.265 76.7097 103.503 77.6231 103.909L77.0142 162.979H80.6679L80.3635 103.909C82.0686 102.935 82.6978 101.271 82.7993 100.56Z" fill="#9ED5FF"/>
<path d="M78.8567 81.228C75.0813 81.9145 73.594 84.4314 72.6788 85.6899C69.5898 86.7195 70.9627 86.7195 72.3356 86.7195H84.6914C88.2608 86.7195 86.1787 86.0331 84.6914 85.6899C83.3185 82.6695 80.916 81.5712 78.8567 81.228Z" fill="#9ED5FF"/>
<path d="M74.7385 100.793L72.3359 86.7207H85.7214L82.9757 100.793H74.7385Z" fill="#54ADF1"/>
<path d="M72.3359 86.3765L75.0817 101.478" stroke="#97CFFA"/>
<path d="M85.375 86.3765L82.6293 101.478" stroke="#97CFFA"/>
<path d="M78.8594 79.8555V100.792" stroke="#97CFFA"/>
<path d="M77.0148 126.615V127.833H75.7969V129.356C77.8068 129.758 79.8765 129.758 81.8865 129.356V127.833H80.6686V126.615H77.0148Z" fill="#97CFFA"/>
<path d="M75.8563 162.979V165.194H73.6641V167.962L74.8126 168.228C78.0525 168.979 81.4309 168.888 84.6254 167.962V165.194H82.4331V162.979H75.8563Z" fill="#97CFFA"/>
<path d="M84.0178 185.206H73.97C71.5341 186.18 72.955 187.844 73.97 188.555C78.5981 189.529 82.5969 188.961 84.0178 188.555C86.2101 186.85 84.9313 185.612 84.0178 185.206Z" fill="#97CFFA"/>
<path d="M86.4528 193.428H71.5333C69.0974 194.646 68.793 196.777 69.0974 198.299H88.5842C88.8278 195.864 87.2648 194.037 86.4528 193.428Z" fill="#97CFFA"/>
</g>
<defs>
<linearGradient id="paint0_linear_7155_12921" x1="445.561" y1="86.2442" x2="403.175" y2="83.2167" gradientUnits="userSpaceOnUse">
<stop offset="0.0165001" stop-color="#D9F2FF"/>
<stop offset="1" stop-color="#B3DAEE"/>
</linearGradient>
<linearGradient id="paint1_linear_7155_12921" x1="396.564" y1="33.2432" x2="369.459" y2="65.0918" gradientUnits="userSpaceOnUse">
<stop stop-color="#CDEDFD"/>
<stop offset="1" stop-color="#D2F0FF"/>
</linearGradient>
<linearGradient id="paint2_linear_7155_12921" x1="445.562" y1="74.6394" x2="284.848" y2="1.22085" gradientUnits="userSpaceOnUse">
<stop stop-color="#7BC3FA"/>
<stop offset="1" stop-color="#4FAAEF"/>
</linearGradient>
<clipPath id="clip0_7155_12921">
<rect width="447" height="204" fill="white"/>
</clipPath>
</defs>
</svg>
