<svg width="869" height="130" viewBox="0 0 869 130" fill="none" xmlns="http://www.w3.org/2000/svg">
<path d="M76 44L71 41.1132L71 46.8867L76 44ZM52 44.5L71.5 44.5L71.5 43.5L52 43.5L52 44.5Z" fill="#96A0AD"/>
<path d="M334 44L329 41.1132L329 46.8867L334 44ZM310 44.5L329.5 44.5L329.5 43.5L310 43.5L310 44.5Z" fill="#96A0AD"/>
<path d="M520 114L515 111.113L515 116.887L520 114ZM462 114.5L515.5 114.5L515.5 113.5L462 113.5L462 114.5Z" fill="#96A0AD"/>
<path d="M228 44L223 41.1132L223 46.8867L228 44ZM204 44.5L223.5 44.5L223.5 43.5L204 43.5L204 44.5Z" fill="#96A0AD"/>
<path d="M658 114L653 111.113L653 116.887L658 114ZM634 114.5L653.5 114.5L653.5 113.5L634 113.5L634 114.5Z" fill="#96A0AD"/>
<path d="M817 114L812 111.113L812 116.887L817 114ZM793 114.5L812.5 114.5L812.5 113.5L793 113.5L793 114.5Z" fill="#96A0AD"/>
<rect x="76.5" y="28.5" width="127" height="31" rx="7.5" fill="#02ADEC" fill-opacity="0.1"/>
<rect x="76.5" y="28.5" width="127" height="31" rx="7.5" stroke="#02ADEC" stroke-dasharray="2 2"/>
<path d="M88.6049 39.004H95.1709V39.942L91.4889 49H90.2709L93.9949 40.054H88.6049V39.004ZM99.9852 38.808C101.175 38.808 102.071 39.326 102.687 40.39C103.219 41.286 103.485 42.49 103.485 44.002C103.485 45.514 103.219 46.718 102.687 47.614C102.071 48.664 101.175 49.196 99.9852 49.196C98.7812 49.196 97.8852 48.664 97.2832 47.614C96.7512 46.718 96.4852 45.514 96.4852 44.002C96.4852 42.49 96.7512 41.286 97.2832 40.39C97.8852 39.326 98.7812 38.808 99.9852 38.808ZM99.9852 39.788C99.0892 39.788 98.4452 40.264 98.0532 41.23C97.7732 41.902 97.6332 42.826 97.6332 44.002C97.6332 45.164 97.7732 46.088 98.0532 46.774C98.4452 47.726 99.0892 48.216 99.9852 48.216C100.881 48.216 101.525 47.726 101.917 46.774C102.197 46.088 102.351 45.164 102.351 44.002C102.351 42.826 102.197 41.902 101.917 41.23C101.525 40.264 100.881 39.788 99.9852 39.788ZM106.028 47.334C106.252 47.334 106.462 47.418 106.63 47.586C106.798 47.754 106.882 47.95 106.882 48.202C106.882 48.44 106.798 48.636 106.63 48.804C106.462 48.972 106.252 49.056 106.028 49.056C105.776 49.056 105.58 48.972 105.426 48.804C105.258 48.636 105.174 48.44 105.174 48.202C105.174 47.95 105.258 47.754 105.426 47.586C105.58 47.418 105.776 47.334 106.028 47.334ZM109.439 38.402H120.345V39.382H118.007V43.092H121.073V44.058H118.007V50.26H116.985V44.058H112.939C112.813 45.5 112.547 46.69 112.127 47.642C111.595 48.818 110.713 49.728 109.481 50.372L108.935 49.504C110.069 48.86 110.867 48.006 111.315 46.942C111.609 46.13 111.805 45.178 111.917 44.058H108.683V43.092H111.973C111.973 42.91 111.987 42.742 111.987 42.602V39.382H109.439V38.402ZM113.023 39.382V42.602C113.023 42.77 113.009 42.938 113.009 43.092H116.985V39.382H113.023ZM128.367 39.606H123.565V38.64H134.219V39.606H129.403V48.468H135.129V49.434H122.627V48.468H128.367V39.606ZM139.637 44.296V37.646H140.631V50.358H139.637V45.486C138.797 46.382 137.831 47.236 136.767 48.02L136.459 46.97C137.621 46.2 138.685 45.304 139.637 44.296ZM137.593 39.032C138.125 40.152 138.587 41.356 138.979 42.63L138.097 43.036C137.663 41.636 137.173 40.404 136.641 39.34L137.593 39.032ZM147.043 37.842C147.799 38.682 148.373 39.424 148.779 40.054L147.995 40.614C147.575 39.914 146.987 39.158 146.259 38.332L147.043 37.842ZM145.489 37.604C145.489 38.64 145.475 39.872 145.447 41.328H148.863V42.294H145.559C146.161 45.43 147.421 47.866 149.353 49.574L148.667 50.33C146.903 48.664 145.713 46.55 145.097 44.002C144.509 46.536 143.403 48.664 141.807 50.372L141.135 49.616C143.011 47.516 144.089 45.066 144.369 42.294H141.555V41.328H144.425C144.467 39.704 144.495 38.458 144.495 37.604H145.489ZM154.925 38.22H161.967V43.932H160.049V48.762C160.049 49.042 160.203 49.196 160.511 49.196H161.491C161.771 49.196 161.967 49.084 162.079 48.888C162.233 48.636 162.331 47.922 162.387 46.732L163.297 47.012C163.199 48.482 163.017 49.378 162.765 49.686C162.527 49.966 162.163 50.106 161.673 50.106H160.217C159.461 50.106 159.097 49.728 159.097 48.972V43.932H157.739C157.571 46.9 156.283 49.056 153.889 50.4L153.329 49.518C155.485 48.398 156.633 46.536 156.773 43.932H154.925V38.22ZM160.987 42.994V39.186H155.905V42.994H160.987ZM151.425 38.066C152.433 39.242 153.217 40.264 153.777 41.132L152.979 41.692C152.405 40.754 151.621 39.718 150.613 38.57L151.425 38.066ZM152.979 43.82L153.861 44.17C153.119 46.27 152.293 48.244 151.383 50.092L150.473 49.686C151.439 47.782 152.279 45.822 152.979 43.82ZM171.403 41.58V43.148H175.239V41.58H171.403ZM175.239 40.684V39.06H171.403V40.684H175.239ZM176.387 44.772L177.031 45.402C176.429 46.158 175.757 46.746 175.029 47.138C175.617 47.992 176.401 48.72 177.381 49.336L176.821 50.218C174.623 48.734 173.293 46.676 172.831 44.058H171.403V48.832C172.187 48.594 172.985 48.286 173.769 47.908L174.021 48.846C173.041 49.266 171.795 49.672 170.311 50.064L170.087 49.21C170.311 49.126 170.423 49.014 170.423 48.846V38.15H176.219V44.058H173.727C173.895 44.926 174.175 45.71 174.567 46.41C175.211 46.046 175.813 45.5 176.387 44.772ZM165.061 38.164H169.359V42.504H168.057V44.702H169.541V45.64H168.057V48.216C168.617 48.048 169.163 47.88 169.681 47.712V48.678C168.281 49.168 166.629 49.63 164.739 50.064L164.459 49.098L165.103 48.958V43.904H166.013V48.748C166.391 48.664 166.755 48.566 167.119 48.482V42.504H165.061V38.164ZM168.407 41.58V39.088H166.027V41.58H168.407ZM179.005 38.136H183.107V42.56H181.861V44.73H183.303V45.71H181.861V48.16C182.309 47.992 182.757 47.838 183.177 47.67V48.678C181.861 49.21 180.335 49.686 178.599 50.134L178.305 49.168C178.543 49.112 178.781 49.056 179.005 49V43.932H179.901V48.762L180.909 48.468V42.56H179.005V38.136ZM182.127 41.622V39.074H179.971V41.622H182.127ZM190.961 39.046V41.72H190.009V39.956H184.759V41.72H183.807V39.046H186.789C186.621 38.528 186.425 38.066 186.229 37.646L187.251 37.478C187.433 37.94 187.615 38.458 187.783 39.046H190.961ZM184.773 45.85L185.697 46.046C185.333 47.53 184.815 48.804 184.143 49.896L183.275 49.35C183.961 48.286 184.465 47.124 184.773 45.85ZM189.841 45.738C190.415 46.802 190.919 47.95 191.339 49.182L190.429 49.588C189.981 48.244 189.491 47.068 188.959 46.032L189.841 45.738ZM186.859 50.176H185.669L185.445 49.196C185.809 49.238 186.173 49.266 186.509 49.266C186.845 49.266 187.013 49.042 187.013 48.608V44.87H183.863V43.918H190.933V44.87H188.035V48.846C188.035 49.728 187.643 50.176 186.859 50.176ZM184.885 41.468H189.883V42.406H184.885V41.468Z" fill="#1A262C"/>
<rect x="334.5" y="28.5" width="124" height="31" rx="7.5" fill="#02ADEC" fill-opacity="0.1"/>
<rect x="334.5" y="28.5" width="124" height="31" rx="7.5" stroke="#02ADEC" stroke-dasharray="2 2"/>
<path d="M346.493 39.004H353.059V39.942L349.377 49H348.159L351.883 40.054H346.493V39.004ZM356.893 39.004H357.789V49H356.641V40.404C356.011 41.048 355.227 41.496 354.289 41.776V40.628C354.737 40.502 355.213 40.306 355.689 40.026C356.165 39.718 356.557 39.382 356.893 39.004ZM361.14 47.334C361.364 47.334 361.574 47.418 361.742 47.586C361.91 47.754 361.994 47.95 361.994 48.202C361.994 48.44 361.91 48.636 361.742 48.804C361.574 48.972 361.364 49.056 361.14 49.056C360.888 49.056 360.692 48.972 360.538 48.804C360.37 48.636 360.286 48.44 360.286 48.202C360.286 47.95 360.37 47.754 360.538 47.586C360.692 47.418 360.888 47.334 361.14 47.334ZM370.991 41.356L371.649 41.93C370.921 42.784 370.039 43.526 368.975 44.17L368.401 43.4C369.423 42.812 370.291 42.14 370.991 41.356ZM375.653 44.086C374.757 43.232 373.861 42.49 372.951 41.86L373.595 41.244C374.365 41.72 375.275 42.448 376.325 43.4L375.653 44.086ZM370.151 46.382C369.731 46.718 369.297 47.026 368.849 47.306L368.233 46.508C369.941 45.486 371.103 44.24 371.719 42.77L372.643 42.966C372.447 43.498 372.195 44.002 371.887 44.464H375.037V45.276C374.701 46.382 374.057 47.334 373.133 48.132C374.057 48.692 375.177 49.14 376.507 49.462L376.171 50.316C374.631 49.952 373.343 49.434 372.335 48.734C371.327 49.406 370.081 49.952 368.597 50.372L368.121 49.518C369.493 49.168 370.641 48.706 371.565 48.132C370.977 47.614 370.515 47.026 370.151 46.382ZM372.335 47.572C373.119 46.928 373.679 46.186 374.015 45.332H371.229C371.089 45.486 370.949 45.626 370.823 45.766C371.187 46.452 371.691 47.054 372.335 47.572ZM363.683 39.9H365.699C365.531 39.158 365.349 38.486 365.153 37.884L366.147 37.716C366.315 38.346 366.483 39.074 366.637 39.9H368.401V40.852H363.683V39.9ZM364.985 41.706C365.209 43.33 365.405 45.178 365.587 47.264L364.761 47.474C364.593 45.57 364.383 43.75 364.117 41.986L364.985 41.706ZM368.415 47.348V48.328C366.987 48.776 365.461 49.168 363.823 49.476L363.585 48.51C364.425 48.37 365.251 48.216 366.063 48.02C366.483 45.99 366.791 43.834 366.973 41.552L367.925 41.692C367.729 43.89 367.407 45.92 366.987 47.782C367.477 47.642 367.953 47.502 368.415 47.348ZM373.931 38.318C374.855 39.298 375.555 40.166 376.045 40.922L375.261 41.454C375.093 41.174 374.897 40.894 374.687 40.614C372.699 40.852 370.795 41.034 368.989 41.146L368.821 40.306C369.647 39.942 370.501 39.032 371.383 37.562L372.363 37.856C371.691 38.892 371.005 39.69 370.319 40.25C372.027 40.082 373.287 39.942 374.099 39.844C373.819 39.494 373.511 39.144 373.189 38.78L373.931 38.318ZM383.479 39.606H378.677V38.64H389.331V39.606H384.515V48.468H390.241V49.434H377.739V48.468H383.479V39.606ZM394.749 44.296V37.646H395.743V50.358H394.749V45.486C393.909 46.382 392.943 47.236 391.879 48.02L391.571 46.97C392.733 46.2 393.797 45.304 394.749 44.296ZM392.705 39.032C393.237 40.152 393.699 41.356 394.091 42.63L393.209 43.036C392.775 41.636 392.285 40.404 391.753 39.34L392.705 39.032ZM402.155 37.842C402.911 38.682 403.485 39.424 403.891 40.054L403.107 40.614C402.687 39.914 402.099 39.158 401.371 38.332L402.155 37.842ZM400.601 37.604C400.601 38.64 400.587 39.872 400.559 41.328H403.975V42.294H400.671C401.273 45.43 402.533 47.866 404.465 49.574L403.779 50.33C402.015 48.664 400.825 46.55 400.209 44.002C399.621 46.536 398.515 48.664 396.919 50.372L396.247 49.616C398.123 47.516 399.201 45.066 399.481 42.294H396.667V41.328H399.537C399.579 39.704 399.607 38.458 399.607 37.604H400.601ZM411.479 37.436L412.487 37.534C412.431 38.066 412.333 38.556 412.221 39.032H417.625V39.998H413.145C413.831 41.552 415.567 42.756 418.353 43.624L417.821 44.492C414.713 43.4 412.823 41.902 412.123 39.998H411.913C411.605 40.81 411.185 41.524 410.667 42.112C410.611 42.168 410.569 42.21 410.527 42.266C411.143 42.7 411.815 43.26 412.571 43.946L411.871 44.646C411.199 43.974 410.527 43.372 409.855 42.84C408.931 43.526 407.615 44.086 405.935 44.534L405.543 43.61C407.531 43.106 408.973 42.378 409.855 41.454C410.247 41.034 410.555 40.544 410.807 39.998H406.215V39.032H411.157C411.311 38.528 411.423 37.996 411.479 37.436ZM406.985 45.71L407.979 45.92C407.643 47.376 407.167 48.636 406.565 49.7L405.697 49.154C406.285 48.118 406.719 46.97 406.985 45.71ZM412.291 45.206C412.781 45.934 413.215 46.718 413.579 47.558L412.655 47.964C412.263 47.026 411.857 46.2 411.409 45.486L412.291 45.206ZM416.477 45.5C417.149 46.536 417.737 47.656 418.241 48.86L417.317 49.266C416.771 47.95 416.169 46.802 415.511 45.808L416.477 45.5ZM413.915 50.106H410.359C409.463 50.106 409.029 49.63 409.029 48.706V45.668H410.065V48.496C410.065 48.916 410.261 49.126 410.681 49.126H413.733C414.027 49.126 414.237 49.042 414.363 48.874C414.531 48.678 414.643 48.104 414.699 47.138L415.651 47.446C415.553 48.706 415.357 49.462 415.077 49.742C414.825 49.98 414.447 50.106 413.915 50.106ZM426.515 41.58V43.148H430.351V41.58H426.515ZM430.351 40.684V39.06H426.515V40.684H430.351ZM431.499 44.772L432.143 45.402C431.541 46.158 430.869 46.746 430.141 47.138C430.729 47.992 431.513 48.72 432.493 49.336L431.933 50.218C429.735 48.734 428.405 46.676 427.943 44.058H426.515V48.832C427.299 48.594 428.097 48.286 428.881 47.908L429.133 48.846C428.153 49.266 426.907 49.672 425.423 50.064L425.199 49.21C425.423 49.126 425.535 49.014 425.535 48.846V38.15H431.331V44.058H428.839C429.007 44.926 429.287 45.71 429.679 46.41C430.323 46.046 430.925 45.5 431.499 44.772ZM420.173 38.164H424.471V42.504H423.169V44.702H424.653V45.64H423.169V48.216C423.729 48.048 424.275 47.88 424.793 47.712V48.678C423.393 49.168 421.741 49.63 419.851 50.064L419.571 49.098L420.215 48.958V43.904H421.125V48.748C421.503 48.664 421.867 48.566 422.231 48.482V42.504H420.173V38.164ZM423.519 41.58V39.088H421.139V41.58H423.519ZM434.117 38.136H438.219V42.56H436.973V44.73H438.415V45.71H436.973V48.16C437.421 47.992 437.869 47.838 438.289 47.67V48.678C436.973 49.21 435.447 49.686 433.711 50.134L433.417 49.168C433.655 49.112 433.893 49.056 434.117 49V43.932H435.013V48.762L436.021 48.468V42.56H434.117V38.136ZM437.239 41.622V39.074H435.083V41.622H437.239ZM446.073 39.046V41.72H445.121V39.956H439.871V41.72H438.919V39.046H441.901C441.733 38.528 441.537 38.066 441.341 37.646L442.363 37.478C442.545 37.94 442.727 38.458 442.895 39.046H446.073ZM439.885 45.85L440.809 46.046C440.445 47.53 439.927 48.804 439.255 49.896L438.387 49.35C439.073 48.286 439.577 47.124 439.885 45.85ZM444.953 45.738C445.527 46.802 446.031 47.95 446.451 49.182L445.541 49.588C445.093 48.244 444.603 47.068 444.071 46.032L444.953 45.738ZM441.971 50.176H440.781L440.557 49.196C440.921 49.238 441.285 49.266 441.621 49.266C441.957 49.266 442.125 49.042 442.125 48.608V44.87H438.975V43.918H446.045V44.87H443.147V48.846C443.147 49.728 442.755 50.176 441.971 50.176ZM439.997 41.468H444.995V42.406H439.997V41.468Z" fill="#1A262C"/>
<rect x="334.5" y="98.5" width="127" height="31" rx="7.5" fill="#02ADEC" fill-opacity="0.1"/>
<rect x="334.5" y="98.5" width="127" height="31" rx="7.5" stroke="#02ADEC" stroke-dasharray="2 2"/>
<path d="M346.605 109.004H353.171V109.942L349.489 119H348.271L351.995 110.054H346.605V109.004ZM358.125 108.808C359.049 108.808 359.805 109.074 360.407 109.606C360.995 110.138 361.303 110.852 361.303 111.72C361.303 112.588 360.967 113.372 360.323 114.072C359.973 114.436 359.287 114.982 358.251 115.682C356.977 116.536 356.249 117.306 356.067 117.978H361.317V119H354.653C354.653 118.09 354.975 117.264 355.647 116.522C356.039 116.074 356.753 115.472 357.817 114.744C358.601 114.184 359.119 113.778 359.385 113.498C359.889 112.952 360.155 112.35 360.155 111.706C360.155 111.09 359.973 110.628 359.609 110.292C359.245 109.956 358.727 109.788 358.083 109.788C357.397 109.788 356.865 110.012 356.501 110.488C356.109 110.936 355.899 111.608 355.885 112.49H354.737C354.737 111.37 355.059 110.474 355.675 109.816C356.291 109.144 357.117 108.808 358.125 108.808ZM364.028 117.334C364.252 117.334 364.462 117.418 364.63 117.586C364.798 117.754 364.882 117.95 364.882 118.202C364.882 118.44 364.798 118.636 364.63 118.804C364.462 118.972 364.252 119.056 364.028 119.056C363.776 119.056 363.58 118.972 363.426 118.804C363.258 118.636 363.174 118.44 363.174 118.202C363.174 117.95 363.258 117.754 363.426 117.586C363.58 117.418 363.776 117.334 364.028 117.334ZM369.511 112.196H372.479V110.082H373.403V112.196H376.217V113.12H373.403V113.708C374.747 114.8 375.867 115.878 376.763 116.956L376.105 117.628C375.405 116.732 374.509 115.794 373.403 114.814V119.616H372.479V114.03C371.667 115.71 370.645 117.068 369.441 118.104L368.853 117.152C370.267 116.144 371.373 114.8 372.185 113.12H369.511V112.196ZM377.085 120.288H375.881L375.629 119.378L376.875 119.406C377.309 119.406 377.533 119.14 377.533 118.622V109.172H372.129V108.276H378.485V118.888C378.485 119.812 378.009 120.288 377.085 120.288ZM367.243 109.886H368.195V120.414H367.243V109.886ZM369.203 107.45C369.763 108.094 370.253 108.794 370.701 109.578L369.875 109.998C369.413 109.186 368.909 108.458 368.349 107.828L369.203 107.45ZM380.865 111.524H386.311L386.395 110.712H381.803V108.094H391.939V110.712H387.403L387.319 111.524H392.891V112.294H387.207C387.151 112.574 387.109 112.84 387.053 113.092H391.113V119.266H393.143V120.078H380.613V119.266H382.643V113.092H386.045C386.101 112.826 386.143 112.56 386.199 112.294H380.865V111.524ZM383.623 119.266H390.119V118.342H383.623V119.266ZM383.623 117.712H390.119V116.83H383.623V117.712ZM383.623 116.186H390.119V115.304H383.623V116.186ZM383.623 114.674H390.119V113.792H383.623V114.674ZM390.987 109.998V108.836H388.901V109.998H390.987ZM387.977 109.998V108.836H385.765V109.998H387.977ZM384.855 109.998V108.836H382.769V109.998H384.855ZM395.705 112.154H400.353V107.618H401.389V112.154H406.009V113.134H401.389V118.93H407.101V119.924H394.641V118.93H400.353V113.134H395.705V112.154ZM420.793 110.264C420.793 113.092 420.723 114.814 420.583 115.43C420.443 116.018 419.841 116.326 418.791 116.326H418.707L418.427 115.332C418.637 115.346 418.833 115.36 419.001 115.36C419.379 115.36 419.617 115.206 419.701 114.898C419.771 114.604 419.813 113.498 419.827 111.594L417.783 112.21V117.502H416.803V112.504L414.759 113.12V118.552C414.759 118.972 414.997 119.196 415.487 119.196H419.421C419.715 119.196 419.925 119.098 420.037 118.916C420.191 118.692 420.303 118.006 420.359 116.872L421.297 117.166C421.199 118.58 421.017 119.434 420.737 119.742C420.499 120.008 420.121 120.148 419.603 120.148H415.179C414.241 120.148 413.779 119.672 413.779 118.748V113.414L412.603 113.778V112.798L413.779 112.434V108.99H414.759V112.126L416.803 111.496V107.562H417.783V111.188L420.793 110.264ZM412.785 116.214V117.208C411.497 117.81 410.111 118.314 408.627 118.706L408.375 117.698C408.963 117.572 409.551 117.418 410.139 117.25V112.266H408.543V111.286H410.139V107.674H411.133V111.286H412.589V112.266H411.133V116.914C411.693 116.704 412.253 116.466 412.785 116.214ZM425.245 107.548L426.239 107.716C426.113 108.416 425.973 109.074 425.805 109.718H428.941V110.614C428.563 113.064 427.849 115.122 426.785 116.774C427.121 117.292 427.471 117.684 427.863 117.964C428.955 118.734 430.691 119.126 433.057 119.154C433.785 119.154 434.513 119.126 435.269 119.084L435.073 120.134H433.533C430.649 120.134 428.563 119.644 427.275 118.692C426.883 118.398 426.533 118.02 426.211 117.572C425.343 118.664 424.335 119.56 423.159 120.26L422.613 119.308C423.817 118.608 424.825 117.698 425.623 116.592C425.161 115.71 424.755 114.632 424.405 113.358C424.041 114.016 423.635 114.604 423.215 115.122L422.529 114.268C423.873 112.602 424.769 110.362 425.245 107.548ZM424.993 112.14C425.357 113.582 425.749 114.772 426.197 115.71C427.023 114.296 427.611 112.616 427.947 110.684H425.525C425.357 111.202 425.175 111.692 424.993 112.14ZM430.817 107.632H431.839V111.188C432.987 112.014 434.149 112.966 435.339 114.044L434.737 114.94C433.603 113.792 432.637 112.882 431.839 112.238V118.062H430.817V107.632ZM436.865 111.524H442.311L442.395 110.712H437.803V108.094H447.939V110.712H443.403L443.319 111.524H448.891V112.294H443.207C443.151 112.574 443.109 112.84 443.053 113.092H447.113V119.266H449.143V120.078H436.613V119.266H438.643V113.092H442.045C442.101 112.826 442.143 112.56 442.199 112.294H436.865V111.524ZM439.623 119.266H446.119V118.342H439.623V119.266ZM439.623 117.712H446.119V116.83H439.623V117.712ZM439.623 116.186H446.119V115.304H439.623V116.186ZM439.623 114.674H446.119V113.792H439.623V114.674ZM446.987 109.998V108.836H444.901V109.998H446.987ZM443.977 109.998V108.836H441.765V109.998H443.977ZM440.855 109.998V108.836H438.769V109.998H440.855Z" fill="#1A262C"/>
<rect x="520.5" y="98.5" width="113" height="31" rx="7.5" fill="#02ADEC" fill-opacity="0.1"/>
<rect x="520.5" y="98.5" width="113" height="31" rx="7.5" stroke="#02ADEC" stroke-dasharray="2 2"/>
<path d="M532.605 109.004H539.171V109.942L535.489 119H534.271L537.995 110.054H532.605V109.004ZM544.083 108.808C545.035 108.808 545.819 109.046 546.407 109.536C546.981 110.026 547.275 110.684 547.275 111.524C547.275 112.644 546.729 113.4 545.637 113.764C546.225 113.946 546.673 114.226 546.981 114.618C547.317 115.01 547.485 115.5 547.485 116.088C547.485 116.998 547.163 117.74 546.533 118.314C545.889 118.902 545.049 119.196 544.013 119.196C543.061 119.196 542.291 118.944 541.689 118.468C540.975 117.88 540.583 117.026 540.499 115.906H541.661C541.689 116.69 541.955 117.292 542.445 117.698C542.865 118.034 543.383 118.216 544.013 118.216C544.727 118.216 545.301 118.006 545.735 117.6C546.127 117.208 546.337 116.718 546.337 116.13C546.337 115.528 546.141 115.066 545.749 114.73C545.357 114.394 544.825 114.24 544.125 114.24H543.313V113.344H544.083C544.755 113.344 545.259 113.19 545.609 112.896C545.959 112.588 546.141 112.154 546.141 111.594C546.141 111.034 545.959 110.6 545.623 110.292C545.259 109.956 544.741 109.802 544.097 109.802C543.425 109.802 542.907 109.97 542.529 110.334C542.137 110.698 541.913 111.216 541.843 111.888H540.709C540.793 110.922 541.157 110.166 541.773 109.62C542.361 109.074 543.131 108.808 544.083 108.808ZM550.028 117.334C550.252 117.334 550.462 117.418 550.63 117.586C550.798 117.754 550.882 117.95 550.882 118.202C550.882 118.44 550.798 118.636 550.63 118.804C550.462 118.972 550.252 119.056 550.028 119.056C549.776 119.056 549.58 118.972 549.426 118.804C549.258 118.636 549.174 118.44 549.174 118.202C549.174 117.95 549.258 117.754 549.426 117.586C549.58 117.418 549.776 117.334 550.028 117.334ZM554.909 111.65V112.882C554.839 115.962 554.237 118.426 553.089 120.274L552.389 119.532C553.341 117.936 553.859 115.71 553.943 112.882V108.5C557.639 108.472 560.971 108.178 563.925 107.646L564.429 108.556C561.601 109.032 558.423 109.298 554.909 109.354V110.726H559.585C559.655 110.306 559.711 109.872 559.753 109.452L560.761 109.578C560.719 109.97 560.663 110.362 560.607 110.726H565.045V111.65H560.453C560.369 112.126 560.271 112.56 560.159 112.98H563.757V117.74H562.791V113.904H557.261V117.796H556.295V112.98H559.137C559.249 112.532 559.347 112.098 559.431 111.65H554.909ZM560.831 117.418C562.385 118.006 563.799 118.706 565.073 119.532L564.513 120.386C563.155 119.462 561.755 118.72 560.327 118.174L560.831 117.418ZM559.795 114.464L560.775 114.534C560.607 116.186 560.103 117.46 559.263 118.328C558.395 119.196 557.065 119.896 555.287 120.4L554.741 119.476C556.393 119.056 557.611 118.482 558.395 117.726C559.179 116.97 559.641 115.878 559.795 114.464ZM569.483 107.478L570.435 107.912C570.099 108.948 569.679 109.914 569.189 110.838V120.428H568.167V112.49C567.691 113.148 567.187 113.778 566.641 114.366L566.305 113.288C567.761 111.608 568.825 109.662 569.483 107.478ZM571.261 108.192H577.869V112.602H575.055V114.128H579.087V115.108H576.049C576.847 116.508 577.939 117.726 579.325 118.762L578.681 119.644C577.281 118.426 576.133 116.914 575.223 115.108H575.055V120.4H574.047V115.108H573.879C572.941 117.054 571.765 118.566 570.351 119.658L569.777 118.748C571.121 117.824 572.213 116.62 573.053 115.108H570.155V114.128H574.047V112.602H571.261V108.192ZM576.875 111.636V109.158H572.255V111.636H576.875ZM581.621 107.604H582.601V109.172H585.331V107.632H586.311V109.172H587.151V110.11H586.311V116.032H587.221V116.984H580.599V116.032H581.621V110.11H580.753V109.172H581.621V107.604ZM582.601 116.032H585.331V114.66H582.601V116.032ZM585.331 110.11H582.601V111.51H585.331V110.11ZM582.601 113.778H585.331V112.392H582.601V113.778ZM585.079 117.348C585.737 118.188 586.241 118.93 586.591 119.546C587.515 118.244 587.977 116.606 588.005 114.646V108.094H592.653V119.07C592.653 119.868 592.233 120.274 591.421 120.274H589.937L589.657 119.28C590.175 119.308 590.651 119.336 591.099 119.336C591.463 119.336 591.645 119.126 591.645 118.706V115.836H588.929C588.733 117.684 588.173 119.21 587.249 120.442L586.479 119.728C586.507 119.7 586.521 119.672 586.535 119.644L585.793 120.176C585.429 119.462 584.925 118.678 584.295 117.838L585.079 117.348ZM582.349 117.334L583.161 117.726C582.629 118.734 582.013 119.616 581.313 120.358L580.515 119.784C581.215 119.098 581.831 118.286 582.349 117.334ZM588.999 112.42V114.562C588.999 114.688 588.985 114.8 588.985 114.912H591.645V112.42H588.999ZM591.645 111.496V109.046H588.999V111.496H591.645ZM599.401 117.6V118.566C598.015 119.098 596.433 119.532 594.669 119.868L594.543 118.86C596.391 118.552 598.015 118.132 599.401 117.6ZM596.867 107.52L597.833 107.898C597.175 109.69 596.503 111.132 595.831 112.21C596.405 112.126 596.993 112.028 597.581 111.902C597.833 111.37 598.085 110.824 598.351 110.25L599.233 110.586C598.057 112.994 597.091 114.716 596.321 115.752C597.245 115.528 598.155 115.22 599.079 114.814V115.738C597.707 116.298 596.391 116.69 595.131 116.9L594.851 115.976C595.033 115.906 595.187 115.808 595.313 115.696C595.803 115.136 596.405 114.17 597.105 112.826C596.377 112.966 595.635 113.106 594.879 113.232L594.627 112.308C594.781 112.238 594.921 112.112 595.047 111.93C595.747 110.642 596.349 109.172 596.867 107.52ZM601.361 113.75V115.654H603.839V113.75H601.361ZM601.361 116.578V118.706H603.839V116.578H601.361ZM601.361 119.644V120.372H600.381V112.098C599.989 112.77 599.569 113.4 599.107 114.016L598.799 112.994C599.905 111.342 600.689 109.55 601.151 107.59L602.117 107.786C601.921 108.542 601.697 109.256 601.417 109.956H603.965C603.741 109.214 603.475 108.486 603.167 107.786L604.147 107.52C604.455 108.36 604.707 109.116 604.889 109.816L604.511 109.956H607.045V110.908H604.819V112.812H606.807V113.75H604.819V115.654H606.807V116.578H604.819V118.706H607.325V119.644H601.361ZM603.839 110.908H601.361V112.812H603.839V110.908ZM610.209 120.274H608.809L608.599 119.294C609.033 119.322 609.453 119.35 609.859 119.35C610.223 119.35 610.405 119.154 610.405 118.776V115.416C609.831 115.612 609.257 115.808 608.669 115.976L608.417 114.968C609.103 114.814 609.761 114.632 610.405 114.422V111.216H608.641V110.25H610.405V107.604H611.427V110.25H612.953V111.216H611.427V114.058C611.973 113.834 612.505 113.596 613.037 113.344V114.338C612.505 114.59 611.959 114.814 611.427 115.038V119.028C611.427 119.854 611.021 120.274 610.209 120.274ZM619.897 110.236H614.787V112.896H619.897V110.236ZM614.787 113.862C614.759 116.41 614.157 118.58 612.995 120.4L612.239 119.728C613.247 118.188 613.765 116.186 613.779 113.736V109.27H616.873C616.677 108.682 616.453 108.15 616.229 107.674L617.293 107.506C617.489 108.024 617.685 108.612 617.881 109.27H620.877V113.862H614.787Z" fill="#1A262C"/>
<rect x="658.5" y="98.5" width="134" height="31" rx="7.5" fill="#02ADEC" fill-opacity="0.1"/>
<rect x="658.5" y="98.5" width="134" height="31" rx="7.5" stroke="#02ADEC" stroke-dasharray="2 2"/>
<path d="M670.605 109.004H677.171V109.942L673.489 119H672.271L675.995 110.054H670.605V109.004ZM683.161 109.004H684.239V115.794H685.863V116.732H684.239V119H683.147V116.732H678.121V115.64L683.161 109.004ZM683.105 110.502L679.087 115.794H683.147V110.502H683.105ZM688.028 117.334C688.252 117.334 688.462 117.418 688.63 117.586C688.798 117.754 688.882 117.95 688.882 118.202C688.882 118.44 688.798 118.636 688.63 118.804C688.462 118.972 688.252 119.056 688.028 119.056C687.776 119.056 687.58 118.972 687.426 118.804C687.258 118.636 687.174 118.44 687.174 118.202C687.174 117.95 687.258 117.754 687.426 117.586C687.58 117.418 687.776 117.334 688.028 117.334ZM692.769 111.72H701.001V112.672H697.445V115.136H701.617V116.088H697.445V118.986C698.425 119.126 699.601 119.21 701.001 119.224C701.715 119.224 702.443 119.196 703.199 119.14L703.017 120.148H701.449C698.621 120.148 696.605 119.882 695.373 119.364C694.449 118.93 693.693 118.258 693.119 117.348C692.573 118.552 691.901 119.56 691.103 120.372L690.459 119.574C691.803 118.146 692.699 116.228 693.175 113.82L694.155 113.988C693.987 114.856 693.763 115.654 693.511 116.382C694.183 117.586 695.023 118.342 696.031 118.664C696.157 118.706 696.297 118.748 696.437 118.776V112.672H692.769V111.72ZM702.597 108.99V111.972H701.617V109.914H692.125V112.042H691.145V108.99H696.493C696.283 108.486 696.045 108.024 695.793 107.604L696.871 107.436C697.095 107.898 697.319 108.416 697.515 108.99H702.597ZM705.621 107.604H706.601V109.172H709.331V107.632H710.311V109.172H711.151V110.11H710.311V116.032H711.221V116.984H704.599V116.032H705.621V110.11H704.753V109.172H705.621V107.604ZM706.601 116.032H709.331V114.66H706.601V116.032ZM709.331 110.11H706.601V111.51H709.331V110.11ZM706.601 113.778H709.331V112.392H706.601V113.778ZM709.079 117.348C709.737 118.188 710.241 118.93 710.591 119.546C711.515 118.244 711.977 116.606 712.005 114.646V108.094H716.653V119.07C716.653 119.868 716.233 120.274 715.421 120.274H713.937L713.657 119.28C714.175 119.308 714.651 119.336 715.099 119.336C715.463 119.336 715.645 119.126 715.645 118.706V115.836H712.929C712.733 117.684 712.173 119.21 711.249 120.442L710.479 119.728C710.507 119.7 710.521 119.672 710.535 119.644L709.793 120.176C709.429 119.462 708.925 118.678 708.295 117.838L709.079 117.348ZM706.349 117.334L707.161 117.726C706.629 118.734 706.013 119.616 705.313 120.358L704.515 119.784C705.215 119.098 705.831 118.286 706.349 117.334ZM712.999 112.42V114.562C712.999 114.688 712.985 114.8 712.985 114.912H715.645V112.42H712.999ZM715.645 111.496V109.046H712.999V111.496H715.645ZM723.401 117.6V118.566C722.015 119.098 720.433 119.532 718.669 119.868L718.543 118.86C720.391 118.552 722.015 118.132 723.401 117.6ZM720.867 107.52L721.833 107.898C721.175 109.69 720.503 111.132 719.831 112.21C720.405 112.126 720.993 112.028 721.581 111.902C721.833 111.37 722.085 110.824 722.351 110.25L723.233 110.586C722.057 112.994 721.091 114.716 720.321 115.752C721.245 115.528 722.155 115.22 723.079 114.814V115.738C721.707 116.298 720.391 116.69 719.131 116.9L718.851 115.976C719.033 115.906 719.187 115.808 719.313 115.696C719.803 115.136 720.405 114.17 721.105 112.826C720.377 112.966 719.635 113.106 718.879 113.232L718.627 112.308C718.781 112.238 718.921 112.112 719.047 111.93C719.747 110.642 720.349 109.172 720.867 107.52ZM725.361 113.75V115.654H727.839V113.75H725.361ZM725.361 116.578V118.706H727.839V116.578H725.361ZM725.361 119.644V120.372H724.381V112.098C723.989 112.77 723.569 113.4 723.107 114.016L722.799 112.994C723.905 111.342 724.689 109.55 725.151 107.59L726.117 107.786C725.921 108.542 725.697 109.256 725.417 109.956H727.965C727.741 109.214 727.475 108.486 727.167 107.786L728.147 107.52C728.455 108.36 728.707 109.116 728.889 109.816L728.511 109.956H731.045V110.908H728.819V112.812H730.807V113.75H728.819V115.654H730.807V116.578H728.819V118.706H731.325V119.644H725.361ZM727.839 110.908H725.361V112.812H727.839V110.908ZM734.209 120.274H732.809L732.599 119.294C733.033 119.322 733.453 119.35 733.859 119.35C734.223 119.35 734.405 119.154 734.405 118.776V115.416C733.831 115.612 733.257 115.808 732.669 115.976L732.417 114.968C733.103 114.814 733.761 114.632 734.405 114.422V111.216H732.641V110.25H734.405V107.604H735.427V110.25H736.953V111.216H735.427V114.058C735.973 113.834 736.505 113.596 737.037 113.344V114.338C736.505 114.59 735.959 114.814 735.427 115.038V119.028C735.427 119.854 735.021 120.274 734.209 120.274ZM743.897 110.236H738.787V112.896H743.897V110.236ZM738.787 113.862C738.759 116.41 738.157 118.58 736.995 120.4L736.239 119.728C737.247 118.188 737.765 116.186 737.779 113.736V109.27H740.873C740.677 108.682 740.453 108.15 740.229 107.674L741.293 107.506C741.489 108.024 741.685 108.612 741.881 109.27H744.877V113.862H738.787ZM751.359 107.52H752.353L747.397 120.4H746.389L751.359 107.52ZM753.725 111.244H759.171C759.283 110.432 759.339 109.592 759.353 108.71V107.576H760.389V108.486C760.389 109.466 760.319 110.376 760.207 111.244H766.017V112.224H760.501C761.481 115.388 763.413 117.824 766.283 119.532L765.653 120.344C762.839 118.608 760.907 116.172 759.857 113.008C758.989 116.41 757.057 118.888 754.075 120.442L753.445 119.602C756.427 118.132 758.275 115.668 759.003 112.224H753.725V111.244ZM774.977 107.52L775.957 107.646C775.831 108.01 775.677 108.36 775.509 108.696H779.513V109.564C779.051 110.488 778.351 111.286 777.413 111.958C778.225 112.322 779.163 112.63 780.241 112.882L779.849 113.82C778.491 113.484 777.357 113.064 776.447 112.56C775.467 113.092 774.305 113.526 772.947 113.862L772.569 112.952C773.703 112.686 774.697 112.35 775.537 111.958C774.949 111.51 774.473 111.006 774.137 110.474C773.843 110.754 773.535 111.006 773.199 111.258L772.625 110.502C773.773 109.69 774.557 108.696 774.977 107.52ZM774.767 109.802C775.159 110.432 775.719 110.978 776.461 111.454C777.301 110.922 777.945 110.32 778.421 109.62H774.907C774.851 109.676 774.809 109.746 774.767 109.802ZM770.399 107.548L771.295 107.968C770.959 109.018 770.553 110.012 770.063 110.936V120.414H769.097V112.532C768.663 113.162 768.187 113.764 767.669 114.324L767.375 113.316C768.761 111.636 769.769 109.718 770.399 107.548ZM771.309 110.026H772.219V117.95H771.309V110.026ZM776.909 113.47L777.637 113.932C777.105 114.38 776.573 114.744 776.027 115.038C775.439 115.346 774.669 115.654 773.717 115.962L773.227 115.164C774.011 114.968 774.725 114.73 775.369 114.436C775.929 114.156 776.433 113.834 776.909 113.47ZM778.239 114.506L778.911 115.024C777.791 116.424 776.153 117.418 773.983 118.034L773.577 117.18C775.649 116.634 777.203 115.738 778.239 114.506ZM773.423 120.498L773.003 119.574C774.599 119.154 775.887 118.65 776.881 118.062C777.875 117.488 778.729 116.732 779.429 115.808L780.143 116.34C779.527 117.306 778.589 118.16 777.329 118.888C776.069 119.588 774.767 120.134 773.423 120.498Z" fill="#1A262C"/>
<path d="M261.609 15.876L263.192 14.6669L263.496 15.0643L264.287 14.4597C264.505 14.293 264.73 14.1399 264.961 14.0004L264.702 13.5726C265.205 13.2686 265.733 13.0247 266.276 12.841L266.437 13.3146C266.955 13.1395 267.488 13.0226 268.026 12.964L267.972 12.467C268.549 12.4042 269.131 12.4042 269.708 12.467L269.654 12.964C270.192 13.0226 270.725 13.1395 271.243 13.3146L271.403 12.841C271.947 13.0247 272.475 13.2686 272.977 13.5726L272.719 14.0004C272.949 14.1399 273.174 14.293 273.392 14.4597L274.184 15.0643L274.487 14.6669L276.07 15.876L275.767 16.2733L277.35 17.4824L277.653 17.085L279.236 18.2941L278.933 18.6915L280.515 19.9005L280.819 19.5032L282.402 20.7123L282.098 21.1096L283.681 22.3187L283.985 21.9213L285.567 23.1304L285.264 23.5277L286.847 24.7368L287.15 24.3395L288.733 25.5485L288.43 25.9459L290.013 27.1549L290.316 26.7576L291.899 27.9667L291.595 28.364L293.178 29.5731L293.482 29.1757L295.065 30.3848L294.761 30.7821L296.344 31.9912L296.648 31.5939L298.23 32.8029L297.927 33.2003L299.51 34.4093L299.813 34.012L301.396 35.2211L301.093 35.6184L302.675 36.8275L302.979 36.4301L304.562 37.6392L304.258 38.0365L305.841 39.2456L306.145 38.8483L307.728 40.0573L307.424 40.4547L308.215 41.0592C308.436 41.2274 308.629 41.4145 308.795 41.6157L309.18 41.297C309.582 41.7827 309.851 42.3435 309.987 42.9297L309.5 43.0426C309.621 43.5668 309.621 44.1145 309.5 44.6387L309.987 44.7515C309.851 45.3377 309.582 45.8985 309.18 46.3842L308.795 46.0655C308.629 46.2667 308.436 46.4538 308.215 46.622L307.424 47.2265L307.728 47.6239L306.145 48.833L305.841 48.4356L304.258 49.6447L304.562 50.042L302.979 51.2511L302.675 50.8538L301.093 52.0628L301.396 52.4602L299.813 53.6692L299.51 53.2719L297.927 54.481L298.23 54.8783L296.648 56.0874L296.344 55.69L294.761 56.8991L295.065 57.2964L293.482 58.5055L293.178 58.1082L291.595 59.3172L291.899 59.7146L290.316 60.9237L290.013 60.5263L288.43 61.7354L288.733 62.1327L287.15 63.3418L286.847 62.9444L285.264 64.1535L285.567 64.5509L283.985 65.7599L283.681 65.3626L282.098 66.5716L282.402 66.969L280.819 68.1781L280.515 67.7807L278.933 68.9898L279.236 69.3871L277.653 70.5962L277.35 70.1989L275.767 71.4079L276.07 71.8053L274.487 73.0143L274.184 72.617L273.392 73.2215C273.174 73.3882 272.949 73.5413 272.719 73.6808L272.977 74.1086C272.475 74.4127 271.947 74.6565 271.403 74.8403L271.243 74.3666C270.725 74.5417 270.192 74.6586 269.654 74.7172L269.708 75.2143C269.131 75.2771 268.549 75.2771 267.972 75.2143L268.026 74.7172C267.488 74.6586 266.955 74.5417 266.437 74.3666L266.276 74.8403C265.733 74.6565 265.205 74.4127 264.702 74.1086L264.961 73.6808C264.73 73.5413 264.505 73.3882 264.287 73.2215L263.496 72.617L263.192 73.0143L261.609 71.8053L261.913 71.4079L260.33 70.1989L260.027 70.5962L258.444 69.3871L258.747 68.9898L257.164 67.7807L256.861 68.1781L255.278 66.969L255.581 66.5716L253.999 65.3626L253.695 65.7599L252.112 64.5508L252.416 64.1535L250.833 62.9444L250.529 63.3418L248.946 62.1327L249.25 61.7354L247.667 60.5263L247.364 60.9236L245.781 59.7146L246.084 59.3172L244.501 58.1082L244.198 58.5055L242.615 57.2964L242.919 56.8991L241.336 55.69L241.032 56.0874L239.449 54.8783L239.753 54.481L238.17 53.2719L237.866 53.6692L236.284 52.4602L236.587 52.0628L235.004 50.8538L234.701 51.2511L233.118 50.042L233.421 49.6447L231.839 48.4356L231.535 48.833L229.952 47.6239L230.256 47.2266L229.464 46.622C229.244 46.4538 229.051 46.2667 228.884 46.0655L228.499 46.3842C228.097 45.8985 227.829 45.3377 227.693 44.7515L228.18 44.6387C228.058 44.1145 228.058 43.5668 228.18 43.0426L227.693 42.9297C227.829 42.3435 228.097 41.7827 228.499 41.297L228.884 41.6157C229.051 41.4145 229.244 41.2274 229.464 41.0592L230.256 40.4547L229.952 40.0573L231.535 38.8483L231.839 39.2456L233.421 38.0366L233.118 37.6392L234.701 36.4301L235.004 36.8275L236.587 35.6184L236.284 35.2211L237.866 34.012L238.17 34.4093L239.753 33.2003L239.449 32.8029L241.032 31.5939L241.336 31.9912L242.919 30.7821L242.615 30.3848L244.198 29.1757L244.501 29.5731L246.084 28.364L245.781 27.9667L247.364 26.7576L247.667 27.1549L249.25 25.9459L248.946 25.5485L250.529 24.3395L250.833 24.7368L252.416 23.5277L252.112 23.1304L253.695 21.9213L253.999 22.3187L255.581 21.1096L255.278 20.7123L256.861 19.5032L257.164 19.9005L258.747 18.6915L258.444 18.2941L260.027 17.085L260.33 17.4824L261.913 16.2733L261.609 15.876Z" fill="#AA37C6" fill-opacity="0.1" stroke="#AA37C6" stroke-dasharray="2 2"/>
<path d="M247.12 43.168H249.664V41.356H250.456V43.168H252.868V43.96H250.456V44.464C251.608 45.4 252.568 46.324 253.336 47.248L252.772 47.824C252.172 47.056 251.404 46.252 250.456 45.412V49.528H249.664V44.74C248.968 46.18 248.092 47.344 247.06 48.232L246.556 47.416C247.768 46.552 248.716 45.4 249.412 43.96H247.12V43.168ZM253.612 50.104H252.58L252.364 49.324L253.432 49.348C253.804 49.348 253.996 49.12 253.996 48.676V40.576H249.364V39.808H254.812V48.904C254.812 49.696 254.404 50.104 253.612 50.104ZM245.176 41.188H245.992V50.212H245.176V41.188ZM246.856 39.1C247.336 39.652 247.756 40.252 248.14 40.924L247.432 41.284C247.036 40.588 246.604 39.964 246.124 39.424L246.856 39.1ZM256.852 42.592H261.52L261.592 41.896H257.656V39.652H266.344V41.896H262.456L262.384 42.592H267.16V43.252H262.288C262.24 43.492 262.204 43.72 262.156 43.936H265.636V49.228H267.376V49.924H256.636V49.228H258.376V43.936H261.292C261.34 43.708 261.376 43.48 261.424 43.252H256.852V42.592ZM259.216 49.228H264.784V48.436H259.216V49.228ZM259.216 47.896H264.784V47.14H259.216V47.896ZM259.216 46.588H264.784V45.832H259.216V46.588ZM259.216 45.292H264.784V44.536H259.216V45.292ZM265.528 41.284V40.288H263.74V41.284H265.528ZM262.948 41.284V40.288H261.052V41.284H262.948ZM260.272 41.284V40.288H258.484V41.284H260.272ZM270.556 43.384V45.484H273.604V43.384H270.556ZM270.508 46.276C270.376 47.812 269.932 49.084 269.164 50.092L268.504 49.504C269.272 48.436 269.668 47.08 269.692 45.436V39.676H278.632V48.664C278.632 49.504 278.212 49.924 277.372 49.924H275.992L275.764 49.072C276.244 49.096 276.688 49.12 277.096 49.12C277.528 49.12 277.756 48.868 277.756 48.364V46.276H274.492V49.792H273.604V46.276H270.508ZM277.756 45.484V43.384H274.492V45.484H277.756ZM277.756 42.58V40.516H274.492V42.58H277.756ZM273.604 40.516H270.556V42.58H273.604V40.516ZM291.076 41.512C291.076 43.936 291.016 45.412 290.896 45.94C290.776 46.444 290.26 46.708 289.36 46.708H289.288L289.048 45.856C289.228 45.868 289.396 45.88 289.54 45.88C289.864 45.88 290.068 45.748 290.14 45.484C290.2 45.232 290.236 44.284 290.248 42.652L288.496 43.18V47.716H287.656V43.432L285.904 43.96V48.616C285.904 48.976 286.108 49.168 286.528 49.168H289.9C290.152 49.168 290.332 49.084 290.428 48.928C290.56 48.736 290.656 48.148 290.704 47.176L291.508 47.428C291.424 48.64 291.268 49.372 291.028 49.636C290.824 49.864 290.5 49.984 290.056 49.984H286.264C285.46 49.984 285.064 49.576 285.064 48.784V44.212L284.056 44.524V43.684L285.064 43.372V40.42H285.904V43.108L287.656 42.568V39.196H288.496V42.304L291.076 41.512ZM284.212 46.612V47.464C283.108 47.98 281.92 48.412 280.648 48.748L280.432 47.884C280.936 47.776 281.44 47.644 281.944 47.5V43.228H280.576V42.388H281.944V39.292H282.796V42.388H284.044V43.228H282.796V47.212C283.276 47.032 283.756 46.828 284.212 46.612Z" fill="#854F98"/>
<path d="M334 112L329 109.113V114.887L334 112ZM268.5 76V104H269.5V76H268.5ZM277 112.5H329.5V111.5H277V112.5ZM268.5 104C268.5 108.694 272.306 112.5 277 112.5V111.5C272.858 111.5 269.5 108.142 269.5 104H268.5Z" fill="#96A0AD"/>
<path d="M520 114L515 111.113V116.887L520 114ZM459 43.5H477V42.5H459V43.5ZM484.5 51V106H485.5V51H484.5ZM493 114.5H515.5V113.5H493V114.5ZM484.5 106C484.5 110.694 488.306 114.5 493 114.5V113.5C488.858 113.5 485.5 110.142 485.5 106H484.5ZM477 43.5C481.142 43.5 484.5 46.8579 484.5 51H485.5C485.5 46.3056 481.694 42.5 477 42.5V43.5Z" fill="#96A0AD"/>
<path d="M313.97 28.3H322.07V29H318.88C318.72 29.22 318.54 29.44 318.36 29.64V32.95H317.64V30.33C316.7 31.11 315.47 31.8 313.95 32.41L313.5 31.82C315.64 31.03 317.16 30.09 318.06 29H313.97V28.3ZM321.32 33.3V36.96H320.59V36.49H315.43V36.96H314.7V33.3H321.32ZM315.43 35.79H320.59V34H315.43V35.79ZM319.41 29.89C320.61 30.57 321.61 31.26 322.42 31.95L321.9 32.48C321.18 31.82 320.19 31.11 318.93 30.35L319.41 29.89Z" fill="#929DA3"/>
<path d="M252 81.17H258.08V84.64H252V81.17ZM257.37 84.03V83.21H252.71V84.03H257.37ZM252.71 82.62H257.37V81.79H252.71V82.62ZM254.75 86.04H250.58V85.38H259.43V86.04H255.48V87.17H258.36V87.81H255.48V89.14C255.96 89.18 256.54 89.21 257.2 89.21C258.06 89.21 258.79 89.2 259.38 89.18L259.18 89.86C258.46 89.86 257.82 89.85 257.25 89.84C255.6 89.84 254.48 89.71 253.89 89.46C253.38 89.23 252.92 88.79 252.52 88.13C252.13 88.87 251.63 89.48 251.03 89.97L250.56 89.38C251.48 88.64 252.11 87.64 252.44 86.39L253.12 86.51C253.02 86.88 252.91 87.23 252.78 87.56C253.2 88.26 253.68 88.7 254.2 88.89C254.36 88.94 254.54 88.99 254.75 89.03V86.04Z" fill="#929DA3"/>
<rect y="30" width="52" height="28" rx="14" fill="url(#paint0_linear_7431_2890)"/>
<path d="M13.498 38.262H24.53V39.55H22.29V42.91H25.244V44.198H22.29V50.26H20.96V44.198H17.208C17.068 45.598 16.802 46.76 16.382 47.698C15.85 48.874 14.954 49.784 13.708 50.414L12.994 49.294C14.114 48.636 14.884 47.796 15.29 46.788C15.556 46.06 15.738 45.192 15.85 44.198H12.77V42.91H15.948C15.948 42.798 15.962 42.686 15.962 42.602V39.55H13.498V38.262ZM17.306 39.55V42.602C17.306 42.714 17.292 42.812 17.292 42.91H20.96V39.55H17.306ZM28.142 37.436L29.444 37.548C29.332 38.444 29.22 39.298 29.108 40.082H31.096V40.824C31.012 43.064 30.648 44.996 30.004 46.648C30.62 47.292 31.138 47.88 31.53 48.398L30.634 49.448C30.284 48.972 29.878 48.482 29.402 47.95C28.87 48.93 28.212 49.784 27.428 50.512L26.588 49.462C27.372 48.762 28.002 47.922 28.492 46.97C27.946 46.41 27.358 45.822 26.714 45.206C27.022 44.03 27.316 42.742 27.568 41.356H26.588V40.082H27.778C27.904 39.228 28.03 38.346 28.142 37.436ZM29.052 45.682C29.5 44.408 29.78 42.966 29.864 41.356H28.898C28.66 42.728 28.408 43.89 28.142 44.814C28.464 45.122 28.772 45.402 29.052 45.682ZM38.46 44.31V50.456H37.186V49.672H33.35V50.456H32.09V44.31H38.46ZM33.35 48.426H37.186V45.528H33.35V48.426ZM31.614 43.288L31.404 42.084C32.09 41.86 33.056 40.334 34.302 37.492L35.562 37.912C34.806 39.536 34.05 40.908 33.266 42C34.61 41.916 35.912 41.776 37.172 41.58C36.836 40.88 36.486 40.236 36.15 39.634L37.284 39.088C38.012 40.306 38.684 41.65 39.328 43.12L38.11 43.708C37.97 43.344 37.83 43.008 37.69 42.7C35.87 42.952 33.84 43.148 31.614 43.288Z" fill="white"/>
<rect x="817" y="100" width="52" height="28" rx="14" fill="url(#paint1_linear_7431_2890)"/>
<path d="M834.768 117.446V118.706C833.34 119.21 831.73 119.63 829.91 119.952L829.742 118.664C831.66 118.356 833.34 117.95 834.768 117.446ZM831.968 107.45L833.214 107.926C832.542 109.62 831.87 110.992 831.17 112.056C831.702 112 832.248 111.93 832.808 111.846C833.06 111.37 833.312 110.88 833.592 110.362L834.754 110.782C833.564 112.966 832.57 114.576 831.758 115.584C832.696 115.388 833.648 115.122 834.6 114.786V115.976C833.032 116.508 831.562 116.858 830.162 117.04L829.812 115.85C830.05 115.752 830.246 115.626 830.414 115.472C830.862 114.996 831.436 114.198 832.122 113.05C831.422 113.148 830.68 113.246 829.924 113.358L829.602 112.14C829.798 112.056 829.98 111.888 830.148 111.65C830.848 110.39 831.464 108.99 831.968 107.45ZM834.558 109.144H837.792V107.562H839.122V109.144H842.342V110.432H839.122V112.196H841.936V113.484H835.02V112.196H837.792V110.432H834.558V109.144ZM841.642 114.576V120.4H840.354V119.84H836.658V120.4H835.356V114.576H841.642ZM836.658 118.58H840.354V115.836H836.658V118.58ZM843.966 108.85H849.328V107.562H850.672V108.85H856.006V110.124H850.672V111.23H855.054V115.444H851.708C852.688 116.746 854.298 117.908 856.538 118.93L855.628 120.092C853.276 118.72 851.624 117.194 850.672 115.514V120.428H849.328V115.514C848.278 117.376 846.584 118.902 844.26 120.106L843.49 118.874C845.646 117.964 847.242 116.816 848.278 115.444H844.974V111.23H849.328V110.124H843.966V108.85ZM853.724 114.226V112.476H850.672V114.226H853.724ZM849.328 114.226V112.476H846.304V114.226H849.328Z" fill="white"/>
<defs>
<linearGradient id="paint0_linear_7431_2890" x1="25.8194" y1="16" x2="25.8194" y2="66.1354" gradientUnits="userSpaceOnUse">
<stop stop-color="#3478A9"/>
<stop offset="1" stop-color="#86B3D3"/>
</linearGradient>
<linearGradient id="paint1_linear_7431_2890" x1="842.819" y1="86" x2="842.819" y2="136.135" gradientUnits="userSpaceOnUse">
<stop stop-color="#3478A9"/>
<stop offset="1" stop-color="#86B3D3"/>
</linearGradient>
</defs>
</svg>
