<svg width="677" height="32" viewBox="0 0 677 32" fill="none" xmlns="http://www.w3.org/2000/svg">
<rect x="76.5" y="0.5" width="117" height="31" rx="7.5" fill="#02ADEC" fill-opacity="0.1"/>
<rect x="76.5" y="0.5" width="117" height="31" rx="7.5" stroke="#02ADEC" stroke-dasharray="2 2"/>
<path d="M91.22 11.004H92.116V21H90.968V12.404C90.338 13.048 89.554 13.496 88.616 13.776V12.628C89.064 12.502 89.54 12.306 90.016 12.026C90.492 11.718 90.884 11.382 91.22 11.004ZM95.4671 19.334C95.6911 19.334 95.9011 19.418 96.0691 19.586C96.2371 19.754 96.3211 19.95 96.3211 20.202C96.3211 20.44 96.2371 20.636 96.0691 20.804C95.9011 20.972 95.6911 21.056 95.4671 21.056C95.2151 21.056 95.0191 20.972 94.8651 20.804C94.6971 20.636 94.6131 20.44 94.6131 20.202C94.6131 19.95 94.6971 19.754 94.8651 19.586C95.0191 19.418 95.2151 19.334 95.4671 19.334ZM99.6205 22.274H98.3605L98.1505 21.294C98.5425 21.322 98.9065 21.35 99.2705 21.35C99.6065 21.35 99.7885 21.168 99.7885 20.818V17.402C99.2565 17.612 98.7105 17.808 98.1645 17.976L97.9265 16.968C98.5565 16.814 99.1725 16.618 99.7885 16.38V13.216H98.0945V12.25H99.7885V9.604H100.825V12.25H102.239V13.216H100.825V15.946C101.231 15.75 101.637 15.554 102.029 15.33V16.352C101.637 16.562 101.231 16.758 100.825 16.954V21.084C100.825 21.868 100.419 22.274 99.6205 22.274ZM103.331 10.052H109.435V14.91H103.331V10.052ZM108.455 14.084V12.88H104.311V14.084H108.455ZM104.311 12.096H108.455V10.878H104.311V12.096ZM102.351 15.89H110.359V16.786H106.859V18.368H109.785V19.278H106.859V21.084C107.419 21.168 108.077 21.21 108.847 21.21C109.575 21.21 110.205 21.182 110.723 21.14L110.443 22.12C109.883 22.12 109.365 22.106 108.917 22.106C107.069 22.092 105.809 21.91 105.137 21.574C104.605 21.294 104.115 20.762 103.695 19.978C103.359 20.846 102.897 21.644 102.295 22.372L101.553 21.728C102.617 20.44 103.205 18.984 103.317 17.388L104.213 17.486C104.185 17.99 104.115 18.466 104.003 18.942C104.451 19.88 104.969 20.482 105.557 20.748C105.655 20.79 105.767 20.832 105.893 20.874V16.786H102.351V15.89ZM122.105 14.434V10.612H123.113V15.414H118.829V20.552H122.777V16.73H123.799V22.302H122.777V21.518H112.823V16.73H113.845V20.552H117.793V15.414H113.509V10.612H114.517V14.434H117.793V9.548H118.829V14.434H122.105ZM137.547 15.302H134.551V16.422H137.827V17.248H134.551V18.41H138.233V19.264H134.551V20.65H133.571V19.264H130.393V18.41H133.571V17.248H130.827V16.422H133.571V15.302H131.121V14.462H133.571V13.342H130.435V12.502H133.571V11.396H131.121V10.556H133.571V9.534H134.551V10.556H137.547V12.502H138.485V13.342H137.547V15.302ZM134.551 11.396V12.502H136.567V11.396H134.551ZM134.551 13.342V14.462H136.567V13.342H134.551ZM133.893 21.154C135.433 21.154 137.015 21.126 138.639 21.084L138.471 22.05H134.327C131.807 22.05 130.001 21.686 128.909 20.958C128.727 20.818 128.573 20.692 128.433 20.552C127.985 21.21 127.425 21.784 126.781 22.274L126.123 21.42C126.781 20.944 127.327 20.384 127.775 19.74C127.229 18.956 126.781 17.962 126.445 16.758L127.285 16.45C127.565 17.444 127.901 18.256 128.265 18.872C128.741 17.878 129.021 16.716 129.105 15.386H126.515V14.602C127.327 13.566 128.083 12.446 128.755 11.242H126.459V10.29H129.889V11.116C129.189 12.404 128.489 13.51 127.817 14.462H130.015V15.064C129.959 16.912 129.581 18.48 128.909 19.768C129.133 20.006 129.357 20.188 129.595 20.328C130.547 20.86 131.989 21.126 133.893 21.154ZM141.565 9.828C142.447 10.528 143.189 11.214 143.791 11.9L143.105 12.6C142.559 11.928 141.817 11.228 140.865 10.486L141.565 9.828ZM139.941 13.874H142.867V20.09C143.371 19.67 143.917 19.194 144.491 18.648L144.771 19.712C143.889 20.538 142.951 21.266 141.971 21.91L141.579 21.014C141.775 20.818 141.887 20.608 141.887 20.384V14.84H139.941V13.874ZM144.911 15.512H151.575V16.436C151.127 17.752 150.399 18.886 149.377 19.838C150.329 20.496 151.491 21.07 152.863 21.574L152.317 22.442C150.861 21.854 149.629 21.196 148.649 20.44C147.529 21.28 146.143 21.938 144.505 22.442L143.945 21.588C145.499 21.126 146.801 20.524 147.851 19.782C146.787 18.802 146.073 17.71 145.681 16.492H144.911V15.512ZM146.633 16.492C146.997 17.5 147.641 18.41 148.565 19.208C149.461 18.424 150.133 17.528 150.581 16.492H146.633ZM145.989 10.108H150.693V13.132C150.693 13.482 150.875 13.664 151.239 13.664H152.527V14.588H150.987C150.119 14.588 149.699 14.168 149.699 13.342V11.06H146.983V11.55C146.983 13.034 146.255 14.182 144.827 14.994L144.155 14.224C145.373 13.622 145.989 12.768 145.989 11.662V10.108ZM154.109 16.212H166.513V17.08H160.605L160.129 18.088H165.575V21.154C165.575 21.966 165.155 22.386 164.329 22.386H163.335L163.111 21.518L164.049 21.56C164.413 21.56 164.595 21.35 164.595 20.944V18.956H162.341V22.274H161.375V18.956H159.303V22.274H158.337V18.956H156.237V22.442H155.285V18.088H159.107L159.583 17.08H154.109V16.212ZM154.963 10.038H165.673V10.864H160.801V11.746H166.177V14.63H165.211V12.544H160.801V15.638H159.821V12.544H155.411V14.63H154.445V11.746H159.821V10.864H154.963V10.038ZM156.167 13.328H159.079V14H156.167V13.328ZM156.167 14.728H159.079V15.4H156.167V14.728ZM161.529 13.328H164.427V14H161.529V13.328ZM161.543 14.728H164.469V15.4H161.543V14.728ZM168.319 12.138H173.891V9.52H174.927V12.138H178.091C177.573 11.536 176.887 10.906 176.047 10.234L176.705 9.618C177.545 10.234 178.245 10.864 178.805 11.48L178.147 12.138H180.275V13.104H174.927V13.916C175.305 14.77 175.767 15.582 176.313 16.338C177.307 15.582 178.161 14.728 178.875 13.776L179.617 14.434C178.847 15.428 177.923 16.296 176.845 17.038C177.895 18.34 179.197 19.488 180.737 20.468L180.037 21.294C177.769 19.726 176.075 17.822 174.927 15.568V21.014C174.927 21.882 174.507 22.316 173.667 22.316H171.777L171.567 21.35C172.183 21.392 172.757 21.42 173.317 21.42C173.695 21.42 173.891 21.196 173.891 20.762V16.94C172.421 18.732 170.699 20.244 168.725 21.448L168.179 20.538C170.335 19.362 172.239 17.766 173.891 15.722V13.104H168.319V12.138ZM169.677 14.07C170.629 14.91 171.427 15.764 172.071 16.604L171.371 17.29C170.797 16.492 169.999 15.638 168.977 14.728L169.677 14.07Z" fill="#1A262C"/>
<rect x="218.5" y="0.5" width="120" height="31" rx="7.5" fill="#02ADEC" fill-opacity="0.1"/>
<rect x="218.5" y="0.5" width="120" height="31" rx="7.5" stroke="#02ADEC" stroke-dasharray="2 2"/>
<path d="M234.34 10.808C235.264 10.808 236.02 11.074 236.622 11.606C237.21 12.138 237.518 12.852 237.518 13.72C237.518 14.588 237.182 15.372 236.538 16.072C236.188 16.436 235.502 16.982 234.466 17.682C233.192 18.536 232.464 19.306 232.282 19.978H237.532V21H230.868C230.868 20.09 231.19 19.264 231.862 18.522C232.254 18.074 232.968 17.472 234.032 16.744C234.816 16.184 235.334 15.778 235.6 15.498C236.104 14.952 236.37 14.35 236.37 13.706C236.37 13.09 236.188 12.628 235.824 12.292C235.46 11.956 234.942 11.788 234.298 11.788C233.612 11.788 233.08 12.012 232.716 12.488C232.324 12.936 232.114 13.608 232.1 14.49H230.952C230.952 13.37 231.274 12.474 231.89 11.816C232.506 11.144 233.332 10.808 234.34 10.808ZM240.243 19.334C240.467 19.334 240.677 19.418 240.845 19.586C241.013 19.754 241.097 19.95 241.097 20.202C241.097 20.44 241.013 20.636 240.845 20.804C240.677 20.972 240.467 21.056 240.243 21.056C239.991 21.056 239.795 20.972 239.641 20.804C239.473 20.636 239.389 20.44 239.389 20.202C239.389 19.95 239.473 19.754 239.641 19.586C239.795 19.418 239.991 19.334 240.243 19.334ZM246.314 19.432V20.356C245.334 20.874 244.214 21.294 242.968 21.602L242.842 20.622C244.158 20.328 245.32 19.936 246.314 19.432ZM244.886 9.534L245.824 9.898C245.166 11.676 244.494 13.09 243.822 14.14C244.424 14.056 245.026 13.958 245.614 13.832C245.838 13.384 246.09 12.908 246.342 12.404L247.224 12.726C246.048 14.994 245.068 16.604 244.312 17.556C245.124 17.388 245.922 17.15 246.734 16.87V17.766C245.474 18.186 244.284 18.48 243.136 18.648L242.856 17.738C243.038 17.668 243.192 17.57 243.318 17.458C243.822 16.926 244.424 16.016 245.138 14.728C244.396 14.882 243.654 15.008 242.912 15.12L242.66 14.21C242.814 14.154 242.954 14.028 243.066 13.846C243.766 12.586 244.382 11.158 244.886 9.534ZM254.042 22.358H253.44L253.216 21.574L253.776 21.602C254.028 21.602 254.154 21.462 254.154 21.182V19.292H253.034V22.162H252.292V19.292H251.27V22.162H250.528V19.292H249.422V22.414H248.596V15.75H254.994V21.378C254.994 22.022 254.672 22.358 254.042 22.358ZM249.422 18.452H250.528V16.618H249.422V18.452ZM251.27 16.618V18.452H252.292V16.618H251.27ZM253.034 16.618V18.452H254.154V16.618H253.034ZM254.014 11.872H248.554V13.664H254.014V11.872ZM248.554 14.532C248.512 17.584 247.882 20.202 246.65 22.386L245.922 21.742C247.042 19.838 247.602 17.388 247.616 14.378V10.976H250.808C250.626 10.5 250.43 10.052 250.206 9.66L251.256 9.492C251.438 9.926 251.62 10.416 251.788 10.976H254.938V14.532H248.554ZM258.27 12.278C258.018 12.838 257.724 13.3 257.388 13.664L256.576 13.076C257.276 12.32 257.724 11.284 257.92 9.954L258.872 10.108C258.802 10.556 258.718 10.962 258.606 11.34H260.23V9.604H261.238V11.34H263.856V12.278H261.238V14.084H264.262V15.022H261.238V16.492H263.968V20.188C263.968 21.014 263.548 21.434 262.708 21.434H261.966L261.714 20.482L262.4 20.524C262.792 20.524 263.002 20.342 263.002 19.978V17.43H261.238V22.414H260.23V17.43H258.452V21.532H257.472V16.492H260.23V15.022H256.842V14.084H260.23V12.278H258.27ZM265.088 10.864H266.068V19.516H265.088V10.864ZM267.65 22.274H265.592L265.368 21.308C266.04 21.35 266.684 21.378 267.3 21.378C267.72 21.378 267.944 21.154 267.944 20.706V9.604H268.938V20.958C268.938 21.826 268.504 22.274 267.65 22.274ZM278.052 11.606H275.98V10.64H282.938C282.938 15.442 282.868 18.41 282.728 19.544C282.56 21.28 281.818 22.162 280.474 22.162C280.166 22.162 279.634 22.134 278.878 22.106L278.626 21.182C279.284 21.21 279.844 21.238 280.32 21.238C281.146 21.238 281.622 20.538 281.748 19.138C281.832 18.312 281.888 15.806 281.916 11.606H279.046V12.712C278.99 17.122 277.786 20.342 275.434 22.386L274.664 21.714C276.876 19.838 278.01 16.842 278.052 12.712V11.606ZM272.676 16.786C272.144 17.374 271.57 17.948 270.926 18.536L270.632 17.514C272.438 15.862 273.642 14.238 274.23 12.67H270.94V11.746H272.83C272.606 11.074 272.326 10.43 271.99 9.8L272.97 9.534C273.32 10.262 273.586 10.934 273.768 11.55L273.278 11.746H275.21V12.572C274.874 13.58 274.356 14.588 273.642 15.582V15.68C273.894 15.848 274.118 16.016 274.342 16.198C274.818 15.862 275.294 15.344 275.742 14.672L276.358 15.288C275.938 15.876 275.476 16.352 274.958 16.702C275.364 17.052 275.742 17.416 276.092 17.808L275.546 18.648C274.916 17.836 274.286 17.164 273.642 16.604V22.4H272.676V16.786ZM290.652 9.534H291.674V11.228H295.916V12.194H291.674V14.126H297.302V15.106H291.744V19.334H290.736V15.106H284.87V14.126H287.012V10.626H288.034V14.126H290.652V9.534ZM295.216 16.128L296.14 16.618C294.376 20.496 290.988 22.442 286.004 22.456L285.64 21.49C290.484 21.49 293.676 19.698 295.216 16.128ZM288.23 15.736L288.944 16.38C288.104 17.682 287.082 18.816 285.85 19.782L285.22 18.97C286.41 18.046 287.418 16.968 288.23 15.736ZM298.996 11.634H305.03C304.75 11.018 304.414 10.416 304.008 9.856L304.96 9.506C305.352 10.094 305.716 10.808 306.052 11.634H311.288V12.6H303.91L303.784 15.092V15.12H309.594C309.566 17.892 309.454 19.67 309.272 20.454C308.992 21.644 308.306 22.26 307.2 22.302C306.752 22.302 306.206 22.274 305.59 22.246L305.282 21.336C306.01 21.364 306.612 21.378 307.102 21.378C307.816 21.35 308.25 20.846 308.418 19.866C308.502 19.278 308.544 18.004 308.572 16.072H303.672C303.49 17.206 303.14 18.228 302.636 19.152C301.95 20.356 300.998 21.448 299.766 22.442L299.038 21.742C300.522 20.482 301.516 19.32 302.006 18.242C302.482 17.164 302.748 15.96 302.818 14.63C302.86 13.748 302.888 13.076 302.902 12.6H298.996V11.634ZM318.134 11.802L319.044 12.068C318.792 12.404 318.554 12.712 318.33 13.006H324.672V13.818H322.32C321.816 14.476 321.284 15.008 320.71 15.428C321.942 15.736 323.216 16.114 324.518 16.548L323.93 17.318C322.53 16.814 321.116 16.38 319.702 16.002C318.232 16.688 316.314 17.052 313.934 17.08L313.388 16.254C315.516 16.254 317.196 16.058 318.428 15.666C317.448 15.414 316.482 15.204 315.516 15.022C315.88 14.602 316.23 14.21 316.566 13.818H313.528V13.006H317.224C317.546 12.6 317.854 12.194 318.134 11.802ZM319.59 15.148C320.262 14.756 320.822 14.322 321.242 13.818H317.686C317.434 14.112 317.196 14.378 316.986 14.602C317.84 14.742 318.708 14.924 319.59 15.148ZM324.714 10.668V12.642H323.762V11.522H314.41V12.642H313.458V10.668H318.638C318.456 10.304 318.26 9.982 318.05 9.674L319.1 9.506C319.296 9.856 319.464 10.248 319.632 10.668H324.714ZM313.094 17.892H318.596V16.8H319.632V17.892H325.092V18.788H320.542C321.55 19.754 323.132 20.524 325.274 21.098L324.84 21.98C322.404 21.182 320.668 20.132 319.632 18.844V22.372H318.596V18.802C317.7 20.062 315.992 21.154 313.472 22.078L312.912 21.182C315.236 20.482 316.832 19.684 317.7 18.788H313.094V17.892Z" fill="#1A262C"/>
<rect x="363.5" y="0.5" width="92" height="31" rx="7.5" fill="#02ADEC" fill-opacity="0.1"/>
<rect x="363.5" y="0.5" width="92" height="31" rx="7.5" stroke="#02ADEC" stroke-dasharray="2 2"/>
<path d="M379.298 10.808C380.25 10.808 381.034 11.046 381.622 11.536C382.196 12.026 382.49 12.684 382.49 13.524C382.49 14.644 381.944 15.4 380.852 15.764C381.44 15.946 381.888 16.226 382.196 16.618C382.532 17.01 382.7 17.5 382.7 18.088C382.7 18.998 382.378 19.74 381.748 20.314C381.104 20.902 380.264 21.196 379.228 21.196C378.276 21.196 377.506 20.944 376.904 20.468C376.19 19.88 375.798 19.026 375.714 17.906H376.876C376.904 18.69 377.17 19.292 377.66 19.698C378.08 20.034 378.598 20.216 379.228 20.216C379.942 20.216 380.516 20.006 380.95 19.6C381.342 19.208 381.552 18.718 381.552 18.13C381.552 17.528 381.356 17.066 380.964 16.73C380.572 16.394 380.04 16.24 379.34 16.24H378.528V15.344H379.298C379.97 15.344 380.474 15.19 380.824 14.896C381.174 14.588 381.356 14.154 381.356 13.594C381.356 13.034 381.174 12.6 380.838 12.292C380.474 11.956 379.956 11.802 379.312 11.802C378.64 11.802 378.122 11.97 377.744 12.334C377.352 12.698 377.128 13.216 377.058 13.888H375.924C376.008 12.922 376.372 12.166 376.988 11.62C377.576 11.074 378.346 10.808 379.298 10.808ZM385.243 19.334C385.467 19.334 385.677 19.418 385.845 19.586C386.013 19.754 386.097 19.95 386.097 20.202C386.097 20.44 386.013 20.636 385.845 20.804C385.677 20.972 385.467 21.056 385.243 21.056C384.991 21.056 384.795 20.972 384.641 20.804C384.473 20.636 384.389 20.44 384.389 20.202C384.389 19.95 384.473 19.754 384.641 19.586C384.795 19.418 384.991 19.334 385.243 19.334ZM389.522 11.914H387.856V10.934H392.182V11.914H390.558V18.242C391.16 18.032 391.734 17.822 392.28 17.598V18.606C391.048 19.124 389.62 19.6 387.996 20.034L387.702 19.04C388.332 18.886 388.934 18.732 389.522 18.564V11.914ZM392.714 10.164H400.47V11.144H397.124C397.04 11.676 396.942 12.166 396.83 12.642H399.798V19.222H398.818V13.566H394.324V19.222H393.358V12.642H395.822C395.962 12.166 396.06 11.662 396.13 11.144H392.714V10.164ZM397.712 19.25C398.86 20.09 399.84 20.93 400.624 21.77L399.896 22.498C399.196 21.686 398.244 20.818 397.04 19.894L397.712 19.25ZM396.004 14.462H397.012V16.87C396.956 18.382 396.564 19.586 395.808 20.496C395.066 21.322 393.862 21.98 392.182 22.456L391.636 21.588C393.26 21.154 394.408 20.566 395.052 19.838C395.64 19.082 395.962 18.088 396.004 16.87V14.462ZM412.79 10.248V22.386H411.782V21.476H404.418V22.414H403.396V10.248H412.79ZM404.418 20.496H411.782V17.864H404.418V20.496ZM404.418 16.94H411.782V14.476H404.418V16.94ZM404.418 13.552H411.782V11.228H404.418V13.552ZM420.098 11.662H422.926V9.576H423.892V11.662H427.098V15.778H428.344V16.73H424.186C425.082 18.746 426.538 20.356 428.554 21.574L427.882 22.344C425.838 20.958 424.368 19.208 423.458 17.094C422.786 19.502 421.344 21.266 419.16 22.386L418.516 21.546C420.616 20.566 421.96 18.956 422.548 16.73H419.524V15.778H422.758C422.856 15.148 422.912 14.49 422.926 13.79V12.628H420.098V11.662ZM423.892 12.628V13.566C423.892 14.35 423.836 15.078 423.738 15.778H426.118V12.628H423.892ZM416.682 10.038C417.62 11.256 418.334 12.32 418.838 13.244L418.012 13.818C417.48 12.838 416.766 11.76 415.856 10.556L416.682 10.038ZM418.11 15.834L418.992 16.184C418.32 18.256 417.564 20.202 416.724 22.022L415.772 21.602C416.668 19.726 417.452 17.794 418.11 15.834ZM429.94 13.734H435.568V12.768H436.604V13.734H442.232V14.658H436.604V15.75H441.196V18.382C441.196 19.096 440.818 19.46 440.076 19.46H439.124L438.872 18.564L439.782 18.606C440.048 18.606 440.188 18.452 440.188 18.172V16.632H436.604V17.864C438.13 19.292 440.118 20.398 442.554 21.21L442.022 22.12C439.922 21.322 438.116 20.23 436.604 18.844V22.442H435.568V18.9C434.098 20.314 432.418 21.406 430.542 22.19L429.954 21.308C432.152 20.496 434.028 19.348 435.568 17.85V16.632H432.208V19.432H431.214V15.75H435.568V14.658H429.94V13.734ZM431.746 11.606C431.41 12.138 431.046 12.628 430.654 13.076L429.786 12.53C430.682 11.578 431.326 10.528 431.732 9.38L432.698 9.59C432.558 9.982 432.404 10.36 432.236 10.71H435.848V11.606H433.482C433.832 12.11 434.126 12.586 434.35 13.02L433.44 13.356C433.16 12.74 432.824 12.166 432.432 11.606H431.746ZM437.598 11.606C437.374 12.054 437.122 12.488 436.842 12.88L435.988 12.32C436.618 11.438 437.08 10.458 437.36 9.394L438.34 9.604C438.228 9.982 438.116 10.346 437.99 10.71H442.19V11.606H439.586C439.922 12.11 440.202 12.586 440.412 13.02L439.53 13.356C439.25 12.74 438.914 12.166 438.55 11.606H437.598Z" fill="#1A262C"/>
<rect x="480.5" y="0.5" width="120" height="31" rx="7.5" fill="#02ADEC" fill-opacity="0.1"/>
<rect x="480.5" y="0.5" width="120" height="31" rx="7.5" stroke="#02ADEC" stroke-dasharray="2 2"/>
<path d="M497.376 11.004H498.454V17.794H500.078V18.732H498.454V21H497.362V18.732H492.336V17.64L497.376 11.004ZM497.32 12.502L493.302 17.794H497.362V12.502H497.32ZM502.243 19.334C502.467 19.334 502.677 19.418 502.845 19.586C503.013 19.754 503.097 19.95 503.097 20.202C503.097 20.44 503.013 20.636 502.845 20.804C502.677 20.972 502.467 21.056 502.243 21.056C501.991 21.056 501.795 20.972 501.641 20.804C501.473 20.636 501.389 20.44 501.389 20.202C501.389 19.95 501.473 19.754 501.641 19.586C501.795 19.418 501.991 19.334 502.243 19.334ZM515.482 22.274H513.578L513.354 21.308C513.97 21.35 514.572 21.378 515.132 21.378C515.636 21.378 515.902 21.098 515.902 20.552V9.66H516.91V20.79C516.91 21.77 516.434 22.274 515.482 22.274ZM512.92 10.724H513.9V19.572H512.92V10.724ZM505.094 10.164H511.884V11.144H508.258C508.16 11.816 508.034 12.46 507.866 13.062H511.198V13.958C510.512 17.906 508.608 20.678 505.5 22.26L505.01 21.364C506.592 20.552 507.838 19.418 508.734 17.962C508.02 17.374 507.208 16.828 506.284 16.324C505.962 16.744 505.612 17.136 505.234 17.486L504.758 16.548C506.13 15.232 506.97 13.44 507.264 11.144H505.094V10.164ZM506.788 15.554C507.698 16.058 508.496 16.576 509.196 17.122C509.658 16.184 510.008 15.148 510.232 14.014H507.544C507.32 14.574 507.068 15.078 506.788 15.554ZM524.47 12.81C523.826 11.634 523.056 10.738 522.16 10.094L523 9.562C524.246 10.43 525.296 12.012 526.164 14.28C527.48 17.626 529.23 19.992 531.442 21.378L530.812 22.19C528.544 20.818 526.696 18.27 525.254 14.574C525.17 14.35 525.1 14.154 525.03 13.986C524.106 17.556 522.174 20.3 519.234 22.204L518.632 21.35C521.628 19.39 523.574 16.534 524.47 12.81ZM533.738 9.856C534.578 10.122 535.362 10.444 536.062 10.836L535.53 11.648C534.774 11.2 534.018 10.864 533.248 10.612L533.738 9.856ZM538.246 9.52L539.24 9.646C539.128 9.954 539.016 10.262 538.876 10.542H544.518V11.144C544.35 11.83 544.126 12.516 543.846 13.188L542.88 12.894C543.118 12.46 543.314 11.97 543.482 11.424H541.102C541.046 11.76 540.962 12.068 540.85 12.348C541.578 13.426 543.02 14.168 545.176 14.574L544.812 15.47C542.768 15.05 541.312 14.294 540.444 13.174C540.276 13.426 540.094 13.664 539.884 13.888C539.198 14.532 538.078 15.05 536.51 15.414L536.132 14.518C537.504 14.224 538.498 13.818 539.114 13.286C539.618 12.824 539.968 12.208 540.136 11.424H538.344C537.952 11.928 537.49 12.39 536.958 12.81L536.37 12.026C537.294 11.354 537.91 10.514 538.246 9.52ZM543.566 15.792V19.95H542.558V16.73H535.572V20.062H534.564V15.792H543.566ZM538.666 17.262L539.674 17.346C539.478 19.124 539.058 20.314 538.4 20.93C537.672 21.686 536.048 22.176 533.528 22.372L533.136 21.476C535.362 21.35 536.832 20.972 537.546 20.328C538.176 19.726 538.554 18.704 538.666 17.262ZM535.684 12.488L536.272 13.174C535.572 13.902 534.704 14.588 533.668 15.232L532.996 14.448C534.06 13.846 534.956 13.188 535.684 12.488ZM539.996 19.908C541.816 20.384 543.468 20.958 544.966 21.63L544.42 22.47C542.824 21.714 541.172 21.112 539.478 20.678L539.996 19.908ZM549.418 13.566C548.746 13.972 548.046 14.35 547.318 14.686L546.73 13.846C549.166 12.754 551.154 11.368 552.694 9.674H553.506C554.85 11.34 556.824 12.712 559.428 13.804L558.854 14.644C558.112 14.336 557.426 13.986 556.782 13.608V14.378H553.604V16.394H558.588V17.332H553.604V21.07H555.158C555.634 20.16 556.054 19.18 556.418 18.13L557.342 18.452C556.992 19.432 556.6 20.314 556.18 21.07H559.078V22.036H547.108V21.07H550.006C549.712 20.174 549.334 19.348 548.886 18.564L549.796 18.228C550.23 19.012 550.622 19.964 550.986 21.07H552.596V17.332H547.598V16.394H552.596V14.378H549.418V13.566ZM556.544 13.468C555.172 12.656 554.024 11.704 553.1 10.626C552.05 11.718 550.874 12.67 549.572 13.468H556.544ZM565.098 13.762H568.892V9.548H569.928V13.762H573.526V14.77H569.928V22.428H568.892V14.77H565.098V13.762ZM562.354 9.702C563.306 10.416 564.104 11.13 564.748 11.858L564.062 12.558C563.474 11.872 562.662 11.144 561.654 10.388L562.354 9.702ZM560.716 13.846H563.74V20.076C564.244 19.656 564.804 19.18 565.392 18.62L565.644 19.656C564.776 20.496 563.838 21.238 562.844 21.896L562.452 20.986C562.662 20.818 562.774 20.622 562.774 20.398V14.812H560.716V13.846ZM583.088 10.78H584.068V19.516H583.088V10.78ZM585.58 22.274H583.564L583.34 21.308C584.012 21.35 584.642 21.378 585.23 21.378C585.664 21.378 585.888 21.154 585.888 20.72V9.604H586.896V20.972C586.896 21.84 586.448 22.274 585.58 22.274ZM581.688 12.684L581.842 13.664L577.782 14.294C577.866 15.05 577.964 15.722 578.09 16.338C578.216 16.94 578.356 17.472 578.51 17.948C579.336 17.01 580.036 15.904 580.61 14.63L581.492 15.092C580.792 16.66 579.924 17.99 578.902 19.054C579.042 19.404 579.196 19.712 579.35 19.992C579.868 20.818 580.344 21.238 580.764 21.252C581.016 21.21 581.268 20.482 581.548 19.054L582.402 19.6C582.206 20.328 581.996 20.93 581.772 21.42C581.492 22.008 581.17 22.316 580.82 22.316C580.176 22.316 579.532 21.868 578.888 20.972C578.636 20.608 578.398 20.202 578.188 19.74C577.292 20.496 576.312 21.112 575.234 21.56L574.632 20.65C575.808 20.188 576.858 19.544 577.768 18.704C577.572 18.186 577.404 17.626 577.25 17.01C577.054 16.282 576.914 15.428 576.802 14.448L574.982 14.728L574.828 13.748L576.704 13.454C576.592 12.306 576.536 11.018 576.536 9.59H577.572C577.572 10.962 577.614 12.194 577.698 13.3L581.688 12.684ZM579.42 9.534C579.952 10.164 580.442 10.85 580.918 11.592L580.064 12.012C579.602 11.242 579.112 10.556 578.594 9.94L579.42 9.534Z" fill="#1A262C"/>
<path d="M480 16L475 13.1133L475 18.8868L480 16ZM456 16.5L475.5 16.5L475.5 15.5L456 15.5L456 16.5Z" fill="#96A0AD"/>
<path d="M625 16L620 13.1133L620 18.8868L625 16ZM601 16.5L620.5 16.5L620.5 15.5L601 15.5L601 16.5Z" fill="#96A0AD"/>
<path d="M76 16L71 13.1133L71 18.8868L76 16ZM52 16.5L71.5 16.5L71.5 15.5L52 15.5L52 16.5Z" fill="#96A0AD"/>
<path d="M363 16L358 13.1133L358 18.8868L363 16ZM339 16.5L358.5 16.5L358.5 15.5L339 15.5L339 16.5Z" fill="#96A0AD"/>
<path d="M218 16L213 13.1133L213 18.8868L218 16ZM194 16.5L213.5 16.5L213.5 15.5L194 15.5L194 16.5Z" fill="#96A0AD"/>
<rect y="2" width="52" height="28" rx="14" fill="url(#paint0_linear_7431_2896)"/>
<path d="M13.498 10.262H24.53V11.55H22.29V14.91H25.244V16.198H22.29V22.26H20.96V16.198H17.208C17.068 17.598 16.802 18.76 16.382 19.698C15.85 20.874 14.954 21.784 13.708 22.414L12.994 21.294C14.114 20.636 14.884 19.796 15.29 18.788C15.556 18.06 15.738 17.192 15.85 16.198H12.77V14.91H15.948C15.948 14.798 15.962 14.686 15.962 14.602V11.55H13.498V10.262ZM17.306 11.55V14.602C17.306 14.714 17.292 14.812 17.292 14.91H20.96V11.55H17.306ZM28.142 9.436L29.444 9.548C29.332 10.444 29.22 11.298 29.108 12.082H31.096V12.824C31.012 15.064 30.648 16.996 30.004 18.648C30.62 19.292 31.138 19.88 31.53 20.398L30.634 21.448C30.284 20.972 29.878 20.482 29.402 19.95C28.87 20.93 28.212 21.784 27.428 22.512L26.588 21.462C27.372 20.762 28.002 19.922 28.492 18.97C27.946 18.41 27.358 17.822 26.714 17.206C27.022 16.03 27.316 14.742 27.568 13.356H26.588V12.082H27.778C27.904 11.228 28.03 10.346 28.142 9.436ZM29.052 17.682C29.5 16.408 29.78 14.966 29.864 13.356H28.898C28.66 14.728 28.408 15.89 28.142 16.814C28.464 17.122 28.772 17.402 29.052 17.682ZM38.46 16.31V22.456H37.186V21.672H33.35V22.456H32.09V16.31H38.46ZM33.35 20.426H37.186V17.528H33.35V20.426ZM31.614 15.288L31.404 14.084C32.09 13.86 33.056 12.334 34.302 9.492L35.562 9.912C34.806 11.536 34.05 12.908 33.266 14C34.61 13.916 35.912 13.776 37.172 13.58C36.836 12.88 36.486 12.236 36.15 11.634L37.284 11.088C38.012 12.306 38.684 13.65 39.328 15.12L38.11 15.708C37.97 15.344 37.83 15.008 37.69 14.7C35.87 14.952 33.84 15.148 31.614 15.288Z" fill="white"/>
<rect x="625" y="2" width="52" height="28" rx="14" fill="url(#paint1_linear_7431_2896)"/>
<path d="M642.768 19.446V20.706C641.34 21.21 639.73 21.63 637.91 21.952L637.742 20.664C639.66 20.356 641.34 19.95 642.768 19.446ZM639.968 9.45L641.214 9.926C640.542 11.62 639.87 12.992 639.17 14.056C639.702 14 640.248 13.93 640.808 13.846C641.06 13.37 641.312 12.88 641.592 12.362L642.754 12.782C641.564 14.966 640.57 16.576 639.758 17.584C640.696 17.388 641.648 17.122 642.6 16.786V17.976C641.032 18.508 639.562 18.858 638.162 19.04L637.812 17.85C638.05 17.752 638.246 17.626 638.414 17.472C638.862 16.996 639.436 16.198 640.122 15.05C639.422 15.148 638.68 15.246 637.924 15.358L637.602 14.14C637.798 14.056 637.98 13.888 638.148 13.65C638.848 12.39 639.464 10.99 639.968 9.45ZM642.558 11.144H645.792V9.562H647.122V11.144H650.342V12.432H647.122V14.196H649.936V15.484H643.02V14.196H645.792V12.432H642.558V11.144ZM649.642 16.576V22.4H648.354V21.84H644.658V22.4H643.356V16.576H649.642ZM644.658 20.58H648.354V17.836H644.658V20.58ZM651.966 10.85H657.328V9.562H658.672V10.85H664.006V12.124H658.672V13.23H663.054V17.444H659.708C660.688 18.746 662.298 19.908 664.538 20.93L663.628 22.092C661.276 20.72 659.624 19.194 658.672 17.514V22.428H657.328V17.514C656.278 19.376 654.584 20.902 652.26 22.106L651.49 20.874C653.646 19.964 655.242 18.816 656.278 17.444H652.974V13.23H657.328V12.124H651.966V10.85ZM661.724 16.226V14.476H658.672V16.226H661.724ZM657.328 16.226V14.476H654.304V16.226H657.328Z" fill="white"/>
<defs>
<linearGradient id="paint0_linear_7431_2896" x1="25.8194" y1="-12" x2="25.8194" y2="38.1354" gradientUnits="userSpaceOnUse">
<stop stop-color="#3478A9"/>
<stop offset="1" stop-color="#86B3D3"/>
</linearGradient>
<linearGradient id="paint1_linear_7431_2896" x1="650.819" y1="-12" x2="650.819" y2="38.1354" gradientUnits="userSpaceOnUse">
<stop stop-color="#3478A9"/>
<stop offset="1" stop-color="#86B3D3"/>
</linearGradient>
</defs>
</svg>
