<svg width="853" height="294" viewBox="0 0 853 294" fill="none" xmlns="http://www.w3.org/2000/svg">
<rect x="76.5" y="28.5" width="128" height="31" rx="7.5" fill="#02ADEC" fill-opacity="0.1"/>
<rect x="76.5" y="28.5" width="128" height="31" rx="7.5" stroke="#02ADEC" stroke-dasharray="2 2"/>
<path d="M92.088 38.808C93.292 38.808 94.202 39.256 94.818 40.152C95.406 40.992 95.7 42.196 95.7 43.736C95.7 45.332 95.378 46.62 94.762 47.628C94.09 48.664 93.194 49.196 92.074 49.196C90.212 49.196 89.148 48.3 88.882 46.522H90.016C90.226 47.656 90.912 48.23 92.088 48.23C92.858 48.23 93.474 47.838 93.936 47.068C94.37 46.326 94.594 45.388 94.594 44.268C94.594 44.198 94.58 44.072 94.58 43.904H94.524C94.272 44.408 93.908 44.814 93.446 45.108C92.998 45.388 92.48 45.542 91.892 45.542C90.926 45.542 90.156 45.22 89.568 44.59C88.994 43.988 88.714 43.204 88.714 42.238C88.714 41.244 89.022 40.432 89.666 39.788C90.296 39.13 91.108 38.808 92.088 38.808ZM92.116 39.774C91.43 39.774 90.884 39.998 90.464 40.46C90.044 40.922 89.848 41.51 89.848 42.238C89.848 42.938 90.044 43.512 90.464 43.932C90.87 44.366 91.416 44.59 92.116 44.59C92.76 44.59 93.306 44.366 93.754 43.918C94.174 43.47 94.398 42.896 94.398 42.21C94.398 41.51 94.188 40.936 93.782 40.488C93.362 40.012 92.802 39.774 92.116 39.774ZM100.735 38.808C102.583 38.808 103.647 39.69 103.927 41.482H102.793C102.569 40.334 101.883 39.774 100.721 39.774C99.9365 39.774 99.3205 40.152 98.8725 40.936C98.4245 41.664 98.2145 42.602 98.2145 43.736C98.2145 43.792 98.2145 43.918 98.2285 44.1H98.2845C98.5365 43.582 98.8865 43.176 99.3625 42.896C99.8105 42.602 100.329 42.462 100.917 42.462C101.869 42.462 102.639 42.77 103.227 43.386C103.801 44.002 104.095 44.786 104.095 45.766C104.095 46.746 103.773 47.572 103.143 48.216C102.499 48.86 101.701 49.196 100.721 49.196C99.5025 49.196 98.5925 48.734 97.9765 47.838C97.3885 46.984 97.1085 45.794 97.1085 44.268C97.1085 42.672 97.4165 41.37 98.0465 40.376C98.7045 39.326 99.6005 38.808 100.735 38.808ZM100.693 43.414C100.035 43.414 99.4885 43.638 99.0545 44.086C98.6205 44.534 98.4105 45.094 98.4105 45.794C98.4105 46.494 98.6065 47.068 99.0265 47.516C99.4465 47.992 99.9925 48.23 100.693 48.23C101.365 48.23 101.911 47.992 102.331 47.544C102.751 47.068 102.961 46.48 102.961 45.766C102.961 45.052 102.751 44.492 102.345 44.072C101.925 43.624 101.379 43.414 100.693 43.414ZM106.637 47.334C106.861 47.334 107.071 47.418 107.239 47.586C107.407 47.754 107.491 47.95 107.491 48.202C107.491 48.44 107.407 48.636 107.239 48.804C107.071 48.972 106.861 49.056 106.637 49.056C106.385 49.056 106.189 48.972 106.035 48.804C105.867 48.636 105.783 48.44 105.783 48.202C105.783 47.95 105.867 47.754 106.035 47.586C106.189 47.418 106.385 47.334 106.637 47.334ZM110.048 38.402H120.954V39.382H118.616V43.092H121.682V44.058H118.616V50.26H117.594V44.058H113.548C113.422 45.5 113.156 46.69 112.736 47.642C112.204 48.818 111.322 49.728 110.09 50.372L109.544 49.504C110.678 48.86 111.476 48.006 111.924 46.942C112.218 46.13 112.414 45.178 112.526 44.058H109.292V43.092H112.582C112.582 42.91 112.596 42.742 112.596 42.602V39.382H110.048V38.402ZM113.632 39.382V42.602C113.632 42.77 113.618 42.938 113.618 43.092H117.594V39.382H113.632ZM128.976 39.606H124.174V38.64H134.828V39.606H130.012V48.468H135.738V49.434H123.236V48.468H128.976V39.606ZM140.246 44.296V37.646H141.24V50.358H140.246V45.486C139.406 46.382 138.44 47.236 137.376 48.02L137.068 46.97C138.23 46.2 139.294 45.304 140.246 44.296ZM138.202 39.032C138.734 40.152 139.196 41.356 139.588 42.63L138.706 43.036C138.272 41.636 137.782 40.404 137.25 39.34L138.202 39.032ZM147.652 37.842C148.408 38.682 148.982 39.424 149.388 40.054L148.604 40.614C148.184 39.914 147.596 39.158 146.868 38.332L147.652 37.842ZM146.098 37.604C146.098 38.64 146.084 39.872 146.056 41.328H149.472V42.294H146.168C146.77 45.43 148.03 47.866 149.962 49.574L149.276 50.33C147.512 48.664 146.322 46.55 145.706 44.002C145.118 46.536 144.012 48.664 142.416 50.372L141.744 49.616C143.62 47.516 144.698 45.066 144.978 42.294H142.164V41.328H145.034C145.076 39.704 145.104 38.458 145.104 37.604H146.098ZM155.534 38.22H162.576V43.932H160.658V48.762C160.658 49.042 160.812 49.196 161.12 49.196H162.1C162.38 49.196 162.576 49.084 162.688 48.888C162.842 48.636 162.94 47.922 162.996 46.732L163.906 47.012C163.808 48.482 163.626 49.378 163.374 49.686C163.136 49.966 162.772 50.106 162.282 50.106H160.826C160.07 50.106 159.706 49.728 159.706 48.972V43.932H158.348C158.18 46.9 156.892 49.056 154.498 50.4L153.938 49.518C156.094 48.398 157.242 46.536 157.382 43.932H155.534V38.22ZM161.596 42.994V39.186H156.514V42.994H161.596ZM152.034 38.066C153.042 39.242 153.826 40.264 154.386 41.132L153.588 41.692C153.014 40.754 152.23 39.718 151.222 38.57L152.034 38.066ZM153.588 43.82L154.47 44.17C153.728 46.27 152.902 48.244 151.992 50.092L151.082 49.686C152.048 47.782 152.888 45.822 153.588 43.82ZM172.012 41.58V43.148H175.848V41.58H172.012ZM175.848 40.684V39.06H172.012V40.684H175.848ZM176.996 44.772L177.64 45.402C177.038 46.158 176.366 46.746 175.638 47.138C176.226 47.992 177.01 48.72 177.99 49.336L177.43 50.218C175.232 48.734 173.902 46.676 173.44 44.058H172.012V48.832C172.796 48.594 173.594 48.286 174.378 47.908L174.63 48.846C173.65 49.266 172.404 49.672 170.92 50.064L170.696 49.21C170.92 49.126 171.032 49.014 171.032 48.846V38.15H176.828V44.058H174.336C174.504 44.926 174.784 45.71 175.176 46.41C175.82 46.046 176.422 45.5 176.996 44.772ZM165.67 38.164H169.968V42.504H168.666V44.702H170.15V45.64H168.666V48.216C169.226 48.048 169.772 47.88 170.29 47.712V48.678C168.89 49.168 167.238 49.63 165.348 50.064L165.068 49.098L165.712 48.958V43.904H166.622V48.748C167 48.664 167.364 48.566 167.728 48.482V42.504H165.67V38.164ZM169.016 41.58V39.088H166.636V41.58H169.016ZM179.614 38.136H183.716V42.56H182.47V44.73H183.912V45.71H182.47V48.16C182.918 47.992 183.366 47.838 183.786 47.67V48.678C182.47 49.21 180.944 49.686 179.208 50.134L178.914 49.168C179.152 49.112 179.39 49.056 179.614 49V43.932H180.51V48.762L181.518 48.468V42.56H179.614V38.136ZM182.736 41.622V39.074H180.58V41.622H182.736ZM191.57 39.046V41.72H190.618V39.956H185.368V41.72H184.416V39.046H187.398C187.23 38.528 187.034 38.066 186.838 37.646L187.86 37.478C188.042 37.94 188.224 38.458 188.392 39.046H191.57ZM185.382 45.85L186.306 46.046C185.942 47.53 185.424 48.804 184.752 49.896L183.884 49.35C184.57 48.286 185.074 47.124 185.382 45.85ZM190.45 45.738C191.024 46.802 191.528 47.95 191.948 49.182L191.038 49.588C190.59 48.244 190.1 47.068 189.568 46.032L190.45 45.738ZM187.468 50.176H186.278L186.054 49.196C186.418 49.238 186.782 49.266 187.118 49.266C187.454 49.266 187.622 49.042 187.622 48.608V44.87H184.472V43.918H191.542V44.87H188.644V48.846C188.644 49.728 188.252 50.176 187.468 50.176ZM185.494 41.468H190.492V42.406H185.494V41.468Z" fill="#1A262C"/>
<rect x="340.5" y="28.5" width="127" height="31" rx="7.5" fill="#02ADEC" fill-opacity="0.1"/>
<rect x="340.5" y="28.5" width="127" height="31" rx="7.5" stroke="#02ADEC" stroke-dasharray="2 2"/>
<path d="M356.088 38.808C357.292 38.808 358.202 39.256 358.818 40.152C359.406 40.992 359.7 42.196 359.7 43.736C359.7 45.332 359.378 46.62 358.762 47.628C358.09 48.664 357.194 49.196 356.074 49.196C354.212 49.196 353.148 48.3 352.882 46.522H354.016C354.226 47.656 354.912 48.23 356.088 48.23C356.858 48.23 357.474 47.838 357.936 47.068C358.37 46.326 358.594 45.388 358.594 44.268C358.594 44.198 358.58 44.072 358.58 43.904H358.524C358.272 44.408 357.908 44.814 357.446 45.108C356.998 45.388 356.48 45.542 355.892 45.542C354.926 45.542 354.156 45.22 353.568 44.59C352.994 43.988 352.714 43.204 352.714 42.238C352.714 41.244 353.022 40.432 353.666 39.788C354.296 39.13 355.108 38.808 356.088 38.808ZM356.116 39.774C355.43 39.774 354.884 39.998 354.464 40.46C354.044 40.922 353.848 41.51 353.848 42.238C353.848 42.938 354.044 43.512 354.464 43.932C354.87 44.366 355.416 44.59 356.116 44.59C356.76 44.59 357.306 44.366 357.754 43.918C358.174 43.47 358.398 42.896 358.398 42.21C358.398 41.51 358.188 40.936 357.782 40.488C357.362 40.012 356.802 39.774 356.116 39.774ZM360.871 39.004H367.437V39.942L363.755 49H362.537L366.261 40.054H360.871V39.004ZM369.899 47.334C370.123 47.334 370.333 47.418 370.501 47.586C370.669 47.754 370.753 47.95 370.753 48.202C370.753 48.44 370.669 48.636 370.501 48.804C370.333 48.972 370.123 49.056 369.899 49.056C369.647 49.056 369.451 48.972 369.297 48.804C369.129 48.636 369.045 48.44 369.045 48.202C369.045 47.95 369.129 47.754 369.297 47.586C369.451 47.418 369.647 47.334 369.899 47.334ZM379.75 41.356L380.408 41.93C379.68 42.784 378.798 43.526 377.734 44.17L377.16 43.4C378.182 42.812 379.05 42.14 379.75 41.356ZM384.412 44.086C383.516 43.232 382.62 42.49 381.71 41.86L382.354 41.244C383.124 41.72 384.034 42.448 385.084 43.4L384.412 44.086ZM378.91 46.382C378.49 46.718 378.056 47.026 377.608 47.306L376.992 46.508C378.7 45.486 379.862 44.24 380.478 42.77L381.402 42.966C381.206 43.498 380.954 44.002 380.646 44.464H383.796V45.276C383.46 46.382 382.816 47.334 381.892 48.132C382.816 48.692 383.936 49.14 385.266 49.462L384.93 50.316C383.39 49.952 382.102 49.434 381.094 48.734C380.086 49.406 378.84 49.952 377.356 50.372L376.88 49.518C378.252 49.168 379.4 48.706 380.324 48.132C379.736 47.614 379.274 47.026 378.91 46.382ZM381.094 47.572C381.878 46.928 382.438 46.186 382.774 45.332H379.988C379.848 45.486 379.708 45.626 379.582 45.766C379.946 46.452 380.45 47.054 381.094 47.572ZM372.442 39.9H374.458C374.29 39.158 374.108 38.486 373.912 37.884L374.906 37.716C375.074 38.346 375.242 39.074 375.396 39.9H377.16V40.852H372.442V39.9ZM373.744 41.706C373.968 43.33 374.164 45.178 374.346 47.264L373.52 47.474C373.352 45.57 373.142 43.75 372.876 41.986L373.744 41.706ZM377.174 47.348V48.328C375.746 48.776 374.22 49.168 372.582 49.476L372.344 48.51C373.184 48.37 374.01 48.216 374.822 48.02C375.242 45.99 375.55 43.834 375.732 41.552L376.684 41.692C376.488 43.89 376.166 45.92 375.746 47.782C376.236 47.642 376.712 47.502 377.174 47.348ZM382.69 38.318C383.614 39.298 384.314 40.166 384.804 40.922L384.02 41.454C383.852 41.174 383.656 40.894 383.446 40.614C381.458 40.852 379.554 41.034 377.748 41.146L377.58 40.306C378.406 39.942 379.26 39.032 380.142 37.562L381.122 37.856C380.45 38.892 379.764 39.69 379.078 40.25C380.786 40.082 382.046 39.942 382.858 39.844C382.578 39.494 382.27 39.144 381.948 38.78L382.69 38.318ZM392.238 39.606H387.436V38.64H398.09V39.606H393.274V48.468H399V49.434H386.498V48.468H392.238V39.606ZM403.508 44.296V37.646H404.502V50.358H403.508V45.486C402.668 46.382 401.702 47.236 400.638 48.02L400.33 46.97C401.492 46.2 402.556 45.304 403.508 44.296ZM401.464 39.032C401.996 40.152 402.458 41.356 402.85 42.63L401.968 43.036C401.534 41.636 401.044 40.404 400.512 39.34L401.464 39.032ZM410.914 37.842C411.67 38.682 412.244 39.424 412.65 40.054L411.866 40.614C411.446 39.914 410.858 39.158 410.13 38.332L410.914 37.842ZM409.36 37.604C409.36 38.64 409.346 39.872 409.318 41.328H412.734V42.294H409.43C410.032 45.43 411.292 47.866 413.224 49.574L412.538 50.33C410.774 48.664 409.584 46.55 408.968 44.002C408.38 46.536 407.274 48.664 405.678 50.372L405.006 49.616C406.882 47.516 407.96 45.066 408.24 42.294H405.426V41.328H408.296C408.338 39.704 408.366 38.458 408.366 37.604H409.36ZM420.238 37.436L421.246 37.534C421.19 38.066 421.092 38.556 420.98 39.032H426.384V39.998H421.904C422.59 41.552 424.326 42.756 427.112 43.624L426.58 44.492C423.472 43.4 421.582 41.902 420.882 39.998H420.672C420.364 40.81 419.944 41.524 419.426 42.112C419.37 42.168 419.328 42.21 419.286 42.266C419.902 42.7 420.574 43.26 421.33 43.946L420.63 44.646C419.958 43.974 419.286 43.372 418.614 42.84C417.69 43.526 416.374 44.086 414.694 44.534L414.302 43.61C416.29 43.106 417.732 42.378 418.614 41.454C419.006 41.034 419.314 40.544 419.566 39.998H414.974V39.032H419.916C420.07 38.528 420.182 37.996 420.238 37.436ZM415.744 45.71L416.738 45.92C416.402 47.376 415.926 48.636 415.324 49.7L414.456 49.154C415.044 48.118 415.478 46.97 415.744 45.71ZM421.05 45.206C421.54 45.934 421.974 46.718 422.338 47.558L421.414 47.964C421.022 47.026 420.616 46.2 420.168 45.486L421.05 45.206ZM425.236 45.5C425.908 46.536 426.496 47.656 427 48.86L426.076 49.266C425.53 47.95 424.928 46.802 424.27 45.808L425.236 45.5ZM422.674 50.106H419.118C418.222 50.106 417.788 49.63 417.788 48.706V45.668H418.824V48.496C418.824 48.916 419.02 49.126 419.44 49.126H422.492C422.786 49.126 422.996 49.042 423.122 48.874C423.29 48.678 423.402 48.104 423.458 47.138L424.41 47.446C424.312 48.706 424.116 49.462 423.836 49.742C423.584 49.98 423.206 50.106 422.674 50.106ZM435.274 41.58V43.148H439.11V41.58H435.274ZM439.11 40.684V39.06H435.274V40.684H439.11ZM440.258 44.772L440.902 45.402C440.3 46.158 439.628 46.746 438.9 47.138C439.488 47.992 440.272 48.72 441.252 49.336L440.692 50.218C438.494 48.734 437.164 46.676 436.702 44.058H435.274V48.832C436.058 48.594 436.856 48.286 437.64 47.908L437.892 48.846C436.912 49.266 435.666 49.672 434.182 50.064L433.958 49.21C434.182 49.126 434.294 49.014 434.294 48.846V38.15H440.09V44.058H437.598C437.766 44.926 438.046 45.71 438.438 46.41C439.082 46.046 439.684 45.5 440.258 44.772ZM428.932 38.164H433.23V42.504H431.928V44.702H433.412V45.64H431.928V48.216C432.488 48.048 433.034 47.88 433.552 47.712V48.678C432.152 49.168 430.5 49.63 428.61 50.064L428.33 49.098L428.974 48.958V43.904H429.884V48.748C430.262 48.664 430.626 48.566 430.99 48.482V42.504H428.932V38.164ZM432.278 41.58V39.088H429.898V41.58H432.278ZM442.876 38.136H446.978V42.56H445.732V44.73H447.174V45.71H445.732V48.16C446.18 47.992 446.628 47.838 447.048 47.67V48.678C445.732 49.21 444.206 49.686 442.47 50.134L442.176 49.168C442.414 49.112 442.652 49.056 442.876 49V43.932H443.772V48.762L444.78 48.468V42.56H442.876V38.136ZM445.998 41.622V39.074H443.842V41.622H445.998ZM454.832 39.046V41.72H453.88V39.956H448.63V41.72H447.678V39.046H450.66C450.492 38.528 450.296 38.066 450.1 37.646L451.122 37.478C451.304 37.94 451.486 38.458 451.654 39.046H454.832ZM448.644 45.85L449.568 46.046C449.204 47.53 448.686 48.804 448.014 49.896L447.146 49.35C447.832 48.286 448.336 47.124 448.644 45.85ZM453.712 45.738C454.286 46.802 454.79 47.95 455.21 49.182L454.3 49.588C453.852 48.244 453.362 47.068 452.83 46.032L453.712 45.738ZM450.73 50.176H449.54L449.316 49.196C449.68 49.238 450.044 49.266 450.38 49.266C450.716 49.266 450.884 49.042 450.884 48.608V44.87H447.734V43.918H454.804V44.87H451.906V48.846C451.906 49.728 451.514 50.176 450.73 50.176ZM448.756 41.468H453.754V42.406H448.756V41.468Z" fill="#1A262C"/>
<rect x="494.5" y="28.5" width="100" height="31" rx="7.5" fill="#02ADEC" fill-opacity="0.1"/>
<rect x="494.5" y="28.5" width="100" height="31" rx="7.5" stroke="#02ADEC" stroke-dasharray="2 2"/>
<path d="M510.088 38.808C511.292 38.808 512.202 39.256 512.818 40.152C513.406 40.992 513.7 42.196 513.7 43.736C513.7 45.332 513.378 46.62 512.762 47.628C512.09 48.664 511.194 49.196 510.074 49.196C508.212 49.196 507.148 48.3 506.882 46.522H508.016C508.226 47.656 508.912 48.23 510.088 48.23C510.858 48.23 511.474 47.838 511.936 47.068C512.37 46.326 512.594 45.388 512.594 44.268C512.594 44.198 512.58 44.072 512.58 43.904H512.524C512.272 44.408 511.908 44.814 511.446 45.108C510.998 45.388 510.48 45.542 509.892 45.542C508.926 45.542 508.156 45.22 507.568 44.59C506.994 43.988 506.714 43.204 506.714 42.238C506.714 41.244 507.022 40.432 507.666 39.788C508.296 39.13 509.108 38.808 510.088 38.808ZM510.116 39.774C509.43 39.774 508.884 39.998 508.464 40.46C508.044 40.922 507.848 41.51 507.848 42.238C507.848 42.938 508.044 43.512 508.464 43.932C508.87 44.366 509.416 44.59 510.116 44.59C510.76 44.59 511.306 44.366 511.754 43.918C512.174 43.47 512.398 42.896 512.398 42.21C512.398 41.51 512.188 40.936 511.782 40.488C511.362 40.012 510.802 39.774 510.116 39.774ZM518.595 38.808C519.631 38.808 520.457 39.074 521.045 39.62C521.577 40.11 521.857 40.726 521.857 41.454C521.857 41.986 521.731 42.434 521.479 42.798C521.199 43.19 520.807 43.484 520.289 43.666V43.694C520.807 43.82 521.255 44.114 521.619 44.562C522.011 45.038 522.207 45.598 522.207 46.242C522.207 47.124 521.899 47.838 521.283 48.37C520.639 48.916 519.743 49.196 518.595 49.196C517.433 49.196 516.537 48.916 515.907 48.37C515.291 47.838 514.983 47.124 514.983 46.242C514.983 45.598 515.179 45.038 515.571 44.562C515.935 44.114 516.369 43.82 516.901 43.694V43.666C516.369 43.484 515.977 43.19 515.711 42.798C515.459 42.434 515.333 41.986 515.333 41.454C515.333 40.726 515.599 40.11 516.145 39.62C516.733 39.074 517.545 38.808 518.595 38.808ZM518.595 39.746C517.881 39.746 517.321 39.928 516.929 40.292C516.579 40.6 516.411 41.006 516.411 41.496C516.411 42 516.565 42.42 516.873 42.728C517.237 43.092 517.811 43.288 518.595 43.288C519.365 43.288 519.939 43.092 520.317 42.728C520.625 42.42 520.779 42 520.779 41.496C520.779 41.006 520.597 40.6 520.261 40.292C519.855 39.928 519.295 39.746 518.595 39.746ZM518.595 44.184C517.783 44.184 517.167 44.38 516.733 44.786C516.313 45.15 516.117 45.64 516.117 46.242C516.117 46.83 516.313 47.32 516.733 47.684C517.153 48.062 517.783 48.258 518.595 48.258C519.407 48.258 520.023 48.062 520.471 47.67C520.863 47.306 521.073 46.83 521.073 46.242C521.073 45.64 520.863 45.15 520.471 44.786C520.023 44.38 519.393 44.184 518.595 44.184ZM524.637 47.334C524.861 47.334 525.071 47.418 525.239 47.586C525.407 47.754 525.491 47.95 525.491 48.202C525.491 48.44 525.407 48.636 525.239 48.804C525.071 48.972 524.861 49.056 524.637 49.056C524.385 49.056 524.189 48.972 524.035 48.804C523.867 48.636 523.783 48.44 523.783 48.202C523.783 47.95 523.867 47.754 524.035 47.586C524.189 47.418 524.385 47.334 524.637 47.334ZM528.748 50.246H527.544L527.334 49.266C527.698 49.294 528.062 49.322 528.398 49.322C528.776 49.322 528.972 49.126 528.972 48.734V45.318C528.412 45.556 527.824 45.78 527.236 45.976L526.984 44.968C527.656 44.786 528.328 44.562 528.972 44.296V41.104H527.264V40.138H528.972V37.576H529.98V40.138H531.576V41.104H529.98V43.848C530.498 43.596 531.002 43.316 531.506 43.008V44.044C531.002 44.324 530.498 44.604 529.98 44.856V48.986C529.98 49.826 529.56 50.246 528.748 50.246ZM532.038 43.554H538.73V44.492C538.296 45.808 537.582 46.942 536.574 47.88C537.512 48.524 538.66 49.084 540.018 49.56L539.472 50.428C538.03 49.868 536.826 49.224 535.86 48.496C534.768 49.308 533.424 49.966 531.842 50.456L531.296 49.602C532.78 49.14 534.026 48.552 535.048 47.824C533.97 46.844 533.242 45.752 532.878 44.534H532.038V43.554ZM533.802 44.534C534.166 45.542 534.81 46.452 535.762 47.264C536.644 46.48 537.302 45.57 537.736 44.534H533.802ZM533.116 38.122H537.82V41.132C537.82 41.468 538.016 41.65 538.408 41.65H539.584V42.588H538.156C537.26 42.588 536.826 42.168 536.826 41.356V39.074H534.11V39.886C534.11 41.202 533.466 42.224 532.178 42.952L531.506 42.182C532.57 41.664 533.116 40.936 533.116 39.984V38.122ZM547.508 37.38C547.732 37.856 547.956 38.402 548.166 39.004H553.08V39.97H550.644C550.476 40.712 550.252 41.426 549.958 42.098H553.374V43.064H543.322V45.136C543.266 47.32 542.762 49.07 541.796 50.386L541.026 49.7C541.838 48.608 542.272 47.082 542.3 45.136V42.098H545.17L544.582 39.97H542.02V39.004H547.144C546.948 38.472 546.71 37.996 546.458 37.562L547.508 37.38ZM546.164 42.098H548.992C549.3 41.426 549.538 40.712 549.678 39.97H545.576L546.164 42.098ZM563.258 37.632H564.294C564.294 38.808 564.252 39.914 564.168 40.922C564.91 44.506 566.198 47.362 568.032 49.462L567.304 50.302C565.806 48.398 564.672 46.046 563.888 43.274C563.818 43.666 563.748 44.03 563.678 44.394C563.146 46.802 561.956 48.79 560.094 50.33L559.408 49.504C561.032 48.132 562.124 46.41 562.656 44.324C563.048 42.574 563.258 40.348 563.258 37.632ZM556.748 37.702C557.7 38.416 558.498 39.13 559.142 39.858L558.456 40.558C557.868 39.872 557.056 39.144 556.048 38.388L556.748 37.702ZM555.11 41.846H558.134V47.964C558.638 47.544 559.184 47.068 559.758 46.522L560.01 47.558C559.142 48.384 558.218 49.126 557.238 49.77L556.846 48.874C557.056 48.706 557.168 48.496 557.168 48.272V42.812H555.11V41.846ZM571.378 41.72H579.61V42.672H576.054V45.136H580.226V46.088H576.054V48.986C577.034 49.126 578.21 49.21 579.61 49.224C580.324 49.224 581.052 49.196 581.808 49.14L581.626 50.148H580.058C577.23 50.148 575.214 49.882 573.982 49.364C573.058 48.93 572.302 48.258 571.728 47.348C571.182 48.552 570.51 49.56 569.712 50.372L569.068 49.574C570.412 48.146 571.308 46.228 571.784 43.82L572.764 43.988C572.596 44.856 572.372 45.654 572.12 46.382C572.792 47.586 573.632 48.342 574.64 48.664C574.766 48.706 574.906 48.748 575.046 48.776V42.672H571.378V41.72ZM581.206 38.99V41.972H580.226V39.914H570.734V42.042H569.754V38.99H575.102C574.892 38.486 574.654 38.024 574.402 37.604L575.48 37.436C575.704 37.898 575.928 38.416 576.124 38.99H581.206Z" fill="#1A262C"/>
<rect x="620.5" y="28.5" width="100" height="31" rx="7.5" fill="#02ADEC" fill-opacity="0.1"/>
<rect x="620.5" y="28.5" width="100" height="31" rx="7.5" stroke="#02ADEC" stroke-dasharray="2 2"/>
<path d="M636.088 38.808C637.292 38.808 638.202 39.256 638.818 40.152C639.406 40.992 639.7 42.196 639.7 43.736C639.7 45.332 639.378 46.62 638.762 47.628C638.09 48.664 637.194 49.196 636.074 49.196C634.212 49.196 633.148 48.3 632.882 46.522H634.016C634.226 47.656 634.912 48.23 636.088 48.23C636.858 48.23 637.474 47.838 637.936 47.068C638.37 46.326 638.594 45.388 638.594 44.268C638.594 44.198 638.58 44.072 638.58 43.904H638.524C638.272 44.408 637.908 44.814 637.446 45.108C636.998 45.388 636.48 45.542 635.892 45.542C634.926 45.542 634.156 45.22 633.568 44.59C632.994 43.988 632.714 43.204 632.714 42.238C632.714 41.244 633.022 40.432 633.666 39.788C634.296 39.13 635.108 38.808 636.088 38.808ZM636.116 39.774C635.43 39.774 634.884 39.998 634.464 40.46C634.044 40.922 633.848 41.51 633.848 42.238C633.848 42.938 634.044 43.512 634.464 43.932C634.87 44.366 635.416 44.59 636.116 44.59C636.76 44.59 637.306 44.366 637.754 43.918C638.174 43.47 638.398 42.896 638.398 42.21C638.398 41.51 638.188 40.936 637.782 40.488C637.362 40.012 636.802 39.774 636.116 39.774ZM644.483 38.808C645.687 38.808 646.597 39.256 647.213 40.152C647.801 40.992 648.095 42.196 648.095 43.736C648.095 45.332 647.773 46.62 647.157 47.628C646.485 48.664 645.589 49.196 644.469 49.196C642.607 49.196 641.543 48.3 641.277 46.522H642.411C642.621 47.656 643.307 48.23 644.483 48.23C645.253 48.23 645.869 47.838 646.331 47.068C646.765 46.326 646.989 45.388 646.989 44.268C646.989 44.198 646.975 44.072 646.975 43.904H646.919C646.667 44.408 646.303 44.814 645.841 45.108C645.393 45.388 644.875 45.542 644.287 45.542C643.321 45.542 642.551 45.22 641.963 44.59C641.389 43.988 641.109 43.204 641.109 42.238C641.109 41.244 641.417 40.432 642.061 39.788C642.691 39.13 643.503 38.808 644.483 38.808ZM644.511 39.774C643.825 39.774 643.279 39.998 642.859 40.46C642.439 40.922 642.243 41.51 642.243 42.238C642.243 42.938 642.439 43.512 642.859 43.932C643.265 44.366 643.811 44.59 644.511 44.59C645.155 44.59 645.701 44.366 646.149 43.918C646.569 43.47 646.793 42.896 646.793 42.21C646.793 41.51 646.583 40.936 646.177 40.488C645.757 40.012 645.197 39.774 644.511 39.774ZM650.637 47.334C650.861 47.334 651.071 47.418 651.239 47.586C651.407 47.754 651.491 47.95 651.491 48.202C651.491 48.44 651.407 48.636 651.239 48.804C651.071 48.972 650.861 49.056 650.637 49.056C650.385 49.056 650.189 48.972 650.035 48.804C649.867 48.636 649.783 48.44 649.783 48.202C649.783 47.95 649.867 47.754 650.035 47.586C650.189 47.418 650.385 47.334 650.637 47.334ZM654.174 37.786C655.14 38.514 655.952 39.228 656.624 39.942L655.896 40.684C655.308 39.984 654.51 39.242 653.474 38.444L654.174 37.786ZM662.7 50.148C661.902 50.148 661.034 50.134 660.096 50.12C659.144 50.106 658.388 50.022 657.8 49.868C657.212 49.7 656.708 49.35 656.26 48.846C656.064 48.608 655.868 48.496 655.686 48.496C655.35 48.496 654.776 49.14 653.992 50.456L653.236 49.784C653.992 48.58 654.65 47.852 655.238 47.6V43.372H653.222V42.392H656.204V47.656C656.316 47.74 656.428 47.838 656.554 47.978C656.918 48.37 657.296 48.664 657.702 48.86C658.15 49.042 658.822 49.14 659.69 49.168C660.46 49.182 661.412 49.196 662.56 49.196C663.176 49.196 663.806 49.182 664.45 49.182C665.08 49.168 665.57 49.154 665.92 49.126L665.668 50.148H662.7ZM657.422 40.684H660.586C660.67 39.97 660.712 39.214 660.726 38.43V37.576H661.734V38.22C661.734 39.088 661.678 39.914 661.594 40.684H665.164V41.664H661.44C661.37 42.028 661.3 42.378 661.216 42.714C662.476 43.778 663.918 45.304 665.542 47.264L664.814 47.978C663.526 46.326 662.238 44.884 660.936 43.652C660.264 45.542 659.2 46.984 657.716 47.964L657.1 47.138C658.836 46.032 659.956 44.212 660.432 41.664H657.422V40.684ZM673.508 37.38C673.732 37.856 673.956 38.402 674.166 39.004H679.08V39.97H676.644C676.476 40.712 676.252 41.426 675.958 42.098H679.374V43.064H669.322V45.136C669.266 47.32 668.762 49.07 667.796 50.386L667.026 49.7C667.838 48.608 668.272 47.082 668.3 45.136V42.098H671.17L670.582 39.97H668.02V39.004H673.144C672.948 38.472 672.71 37.996 672.458 37.562L673.508 37.38ZM672.164 42.098H674.992C675.3 41.426 675.538 40.712 675.678 39.97H671.576L672.164 42.098ZM689.258 37.632H690.294C690.294 38.808 690.252 39.914 690.168 40.922C690.91 44.506 692.198 47.362 694.032 49.462L693.304 50.302C691.806 48.398 690.672 46.046 689.888 43.274C689.818 43.666 689.748 44.03 689.678 44.394C689.146 46.802 687.956 48.79 686.094 50.33L685.408 49.504C687.032 48.132 688.124 46.41 688.656 44.324C689.048 42.574 689.258 40.348 689.258 37.632ZM682.748 37.702C683.7 38.416 684.498 39.13 685.142 39.858L684.456 40.558C683.868 39.872 683.056 39.144 682.048 38.388L682.748 37.702ZM681.11 41.846H684.134V47.964C684.638 47.544 685.184 47.068 685.758 46.522L686.01 47.558C685.142 48.384 684.218 49.126 683.238 49.77L682.846 48.874C683.056 48.706 683.168 48.496 683.168 48.272V42.812H681.11V41.846ZM697.378 41.72H705.61V42.672H702.054V45.136H706.226V46.088H702.054V48.986C703.034 49.126 704.21 49.21 705.61 49.224C706.324 49.224 707.052 49.196 707.808 49.14L707.626 50.148H706.058C703.23 50.148 701.214 49.882 699.982 49.364C699.058 48.93 698.302 48.258 697.728 47.348C697.182 48.552 696.51 49.56 695.712 50.372L695.068 49.574C696.412 48.146 697.308 46.228 697.784 43.82L698.764 43.988C698.596 44.856 698.372 45.654 698.12 46.382C698.792 47.586 699.632 48.342 700.64 48.664C700.766 48.706 700.906 48.748 701.046 48.776V42.672H697.378V41.72ZM707.206 38.99V41.972H706.226V39.914H696.734V42.042H695.754V38.99H701.102C700.892 38.486 700.654 38.024 700.402 37.604L701.48 37.436C701.704 37.898 701.928 38.416 702.124 38.99H707.206Z" fill="#1A262C"/>
<rect x="616.5" y="188.5" width="106" height="31" rx="7.5" fill="#02ADEC" fill-opacity="0.1"/>
<rect x="616.5" y="188.5" width="106" height="31" rx="7.5" stroke="#02ADEC" stroke-dasharray="2 2"/>
<path d="M631.22 199.004H632.116V209H630.968V200.404C630.338 201.048 629.554 201.496 628.616 201.776V200.628C629.064 200.502 629.54 200.306 630.016 200.026C630.492 199.718 630.884 199.382 631.22 199.004ZM637.819 198.808C639.009 198.808 639.905 199.326 640.521 200.39C641.053 201.286 641.319 202.49 641.319 204.002C641.319 205.514 641.053 206.718 640.521 207.614C639.905 208.664 639.009 209.196 637.819 209.196C636.615 209.196 635.719 208.664 635.117 207.614C634.585 206.718 634.319 205.514 634.319 204.002C634.319 202.49 634.585 201.286 635.117 200.39C635.719 199.326 636.615 198.808 637.819 198.808ZM637.819 199.788C636.923 199.788 636.279 200.264 635.887 201.23C635.607 201.902 635.467 202.826 635.467 204.002C635.467 205.164 635.607 206.088 635.887 206.774C636.279 207.726 636.923 208.216 637.819 208.216C638.715 208.216 639.359 207.726 639.751 206.774C640.031 206.088 640.185 205.164 640.185 204.002C640.185 202.826 640.031 201.902 639.751 201.23C639.359 200.264 638.715 199.788 637.819 199.788ZM646.354 198.808C647.278 198.808 648.034 199.074 648.636 199.606C649.224 200.138 649.532 200.852 649.532 201.72C649.532 202.588 649.196 203.372 648.552 204.072C648.202 204.436 647.516 204.982 646.48 205.682C645.206 206.536 644.478 207.306 644.296 207.978H649.546V209H642.882C642.882 208.09 643.204 207.264 643.876 206.522C644.268 206.074 644.982 205.472 646.046 204.744C646.83 204.184 647.348 203.778 647.614 203.498C648.118 202.952 648.384 202.35 648.384 201.706C648.384 201.09 648.202 200.628 647.838 200.292C647.474 199.956 646.956 199.788 646.312 199.788C645.626 199.788 645.094 200.012 644.73 200.488C644.338 200.936 644.128 201.608 644.114 202.49H642.966C642.966 201.37 643.288 200.474 643.904 199.816C644.52 199.144 645.346 198.808 646.354 198.808ZM652.256 207.334C652.48 207.334 652.69 207.418 652.858 207.586C653.026 207.754 653.11 207.95 653.11 208.202C653.11 208.44 653.026 208.636 652.858 208.804C652.69 208.972 652.48 209.056 652.256 209.056C652.004 209.056 651.808 208.972 651.654 208.804C651.486 208.636 651.402 208.44 651.402 208.202C651.402 207.95 651.486 207.754 651.654 207.586C651.808 207.418 652.004 207.334 652.256 207.334ZM656.536 199.914H654.87V198.934H659.196V199.914H657.572V206.242C658.174 206.032 658.748 205.822 659.294 205.598V206.606C658.062 207.124 656.634 207.6 655.01 208.034L654.716 207.04C655.346 206.886 655.948 206.732 656.536 206.564V199.914ZM659.728 198.164H667.484V199.144H664.138C664.054 199.676 663.956 200.166 663.844 200.642H666.812V207.222H665.832V201.566H661.338V207.222H660.372V200.642H662.836C662.976 200.166 663.074 199.662 663.144 199.144H659.728V198.164ZM664.726 207.25C665.874 208.09 666.854 208.93 667.638 209.77L666.91 210.498C666.21 209.686 665.258 208.818 664.054 207.894L664.726 207.25ZM663.018 202.462H664.026V204.87C663.97 206.382 663.578 207.586 662.822 208.496C662.08 209.322 660.876 209.98 659.196 210.456L658.65 209.588C660.274 209.154 661.422 208.566 662.066 207.838C662.654 207.082 662.976 206.088 663.018 204.87V202.462ZM679.804 198.248V210.386H678.796V209.476H671.432V210.414H670.41V198.248H679.804ZM671.432 208.496H678.796V205.864H671.432V208.496ZM671.432 204.94H678.796V202.476H671.432V204.94ZM671.432 201.552H678.796V199.228H671.432V201.552ZM687.14 207.446V208.398C685.922 208.902 684.55 209.308 683.01 209.616L682.884 208.636C684.508 208.342 685.922 207.95 687.14 207.446ZM685.012 197.562L685.964 197.94C685.32 199.676 684.662 201.076 683.99 202.126C684.564 202.056 685.138 201.958 685.726 201.846C685.978 201.384 686.23 200.894 686.496 200.376L687.42 200.726C686.202 202.966 685.194 204.576 684.41 205.528C685.25 205.36 686.104 205.122 686.944 204.814V205.724C685.628 206.172 684.382 206.466 683.192 206.634L682.912 205.71C683.094 205.654 683.248 205.556 683.374 205.43C683.878 204.898 684.494 204.016 685.222 202.77C684.508 202.896 683.78 203.008 683.052 203.12L682.8 202.196C682.954 202.14 683.094 202.014 683.22 201.832C683.906 200.586 684.508 199.158 685.012 197.562ZM688.134 198.458H690.948V197.534H691.928V198.458H694.938V199.368H691.928V200.642H695.134V201.272C694.938 202.168 694.672 203.05 694.336 203.918L693.37 203.638C693.664 203.022 693.902 202.322 694.098 201.566H687.7V200.642H690.948V199.368H688.134V198.458ZM687.392 205.682H691.27C691.312 205.374 691.34 205.052 691.354 204.73V202.14H692.334V204.73C692.32 205.066 692.292 205.374 692.264 205.682H695.526V206.606H692.082C692.012 206.858 691.942 207.082 691.858 207.306C693.23 207.95 694.49 208.706 695.624 209.574L695.064 210.442C693.888 209.462 692.698 208.664 691.494 208.048C691.41 208.188 691.312 208.314 691.228 208.44C690.542 209.294 689.436 209.966 687.896 210.456L687.336 209.574C688.834 209.126 689.87 208.524 690.458 207.768C690.71 207.418 690.906 207.026 691.046 206.606H687.392V205.682ZM687.938 203.4C688.708 203.764 689.408 204.226 690.052 204.758L689.576 205.5C688.89 204.912 688.19 204.436 687.462 204.086L687.938 203.4ZM689.016 201.958C689.73 202.294 690.388 202.728 690.99 203.232L690.514 203.946C689.87 203.386 689.226 202.938 688.568 202.63L689.016 201.958ZM697.85 197.604H698.83V199.172H701.56V197.632H702.54V199.172H703.38V200.11H702.54V206.032H703.45V206.984H696.828V206.032H697.85V200.11H696.982V199.172H697.85V197.604ZM698.83 206.032H701.56V204.66H698.83V206.032ZM701.56 200.11H698.83V201.51H701.56V200.11ZM698.83 203.778H701.56V202.392H698.83V203.778ZM701.308 207.348C701.966 208.188 702.47 208.93 702.82 209.546C703.744 208.244 704.206 206.606 704.234 204.646V198.094H708.882V209.07C708.882 209.868 708.462 210.274 707.65 210.274H706.166L705.886 209.28C706.404 209.308 706.88 209.336 707.328 209.336C707.692 209.336 707.874 209.126 707.874 208.706V205.836H705.158C704.962 207.684 704.402 209.21 703.478 210.442L702.708 209.728C702.736 209.7 702.75 209.672 702.764 209.644L702.022 210.176C701.658 209.462 701.154 208.678 700.524 207.838L701.308 207.348ZM698.578 207.334L699.39 207.726C698.858 208.734 698.242 209.616 697.542 210.358L696.744 209.784C697.444 209.098 698.06 208.286 698.578 207.334ZM705.228 202.42V204.562C705.228 204.688 705.214 204.8 705.214 204.912H707.874V202.42H705.228ZM707.874 201.496V199.046H705.228V201.496H707.874Z" fill="#1A262C"/>
<rect x="440.5" y="224.5" width="103" height="31" rx="7.5" fill="#02ADEC" fill-opacity="0.1"/>
<rect x="440.5" y="224.5" width="103" height="31" rx="7.5" stroke="#02ADEC" stroke-dasharray="2 2"/>
<path d="M455.22 235.004H456.116V245H454.968V236.404C454.338 237.048 453.554 237.496 452.616 237.776V236.628C453.064 236.502 453.54 236.306 454.016 236.026C454.492 235.718 454.884 235.382 455.22 235.004ZM461.819 234.808C463.009 234.808 463.905 235.326 464.521 236.39C465.053 237.286 465.319 238.49 465.319 240.002C465.319 241.514 465.053 242.718 464.521 243.614C463.905 244.664 463.009 245.196 461.819 245.196C460.615 245.196 459.719 244.664 459.117 243.614C458.585 242.718 458.319 241.514 458.319 240.002C458.319 238.49 458.585 237.286 459.117 236.39C459.719 235.326 460.615 234.808 461.819 234.808ZM461.819 235.788C460.923 235.788 460.279 236.264 459.887 237.23C459.607 237.902 459.467 238.826 459.467 240.002C459.467 241.164 459.607 242.088 459.887 242.774C460.279 243.726 460.923 244.216 461.819 244.216C462.715 244.216 463.359 243.726 463.751 242.774C464.031 242.088 464.185 241.164 464.185 240.002C464.185 238.826 464.031 237.902 463.751 237.23C463.359 236.264 462.715 235.788 461.819 235.788ZM469.234 235.004H470.13V245H468.982V236.404C468.352 237.048 467.568 237.496 466.63 237.776V236.628C467.078 236.502 467.554 236.306 468.03 236.026C468.506 235.718 468.898 235.382 469.234 235.004ZM473.481 243.334C473.705 243.334 473.915 243.418 474.083 243.586C474.251 243.754 474.335 243.95 474.335 244.202C474.335 244.44 474.251 244.636 474.083 244.804C473.915 244.972 473.705 245.056 473.481 245.056C473.229 245.056 473.033 244.972 472.879 244.804C472.711 244.636 472.627 244.44 472.627 244.202C472.627 243.95 472.711 243.754 472.879 243.586C473.033 243.418 473.229 243.334 473.481 243.334ZM477.158 238.154H481.806V233.618H482.842V238.154H487.462V239.134H482.842V244.93H488.554V245.924H476.094V244.93H481.806V239.134H477.158V238.154ZM502.246 236.264C502.246 239.092 502.176 240.814 502.036 241.43C501.896 242.018 501.294 242.326 500.244 242.326H500.16L499.88 241.332C500.09 241.346 500.286 241.36 500.454 241.36C500.832 241.36 501.07 241.206 501.154 240.898C501.224 240.604 501.266 239.498 501.28 237.594L499.236 238.21V243.502H498.256V238.504L496.212 239.12V244.552C496.212 244.972 496.45 245.196 496.94 245.196H500.874C501.168 245.196 501.378 245.098 501.49 244.916C501.644 244.692 501.756 244.006 501.812 242.872L502.75 243.166C502.652 244.58 502.47 245.434 502.19 245.742C501.952 246.008 501.574 246.148 501.056 246.148H496.632C495.694 246.148 495.232 245.672 495.232 244.748V239.414L494.056 239.778V238.798L495.232 238.434V234.99H496.212V238.126L498.256 237.496V233.562H499.236V237.188L502.246 236.264ZM494.238 242.214V243.208C492.95 243.81 491.564 244.314 490.08 244.706L489.828 243.698C490.416 243.572 491.004 243.418 491.592 243.25V238.266H489.996V237.286H491.592V233.674H492.586V237.286H494.042V238.266H492.586V242.914C493.146 242.704 493.706 242.466 494.238 242.214ZM511.234 244.062V245.056C509.078 245.504 506.754 245.896 504.262 246.204L504.038 245.238C505.158 245.112 506.25 244.972 507.314 244.804V242.158H504.584V241.178H507.314V239.554H508.322V241.178H510.842V242.158H508.322V244.636C509.316 244.468 510.282 244.272 511.234 244.062ZM504.22 234.178H511.178V235.13H507.58C506.908 236.53 506.278 237.58 505.69 238.294C507.076 238.154 508.392 237.986 509.652 237.762C509.344 237.258 508.994 236.754 508.616 236.236L509.386 235.732C510.324 236.992 511.038 238.098 511.542 239.036L510.702 239.624C510.52 239.26 510.324 238.896 510.1 238.518C508.336 238.826 506.39 239.092 504.29 239.302L504.052 238.392C504.22 238.364 504.36 238.336 504.458 238.294C505.032 237.79 505.718 236.74 506.516 235.13H504.22V234.178ZM514.874 246.274H512.816L512.592 245.294C513.264 245.322 513.908 245.35 514.524 245.35C514.916 245.35 515.126 245.14 515.126 244.734V233.604H516.148V244.986C516.148 245.84 515.714 246.274 514.874 246.274ZM512.326 234.864H513.306V243.53H512.326V234.864ZM519.074 233.604H520.054V235.172H522.784V233.632H523.764V235.172H524.604V236.11H523.764V242.032H524.674V242.984H518.052V242.032H519.074V236.11H518.206V235.172H519.074V233.604ZM520.054 242.032H522.784V240.66H520.054V242.032ZM522.784 236.11H520.054V237.51H522.784V236.11ZM520.054 239.778H522.784V238.392H520.054V239.778ZM522.532 243.348C523.19 244.188 523.694 244.93 524.044 245.546C524.968 244.244 525.43 242.606 525.458 240.646V234.094H530.106V245.07C530.106 245.868 529.686 246.274 528.874 246.274H527.39L527.11 245.28C527.628 245.308 528.104 245.336 528.552 245.336C528.916 245.336 529.098 245.126 529.098 244.706V241.836H526.382C526.186 243.684 525.626 245.21 524.702 246.442L523.932 245.728C523.96 245.7 523.974 245.672 523.988 245.644L523.246 246.176C522.882 245.462 522.378 244.678 521.748 243.838L522.532 243.348ZM519.802 243.334L520.614 243.726C520.082 244.734 519.466 245.616 518.766 246.358L517.968 245.784C518.668 245.098 519.284 244.286 519.802 243.334ZM526.452 238.42V240.562C526.452 240.688 526.438 240.8 526.438 240.912H529.098V238.42H526.452ZM529.098 237.496V235.046H526.452V237.496H529.098Z" fill="#1A262C"/>
<rect x="616.5" y="262.5" width="106" height="31" rx="7.5" fill="#02ADEC" fill-opacity="0.1"/>
<rect x="616.5" y="262.5" width="106" height="31" rx="7.5" stroke="#02ADEC" stroke-dasharray="2 2"/>
<path d="M631.22 273.004H632.116V283H630.968V274.404C630.338 275.048 629.554 275.496 628.616 275.776V274.628C629.064 274.502 629.54 274.306 630.016 274.026C630.492 273.718 630.884 273.382 631.22 273.004ZM637.819 272.808C639.009 272.808 639.905 273.326 640.521 274.39C641.053 275.286 641.319 276.49 641.319 278.002C641.319 279.514 641.053 280.718 640.521 281.614C639.905 282.664 639.009 283.196 637.819 283.196C636.615 283.196 635.719 282.664 635.117 281.614C634.585 280.718 634.319 279.514 634.319 278.002C634.319 276.49 634.585 275.286 635.117 274.39C635.719 273.326 636.615 272.808 637.819 272.808ZM637.819 273.788C636.923 273.788 636.279 274.264 635.887 275.23C635.607 275.902 635.467 276.826 635.467 278.002C635.467 279.164 635.607 280.088 635.887 280.774C636.279 281.726 636.923 282.216 637.819 282.216C638.715 282.216 639.359 281.726 639.751 280.774C640.031 280.088 640.185 279.164 640.185 278.002C640.185 276.826 640.031 275.902 639.751 275.23C639.359 274.264 638.715 273.788 637.819 273.788ZM646.312 272.808C647.264 272.808 648.048 273.046 648.636 273.536C649.21 274.026 649.504 274.684 649.504 275.524C649.504 276.644 648.958 277.4 647.866 277.764C648.454 277.946 648.902 278.226 649.21 278.618C649.546 279.01 649.714 279.5 649.714 280.088C649.714 280.998 649.392 281.74 648.762 282.314C648.118 282.902 647.278 283.196 646.242 283.196C645.29 283.196 644.52 282.944 643.918 282.468C643.204 281.88 642.812 281.026 642.728 279.906H643.89C643.918 280.69 644.184 281.292 644.674 281.698C645.094 282.034 645.612 282.216 646.242 282.216C646.956 282.216 647.53 282.006 647.964 281.6C648.356 281.208 648.566 280.718 648.566 280.13C648.566 279.528 648.37 279.066 647.978 278.73C647.586 278.394 647.054 278.24 646.354 278.24H645.542V277.344H646.312C646.984 277.344 647.488 277.19 647.838 276.896C648.188 276.588 648.37 276.154 648.37 275.594C648.37 275.034 648.188 274.6 647.852 274.292C647.488 273.956 646.97 273.802 646.326 273.802C645.654 273.802 645.136 273.97 644.758 274.334C644.366 274.698 644.142 275.216 644.072 275.888H642.938C643.022 274.922 643.386 274.166 644.002 273.62C644.59 273.074 645.36 272.808 646.312 272.808ZM652.256 281.334C652.48 281.334 652.69 281.418 652.858 281.586C653.026 281.754 653.11 281.95 653.11 282.202C653.11 282.44 653.026 282.636 652.858 282.804C652.69 282.972 652.48 283.056 652.256 283.056C652.004 283.056 651.808 282.972 651.654 282.804C651.486 282.636 651.402 282.44 651.402 282.202C651.402 281.95 651.486 281.754 651.654 281.586C651.808 281.418 652.004 281.334 652.256 281.334ZM656.536 273.914H654.87V272.934H659.196V273.914H657.572V280.242C658.174 280.032 658.748 279.822 659.294 279.598V280.606C658.062 281.124 656.634 281.6 655.01 282.034L654.716 281.04C655.346 280.886 655.948 280.732 656.536 280.564V273.914ZM659.728 272.164H667.484V273.144H664.138C664.054 273.676 663.956 274.166 663.844 274.642H666.812V281.222H665.832V275.566H661.338V281.222H660.372V274.642H662.836C662.976 274.166 663.074 273.662 663.144 273.144H659.728V272.164ZM664.726 281.25C665.874 282.09 666.854 282.93 667.638 283.77L666.91 284.498C666.21 283.686 665.258 282.818 664.054 281.894L664.726 281.25ZM663.018 276.462H664.026V278.87C663.97 280.382 663.578 281.586 662.822 282.496C662.08 283.322 660.876 283.98 659.196 284.456L658.65 283.588C660.274 283.154 661.422 282.566 662.066 281.838C662.654 281.082 662.976 280.088 663.018 278.87V276.462ZM679.804 272.248V284.386H678.796V283.476H671.432V284.414H670.41V272.248H679.804ZM671.432 282.496H678.796V279.864H671.432V282.496ZM671.432 278.94H678.796V276.476H671.432V278.94ZM671.432 275.552H678.796V273.228H671.432V275.552ZM689.1 274.684H690.71V273.578H691.662V274.684H693.286V275.51H691.662V276.826H693.524V277.666H688.876V276.826H690.71V275.51H689.1V274.684ZM689.324 278.66H693.048V282.23H689.324V278.66ZM692.18 281.404V279.5H690.192V281.404H692.18ZM694.994 272.122V283.084C694.994 283.91 694.574 284.33 693.734 284.33H692.39L692.152 283.406C692.614 283.434 693.048 283.448 693.44 283.448C693.832 283.448 694.042 283.21 694.042 282.748V273.032H688.372V279.794C688.344 281.684 687.938 283.224 687.126 284.4L686.384 283.714C687.056 282.692 687.392 281.404 687.42 279.85V272.122H694.994ZM684.396 271.73C685.278 272.43 686.02 273.13 686.622 273.83L685.936 274.53C685.376 273.858 684.634 273.158 683.696 272.416L684.396 271.73ZM682.688 275.846H685.614V281.684C685.95 281.376 686.3 281.054 686.664 280.69L686.916 281.684C686.23 282.384 685.502 283.014 684.718 283.574L684.326 282.678C684.522 282.51 684.634 282.328 684.634 282.104V276.812H682.688V275.846ZM706.894 276.434V272.612H707.902V277.414H703.618V282.552H707.566V278.73H708.588V284.302H707.566V283.518H697.612V278.73H698.634V282.552H702.582V277.414H698.298V272.612H699.306V276.434H702.582V271.548H703.618V276.434H706.894Z" fill="#1A262C"/>
<path d="M265.609 15.876L267.192 14.6669L267.496 15.0643L268.287 14.4597C268.505 14.293 268.73 14.1399 268.961 14.0004L268.702 13.5726C269.205 13.2686 269.733 13.0247 270.276 12.841L270.437 13.3146C270.955 13.1395 271.488 13.0226 272.026 12.964L271.972 12.467C272.549 12.4042 273.131 12.4042 273.708 12.467L273.654 12.964C274.192 13.0226 274.725 13.1395 275.243 13.3146L275.403 12.841C275.947 13.0247 276.475 13.2686 276.977 13.5726L276.719 14.0004C276.949 14.1399 277.174 14.293 277.392 14.4597L278.184 15.0643L278.487 14.6669L280.07 15.876L279.767 16.2733L281.35 17.4824L281.653 17.085L283.236 18.2941L282.933 18.6915L284.515 19.9005L284.819 19.5032L286.402 20.7123L286.098 21.1096L287.681 22.3187L287.985 21.9213L289.567 23.1304L289.264 23.5277L290.847 24.7368L291.15 24.3395L292.733 25.5485L292.43 25.9459L294.013 27.1549L294.316 26.7576L295.899 27.9667L295.595 28.364L297.178 29.5731L297.482 29.1757L299.065 30.3848L298.761 30.7821L300.344 31.9912L300.648 31.5939L302.23 32.8029L301.927 33.2003L303.51 34.4093L303.813 34.012L305.396 35.2211L305.093 35.6184L306.675 36.8275L306.979 36.4301L308.562 37.6392L308.258 38.0365L309.841 39.2456L310.145 38.8483L311.728 40.0573L311.424 40.4547L312.215 41.0592C312.436 41.2274 312.629 41.4145 312.795 41.6157L313.18 41.297C313.582 41.7827 313.851 42.3435 313.987 42.9297L313.5 43.0426C313.621 43.5668 313.621 44.1145 313.5 44.6387L313.987 44.7515C313.851 45.3377 313.582 45.8985 313.18 46.3842L312.795 46.0655C312.629 46.2667 312.436 46.4538 312.215 46.622L311.424 47.2265L311.728 47.6239L310.145 48.833L309.841 48.4356L308.258 49.6447L308.562 50.042L306.979 51.2511L306.675 50.8538L305.093 52.0628L305.396 52.4602L303.813 53.6692L303.51 53.2719L301.927 54.481L302.23 54.8783L300.648 56.0874L300.344 55.69L298.761 56.8991L299.065 57.2964L297.482 58.5055L297.178 58.1082L295.595 59.3172L295.899 59.7146L294.316 60.9237L294.013 60.5263L292.43 61.7354L292.733 62.1327L291.15 63.3418L290.847 62.9444L289.264 64.1535L289.567 64.5509L287.985 65.7599L287.681 65.3626L286.098 66.5716L286.402 66.969L284.819 68.1781L284.515 67.7807L282.933 68.9898L283.236 69.3871L281.653 70.5962L281.35 70.1989L279.767 71.4079L280.07 71.8053L278.487 73.0143L278.184 72.617L277.392 73.2215C277.174 73.3882 276.949 73.5413 276.719 73.6808L276.977 74.1086C276.475 74.4127 275.947 74.6565 275.403 74.8403L275.243 74.3666C274.725 74.5417 274.192 74.6586 273.654 74.7172L273.708 75.2143C273.131 75.2771 272.549 75.2771 271.972 75.2143L272.026 74.7172C271.488 74.6586 270.955 74.5417 270.437 74.3666L270.276 74.8403C269.733 74.6565 269.205 74.4127 268.702 74.1086L268.961 73.6808C268.73 73.5413 268.505 73.3882 268.287 73.2215L267.496 72.617L267.192 73.0143L265.609 71.8053L265.913 71.4079L264.33 70.1989L264.027 70.5962L262.444 69.3871L262.747 68.9898L261.164 67.7807L260.861 68.1781L259.278 66.969L259.581 66.5716L257.999 65.3626L257.695 65.7599L256.112 64.5508L256.416 64.1535L254.833 62.9444L254.529 63.3418L252.946 62.1327L253.25 61.7354L251.667 60.5263L251.364 60.9236L249.781 59.7146L250.084 59.3172L248.501 58.1082L248.198 58.5055L246.615 57.2964L246.919 56.8991L245.336 55.69L245.032 56.0874L243.449 54.8783L243.753 54.481L242.17 53.2719L241.866 53.6692L240.284 52.4602L240.587 52.0628L239.004 50.8538L238.701 51.2511L237.118 50.042L237.421 49.6447L235.839 48.4356L235.535 48.833L233.952 47.6239L234.256 47.2266L233.464 46.622C233.244 46.4538 233.051 46.2667 232.884 46.0655L232.499 46.3842C232.097 45.8985 231.829 45.3377 231.693 44.7515L232.18 44.6387C232.058 44.1145 232.058 43.5668 232.18 43.0426L231.693 42.9297C231.829 42.3435 232.097 41.7827 232.499 41.297L232.884 41.6157C233.051 41.4145 233.244 41.2274 233.464 41.0592L234.256 40.4547L233.952 40.0573L235.535 38.8483L235.839 39.2456L237.421 38.0366L237.118 37.6392L238.701 36.4301L239.004 36.8275L240.587 35.6184L240.284 35.2211L241.866 34.012L242.17 34.4093L243.753 33.2003L243.449 32.8029L245.032 31.5939L245.336 31.9912L246.919 30.7821L246.615 30.3848L248.198 29.1757L248.501 29.5731L250.084 28.364L249.781 27.9667L251.364 26.7576L251.667 27.1549L253.25 25.9459L252.946 25.5485L254.529 24.3395L254.833 24.7368L256.416 23.5277L256.112 23.1304L257.695 21.9213L257.999 22.3187L259.581 21.1096L259.278 20.7123L260.861 19.5032L261.164 19.9005L262.747 18.6915L262.444 18.2941L264.027 17.085L264.33 17.4824L265.913 16.2733L265.609 15.876Z" fill="#AA37C6" fill-opacity="0.1" stroke="#AA37C6" stroke-dasharray="2 2"/>
<path d="M252.12 42.168H254.664V40.356H255.456V42.168H257.868V42.96H255.456V43.464C256.608 44.4 257.568 45.324 258.336 46.248L257.772 46.824C257.172 46.056 256.404 45.252 255.456 44.412V48.528H254.664V43.74C253.968 45.18 253.092 46.344 252.06 47.232L251.556 46.416C252.768 45.552 253.716 44.4 254.412 42.96H252.12V42.168ZM258.612 49.104H257.58L257.364 48.324L258.432 48.348C258.804 48.348 258.996 48.12 258.996 47.676V39.576H254.364V38.808H259.812V47.904C259.812 48.696 259.404 49.104 258.612 49.104ZM250.176 40.188H250.992V49.212H250.176V40.188ZM251.856 38.1C252.336 38.652 252.756 39.252 253.14 39.924L252.432 40.284C252.036 39.588 251.604 38.964 251.124 38.424L251.856 38.1ZM261.852 41.592H266.52L266.592 40.896H262.656V38.652H271.344V40.896H267.456L267.384 41.592H272.16V42.252H267.288C267.24 42.492 267.204 42.72 267.156 42.936H270.636V48.228H272.376V48.924H261.636V48.228H263.376V42.936H266.292C266.34 42.708 266.376 42.48 266.424 42.252H261.852V41.592ZM264.216 48.228H269.784V47.436H264.216V48.228ZM264.216 46.896H269.784V46.14H264.216V46.896ZM264.216 45.588H269.784V44.832H264.216V45.588ZM264.216 44.292H269.784V43.536H264.216V44.292ZM270.528 40.284V39.288H268.74V40.284H270.528ZM267.948 40.284V39.288H266.052V40.284H267.948ZM265.272 40.284V39.288H263.484V40.284H265.272ZM275.556 42.384V44.484H278.604V42.384H275.556ZM275.508 45.276C275.376 46.812 274.932 48.084 274.164 49.092L273.504 48.504C274.272 47.436 274.668 46.08 274.692 44.436V38.676H283.632V47.664C283.632 48.504 283.212 48.924 282.372 48.924H280.992L280.764 48.072C281.244 48.096 281.688 48.12 282.096 48.12C282.528 48.12 282.756 47.868 282.756 47.364V45.276H279.492V48.792H278.604V45.276H275.508ZM282.756 44.484V42.384H279.492V44.484H282.756ZM282.756 41.58V39.516H279.492V41.58H282.756ZM278.604 39.516H275.556V41.58H278.604V39.516ZM296.076 40.512C296.076 42.936 296.016 44.412 295.896 44.94C295.776 45.444 295.26 45.708 294.36 45.708H294.288L294.048 44.856C294.228 44.868 294.396 44.88 294.54 44.88C294.864 44.88 295.068 44.748 295.14 44.484C295.2 44.232 295.236 43.284 295.248 41.652L293.496 42.18V46.716H292.656V42.432L290.904 42.96V47.616C290.904 47.976 291.108 48.168 291.528 48.168H294.9C295.152 48.168 295.332 48.084 295.428 47.928C295.56 47.736 295.656 47.148 295.704 46.176L296.508 46.428C296.424 47.64 296.268 48.372 296.028 48.636C295.824 48.864 295.5 48.984 295.056 48.984H291.264C290.46 48.984 290.064 48.576 290.064 47.784V43.212L289.056 43.524V42.684L290.064 42.372V39.42H290.904V42.108L292.656 41.568V38.196H293.496V41.304L296.076 40.512ZM289.212 45.612V46.464C288.108 46.98 286.92 47.412 285.648 47.748L285.432 46.884C285.936 46.776 286.44 46.644 286.944 46.5V42.228H285.576V41.388H286.944V38.292H287.796V41.388H289.044V42.228H287.796V46.212C288.276 46.032 288.756 45.828 289.212 45.612Z" fill="#854F98"/>
<path d="M782.609 15.876L784.192 14.6669L784.496 15.0643L785.287 14.4597C785.505 14.293 785.73 14.1399 785.961 14.0004L785.702 13.5726C786.205 13.2686 786.733 13.0247 787.276 12.841L787.437 13.3146C787.955 13.1395 788.488 13.0226 789.026 12.964L788.972 12.467C789.549 12.4042 790.131 12.4042 790.708 12.467L790.654 12.964C791.192 13.0226 791.725 13.1395 792.243 13.3146L792.403 12.841C792.947 13.0247 793.475 13.2686 793.977 13.5726L793.719 14.0004C793.949 14.1399 794.174 14.293 794.392 14.4597L795.184 15.0643L795.487 14.6669L797.07 15.876L796.767 16.2733L798.35 17.4824L798.653 17.085L800.236 18.2941L799.933 18.6915L801.515 19.9005L801.819 19.5032L803.402 20.7123L803.098 21.1096L804.681 22.3187L804.985 21.9213L806.567 23.1304L806.264 23.5277L807.847 24.7368L808.15 24.3395L809.733 25.5485L809.43 25.9459L811.013 27.1549L811.316 26.7576L812.899 27.9667L812.595 28.364L814.178 29.5731L814.482 29.1757L816.065 30.3848L815.761 30.7821L817.344 31.9912L817.648 31.5939L819.23 32.8029L818.927 33.2003L820.51 34.4093L820.813 34.012L822.396 35.2211L822.093 35.6184L823.675 36.8275L823.979 36.4301L825.562 37.6392L825.258 38.0365L826.841 39.2456L827.145 38.8483L828.728 40.0573L828.424 40.4547L829.215 41.0592C829.436 41.2274 829.629 41.4145 829.795 41.6157L830.18 41.297C830.582 41.7827 830.851 42.3435 830.987 42.9297L830.5 43.0426C830.621 43.5668 830.621 44.1145 830.5 44.6387L830.987 44.7515C830.851 45.3377 830.582 45.8985 830.18 46.3842L829.795 46.0655C829.629 46.2667 829.436 46.4538 829.215 46.622L828.424 47.2265L828.728 47.6239L827.145 48.833L826.841 48.4356L825.258 49.6447L825.562 50.042L823.979 51.2511L823.675 50.8538L822.093 52.0628L822.396 52.4602L820.813 53.6692L820.51 53.2719L818.927 54.481L819.23 54.8783L817.648 56.0874L817.344 55.69L815.761 56.8991L816.065 57.2964L814.482 58.5055L814.178 58.1082L812.595 59.3172L812.899 59.7146L811.316 60.9237L811.013 60.5263L809.43 61.7354L809.733 62.1327L808.15 63.3418L807.847 62.9444L806.264 64.1535L806.567 64.5509L804.985 65.7599L804.681 65.3626L803.098 66.5716L803.402 66.969L801.819 68.1781L801.515 67.7807L799.933 68.9898L800.236 69.3871L798.653 70.5962L798.35 70.1989L796.767 71.4079L797.07 71.8053L795.487 73.0143L795.184 72.617L794.392 73.2215C794.174 73.3882 793.949 73.5413 793.719 73.6808L793.977 74.1086C793.475 74.4127 792.947 74.6565 792.403 74.8403L792.243 74.3666C791.725 74.5417 791.192 74.6586 790.654 74.7172L790.708 75.2143C790.131 75.2771 789.549 75.2771 788.972 75.2143L789.026 74.7172C788.488 74.6586 787.955 74.5417 787.437 74.3666L787.276 74.8403C786.733 74.6565 786.205 74.4127 785.702 74.1086L785.961 73.6808C785.73 73.5413 785.505 73.3882 785.287 73.2215L784.496 72.617L784.192 73.0143L782.609 71.8053L782.913 71.4079L781.33 70.1989L781.027 70.5962L779.444 69.3871L779.747 68.9898L778.164 67.7807L777.861 68.1781L776.278 66.969L776.581 66.5716L774.999 65.3626L774.695 65.7599L773.112 64.5508L773.416 64.1535L771.833 62.9444L771.529 63.3418L769.946 62.1327L770.25 61.7354L768.667 60.5263L768.364 60.9236L766.781 59.7146L767.084 59.3172L765.501 58.1082L765.198 58.5055L763.615 57.2964L763.919 56.8991L762.336 55.69L762.032 56.0874L760.449 54.8783L760.753 54.481L759.17 53.2719L758.866 53.6692L757.284 52.4602L757.587 52.0628L756.004 50.8538L755.701 51.2511L754.118 50.042L754.421 49.6447L752.839 48.4356L752.535 48.833L750.952 47.6239L751.256 47.2266L750.464 46.622C750.244 46.4538 750.051 46.2667 749.884 46.0655L749.499 46.3842C749.097 45.8985 748.829 45.3377 748.693 44.7515L749.18 44.6387C749.058 44.1145 749.058 43.5668 749.18 43.0426L748.693 42.9297C748.829 42.3435 749.097 41.7827 749.499 41.297L749.884 41.6157C750.051 41.4145 750.244 41.2274 750.464 41.0592L751.256 40.4547L750.952 40.0573L752.535 38.8483L752.839 39.2456L754.421 38.0366L754.118 37.6392L755.701 36.4301L756.004 36.8275L757.587 35.6184L757.284 35.2211L758.866 34.012L759.17 34.4093L760.753 33.2003L760.449 32.8029L762.032 31.5939L762.336 31.9912L763.919 30.7821L763.615 30.3848L765.198 29.1757L765.501 29.5731L767.084 28.364L766.781 27.9667L768.364 26.7576L768.667 27.1549L770.25 25.9459L769.946 25.5485L771.529 24.3395L771.833 24.7368L773.416 23.5277L773.112 23.1304L774.695 21.9213L774.999 22.3187L776.581 21.1096L776.278 20.7123L777.861 19.5032L778.164 19.9005L779.747 18.6915L779.444 18.2941L781.027 17.085L781.33 17.4824L782.913 16.2733L782.609 15.876Z" fill="#AA37C6" fill-opacity="0.1" stroke="#AA37C6" stroke-dasharray="2 2"/>
<path d="M771.196 43.44V47.748C771.568 47.604 771.928 47.436 772.276 47.268L772.42 48.024C771.796 48.276 771.052 48.54 770.212 48.816L769.984 48.072C770.236 47.988 770.368 47.832 770.368 47.604V39.696C772.9 39.312 774.868 38.88 776.272 38.4L776.752 39.096C776.152 39.3 775.456 39.492 774.64 39.684C774.652 40.812 774.688 41.784 774.736 42.612H777.304V43.44H774.808C774.856 43.956 774.928 44.412 775 44.796C775.192 45.864 775.432 46.668 775.708 47.208C775.972 47.712 776.176 47.964 776.332 47.964C776.488 47.952 776.632 47.292 776.752 45.972L777.472 46.368C777.244 48.096 776.908 48.972 776.476 48.972C776.104 48.972 775.708 48.648 775.288 48.012C774.856 47.352 774.508 46.38 774.244 45.096C774.136 44.604 774.052 44.052 773.992 43.44H771.196ZM773.812 39.864C773.02 40.032 772.144 40.188 771.196 40.344V42.612H773.92C773.848 41.796 773.812 40.872 773.812 39.864ZM773.176 46.524C773.848 47.34 774.376 48.072 774.748 48.708L774.088 49.152C773.692 48.468 773.188 47.736 772.576 46.956L773.176 46.524ZM769.204 38.184L769.984 38.544C769.684 39.456 769.3 40.32 768.844 41.136V49.224H768.004V42.444C767.596 42.996 767.164 43.512 766.684 44.016L766.408 43.104C767.692 41.676 768.628 40.032 769.204 38.184ZM780.22 40.848L780.964 41.22C780.448 42.324 779.848 43.272 779.164 44.088L778.468 43.584C779.14 42.828 779.728 41.916 780.22 40.848ZM783.376 43.08C782.824 42.384 782.284 41.796 781.744 41.292L782.272 40.776C782.752 41.16 783.304 41.736 783.94 42.504L783.376 43.08ZM780.172 43.8C780.664 44.184 781.132 44.592 781.588 45.012C781.864 44.46 782.104 43.872 782.296 43.248L783.04 43.56C782.824 44.304 782.548 45 782.224 45.624C782.728 46.116 783.208 46.62 783.664 47.148L783.052 47.832C782.62 47.316 782.188 46.848 781.78 46.416C781.036 47.544 780.1 48.444 778.948 49.104L778.42 48.336C779.536 47.724 780.448 46.872 781.156 45.78C780.652 45.276 780.136 44.82 779.632 44.412L780.172 43.8ZM781.408 38.112C781.588 38.52 781.768 38.964 781.948 39.468H784.204V40.296H778.648V39.468H781.108C780.928 39.036 780.724 38.628 780.508 38.256L781.408 38.112ZM785.788 40.98C785.692 41.268 785.608 41.556 785.512 41.82C785.8 43.044 786.172 44.112 786.628 45.024C787.204 43.848 787.528 42.504 787.576 40.98H785.788ZM786.16 45.84C785.716 44.976 785.344 44.016 785.044 42.96C784.828 43.392 784.588 43.776 784.348 44.136L783.796 43.476C784.636 42.156 785.212 40.38 785.5 38.136L786.364 38.28C786.268 38.952 786.148 39.564 786.016 40.14H789.388V40.98H788.368C788.296 42.888 787.876 44.52 787.096 45.888C787.78 46.992 788.608 47.844 789.568 48.432L789.064 49.188C788.104 48.576 787.288 47.724 786.616 46.644C785.86 47.676 784.876 48.54 783.676 49.224L783.184 48.444C784.456 47.772 785.452 46.908 786.16 45.84ZM792.556 42.384V44.484H795.604V42.384H792.556ZM792.508 45.276C792.376 46.812 791.932 48.084 791.164 49.092L790.504 48.504C791.272 47.436 791.668 46.08 791.692 44.436V38.676H800.632V47.664C800.632 48.504 800.212 48.924 799.372 48.924H797.992L797.764 48.072C798.244 48.096 798.688 48.12 799.096 48.12C799.528 48.12 799.756 47.868 799.756 47.364V45.276H796.492V48.792H795.604V45.276H792.508ZM799.756 44.484V42.384H796.492V44.484H799.756ZM799.756 41.58V39.516H796.492V41.58H799.756ZM795.604 39.516H792.556V41.58H795.604V39.516ZM813.076 40.512C813.076 42.936 813.016 44.412 812.896 44.94C812.776 45.444 812.26 45.708 811.36 45.708H811.288L811.048 44.856C811.228 44.868 811.396 44.88 811.54 44.88C811.864 44.88 812.068 44.748 812.14 44.484C812.2 44.232 812.236 43.284 812.248 41.652L810.496 42.18V46.716H809.656V42.432L807.904 42.96V47.616C807.904 47.976 808.108 48.168 808.528 48.168H811.9C812.152 48.168 812.332 48.084 812.428 47.928C812.56 47.736 812.656 47.148 812.704 46.176L813.508 46.428C813.424 47.64 813.268 48.372 813.028 48.636C812.824 48.864 812.5 48.984 812.056 48.984H808.264C807.46 48.984 807.064 48.576 807.064 47.784V43.212L806.056 43.524V42.684L807.064 42.372V39.42H807.904V42.108L809.656 41.568V38.196H810.496V41.304L813.076 40.512ZM806.212 45.612V46.464C805.108 46.98 803.92 47.412 802.648 47.748L802.432 46.884C802.936 46.776 803.44 46.644 803.944 46.5V42.228H802.576V41.388H803.944V38.292H804.796V41.388H806.044V42.228H804.796V46.212C805.276 46.032 805.756 45.828 806.212 45.612Z" fill="#854F98"/>
<path d="M229 44L224 41.1133L224 46.8868L229 44ZM205 44.5L224.5 44.5L224.5 43.5L205 43.5L205 44.5Z" fill="#96A0AD"/>
<path d="M746 44L741 41.1133L741 46.8868L746 44ZM722 44.5L741.5 44.5L741.5 43.5L722 43.5L722 44.5Z" fill="#96A0AD"/>
<path d="M76 45L71 42.1133L71 47.8868L76 45ZM52 45.5L71.5 45.5L71.5 44.5L52 44.5L52 45.5Z" fill="#96A0AD"/>
<path d="M338 44L333 41.1133L333 46.8868L338 44ZM314 44.5L333.5 44.5L333.5 43.5L314 43.5L314 44.5Z" fill="#96A0AD"/>
<path d="M492 44L487 41.1133L487 46.8868L492 44ZM468 44.5L487.5 44.5L487.5 43.5L468 43.5L468 44.5Z" fill="#96A0AD"/>
<path d="M619 44L614 41.1133L614 46.8868L619 44ZM595 44.5L614.5 44.5L614.5 43.5L595 43.5L595 44.5Z" fill="#96A0AD"/>
<rect x="607.5" y="101.5" width="125" height="51" rx="7.5" fill="#02ADEC" fill-opacity="0.1"/>
<rect x="607.5" y="101.5" width="125" height="51" rx="7.5" stroke="#02ADEC" stroke-dasharray="2 2"/>
<path d="M625.17 112.004H626.066V122H624.918V113.404C624.288 114.048 623.504 114.496 622.566 114.776V113.628C623.014 113.502 623.49 113.306 623.966 113.026C624.442 112.718 624.834 112.382 625.17 112.004ZM631.769 111.808C632.959 111.808 633.855 112.326 634.471 113.39C635.003 114.286 635.269 115.49 635.269 117.002C635.269 118.514 635.003 119.718 634.471 120.614C633.855 121.664 632.959 122.196 631.769 122.196C630.565 122.196 629.669 121.664 629.067 120.614C628.535 119.718 628.269 118.514 628.269 117.002C628.269 115.49 628.535 114.286 629.067 113.39C629.669 112.326 630.565 111.808 631.769 111.808ZM631.769 112.788C630.873 112.788 630.229 113.264 629.837 114.23C629.557 114.902 629.417 115.826 629.417 117.002C629.417 118.164 629.557 119.088 629.837 119.774C630.229 120.726 630.873 121.216 631.769 121.216C632.665 121.216 633.309 120.726 633.701 119.774C633.981 119.088 634.135 118.164 634.135 117.002C634.135 115.826 633.981 114.902 633.701 114.23C633.309 113.264 632.665 112.788 631.769 112.788ZM640.164 111.808C641.354 111.808 642.25 112.326 642.866 113.39C643.398 114.286 643.664 115.49 643.664 117.002C643.664 118.514 643.398 119.718 642.866 120.614C642.25 121.664 641.354 122.196 640.164 122.196C638.96 122.196 638.064 121.664 637.462 120.614C636.93 119.718 636.664 118.514 636.664 117.002C636.664 115.49 636.93 114.286 637.462 113.39C638.064 112.326 638.96 111.808 640.164 111.808ZM640.164 112.788C639.268 112.788 638.624 113.264 638.232 114.23C637.952 114.902 637.812 115.826 637.812 117.002C637.812 118.164 637.952 119.088 638.232 119.774C638.624 120.726 639.268 121.216 640.164 121.216C641.06 121.216 641.704 120.726 642.096 119.774C642.376 119.088 642.53 118.164 642.53 117.002C642.53 115.826 642.376 114.902 642.096 114.23C641.704 113.264 641.06 112.788 640.164 112.788ZM646.206 120.334C646.43 120.334 646.64 120.418 646.808 120.586C646.976 120.754 647.06 120.95 647.06 121.202C647.06 121.44 646.976 121.636 646.808 121.804C646.64 121.972 646.43 122.056 646.206 122.056C645.954 122.056 645.758 121.972 645.604 121.804C645.436 121.636 645.352 121.44 645.352 121.202C645.352 120.95 645.436 120.754 645.604 120.586C645.758 120.418 645.954 120.334 646.206 120.334ZM651.69 115.196H654.658V113.082H655.582V115.196H658.396V116.12H655.582V116.708C656.926 117.8 658.046 118.878 658.942 119.956L658.284 120.628C657.584 119.732 656.688 118.794 655.582 117.814V122.616H654.658V117.03C653.846 118.71 652.824 120.068 651.62 121.104L651.032 120.152C652.446 119.144 653.552 117.8 654.364 116.12H651.69V115.196ZM659.264 123.288H658.06L657.808 122.378L659.054 122.406C659.488 122.406 659.712 122.14 659.712 121.622V112.172H654.308V111.276H660.664V121.888C660.664 122.812 660.188 123.288 659.264 123.288ZM649.422 112.886H650.374V123.414H649.422V112.886ZM651.382 110.45C651.942 111.094 652.432 111.794 652.88 112.578L652.054 112.998C651.592 112.186 651.088 111.458 650.528 110.828L651.382 110.45ZM663.044 114.524H668.49L668.574 113.712H663.982V111.094H674.118V113.712H669.582L669.498 114.524H675.07V115.294H669.386C669.33 115.574 669.288 115.84 669.232 116.092H673.292V122.266H675.322V123.078H662.792V122.266H664.822V116.092H668.224C668.28 115.826 668.322 115.56 668.378 115.294H663.044V114.524ZM665.802 122.266H672.298V121.342H665.802V122.266ZM665.802 120.712H672.298V119.83H665.802V120.712ZM665.802 119.186H672.298V118.304H665.802V119.186ZM665.802 117.674H672.298V116.792H665.802V117.674ZM673.166 112.998V111.836H671.08V112.998H673.166ZM670.156 112.998V111.836H667.944V112.998H670.156ZM667.034 112.998V111.836H664.948V112.998H667.034ZM677.534 114.818H682.672V119.088H677.534V114.818ZM681.678 118.178V115.756H678.542V118.178H681.678ZM683.106 119.886V120.866C681.244 121.37 679.228 121.804 677.072 122.154L676.82 121.16C679.004 120.88 681.09 120.46 683.106 119.886ZM687.824 123.358C687.124 123.344 686.466 122.896 685.822 122C685.626 121.734 685.458 121.454 685.318 121.16C684.534 122.112 683.666 122.868 682.728 123.428L682.182 122.56C683.176 121.958 684.072 121.146 684.856 120.11C684.66 119.578 684.506 119.004 684.366 118.388C684.044 116.96 683.876 115.28 683.862 113.348H676.82V112.368H683.862V110.576H684.87V112.368H686.928C686.69 111.864 686.424 111.388 686.144 110.968L687.166 110.8C687.418 111.262 687.67 111.78 687.908 112.368H689.266V113.348H684.884C684.912 115.056 685.038 116.568 685.276 117.884C685.36 118.318 685.444 118.724 685.556 119.102C686.34 117.814 686.998 116.288 687.53 114.524L688.412 115C687.754 117.114 686.942 118.878 685.962 120.306C686.102 120.628 686.242 120.922 686.396 121.174C686.886 121.902 687.32 122.266 687.712 122.266C688.048 122.266 688.342 121.468 688.58 119.872L689.448 120.446C689.07 122.378 688.524 123.358 687.824 123.358ZM696.112 116.68V121.706C696.546 121.538 696.966 121.342 697.372 121.146L697.54 122.028C696.812 122.322 695.944 122.63 694.964 122.952L694.698 122.084C694.992 121.986 695.146 121.804 695.146 121.538V112.312C698.1 111.864 700.396 111.36 702.034 110.8L702.594 111.612C701.894 111.85 701.082 112.074 700.13 112.298C700.144 113.614 700.186 114.748 700.242 115.714H703.238V116.68H700.326C700.382 117.282 700.466 117.814 700.55 118.262C700.774 119.508 701.054 120.446 701.376 121.076C701.684 121.664 701.922 121.958 702.104 121.958C702.286 121.944 702.454 121.174 702.594 119.634L703.434 120.096C703.168 122.112 702.776 123.134 702.272 123.134C701.838 123.134 701.376 122.756 700.886 122.014C700.382 121.244 699.976 120.11 699.668 118.612C699.542 118.038 699.444 117.394 699.374 116.68H696.112ZM699.164 112.508C698.24 112.704 697.218 112.886 696.112 113.068V115.714H699.29C699.206 114.762 699.164 113.684 699.164 112.508ZM698.422 120.278C699.206 121.23 699.822 122.084 700.256 122.826L699.486 123.344C699.024 122.546 698.436 121.692 697.722 120.782L698.422 120.278ZM693.788 110.548L694.698 110.968C694.348 112.032 693.9 113.04 693.368 113.992V123.428H692.388V115.518C691.912 116.162 691.408 116.764 690.848 117.352L690.526 116.288C692.024 114.622 693.116 112.704 693.788 110.548ZM706.64 113.656L707.508 114.09C706.906 115.378 706.206 116.484 705.408 117.436L704.596 116.848C705.38 115.966 706.066 114.902 706.64 113.656ZM710.322 116.26C709.678 115.448 709.048 114.762 708.418 114.174L709.034 113.572C709.594 114.02 710.238 114.692 710.98 115.588L710.322 116.26ZM706.584 117.1C707.158 117.548 707.704 118.024 708.236 118.514C708.558 117.87 708.838 117.184 709.062 116.456L709.93 116.82C709.678 117.688 709.356 118.5 708.978 119.228C709.566 119.802 710.126 120.39 710.658 121.006L709.944 121.804C709.44 121.202 708.936 120.656 708.46 120.152C707.592 121.468 706.5 122.518 705.156 123.288L704.54 122.392C705.842 121.678 706.906 120.684 707.732 119.41C707.144 118.822 706.542 118.29 705.954 117.814L706.584 117.1ZM708.026 110.464C708.236 110.94 708.446 111.458 708.656 112.046H711.288V113.012H704.806V112.046H707.676C707.466 111.542 707.228 111.066 706.976 110.632L708.026 110.464ZM713.136 113.81C713.024 114.146 712.926 114.482 712.814 114.79C713.15 116.218 713.584 117.464 714.116 118.528C714.788 117.156 715.166 115.588 715.222 113.81H713.136ZM713.57 119.48C713.052 118.472 712.618 117.352 712.268 116.12C712.016 116.624 711.736 117.072 711.456 117.492L710.812 116.722C711.792 115.182 712.464 113.11 712.8 110.492L713.808 110.66C713.696 111.444 713.556 112.158 713.402 112.83H717.336V113.81H716.146C716.062 116.036 715.572 117.94 714.662 119.536C715.46 120.824 716.426 121.818 717.546 122.504L716.958 123.386C715.838 122.672 714.886 121.678 714.102 120.418C713.22 121.622 712.072 122.63 710.672 123.428L710.098 122.518C711.582 121.734 712.744 120.726 713.57 119.48ZM644.982 135.448V137.898H648.538V135.448H644.982ZM644.926 138.822C644.772 140.614 644.254 142.098 643.358 143.274L642.588 142.588C643.484 141.342 643.946 139.76 643.974 137.842V131.122H654.404V141.608C654.404 142.588 653.914 143.078 652.934 143.078H651.324L651.058 142.084C651.618 142.112 652.136 142.14 652.612 142.14C653.116 142.14 653.382 141.846 653.382 141.258V138.822H649.574V142.924H648.538V138.822H644.926ZM653.382 137.898V135.448H649.574V137.898H653.382ZM653.382 134.51V132.102H649.574V134.51H653.382ZM648.538 132.102H644.982V134.51H648.538V132.102ZM668.922 133.264C668.922 136.092 668.852 137.814 668.712 138.43C668.572 139.018 667.97 139.326 666.92 139.326H666.836L666.556 138.332C666.766 138.346 666.962 138.36 667.13 138.36C667.508 138.36 667.746 138.206 667.83 137.898C667.9 137.604 667.942 136.498 667.956 134.594L665.912 135.21V140.502H664.932V135.504L662.888 136.12V141.552C662.888 141.972 663.126 142.196 663.616 142.196H667.55C667.844 142.196 668.054 142.098 668.166 141.916C668.32 141.692 668.432 141.006 668.488 139.872L669.426 140.166C669.328 141.58 669.146 142.434 668.866 142.742C668.628 143.008 668.25 143.148 667.732 143.148H663.308C662.37 143.148 661.908 142.672 661.908 141.748V136.414L660.732 136.778V135.798L661.908 135.434V131.99H662.888V135.126L664.932 134.496V130.562H665.912V134.188L668.922 133.264ZM660.914 139.214V140.208C659.626 140.81 658.24 141.314 656.756 141.706L656.504 140.698C657.092 140.572 657.68 140.418 658.268 140.25V135.266H656.672V134.286H658.268V130.674H659.262V134.286H660.718V135.266H659.262V139.914C659.822 139.704 660.382 139.466 660.914 139.214ZM673.374 130.548L674.368 130.716C674.242 131.416 674.102 132.074 673.934 132.718H677.07V133.614C676.692 136.064 675.978 138.122 674.914 139.774C675.25 140.292 675.6 140.684 675.992 140.964C677.084 141.734 678.82 142.126 681.186 142.154C681.914 142.154 682.642 142.126 683.398 142.084L683.202 143.134H681.662C678.778 143.134 676.692 142.644 675.404 141.692C675.012 141.398 674.662 141.02 674.34 140.572C673.472 141.664 672.464 142.56 671.288 143.26L670.742 142.308C671.946 141.608 672.954 140.698 673.752 139.592C673.29 138.71 672.884 137.632 672.534 136.358C672.17 137.016 671.764 137.604 671.344 138.122L670.658 137.268C672.002 135.602 672.898 133.362 673.374 130.548ZM673.122 135.14C673.486 136.582 673.878 137.772 674.326 138.71C675.152 137.296 675.74 135.616 676.076 133.684H673.654C673.486 134.202 673.304 134.692 673.122 135.14ZM678.946 130.632H679.968V134.188C681.116 135.014 682.278 135.966 683.468 137.044L682.866 137.94C681.732 136.792 680.766 135.882 679.968 135.238V141.062H678.946V130.632ZM684.994 134.524H690.44L690.524 133.712H685.932V131.094H696.068V133.712H691.532L691.448 134.524H697.02V135.294H691.336C691.28 135.574 691.238 135.84 691.182 136.092H695.242V142.266H697.272V143.078H684.742V142.266H686.772V136.092H690.174C690.23 135.826 690.272 135.56 690.328 135.294H684.994V134.524ZM687.752 142.266H694.248V141.342H687.752V142.266ZM687.752 140.712H694.248V139.83H687.752V140.712ZM687.752 139.186H694.248V138.304H687.752V139.186ZM687.752 137.674H694.248V136.792H687.752V137.674ZM695.116 132.998V131.836H693.03V132.998H695.116ZM692.106 132.998V131.836H689.894V132.998H692.106ZM688.984 132.998V131.836H686.898V132.998H688.984Z" fill="#1A262C"/>
<path d="M607 128L602 125.113V130.887L607 128ZM271.5 76V120H272.5V76H271.5ZM280 128.5H602.5V127.5H280V128.5ZM271.5 120C271.5 124.694 275.306 128.5 280 128.5V127.5C275.858 127.5 272.5 124.142 272.5 120H271.5Z" fill="#96A0AD"/>
<path d="M734 128L739 130.887V125.113L734 128ZM790.5 77V120H791.5V77H790.5ZM783 127.5H738.5V128.5H783V127.5ZM790.5 120C790.5 124.142 787.142 127.5 783 127.5V128.5C787.694 128.5 791.5 124.694 791.5 120H790.5Z" fill="#96A0AD"/>
<path d="M494 223L496.887 218H491.113L494 223ZM832 44H844.5V43H832V44ZM852 51.5V168H853V51.5H852ZM844.5 175.5H502V176.5H844.5V175.5ZM493.5 184V218.5H494.5V184H493.5ZM502 175.5C497.306 175.5 493.5 179.306 493.5 184H494.5C494.5 179.858 497.858 176.5 502 176.5V175.5ZM852 168C852 172.142 848.642 175.5 844.5 175.5V176.5C849.194 176.5 853 172.694 853 168H852ZM844.5 44C848.642 44 852 47.3579 852 51.5H853C853 46.8056 849.194 43 844.5 43V44Z" fill="#96A0AD"/>
<path d="M494 223L496.887 218H491.113L494 223ZM673.5 153V167.869H674.5V153H673.5ZM666 175.369H502V176.369H666V175.369ZM493.5 183.869V218.5H494.5V183.869H493.5ZM502 175.369C497.306 175.369 493.5 179.175 493.5 183.869H494.5C494.5 179.727 497.858 176.369 502 176.369V175.369ZM673.5 167.869C673.5 172.011 670.142 175.369 666 175.369V176.369C670.694 176.369 674.5 172.563 674.5 167.869H673.5Z" fill="#96A0AD"/>
<path d="M616 205.5L611 202.613V208.387L616 205.5ZM544 242.5H570.5V241.5H544V242.5ZM579 234V213.5H578V234H579ZM586.5 206H611.5V205H586.5V206ZM579 213.5C579 209.358 582.358 206 586.5 206V205C581.806 205 578 208.806 578 213.5H579ZM570.5 242.5C575.194 242.5 579 238.694 579 234H578C578 238.142 574.642 241.5 570.5 241.5V242.5Z" fill="#96A0AD"/>
<path d="M616 278.5L611 281.387V275.613L616 278.5ZM544 241.5H570.5V242.5H544V241.5ZM579 250V270.5H578V250H579ZM586.5 278H611.5V279H586.5V278ZM579 270.5C579 274.642 582.358 278 586.5 278V279C581.806 279 578 275.194 578 270.5H579ZM570.5 241.5C575.194 241.5 579 245.306 579 250H578C578 245.858 574.642 242.5 570.5 242.5V241.5Z" fill="#96A0AD"/>
<path d="M795 242L790 239.113V244.887L795 242ZM790.5 241.5H768.5V242.5H790.5V241.5ZM760 250V270.5H761V250H760ZM752.5 278H723V279H752.5V278ZM760 270.5C760 274.642 756.642 278 752.5 278V279C757.194 279 761 275.194 761 270.5H760ZM768.5 241.5C763.806 241.5 760 245.306 760 250H761C761 245.858 764.358 242.5 768.5 242.5V241.5Z" fill="#96A0AD"/>
<path d="M795 242L790 244.887V239.113L795 242ZM790.5 242.5H768.5V241.5H790.5V242.5ZM760 234V213.5H761V234H760ZM752.5 206H723V205H752.5V206ZM760 213.5C760 209.358 756.642 206 752.5 206V205C757.194 205 761 208.806 761 213.5H760ZM768.5 242.5C763.806 242.5 760 238.694 760 234H761C761 238.142 764.358 241.5 768.5 241.5V242.5Z" fill="#96A0AD"/>
<path d="M258 77.17H264.08V80.64H258V77.17ZM263.37 80.03V79.21H258.71V80.03H263.37ZM258.71 78.62H263.37V77.79H258.71V78.62ZM260.75 82.04H256.58V81.38H265.43V82.04H261.48V83.17H264.36V83.81H261.48V85.14C261.96 85.18 262.54 85.21 263.2 85.21C264.06 85.21 264.79 85.2 265.38 85.18L265.18 85.86C264.46 85.86 263.82 85.85 263.25 85.84C261.6 85.84 260.48 85.71 259.89 85.46C259.38 85.23 258.92 84.79 258.52 84.13C258.13 84.87 257.63 85.48 257.03 85.97L256.56 85.38C257.48 84.64 258.11 83.64 258.44 82.39L259.12 82.51C259.02 82.88 258.91 83.23 258.78 83.56C259.2 84.26 259.68 84.7 260.2 84.89C260.36 84.94 260.54 84.99 260.75 85.03V82.04Z" fill="#929DA3"/>
<path d="M777 84.17H783.08V87.64H777V84.17ZM782.37 87.03V86.21H777.71V87.03H782.37ZM777.71 85.62H782.37V84.79H777.71V85.62ZM779.75 89.04H775.58V88.38H784.43V89.04H780.48V90.17H783.36V90.81H780.48V92.14C780.96 92.18 781.54 92.21 782.2 92.21C783.06 92.21 783.79 92.2 784.38 92.18L784.18 92.86C783.46 92.86 782.82 92.85 782.25 92.84C780.6 92.84 779.48 92.71 778.89 92.46C778.38 92.23 777.92 91.79 777.52 91.13C777.13 91.87 776.63 92.48 776.03 92.97L775.56 92.38C776.48 91.64 777.11 90.64 777.44 89.39L778.12 89.51C778.02 89.88 777.91 90.23 777.78 90.56C778.2 91.26 778.68 91.7 779.2 91.89C779.36 91.94 779.54 91.99 779.75 92.03V89.04Z" fill="#929DA3"/>
<path d="M314.97 29.3H323.07V30H319.88C319.72 30.22 319.54 30.44 319.36 30.64V33.95H318.64V31.33C317.7 32.11 316.47 32.8 314.95 33.41L314.5 32.82C316.64 32.03 318.16 31.09 319.06 30H314.97V29.3ZM322.32 34.3V37.96H321.59V37.49H316.43V37.96H315.7V34.3H322.32ZM316.43 36.79H321.59V35H316.43V36.79ZM320.41 30.89C321.61 31.57 322.61 32.26 323.42 32.95L322.9 33.48C322.18 32.82 321.19 32.11 319.93 31.35L320.41 30.89Z" fill="#929DA3"/>
<path d="M832.97 26.3H841.07V27H837.88C837.72 27.22 837.54 27.44 837.36 27.64V30.95H836.64V28.33C835.7 29.11 834.47 29.8 832.95 30.41L832.5 29.82C834.64 29.03 836.16 28.09 837.06 27H832.97V26.3ZM840.32 31.3V34.96H839.59V34.49H834.43V34.96H833.7V31.3H840.32ZM834.43 33.79H839.59V32H834.43V33.79ZM838.41 27.89C839.61 28.57 840.61 29.26 841.42 29.95L840.9 30.48C840.18 29.82 839.19 29.11 837.93 28.35L838.41 27.89Z" fill="#929DA3"/>
<rect y="30" width="52" height="28" rx="14" fill="url(#paint0_linear_7431_2894)"/>
<path d="M13.498 38.262H24.53V39.55H22.29V42.91H25.244V44.198H22.29V50.26H20.96V44.198H17.208C17.068 45.598 16.802 46.76 16.382 47.698C15.85 48.874 14.954 49.784 13.708 50.414L12.994 49.294C14.114 48.636 14.884 47.796 15.29 46.788C15.556 46.06 15.738 45.192 15.85 44.198H12.77V42.91H15.948C15.948 42.798 15.962 42.686 15.962 42.602V39.55H13.498V38.262ZM17.306 39.55V42.602C17.306 42.714 17.292 42.812 17.292 42.91H20.96V39.55H17.306ZM28.142 37.436L29.444 37.548C29.332 38.444 29.22 39.298 29.108 40.082H31.096V40.824C31.012 43.064 30.648 44.996 30.004 46.648C30.62 47.292 31.138 47.88 31.53 48.398L30.634 49.448C30.284 48.972 29.878 48.482 29.402 47.95C28.87 48.93 28.212 49.784 27.428 50.512L26.588 49.462C27.372 48.762 28.002 47.922 28.492 46.97C27.946 46.41 27.358 45.822 26.714 45.206C27.022 44.03 27.316 42.742 27.568 41.356H26.588V40.082H27.778C27.904 39.228 28.03 38.346 28.142 37.436ZM29.052 45.682C29.5 44.408 29.78 42.966 29.864 41.356H28.898C28.66 42.728 28.408 43.89 28.142 44.814C28.464 45.122 28.772 45.402 29.052 45.682ZM38.46 44.31V50.456H37.186V49.672H33.35V50.456H32.09V44.31H38.46ZM33.35 48.426H37.186V45.528H33.35V48.426ZM31.614 43.288L31.404 42.084C32.09 41.86 33.056 40.334 34.302 37.492L35.562 37.912C34.806 39.536 34.05 40.908 33.266 42C34.61 41.916 35.912 41.776 37.172 41.58C36.836 40.88 36.486 40.236 36.15 39.634L37.284 39.088C38.012 40.306 38.684 41.65 39.328 43.12L38.11 43.708C37.97 43.344 37.83 43.008 37.69 42.7C35.87 42.952 33.84 43.148 31.614 43.288Z" fill="white"/>
<rect x="795" y="228" width="52" height="28" rx="14" fill="url(#paint1_linear_7431_2894)"/>
<path d="M812.768 245.446V246.706C811.34 247.21 809.73 247.63 807.91 247.952L807.742 246.664C809.66 246.356 811.34 245.95 812.768 245.446ZM809.968 235.45L811.214 235.926C810.542 237.62 809.87 238.992 809.17 240.056C809.702 240 810.248 239.93 810.808 239.846C811.06 239.37 811.312 238.88 811.592 238.362L812.754 238.782C811.564 240.966 810.57 242.576 809.758 243.584C810.696 243.388 811.648 243.122 812.6 242.786V243.976C811.032 244.508 809.562 244.858 808.162 245.04L807.812 243.85C808.05 243.752 808.246 243.626 808.414 243.472C808.862 242.996 809.436 242.198 810.122 241.05C809.422 241.148 808.68 241.246 807.924 241.358L807.602 240.14C807.798 240.056 807.98 239.888 808.148 239.65C808.848 238.39 809.464 236.99 809.968 235.45ZM812.558 237.144H815.792V235.562H817.122V237.144H820.342V238.432H817.122V240.196H819.936V241.484H813.02V240.196H815.792V238.432H812.558V237.144ZM819.642 242.576V248.4H818.354V247.84H814.658V248.4H813.356V242.576H819.642ZM814.658 246.58H818.354V243.836H814.658V246.58ZM821.966 236.85H827.328V235.562H828.672V236.85H834.006V238.124H828.672V239.23H833.054V243.444H829.708C830.688 244.746 832.298 245.908 834.538 246.93L833.628 248.092C831.276 246.72 829.624 245.194 828.672 243.514V248.428H827.328V243.514C826.278 245.376 824.584 246.902 822.26 248.106L821.49 246.874C823.646 245.964 825.242 244.816 826.278 243.444H822.974V239.23H827.328V238.124H821.966V236.85ZM831.724 242.226V240.476H828.672V242.226H831.724ZM827.328 242.226V240.476H824.304V242.226H827.328Z" fill="white"/>
<defs>
<linearGradient id="paint0_linear_7431_2894" x1="25.8194" y1="16" x2="25.8194" y2="66.1354" gradientUnits="userSpaceOnUse">
<stop stop-color="#3478A9"/>
<stop offset="1" stop-color="#86B3D3"/>
</linearGradient>
<linearGradient id="paint1_linear_7431_2894" x1="820.819" y1="214" x2="820.819" y2="264.135" gradientUnits="userSpaceOnUse">
<stop stop-color="#3478A9"/>
<stop offset="1" stop-color="#86B3D3"/>
</linearGradient>
</defs>
</svg>
