<?xml version="1.0" encoding="UTF-8"?>
<svg width="16px" height="16px" viewBox="0 0 16 16" version="1.1" xmlns="http://www.w3.org/2000/svg" xmlns:xlink="http://www.w3.org/1999/xlink">
    <title>编组 46</title>
    <g id="页面-1" stroke="none" stroke-width="1" fill="none" fill-rule="evenodd">
        <g id="画板" transform="translate(-1756.000000, -1009.000000)">
            <g id="编组-46" transform="translate(1756.000000, 1009.000000)">
                <path d="M2.15,2 L13.85,2 C14.2089851,2 14.5,2.29847683 14.5,2.66666667 L14.5,13.3333333 C14.5,13.7015232 14.2089851,14 13.85,14 L2.15,14 C1.79101491,14 1.5,13.7015232 1.5,13.3333333 L1.5,2.66666667 C1.5,2.29847683 1.79101491,2 2.15,2 Z M7.5,10.5 C7.5,10.7761424 7.72385763,11 8,11 L11,11 C11.2761424,11 11.5,10.7761424 11.5,10.5 C11.5,10.2238576 11.2761424,10 11,10 L8,10 C7.72385763,10 7.5,10.2238576 7.5,10.5 Z M4.49982323,8.99976432 L4.00008841,9.49946969 C3.72387338,9.77566844 3.72379424,10.2234679 3.99991161,10.4997643 C4.27592386,10.7759555 4.72357318,10.7761005 4.99976435,10.5000883 C4.99981345,10.5000392 4.99986255,10.4999901 4.99991163,10.4999411 L5.99991161,9.5 C6.82833874,8.67162169 6.82837831,7.32851551 5.99999999,6.50008838 C5.99997054,6.50005892 5.99994108,6.50002946 5.99991161,6.5 L4.99991163,5.50005894 C4.72380178,5.22396535 4.27615244,5.22397854 4.00005885,5.5000884 C4.00000976,5.50013749 3.99996068,5.50018658 3.99991161,5.50023568 C3.72379424,5.77653205 3.72387338,6.22433156 4.00008841,6.50053031 L4.49982323,7.00023568 C5.05197781,7.55235774 5.05200419,8.44755082 4.49988213,8.99970541 C4.4998625,8.99972505 4.49984286,8.99974468 4.49982323,8.99976432 Z" id="形状" fill="#CED0D7" fill-rule="nonzero"></path>
                <rect id="矩形备份-134" fill="#575353" opacity="0" x="0" y="0" width="16" height="16"></rect>
            </g>
        </g>
    </g>
</svg>