<?xml version="1.0" encoding="UTF-8"?>
<svg width="16px" height="16px" viewBox="0 0 16 16" version="1.1" xmlns="http://www.w3.org/2000/svg" xmlns:xlink="http://www.w3.org/1999/xlink">
    <title>编组 47</title>
    <g id="页面-1" stroke="none" stroke-width="1" fill="none" fill-rule="evenodd">
        <g id="画板" transform="translate(-1777.000000, -1009.000000)">
            <g id="编组-47" transform="translate(1777.000000, 1009.000000)">
                <g id="编组-5" transform="translate(3.000000, 2.000000)">
                    <path d="M8.19734461,0 L8.19734461,1.2 L7.52297963,1.2 L7.52297963,3.145746 C7.52297963,3.840306 7.69238011,4.526592 8.01951456,5.15724 L10.9066733,10.72284 C11.1407454,11.17416 10.9193514,11.70888 10.4120941,11.91714 C10.2791767,11.97174 10.1345929,12 9.98818823,12 L1.01154746,12 C0.452883286,12 0,11.59704 0,11.1 C0,10.96974 0.0317625903,10.8411 0.0931028284,10.72284 L2.98022788,5.15724 C3.30736233,4.526592 3.47678304,3.840306 3.47678304,3.145746 L3.47678304,1.2 L2.80241806,1.2 L2.80241806,0 L8.19734461,0 Z M6.17424968,1.2 L4.82551973,1.2 L4.82551973,3.6 L6.17424968,3.6 L6.17424968,1.2 Z" id="形状" fill="#CED0D7" fill-rule="nonzero"></path>
                    <path d="M5.00573243,5.68461191 L5.36468873,5.66366519 C5.5283767,5.65411325 5.6688154,5.7790652 5.67836734,5.94275318 C5.6790396,5.95427358 5.6790396,5.96582339 5.67836734,5.9773438 L5.65742061,6.3363001 C5.64864689,6.48665211 5.52868463,6.60661436 5.37833262,6.61538809 L5.01937632,6.63633481 C4.85568834,6.64588675 4.71524965,6.5209348 4.70569771,6.35724682 C4.70502544,6.34572642 4.70502544,6.33417661 4.70569771,6.3226562 L4.72664444,5.9636999 C4.73541816,5.81334789 4.85538041,5.69338564 5.00573243,5.68461191 Z" id="矩形" fill="#E6E8EA" transform="translate(5.192033, 6.150000) rotate(-315.000000) translate(-5.192033, -6.150000) "></path>
                    <path d="M3.15948555,7.78461191 L4.15562434,7.7264827 C4.31931231,7.71693076 4.45975101,7.84188271 4.46930295,8.00557069 C4.46997521,8.0170911 4.46997521,8.0286409 4.46930295,8.04016131 L4.41117373,9.0363001 C4.40240001,9.18665211 4.28243776,9.30661436 4.13208574,9.31538809 L3.13594695,9.3735173 C2.97225898,9.38306924 2.83182028,9.25811729 2.82226834,9.09442931 C2.82159608,9.0829089 2.82159608,9.0713591 2.82226834,9.05983869 L2.88039756,8.0636999 C2.88917128,7.91334789 3.00913353,7.79338564 3.15948555,7.78461191 Z" id="矩形备份" fill="#E6E8EA" transform="translate(3.645786, 8.550000) rotate(-315.000000) translate(-3.645786, -8.550000) "></path>
                    <path d="M6.56849291,8.38461191 L8.20181419,8.28930021 C8.36550216,8.27974828 8.50594086,8.40470023 8.51549279,8.5683882 C8.51616506,8.57990861 8.51616506,8.59145841 8.51549279,8.60297882 L8.42018109,10.2363001 C8.41140737,10.3866521 8.29144512,10.5066144 8.1410931,10.5153881 L6.50777183,10.6106998 C6.34408385,10.6202517 6.20364515,10.4952998 6.19409322,10.3316118 C6.19342095,10.3200914 6.19342095,10.3085416 6.19409322,10.2970212 L6.28940492,8.6636999 C6.29817864,8.51334789 6.41814089,8.39338564 6.56849291,8.38461191 Z" id="矩形备份-2" fill="#E6E8EA" transform="translate(7.354793, 9.450000) rotate(-315.000000) translate(-7.354793, -9.450000) "></path>
                </g>
                <rect id="矩形备份-135" fill="#575353" opacity="0" x="0" y="0" width="16" height="16"></rect>
            </g>
        </g>
    </g>
</svg>