<?xml version="1.0" encoding="UTF-8"?>
<svg width="26px" height="26px" viewBox="0 0 26 26" version="1.1" xmlns="http://www.w3.org/2000/svg" xmlns:xlink="http://www.w3.org/1999/xlink">
    <title>编组 2</title>
    <g id="知识图谱" stroke="none" stroke-width="1" fill="none" fill-rule="evenodd">
        <g id="画板" transform="translate(-1190.000000, -80.000000)">
            <g id="编组-2" transform="translate(1190.000000, 80.000000)">
                <path d="M20.9246418,18.3848416 L13.4999854,26 L6.07537573,18.3848416 C1.97487476,14.1789681 1.97487476,7.36011119 6.07537573,3.15433337 C10.1758767,-1.05144446 16.8240475,-1.05144446 20.9246418,3.15433337 C25.0251194,7.36011119 25.0251194,14.1789681 20.9246418,18.3848416 Z M13.5,16 C15.9852375,16 18,13.9852375 18,11.5 C18,9.0147175 15.9852375,7 13.5,7 C11.0147175,7 9,9.0147175 9,11.5 C9,13.9852375 11.0147175,16 13.5,16 Z M13.5,14 C12.11925,14 11,12.88075 11,11.5 C11,10.1192875 12.11925,9 13.5,9 C14.88075,9 16,10.1192875 16,11.5 C16,12.88075 14.88075,14 13.5,14 Z" id="形状" fill-opacity="0.441714414" fill="#356DF6" fill-rule="nonzero"></path>
                <rect id="矩形备份" fill="#D8D8D8" opacity="0" x="0" y="0" width="26" height="26"></rect>
            </g>
        </g>
    </g>
</svg>
