<?xml version="1.0" encoding="UTF-8"?>
<svg width="139px" height="112px" viewBox="0 0 139 112" version="1.1" xmlns="http://www.w3.org/2000/svg" xmlns:xlink="http://www.w3.org/1999/xlink">
    <title>形状结合</title>
    <defs>
        <linearGradient x1="50%" y1="0%" x2="50%" y2="100%" id="linearGradient-1">
            <stop stop-color="#7FF4F4" stop-opacity="0.144899168" offset="0%"></stop>
            <stop stop-color="#00B1B2" stop-opacity="0.0122215431" offset="100%"></stop>
        </linearGradient>
    </defs>
    <g id="模型监控优化" stroke="none" stroke-width="1" fill="none" fill-rule="evenodd" opacity="0.942451114">
        <g id="模型监监控" transform="translate(-541.000000, -103.000000)" fill="url(#linearGradient-1)">
            <g id="编组-7" transform="translate(208.000000, 76.000000)">
                <g id="编组-4" transform="translate(332.999989, 17.000000)">
                    <g transform="translate(0.000000, 10.000000)">
                        <path d="M138.916922,88.2791062 L139.000011,116.510503 C139.002723,117.328123 138.549204,118.084356 137.811043,118.493166 L112.168821,132.690496 C110.584908,133.568196 108.604677,132.474989 108.59923,130.720894 L108.51614,102.489497 C108.513429,101.671877 108.966948,100.915644 109.705108,100.506834 L135.347331,86.3095042 C136.931243,85.4318036 138.911474,86.5250111 138.916922,88.2791062 Z M79.600153,86.3128144 L105.207025,100.499637 C105.943508,100.907589 106.397468,101.658118 106.400211,102.468794 L106.483882,130.705146 C106.489357,132.469019 104.484256,133.573892 102.88374,132.687379 L77.2768687,118.499249 C76.5403849,118.091296 76.0864256,117.342075 76.0836826,116.531399 L76.0000112,88.2937394 C75.9945365,86.5298663 77.9996378,85.4263015 79.600153,86.3128144 Z M62.9169219,88.2791062 L63.0000112,116.510503 C63.0027228,117.328123 62.5492036,118.084356 61.8110432,118.493166 L36.1688208,132.690496 C34.5849083,133.568196 32.6046772,132.474989 32.5992295,130.720894 L32.5161402,102.489497 C32.5134286,101.671877 32.9669478,100.915644 33.7051082,100.506834 L59.3473306,86.3095042 C60.9312431,85.4318036 62.9114742,86.5250111 62.9169219,88.2791062 Z M3.600153,86.3128144 L29.2070246,100.499637 C29.9435085,100.907589 30.3974678,101.658118 30.4002107,102.468794 L30.4838822,130.705146 C30.4893568,132.469019 28.4842555,133.573892 26.8837403,132.687379 L1.27686873,118.499249 C0.540384875,118.091296 0.0864255528,117.342075 0.0836825962,116.531399 L1.11865293e-05,88.2937394 C-0.0054634943,86.5298663 1.9996378,85.4263015 3.600153,86.3128144 Z M108.283145,66.3006556 L133.750077,80.077394 C135.333584,80.933683 135.329495,83.062354 133.744626,83.9135687 L108.08691,97.7029929 C107.348304,98.1000572 106.437992,98.0987887 105.700748,97.7004557 L80.2338166,83.9224487 C78.6503098,83.0674283 78.6543981,80.9387573 80.2392676,80.0875426 L105.896983,66.2968499 C106.63559,65.8997855 107.545901,65.9010541 108.283145,66.3006556 Z M32.2831452,66.3006556 L57.7500767,80.077394 C59.3335835,80.933683 59.3294953,83.062354 57.7446258,83.9135687 L32.0869103,97.7029929 C31.3483038,98.1000572 30.4379919,98.0987887 29.7007482,97.7004557 L4.2338166,83.9224487 C2.65030983,83.0674283 2.65439805,80.9387573 4.23926757,80.0875426 L29.8969831,66.2968499 C30.6355895,65.8997855 31.5459015,65.9010541 32.2831452,66.3006556 Z M100.916922,22.2791062 L101.000011,50.510503 C101.002723,51.3281229 100.549204,52.084356 99.8110432,52.493166 L74.1688208,66.6904958 C72.5849083,67.5681964 70.6046772,66.4749889 70.5992295,64.7208938 L70.5161402,36.489497 C70.5134286,35.6718771 70.9669478,34.915644 71.7051082,34.506834 L97.3473306,20.3095042 C98.9312431,19.4318036 100.911474,20.5250111 100.916922,22.2791062 Z M41.600153,20.3128144 L67.2070246,34.4996366 C67.9435085,34.9075895 68.3974678,35.6581181 68.4002107,36.4687937 L68.4838822,64.7051462 C68.4893568,66.4690193 66.4842555,67.5738916 64.8837403,66.6873786 L39.2768687,52.4992489 C38.5403849,52.0912961 38.0864256,51.342075 38.0836826,50.5313994 L38.0000112,22.2937394 C37.9945365,20.5298663 39.9996378,19.4263015 41.600153,20.3128144 Z M70.2831452,0.300655609 L95.7500767,14.077394 C97.3335835,14.933683 97.3294953,17.062354 95.7446258,17.9135687 L70.0869103,31.7029929 C69.3483038,32.1000572 68.4379919,32.0987887 67.7007482,31.7004557 L42.2338166,17.9224487 C40.6503098,17.0674283 40.6543981,14.9387573 42.2392676,14.0875426 L67.8969831,0.29684988 C68.6355895,-0.100214496 69.5459015,-0.0989459199 70.2831452,0.300655609 Z" id="形状结合"></path>
                    </g>
                </g>
            </g>
        </g>
    </g>
</svg>