<?xml version="1.0" encoding="UTF-8"?>
<svg width="101px" height="106px" viewBox="0 0 101 106" version="1.1" xmlns="http://www.w3.org/2000/svg" xmlns:xlink="http://www.w3.org/1999/xlink">
    <title>形状 2</title>
    <defs>
        <linearGradient x1="50%" y1="0%" x2="50%" y2="100%" id="linearGradient-1">
            <stop stop-color="#FD7B5E" stop-opacity="0.188848749" offset="0%"></stop>
            <stop stop-color="#FD5E3A" stop-opacity="0.041036966" offset="100%"></stop>
        </linearGradient>
    </defs>
    <g id="模型监控优化" stroke="none" stroke-width="1" fill="none" fill-rule="evenodd">
        <g id="模型监监控" transform="translate(-1718.000000, -109.000000)" fill="url(#linearGradient-1)">
            <g id="编组-7备份-2" transform="translate(1350.000000, 76.000000)">
                <g id="alarm-warning-fill" transform="translate(338.000000, 18.000000)">
                    <path d="M36.8333333,114.166667 L36.8333333,81.4166667 C36.8333333,57.3002326 56.3835659,37.75 80.5,37.75 C104.616434,37.75 124.166667,57.3002326 124.166667,81.4166667 L124.166667,114.166667 L129.625,114.166667 L129.625,125.083333 L31.375,125.083333 L31.375,114.166667 L36.8333333,114.166667 Z M47.75,81.4166667 L58.6666667,81.4166667 C58.6666667,69.3584496 68.441783,59.5833333 80.5,59.5833333 L80.5,48.6666667 C62.4126744,48.6666667 47.75,63.3293411 47.75,81.4166667 L47.75,81.4166667 Z M75.0416667,15.9166667 L85.9583333,15.9166667 L85.9583333,32.2916667 L75.0416667,32.2916667 L75.0416667,15.9166667 Z M122.954917,31.2436667 L130.673,38.96175 L119.101333,50.538875 L111.377792,42.8207917 L122.954917,31.2436667 Z M30.327,38.96175 L38.0450833,31.2436667 L49.6222083,42.8153333 L41.9095833,50.5443333 L30.327,38.96175 Z" id="形状"></path>
                </g>
            </g>
        </g>
    </g>
</svg>