<?xml version="1.0" encoding="UTF-8"?>
<svg width="16px" height="16px" viewBox="0 0 16 16" version="1.1" xmlns="http://www.w3.org/2000/svg" xmlns:xlink="http://www.w3.org/1999/xlink">
    <title>jiankong</title>
    <g id="超级管理员角色优化" stroke="none" stroke-width="1" fill="none" fill-rule="evenodd">
        <g id="模型首页" transform="translate(-14.000000, -202.000000)">
            <g id="二级面包篮" transform="translate(0.000000, 60.000000)">
                <g id="jiankong" transform="translate(14.000000, 142.000000)">
                    <polygon id="路径" points="0 0 16 0 16 16 0 16"></polygon>
                    <path d="M2.66666667,10.6666667 L13.3333333,10.6666667 L13.3333333,3.33333333 L2.66666667,3.33333333 L2.66666667,10.6666667 Z M8.66666667,12 L8.66666667,13.3333333 L11.3333333,13.3333333 L11.3333333,14.6666667 L4.66666667,14.6666667 L4.66666667,13.3333333 L7.33333333,13.3333333 L7.33333333,12 L1.99466667,12 C1.81785913,11.9989442 1.64874331,11.9275555 1.52466091,11.8015969 C1.40057851,11.6756382 1.3317357,11.5054701 1.33330613,11.3286667 L1.33330613,2.67133333 C1.33330613,2.30066667 1.63666667,2 1.99466667,2 L14.0053333,2 C14.3706667,2 14.6666667,2.29933333 14.6666667,2.67133333 L14.6666667,11.3286667 C14.6666667,11.6993333 14.3633333,12 14.0053333,12 L8.66666667,12 L8.66666667,12 Z" id="形状" fill="#000000" fill-rule="nonzero"></path>
                    <polyline id="路径-2" stroke="#000000" stroke-width="1.3" points="2.22717794 6.80378554 4.00748698 6.80378554 6.1817357 6.80378554 6.79653899 5.69715584 7.99997326 7.15343744 9.09885827 8.33333333 10.5072835 7 13.785977 7"></polyline>
                </g>
            </g>
        </g>
    </g>
</svg>