<?xml version="1.0" encoding="UTF-8"?>
<svg width="16px" height="16px" viewBox="0 0 16 16" version="1.1" xmlns="http://www.w3.org/2000/svg" xmlns:xlink="http://www.w3.org/1999/xlink">
    <g id="AI中台第二期" stroke="none" stroke-width="1" fill="none" fill-rule="evenodd">
        <g id="1数据管理-我的数据集-正常" transform="translate(-14.000000, -156.000000)">
            <g id="database-2-line" transform="translate(14.000000, 156.000000)">
                <polygon id="路径" points="0 0 16 0 16 16 0 16"></polygon>
                <path d="M3.38888889,7.59722222 C3.38888889,7.81458333 3.70902778,8.19305556 4.45138889,8.56458333 C5.4125,9.04513889 6.77569444,9.33333333 8.25,9.33333333 C9.72430556,9.33333333 11.0875,9.04513889 12.0486111,8.56458333 C12.7909722,8.19305556 13.1111111,7.81458333 13.1111111,7.59722222 L13.1111111,6.08958333 C11.9652778,6.79791667 10.2131944,7.25 8.25,7.25 C6.28680556,7.25 4.53472222,6.79722222 3.38888889,6.08958333 L3.38888889,7.59722222 Z M13.1111111,9.56180556 C11.9652778,10.2701389 10.2131944,10.7222222 8.25,10.7222222 C6.28680556,10.7222222 4.53472222,10.2694444 3.38888889,9.56180556 L3.38888889,11.0694444 C3.38888889,11.2868056 3.70902778,11.6652778 4.45138889,12.0368056 C5.4125,12.5173611 6.77569444,12.8055556 8.25,12.8055556 C9.72430556,12.8055556 11.0875,12.5173611 12.0486111,12.0368056 C12.7909722,11.6652778 13.1111111,11.2868056 13.1111111,11.0694444 L13.1111111,9.56180556 Z M2,11.0694444 L2,4.125 C2,2.39930556 4.79861111,1 8.25,1 C11.7013889,1 14.5,2.39930556 14.5,4.125 L14.5,11.0694444 C14.5,12.7951389 11.7013889,14.1944444 8.25,14.1944444 C4.79861111,14.1944444 2,12.7951389 2,11.0694444 Z M8.25,5.86111111 C9.72430556,5.86111111 11.0875,5.57291667 12.0486111,5.09236111 C12.7909722,4.72083333 13.1111111,4.34236111 13.1111111,4.125 C13.1111111,3.90763889 12.7909722,3.52916667 12.0486111,3.15763889 C11.0875,2.67708333 9.72430556,2.38888889 8.25,2.38888889 C6.77569444,2.38888889 5.4125,2.67708333 4.45138889,3.15763889 C3.70902778,3.52916667 3.38888889,3.90763889 3.38888889,4.125 C3.38888889,4.34236111 3.70902778,4.72083333 4.45138889,5.09236111 C5.4125,5.57291667 6.77569444,5.86111111 8.25,5.86111111 Z" id="形状" fill="#000000" fill-rule="nonzero"></path>
            </g>
        </g>
    </g>
</svg>