<?xml version="1.0" encoding="UTF-8"?>
<svg width="16px" height="16px" viewBox="0 0 16 16" version="1.1" xmlns="http://www.w3.org/2000/svg" xmlns:xlink="http://www.w3.org/1999/xlink">
    <title>编组 15</title>
    <g id="AI中台4期制品仓库" stroke="none" stroke-width="1" fill="none" fill-rule="evenodd">
        <g id="模型文件管理" transform="translate(-14.000000, -323.000000)">
            <g id="二级导航" transform="translate(0.000000, 59.000000)">
                <g id="编组-30" transform="translate(14.000000, 224.000000)">
                    <g id="编组-5备份" transform="translate(0.000000, 0.000000)">
                        <g id="编组-15" transform="translate(0.000000, 40.000000)">
                            <polygon id="路径" points="0 0 16 0 16 16 0 16"></polygon>
                            <path d="M1,2 L1,12 L1.664,12 L6.336,12 L6.336,13.333 L5.001,14.002 L5.003,14.667 L10.337,14.667 L10.337,14 L9.003,13.333 L9.003,12 L13.675,12 L14.34,12 L14.34,2 L1,2 Z M2.34,10.668 L13,10.668 L13,3.334 L2.34,3.334 L2.34,10.668 Z" id="Fill-1" fill="#000000"></path>
                            <polygon id="Fill-2" fill="#000000" points="9.6417 8.9652 7.4037 6.6942 5.8837 8.5212 4.1517 6.9252 4.8967 6.1172 5.7777 6.9282 7.3347 5.0562 9.4027 7.1562 10.5117 5.2042 11.4677 5.7482"></polygon>
                        </g>
                    </g>
                </g>
            </g>
        </g>
    </g>
</svg>