<svg width="28" height="28" viewBox="0 0 28 28" xmlns="http://www.w3.org/2000/svg">
<g id="Frame">
<path id="Mask" fill-rule="evenodd" clip-rule="evenodd" d="M23.2496 19.583C23.7996 19.583 24.1662 19.2163 24.1662 18.6664C24.1662 18.1164 23.7996 17.7497 23.2496 17.7497C22.2413 17.7497 21.4163 16.9247 21.4163 15.9164V11.3332C21.4163 7.29993 18.1164 4 14.0831 4C10.0499 4 6.74994 7.29993 6.74994 11.3332V15.9164C6.74994 16.9247 5.92496 17.7497 4.91665 17.7497C4.36666 17.7497 4 18.1164 4 18.6664C4 19.2163 4.36666 19.583 4.91665 19.583H23.2496ZM14.0834 24.168C15.0001 24.168 15.9167 23.7096 16.4667 22.793C16.7417 22.3347 16.7417 21.693 16.2834 21.5097C15.825 21.3264 15.2751 21.418 15.0001 21.8764C14.7251 22.3347 14.1751 22.518 13.7168 22.243C13.5889 22.1791 13.5057 22.0706 13.4359 21.9797C13.4056 21.9403 13.3779 21.9041 13.3501 21.8764C13.0751 21.418 12.5251 21.2347 12.0668 21.5097C11.6085 21.7847 11.4251 22.3347 11.7001 22.793C11.9751 23.2513 12.2501 23.5263 12.7084 23.8013C13.1668 24.0763 13.6251 24.168 14.0834 24.168Z" />
</g>
</svg>
