<svg width="14" height="14" viewBox="0 0 14 14" xmlns="http://www.w3.org/2000/svg">
<g id="Frame">
<g id="Group 5723">
<g id="Group 5724">
<path id="Vector 142 (Stroke)" fill-rule="evenodd" clip-rule="evenodd" d="M2 3C2 2.44772 2.44771 2 3 2H5.46154C6.01382 2 6.46154 2.44771 6.46154 3V5.27273C6.46154 5.82501 6.01382 6.27273 5.46154 6.27273H3C2.44772 6.27273 2 5.82501 2 5.27273V3ZM5.46154 3H3V5.27273H5.46154V3Z" />
<path id="Vector 146 (Stroke)" fill-rule="evenodd" clip-rule="evenodd" d="M2 8.72729C2 8.17501 2.44771 7.72729 3 7.72729H5.46154C6.01382 7.72729 6.46154 8.17501 6.46154 8.72729V11C6.46154 11.5523 6.01382 12 5.46154 12H3C2.44772 12 2 11.5523 2 11V8.72729ZM5.46154 8.72729H3V11H5.46154V8.72729Z" />
<path id="Vector 145 (Stroke)" fill-rule="evenodd" clip-rule="evenodd" d="M7.53906 3C7.53906 2.44772 7.98678 2 8.53906 2H11.0006C11.5529 2 12.0006 2.44771 12.0006 3V5.27273C12.0006 5.82501 11.5529 6.27273 11.0006 6.27273H8.53906C7.98678 6.27273 7.53906 5.82501 7.53906 5.27273V3ZM11.0006 3H8.53906V5.27273H11.0006V3Z" />
<path id="Vector 147 (Stroke)" fill-rule="evenodd" clip-rule="evenodd" d="M7.53906 8.72729C7.53906 8.17501 7.98678 7.72729 8.53906 7.72729H11.0006C11.5529 7.72729 12.0006 8.17501 12.0006 8.72729V11C12.0006 11.5523 11.5529 12 11.0006 12H8.53906C7.98678 12 7.53906 11.5523 7.53906 11V8.72729ZM11.0006 8.72729H8.53906V11H11.0006V8.72729Z" />
</g>
</g>
</g>
</svg>
