<svg width="36" height="25" viewBox="0 0 36 25" fill="none" xmlns="http://www.w3.org/2000/svg">
<g id="Group 427337323">
<path id="Rectangle 34626644" d="M0 0H20C28.8366 0 36 7.16344 36 16V25H16C7.16344 25 0 17.8366 0 9V0Z" fill="#02ADEC"/>
<path id="Path" fill-rule="evenodd" clip-rule="evenodd" d="M23.018 8H22.2379C22.1285 8 22.0247 8.05022 21.9578 8.13616L17.3562 13.9654L15.1497 11.1696C15.0817 11.0837 14.979 11.0335 14.8696 11.0335H14.0895C14.0147 11.0335 13.9734 11.1194 14.0192 11.1775L17.0761 15.0502C17.2189 15.231 17.4935 15.231 17.6375 15.0502L23.0884 8.14286C23.1341 8.08594 23.0928 8 23.018 8Z" fill="white" stroke="white" stroke-width="0.833333"/>
</g>
</svg>
