<svg width="16" height="16" viewBox="0 0 16 16" xmlns="http://www.w3.org/2000/svg">
<g id="Frame">
<path id="Vector" d="M12.9991 15H2.99884C1.89491 15 1 14.1257 1 13.0453V8.16256H2.00043V1.97734C2.00043 1.43812 2.44891 1 3.00087 1H12.9991C13.5511 1 13.9996 1.43812 13.9996 1.97734V8.16256H15V13.0473C14.998 14.1257 14.1031 15 12.9991 15ZM12.9991 1.97734H2.99884V8.16256H5.99812V10.1172H9.99783V8.16256H12.9971V1.97734H12.9991ZM13.9975 9.1399H10.9983V10.1172C10.9983 10.6565 10.5498 11.0946 9.99783 11.0946H5.99812C5.44615 11.0946 4.99768 10.6565 4.99768 10.1172V9.1399H1.99841V13.0473C1.99841 13.5865 2.44688 14.0246 2.99884 14.0246H12.9971C13.5491 14.0246 13.9975 13.5865 13.9975 13.0473V9.1399Z"/>
<path id="Vector_2" d="M10.5006 4.19781H4.49942C4.22332 4.19781 4 3.93001 4 3.5989C4 3.2678 4.22332 3 4.49942 3H10.5006C10.7767 3 11 3.2678 11 3.5989C11.002 3.93001 10.7787 4.19781 10.5006 4.19781ZM7.00057 7H4.49942C4.22332 7 4 6.7322 4 6.4011C4 6.06999 4.22332 5.80219 4.49942 5.80219H7.00057C7.27668 5.80219 7.49999 6.06999 7.49999 6.4011C7.49999 6.7322 7.27668 7 7.00057 7Z"/>
</g>
</svg>
