<svg width="19" height="19" viewBox="0 0 19 19" xmlns="http://www.w3.org/2000/svg">
<g id="Group 52">
<g id="edit">
<path id="Shape" fill-rule="evenodd" clip-rule="evenodd" d="M9.75407 12.7176L5.61442 14.4681C5.38063 14.5665 5.14509 14.498 4.99567 14.347C4.84626 14.196 4.7777 13.9625 4.87614 13.7307L6.63044 9.59741C6.65856 9.53068 6.69899 9.46923 6.74997 9.41831L13.732 2.44407C14.2259 1.95068 15.031 1.94717 15.525 2.44056L16.9189 3.83295C17.4129 4.32634 17.4093 5.13052 16.9154 5.62392L9.93337 12.5982C9.88063 12.6491 9.82087 12.6895 9.75407 12.7176ZM2.16895 16.54H16.6533C17.0031 16.54 17.2861 16.8227 17.2861 17.1721C17.2861 17.5216 17.0031 17.8042 16.6533 17.8042H2.16895C1.81914 17.8042 1.53613 17.5216 1.53613 17.1721C1.53613 16.8227 1.81914 16.54 2.16895 16.54ZM14.627 3.3375L14.6305 3.33398L16.0227 4.72462L16.0192 4.72813L14.9293 5.81676L13.5371 4.42612L14.627 3.3375ZM12.6419 5.32002L7.74109 10.2153L6.71805 12.6279L9.13328 11.606L14.0341 6.71066L12.6419 5.32002Z"/>
</g>
</g>
</svg>
