<svg width="14" height="14" viewBox="0 0 14 14" fill="none" xmlns="http://www.w3.org/2000/svg">
<g id="Frame">
<path id="Vector" d="M0.906738 4.8171V11.163C0.906738 12.2441 1.78611 13.1234 2.86701 13.1234H9.21309C10.294 13.1234 11.1734 12.2441 11.1734 11.163V7.37894H10.353V11.163C10.3527 11.4653 10.2325 11.7551 10.0188 11.9688C9.8051 12.1825 9.51534 12.3028 9.21309 12.3031H2.86701C2.56476 12.3028 2.275 12.1825 2.06129 11.9688C1.84758 11.7551 1.72738 11.4653 1.72705 11.163V4.8171C1.72738 4.51485 1.84758 4.22507 2.06129 4.01134C2.275 3.7976 2.56476 3.67736 2.86701 3.677H6.03998V2.85669H2.86701C1.78611 2.85669 0.906738 3.7362 0.906738 4.8171Z" fill="#02ADEC"/>
<path id="Vector_2" d="M12.3229 1.73782L12.2989 1.71375C11.9749 1.39051 11.5359 1.20898 11.0782 1.20898C10.6205 1.20898 10.1815 1.39051 9.8575 1.71375L6.05672 5.51344C6.05111 5.51891 6.04578 5.52465 6.04058 5.53053C6.01148 5.56301 5.98776 5.59994 5.97031 5.63991L4.7516 8.45112C4.72455 8.51353 4.71345 8.58169 4.71929 8.64945C4.72513 8.71722 4.74774 8.78247 4.78507 8.83933C4.8224 8.89619 4.87329 8.94288 4.93315 8.97518C4.99301 9.00748 5.05997 9.02439 5.12799 9.02438C5.15136 9.02441 5.17469 9.02239 5.19771 9.01836L7.91472 8.54996C7.99815 8.53546 8.07504 8.49548 8.13484 8.43553L9.19181 7.37856L12.3276 4.24319C12.3655 4.20527 12.4014 4.16594 12.4353 4.1252C12.7 3.80734 12.8449 3.40679 12.8449 2.99317C12.8449 2.57954 12.7 2.179 12.4353 1.86114C12.4001 1.81866 12.3626 1.77756 12.3229 1.73782ZM11.7476 3.66309L8.03189 7.37883L7.64703 7.7637L5.80597 8.08116L6.11031 7.37883L6.69123 6.0383L10.4373 2.29358C10.6074 2.12396 10.8378 2.02871 11.078 2.02871C11.3182 2.02871 11.5486 2.12396 11.7187 2.29358L11.7427 2.31764C11.8319 2.40602 11.9027 2.51117 11.9511 2.62704C11.9994 2.74291 12.0244 2.8672 12.0245 2.99276C12.0251 3.11726 12.0009 3.24063 11.9533 3.35571C11.9058 3.47079 11.8359 3.57527 11.7476 3.66309Z" fill="#02ADEC"/>
</g>
</svg>
