<svg width="374" height="275" viewBox="0 0 374 275" fill="none" xmlns="http://www.w3.org/2000/svg">
<path d="M75.3281 77.6031L109.107 111.382C113.793 116.068 113.793 123.666 109.107 128.352L79.673 157.786L45.8944 124.007C41.2081 119.321 41.2081 111.723 45.8944 107.037L75.3281 77.6031Z" fill="url(#paint0_linear_7785_5571)"/>
<path d="M320.336 71.2818L343.195 94.1404C347.881 98.8267 347.881 106.425 343.195 111.111L323.559 130.747L300.7 107.889C296.014 103.202 296.014 95.6045 300.7 90.9182L320.336 71.2818Z" fill="url(#paint1_linear_7785_5571)"/>
<path d="M317.772 95.7899L272.314 141.249C264.503 149.059 251.84 149.059 244.029 141.249L204.698 101.917L250.156 56.4583C257.967 48.6478 270.63 48.6478 278.441 56.4583L317.772 95.7899Z" fill="url(#paint2_linear_7785_5571)"/>
<ellipse cx="187" cy="196.943" rx="187" ry="77.9522" fill="url(#paint3_diamond_7785_5571)"/>
<path d="M189.343 53.8712L243.79 63.3201C245.306 64.1207 246.254 65.6974 246.25 67.414L246.541 124.456C246.547 127.393 244.897 130.081 242.278 131.402L188.897 158.565C187.193 159.433 185.177 159.433 183.472 158.565L130.091 131.402C127.472 130.081 125.823 127.393 125.828 124.456L125.596 67.414C125.593 65.6974 126.54 64.1207 128.057 63.3201L182.426 53.8712C184.589 52.7226 187.18 52.7226 189.343 53.8712Z" fill="#DFDFDF"/>
<path d="M243.79 63.3141C245.306 64.1148 246.254 65.6918 246.25 67.4086L246.541 124.461C246.547 127.398 244.897 130.086 242.278 131.408L188.897 158.576C188.056 159 187.127 159.219 186.185 159.216L185.894 53.0098C187.096 53.0098 188.28 53.3021 189.343 53.8636L243.79 63.3141ZM186.165 159.177C185.223 159.18 184.294 158.961 183.453 158.537L130.072 131.369C127.453 130.047 125.803 127.359 125.809 124.422L125.596 67.4086C125.596 66.6653 125.776 65.933 126.119 65.274L185.894 83.651L186.165 159.177Z" fill="#F0F0F0"/>
<path fill-rule="evenodd" clip-rule="evenodd" d="M228.026 31.0063C228.567 31.9809 228.215 33.2092 227.24 33.7498C225.395 34.7733 223.611 35.8569 221.898 36.9938C220.969 37.61 219.717 37.3567 219.101 36.428C218.484 35.4993 218.738 34.247 219.666 33.6308C221.471 32.4336 223.346 31.2947 225.283 30.2205C226.257 29.6799 227.486 30.0317 228.026 31.0063ZM212.227 41.897C213.002 42.6983 212.98 43.9759 212.179 44.7505C209.067 47.7585 206.434 50.9539 204.379 54.2555C203.79 55.2017 202.546 55.4913 201.6 54.9023C200.653 54.3134 200.364 53.0689 200.953 52.1227C203.205 48.5042 206.057 45.0551 209.374 41.8488C210.175 41.0741 211.452 41.0957 212.227 41.897ZM198.239 63.0152C199.333 63.2297 200.046 64.2903 199.831 65.3839C199.445 67.3509 199.282 69.3243 199.358 71.2928C199.401 72.4065 198.533 73.3442 197.419 73.3872C196.306 73.4301 195.368 72.5622 195.325 71.4485C195.236 69.1515 195.427 66.8649 195.87 64.6068C196.085 63.5132 197.146 62.8006 198.239 63.0152Z" fill="url(#paint4_linear_7785_5571)"/>
<path d="M186.125 83.8975L246.159 65.5806C246.503 66.2374 246.683 66.9673 246.683 67.7082L246.975 124.574C246.981 127.501 245.326 130.181 242.698 131.498L189.138 158.577C188.294 159 187.361 159.219 186.416 159.215L186.125 83.8975ZM177.649 138.635L161.435 130.899C159.358 129.915 158.056 127.809 158.11 125.522C158.124 124.636 158.598 123.821 159.363 123.368C160.127 122.915 161.073 122.888 161.862 123.297L177.649 131.305V138.635ZM177.649 149.873L168.745 145.753C166.659 144.784 165.341 142.685 165.381 140.396C165.402 139.514 165.878 138.705 166.642 138.256C167.405 137.807 168.347 137.783 169.133 138.191L177.649 142.601V149.873Z" fill="#DFDFDF"/>
<path d="M245.616 65.1475L266.209 87.3122C266.768 87.9119 267.015 88.7377 266.879 89.5459C266.742 90.3542 266.237 91.0528 265.512 91.4354L210.102 120.666C208.677 121.42 206.92 121.091 205.864 119.872L185.852 83.4793L245.616 65.1475Z" fill="url(#paint5_linear_7785_5571)"/>
<path d="M126.058 64.7139L105.533 87.1219C104.95 87.7249 104.687 88.5704 104.824 89.3995C104.962 90.2287 105.484 90.9428 106.23 91.3234L161.106 121.084C162.532 121.857 164.301 121.534 165.366 120.306L185.852 83.1343L126.058 64.7139Z" fill="url(#paint6_linear_7785_5571)"/>
<path fill-rule="evenodd" clip-rule="evenodd" d="M235.864 16.9831L231.801 40.0227L279.002 9.69435L235.864 16.9831Z" fill="#E9E9E9"/>
<path fill-rule="evenodd" clip-rule="evenodd" d="M279.002 9.69522L256.585 42.7342L240.93 27.4921L279.002 9.69522Z" fill="url(#paint7_linear_7785_5571)"/>
<path fill-rule="evenodd" clip-rule="evenodd" d="M279.002 9.6943L235.651 21.9622L222.644 7.8195L279.002 9.6943Z" fill="url(#paint8_linear_7785_5571)"/>
<defs>
<linearGradient id="paint0_linear_7785_5571" x1="77.6282" y1="77.603" x2="77.6282" y2="124.805" gradientUnits="userSpaceOnUse">
<stop stop-color="#F3F3F3"/>
<stop offset="1" stop-color="#F3F3F3" stop-opacity="0"/>
</linearGradient>
<linearGradient id="paint1_linear_7785_5571" x1="322.042" y1="71.2817" x2="322.042" y2="106.288" gradientUnits="userSpaceOnUse">
<stop stop-color="#F3F3F3"/>
<stop offset="1" stop-color="#F3F3F3" stop-opacity="0"/>
</linearGradient>
<linearGradient id="paint2_linear_7785_5571" x1="261.415" y1="50.9812" x2="261.415" y2="107.699" gradientUnits="userSpaceOnUse">
<stop stop-color="#EAEAEA"/>
<stop offset="1" stop-color="#EAEAEA" stop-opacity="0"/>
</linearGradient>
<radialGradient id="paint3_diamond_7785_5571" cx="0" cy="0" r="1" gradientUnits="userSpaceOnUse" gradientTransform="translate(186.574 140.715) rotate(90) scale(111.604 267.727)">
<stop stop-color="#F1F1F1"/>
<stop offset="1" stop-color="#F1F1F1" stop-opacity="0"/>
</radialGradient>
<linearGradient id="paint4_linear_7785_5571" x1="214.121" y1="38.0549" x2="197.421" y2="67.6733" gradientUnits="userSpaceOnUse">
<stop stop-color="#F3F3F3"/>
<stop offset="1" stop-color="#E0E0E0"/>
</linearGradient>
<linearGradient id="paint5_linear_7785_5571" x1="245.629" y1="65.0289" x2="207.679" y2="124.625" gradientUnits="userSpaceOnUse">
<stop stop-color="#FBFBFB"/>
<stop offset="1" stop-color="#F1F1F1"/>
</linearGradient>
<linearGradient id="paint6_linear_7785_5571" x1="106.927" y1="93.3571" x2="186.032" y2="81.5982" gradientUnits="userSpaceOnUse">
<stop stop-color="#F2F2F2"/>
<stop offset="1" stop-color="#F9F9F9"/>
</linearGradient>
<linearGradient id="paint7_linear_7785_5571" x1="254.848" y1="23.9321" x2="258.409" y2="39.7707" gradientUnits="userSpaceOnUse">
<stop stop-color="#F7F7F7"/>
<stop offset="1" stop-color="#EEEEEE"/>
</linearGradient>
<linearGradient id="paint8_linear_7785_5571" x1="222.413" y1="9.13189" x2="238.863" y2="20.3876" gradientUnits="userSpaceOnUse">
<stop stop-color="#F4F4F4"/>
<stop offset="1" stop-color="#F3F3F3"/>
</linearGradient>
</defs>
</svg>
