<svg width="12" height="12" viewBox="0 0 12 12" xmlns="http://www.w3.org/2000/svg">
<g id="Frame">
<g id="Group 427338395">
<path id="Vector" d="M9.46876 4.98803L8.54004 4.05931L10.6652 1.93418C10.8371 1.76221 10.8371 1.48337 10.6652 1.31139C10.4932 1.13942 10.2144 1.13942 10.0424 1.31139L7.91725 3.43652L6.98853 2.5078L6.98853 4.98803L9.46876 4.98803Z" />
<path id="Vector_2" d="M9.46876 6.98803L8.54004 7.91675L10.6652 10.0419C10.8371 10.2139 10.8371 10.4927 10.6652 10.6647C10.4932 10.8367 10.2144 10.8367 10.0424 10.6647L7.91725 8.53954L6.98853 9.46826L6.98853 6.98803L9.46876 6.98803Z" />
<path id="Vector_3" d="M2.5078 4.98803L3.43652 4.05931L1.31139 1.93418C1.13942 1.76221 1.13942 1.48337 1.31139 1.31139C1.48337 1.13942 1.7622 1.13942 1.93418 1.31139L4.05931 3.43652L4.98803 2.5078L4.98803 4.98803L2.5078 4.98803Z" />
<path id="Vector_4" d="M2.5078 6.98803L3.43652 7.91675L1.31139 10.0419C1.13942 10.2139 1.13942 10.4927 1.31139 10.6647C1.48337 10.8367 1.7622 10.8367 1.93418 10.6647L4.05931 8.53954L4.98803 9.46826L4.98803 6.98803L2.5078 6.98803Z" />
</g>
</g>
</svg>
