<svg width="16" height="16" viewBox="0 0 16 16" xmlns="http://www.w3.org/2000/svg">
<g id="Frame">
<path id="Vector" d="M14 6.71566C14 6.60209 13.9549 6.49317 13.8746 6.41286C13.7943 6.33255 13.6854 6.28743 13.5718 6.28743C13.4583 6.28743 13.3494 6.33255 13.2691 6.41286C13.1888 6.49317 13.1437 6.60209 13.1437 6.71566V11.9816C13.1441 12.1344 13.1143 12.2857 13.0558 12.4268C12.9973 12.5679 12.9114 12.696 12.8031 12.8036C12.5833 13.0234 12.2911 13.1435 11.9803 13.1435H4.02114C3.7103 13.1435 3.41751 13.0234 3.19773 12.8036C2.97794 12.5838 2.85631 12.2925 2.85631 11.9817V4.02147C2.85649 3.71285 2.97921 3.41693 3.19748 3.19878C3.41575 2.98063 3.7117 2.85811 4.02027 2.85814L9.28486 2.87581H9.28626C9.34258 2.8759 9.39836 2.86489 9.45042 2.84342C9.50248 2.82194 9.54981 2.79043 9.58969 2.75066C9.62957 2.7109 9.66124 2.66367 9.68287 2.61166C9.7045 2.55966 9.71568 2.5039 9.71577 2.44758C9.71586 2.39126 9.70486 2.33547 9.68339 2.28339C9.66192 2.23132 9.63041 2.18399 9.59065 2.1441C9.55089 2.10421 9.50367 2.07254 9.45167 2.05091C9.39968 2.02927 9.34393 2.01809 9.28762 2.018L4.02254 2H4.02114C3.48515 2.00015 2.97115 2.21318 2.59215 2.59224C2.21314 2.97131 2.00015 3.48539 2 4.02147V11.9817C1.99988 12.247 2.0521 12.5098 2.15366 12.7549C2.25523 13.0001 2.40415 13.2227 2.5919 13.4102C2.77964 13.5977 3.00253 13.7463 3.24778 13.8475C3.49303 13.9487 3.75584 14.0005 4.02114 14H11.9801C12.2453 14.0004 12.508 13.9486 12.7532 13.8473C12.9983 13.746 13.2211 13.5974 13.4087 13.4099C13.5964 13.2224 13.7452 12.9997 13.8466 12.7546C13.9481 12.5095 14.0002 12.2468 14 11.9815V6.71566Z"/>
<path id="Vector_2" d="M10.9557 2.8691H12.5143L4.12726 11.2581C4.04578 11.3396 4 11.4502 4 11.5654C4 11.6807 4.04578 11.7912 4.12726 11.8727C4.20874 11.9542 4.31925 12 4.43448 12C4.54971 12 4.66022 11.9542 4.7417 11.8727L13.1305 3.48182L13.1313 5.0426C13.1313 5.09963 13.1426 5.15609 13.1644 5.20876C13.1863 5.26143 13.2183 5.30928 13.2586 5.34958C13.299 5.38987 13.3469 5.42183 13.3996 5.44361C13.4522 5.46539 13.5087 5.47658 13.5657 5.47654C13.6228 5.47657 13.6793 5.46535 13.732 5.44354C13.7847 5.42172 13.8325 5.38972 13.8729 5.34938C13.9132 5.30904 13.9452 5.26114 13.967 5.20843C13.9888 5.15571 14 5.09921 14 5.04216L13.9987 2.43433C13.9986 2.31911 13.9528 2.20864 13.8713 2.1272C13.7899 2.04575 13.6794 2 13.5642 2H10.9557C10.8412 2.00122 10.7319 2.04753 10.6514 2.1289C10.571 2.21026 10.5258 2.32009 10.5258 2.43455C10.5258 2.549 10.571 2.65884 10.6514 2.7402C10.7319 2.82156 10.8412 2.86788 10.9557 2.8691Z"/>
</g>
</svg>
