<svg width="32" height="32" viewBox="0 0 32 32" fill="none" xmlns="http://www.w3.org/2000/svg">
<g id="Frame" clip-path="url(#clip0_7791_5993)">
<path id="Vector" d="M4 2C4 0.896 4.896 0 6 0H14H18H22L32 9.984V29.984C32 31.088 31.104 31.984 30 31.984H6C4.896 31.984 4 31.088 4 29.984V28.992H22C23.104 28.992 24 28.096 24 26.992V14C24 12.896 23.104 12 22 12H4V2Z" fill="#EAEAEA"/>
<path id="Vector_2" d="M22 0V8C22 9.104 22.896 10 24 10H32L22 0Z" fill="#434854"/>
<path id="Vector_3" opacity="0.1" d="M24 10L32 18V10H24Z" fill="black"/>
<path id="Vector_4" d="M22 26C22 26.56 21.552 26.992 21.008 26.992H0.992C0.432 26.992 0 26.544 0 26V15.008C0 14.448 0.448 14.016 0.992 14.016H20.992C21.552 14.016 21.984 14.464 21.984 15.008V26H22Z" fill="#FC9042"/>
<g id="PNG">
<path id="Vector_5" d="M14.2605 21.597V20.175C14.2605 18.528 15.0165 17.7 16.5375 17.7C17.2125 17.7 17.7525 17.88 18.1575 18.24C18.5535 18.6 18.7605 19.086 18.7605 19.716V19.779H17.5815V19.716C17.5815 19.437 17.4825 19.203 17.3025 19.014C17.1225 18.834 16.8615 18.735 16.5285 18.735C16.1505 18.735 15.8715 18.852 15.7005 19.086C15.5295 19.32 15.4485 19.707 15.4485 20.238V21.579C15.4485 22.092 15.5385 22.461 15.7185 22.686C15.8985 22.911 16.1865 23.019 16.5735 23.019C16.9335 23.019 17.1945 22.929 17.3565 22.74C17.5185 22.56 17.6085 22.272 17.6085 21.894V21.597H16.5105V20.625H18.7605V21.687C18.7605 23.28 18.0135 24.072 16.5195 24.072C15.0075 24.072 14.2605 23.253 14.2605 21.597Z" fill="white"/>
<path id="Vector_6" d="M13.2815 17.7899V23.9999H12.1025L9.81645 20.1209V23.9999H8.63745V17.7899H9.81645L12.1025 21.6779V17.7899H13.2815Z" fill="white"/>
<path id="Vector_7" d="M7.33801 18.3119C7.69801 18.6629 7.88701 19.1399 7.88701 19.7429C7.88701 20.3189 7.69801 20.7869 7.33801 21.1289C6.97801 21.4709 6.48301 21.6419 5.85301 21.6419H4.71001V23.9999H3.53101V17.7899H5.85301C6.48301 17.7899 6.97801 17.9699 7.33801 18.3119ZM6.46501 20.3819C6.62701 20.2379 6.70801 20.0219 6.70801 19.7429C6.70801 19.4459 6.62701 19.2209 6.46501 19.0589C6.30301 18.8969 6.08701 18.8159 5.79901 18.8159H4.71001V20.6069H5.79901C6.07801 20.6069 6.30301 20.5349 6.46501 20.3819Z" fill="white"/>
</g>
</g>
<defs>
<clipPath id="clip0_7791_5993">
<rect width="32" height="32" fill="white"/>
</clipPath>
</defs>
</svg>
