<svg width="32" height="32" viewBox="0 0 32 32" fill="none" xmlns="http://www.w3.org/2000/svg">
<g id="Frame" clip-path="url(#clip0_6088_2952)">
<path id="Vector" d="M22 0H6C4.896 0 4 0.896 4 2V12H22C23.104 12 24 12.896 24 14V26.992C24 28.096 23.104 28.992 22 28.992H4V29.984C4 31.088 4.896 31.984 6 31.984H30C31.104 31.984 32 31.088 32 29.984V9.984L22 0Z" fill="#EAEAEA"/>
<path id="Vector_2" d="M22 0V8C22 9.104 22.896 10 24 10H32L22 0Z" fill="#A6A6A6"/>
<path id="Vector_3" opacity="0.1" d="M24 10L32 18V10H24Z" fill="black"/>
<path id="Vector_4" d="M22 26C22 26.56 21.552 26.992 21.008 26.992H0.992C0.432 26.992 0 26.544 0 26V15.008C0 14.448 0.448 14.016 0.992 14.016H20.992C21.552 14.016 21.984 14.464 21.984 15.008V26H22Z" fill="#4297FC"/>
<g id="Word">
<path id="Vector_5" d="M16.7378 22.8625C16.4585 22.5483 16.3188 22.077 16.3188 21.4487V20.5498C16.3188 19.9214 16.4498 19.4589 16.729 19.1447C17.0083 18.8392 17.3661 18.6821 17.8112 18.6821C18.265 18.6821 18.6141 18.8567 18.8672 19.197V17.2509H19.9407V23.2727H18.8847V22.8538C18.6316 23.1679 18.2738 23.325 17.8199 23.325C17.3836 23.325 17.017 23.1767 16.7378 22.8625ZM18.6665 22.1207C18.7974 21.9636 18.8672 21.7279 18.8672 21.4138V20.5934C18.8672 20.2879 18.7974 20.0523 18.6665 19.8865C18.5356 19.7294 18.3523 19.6421 18.1254 19.6421C17.6367 19.6421 17.401 19.965 17.401 20.5934V21.4138C17.401 22.0509 17.6279 22.365 18.0992 22.365C18.3436 22.365 18.5268 22.2865 18.6665 22.1207Z" fill="white"/>
<path id="Vector_6" d="M13.4402 18.7345H14.4962V19.2058C14.6009 19.0138 14.7493 18.8742 14.9413 18.7782C15.1245 18.6909 15.334 18.6385 15.5696 18.6385C15.7005 18.6385 15.8227 18.656 15.9362 18.6735V19.6858C15.7267 19.6247 15.5522 19.5898 15.3951 19.5898C15.1333 19.5898 14.9151 19.6771 14.758 19.8429C14.6009 20.0087 14.5224 20.2444 14.5224 20.5498V23.2727H13.4402V18.7345Z" fill="white"/>
<path id="Vector_7" d="M9.40132 22.8625C9.06969 22.557 8.9126 22.077 8.9126 21.4225V20.5759C8.9126 19.9301 9.06969 19.4589 9.40132 19.1447C9.73296 18.8392 10.1781 18.6821 10.7541 18.6821C11.3126 18.6821 11.7577 18.8392 12.0893 19.1447C12.4122 19.4589 12.5781 19.9301 12.5781 20.5759V21.4225C12.5781 22.077 12.4122 22.557 12.0893 22.8625C11.7577 23.1767 11.3126 23.325 10.7541 23.325C10.1781 23.325 9.73296 23.1767 9.40132 22.8625ZM11.5046 21.4138V20.5934C11.5046 19.965 11.2515 19.6421 10.7541 19.6421C10.2391 19.6421 9.98605 19.965 9.98605 20.5934V21.4138C9.98605 22.0509 10.2391 22.365 10.7541 22.365C11.2515 22.365 11.5046 22.0509 11.5046 21.4138Z" fill="white"/>
<path id="Vector_8" d="M8.6895 17.2509L7.2495 23.2727H6.20223L5.10259 18.813L4.01168 23.2727H2.97314L1.4895 17.2509H2.63277L3.54041 21.501L4.42187 17.2509H5.84441L6.7695 21.501L7.62477 17.2509H8.6895Z" fill="white"/>
</g>
</g>
<defs>
<clipPath id="clip0_6088_2952">
<rect width="32" height="32" fill="white"/>
</clipPath>
</defs>
</svg>
