<svg width="32" height="32" viewBox="0 0 32 32" fill="none" xmlns="http://www.w3.org/2000/svg">
<g id="Frame" clip-path="url(#clip0_6088_2934)">
<path id="Vector" d="M22 0H6C4.896 0 4 0.896 4 2V12H22C23.104 12 24 12.896 24 14V26.992C24 28.096 23.104 28.992 22 28.992H4V29.984C4 31.088 4.896 31.984 6 31.984H30C31.104 31.984 32 31.088 32 29.984V9.984L22 0Z" fill="#EAEAEA"/>
<path id="Vector_2" d="M22 0V8C22 9.104 22.896 10 24 10H32L22 0Z" fill="#A6A6A6"/>
<path id="Vector_3" opacity="0.1" d="M24 10L32 18V10H24Z" fill="black"/>
<path id="Vector_4" d="M22 26C22 26.56 21.552 26.992 21.008 26.992H0.992C0.432 26.992 0 26.544 0 26V15.008C0 14.448 0.448 14.016 0.992 14.016H20.992C21.552 14.016 21.984 14.464 21.984 15.008V26H22Z" fill="#3AAD73"/>
<g id="JPG">
<path id="Vector_5" d="M12.511 21.4757V19.9818C12.511 18.2517 13.3052 17.3818 14.903 17.3818C15.6121 17.3818 16.1793 17.5709 16.6048 17.9491C17.0208 18.3273 17.2383 18.8378 17.2383 19.4997V19.5658H15.9997V19.4997C15.9997 19.2066 15.8957 18.9607 15.7066 18.7622C15.5175 18.5731 15.2434 18.4691 14.8935 18.4691C14.4964 18.4691 14.2034 18.592 14.0237 18.8378C13.8441 19.0837 13.759 19.4902 13.759 20.048V21.4567C13.759 21.9957 13.8535 22.3833 14.0426 22.6197C14.2317 22.856 14.5343 22.9695 14.9408 22.9695C15.319 22.9695 15.5932 22.8749 15.7633 22.6764C15.9335 22.4873 16.0281 22.1847 16.0281 21.7877V21.4757H14.8746V20.4546H17.2383V21.5702C17.2383 23.2437 16.4535 24.0757 14.8841 24.0757C13.2957 24.0757 12.511 23.2153 12.511 21.4757Z" fill="white"/>
<path id="Vector_6" d="M11.3235 18.0248C11.7017 18.3935 11.9002 18.8946 11.9002 19.5281C11.9002 20.1332 11.7017 20.6248 11.3235 20.9841C10.9453 21.3433 10.4253 21.523 9.76349 21.523H8.56276V24.0001H7.32422V17.4764H9.76349C10.4253 17.4764 10.9453 17.6655 11.3235 18.0248ZM10.4064 20.1993C10.5766 20.0481 10.6617 19.8212 10.6617 19.5281C10.6617 19.2161 10.5766 18.9797 10.4064 18.8095C10.2362 18.6393 10.0093 18.5543 9.70676 18.5543H8.56276V20.4357H9.70676C9.99986 20.4357 10.2362 20.3601 10.4064 20.1993Z" fill="white"/>
<path id="Vector_7" d="M3.86328 22.9128H4.37383C4.56292 22.9128 4.70474 22.875 4.78037 22.7804C4.85601 22.6859 4.90328 22.5252 4.90328 22.2983V17.4764H6.15128V22.5063C6.15128 22.9884 6.01892 23.3572 5.75419 23.6124C5.48946 23.8772 5.13019 24.0001 4.65746 24.0001H3.86328V22.9128Z" fill="white"/>
</g>
</g>
<defs>
<clipPath id="clip0_6088_2934">
<rect width="32" height="32" fill="white"/>
</clipPath>
</defs>
</svg>
