<svg width="32" height="32" viewBox="0 0 32 32" fill="none" xmlns="http://www.w3.org/2000/svg">
<g id="Frame" clip-path="url(#clip0_7791_5971)">
<path id="Vector" d="M4 2C4 0.896 4.896 0 6 0H14H18H22L32 9.984V29.984C32 31.088 31.104 31.984 30 31.984H6C4.896 31.984 4 31.088 4 29.984V28.992H22C23.104 28.992 24 28.096 24 26.992V14C24 12.896 23.104 12 22 12H4V2Z" fill="#EAEAEA"/>
<path id="Vector_2" d="M22 0V8C22 9.104 22.896 10 24 10H32L22 0Z" fill="#434854"/>
<path id="Vector_3" opacity="0.1" d="M24 10L32 18V10H24Z" fill="black"/>
<path id="Vector_4" d="M22 26C22 26.56 21.552 26.992 21.008 26.992H0.992C0.432 26.992 0 26.544 0 26V15.008C0 14.448 0.448 14.016 0.992 14.016H20.992C21.552 14.016 21.984 14.464 21.984 15.008V26H22Z" fill="#26B39F"/>
<g id="Excel">
<path id="Vector_5" d="M18.7208 22.672C18.4968 22.456 18.3928 22.144 18.3928 21.736V17.48H19.3848V21.672C19.3848 21.848 19.4088 21.968 19.4728 22.04C19.5368 22.112 19.6328 22.144 19.7768 22.144H20.1128V23H19.6568C19.2568 23 18.9448 22.896 18.7208 22.672Z" fill="white"/>
<path id="Vector_6" d="M15.172 21.216V21.328C15.172 21.64 15.236 21.864 15.38 21.992C15.516 22.128 15.716 22.192 15.972 22.192C16.164 22.192 16.324 22.152 16.436 22.072C16.548 21.992 16.604 21.872 16.62 21.72L16.628 21.696H17.572V21.736C17.572 22.136 17.42 22.448 17.132 22.688C16.836 22.928 16.436 23.048 15.932 23.048C15.396 23.048 14.972 22.896 14.66 22.592C14.34 22.288 14.188 21.808 14.188 21.168V20.664C14.188 20.04 14.34 19.576 14.644 19.264C14.948 18.952 15.364 18.792 15.9 18.792C16.42 18.792 16.836 18.952 17.14 19.264C17.444 19.584 17.604 20.048 17.604 20.664V21.216H15.172ZM15.356 19.84C15.228 19.976 15.172 20.2 15.172 20.512V20.536H16.612V20.432C16.612 19.904 16.372 19.64 15.9 19.64C15.66 19.64 15.484 19.712 15.356 19.84Z" fill="white"/>
<path id="Vector_7" d="M10.5969 22.624C10.2929 22.344 10.1489 21.904 10.1489 21.304V20.528C10.1489 19.936 10.2929 19.504 10.5969 19.216C10.9009 18.936 11.3089 18.792 11.8369 18.792C12.3489 18.792 12.7489 18.928 13.0369 19.184C13.3249 19.448 13.4689 19.808 13.4689 20.272V20.352H12.5249V20.304C12.5249 20.112 12.4609 19.952 12.3409 19.84C12.2209 19.728 12.0609 19.672 11.8529 19.672C11.3729 19.672 11.1329 19.968 11.1329 20.544V21.296C11.1329 21.616 11.1889 21.84 11.3169 21.968C11.4449 22.104 11.6209 22.168 11.8529 22.168C12.0609 22.168 12.2209 22.12 12.3409 22.008C12.4609 21.904 12.5249 21.752 12.5249 21.56V21.512H13.4689V21.568C13.4689 22.032 13.3249 22.392 13.0369 22.656C12.7489 22.92 12.3489 23.048 11.8369 23.048C11.3089 23.048 10.9009 22.912 10.5969 22.624Z" fill="white"/>
<path id="Vector_8" d="M8.82583 23L8.05783 21.688L7.36983 23H6.32983L7.57783 20.856L6.40183 18.84H7.44183L8.12983 20.024L8.74583 18.84H9.78583L8.59383 20.824L9.85783 23H8.82583Z" fill="white"/>
<path id="Vector_9" d="M3.51992 18.392V19.76H5.61592V20.672H3.51992V22.088H5.97592V23H2.47192V17.48H5.97592V18.392H3.51992Z" fill="white"/>
</g>
</g>
<defs>
<clipPath id="clip0_7791_5971">
<rect width="32" height="32" fill="white"/>
</clipPath>
</defs>
</svg>
