<svg width="32" height="32" viewBox="0 0 32 32" fill="none" xmlns="http://www.w3.org/2000/svg">
<g id="Frame" clip-path="url(#clip0_6088_2990)">
<path id="Vector" d="M22 0H6C4.896 0 4 0.896 4 2V12H22C23.104 12 24 12.896 24 14V26.992C24 28.096 23.104 28.992 22 28.992H4V29.984C4 31.088 4.896 31.984 6 31.984H30C31.104 31.984 32 31.088 32 29.984V9.984L22 0Z" fill="#EAEAEA"/>
<path id="Vector_2" d="M22 0V8C22 9.104 22.896 10 24 10H32L22 0Z" fill="#A6A6A6"/>
<path id="Vector_3" opacity="0.1" d="M24 10L32 18V10H24Z" fill="black"/>
<path id="Vector_4" d="M22 26C22 26.56 21.552 26.992 21.008 26.992H0.992C0.432 26.992 0 26.544 0 26V15.008C0 14.448 0.448 14.016 0.992 14.016H20.992C21.552 14.016 21.984 14.464 21.984 15.008V26H22Z" fill="#CD4050"/>
<g id="PDF">
<path id="Vector_5" d="M15.6465 18.5541V20.2276H18.133V21.3054H15.6465V24H14.408V17.4763H18.549V18.5541H15.6465Z" fill="white"/>
<path id="Vector_6" d="M8.83105 17.4763H11.1285C11.8471 17.4763 12.4238 17.6843 12.8398 18.0814C13.2558 18.488 13.4732 19.1498 13.4732 20.0669V21.4C13.4732 22.3265 13.2558 22.9883 12.8303 23.3949C12.3954 23.8014 11.8187 24 11.0907 24H8.83105V17.4763ZM11.1191 22.9221C11.4878 22.9221 11.762 22.7992 11.9511 22.5534C12.1401 22.3076 12.2347 21.92 12.2347 21.3905V20.133C12.2347 19.5847 12.1401 19.1781 11.9605 18.9323C11.7714 18.6865 11.4972 18.5541 11.1191 18.5541H10.0696V22.9221H11.1191Z" fill="white"/>
<path id="Vector_7" d="M7.46607 18.0247C7.84425 18.3934 8.0428 18.8945 8.0428 19.528C8.0428 20.133 7.84425 20.6247 7.46607 20.984C7.08789 21.3432 6.56789 21.5229 5.90607 21.5229H4.70534V24H3.4668V17.4763H5.90607C6.56789 17.4763 7.08789 17.6654 7.46607 18.0247ZM6.54898 20.1992C6.71916 20.048 6.80425 19.821 6.80425 19.528C6.80425 19.216 6.71916 18.9796 6.54898 18.8094C6.3788 18.6392 6.15189 18.5541 5.84934 18.5541H4.70534V20.4356H5.84934C6.14243 20.4356 6.3788 20.36 6.54898 20.1992Z" fill="white"/>
</g>
</g>
<defs>
<clipPath id="clip0_6088_2990">
<rect width="32" height="32" fill="white"/>
</clipPath>
</defs>
</svg>
