<svg width="16" height="16" viewBox="0 0 16 16" xmlns="http://www.w3.org/2000/svg">
<g id="Frame">
<path id="Vector" d="M14.7394 7.91007C14.1702 5.00364 11.3274 2.89404 7.98025 2.89404C4.63294 2.89404 1.79034 5.00365 1.22104 7.91007C1.21278 7.95328 1.21278 7.99775 1.22104 8.04095C1.79034 10.9477 4.63295 13.0573 7.98025 13.0573C9.30454 13.0573 10.5885 12.7246 11.694 12.0956C11.8636 11.9988 11.9213 11.7858 11.8221 11.6194C11.723 11.4537 11.5061 11.3981 11.335 11.4943C10.3389 12.0616 9.17864 12.3617 7.98022 12.3617C4.99941 12.3617 2.46898 10.521 1.93381 7.97553C2.46897 5.43023 4.99976 3.58973 7.98022 3.58973C10.961 3.58973 13.4915 5.43023 14.0266 7.97553C13.8376 8.87217 13.3847 9.71668 12.7137 10.4224C12.5797 10.563 12.5882 10.7832 12.7321 10.914C12.8756 11.0446 13.1009 11.037 13.2353 10.8961C14.0141 10.0774 14.5339 9.09021 14.7394 8.04079C14.7479 7.99757 14.7479 7.9533 14.7394 7.91007Z"/>
<path id="Vector_2" d="M5.13867 8.05435C5.13867 9.62167 6.41669 10.8929 7.9932 10.8929C9.56933 10.8929 10.8473 9.62166 10.8473 8.05435C10.8474 6.48705 9.56935 5.21631 7.9932 5.21631C6.41669 5.21631 5.13867 6.48705 5.13867 8.05435ZM10.1341 8.05435C10.1341 9.22994 9.17569 10.1834 7.9932 10.1834C6.81072 10.1834 5.85192 9.22996 5.85192 8.05435C5.85192 6.87917 6.81071 5.92573 7.9932 5.92573C9.17568 5.92573 10.1341 6.87917 10.1341 8.05435Z"/>
</g>
</svg>
