<svg width="16" height="16" viewBox="0 0 16 16" fill="none" xmlns="http://www.w3.org/2000/svg">
<g id="Frame">
<path id="Vector" d="M9.18577 8.00329C9.18577 7.6867 9.29444 7.37873 9.49281 7.13097L12.5649 3.30015C12.6107 3.24299 12.6356 3.17201 12.6356 3.09885V2.54053C12.6356 2.45497 12.6016 2.37291 12.5409 2.31241C12.4803 2.25191 12.398 2.21792 12.3122 2.21792H3.68753C3.60175 2.21792 3.51949 2.25191 3.45883 2.31241C3.39818 2.37291 3.3641 2.45497 3.3641 2.54053V3.09971C3.3641 3.17197 3.38912 3.24337 3.43483 3.30015L6.5078 7.13097C6.70617 7.37873 6.81484 7.6867 6.81484 8.00415V12.3322C6.81484 12.4544 6.88384 12.5662 6.99337 12.6204L9.18663 13.7147V8.00329H9.18577ZM3.68753 1.14344H12.3122C13.0859 1.14344 13.7137 1.76972 13.7137 2.54139V3.10057C13.7137 3.41715 13.6051 3.72513 13.4067 3.97289L10.3346 7.8037C10.2888 7.86086 10.2639 7.93185 10.2639 8.00501V13.8893C10.2638 14.0542 10.2215 14.2164 10.141 14.3605C10.0604 14.5045 9.94429 14.6257 9.80362 14.7124C9.66295 14.7991 9.5024 14.8485 9.33721 14.8559C9.17202 14.8633 9.00767 14.8285 8.85975 14.7547L6.51039 13.583C6.27769 13.4669 6.082 13.2885 5.94521 13.0677C5.80842 12.847 5.73594 12.5926 5.73589 12.3331V8.00501C5.73589 7.93185 5.71095 7.86086 5.66517 7.8037L2.5922 3.97203C2.39344 3.72417 2.28516 3.41623 2.28516 3.09885V2.54053C2.28516 1.76886 2.91303 1.14258 3.68667 1.14258L3.68753 1.14344Z" fill="white"/>
</g>
</svg>
