<svg width="16" height="16" viewBox="0 0 16 16" xmlns="http://www.w3.org/2000/svg">
<g id="Frame">
<path id="Vector" d="M9.50607 2.16925C9.91737 2.16925 10.2468 2.50902 10.2468 2.93443C10.2468 3.35796 9.91737 3.69867 9.50607 3.69867H6.00866C5.90983 3.69732 5.81224 3.67645 5.7215 3.63727C5.63076 3.59808 5.54865 3.54135 5.47991 3.47033C5.41116 3.39931 5.35713 3.31541 5.32092 3.22344C5.28471 3.13147 5.26703 3.03325 5.2689 2.93443C5.2689 2.50902 5.59831 2.16925 6.00866 2.16925H9.50607ZM9.50607 1.32031H6.00866C5.14466 1.32031 4.44631 2.04219 4.44631 2.93443C4.44631 3.82572 5.14466 4.54761 6.00866 4.54761H9.50607C10.3701 4.54761 11.0703 3.82572 11.0703 2.93443C11.0703 2.04219 10.3296 1.32031 9.50607 1.32031ZM9.62937 7.39372C10.0416 7.39372 10.3701 7.73255 10.3701 8.15796C10.3701 8.58243 10.0407 8.92219 9.62937 8.92219H6.1329C6.03399 8.92097 5.93629 8.9002 5.84544 8.86107C5.75459 8.82194 5.67238 8.76522 5.60354 8.69419C5.53469 8.62316 5.48058 8.53921 5.4443 8.44718C5.40803 8.35516 5.39032 8.25686 5.39219 8.15796C5.39219 7.73349 5.7216 7.39372 6.1329 7.39372H9.62937ZM9.62937 6.54384H6.1329C5.2689 6.54384 4.56866 7.26572 4.56866 8.15796C4.56866 9.05019 5.2689 9.77208 6.1329 9.77208H9.62937C10.4943 9.77208 11.1936 9.05019 11.1936 8.15796C11.1936 7.26572 10.4943 6.54384 9.62937 6.54384ZM9.50702 12.5749C9.91737 12.5749 10.2468 12.9147 10.2468 13.3391C10.2468 13.7645 9.91737 14.1043 9.50607 14.1043H6.00866C5.90975 14.103 5.81208 14.0821 5.72128 14.0428C5.63047 14.0036 5.54833 13.9468 5.47957 13.8756C5.41081 13.8045 5.3568 13.7205 5.32065 13.6284C5.28449 13.5364 5.2669 13.438 5.2689 13.3391C5.2689 12.9156 5.59831 12.5749 6.00866 12.5749H9.50607H9.50702ZM9.50702 11.726H6.00772C5.14372 11.726 4.44537 12.4478 4.44537 13.3391C4.44537 14.2314 5.14372 14.9533 6.00772 14.9533H9.50513C10.3691 14.9533 11.0694 14.2314 11.0694 13.3391C11.0694 12.4478 10.3287 11.726 9.50513 11.726H9.50702ZM4.36255 8.0309L2.88207 7.18102C2.84066 7.13867 2.75878 7.18102 2.75878 7.26572V7.60549C2.14137 7.39372 1.11266 6.7989 1.11266 5.43984C1.11266 3.52925 3.12866 3.18855 3.21149 3.14619C3.32116 3.11967 3.41648 3.05207 3.47777 2.95732C3.53907 2.86258 3.56166 2.74793 3.5409 2.63702C3.5409 2.38196 3.33478 2.21161 3.12866 2.2549C2.14137 2.38102 0.291016 3.27419 0.291016 5.39749C0.291016 7.30808 1.77243 8.20031 2.75972 8.49772V9.00784C2.75972 9.09255 2.8416 9.09255 2.88302 9.09255L4.36443 8.20031C4.44631 8.15796 4.44631 8.07325 4.36443 8.0309H4.36255ZM11.2331 13.3824L12.7145 12.4902C12.756 12.4478 12.8378 12.4902 12.8378 12.5749V12.9147C13.4553 12.7029 14.484 12.1081 14.484 10.749C14.484 8.83843 12.468 8.49772 12.3851 8.45537C12.2753 8.42885 12.1798 8.3611 12.1185 8.26615C12.0572 8.1712 12.0347 8.05631 12.0557 7.94525C12.0971 7.69114 12.3033 7.52172 12.5094 7.56314C13.4967 7.73255 15.348 8.58243 15.348 10.749C15.348 12.6596 13.8665 13.5518 12.8793 13.8493V14.3584C12.8793 14.4431 12.7974 14.4431 12.756 14.4431L11.2331 13.5518C11.1927 13.5095 11.1927 13.4248 11.2331 13.3824Z"/>
</g>
</svg>
