<svg width="12" height="12" viewBox="0 0 12 12" xmlns="http://www.w3.org/2000/svg">
<g id="Frame" clip-path="url(#clip0_5373_3776)">
<path id="Vector" d="M2.29058 1.67872L4.41641 3.80455C4.588 3.97614 4.588 4.25435 4.41641 4.42594C4.24427 4.59808 3.96499 4.59745 3.79363 4.42454L1.67872 2.29058L0.75 3.2193V0.75H3.2193L2.29058 1.67872ZM4.42118 7.5679C4.25221 7.39894 3.97827 7.39894 3.80931 7.5679L1.67872 9.69849L0.75 8.76977V11.2391H3.2193L2.29058 10.3104L4.42118 8.17976C4.59014 8.0108 4.59014 7.73686 4.42118 7.5679ZM8.76977 0.75L9.69849 1.67872L7.57336 3.80385C7.40138 3.97583 7.40138 4.25466 7.57336 4.42664C7.74534 4.59862 8.02417 4.59862 8.19615 4.42664L10.3213 2.30151L11.25 3.23023V0.75H8.76977ZM8.18522 7.57336C8.01325 7.40138 7.73441 7.40138 7.56243 7.57336C7.39046 7.74534 7.39046 8.02417 7.56243 8.19615L9.68756 10.3213L8.75885 11.25H11.2391V8.76977L10.3104 9.69849L8.18522 7.57336Z"/>
</g>
<defs>
<clipPath id="clip0_5373_3776">
<rect width="12" height="12" fill="white"/>
</clipPath>
</defs>
</svg>
