<svg width="28" height="28" viewBox="0 0 28 28" fill="none" xmlns="http://www.w3.org/2000/svg">
<g id="Frame">
<path id="Subtract" fill-rule="evenodd" clip-rule="evenodd" d="M26 14C26 7.3727 20.6273 2 14 2C7.3727 2 2 7.3727 2 14C2 20.6273 7.3727 26 14 26C20.6273 26 26 20.6273 26 14ZM13.3472 18.5011C13.5203 18.3364 13.7551 18.2439 13.9999 18.2439C14.2447 18.2439 14.4795 18.3364 14.6526 18.5011C14.8258 18.6657 14.923 18.8891 14.923 19.122C14.923 19.3548 14.8258 19.5782 14.6526 19.7428C14.4795 19.9075 14.2447 20 13.9999 20C13.7551 20 13.5203 19.9075 13.3472 19.7428C13.1741 19.5782 13.0768 19.3548 13.0768 19.122C13.0768 18.8891 13.1741 18.6657 13.3472 18.5011ZM10.5057 9.74C11.2519 8.66293 12.5307 8 13.9273 8C16.172 8 18 9.69873 18 11.8049C18 13.6131 16.6523 15.1213 14.8501 15.5114V16.4878C14.8501 16.7207 14.7528 16.944 14.5797 17.1087C14.4066 17.2733 14.1718 17.3659 13.927 17.3659C13.6822 17.3659 13.4474 17.2733 13.2743 17.1087C13.1012 16.944 13.0039 16.7207 13.0039 16.4878V14.7317C13.0039 14.4988 13.1012 14.2755 13.2743 14.1108C13.4474 13.9462 13.6822 13.8537 13.927 13.8537C15.1615 13.8537 16.1538 12.9317 16.1538 11.8049C16.1538 10.678 15.1618 9.7561 13.9273 9.7561C13.155 9.7561 12.4537 10.1196 12.0476 10.7061C11.9427 10.8575 11.8599 11.0211 11.8017 11.1923C11.7264 11.4139 11.5616 11.598 11.3436 11.704C11.1256 11.8101 10.8722 11.8294 10.6392 11.7578C10.4063 11.6861 10.2127 11.5294 10.1012 11.322C9.98976 11.1146 9.96945 10.8736 10.0448 10.652C10.1545 10.3296 10.3096 10.0229 10.5057 9.74Z" fill="white"/>
</g>
</svg>
