<svg width="24" height="24" viewBox="0 0 24 24" fill="none" xmlns="http://www.w3.org/2000/svg">
<g id="Frame">
<path id="Vector" d="M19.1668 10.6496L12.3309 4.85947C11.8656 4.4661 11.1844 4.45651 10.7095 4.84028L3.88561 10.3546C3.65775 10.5369 3.62417 10.8703 3.80646 11.0957C3.98875 11.3236 4.32215 11.3572 4.54762 11.1749L11.3739 5.66059C11.4555 5.59583 11.5706 5.59583 11.6498 5.66299L18.4857 11.4531C18.584 11.5371 18.7063 11.5778 18.8263 11.5778C18.975 11.5778 19.1237 11.5155 19.2292 11.3908C19.4163 11.1725 19.3875 10.8391 19.1668 10.6496Z" fill="#9298A3"/>
<path id="Vector_2" d="M17.1257 12.0168C16.8331 12.0168 16.5981 12.2519 16.5981 12.5445V17.7014C16.5981 17.8214 16.5021 17.9173 16.3822 17.9173H14.1995C14.0796 17.9173 13.9836 17.8214 13.9836 17.7014V14.1516C13.9836 13.4512 13.4128 12.8803 12.7124 12.8803H10.098C9.39757 12.8803 8.82672 13.4512 8.82672 14.1516V17.7014C8.82672 17.8214 8.73077 17.9173 8.61085 17.9173H6.3562C6.23627 17.9173 6.14033 17.8214 6.14033 17.7014V12.5445C6.14033 12.2519 5.90527 12.0168 5.61264 12.0168C5.32002 12.0168 5.08496 12.2519 5.08496 12.5445V17.7014C5.08496 18.4018 5.65582 18.9727 6.3562 18.9727H8.61085C9.31123 18.9727 9.88208 18.4018 9.88208 17.7014V14.1516C9.88208 14.0316 9.97802 13.9357 10.098 13.9357H12.7124C12.8323 13.9357 12.9283 14.0316 12.9283 14.1516V17.7014C12.9283 18.4018 13.4991 18.9727 14.1995 18.9727H16.3822C17.0826 18.9727 17.6534 18.4018 17.6534 17.7014V12.5445C17.6534 12.2519 17.4184 12.0168 17.1257 12.0168Z" fill="#9298A3"/>
</g>
</svg>
