<svg width="34" height="34" viewBox="0 0 34 34" xmlns="http://www.w3.org/2000/svg">
<g id="ICON/&#233;&#128;&#137;&#228;&#184;&#173;">
<path id="Vector" d="M31.6508 15.5541L18.4942 2.67485C18.4277 2.59656 18.289 2.46878 18.0952 2.34206C17.7482 2.11538 17.3793 2 16.999 2C16.5901 2 16.2119 2.11644 15.8747 2.34518C15.6512 2.49766 15.5317 2.63471 15.4803 2.7027L2.3486 15.5552C2.12364 15.7746 2 16.0672 2 16.3784C2 16.6885 2.12364 16.9812 2.3486 17.2006C2.76215 17.6076 3.3659 17.4912 3.94103 16.9296L4.82374 16.0642L6.26863 14.6933V28.0141C6.26863 29.6606 7.63506 31 9.31477 31H14.4537V22.5079C14.4537 21.8526 15.0002 21.3199 15.6715 21.3199H18.328C18.9998 21.3199 19.5453 21.8526 19.5453 22.5079V31H24.6847C26.3639 31 27.7314 29.6606 27.7314 28.0141V14.7623L30.059 17.0316C30.4559 17.2892 30.8123 17.4262 31.1012 17.4262C31.3163 17.4262 31.4961 17.3521 31.6509 17.2006C31.8753 16.9811 31.999 16.6895 32 16.3784C32 16.0672 31.8763 15.7746 31.6508 15.5541Z"/>
</g>
</svg>
