<svg width="34" height="34" viewBox="0 0 34 34" xmlns="http://www.w3.org/2000/svg">
<g id="Frame">
<g id="Vector">
<path d="M25.0116 15.0268H27.0215C28.3615 15.0268 29.0314 15.6845 29.0314 17V28.8393C29.0314 30.1548 28.3615 30.8125 27.0215 30.8125H25.0116C23.6716 30.8125 23.0017 30.1548 23.0017 28.8393V17C23.0017 15.6845 23.6716 15.0268 25.0116 15.0268Z" />
<path d="M15.9669 17.9866H17.9768C19.3168 17.9866 19.9868 18.6443 19.9868 19.9598V28.8393C19.9868 30.1547 19.3168 30.8125 17.9768 30.8125H15.9669C14.627 30.8125 13.957 30.1547 13.957 28.8393V19.9598C13.957 18.6443 14.627 17.9866 15.9669 17.9866Z" />
<path d="M6.92225 21.933H8.93218C10.2721 21.933 10.9421 22.5908 10.9421 23.9063V28.8393C10.9421 30.1548 10.2721 30.8125 8.93218 30.8125H6.92225C5.5823 30.8125 4.91232 30.1548 4.91232 28.8393V23.9063C4.91232 22.5908 5.5823 21.933 6.92225 21.933Z" />
<path d="M28.2426 11.2481C27.8428 11.2481 27.4593 11.0922 27.1766 10.8146C26.8939 10.5371 26.7351 10.1607 26.7351 9.76817V6.14732H23.0469C22.6471 6.14732 22.2637 5.9914 21.981 5.71386C21.6983 5.43633 21.5394 5.05991 21.5394 4.66741C21.5394 4.27491 21.6983 3.89849 21.981 3.62096C22.2637 3.34342 22.6471 3.1875 23.0469 3.1875H28.2426C28.6424 3.1875 29.0258 3.34342 29.3085 3.62096C29.5912 3.89849 29.75 4.27491 29.75 4.66741V9.76817C29.75 10.1607 29.5912 10.5371 29.3085 10.8146C29.0258 11.0922 28.6424 11.2481 28.2426 11.2481Z" />
<path d="M5.75147 15.6927C5.45147 15.6916 5.15865 15.6026 4.91048 15.4371C4.66231 15.2716 4.47008 15.0372 4.35838 14.7638C4.24668 14.4905 4.2206 14.1906 4.28348 13.9027C4.34636 13.6147 4.49533 13.3517 4.71133 13.1473L7.96741 10.0937C9.04653 9.04862 10.487 8.44086 12.0021 8.39149C13.5171 8.34213 14.9955 8.85478 16.1428 9.82736C16.7051 10.2971 17.421 10.5522 18.1593 10.5458C18.8976 10.5395 19.6088 10.2721 20.1626 9.79283L25.7653 5.16071C25.9158 5.02874 26.0917 4.92777 26.2826 4.86377C26.4736 4.79977 26.6757 4.77406 26.8769 4.78815C27.0781 4.80224 27.2745 4.85585 27.4542 4.9458C27.634 5.03575 27.7935 5.16021 27.9234 5.31181C28.0532 5.4634 28.1508 5.63905 28.2102 5.82834C28.2696 6.01762 28.2898 6.21669 28.2694 6.41376C28.249 6.61082 28.1886 6.80186 28.0916 6.97556C27.9946 7.14926 27.8631 7.30209 27.7049 7.42497L22.1173 12.0226C21.0174 12.9554 19.6145 13.4724 18.1611 13.4805C16.7076 13.4886 15.2988 12.9874 14.1881 12.067C13.6074 11.5789 12.8611 11.3228 12.0971 11.3492C11.333 11.3757 10.607 11.6829 10.0628 12.21L6.79663 15.2833C6.51514 15.5471 6.14063 15.6938 5.75147 15.6927Z" />
</g>
</g>
</svg>
