<svg width="14" height="14" viewBox="0 0 14 14" xmlns="http://www.w3.org/2000/svg">
<g id="Frame">
<g id="Group 5722">
<g id="Group 5724">
<path id="Vector 141 (Stroke)" fill-rule="evenodd" clip-rule="evenodd" d="M2 3.5C2 3.22386 2.22386 3 2.5 3H11.5C11.7761 3 12 3.22386 12 3.5C12 3.77614 11.7761 4 11.5 4H2.5C2.22386 4 2 3.77614 2 3.5Z"/>
<path id="Vector 142 (Stroke)" fill-rule="evenodd" clip-rule="evenodd" d="M2 6.96143C2 6.68528 2.22386 6.46143 2.5 6.46143H11.5C11.7761 6.46143 12 6.68528 12 6.96143C12 7.23757 11.7761 7.46143 11.5 7.46143H2.5C2.22386 7.46143 2 7.23757 2 6.96143Z"/>
<path id="Vector 143 (Stroke)" fill-rule="evenodd" clip-rule="evenodd" d="M2 10.4231C2 10.147 2.22386 9.9231 2.5 9.9231H11.5C11.7761 9.9231 12 10.147 12 10.4231C12 10.6992 11.7761 10.9231 11.5 10.9231H2.5C2.22386 10.9231 2 10.6992 2 10.4231Z"/>
</g>
</g>
</g>
</svg>
