<svg width="14" height="14" viewBox="0 0 14 14" xmlns="http://www.w3.org/2000/svg">
<g id="Frame" clip-path="url(#clip0_7142_10627)">
<path id="Vector" d="M3.12621 2.24329C3.3918 2.04369 3.76893 2.09717 3.96854 2.36275C4.16814 2.62834 4.11466 3.00545 3.84908 3.20507C2.53682 4.19135 1.75 5.73212 1.75 7.40478C1.75 10.3043 4.10051 12.6548 7 12.6548C9.89949 12.6548 12.25 10.3043 12.25 7.40478C12.25 5.73031 11.4615 4.18805 10.1468 3.20195C9.88102 3.00262 9.82718 2.62555 10.0265 2.35977C10.2259 2.09398 10.6029 2.04014 10.8687 2.23949C12.4832 3.45044 13.4531 5.34756 13.4531 7.4048C13.4531 10.9688 10.564 13.8579 7 13.8579C3.43604 13.8579 0.546875 10.9688 0.546875 7.4048C0.546875 5.34978 1.51473 3.45449 3.12621 2.24329ZM7.60156 5.25C7.60156 5.58223 7.33223 5.85156 7 5.85156C6.66777 5.85156 6.39844 5.58223 6.39844 5.25V1.02539C6.39844 0.693164 6.66777 0.423828 7 0.423828C7.33223 0.423828 7.60156 0.693164 7.60156 1.02539V5.25Z"/>
</g>
<defs>
<clipPath id="clip0_7142_10627">
<rect width="14" height="14"/>
</clipPath>
</defs>
</svg>
