<svg width="121" height="39" viewBox="0 0 121 39" xmlns="http://www.w3.org/2000/svg">
<g id="Group">
<path id="Vector" d="M0.769466 31.3682C0.769466 30.861 0.769466 30.5662 0.769466 30.2713C0.792769 26.3553 0.792769 26.3435 4.42799 28.042C8.08652 29.7405 11.8616 30.92 15.9395 30.6133C16.895 30.5426 17.8737 30.401 18.7941 30.1533C19.9593 29.8349 21.0195 29.2805 21.1128 27.8533C21.2176 26.2727 20.0991 25.565 18.864 25.164C17.4892 24.7157 16.0561 24.4209 14.6346 24.1378C11.3955 23.5008 8.15643 22.8521 5.23194 21.189C-1.16466 17.5796 -1.80549 9.39376 3.91533 4.72285C6.65341 2.49356 9.84588 1.57353 13.2714 1.05454C17.9902 0.335032 22.5226 1.17249 27.0899 2.15149C29.1405 2.58792 29.9445 3.69667 29.8862 5.85519C29.7231 11.8 30.5271 12.4959 24.5499 9.74761C21.1244 8.16705 17.4542 7.76602 13.7374 8.61527C12.4208 8.91015 10.9644 9.42914 10.8712 11.1041C10.7663 12.8969 12.281 13.3216 13.5743 13.6636C15.9162 14.2888 18.3048 14.7488 20.67 15.2678C22.6624 15.716 24.6315 16.2468 26.4491 17.214C33.4166 20.8941 34.0458 29.6697 27.7307 34.4232C24.3052 36.9946 20.3321 37.7848 16.2425 38.1033C11.6518 38.4808 7.17772 37.6669 2.7735 36.3222C-0.139341 35.4258 1.0724 33.0196 0.769466 31.3682Z" />
<path id="Vector_2" d="M99.097 1.20927C101.719 1.20927 104.34 1.09132 106.95 1.23286C114.465 1.62211 120.163 7.37817 120.221 14.5379C120.279 21.7801 114.815 27.5952 107.3 28.2085C105.563 28.3501 103.804 28.3854 102.068 28.2793C99.866 28.1377 99.062 29.1403 99.2601 31.2399C99.2834 31.5348 99.2601 31.8296 99.2601 32.1245C99.2252 38.3288 99.8077 37.6801 93.5393 37.7272C92.8635 37.7272 92.1761 37.6683 91.5003 37.739C89.17 37.9514 88.1098 37.0195 88.1913 34.5543C88.3078 30.9332 88.3311 27.2885 88.1797 23.6674C88.0748 21.1432 89.1817 20.4473 91.477 20.518C95.252 20.636 99.0387 20.6006 102.814 20.5062C105.342 20.4473 107.637 19.7278 108.803 17.1328C110.562 13.2522 107.905 9.15925 103.35 8.95873C99.2834 8.7818 95.2054 8.77 91.1391 8.94693C88.1564 9.07668 88.168 7.2956 88.1913 5.17247C88.2146 3.00215 88.0631 0.94978 91.2323 1.1503C93.8422 1.31543 96.4638 1.18568 99.0853 1.18568C99.097 1.18568 99.097 1.19748 99.097 1.20927Z" />
<path id="Vector_3" d="M65.4347 31.9708C65.4347 36.3115 65.2832 36.6064 61.1353 37.4438C53.4804 38.9654 46.0468 38.6469 40.3376 32.5016C34.9663 26.7102 34.6751 19.5741 36.9354 12.3554C38.9861 5.79728 43.9262 2.53 50.3811 1.22074C54.1794 0.442253 57.8962 0.855085 61.6363 1.53921C63.92 1.95204 65.0502 3.15515 64.8055 5.58496C64.7006 6.55217 64.7705 7.54297 64.7938 8.52197C64.8521 10.5979 64.4443 11.4708 62.1373 10.2559C57.0923 7.60194 52.3269 8.10914 49.2276 11.3174C46.1516 14.5139 45.4526 20.9541 47.6896 25.4245C49.8335 29.7062 54.9018 31.5108 59.9935 29.7651C60.8207 29.4821 61.6014 29.081 62.3937 28.7036C65.0618 27.4061 65.3531 27.5712 65.4347 30.4846C65.4463 30.9918 65.423 31.4754 65.4347 31.9708Z" />
<path id="Vector_4" d="M82.33 19.4434C82.33 24.4328 82.2135 29.434 82.3766 34.4115C82.4582 37.0419 81.4445 37.8086 78.9744 37.7496C69.933 37.5373 71.3428 38.8701 71.2729 29.9883C71.203 21.5666 71.3311 13.1566 71.2146 4.73479C71.1797 2.15164 71.8787 1.09007 74.6518 1.11367C82.33 1.17264 82.33 1.05469 82.33 8.87491C82.33 12.3899 82.33 15.9167 82.33 19.4434Z" />
</g>
</svg>
