<svg width="14" height="14" viewBox="0 0 14 14" xmlns="http://www.w3.org/2000/svg">
<g id="Frame">
<g id="Group 427338397">
<path id="Vector" d="M6.07952 10.6958H11.467C11.7575 10.6937 12.0145 10.5119 12.1149 10.2402C12.2068 9.96633 12.2068 9.69478 11.9288 9.42093L11.0972 8.60168C10.9132 8.41988 10.5434 8.41988 10.3574 8.60168C10.1735 8.78348 10.1735 9.14708 10.3574 9.32888L10.7274 9.6946H6.07952C5.80159 9.6946 5.87679 10.0206 5.87679 10.2945C5.87892 10.5683 5.80159 10.6958 6.07952 10.6958ZM11.7451 11.8159H6.47238C6.18186 11.818 5.92486 11.9998 5.82447 12.2715C5.7326 12.5454 5.7326 12.8169 6.0084 13.0908L6.74819 13.818C6.84006 13.9099 6.93424 13.9998 7.11817 13.9998C7.21004 13.9998 7.3961 13.9079 7.48815 13.818C7.67421 13.6362 7.67421 13.2726 7.48815 13.0908L7.11817 12.7251H11.7451C12.023 12.7251 12.2091 12.5433 12.2091 12.2694C12.2069 11.9979 12.023 11.8159 11.7451 11.8159Z"/>
<path id="Vector_2" d="M6.32641 0C3.99236 0 2.10132 1.86178 2.10132 4.15823C2.10132 5.67312 2.92456 7.00002 4.15534 7.72732C1.88389 8.6614 1 10.4856 1 12.9743C1 13.2481 1.18391 13.4299 1.46181 13.4299C1.73971 13.4299 1.92787 13.2481 1.92575 12.9743C1.88602 10.3602 3.93809 8.31859 6.21361 8.31664C6.24908 8.31451 6.28881 8.31664 6.32641 8.31664C8.66045 8.31664 10.5515 6.45486 10.5515 4.15841C10.5515 1.86195 8.6585 0 6.32641 0ZM6.32641 7.34496C4.5377 7.34496 3.08754 5.91768 3.08754 4.15628C3.08754 2.39488 4.5377 0.967599 6.32853 0.967599C8.11724 0.967599 9.5674 2.39488 9.5674 4.15628C9.5674 5.91768 8.11724 7.34496 6.32641 7.34496Z"/>
</g>
</g>
</svg>
