<svg width="14" height="14" viewBox="0 0 14 14" xmlns="http://www.w3.org/2000/svg">
<g id="Frame">
<path id="Vector" d="M7 9.1875C4.58828 9.1875 2.625 7.22559 2.625 4.8125C2.625 2.39941 4.58828 0.4375 7 0.4375C9.41172 0.4375 11.375 2.39941 11.375 4.8125C11.375 7.22559 9.41172 9.1875 7 9.1875ZM7 1.3125C5.06953 1.3125 3.5 2.88203 3.5 4.8125C3.5 6.74297 5.06953 8.3125 7 8.3125C8.93047 8.3125 10.5 6.74297 10.5 4.8125C10.5 2.88203 8.93047 1.3125 7 1.3125Z"/>
<path id="Vector_2" d="M11.6232 13.5623H2.37831C2.10077 13.5623 1.84647 13.4351 1.67831 13.2136C1.51151 12.9935 1.45819 12.7146 1.53338 12.4494C2.22245 10.013 4.47147 8.31226 7.00077 8.31226C9.53006 8.31226 11.7791 10.013 12.4682 12.448C12.5433 12.7132 12.49 12.9921 12.3232 13.2136C12.1551 13.4351 11.8994 13.5623 11.6232 13.5623ZM7.00077 9.18726C4.86112 9.18726 2.95799 10.6269 2.37557 12.6873H11.6232C11.0435 10.6269 9.14042 9.18726 7.00077 9.18726ZM7.00077 7.43726C6.16815 7.43726 5.40253 7.05445 4.90077 6.38726C4.75585 6.19449 4.79413 5.91968 4.98827 5.77476C5.18241 5.62984 5.45585 5.66812 5.60077 5.86226C5.93436 6.3066 6.44569 6.56226 7.00077 6.56226C7.55585 6.56226 8.06717 6.3066 8.40077 5.86226C8.54569 5.66949 8.82049 5.63121 9.01327 5.77476C9.20604 5.91968 9.24569 6.19449 9.10077 6.38726C8.59901 7.05445 7.83475 7.43726 7.00077 7.43726Z"/>
</g>
</svg>
