<svg width="34" height="34" viewBox="0 0 34 34" xmlns="http://www.w3.org/2000/svg">
<g id="Frame">
<g id="Group 427335562">
<g id="Subtract" filter="url(#filter0_i_2828_25777)">
<path fill-rule="evenodd" clip-rule="evenodd" d="M16.5504 29.7066C16.6403 29.7358 16.7339 29.75 16.8267 29.75C16.9181 29.75 17.0102 29.7358 17.1001 29.7081L27.9252 26.2634C27.9256 26.2634 27.9261 26.2633 27.9267 26.2631C27.9272 26.2629 27.9278 26.2627 27.9282 26.2627L27.9291 26.2624C28.8019 25.9807 30.6172 25.3948 30.6172 23.3407V7.36215C30.6172 5.64582 29.2214 4.25 27.5051 4.25C27.4115 4.25 27.3179 4.26423 27.2288 4.29343L16.847 7.6482L6.57896 4.29418C6.48835 4.26498 6.39475 4.25 6.29965 4.25C4.58332 4.25 3.1875 5.64582 3.1875 7.36215V23.34C3.1875 24.3644 3.66001 25.7018 5.90501 26.2709L16.5504 29.7066ZM13.3133 21.6473C13.4339 21.7102 13.5656 21.7416 13.6967 21.7416C13.8674 21.7416 14.0374 21.6884 14.1804 21.5844C14.4343 21.4001 14.5616 21.0879 14.5084 20.7786L14.1153 18.4872L15.7799 16.8645C16.0038 16.6451 16.0847 16.3178 15.9881 16.0198C15.8915 15.721 15.6332 15.5038 15.3232 15.4589L13.0227 15.1249L11.9938 13.0402C11.8553 12.7594 11.5685 12.5811 11.2555 12.5811C10.9425 12.5811 10.6557 12.7594 10.5171 13.0402L9.48825 15.1249L7.18784 15.4589C7.03576 15.4812 6.89293 15.5455 6.77545 15.6446C6.65796 15.7437 6.57048 15.8736 6.52287 16.0198C6.42552 16.3186 6.5064 16.6458 6.73105 16.8645L8.3957 18.4872L8.00257 20.7786C7.9767 20.9301 7.99371 21.0859 8.05166 21.2283C8.10962 21.3706 8.20622 21.494 8.33056 21.5844C8.58366 21.7693 8.91989 21.7933 9.1977 21.6473L11.2555 20.5652L13.3133 21.6473ZM11.6389 18.905C11.5191 18.8421 11.3873 18.8107 11.2555 18.8107C11.1245 18.8107 10.9927 18.8429 10.8721 18.905L9.90835 19.412L10.0926 18.3389C10.1153 18.2073 10.1056 18.0721 10.0644 17.945C10.0232 17.8179 9.95161 17.7028 9.85593 17.6095L9.07639 16.8495L10.154 16.693C10.422 16.654 10.6542 16.4856 10.774 16.2422L11.2555 15.2657L11.737 16.2422C11.796 16.362 11.8833 16.4656 11.9913 16.5442C12.0993 16.6227 12.2249 16.6738 12.357 16.693L13.4346 16.8495L12.6551 17.6095C12.4611 17.799 12.3728 18.0716 12.4184 18.3389L12.6026 19.412L11.6389 18.905ZM18.4578 14.758C18.5873 15.1279 18.9348 15.3593 19.3055 15.3593C19.4043 15.3593 19.5046 15.3428 19.6035 15.3076L26.4957 12.8859C26.9638 12.7212 27.2101 12.2082 27.0454 11.7402C26.8806 11.2722 26.3677 11.0258 25.8997 11.1906L19.0074 13.6123C18.5394 13.777 18.293 14.29 18.4578 14.758ZM18.5357 18.5389C18.6652 18.9088 19.0127 19.1402 19.3833 19.1402C19.4822 19.1402 19.5833 19.1237 19.6814 19.0885L26.5736 16.6668C27.0416 16.502 27.288 15.9891 27.1233 15.5211C26.9585 15.053 26.4456 14.8067 25.9776 14.9714L19.0853 17.3931C18.6173 17.5579 18.3709 18.0708 18.5357 18.5389ZM18.5738 22.2823C18.7034 22.6522 19.0508 22.8836 19.4215 22.8836C19.5204 22.8836 19.6215 22.8671 19.7196 22.8319L26.6118 20.4102C27.0798 20.2454 27.3262 19.7325 27.1615 19.2645C26.9967 18.7964 26.4838 18.5501 26.0157 18.7148L19.1235 21.1366C18.6555 21.3013 18.4091 21.8142 18.5738 22.2823Z"/>
</g>
</g>
</g>
<defs>
<filter id="filter0_i_2828_25777" x="3.1875" y="4.25" width="27.4297" height="25.5" filterUnits="userSpaceOnUse" color-interpolation-filters="sRGB">
<feFlood flood-opacity="0" result="BackgroundImageFix"/>
<feBlend mode="normal" in="SourceGraphic" in2="BackgroundImageFix" result="shape"/>
<feColorMatrix in="SourceAlpha" type="matrix" values="0 0 0 0 0 0 0 0 0 0 0 0 0 0 0 0 0 0 127 0" result="hardAlpha"/>
<feOffset/>
<feGaussianBlur stdDeviation="4"/>
<feComposite in2="hardAlpha" operator="arithmetic" k2="-1" k3="1"/>
<feColorMatrix type="matrix" values="0 0 0 0 1 0 0 0 0 1 0 0 0 0 1 0 0 0 0.25 0"/>
<feBlend mode="normal" in2="shape" result="effect1_innerShadow_2828_25777"/>
</filter>
</defs>
</svg>
