<svg width="18" height="18" viewBox="0 0 18 18" fill="none" xmlns="http://www.w3.org/2000/svg">
<g id="Frame">
<g id="Group 427335562">
<path id="Vector" d="M2.78889 13.7499L2.76945 13.7436L2.74964 13.7386C2.20851 13.6014 1.95637 13.3928 1.83265 13.2272C1.70641 13.0583 1.66109 12.8635 1.66109 12.6642V3.42957C1.66109 2.79659 2.1719 2.27981 2.80263 2.27011L8.71818 4.20242L8.91556 4.26689L9.11315 4.20304L15.0949 2.27011C15.7255 2.27991 16.2362 2.79666 16.2362 3.42957V12.6646C16.2362 13.0326 16.0889 13.2379 15.8947 13.389C15.6766 13.5588 15.4024 13.6552 15.1483 13.7376L15.1256 13.7448L8.90569 15.724L2.78889 13.7499Z" stroke="#02ADEC" stroke-width="1.27823"/>
<path id="Vector_2" d="M7.09643 11.7405C7.02069 11.7405 6.94452 11.7223 6.87484 11.6859L5.68551 11.0606L4.49618 11.6859C4.33561 11.7703 4.14129 11.7565 3.995 11.6496C3.92314 11.5973 3.86731 11.5261 3.83381 11.4438C3.80032 11.3615 3.79049 11.2715 3.80544 11.1839L4.03266 9.85954L3.07055 8.92166C2.94071 8.79529 2.89397 8.60616 2.95023 8.43347C2.97775 8.34901 3.0283 8.27391 3.09621 8.21663C3.16411 8.15936 3.24666 8.12219 3.33455 8.1093L4.66411 7.91628L5.25877 6.71137C5.33884 6.54907 5.5046 6.44606 5.68551 6.44606C5.86642 6.44606 6.03218 6.54907 6.11225 6.71137L6.70691 7.91628L8.03647 8.1093C8.21565 8.13527 8.36496 8.26078 8.42079 8.43347C8.47662 8.60572 8.42988 8.79486 8.30047 8.92166L7.33837 9.85954L7.56558 11.1839C7.59631 11.3626 7.52274 11.5431 7.37602 11.6496C7.29335 11.7097 7.19511 11.7405 7.09643 11.7405ZM5.68551 10.0465C5.76168 10.0465 5.83786 10.0647 5.9071 10.101L6.46411 10.394L6.35765 9.77384C6.33124 9.61934 6.38231 9.4618 6.49441 9.3523L6.94495 8.91301L6.32216 8.82255C6.24577 8.81146 6.17322 8.78195 6.11079 8.73656C6.04835 8.69116 5.99791 8.63126 5.9638 8.56201L5.68551 7.99764L5.40722 8.56201C5.33797 8.70267 5.20381 8.80005 5.04887 8.82255L4.42607 8.91301L4.87661 9.3523C4.93191 9.40619 4.97326 9.47272 4.99709 9.54617C5.02092 9.61961 5.02651 9.69776 5.01338 9.77384L4.90691 10.394L5.46392 10.101C5.5336 10.0651 5.60977 10.0465 5.68551 10.0465ZM10.3381 8.05174C10.1239 8.05174 9.92303 7.91801 9.84816 7.70421C9.75294 7.43371 9.89533 7.13724 10.1658 7.04203L14.1493 5.64236C14.4198 5.54714 14.7163 5.68953 14.8115 5.96003C14.9067 6.23053 14.7643 6.527 14.4938 6.62221L10.5103 8.02188C10.4532 8.04222 10.3952 8.05174 10.3381 8.05174ZM10.3831 10.2369C10.1689 10.2369 9.96804 10.1032 9.89317 9.8894C9.79795 9.6189 9.94034 9.32244 10.2108 9.22722L14.1943 7.82755C14.4648 7.73234 14.7613 7.87473 14.8565 8.14523C14.9517 8.41572 14.8093 8.71219 14.5388 8.80741L10.5553 10.2071C10.4987 10.2274 10.4402 10.2369 10.3831 10.2369ZM10.4052 12.4005C10.1909 12.4005 9.99012 12.2668 9.91524 12.053C9.82003 11.7825 9.96242 11.486 10.2329 11.3908L14.2164 9.99111C14.4869 9.89589 14.7833 10.0383 14.8786 10.3088C14.9738 10.5793 14.8314 10.8757 14.5609 10.971L10.5774 12.3706C10.5207 12.391 10.4623 12.4005 10.4052 12.4005Z" fill="#02ADEC"/>
</g>
</g>
</svg>
