<svg width="101" height="100" viewBox="0 0 101 100" fill="none" xmlns="http://www.w3.org/2000/svg">
<g id="Group 427337167">
<g id="Ellipse 1440" filter="url(#filter0_i_3246_39806)">
<circle cx="50" cy="50" r="50" fill="url(#paint0_linear_3246_39806)" fill-opacity="0.4"/>
</g>
<path id="Rectangle 34626639" d="M23.0088 26.124C23.0088 23.9149 24.7997 22.124 27.0088 22.124H48.767C50.3717 22.124 51.8211 23.0831 52.4486 24.56L54.5878 29.5957C55.2152 31.0727 56.6646 32.0317 58.2694 32.0317H73.876C76.0852 32.0317 77.876 33.8225 77.876 36.0317V62.3718C77.876 64.5809 76.0852 66.3718 73.876 66.3718H27.0088C24.7996 66.3718 23.0088 64.581 23.0088 62.3718V26.124Z" fill="#02ADEC"/>
<g id="Intersect" filter="url(#filter1_d_3246_39806)">
<path fill-rule="evenodd" clip-rule="evenodd" d="M77.8765 42.478V62.3719C77.8765 64.581 76.0857 66.3719 73.8765 66.3719H27.0093C24.8001 66.3719 23.0093 64.581 23.0093 62.3719V42.478H57.5226H77.8765Z" fill="#02ADEC"/>
</g>
<g id="Rectangle 34626642" filter="url(#filter2_bdi_3246_39806)">
<path d="M14.9843 47.1707C14.5537 44.7221 16.4377 42.478 18.9238 42.478H57.522H81.9609C84.4471 42.478 86.331 44.7221 85.9005 47.1707L80.2274 79.4362C79.8911 81.3488 78.2298 82.7435 76.2878 82.7435H24.5969C22.655 82.7435 20.9936 81.3488 20.6573 79.4362L14.9843 47.1707Z" fill="url(#paint1_linear_3246_39806)" fill-opacity="0.7" shape-rendering="crispEdges"/>
<path d="M14.9843 47.1707C14.5537 44.7221 16.4377 42.478 18.9238 42.478H57.522H81.9609C84.4471 42.478 86.331 44.7221 85.9005 47.1707L80.2274 79.4362C79.8911 81.3488 78.2298 82.7435 76.2878 82.7435H24.5969C22.655 82.7435 20.9936 81.3488 20.6573 79.4362L14.9843 47.1707Z" stroke="url(#paint2_linear_3246_39806)" stroke-width="0.715684" shape-rendering="crispEdges"/>
</g>
<rect id="Rectangle 34626640" x="37.168" y="48.6724" width="25.6637" height="3.53982" rx="1.76991" fill="#E9F8FE"/>
<g id="Group 427336767">
<path id="Polygon 1" d="M65.7295 64.2942L76.9918 57.7919L88.2541 64.2942V77.2988L76.9918 83.8011L65.7295 77.2988V64.2942Z" fill="#FFDF8E" stroke="url(#paint3_linear_3246_39806)" stroke-width="2"/>
<circle id="Ellipse 1444" cx="76.9917" cy="70.7964" r="4.42478" fill="url(#paint4_linear_3246_39806)"/>
</g>
<path id="Vector" d="M29.1907 69.7949L27.6046 70.5247L27.5964 70.5286C27.376 70.6379 27.3795 70.9601 27.6059 71.0629L29.1921 71.7837L29.8401 73.2749L29.8439 73.2833C29.9499 73.5094 30.2719 73.5076 30.3739 73.2764L31.0328 71.7824L32.5739 71.0616L32.5822 71.0576C32.7992 70.9482 32.7972 70.6312 32.5752 70.5261L31.0311 69.7947L30.3534 68.3129C30.2475 68.0812 29.9205 68.0855 29.8205 68.3198L29.1907 69.7949Z" fill="white"/>
<path id="Vector_2" d="M89.368 25.5473L87.7819 26.2771L87.7736 26.2811C87.5533 26.3903 87.5568 26.7125 87.7832 26.8153L89.3693 27.5361L90.0173 29.0273L90.0211 29.0357C90.1271 29.2619 90.4492 29.26 90.5511 29.0288L91.2101 27.5348L92.7512 26.814L92.7594 26.81C92.9764 26.7007 92.9744 26.3837 92.7524 26.2785L91.2083 25.5472L90.5306 24.0653C90.4247 23.8337 90.0977 23.838 89.9977 24.0723L89.368 25.5473Z" fill="#03ADEC" fill-opacity="0.2"/>
<path id="Vector_3" d="M9.42243 15.4787L7.30766 16.4519L7.29663 16.4571C7.00285 16.6028 7.00752 17.0324 7.30935 17.1695L9.42421 18.1305L10.2882 20.1187L10.2933 20.1299C10.4346 20.4315 10.864 20.429 11 20.1208L11.8786 18.1288L13.9334 17.1677L13.9443 17.1624C14.2337 17.0166 14.2311 16.5939 13.935 16.4537L11.8762 15.4786L10.9727 13.5028C10.8314 13.1939 10.3955 13.1996 10.2621 13.512L9.42243 15.4787Z" fill="#03ADEC" fill-opacity="0.6"/>
</g>
<defs>
<filter id="filter0_i_3246_39806" x="0" y="0" width="100" height="100" filterUnits="userSpaceOnUse" color-interpolation-filters="sRGB">
<feFlood flood-opacity="0" result="BackgroundImageFix"/>
<feBlend mode="normal" in="SourceGraphic" in2="BackgroundImageFix" result="shape"/>
<feColorMatrix in="SourceAlpha" type="matrix" values="0 0 0 0 0 0 0 0 0 0 0 0 0 0 0 0 0 0 127 0" result="hardAlpha"/>
<feOffset/>
<feGaussianBlur stdDeviation="2"/>
<feComposite in2="hardAlpha" operator="arithmetic" k2="-1" k3="1"/>
<feColorMatrix type="matrix" values="0 0 0 0 0.2375 0 0 0 0 0.797621 0 0 0 0 1 0 0 0 0.08 0"/>
<feBlend mode="normal" in2="shape" result="effect1_innerShadow_3246_39806"/>
</filter>
<filter id="filter1_d_3246_39806" x="19.0093" y="37.478" width="62.8672" height="31.894" filterUnits="userSpaceOnUse" color-interpolation-filters="sRGB">
<feFlood flood-opacity="0" result="BackgroundImageFix"/>
<feColorMatrix in="SourceAlpha" type="matrix" values="0 0 0 0 0 0 0 0 0 0 0 0 0 0 0 0 0 0 127 0" result="hardAlpha"/>
<feOffset dy="-1"/>
<feGaussianBlur stdDeviation="2"/>
<feComposite in2="hardAlpha" operator="out"/>
<feColorMatrix type="matrix" values="0 0 0 0 0.0916667 0 0 0 0 0.359615 0 0 0 0 0.458333 0 0 0 0.2 0"/>
<feBlend mode="normal" in2="BackgroundImageFix" result="effect1_dropShadow_3246_39806"/>
<feBlend mode="normal" in="SourceGraphic" in2="effect1_dropShadow_3246_39806" result="shape"/>
</filter>
<filter id="filter2_bdi_3246_39806" x="5.02249" y="27.8064" width="95.611" height="64.8376" filterUnits="userSpaceOnUse" color-interpolation-filters="sRGB">
<feFlood flood-opacity="0" result="BackgroundImageFix"/>
<feGaussianBlur in="BackgroundImageFix" stdDeviation="4.77122"/>
<feComposite in2="SourceAlpha" operator="in" result="effect1_backgroundBlur_3246_39806"/>
<feColorMatrix in="SourceAlpha" type="matrix" values="0 0 0 0 0 0 0 0 0 0 0 0 0 0 0 0 0 0 127 0" result="hardAlpha"/>
<feOffset dx="2.38561" dy="-2.38561"/>
<feGaussianBlur stdDeviation="5.96403"/>
<feComposite in2="hardAlpha" operator="out"/>
<feColorMatrix type="matrix" values="0 0 0 0 0 0 0 0 0 0 0 0 0 0 0 0 0 0 0.05 0"/>
<feBlend mode="normal" in2="effect1_backgroundBlur_3246_39806" result="effect2_dropShadow_3246_39806"/>
<feBlend mode="normal" in="SourceGraphic" in2="effect2_dropShadow_3246_39806" result="shape"/>
<feColorMatrix in="SourceAlpha" type="matrix" values="0 0 0 0 0 0 0 0 0 0 0 0 0 0 0 0 0 0 127 0" result="hardAlpha"/>
<feOffset dy="4.77122"/>
<feGaussianBlur stdDeviation="5.96403"/>
<feComposite in2="hardAlpha" operator="arithmetic" k2="-1" k3="1"/>
<feColorMatrix type="matrix" values="0 0 0 0 0.0117647 0 0 0 0 0.678431 0 0 0 0 0.921569 0 0 0 0.1 0"/>
<feBlend mode="normal" in2="shape" result="effect3_innerShadow_3246_39806"/>
</filter>
<linearGradient id="paint0_linear_3246_39806" x1="27.7778" y1="5.05051" x2="74.7475" y2="94.4444" gradientUnits="userSpaceOnUse">
<stop stop-color="#DAF5FF"/>
<stop offset="1" stop-color="#C5EFFF"/>
</linearGradient>
<linearGradient id="paint1_linear_3246_39806" x1="77.6548" y1="38.438" x2="31.359" y2="107.533" gradientUnits="userSpaceOnUse">
<stop stop-color="#F2FCFF"/>
<stop offset="1" stop-color="#73D9FF"/>
</linearGradient>
<linearGradient id="paint2_linear_3246_39806" x1="78.9506" y1="45.508" x2="29.9788" y2="108.338" gradientUnits="userSpaceOnUse">
<stop stop-color="#D9F5FF"/>
<stop offset="1" stop-color="white" stop-opacity="0.54"/>
</linearGradient>
<linearGradient id="paint3_linear_3246_39806" x1="70.9848" y1="58.3535" x2="83.8569" y2="83.2395" gradientUnits="userSpaceOnUse">
<stop stop-color="#FFF1CC"/>
<stop offset="1" stop-color="#FFD772"/>
</linearGradient>
<linearGradient id="paint4_linear_3246_39806" x1="74.7793" y1="67.2565" x2="79.2041" y2="75.2211" gradientUnits="userSpaceOnUse">
<stop stop-color="#FFCD82"/>
<stop offset="1" stop-color="#FFB23F"/>
</linearGradient>
</defs>
</svg>
