<svg width="16" height="16" viewBox="0 0 16 16" fill="none" xmlns="http://www.w3.org/2000/svg">
<g id="Frame">
<path id="Vector" d="M12.3333 14H3.66666C3.22463 14 2.80071 13.8268 2.48815 13.5185C2.17559 13.2102 2 12.792 2 12.356V6.67762C1.99991 6.45348 2.04629 6.23168 2.13628 6.02586C2.22628 5.82004 2.35799 5.63455 2.52333 5.48079L2.56 5.4512L6.8933 2.42953C7.20035 2.15319 7.60099 2 8.01663 2C8.43227 2 8.83291 2.15319 9.13995 2.42953L13.4933 5.48079C13.6556 5.63597 13.7842 5.82209 13.8713 6.02784C13.9584 6.23359 14.0022 6.45467 13.9999 6.67762V12.356C13.9999 12.792 13.8243 13.2102 13.5118 13.5185C13.1992 13.8268 12.7753 14 12.3333 14ZM2.96666 5.97399C2.87177 6.06573 2.79637 6.17521 2.74486 6.29602C2.69335 6.41683 2.66677 6.54656 2.66666 6.67762V12.356C2.66666 12.6176 2.77202 12.8685 2.95955 13.0535C3.14709 13.2385 3.40144 13.3424 3.66666 13.3424H12.3333C12.5985 13.3424 12.8528 13.2385 13.0404 13.0535C13.2279 12.8685 13.3333 12.6176 13.3333 12.356V6.67762C13.3331 6.54656 13.3066 6.41683 13.2551 6.29602C13.2035 6.17521 13.1281 6.06573 13.0333 5.97399L8.69995 2.92273C8.51432 2.74977 8.26864 2.65341 8.01329 2.65341C7.75794 2.65341 7.51226 2.74977 7.32663 2.92273L7.2933 2.95232L2.96666 5.97399Z" fill="white" stroke="white" stroke-width="0.3"/>
<path id="Vector_2" d="M11.6599 8.00001C11.5712 8.0004 11.4862 8.03769 11.4233 8.10382L8.71846 10.9676C8.62423 11.0677 8.51226 11.1472 8.38897 11.2014C8.26568 11.2556 8.1335 11.2835 8 11.2835C7.8665 11.2835 7.73432 11.2556 7.61103 11.2014C7.48774 11.1472 7.37577 11.0677 7.28154 10.9676L4.57674 8.10382C4.51376 8.03769 4.42876 8.0004 4.34007 8.00001C4.27291 7.99959 4.20716 8.02036 4.1512 8.05967C4.09524 8.09898 4.0516 8.15504 4.02585 8.2207C4.00009 8.28637 3.9934 8.35867 4.00661 8.42839C4.01981 8.4981 4.05233 8.56207 4.10002 8.61214L6.80482 11.4759C7.12183 11.8115 7.55174 12 8 12C8.44826 12 8.87817 11.8115 9.19518 11.4759L11.9 8.61214C11.9477 8.56207 11.9802 8.4981 11.9934 8.42839C12.0066 8.35867 11.9999 8.28637 11.9742 8.2207C11.9484 8.15504 11.9048 8.09898 11.8488 8.05967C11.7928 8.02036 11.7271 7.99959 11.6599 8.00001Z" fill="white" stroke="white" stroke-width="0.3"/>
</g>
</svg>
