<svg width="14" height="16" viewBox="0 0 14 16" fill="none" xmlns="http://www.w3.org/2000/svg">
<g id="Frame">
<path id="Vector" d="M11.892 4.18182H9.625V3.22727C9.625 2.54545 9.14773 2 8.55114 2H5.44886C4.85227 2 4.375 2.54545 4.375 3.22727V4.18182H2.10795C1.91705 4.18182 1.75 4.37273 1.75 4.59091C1.75 4.80909 1.91705 5 2.10795 5H11.892C12.083 5 12.25 4.80909 12.25 4.59091C12.25 4.37273 12.083 4.18182 11.892 4.18182ZM5.09091 4.18182V3.22727C5.09091 3.00909 5.25795 2.81818 5.44886 2.81818H8.55114C8.74205 2.81818 8.90909 3.00909 8.90909 3.22727V4.18182H5.09091ZM10.675 5.81818C10.4841 5.81818 10.317 6.00909 10.317 6.22727V12.4182C10.317 12.8273 10.0307 13.1818 9.64886 13.1818H4.32727C3.96932 13.1818 3.65909 12.8545 3.65909 12.4182V6.22727C3.65909 6.00909 3.49205 5.81818 3.30114 5.81818C3.11023 5.81818 2.94318 6.00909 2.94318 6.22727V12.4182C2.94318 13.2909 3.56364 14 4.32727 14H9.67273C10.4364 14 11.0568 13.2909 11.0568 12.4182V6.22727C11.033 6.00909 10.8659 5.81818 10.675 5.81818Z" fill="#02ADEC" stroke="#02ADEC" stroke-width="0.2"/>
<path id="Vector_2" d="M5.97917 11.625V6.375C5.97917 6.175 5.80903 6 5.61458 6C5.42014 6 5.25 6.175 5.25 6.375V11.625C5.25 11.825 5.42014 12 5.61458 12C5.80903 12 5.97917 11.825 5.97917 11.625ZM8.75 11.625V6.375C8.75 6.175 8.57986 6 8.38542 6C8.19097 6 8.02083 6.175 8.02083 6.375V11.625C8.02083 11.825 8.19097 12 8.38542 12C8.57986 12 8.75 11.825 8.75 11.625Z" fill="#02ADEC" stroke="#02ADEC" stroke-width="0.2"/>
</g>
</svg>
