<svg width="34" height="34" viewBox="0 0 34 34" fill="none" xmlns="http://www.w3.org/2000/svg">
<g id="Frame">
<g id="Subtract" filter="url(#filter0_i_2828_25771)">
<path fill-rule="evenodd" clip-rule="evenodd" d="M3.95728 6.375C2.85271 6.375 1.95728 7.27043 1.95728 8.375V25.625C1.95728 26.7296 2.85271 27.625 3.95727 27.625H29.875C30.9796 27.625 31.875 26.7296 31.875 25.625V8.375C31.875 7.27043 30.9796 6.375 29.875 6.375H3.95728ZM11.5351 10.8485C12.2601 10.8485 12.978 10.9913 13.6478 11.2687C14.3177 11.5462 14.9263 11.9529 15.4389 12.4655C15.9516 12.9782 16.3582 13.5868 16.6357 14.2566C16.9131 14.9264 17.0559 15.6443 17.0559 16.3693L11.5351 16.3693V10.8485ZM16.0744 17.3508C16.0744 18.4427 15.7506 19.51 15.144 20.4179C14.5374 21.3258 13.6752 22.0334 12.6664 22.4513C11.6576 22.8691 10.5475 22.9785 9.47661 22.7655C8.40568 22.5524 7.42197 22.0266 6.64988 21.2545C5.87779 20.4824 5.35198 19.4987 5.13896 18.4278C4.92594 17.3569 5.03527 16.2468 5.45313 15.238C5.87098 14.2293 6.57859 13.367 7.48648 12.7604C8.39437 12.1538 9.46175 11.83 10.5537 11.83V17.3508H16.0744ZM20.2325 12.2465C19.8679 12.2465 19.5724 12.5411 19.5724 12.9044C19.5724 13.2678 19.8679 13.5623 20.2325 13.5623L28.4188 13.5623C28.7834 13.5623 29.0789 13.2678 29.0789 12.9044C29.0789 12.5411 28.7834 12.2465 28.4188 12.2465L20.2325 12.2465ZM19.5724 16.5886C19.5724 16.2253 19.8679 15.9307 20.2325 15.9307L28.4188 15.9307C28.7834 15.9307 29.0789 16.2253 29.0789 16.5886C29.0789 16.952 28.7834 17.2465 28.4188 17.2465L20.2325 17.2465C19.8679 17.2465 19.5724 16.952 19.5724 16.5886ZM20.2325 19.8781C19.8679 19.8781 19.5724 20.1727 19.5724 20.536C19.5724 20.8994 19.8679 21.1939 20.2325 21.1939H25.514C25.8786 21.1939 26.1741 20.8994 26.1741 20.536C26.1741 20.1727 25.8786 19.8781 25.514 19.8781L20.2325 19.8781Z" fill="white"/>
</g>
</g>
<defs>
<filter id="filter0_i_2828_25771" x="1.95728" y="6.375" width="29.9177" height="21.25" filterUnits="userSpaceOnUse" color-interpolation-filters="sRGB">
<feFlood flood-opacity="0" result="BackgroundImageFix"/>
<feBlend mode="normal" in="SourceGraphic" in2="BackgroundImageFix" result="shape"/>
<feColorMatrix in="SourceAlpha" type="matrix" values="0 0 0 0 0 0 0 0 0 0 0 0 0 0 0 0 0 0 127 0" result="hardAlpha"/>
<feOffset/>
<feGaussianBlur stdDeviation="4"/>
<feComposite in2="hardAlpha" operator="arithmetic" k2="-1" k3="1"/>
<feColorMatrix type="matrix" values="0 0 0 0 1 0 0 0 0 1 0 0 0 0 1 0 0 0 0.25 0"/>
<feBlend mode="normal" in2="shape" result="effect1_innerShadow_2828_25771"/>
</filter>
</defs>
</svg>
