<svg width="46" height="46" viewBox="0 0 46 46" fill="none" xmlns="http://www.w3.org/2000/svg">
<g id="Group 427339665" filter="url(#filter0_d_13409_9339)">
<circle id="Ellipse 1475" cx="24" cy="23" r="19" fill="#E85050" stroke="white" stroke-width="1.5"/>
<g id="Vector" filter="url(#filter1_d_13409_9339)">
<path d="M35.229 15.2402C35.221 14.8411 35.2023 14.8213 34.8123 14.689C34.451 14.5652 34.0841 14.4834 33.7114 14.4285C33.3471 14.3749 32.9794 14.3464 32.612 14.3309C31.1364 14.2677 29.6729 14.3838 28.228 14.678C25.6698 15.1998 23.3397 16.198 21.3345 17.89C21.243 17.9663 21.1574 17.9837 21.0548 17.9686C21.0297 17.9649 21.0048 17.9591 20.9779 17.953C20.2558 17.7654 19.5382 17.5293 18.8033 17.4211L18.753 17.4137C17.4409 17.2312 16.3378 17.6827 15.4776 18.6919C15.008 19.2431 14.5403 19.7967 14.0706 20.35C13.6339 20.8633 13.1901 21.367 12.7631 21.8881C12.1569 22.6288 12.4939 23.6752 13.408 23.8803C14.5084 24.1279 15.6112 24.3587 16.7148 24.5832C16.9144 24.6232 16.9929 24.6904 16.9828 24.9071C16.9541 25.6259 17.0513 26.329 17.3478 26.9951C17.9266 28.291 18.9148 29.1017 20.2636 29.4863C20.7715 29.6317 20.7563 29.6337 20.7217 30.1741C20.6505 31.2545 20.5853 32.338 20.5416 33.4203C20.5144 34.0965 20.9696 34.5999 21.5412 34.684C21.7673 34.7173 22.013 34.685 22.2545 34.573C23.606 33.942 24.9684 33.3255 26.2896 32.6344C27.5213 31.99 28.1632 30.9209 28.2071 29.5049C28.2272 28.8982 28.2579 28.291 28.2779 27.6843C28.284 27.497 28.347 27.3629 28.5093 27.252C30.4886 25.8942 32.0092 24.1223 33.1676 22.0276C34.1368 20.2751 34.825 18.4213 35.1551 16.4357C35.1648 16.3794 35.1746 16.3231 35.1819 16.2685C35.2344 15.9276 35.236 15.5835 35.229 15.2402ZM27.3889 23.547L27.3659 23.5436C25.703 23.286 24.4118 21.5729 24.6703 19.9275C24.9765 17.9769 26.6187 16.9331 28.3335 17.1855L28.3922 17.1942C30.0635 17.468 31.2747 19.1415 31.0234 20.8435C30.761 22.6124 29.1519 23.8065 27.3889 23.547Z" fill="url(#paint0_linear_13409_9339)"/>
<path d="M18.7806 31.4369C18.1213 31.9388 17.4569 32.4314 16.8 32.9314C16.6428 33.0516 16.4825 33.1157 16.3108 33.0905C16.2438 33.0806 16.1743 33.0575 16.1029 33.0171C15.8422 32.876 15.7378 32.6532 15.7637 32.3661C15.7797 32.1845 15.8083 32.0047 15.8285 31.8237C15.8511 31.6089 15.8595 31.531 15.7757 31.5186C15.7296 31.5119 15.6574 31.5248 15.5458 31.5447C14.8655 31.6649 14.1869 31.7874 13.5066 31.9076C13.4036 31.9267 13.3 31.9349 13.2037 31.9208C13.1116 31.9072 13.0223 31.8727 12.9369 31.8088C12.6797 31.6105 12.6127 31.3161 12.7698 30.9906C13.0759 30.3533 13.3942 29.7199 13.7044 29.0832C13.8398 28.808 13.8344 28.8008 13.5232 28.7485C13.3351 28.7187 13.1464 28.6931 12.959 28.6569C12.6865 28.604 12.5099 28.4411 12.4424 28.1659C12.3783 27.8976 12.4708 27.6867 12.6803 27.5271C13.3675 27.008 14.0569 26.4891 14.746 25.9724C14.8696 25.8794 15.0085 25.8314 15.1488 25.852C15.1634 25.8542 15.1781 25.8563 15.1904 25.8603C15.5185 25.9129 15.6808 26.0865 15.7549 26.4396C16.0391 27.8291 16.7457 28.9534 17.8746 29.8126C18.1246 30.0013 18.3909 30.1646 18.6704 30.3084C19.1758 30.5668 19.2257 31.0982 18.7806 31.4369Z" fill="url(#paint1_linear_13409_9339)"/>
</g>
</g>
<defs>
<filter id="filter0_d_13409_9339" x="0.15" y="0.15" width="45.7" height="45.7" filterUnits="userSpaceOnUse" color-interpolation-filters="sRGB">
<feFlood flood-opacity="0" result="BackgroundImageFix"/>
<feColorMatrix in="SourceAlpha" type="matrix" values="0 0 0 0 0 0 0 0 0 0 0 0 0 0 0 0 0 0 127 0" result="hardAlpha"/>
<feOffset dx="-1"/>
<feGaussianBlur stdDeviation="1.55"/>
<feComposite in2="hardAlpha" operator="out"/>
<feColorMatrix type="matrix" values="0 0 0 0 0.426449 0 0 0 0 0.085019 0 0 0 0 0.085019 0 0 0 0.25 0"/>
<feBlend mode="normal" in2="BackgroundImageFix" result="effect1_dropShadow_13409_9339"/>
<feBlend mode="normal" in="SourceGraphic" in2="effect1_dropShadow_13409_9339" result="shape"/>
</filter>
<filter id="filter1_d_13409_9339" x="11.9219" y="14.3145" width="23.8105" height="21.8818" filterUnits="userSpaceOnUse" color-interpolation-filters="sRGB">
<feFlood flood-opacity="0" result="BackgroundImageFix"/>
<feColorMatrix in="SourceAlpha" type="matrix" values="0 0 0 0 0 0 0 0 0 0 0 0 0 0 0 0 0 0 127 0" result="hardAlpha"/>
<feOffset dy="1"/>
<feGaussianBlur stdDeviation="0.25"/>
<feComposite in2="hardAlpha" operator="out"/>
<feColorMatrix type="matrix" values="0 0 0 0 0.125737 0 0 0 0 0.292088 0 0 0 0 0.48737 0 0 0 0.25 0"/>
<feBlend mode="normal" in2="BackgroundImageFix" result="effect1_dropShadow_13409_9339"/>
<feBlend mode="normal" in="SourceGraphic" in2="effect1_dropShadow_13409_9339" result="shape"/>
</filter>
<linearGradient id="paint0_linear_13409_9339" x1="24.8633" y1="14.3659" x2="23.1361" y2="35.0932" gradientUnits="userSpaceOnUse">
<stop stop-color="white"/>
<stop offset="1" stop-color="#FFD6D6"/>
</linearGradient>
<linearGradient id="paint1_linear_13409_9339" x1="24.8633" y1="14.3659" x2="23.1361" y2="35.0932" gradientUnits="userSpaceOnUse">
<stop stop-color="white"/>
<stop offset="1" stop-color="#FFD6D6"/>
</linearGradient>
</defs>
</svg>
