<svg width="42" height="42" viewBox="0 0 42 42" fill="none" xmlns="http://www.w3.org/2000/svg">
<g id="Group 427339149" filter="url(#filter0_d_10309_44352)">
<circle id="Ellipse 1475" cx="22" cy="21" r="17" fill="url(#paint0_linear_10309_44352)" stroke="white" stroke-width="1.5"/>
<g id="Vector" filter="url(#filter1_d_10309_44352)">
<path d="M32.0472 14.0562C32.04 13.6991 32.0233 13.6814 31.6744 13.563C31.3511 13.4523 31.0228 13.3791 30.6894 13.33C30.3634 13.282 30.0344 13.2565 29.7057 13.2426C28.3855 13.186 27.076 13.2899 25.7832 13.5532C23.4942 14.0201 21.4094 14.9132 19.6153 16.427C19.5335 16.4954 19.4569 16.5109 19.3651 16.4974C19.3426 16.4941 19.3203 16.4889 19.2962 16.4834C18.6502 16.3156 18.0081 16.1043 17.3505 16.0075L17.3055 16.0009C16.1315 15.8376 15.1445 16.2416 14.3749 17.1446C13.9548 17.6378 13.5363 18.1331 13.116 18.6282C12.7253 19.0874 12.3282 19.538 11.9461 20.0043C11.4038 20.667 11.7053 21.6033 12.5231 21.7868C13.5078 22.0083 14.4945 22.2148 15.4819 22.4157C15.6605 22.4515 15.7307 22.5116 15.7217 22.7055C15.696 23.3486 15.783 23.9777 16.0483 24.5737C16.5662 25.7332 17.4503 26.4586 18.6572 26.8027C19.1115 26.9328 19.0979 26.9346 19.067 27.4181C19.0033 28.3848 18.945 29.3542 18.9059 30.3226C18.8815 30.9276 19.2888 31.378 19.8002 31.4533C20.0026 31.4831 20.2224 31.4542 20.4384 31.354C21.6477 30.7894 22.8667 30.2377 24.0489 29.6194C25.1508 29.0429 25.7252 28.0863 25.7645 26.8193C25.7824 26.2765 25.8099 25.7332 25.8279 25.1904C25.8333 25.0228 25.8896 24.9028 26.0349 24.8036C27.8058 23.5887 29.1663 22.0034 30.2029 20.1292C31.07 18.5611 31.6857 16.9025 31.9811 15.1259C31.9898 15.0755 31.9985 15.0251 32.0051 14.9763C32.052 14.6712 32.0535 14.3633 32.0472 14.0562ZM25.0324 21.4886L25.0118 21.4856C23.524 21.2551 22.3687 19.7223 22.6 18.2501C22.8739 16.5048 24.3433 15.5709 25.8776 15.7968L25.9301 15.8045C27.4255 16.0495 28.5091 17.5468 28.2843 19.0697C28.0496 20.6524 26.6098 21.7208 25.0324 21.4886Z" fill="url(#paint1_linear_10309_44352)"/>
<path d="M17.3303 28.548C16.7404 28.9971 16.1459 29.4378 15.5581 29.8852C15.4174 29.9927 15.274 30.0501 15.1204 30.0275C15.0605 30.0187 14.9983 29.998 14.9344 29.9618C14.7012 29.8356 14.6077 29.6362 14.6309 29.3793C14.6452 29.2169 14.6708 29.056 14.6888 28.8941C14.7091 28.7019 14.7166 28.6321 14.6416 28.6211C14.6004 28.615 14.5358 28.6266 14.436 28.6444C13.8272 28.7519 13.2201 28.8616 12.6114 28.9691C12.5193 28.9862 12.4266 28.9936 12.3404 28.9809C12.2579 28.9688 12.1781 28.9379 12.1017 28.8807C11.8715 28.7033 11.8116 28.4399 11.9522 28.1486C12.226 27.5784 12.5108 27.0117 12.7884 26.4421C12.9095 26.1958 12.9047 26.1893 12.6263 26.1426C12.4579 26.1159 12.2891 26.093 12.1215 26.0606C11.8776 26.0133 11.7196 25.8675 11.6592 25.6213C11.6018 25.3813 11.6846 25.1925 11.8721 25.0498C12.487 24.5853 13.1038 24.121 13.7203 23.6587C13.8309 23.5754 13.9552 23.5325 14.0807 23.551C14.0938 23.5529 14.1069 23.5548 14.1179 23.5584C14.4115 23.6054 14.5568 23.7608 14.623 24.0767C14.8773 25.3199 15.5096 26.3259 16.5196 27.0947C16.7433 27.2635 16.9815 27.4096 17.2316 27.5383C17.6838 27.7694 17.7285 28.2449 17.3303 28.548Z" fill="url(#paint2_linear_10309_44352)"/>
</g>
</g>
<defs>
<filter id="filter0_d_10309_44352" x="0.15" y="0.15" width="41.7" height="41.7" filterUnits="userSpaceOnUse" color-interpolation-filters="sRGB">
<feFlood flood-opacity="0" result="BackgroundImageFix"/>
<feColorMatrix in="SourceAlpha" type="matrix" values="0 0 0 0 0 0 0 0 0 0 0 0 0 0 0 0 0 0 127 0" result="hardAlpha"/>
<feOffset dx="-1"/>
<feGaussianBlur stdDeviation="1.55"/>
<feComposite in2="hardAlpha" operator="out"/>
<feColorMatrix type="matrix" values="0 0 0 0 0.085019 0 0 0 0 0.303534 0 0 0 0 0.426449 0 0 0 0.25 0"/>
<feBlend mode="normal" in2="BackgroundImageFix" result="effect1_dropShadow_10309_44352"/>
<feBlend mode="normal" in="SourceGraphic" in2="effect1_dropShadow_10309_44352" result="shape"/>
</filter>
<filter id="filter1_d_10309_44352" x="11.1413" y="13.2275" width="21.4086" height="19.7373" filterUnits="userSpaceOnUse" color-interpolation-filters="sRGB">
<feFlood flood-opacity="0" result="BackgroundImageFix"/>
<feColorMatrix in="SourceAlpha" type="matrix" values="0 0 0 0 0 0 0 0 0 0 0 0 0 0 0 0 0 0 127 0" result="hardAlpha"/>
<feOffset dy="1"/>
<feGaussianBlur stdDeviation="0.25"/>
<feComposite in2="hardAlpha" operator="out"/>
<feColorMatrix type="matrix" values="0 0 0 0 0.125737 0 0 0 0 0.292088 0 0 0 0 0.48737 0 0 0 0.25 0"/>
<feBlend mode="normal" in2="BackgroundImageFix" result="effect1_dropShadow_10309_44352"/>
<feBlend mode="normal" in="SourceGraphic" in2="effect1_dropShadow_10309_44352" result="shape"/>
</filter>
<linearGradient id="paint0_linear_10309_44352" x1="22" y1="4" x2="22" y2="35.7922" gradientUnits="userSpaceOnUse">
<stop stop-color="#3478A9"/>
<stop offset="1" stop-color="#86B3D3"/>
</linearGradient>
<linearGradient id="paint1_linear_10309_44352" x1="22.7727" y1="13.274" x2="21.2272" y2="31.8194" gradientUnits="userSpaceOnUse">
<stop stop-color="white"/>
<stop offset="1" stop-color="#D6F0FF"/>
</linearGradient>
<linearGradient id="paint2_linear_10309_44352" x1="22.7727" y1="13.274" x2="21.2272" y2="31.8194" gradientUnits="userSpaceOnUse">
<stop stop-color="white"/>
<stop offset="1" stop-color="#D6F0FF"/>
</linearGradient>
</defs>
</svg>
