<svg width="16" height="14" viewBox="0 0 16 14" fill="none" xmlns="http://www.w3.org/2000/svg">
<path d="M5.02126 6.98595C3.75271 6.38578 2.89474 5.19225 2.89474 3.76002C2.89474 1.79174 4.60932 0.179443 6.70037 0.179443C8.79416 0.179443 10.5074 1.79173 10.5074 3.76139C10.5074 5.70104 8.88964 7.28332 6.82723 7.34333H6.79586C3.65858 7.34333 1.08739 9.76039 1.08739 12.7149C1.08739 12.8949 0.960527 13.015 0.770936 13.015C0.579986 13.015 0.453125 12.8949 0.453125 12.7149C0.453125 10.0004 2.38868 7.7007 5.02126 6.98595ZM6.70174 6.7459C8.44771 6.7459 9.87448 5.40232 9.87448 3.76139C9.87448 2.11909 8.44634 0.776886 6.70174 0.776886C4.95716 0.776886 3.53039 2.11909 3.53039 3.76139C3.53039 5.40232 4.95716 6.74589 6.70176 6.74589L6.70174 6.7459ZM15.3934 8.71555L15.4575 8.86559L14.6963 9.73038C14.6348 9.8064 14.6012 9.90127 14.6012 9.99909C14.6012 10.0969 14.6348 10.1918 14.6963 10.2678L15.4575 11.1053L15.3934 11.2554C15.2351 11.6728 15.0128 12.0902 14.6963 12.4189L14.5695 12.5376L13.3964 12.3589C13.2054 12.3289 12.9831 12.4475 12.919 12.6276L12.5071 13.7011L12.3488 13.7311C11.7518 13.8505 11.1371 13.8505 10.5401 13.7311L10.3492 13.7011L9.96997 12.6576C9.90586 12.4775 9.68352 12.3575 9.49256 12.3889L8.28812 12.5676L8.16126 12.4475C8.00304 12.2989 7.87482 12.1202 7.78069 11.9401C7.64394 11.7272 7.53744 11.4963 7.46424 11.254L7.40014 11.104L8.19263 10.2692C8.31949 10.1191 8.31949 9.88179 8.19263 9.76177L7.43151 8.8956L7.49561 8.74692C7.65384 8.29952 7.90755 7.91077 8.22536 7.5534L8.35222 7.43337L9.49391 7.61341C9.59564 7.62294 9.69792 7.60243 9.78811 7.55443C9.87829 7.50642 9.95243 7.43303 10.0013 7.34333L10.4133 6.29848L10.5729 6.26847C11.143 6.14844 11.7459 6.14844 12.3488 6.26847L12.5398 6.29848L12.9204 7.31332C12.9613 7.41126 13.0328 7.49331 13.1243 7.54717C13.2158 7.60103 13.3223 7.62379 13.4278 7.61205L14.6009 7.46201L14.7277 7.58204C14.8859 7.76073 15.0142 7.90941 15.1096 8.11946C15.2038 8.26813 15.2992 8.50685 15.3934 8.71555ZM14.5067 8.35817C14.4437 8.24148 14.3693 8.13136 14.2844 8.02944L13.4592 8.11946C12.9517 8.17812 12.4443 7.88076 12.2861 7.432L12.031 6.74589C11.6528 6.68623 11.2676 6.68623 10.8893 6.74589L10.6029 7.46201C10.446 7.90941 9.90723 8.20813 9.39844 8.11946L8.60594 7.99944C8.41497 8.20813 8.28812 8.47684 8.16127 8.71555L8.70142 9.31299C8.85451 9.49151 8.93866 9.71892 8.93866 9.95409C8.93866 10.1893 8.85451 10.4167 8.70142 10.5952L8.16126 11.1926C8.22538 11.3427 8.28812 11.4613 8.3836 11.6114C8.43976 11.7231 8.515 11.8242 8.60593 11.9101L9.46254 11.7901C9.96996 11.7301 10.4774 12.0288 10.6356 12.4762L10.8893 13.1923C11.2713 13.2523 11.6832 13.2523 12.0624 13.1923L12.3488 12.4462C12.5071 11.9988 13.0472 11.7 13.5219 11.7901L14.3158 11.9101C14.4891 11.6935 14.6281 11.4515 14.7277 11.1926L14.2203 10.6266C13.9025 10.2678 13.8711 9.70038 14.1889 9.343L14.7277 8.74556C14.6592 8.61332 14.585 8.48407 14.5054 8.35817H14.5067ZM11.4608 11.3427C10.667 11.3427 10.0327 10.7452 10.0327 9.9991C10.0327 9.25296 10.667 8.65554 11.4608 8.65554C12.2533 8.65554 12.8876 9.25298 12.8876 9.9991C12.8876 10.7452 12.222 11.3427 11.4608 11.3427ZM11.4608 10.7452C11.9042 10.7452 12.2533 10.4179 12.2533 9.99909C12.2533 9.58171 11.9042 9.25298 11.4608 9.25298C11.0162 9.25298 10.667 9.58034 10.667 9.9991C10.667 10.4165 11.0162 10.7452 11.4608 10.7452Z" fill="#4B5666" stroke="#4B5666" stroke-width="0.3"/>
</svg>
