<svg width="14" height="14" viewBox="0 0 14 14" xmlns="http://www.w3.org/2000/svg">
<g id="Frame">
<path id="Vector" d="M10.0803 3.66327C9.99568 3.74932 9.88339 3.79161 9.7711 3.79161C9.65881 3.79161 9.54652 3.74932 9.46193 3.66327L8.4586 2.65994V6.85411C8.4586 7.09619 8.26318 7.29161 8.0211 7.29161C7.77902 7.29161 7.5836 7.09619 7.5836 6.85411V2.65994L6.58027 3.66327C6.49568 3.74932 6.38339 3.79161 6.2711 3.79161C6.15881 3.79161 6.04652 3.74932 5.96193 3.66327C5.88 3.58124 5.83398 3.47004 5.83398 3.35411C5.83398 3.23817 5.88 3.12697 5.96193 3.04494L7.71193 1.29494C7.79396 1.21301 7.90516 1.16699 8.0211 1.16699C8.13704 1.16699 8.24823 1.21301 8.33027 1.29494L10.0803 3.04494C10.1622 3.12697 10.2082 3.23817 10.2082 3.35411C10.2082 3.47004 10.1622 3.58124 10.0803 3.66327ZM8.0211 12.8333C7.90507 12.8333 7.79379 12.7872 7.71174 12.7051C7.62969 12.6231 7.5836 12.5118 7.5836 12.3958V9.18744C7.5836 9.07141 7.62969 8.96013 7.71174 8.87808C7.79379 8.79603 7.90507 8.74994 8.0211 8.74994C8.13713 8.74994 8.24841 8.79603 8.33046 8.87808C8.41251 8.96013 8.4586 9.07141 8.4586 9.18744V12.3958C8.4586 12.5118 8.41251 12.6231 8.33046 12.7051C8.24841 12.7872 8.13713 12.8333 8.0211 12.8333Z" />
<path id="Vector_2" d="M12.8337 8.02018C12.8337 8.03185 12.8337 8.04206 12.8322 8.05227C12.8307 8.06393 12.8307 8.0756 12.8278 8.08581C12.8278 8.09164 12.8264 8.09747 12.8249 8.10331C12.8235 8.11643 12.8205 8.1281 12.8162 8.14122C12.8074 8.17185 12.7957 8.20102 12.7812 8.22872C12.768 8.25206 12.752 8.27539 12.7345 8.29581C12.7257 8.30747 12.7155 8.31914 12.7053 8.32935L10.9553 10.0793C10.8707 10.1654 10.7585 10.2077 10.6462 10.2077C10.5339 10.2077 10.4216 10.1654 10.337 10.0793C10.2551 9.99732 10.209 9.88612 10.209 9.77018C10.209 9.65424 10.2551 9.54305 10.337 9.46102L11.3403 8.45768H3.50033C2.21408 8.45768 1.16699 7.4106 1.16699 6.12435C1.16699 4.8381 2.21408 3.79102 3.50033 3.79102C4.70053 3.79102 5.69366 4.70393 5.82053 5.87206C5.82928 5.95518 5.83366 6.03831 5.83366 6.12435V6.85352C5.83366 7.0956 5.63824 7.29102 5.39616 7.29102C5.15408 7.29102 4.95866 7.0956 4.95866 6.85352V6.12435C4.95866 5.32081 4.30387 4.66602 3.50033 4.66602C2.69678 4.66602 2.04199 5.32081 2.04199 6.12435C2.04199 6.92789 2.69678 7.58268 3.50033 7.58268H11.3403L10.337 6.57935C10.2551 6.49732 10.209 6.38612 10.209 6.27018C10.209 6.15424 10.2551 6.04305 10.337 5.96102C10.419 5.87909 10.5302 5.83307 10.6462 5.83307C10.7621 5.83307 10.8733 5.87909 10.9553 5.96102L12.6893 7.69497C12.6951 7.69935 12.6995 7.70518 12.7053 7.71102C12.7155 7.72122 12.7257 7.73289 12.7345 7.74456C12.7447 7.75477 12.7535 7.76643 12.7607 7.77956C12.7695 7.79122 12.7768 7.80435 12.7826 7.81602C12.7972 7.84227 12.8089 7.86997 12.8162 7.89914C12.8205 7.91081 12.8235 7.92393 12.8249 7.93706C12.8264 7.94289 12.8278 7.94872 12.8278 7.95456C12.8307 7.96622 12.8322 7.97643 12.8322 7.9881C12.8337 7.99831 12.8337 8.00852 12.8337 8.02018Z" />
<path id="Vector_3" d="M5.39551 12.8337C5.27948 12.8337 5.1682 12.7876 5.08615 12.7055C5.0041 12.6235 4.95801 12.5122 4.95801 12.3962V9.18784C4.95801 9.07181 5.0041 8.96053 5.08615 8.87848C5.1682 8.79643 5.27948 8.75034 5.39551 8.75034C5.51154 8.75034 5.62282 8.79643 5.70487 8.87848C5.78691 8.96053 5.83301 9.07181 5.83301 9.18784V12.3962C5.83301 12.5122 5.78691 12.6235 5.70487 12.7055C5.62282 12.7876 5.51154 12.8337 5.39551 12.8337ZM5.83301 5.97951V6.12534C5.83301 6.0393 5.82863 5.95617 5.81988 5.87305C5.82863 5.90659 5.83301 5.94305 5.83301 5.97951Z" />
</g>
</svg>
