<svg width="32" height="32" viewBox="0 0 32 32" fill="none" xmlns="http://www.w3.org/2000/svg">
<g id="Frame 427337952" clip-path="url(#clip0_6036_2625)">
<g id="Group 427335609">
<g id="Group 427335619">
<path id="Rectangle 1809" d="M11.4604 12.9921C11.4604 11.5516 12.6282 10.3838 14.0688 10.3838H19.3054H22.0216C22.7868 10.3838 23.5134 10.7198 24.009 11.3028L26.5294 14.2679C26.9302 14.7395 27.1503 15.3383 27.1503 15.9572V19.6131V26.2341C27.1503 27.6747 25.9825 28.8424 24.542 28.8424H14.0688C12.6282 28.8424 11.4604 27.6747 11.4604 26.2341V12.9921Z" fill="url(#paint0_linear_6036_2625)"/>
<g id="Rectangle 1810" filter="url(#filter0_bdi_6036_2625)">
<path d="M5 6.38919C5 4.51739 6.51739 3 8.38919 3H14.6446H17.8951C18.892 3 19.8384 3.43892 20.4823 4.19997L23.4873 7.75137C24.0051 8.36331 24.2893 9.13898 24.2893 9.94059V14.3982V22.4072C24.2893 24.279 22.7719 25.7964 20.9001 25.7964H8.38918C6.51739 25.7964 5 24.279 5 22.4072V6.38919Z" fill="url(#paint1_linear_6036_2625)" fill-opacity="0.7" shape-rendering="crispEdges"/>
<path d="M5 6.38919C5 4.51739 6.51739 3 8.38919 3H14.6446H17.8951C18.892 3 19.8384 3.43892 20.4823 4.19997L23.4873 7.75137C24.0051 8.36331 24.2893 9.13898 24.2893 9.94059V14.3982V22.4072C24.2893 24.279 22.7719 25.7964 20.9001 25.7964H8.38918C6.51739 25.7964 5 24.279 5 22.4072V6.38919Z" stroke="url(#paint2_linear_6036_2625)" stroke-width="0.323032" shape-rendering="crispEdges"/>
</g>
<g id="Group 427335618">
<g id="Vector">
<path fill-rule="evenodd" clip-rule="evenodd" d="M15.2774 19.4555V17.5182C15.2774 17.235 15.0374 16.9805 14.7149 16.9805H13.805C13.4825 16.9805 13.2425 17.235 13.2425 17.5182V19.4555C13.2425 19.7388 13.4825 19.9932 13.805 19.9932H14.715C15.0375 19.9932 15.2775 19.7386 15.2774 19.4555ZM9.6726 19.9932H10.5824C10.905 19.9932 11.145 19.7388 11.145 19.4555V17.5182C11.145 17.235 10.905 16.9805 10.5824 16.9805H9.6726C9.35007 16.9805 9.11007 17.235 9.11007 17.5182V19.4555C9.11007 19.7388 9.35007 19.9932 9.6726 19.9932ZM15.9419 19.4555V17.5182C15.9419 16.8552 15.3915 16.316 14.7149 16.316H13.805C13.1284 16.316 12.578 16.8552 12.578 17.5182V19.4555C12.578 20.1185 13.1284 20.6578 13.805 20.6578H14.715C15.3915 20.6578 15.9421 20.1185 15.9419 19.4555ZM11.3545 12.7061H17.1654C17.4879 12.7061 17.728 12.4516 17.728 12.1684V10.231C17.728 9.9478 17.4879 9.69332 17.1654 9.69332H11.3545C11.032 9.69332 10.792 9.9478 10.792 10.231V12.1684C10.792 12.4516 11.032 12.7061 11.3545 12.7061ZM17.9376 19.9932H18.8475C19.17 19.9932 19.41 19.7388 19.41 19.4555V17.5182C19.41 17.235 19.17 16.9805 18.8475 16.9805H17.9376C17.6151 16.9805 17.3751 17.235 17.3751 17.5182V19.4555C17.3751 19.7388 17.6151 19.9932 17.9376 19.9932ZM9.6726 20.6578H10.5824C11.2591 20.6578 11.8095 20.1185 11.8095 19.4555V17.5182C11.8095 16.8552 11.2591 16.316 10.5824 16.316H9.6726C8.99595 16.316 8.44556 16.8552 8.44556 17.5182V19.4555C8.44556 20.1185 8.99595 20.6578 9.6726 20.6578ZM11.3545 13.3706H17.1654C17.8421 13.3706 18.3925 12.8313 18.3925 12.1684V10.231C18.3925 9.56806 17.8421 9.02881 17.1654 9.02881H11.3545C10.6778 9.02881 10.1274 9.56806 10.1274 10.231V12.1684C10.1274 12.8313 10.6778 13.3706 11.3545 13.3706ZM17.9376 20.6578H18.8475C19.5241 20.6578 20.0745 20.1185 20.0745 19.4555V17.5182C20.0745 16.8552 19.5241 16.316 18.8475 16.316H17.9376C17.261 16.316 16.7106 16.8552 16.7106 17.5182V19.4555C16.7106 20.1185 17.261 20.6578 17.9376 20.6578Z" fill="url(#paint3_linear_6036_2625)"/>
<path fill-rule="evenodd" clip-rule="evenodd" d="M14.3328 12.8813C14.4933 12.8813 14.6235 13.0115 14.6235 13.172V16.5154C14.6235 16.6759 14.4933 16.8061 14.3328 16.8061C14.1722 16.8061 14.042 16.6759 14.042 16.5154V13.172C14.042 13.0115 14.1722 12.8813 14.3328 12.8813Z" fill="url(#paint4_linear_6036_2625)"/>
<path fill-rule="evenodd" clip-rule="evenodd" d="M18.4755 15.7153C18.4755 15.3942 18.2152 15.1339 17.8941 15.1339H11.0621C10.7409 15.1339 10.4806 15.3942 10.4806 15.7153V16.4421C10.4806 16.6027 10.3505 16.7329 10.1899 16.7329C10.0293 16.7329 9.89917 16.6027 9.89917 16.4421V15.7153C9.89917 15.0731 10.4198 14.5524 11.0621 14.5524H17.8941C18.5363 14.5524 19.057 15.0731 19.057 15.7153V16.4421C19.057 16.6027 18.9268 16.7329 18.7662 16.7329C18.6057 16.7329 18.4755 16.6027 18.4755 16.4421V15.7153Z" fill="url(#paint5_linear_6036_2625)"/>
</g>
</g>
</g>
</g>
</g>
<defs>
<filter id="filter0_bdi_6036_2625" x="0.531283" y="-3.62227" width="30.38" height="33.8874" filterUnits="userSpaceOnUse" color-interpolation-filters="sRGB">
<feFlood flood-opacity="0" result="BackgroundImageFix"/>
<feGaussianBlur in="BackgroundImageFix" stdDeviation="2.15355"/>
<feComposite in2="SourceAlpha" operator="in" result="effect1_backgroundBlur_6036_2625"/>
<feColorMatrix in="SourceAlpha" type="matrix" values="0 0 0 0 0 0 0 0 0 0 0 0 0 0 0 0 0 0 127 0" result="hardAlpha"/>
<feOffset dx="1.07677" dy="-1.07677"/>
<feGaussianBlur stdDeviation="2.69194"/>
<feComposite in2="hardAlpha" operator="out"/>
<feColorMatrix type="matrix" values="0 0 0 0 0 0 0 0 0 0 0 0 0 0 0 0 0 0 0.05 0"/>
<feBlend mode="normal" in2="effect1_backgroundBlur_6036_2625" result="effect2_dropShadow_6036_2625"/>
<feBlend mode="normal" in="SourceGraphic" in2="effect2_dropShadow_6036_2625" result="shape"/>
<feColorMatrix in="SourceAlpha" type="matrix" values="0 0 0 0 0 0 0 0 0 0 0 0 0 0 0 0 0 0 127 0" result="hardAlpha"/>
<feOffset dy="2.15355"/>
<feGaussianBlur stdDeviation="2.69194"/>
<feComposite in2="hardAlpha" operator="arithmetic" k2="-1" k3="1"/>
<feColorMatrix type="matrix" values="0 0 0 0 0.0117647 0 0 0 0 0.678431 0 0 0 0 0.921569 0 0 0 0.1 0"/>
<feBlend mode="normal" in2="shape" result="effect3_innerShadow_6036_2625"/>
</filter>
<linearGradient id="paint0_linear_6036_2625" x1="25.9957" y1="13.7305" x2="14.7452" y2="24.5517" gradientUnits="userSpaceOnUse">
<stop stop-color="#29C4FD"/>
<stop offset="1" stop-color="#03ABE8"/>
</linearGradient>
<linearGradient id="paint1_linear_6036_2625" x1="21.8781" y1="1.0177" x2="-2.13877" y2="20.4362" gradientUnits="userSpaceOnUse">
<stop stop-color="#F2FCFF"/>
<stop offset="1" stop-color="#73D9FF"/>
</linearGradient>
<linearGradient id="paint2_linear_6036_2625" x1="22.2226" y1="4.48672" x2="-1.00251" y2="20.6294" gradientUnits="userSpaceOnUse">
<stop stop-color="#D9F5FF"/>
<stop offset="1" stop-color="white" stop-opacity="0.54"/>
</linearGradient>
<linearGradient id="paint3_linear_6036_2625" x1="19.3524" y1="6.99534" x2="13.9597" y2="7.11491" gradientUnits="userSpaceOnUse">
<stop stop-color="#D7F4FF"/>
<stop offset="1" stop-color="white"/>
</linearGradient>
<linearGradient id="paint4_linear_6036_2625" x1="19.3524" y1="6.99534" x2="13.9597" y2="7.11491" gradientUnits="userSpaceOnUse">
<stop stop-color="#D7F4FF"/>
<stop offset="1" stop-color="white"/>
</linearGradient>
<linearGradient id="paint5_linear_6036_2625" x1="19.3524" y1="6.99534" x2="13.9597" y2="7.11491" gradientUnits="userSpaceOnUse">
<stop stop-color="#D7F4FF"/>
<stop offset="1" stop-color="white"/>
</linearGradient>
<clipPath id="clip0_6036_2625">
<rect width="32" height="32" fill="white"/>
</clipPath>
</defs>
</svg>
