<svg width="32" height="32" viewBox="0 0 32 32" fill="none" xmlns="http://www.w3.org/2000/svg">
<g id="Frame 427337954" clip-path="url(#clip0_6036_2637)">
<g id="Group 427335609">
<g id="Group 427335623">
<rect id="Rectangle 34625976" x="11.9502" y="12.314" width="15.6288" height="15.6288" rx="2.05436" fill="url(#paint0_linear_6036_2637)"/>
<g id="Rectangle 1808" filter="url(#filter0_bdi_6036_2637)">
<rect x="4" y="4" width="20.4717" height="20.4717" rx="2.6694" fill="url(#paint1_linear_6036_2637)" fill-opacity="0.7" shape-rendering="crispEdges"/>
<rect x="4" y="4" width="20.4717" height="20.4717" rx="2.6694" stroke="url(#paint2_linear_6036_2637)" stroke-width="0.254427" shape-rendering="crispEdges"/>
</g>
<g id="Group 427335558" filter="url(#filter1_i_6036_2637)">
<g id="Vector">
<path fill-rule="evenodd" clip-rule="evenodd" d="M18.1441 13.2187C18.0797 13.2837 18.0099 13.4166 18.0099 13.6986V19.945C18.0099 20.227 18.0797 20.3599 18.1441 20.4249C18.208 20.4893 18.3377 20.5588 18.6151 20.5588H19.6476C19.925 20.5588 20.0548 20.4893 20.1186 20.4249C20.1831 20.3599 20.2528 20.227 20.2528 19.945V13.6986C20.2528 13.4166 20.1831 13.2837 20.1186 13.2187C20.0548 13.1543 19.925 13.0848 19.6476 13.0848H18.6151C18.3377 13.0848 18.208 13.1543 18.1441 13.2187ZM17.5374 12.617C17.8178 12.3343 18.2042 12.2303 18.6151 12.2303H19.6476C20.0585 12.2303 20.445 12.3343 20.7253 12.617C21.005 12.899 21.1073 13.2866 21.1073 13.6986V19.945C21.1073 20.357 21.005 20.7446 20.7253 21.0266C20.445 21.3093 20.0585 21.4133 19.6476 21.4133H18.6151C18.2042 21.4133 17.8178 21.3093 17.5374 21.0266C17.2578 20.7446 17.1554 20.357 17.1554 19.945V13.6986C17.1554 13.2866 17.2578 12.899 17.5374 12.617ZM13.498 14.7803C13.4336 14.8453 13.3638 14.9782 13.3638 15.2602V19.945C13.3638 20.227 13.4336 20.3599 13.498 20.4249C13.5619 20.4893 13.6917 20.5588 13.969 20.5588H15.0015C15.2789 20.5588 15.4087 20.4893 15.4725 20.4249C15.537 20.3599 15.6068 20.227 15.6068 19.945V15.2602C15.6068 14.9782 15.537 14.8453 15.4725 14.7803C15.4087 14.7159 15.2789 14.6464 15.0015 14.6464H13.969C13.6916 14.6464 13.5619 14.7159 13.498 14.7803ZM12.8914 14.1786C13.1717 13.8959 13.5581 13.7919 13.969 13.7919H15.0015C15.4124 13.7919 15.7989 13.8959 16.0792 14.1786C16.3589 14.4606 16.4612 14.8482 16.4612 15.2602V19.945C16.4612 20.357 16.3589 20.7446 16.0792 21.0266C15.7989 21.3093 15.4124 21.4133 15.0015 21.4133H13.969C13.5581 21.4133 13.1717 21.3093 12.8914 21.0266C12.6117 20.7446 12.5094 20.357 12.5094 19.945V15.2602C12.5094 14.8482 12.6117 14.4606 12.8914 14.1786ZM8.85197 16.8624C8.78749 16.9274 8.71773 17.0603 8.71773 17.3423V19.945C8.71773 20.227 8.78749 20.3599 8.85197 20.4249C8.9158 20.4893 9.04557 20.5588 9.32297 20.5588H10.3554C10.6328 20.5588 10.7626 20.4893 10.8264 20.4249C10.8909 20.3599 10.9607 20.227 10.9607 19.945V17.3423C10.9607 17.0603 10.8909 16.9274 10.8264 16.8624C10.7626 16.798 10.6328 16.7285 10.3554 16.7285H9.32297C9.04557 16.7285 8.9158 16.798 8.85197 16.8624ZM8.24528 16.2607C8.5256 15.978 8.91206 15.8741 9.32297 15.8741H10.3554C10.7663 15.8741 11.1528 15.978 11.4331 16.2607C11.7128 16.5427 11.8151 16.9304 11.8151 17.3423V19.945C11.8151 20.357 11.7128 20.7446 11.4331 21.0266C11.1528 21.3093 10.7663 21.4133 10.3554 21.4133H9.32297C8.91206 21.4133 8.5256 21.3093 8.24528 21.0266C7.9656 20.7446 7.86328 20.357 7.86328 19.945V17.3423C7.86328 16.9304 7.9656 16.5427 8.24528 16.2607Z" fill="url(#paint3_linear_6036_2637)"/>
<path fill-rule="evenodd" clip-rule="evenodd" d="M19.7937 7.68811C19.9544 7.8608 19.9448 8.13113 19.7721 8.29191L17.0934 10.7859L17.0897 10.7892C16.3193 11.474 15.4666 11.6209 14.7281 11.5205C14.0164 11.4238 13.4091 11.0991 13.0495 10.8161C12.9459 10.7482 12.8423 10.693 12.7396 10.6487C12.1624 10.3999 11.5745 10.5312 10.9374 10.9218C10.2915 11.3178 9.67411 11.9331 9.08257 12.5246C8.91573 12.6915 8.64522 12.6915 8.47838 12.5246C8.31154 12.3578 8.31154 12.0873 8.47838 11.9205L8.50281 11.896C9.07196 11.3268 9.75295 10.6457 10.4908 10.1934C11.248 9.72915 12.1414 9.46028 13.0779 9.86413C13.2325 9.93079 13.3862 10.0136 13.5375 10.1144L13.5529 10.1247L13.5674 10.1363C13.8249 10.3423 14.2986 10.5998 14.8432 10.6738C15.3704 10.7455 15.9616 10.6469 16.5185 10.1537L19.1898 7.66654C19.3625 7.50576 19.6329 7.51542 19.7937 7.68811Z" fill="url(#paint4_linear_6036_2637)"/>
<path fill-rule="evenodd" clip-rule="evenodd" d="M16.5631 7.51805C16.5631 7.2821 16.7544 7.09082 16.9903 7.09082H20.2772V10.1932C20.2772 10.4291 20.0859 10.6204 19.8499 10.6204C19.614 10.6204 19.4227 10.4291 19.4227 10.1932V7.94527H16.9903C16.7544 7.94527 16.5631 7.754 16.5631 7.51805Z" fill="url(#paint5_linear_6036_2637)"/>
</g>
</g>
</g>
</g>
</g>
<defs>
<filter id="filter0_bdi_6036_2637" x="0.480194" y="-1.21599" width="29.2075" height="29.2075" filterUnits="userSpaceOnUse" color-interpolation-filters="sRGB">
<feFlood flood-opacity="0" result="BackgroundImageFix"/>
<feGaussianBlur in="BackgroundImageFix" stdDeviation="1.69618"/>
<feComposite in2="SourceAlpha" operator="in" result="effect1_backgroundBlur_6036_2637"/>
<feColorMatrix in="SourceAlpha" type="matrix" values="0 0 0 0 0 0 0 0 0 0 0 0 0 0 0 0 0 0 127 0" result="hardAlpha"/>
<feOffset dx="0.848091" dy="-0.848091"/>
<feGaussianBlur stdDeviation="2.12023"/>
<feComposite in2="hardAlpha" operator="out"/>
<feColorMatrix type="matrix" values="0 0 0 0 0 0 0 0 0 0 0 0 0 0 0 0 0 0 0.05 0"/>
<feBlend mode="normal" in2="effect1_backgroundBlur_6036_2637" result="effect2_dropShadow_6036_2637"/>
<feBlend mode="normal" in="SourceGraphic" in2="effect2_dropShadow_6036_2637" result="shape"/>
<feColorMatrix in="SourceAlpha" type="matrix" values="0 0 0 0 0 0 0 0 0 0 0 0 0 0 0 0 0 0 127 0" result="hardAlpha"/>
<feOffset dy="1.69618"/>
<feGaussianBlur stdDeviation="2.12023"/>
<feComposite in2="hardAlpha" operator="arithmetic" k2="-1" k3="1"/>
<feColorMatrix type="matrix" values="0 0 0 0 0.0117647 0 0 0 0 0.678431 0 0 0 0 0.921569 0 0 0 0.1 0"/>
<feBlend mode="normal" in2="shape" result="effect3_innerShadow_6036_2637"/>
</filter>
<filter id="filter1_i_6036_2637" x="7.86328" y="7.09082" width="13.2441" height="14.3223" filterUnits="userSpaceOnUse" color-interpolation-filters="sRGB">
<feFlood flood-opacity="0" result="BackgroundImageFix"/>
<feBlend mode="normal" in="SourceGraphic" in2="BackgroundImageFix" result="shape"/>
<feColorMatrix in="SourceAlpha" type="matrix" values="0 0 0 0 0 0 0 0 0 0 0 0 0 0 0 0 0 0 127 0" result="hardAlpha"/>
<feOffset/>
<feGaussianBlur stdDeviation="1.7089"/>
<feComposite in2="hardAlpha" operator="arithmetic" k2="-1" k3="1"/>
<feColorMatrix type="matrix" values="0 0 0 0 1 0 0 0 0 1 0 0 0 0 1 0 0 0 0.25 0"/>
<feBlend mode="normal" in2="shape" result="effect1_innerShadow_6036_2637"/>
</filter>
<linearGradient id="paint0_linear_6036_2637" x1="26.4289" y1="15.1476" x2="16.9683" y2="25.853" gradientUnits="userSpaceOnUse">
<stop stop-color="#29C4FD"/>
<stop offset="1" stop-color="#03ABE8"/>
</linearGradient>
<linearGradient id="paint1_linear_6036_2637" x1="21.9128" y1="2.21985" x2="-0.121137" y2="23.2741" gradientUnits="userSpaceOnUse">
<stop stop-color="#F2FCFF"/>
<stop offset="1" stop-color="#73D9FF"/>
</linearGradient>
<linearGradient id="paint2_linear_6036_2637" x1="22.2783" y1="5.33511" x2="0.450131" y2="23.2654" gradientUnits="userSpaceOnUse">
<stop stop-color="#D9F5FF"/>
<stop offset="1" stop-color="white" stop-opacity="0.54"/>
</linearGradient>
<linearGradient id="paint3_linear_6036_2637" x1="20.2849" y1="4.58636" x2="14.1429" y2="4.71229" gradientUnits="userSpaceOnUse">
<stop stop-color="#D7F4FF"/>
<stop offset="1" stop-color="white"/>
</linearGradient>
<linearGradient id="paint4_linear_6036_2637" x1="20.2849" y1="4.58636" x2="14.1429" y2="4.71229" gradientUnits="userSpaceOnUse">
<stop stop-color="#D7F4FF"/>
<stop offset="1" stop-color="white"/>
</linearGradient>
<linearGradient id="paint5_linear_6036_2637" x1="20.2849" y1="4.58636" x2="14.1429" y2="4.71229" gradientUnits="userSpaceOnUse">
<stop stop-color="#D7F4FF"/>
<stop offset="1" stop-color="white"/>
</linearGradient>
<clipPath id="clip0_6036_2637">
<rect width="32" height="32" fill="white"/>
</clipPath>
</defs>
</svg>
