<svg width="32" height="32" viewBox="0 0 32 32" fill="none" xmlns="http://www.w3.org/2000/svg">
<g id="Frame 427337951" clip-path="url(#clip0_6036_2620)">
<g id="Group 427335609">
<path id="Vector (Stroke)" fill-rule="evenodd" clip-rule="evenodd" d="M22.1575 14.1926C21.7065 14.3376 21.2212 14.3369 20.7706 14.1904L15.1168 12.3529C15.0608 12.3349 15.003 12.3257 14.9442 12.3257C13.8833 12.3257 13.0205 13.1842 13.0205 14.2398V24.0666C13.0205 24.6967 13.3126 25.5192 14.7003 25.8693L21.2804 27.9823C21.336 28.0003 21.3938 28.009 21.4512 28.009C21.5077 28.009 21.5646 28.0003 21.6202 27.9832L28.3105 25.8649C28.3111 25.8648 28.3117 25.8646 28.3123 25.8644C28.3125 25.8644 28.3126 25.8643 28.3127 25.8643C28.3131 25.8642 28.3135 25.8641 28.3139 25.864C28.8533 25.6908 29.9754 25.3304 29.9754 24.0671V14.2398C29.9754 13.1842 29.1126 12.3257 28.0517 12.3257C27.9939 12.3257 27.936 12.3344 27.881 12.3524L22.1575 14.1926Z" fill="url(#paint0_linear_6036_2620)"/>
<g id="Vector (Stroke)_2" filter="url(#filter0_bdi_6036_2620)">
<path fill-rule="evenodd" clip-rule="evenodd" d="M14.9218 5.655C14.3427 5.83865 13.7208 5.83768 13.1422 5.65222L4.98728 3.03819C4.90747 3.01295 4.82503 3 4.74126 3C3.22948 3 2 4.20651 2 5.69005V19.5008C2 20.3863 2.4162 21.5423 4.39365 22.0342L13.7704 25.0039C13.8495 25.0291 13.932 25.0414 14.0138 25.0414C14.0942 25.0414 14.1754 25.0291 14.2545 25.0052L23.7883 22.0281C23.7891 22.0279 23.79 22.0277 23.7909 22.0274C23.791 22.0274 23.7912 22.0273 23.7913 22.0273C23.7919 22.0271 23.7925 22.027 23.793 22.0268C24.5618 21.7834 26.1608 21.2769 26.1608 19.5015V5.69005C26.1608 4.20651 24.9313 3 23.4195 3C23.3371 3 23.2546 3.0123 23.1761 3.03754L14.9218 5.655Z" fill="url(#paint1_linear_6036_2620)" fill-opacity="0.7" shape-rendering="crispEdges"/>
<path fill-rule="evenodd" clip-rule="evenodd" d="M14.9218 5.655C14.3427 5.83865 13.7208 5.83768 13.1422 5.65222L4.98728 3.03819C4.90747 3.01295 4.82503 3 4.74126 3C3.22948 3 2 4.20651 2 5.69005V19.5008C2 20.3863 2.4162 21.5423 4.39365 22.0342L13.7704 25.0039C13.8495 25.0291 13.932 25.0414 14.0138 25.0414C14.0942 25.0414 14.1754 25.0291 14.2545 25.0052L23.7883 22.0281C23.7891 22.0279 23.79 22.0277 23.7909 22.0274C23.791 22.0274 23.7912 22.0273 23.7913 22.0273C23.7919 22.0271 23.7925 22.027 23.793 22.0268C24.5618 21.7834 26.1608 21.2769 26.1608 19.5015V5.69005C26.1608 4.20651 24.9313 3 23.4195 3C23.3371 3 23.2546 3.0123 23.1761 3.03754L14.9218 5.655Z" stroke="url(#paint2_linear_6036_2620)" stroke-width="0.279204" shape-rendering="crispEdges"/>
</g>
<g id="Vector">
<path fill-rule="evenodd" clip-rule="evenodd" d="M9.84199 16.7467L11.7608 17.748C11.8732 17.8062 11.9961 17.8354 12.1183 17.8354C12.2775 17.8354 12.436 17.7862 12.5694 17.6898C12.8061 17.5194 12.9248 17.2304 12.8752 16.9442L12.5087 14.8237L14.0609 13.3221C14.2697 13.119 14.3451 12.8162 14.255 12.5404C14.1649 12.2639 13.924 12.0629 13.635 12.0214L11.4899 11.7123L10.5305 9.78309C10.4013 9.52323 10.1339 9.3583 9.84199 9.3583C9.55012 9.3583 9.28269 9.52323 9.15351 9.78309L8.1941 11.7123L6.04904 12.0214C5.90723 12.042 5.77405 12.1015 5.6645 12.1932C5.55495 12.2849 5.47338 12.4052 5.42898 12.5404C5.33821 12.8169 5.41362 13.1197 5.6231 13.3221L7.17533 14.8237L6.80875 16.9442C6.78463 17.0844 6.80049 17.2285 6.85453 17.3603C6.90857 17.492 6.99864 17.6062 7.11459 17.6898C7.3506 17.861 7.66412 17.8832 7.92317 17.748L9.84199 16.7467ZM7.67283 16.9224L9.84199 15.7905L12.0112 16.9224L11.5969 14.5262L13.3441 12.836L10.9288 12.488L9.84199 10.3025L8.75515 12.488L6.33988 12.836L8.08708 14.5262L7.67283 16.9224Z" fill="url(#paint3_linear_6036_2620)"/>
<path fill-rule="evenodd" clip-rule="evenodd" d="M24.4384 7.93775C24.5206 8.15695 24.4096 8.40127 24.1904 8.48347L17.4084 11.0267C17.1892 11.1089 16.9449 10.9979 16.8627 10.7787C16.7805 10.5595 16.8916 10.3151 17.1107 10.2329L23.8927 7.6897C24.1119 7.6075 24.3562 7.71856 24.4384 7.93775Z" fill="url(#paint4_linear_6036_2620)"/>
<path fill-rule="evenodd" clip-rule="evenodd" d="M24.4384 11.3287C24.5206 11.5479 24.4096 11.7923 24.1904 11.8745L17.4084 14.4177C17.1892 14.4999 16.9449 14.3888 16.8627 14.1696C16.7805 13.9505 16.8916 13.7061 17.1107 13.6239L23.8927 11.0807C24.1119 10.9985 24.3562 11.1095 24.4384 11.3287Z" fill="url(#paint5_linear_6036_2620)"/>
<path fill-rule="evenodd" clip-rule="evenodd" d="M24.4384 15.1436C24.5206 15.3628 24.4096 15.6071 24.1904 15.6893L17.4084 18.2326C17.1892 18.3148 16.9449 18.2037 16.8627 17.9845C16.7805 17.7653 16.8916 17.521 17.1107 17.4388L23.8927 14.8956C24.1119 14.8134 24.3562 14.9244 24.4384 15.1436Z" fill="url(#paint6_linear_6036_2620)"/>
</g>
</g>
</g>
<defs>
<filter id="filter0_bdi_6036_2620" x="-1.86237" y="-2.72372" width="33.7467" height="31.6276" filterUnits="userSpaceOnUse" color-interpolation-filters="sRGB">
<feFlood flood-opacity="0" result="BackgroundImageFix"/>
<feGaussianBlur in="BackgroundImageFix" stdDeviation="1.86136"/>
<feComposite in2="SourceAlpha" operator="in" result="effect1_backgroundBlur_6036_2620"/>
<feColorMatrix in="SourceAlpha" type="matrix" values="0 0 0 0 0 0 0 0 0 0 0 0 0 0 0 0 0 0 127 0" result="hardAlpha"/>
<feOffset dx="0.930679" dy="-0.930679"/>
<feGaussianBlur stdDeviation="2.3267"/>
<feComposite in2="hardAlpha" operator="out"/>
<feColorMatrix type="matrix" values="0 0 0 0 0 0 0 0 0 0 0 0 0 0 0 0 0 0 0.05 0"/>
<feBlend mode="normal" in2="effect1_backgroundBlur_6036_2620" result="effect2_dropShadow_6036_2620"/>
<feBlend mode="normal" in="SourceGraphic" in2="effect2_dropShadow_6036_2620" result="shape"/>
<feColorMatrix in="SourceAlpha" type="matrix" values="0 0 0 0 0 0 0 0 0 0 0 0 0 0 0 0 0 0 127 0" result="hardAlpha"/>
<feOffset dy="1.86136"/>
<feGaussianBlur stdDeviation="2.3267"/>
<feComposite in2="hardAlpha" operator="arithmetic" k2="-1" k3="1"/>
<feColorMatrix type="matrix" values="0 0 0 0 0.0117647 0 0 0 0 0.678431 0 0 0 0 0.921569 0 0 0 0.1 0"/>
<feBlend mode="normal" in2="shape" result="effect3_innerShadow_6036_2620"/>
</filter>
<linearGradient id="paint0_linear_6036_2620" x1="28.7278" y1="15.1692" x2="19.3527" y2="26.638" gradientUnits="userSpaceOnUse">
<stop stop-color="#29C4FD"/>
<stop offset="1" stop-color="#03ABE8"/>
</linearGradient>
<linearGradient id="paint1_linear_6036_2620" x1="23.1407" y1="1.08336" x2="-0.581761" y2="25.9307" gradientUnits="userSpaceOnUse">
<stop stop-color="#F2FCFF"/>
<stop offset="1" stop-color="#73D9FF"/>
</linearGradient>
<linearGradient id="paint2_linear_6036_2620" x1="23.5721" y1="4.43748" x2="-0.254716" y2="25.8915" gradientUnits="userSpaceOnUse">
<stop stop-color="#D9F5FF"/>
<stop offset="1" stop-color="white" stop-opacity="0.54"/>
</linearGradient>
<linearGradient id="paint3_linear_6036_2620" x1="23.2811" y1="5.80956" x2="14.4455" y2="6.1622" gradientUnits="userSpaceOnUse">
<stop stop-color="#D7F4FF"/>
<stop offset="1" stop-color="white"/>
</linearGradient>
<linearGradient id="paint4_linear_6036_2620" x1="23.2811" y1="5.80956" x2="14.4455" y2="6.1622" gradientUnits="userSpaceOnUse">
<stop stop-color="#D7F4FF"/>
<stop offset="1" stop-color="white"/>
</linearGradient>
<linearGradient id="paint5_linear_6036_2620" x1="23.2811" y1="5.80956" x2="14.4455" y2="6.1622" gradientUnits="userSpaceOnUse">
<stop stop-color="#D7F4FF"/>
<stop offset="1" stop-color="white"/>
</linearGradient>
<linearGradient id="paint6_linear_6036_2620" x1="23.2811" y1="5.80956" x2="14.4455" y2="6.1622" gradientUnits="userSpaceOnUse">
<stop stop-color="#D7F4FF"/>
<stop offset="1" stop-color="white"/>
</linearGradient>
<clipPath id="clip0_6036_2620">
<rect width="32" height="32" fill="white"/>
</clipPath>
</defs>
</svg>
