<svg width="32" height="32" viewBox="0 0 32 32" fill="none" xmlns="http://www.w3.org/2000/svg">
<g id="Frame 427337955" clip-path="url(#clip0_6036_2644)">
<g id="Group 427335609">
<g id="Group 427335625">
<g id="Vector">
<path d="M25.9462 12.7466C27.2428 12.7466 28.294 13.787 28.294 15.0706V22.0425C28.294 23.3259 27.2428 24.3664 25.9462 24.3664H14.2076C12.9109 24.3664 11.8599 23.3259 11.8599 22.0425V15.0706C11.8599 13.787 12.9109 12.7466 14.2076 12.7466H25.9462Z" fill="url(#paint0_linear_6036_2644)"/>
<path fill-rule="evenodd" clip-rule="evenodd" d="M20.1511 11.1455C20.3429 11.1455 20.4983 11.2994 20.4983 11.4892V12.9207C20.4983 13.1105 20.3429 13.2644 20.1511 13.2644C19.9594 13.2644 19.8039 13.1105 19.8039 12.9207V11.4892C19.8039 11.2994 19.9594 11.1455 20.1511 11.1455Z" fill="url(#paint1_linear_6036_2644)"/>
<path fill-rule="evenodd" clip-rule="evenodd" d="M16.9259 23.939C17.0615 24.0732 17.0615 24.2908 16.9259 24.4251L13.8407 27.479C13.7052 27.6132 13.4853 27.6132 13.3497 27.479C13.2141 27.3448 13.2141 27.1271 13.3497 26.9929L16.4348 23.939C16.5704 23.8048 16.7903 23.8048 16.9259 23.939Z" fill="url(#paint2_linear_6036_2644)"/>
<path fill-rule="evenodd" clip-rule="evenodd" d="M22.9907 23.939C22.8551 24.0732 22.8551 24.2908 22.9907 24.4251L26.0758 27.479C26.2114 27.6132 26.4312 27.6132 26.5668 27.479C26.7024 27.3448 26.7024 27.1271 26.5668 26.9929L23.4817 23.939C23.3461 23.8048 23.1263 23.8048 22.9907 23.939Z" fill="url(#paint3_linear_6036_2644)"/>
</g>
<g id="Vector_2" filter="url(#filter0_bdi_6036_2644)">
<path d="M4 9.20498C4 7.50289 5.37097 6.12317 7.06226 6.12317H14.3618V4.45576C14.3618 4.20405 14.5646 4 14.8147 4C15.0648 4 15.2676 4.20405 15.2676 4.45576V6.12317H22.3735C24.0648 6.12317 25.4358 7.50289 25.4358 9.20498V18.4503C25.4358 20.1523 24.0648 21.5321 22.3735 21.5321H19.7221L23.183 25.0151C23.3599 25.193 23.3599 25.4816 23.183 25.6596C23.0061 25.8376 22.7194 25.8376 22.5425 25.6596L18.5185 21.6098C18.4747 21.5658 18.4188 21.5321 18.3568 21.5321H10.7695C10.7075 21.5321 10.6516 21.5658 10.6078 21.6098L6.58376 25.6596C6.40691 25.8376 6.12016 25.8376 5.94331 25.6596C5.76645 25.4816 5.76645 25.193 5.94331 25.0151L9.40416 21.5321H7.06226C5.37097 21.5321 4 20.1523 4 18.4503V9.20498Z" fill="url(#paint4_linear_6036_2644)" fill-opacity="0.7" shape-rendering="crispEdges"/>
<path d="M4 9.20498C4 7.50289 5.37097 6.12317 7.06226 6.12317H14.3618V4.45576C14.3618 4.20405 14.5646 4 14.8147 4C15.0648 4 15.2676 4.20405 15.2676 4.45576V6.12317H22.3735C24.0648 6.12317 25.4358 7.50289 25.4358 9.20498V18.4503C25.4358 20.1523 24.0648 21.5321 22.3735 21.5321H19.7221L23.183 25.0151C23.3599 25.193 23.3599 25.4816 23.183 25.6596C23.0061 25.8376 22.7194 25.8376 22.5425 25.6596L18.5185 21.6098C18.4747 21.5658 18.4188 21.5321 18.3568 21.5321H10.7695C10.7075 21.5321 10.6516 21.5658 10.6078 21.6098L6.58376 25.6596C6.40691 25.8376 6.12016 25.8376 5.94331 25.6596C5.76645 25.4816 5.76645 25.193 5.94331 25.0151L9.40416 21.5321H7.06226C5.37097 21.5321 4 20.1523 4 18.4503V9.20498Z" stroke="url(#paint5_linear_6036_2644)" stroke-width="0.254005" shape-rendering="crispEdges"/>
</g>
<g id="Vector_3">
<path fill-rule="evenodd" clip-rule="evenodd" d="M21.4923 10.8262C21.6623 11.0089 21.655 11.2978 21.4762 11.4714L16.2105 16.5818L12.861 13.4134L8.32695 17.8079C8.14796 17.9814 7.86521 17.9738 7.6954 17.7909C7.52559 17.6081 7.53303 17.3192 7.71202 17.1457L12.8536 12.1625L16.2027 15.3304L20.8608 10.8096C21.0397 10.636 21.3224 10.6434 21.4923 10.8262Z" fill="url(#paint6_linear_6036_2644)"/>
<path fill-rule="evenodd" clip-rule="evenodd" d="M18.737 10.887C18.737 10.635 18.937 10.4307 19.1837 10.4307H21.8633V13.0414C21.8633 13.2934 21.6633 13.4978 21.4166 13.4978C21.1698 13.4978 20.9698 13.2934 20.9698 13.0414V11.3434H19.1837C18.937 11.3434 18.737 11.1391 18.737 10.887Z" fill="url(#paint7_linear_6036_2644)"/>
</g>
</g>
</g>
</g>
<defs>
<filter id="filter0_bdi_6036_2644" x="0.486314" y="-1.20705" width="30.1568" height="30.5137" filterUnits="userSpaceOnUse" color-interpolation-filters="sRGB">
<feFlood flood-opacity="0" result="BackgroundImageFix"/>
<feGaussianBlur in="BackgroundImageFix" stdDeviation="1.69337"/>
<feComposite in2="SourceAlpha" operator="in" result="effect1_backgroundBlur_6036_2644"/>
<feColorMatrix in="SourceAlpha" type="matrix" values="0 0 0 0 0 0 0 0 0 0 0 0 0 0 0 0 0 0 127 0" result="hardAlpha"/>
<feOffset dx="0.846683" dy="-0.846683"/>
<feGaussianBlur stdDeviation="2.11671"/>
<feComposite in2="hardAlpha" operator="out"/>
<feColorMatrix type="matrix" values="0 0 0 0 0 0 0 0 0 0 0 0 0 0 0 0 0 0 0.05 0"/>
<feBlend mode="normal" in2="effect1_backgroundBlur_6036_2644" result="effect2_dropShadow_6036_2644"/>
<feBlend mode="normal" in="SourceGraphic" in2="effect2_dropShadow_6036_2644" result="shape"/>
<feColorMatrix in="SourceAlpha" type="matrix" values="0 0 0 0 0 0 0 0 0 0 0 0 0 0 0 0 0 0 127 0" result="hardAlpha"/>
<feOffset dy="1.69337"/>
<feGaussianBlur stdDeviation="2.11671"/>
<feComposite in2="hardAlpha" operator="arithmetic" k2="-1" k3="1"/>
<feColorMatrix type="matrix" values="0 0 0 0 0.0117647 0 0 0 0 0.678431 0 0 0 0 0.921569 0 0 0 0.1 0"/>
<feBlend mode="normal" in2="shape" result="effect3_innerShadow_6036_2644"/>
</filter>
<linearGradient id="paint0_linear_6036_2644" x1="27.0846" y1="14.1252" x2="17.1366" y2="25.3822" gradientUnits="userSpaceOnUse">
<stop stop-color="#29C4FD"/>
<stop offset="1" stop-color="#03ABE8"/>
</linearGradient>
<linearGradient id="paint1_linear_6036_2644" x1="27.0846" y1="14.1252" x2="17.1366" y2="25.3822" gradientUnits="userSpaceOnUse">
<stop stop-color="#29C4FD"/>
<stop offset="1" stop-color="#03ABE8"/>
</linearGradient>
<linearGradient id="paint2_linear_6036_2644" x1="27.0846" y1="14.1252" x2="17.1366" y2="25.3822" gradientUnits="userSpaceOnUse">
<stop stop-color="#29C4FD"/>
<stop offset="1" stop-color="#03ABE8"/>
</linearGradient>
<linearGradient id="paint3_linear_6036_2644" x1="27.0846" y1="14.1252" x2="17.1366" y2="25.3822" gradientUnits="userSpaceOnUse">
<stop stop-color="#29C4FD"/>
<stop offset="1" stop-color="#03ABE8"/>
</linearGradient>
<linearGradient id="paint4_linear_6036_2644" x1="22.7563" y1="2.10495" x2="-0.67894" y2="24.1312" gradientUnits="userSpaceOnUse">
<stop stop-color="#F2FCFF"/>
<stop offset="1" stop-color="#73D9FF"/>
</linearGradient>
<linearGradient id="paint5_linear_6036_2644" x1="23.1391" y1="5.42129" x2="-0.0204719" y2="24.1334" gradientUnits="userSpaceOnUse">
<stop stop-color="#D9F5FF"/>
<stop offset="1" stop-color="white" stop-opacity="0.54"/>
</linearGradient>
<linearGradient id="paint6_linear_6036_2644" x1="22.9613" y1="4.42405" x2="13.3341" y2="5.49526" gradientUnits="userSpaceOnUse">
<stop stop-color="#D7F4FF"/>
<stop offset="1" stop-color="white"/>
</linearGradient>
<linearGradient id="paint7_linear_6036_2644" x1="22.9613" y1="4.42405" x2="13.3341" y2="5.49526" gradientUnits="userSpaceOnUse">
<stop stop-color="#D7F4FF"/>
<stop offset="1" stop-color="white"/>
</linearGradient>
<clipPath id="clip0_6036_2644">
<rect width="32" height="32" fill="white"/>
</clipPath>
</defs>
</svg>
