<svg width="34" height="34" viewBox="0 0 34 34" xmlns="http://www.w3.org/2000/svg">
<g id="Frame">
<path id="Subtract" fill-rule="evenodd" clip-rule="evenodd" d="M17.9107 6.07004H26.1071C28.119 6.07004 29.75 7.70095 29.75 9.7129V20.6414C29.75 22.6532 28.119 24.2842 26.1071 24.2842H23.8401L27.665 28.109C28.0366 28.4808 28.0366 29.0832 27.665 29.4549C27.2934 29.8266 26.6908 29.8266 26.3192 29.4549L21.1485 24.2842H12.8514L7.68074 29.4549C7.30908 29.8266 6.70655 29.8266 6.33489 29.4549C5.96333 29.0832 5.96333 28.4808 6.33489 28.109L10.1598 24.2842H7.89286C5.88091 24.2842 4.25 22.6532 4.25 20.6414V9.7129C4.25 7.70095 5.88091 6.07004 7.89286 6.07004H16.0893V5.15924C16.0893 4.65625 16.497 4.24854 17 4.24854C17.503 4.24854 17.9107 4.65625 17.9107 5.15924V6.07004ZM21.3726 10.8175C20.9595 10.8175 20.6246 11.1524 20.6246 11.5655C20.6246 11.9786 20.9595 12.3134 21.3726 12.3134H22.5304L18.068 16.667L14.0295 12.9276L7.83608 18.9581C7.54011 19.2462 7.53379 19.7198 7.82197 20.0158C8.11015 20.3117 8.5837 20.318 8.87967 20.0299L14.0554 14.9903L18.095 18.7307L23.4669 13.4898V14.1086C23.4669 14.5217 23.8018 14.8565 24.2149 14.8565C24.628 14.8565 24.9628 14.5217 24.9628 14.1086V11.7157V11.7143V10.8175H21.3726Z"/>
</g>
</svg>
