<svg width="16" height="16" viewBox="0 0 16 16" xmlns="http://www.w3.org/2000/svg">
<g id="Frame">
<path id="Vector" d="M8.375 7.625V2H8C4.69175 2 2 4.69175 2 8C2 11.3082 4.69175 14 8 14C11.3082 14 14 11.3082 14 8V7.625H8.375ZM8 13.2492C5.105 13.2492 2.75075 10.8942 2.75075 8C2.75075 5.23175 4.90475 2.95625 7.625 2.7635V4.82375C6.029 5.012 4.7855 6.35375 4.7855 8C4.7855 9.77525 6.22475 11.2145 8 11.2145C9.64625 11.2145 10.988 9.97175 11.1762 8.37575H13.2365C13.043 11.096 10.7682 13.2492 8 13.2492Z"/>
</g>
</svg>
